<svg xmlns="http://www.w3.org/2000/svg" width="1000" height="783" fill="#7c7c7c" stroke="#fff" stroke-linecap="round" stroke-linejoin="round" stroke-width="2" baseprofile="tiny" version="1.2" viewbox="0 0 1000 783"><path id="AZE1676" d="M170.8 151.1l-5.1 2.9-6.7 3.3-4.6 4-3.2 5.5-9.7-0.1-5.4 4 4.3 13.1-1.9 7.9-5.1 5.4-5.2 1.6-5.1 1.4-6.2 8.5-1.9 6.8-2.4-0.7-2.1-2.3 1.5-7.3-1.1-5.3-4.7 0.5-1.6 0.8-0.4-1.8-0.4-7.8-1.7-10.8 0-3.2 2-3.1-1.1-3.7 4.5-14.3-1.2-8.3-0.6-0.2-19.2-2.3-4-1.9-6.9-4.8-7.4-1.7-3.4-2-7.9-7.8-0.7-1.5-0.1-1.5 25.9-21.5 5.5-2 5.6 0.3 11.4 6 2.6 0.5 3.5-0.3 5.6-1.7 2.5 0.4 2.5 2.9 5.6 5.2 24.5 9.6 11.1 2.3 4 1.6 0.2 1.4-2.5 1.3-3.9 1.4-3.8 4.8 4.1 6.4 7.1 6.1 3.2 2z" data-id="AZE1676" data-name="Ağstafa" name="Ağstafa"/><path id="AZE1677" d="M223.5 283.3l6.3 4.1 6.1 4.6 4.7 2.9 3.9 3.3-5.6 8.6-6.1 9.2 4.4 6.9 5.7 5 5.7 4.2 0 6.8-7.9 8.7-4.1 11.8-11.9 1.2-11.9-0.9-10.7-2-9.6 3.8-1.5 8.1-1.2 0.4-3.4-0.2-7.2-8 1.4-4 0.1-3.4 1.7-2.5 1.2-4.6 0.1-5.4 1.9-4.5-1.5-4.5-2.3-3.7-2-3.9 3-14.3 12.2-7.5 6.8-9.2 6.8-9.9 6.7-5.5 8.2 4.4z" data-id="AZE1677" data-name="Daşkəsən" name="Daşkəsən"/><path id="AZE1678" d="M195 303.5l-12.2 7.5-3 14.3 2 3.9 2.3 3.7 1.5 4.5-1.9 4.5-0.1 5.4-1.2 4.6-1.7 2.5-0.1 3.4-1.4 4-0.2-0.2-39.7-22.6-10.1-9.5-5.5-11.8-1.5-2.6-3.5-2.3-1.6-1.8-0.7-2.4-0.4-5-0.7-2.2-3-3.7-3.4-2.7-3.3-3.3-2.4-5.2 0-9.6 4.3-7.5 6.6-5.6 6.9-3.3 1.2 2.5 0.9 7.4 5 3.2 6.3 0.2 5.3 2.3 3.5 4.8-0.5 6.1 4 2.6 4.1 3.3 4.2 2.1 4.2-4.4 1.2-6.9 0.9-10.5-0.1-9.8-0.7-9.9 2.2-9.9 3.2 4.2 3.1 3.8 2.1 3.7 1.1 4.6 5.3 9 7.3 6 6.4 6.1 3.9 7-0.6 5 0.5 5.3-1.2 2.6 1.2 2.6z m-62.2-14.5l2.3-5.9-4.5-2.5-2.4-0.3-2.5 0-2.4 0.7-2.1 1.6-1 2.2-0.4 2.3 0.4 2.4 1 2.1 5.9 1.8 5.7-4.4z" data-id="AZE1678" data-name="Gədəbəy" name="Gədəbəy"/><path id="AZE1679" d="M280.3 274.6l-4.9 8.1-6.4 6.1-6.5-0.9-1.6-7 2.6-7 3.6-5.5 1-2.6 8.7 0.2 3.5 8.6z" data-id="AZE1679" data-name="Gəncə" name="Gəncə"/><path id="AZE1680" d="M268.1 265.8l-1 2.6-3.6 5.5-2.6 7 1.6 7 6.5 0.9 6.4-6.1 4.9-8.1 10 0.9 4.7 10.8-0.4 13.3 2.6 3-1.1 4-3.7 4.5-3.9 4.4-6.2 5.8-5.6 6.7-3.3 5.4-3.9 4.8-5.1 12.7-0.2 15.5-14.3-2.1-13.3-4.9 4.1-11.8 7.9-8.7 0-6.8-5.7-4.2-5.7-5-4.4-6.9 6.1-9.2 5.6-8.6-3.9-3.3-4.7-2.9-6.1-4.6-6.3-4.1 6.2-4.5 7-1.6 5.5 0.1 4.6-3.4 0.9-3.9 0.6-4 2.7-6.5 0.4-4.5 0.7-4.2 2.5-4.7 2.7-4.7 5.1 11.2 5.7 13.2z" data-id="AZE1680" data-name="Xanlar" name="Xanlar"/><path id="AZE1681" d="M367.6 320.8l-7.9 7.7-3.3 2.1-6.8 5.2-3.7 2.1-6.3 0.2-6.4-0.2-8.5 3.7-8.2 5.2-9.4 3.7-5.9 7.7-18 11.2-19-3 0.2-15.5 5.1-12.7 3.9-4.8 3.3-5.4 5.6-6.7 6.2-5.8 3.9-4.4 3.7-4.5 1.1-4-2.6-3 0.4-13.3-4.7-10.8 3-10.4 6.8-6.4 3.1-3.2-0.9-4.6 1.5-3.2 3.4-2 8.8-8.3 8.6-8.6 7.4-8.8 7.6-8.6-1.6 9 1.1 18.4-1.4 9.1-3 8.8 4 6.5 6.8 1 5.7 4-4.2 6.9-5.3 7.3 3.1 4.9 6.8-4.2 5.9 0.5 4.4 4.9-0.3 9.6 1 9.8 4.8 1.6 5.3-0.8 1.4 2.1-0.7 3.4-1.9 4.8-3.9 1.8z m-16-3.6l1.6-1.1 0.2-2.2-2.3-2.1-2.7 3 0.6 1.4 1.1 1.1 1.5-0.1z" data-id="AZE1681" data-name="Goranboy" name="Goranboy"/><path id="AZE1682" d="M236.6 359.4l13.3 4.9 14.3 2.1 19 3 18-11.2-0.7 3.9-1.1 3.7-3.4 2.9-0.8 8.2 1.9 8 1.5 7.3 2.2 6.1 3.9-1.2 3.8-3 10.2 1 8.5 8.1 4.4 3.5 2.1 4.5 2.2 5 4 4.5-5.9 0.5-4.9 2.8-7.1 1.3-6.2 3.3-3.8 5.6-5.3 3.1-4.6-3.4-5.2-2.6-10 6.1-7.1 3.2-7.2 2.6-7.7 1.2-7.3 3.2-12 4.1-12.3 1.8-6 1.9-5.8 0.7-4.3-4.8-4.4-3.6-3.4 5.4-3.2 7.4-6.2 5.6-6.7 4.8-3.2 2.5-3.6-1.8-7.7-7.7-9-18.5-3.7-4.1-4.6-2.3-17.8-1.8-5.4-2.5-0.6-5.3 10.8-7 28.1 4.7 11.9-1.2 2.3-1.9 1.1-2.4 2.1-10.2 0.6-1.7 3.8-3.4 3.2-4.3 2.1-5.5 3.1-14.4 0.1-1.3-0.4-2.6-4.4-5.8-2.5-2.4-2.4-1.3-3.8 0.2-2.4 0.7 1.5-8.1 9.6-3.8 10.7 2 11.9 0.9 11.9-1.2z" data-id="AZE1682" data-name="Kəlbəcər" name="Kəlbəcər"/><path id="AZE1683" d="M372.4 253.2l6.4 2.4 3.4-1.2 3.3 0.1 1.8 2.4 1.6 3.1-13.8 5.7-8.1-9.6 5.4-2.9z" data-id="AZE1683" data-name="Mingəçevir" name="Mingəçevir"/><path id="AZE1684" d="M77.1 208.4l-1.8 2.5-4-0.6-1.6-5.2 1.1-0.9 1.4 0 4.9 4.2z m-32.5-15.2l-2.5 5.2-6.2-2.1-2.1-2.7-1.1-3.5 0.6-3.1 2.6-1.9 6.8 1.6 1.9 6.5z m60 7.9l-7.9 4-3.9-0.6-7.5-3.1-8-1-2.9-2.3-2.6-2.9-3.5-2.2-5.6-5.8-2.8-1.5-0.5 4.1-1 2.7-3.3-0.3-3.7-2.6-2.2-3.7 1.8-7.3 16.9 0.7 5.8-4.3-0.2-3.6-2.2-3.2-8.9-7-2.9-1-11.2 0-2.9-1.3-0.9-2.8 1.7-4.8-6.3-13.4 16.2-13.5 0.1 1.5 0.7 1.5 7.9 7.8 3.4 2 7.4 1.7 6.9 4.8 4 1.9 19.2 2.3 0.6 0.2 1.2 8.3-4.5 14.3 1.1 3.7-2 3.1 0 3.2 1.7 10.8 0.4 7.8 0.4 1.8z" data-id="AZE1684" data-name="Qazax" name="Qazax"/><path id="AZE1685" d="M257.3 241.4l-2.7 4.7-2.5 4.7-0.7 4.2-0.4 4.5-2.7 6.5-0.6 4-0.9 3.9-4.6 3.4-5.5-0.1-7 1.6-6.2 4.5-8.2-4.4-6.7 5.5-6.8 9.9-6.8 9.2-1.2-2.6 1.2-2.6-0.5-5.3 0.6-5-3.9-7-6.4-6.1-7.3-6-5.3-9-1.1-4.6-2.1-3.7-3.1-3.8-3.2-4.2-0.1-7 3-5.4 5.1-3.4 4.8-4.1 5.6-4 5.5-4.2 3.3-6.8 2.5-6.3 8.2-1.6 17.1 2.1 8.4-1.9 1.2-3.2 1.5-3.4 3.8-5.1 7-7.5 5.3-9 7.2 9.6 7 9.8 3.9 7.6-0.9 8-2.6 4.4-1.3 5.3-0.8 4.1-1.4 3.9-1.7 8 3 7.9z" data-id="AZE1685" data-name="Şəmkir" name="Şəmkir"/><path id="AZE1686" d="M315 179.1l5 3.8 7.8 0.3 6.8 4.1 0.7 6.3 1 6.6 2.5 5.2 0.8 6-7.6 8.6-7.4 8.8-8.6 8.6-8.8 8.3-3.4 2-1.5 3.2 0.9 4.6-3.1 3.2-6.8 6.4-3 10.4-10-0.9-3.5-8.6-8.7-0.2-5.7-13.2-5.1-11.2-3-7.9 1.7-8 1.4-3.9 0.8-4.1 1.3-5.3 2.6-4.4 0.9-8-3.9-7.6-7-9.8-7.2-9.6-9.6-4.7-9.4-5.4-0.9-0.6 4.3-2.8 3.8-0.9 12.8 0 3.1 1 2.7 2.7 5 6.2 10 9.2 3.5 2.1 10.2 3.3 2.8 2.5 4.8 6.4 3 1.9 3.7-0.1 1.5-2.4 1-3.6 1.9-3.6 3.6-2.3 3.4 0.4 3.2 0.9 3.4-0.6 2.3-3.3z" data-id="AZE1686" data-name="Samux" name="Samux"/><path id="AZE1687" d="M225 162.1l0.9 0.6 9.4 5.4 9.6 4.7-5.3 9-7 7.5-3.8 5.1-1.5 3.4-1.2 3.2-8.4 1.9-17.1-2.1-8.2 1.6-2.5 6.3-3.3 6.8-5.5 4.2-5.6 4-4.8 4.1-5.1 3.4-3 5.4 0.1 7-2.2 9.9 0.7 9.9 0.1 9.8-0.9 10.5-1.2 6.9-4.2 4.4-4.2-2.1-4.1-3.3-4-2.6 0.5-6.1-3.5-4.8-5.3-2.3-6.3-0.2-5-3.2-0.9-7.4-1.2-2.5 13.3-6.4 4.5-5.1 3.2-9.3-0.4-5-2.9-1.6-4-0.3-3.5-1.1-2.7-2.7-7.3-9.5-4.5-3.7-1.7-0.4 1.9-6.8 6.2-8.5 5.1-1.4 5.2-1.6 5.1-5.4 1.9-7.9-4.3-13.1 5.4-4 9.7 0.1 3.2-5.5 4.6-4 6.7-3.3 5.1-2.9 8.6 5.3 25.4 9.2 8.2 1 4.1-0.4 3.4-1.2 4.5-2.9z" data-id="AZE1687" data-name="Tovuz" name="Tovuz"/><path id="AZE1688" d="M368.6 223.8l15.5 7.9 15.3 8.6 13 5.4 13 5.7-4.8 18.2-2.2 7.6-0.1 8.1 2.2 6.8-1.8 6.9-2.7 3.3-1.1 1.3-4.8 2.8-5.9 13.1-10 1.6-10.6 1.6-8.3 12.5-3-3.4-2.6-3.8-0.8-3.7-1.3-3.5 3.9-1.8 1.9-4.8 0.7-3.4-1.4-2.1-5.3 0.8-4.8-1.6-1-9.8 0.3-9.6-4.4-4.9-5.9-0.5-6.8 4.2-3.1-4.9 5.3-7.3 4.2-6.9-5.7-4-6.8-1-4-6.5 3-8.8 1.4-9.1-1.1-18.4 1.6-9 14.7 4.5 14.3 7.9z m3.8 29.4l-5.4 2.9 8.1 9.6 13.8-5.7-1.6-3.1-1.8-2.4-3.3-0.1-3.4 1.2-6.4-2.4z m39.4 45.1l-0.4-1.4-0.1-2.7 0.4-1.6 1.7-4 0.3-2.9-0.8-0.7-1.9-0.2-3.7 0.2-7.8 0-3 4.8 2.4 7.3 5.4 3.2 5.9 0.3 1.6-2.3z" data-id="AZE1688" data-name="Yevlakh Rayon" name="Yevlakh Rayon"/><path id="AZE1689" d="M995.8 352.7l2.4 2.6 0.8 3.5-1.2 2.3-3.2-0.8-2.1 0.7-2.5-2.1-1.7-3.3 0.4-2.9 2.2 1.7 1.6-0.5 1.5-1.2 1.8 0z m-47.9-32.3l2.1 1.1 2.6-0.9 1.2 1.4 0.4 4.7 1.6 2.5 2.1 1.9 1.8 3.1 0.2 2.6-1.4 1.6-2.5 0.5-3.4-0.1 0.8-5.5-5.5-7.6 0-5.3z m-165 181.8l-1.7-6.7-0.7-7.5-0.4-9.6 2.5-8.5-0.2-5.8-0.7-5.6-2.4-3.5-2.5-3.3-2.3-7.1-3-6.1 2.1-6 1.3-6.1 2.9-4.2 2.6-4.3-0.5-4.5-0.8-4.6 2.1-4.9 3-4.3 1.1-4.2-0.2-3.7 1.3-3.8 2.9-2.9 5-9.7 0.7-12.5-1.6-12.3-0.2-11.3 5.4-5.5 7.2-1.1 4.2-4.3 4.4-5.1 14-0.4 5-0.9 5.2-0.2 7.7 2.4 4.1-1.3 4-2 7.8-1.7 7.8-2.1 3.2-3.7-5.9-2.3-7.3-2.4-7.1-2.2-3.2 1-3 1.4-4-0.8-3.2-3.7 2.8-5.1 0.5-2.2 2.4 1.2 8.5 1.1 7.3 2.3 4 0.4 3.2-0.7 9.4-3.9 4.1-0.7 19.4 0.7 1.5 1.4 2 4.7 3.1 3.8 3.2 2.9 3.5 2 15.4 3.3 3 1.7 1.9 3.3 2 5.2 2.6 4.8 3.4 2.1 3.7 1.4 3.2 3.4 2.5 4.5 1.7 4.6 1.7 18.5 1.2 1.8 1.4 4.2 0.9 4.7-0.6 3.1-3.2-6.4-3.6-5.6-4.2-4.9-8.4-6.9-3.6-2-3.9-1.5-7.6-1-6.4-2.1-3.4-0.5-2 0.2-3.9 1.5-6.5 0-3 1.3-5.8 4.8-3.4 0-1.2-1.1-2.2-3.5-1.4-1.5-1.8-0.7-4.3-0.8-4.5-2.4-3.4 1.9-5.7 5.1 1.2 5.3-4.8 4.9-6.9 3.6-11.4 2.6-9.9 5.8-13.1 4.8-3 2.3-6.6 7.2-2.9 2.1-1.9 2.4-0.3 4.9 0.9 6 0.1 2.4-9.2 3.6-1.7 3.5 0.4 4.5 2.3 4.5 1.6 1.6 2.4 1.9 1.3 1.7 0.7 2.3-0.9 1.4-1.7 1.1-3 2.8-2.6 1.6-1.3 2.3-0.7 2.6-0.1 2 0.8 4.5 2 4.8 0.6 2.6-0.8 2.5-2.8 2.8-1 1.3-0.3 2.1 1.3 3.7-0.1 1.6-0.7 1-2.8 2-1.1 3.2 0.1 1.4 1 1.5-0.8 2.9 1 3 3.9 5.5-0.2 1.8-2.4 1.9-4.4 2.5-4.3 5.2z m44.9-157.2l3.8 0.9 4.1-0.5 3.8-1.8 2-2.2-1.9-3.3-3.6-5.6-7.1 0.4-5.4 3.4 3 4.5 1.3 4.2z" data-id="AZE1689" data-name="Bakı" name="Bakı"/><path id="AZE1690" d="M827.8 345l-1.3-4.2-3-4.5 5.4-3.4 7.1-0.4 3.6 5.6 1.9 3.3-2 2.2-3.8 1.8-4.1 0.5-3.8-0.9z m11.7-40.7l3.2 3.7 4 0.8 3-1.4 3.2-1 7.1 2.2 7.3 2.4 5.9 2.3-3.2 3.7-7.8 2.1-7.8 1.7-4 2-4.1 1.3-7.7-2.4-5.2 0.2-5 0.9-14 0.4-4.4 5.1-4.2 4.3-7.2 1.1-5.4 5.5 0.2 11.3 1.6 12.3-0.7 12.5-5 9.7-2.9 2.9-1.3 3.8 0.2 3.7-1.1 4.2-3 4.3-2.1 4.9 0.8 4.6 0.5 4.5-2.6 4.3-2.9 4.2-1.3 6.1-2.1 6-3.1-4.4-3.4-4.1-1.5-3.7-0.3-4.4-3.7-6.3-3.4-6.7-1.4-7.4-4.2-5.6-7.8-1.3-8.1 0.1-6.2-0.6-5.9-1.7-5-6.5-4.8-7.3-4.9-5.5-5.4-5-4.6-5.1-1.6-8.3 5.9 2.4 8.7 5.9 3.1-3.4 3.7-3.8 8.5-8.9 5.9-1.9 3.4-3.6 2.6-4.9 4.9-2.9 5.4-1 5.1-2.3 4.9-3.9 4.7-4.8 3.6-6.6 12.5-0.4 11-5 1.6-8.5 1.9-2.8 2.3-2.7 4.7-4.2 3.4-5.8 6.6 4.4 5.9 6.8 2.7 5 3 4.7 8.6 0.8 8.7-3z" data-id="AZE1690" data-name="Abşeron" name="Abşeron"/><path id="AZE1691" d="M395.3 390.9l12.1-1 12.2 0.3-7 7.1-8 5.2-0.7 5.1 5.1 4.4-4.7 4.3-6.4 2-0.2 6.1-0.5 6.2-2.1 1.7-2.2 1.4 3.8 11 14 3 7.2-2.8 7.5-1.1 3.9 6.4-3.6 7.8-2.7 1.9-5.4-1.4-5.4 0.6-2.7 3.6-2.2 3.5-9.7-2.3-9.3-6.3-7.1-3.5-7.4 1.8-1.8 6.4-3.4 5.4-6.7 2.6-6.4 3.3 3.3-6.9 3.8-6.6 3.5-4.6 1.5-6-7-3.3-6-5.6-4.3-9.9-8.2-4.2-7 2-6-4.5 4.9-2.8 5.9-0.5 0.8-8 2.5-6 4.4-4.6 1.3-7.6 9.2-4.2 10.7-5.3-1-3.6 1.2-2.8 2.2 0.8 1.8 1.8 4.3 0.8 3.9-1.7 3.2 4.1 1.6 5.7 4.5 1.4 4.8-0.6z" data-id="AZE1691" data-name="Ağdam" name="Ağdam"/><path id="AZE1692" d="M470.2 257.5l0.6 9.9 0.5 9.8 4.1 4.5 5.6 3.3 2.8 3.3 2.3 3.4-0.7 2.5-2.1 2.2-2.1 6.7-0.6 7.5-6.6-2.1-6.4 0.7-5.1 3.4-2.5 14.7 2.4 5.6 4.8 2.8 2.6 5.1-2.3 6.1-2.6 5.7-5.5 6-3.3 2.9-1.1-1.9-1.8-2-0.8 0.4 0.5-4.6 0.7-2 1-1.8-2-2.8-6.4 1-3.2-1.3 3.4-5-1.3-2.5-9.2-3.3 1.4-1.7 3.5-2.7 1-1.7 0.3-3.6-1.3-0.5-1.9 0.8-2.1 0.4-2.6-0.1-0.6-0.5 0.1-2.2-1.2-1.2-0.9-1.6-1.4-1.5-1.9-0.8-1.3-1.7 1.1-4.1 0.4-4.1-3-2.3-1.3 0.6-1.6 1.7-2.5 3.1-1.6 1-0.6-2 0.2-2.9 1.5-2.5-2-2.2-1.6-1.1 2.7-3.3 1.8-6.9-2.2-6.8 0.1-8.1 2.2-7.6 4.8-18.2 7.1 1.4 7 1.8 4.3 1.8 4.1 0.1 3.1-1.6 3 0.9 3 1.5 6.5 1.5 6.7-1.3z" data-id="AZE1692" data-name="Ağdaş" name="Ağdaş"/><path id="AZE1693" d="M631.9 354.1l-3.5 5-2.2 6.8-5.8-4.8-3.8-7.6-4.8-2.4-5.1-1.8-0.2-8.4-0.4-8.9-6.7-3.3-7.6 0.6-9.8 8.2-6.6-6.4-6 1.2-4.7-4.4 1.5-9.6 3.4-9.2 3.3 2.1 3.1-2.4 1.3-6.6 2.9-3.5 3.5-2.8 4.3-2.5 4-2.8 0.9-2.2 1.4-2 16.8-8.1 10.2-7.7 5.2-9.3 3.3-11.1 1.5 3.1 1.2 3 5.3 5.4 3.2 7.1-1.8 4.2-2.1 4.2 0.1 3.9-2.5 3.7-7.4 7.1-1.9 9.3 4.8 6.3 6.5 2.7 11.8 0.3 3.7 2 3.5 2.6 3.8 1.8 2.9 2.4-2.7 3.2-3.5 1.8-8.7 3.8-7.4 6-1.1 10.9-3.3 4.6-3.8 4.5z" data-id="AZE1693" data-name="Ağsu" name="Ağsu"/><path id="AZE1694" d="M696.2 354.7l1.6 8.3 4.6 5.1 5.4 5 4.9 5.5 4.8 7.3 5 6.5 5.9 1.7 6.2 0.6 8.1-0.1 7.8 1.3 4.2 5.6 1.4 7.4 3.4 6.7 3.7 6.3 0.3 4.4 1.5 3.7 3.4 4.1 3.1 4.4 3 6.1 2.3 7.1 2.5 3.3 2.4 3.5 0.7 5.6 0.2 5.8-5.2-4.1-5-4.2-2.5-3.6-3-2.5-8.6 2.3-5.8-1.2-8.6-0.8-8.8-1.4-6.7-3.7-6.6-4.5-6.1 0.4-5.7 0.7 2.6-2.8 2.3-2.7 0.2-6.6-0.7-1.9-1.6-1-2 0.3-4.5-0.2-3.7-1-2.5 0.8-5.8-4.7-3.4-1.1-9.7-1.7-2.1-0.9-1.3-3.1-3.1-1.1-3.9-0.7-4.4-2.4-1.2-0.1-0.2-5.2-0.5-0.4-0.6-4.1 0.3-2.8-3.7-2.1-15.4-4.2-15.9-0.2 1.4-9.3-0.4-8.9-0.9-7.6-3.1-5.7 2.2-6.8 3.5-5 6.9 1.7 6.8 1.9 6.9 4.2 7.4 3.5 5.8 2.9 5.6-2.9 5-5.6 2.2-8.7 8.4 4.6 9.3-1z" data-id="AZE1694" data-name="Hajigabul" name="Hajigabul"/><path id="AZE1695" d="M642.5 765.3l1.9-5.5 2.6-4.5 1.2-5.1 3.1-3 3.6-2 4-1.2 3.8 0.5 3.8-1.5 3.7-2.2 15.3-0.8 13.8-3.8 1 36.8-11-2.3-5.5-0.1-3.8 2.1-3.4 3.4-4.3 2.7-4.6 2-4.1 1.2-8.8-0.7-5.4-5.3-4.7-7.9-2.2-2.8z" data-id="AZE1695" data-name="Astara" name="Astara"/><path id="AZE1696" d="M456.1 361.5l0.4 1.8 13.5 1.7-1.4 1.9-3.2 1.3-1.4 1.4-0.8 1.9-14.4 10.9-14.4 9.6-5.7 1.9-5-3.6-4.4-3.6 0.3 3.5-12.2-0.3-12.1 1-0.8-4.3-1-4.1-0.4-7.7 0.7-14.1-4.9-1.8-4.1-3.7-3-5.5-2.4-1.7-1.8-2.4-2.3-10.4 8.3-12.5 10.6-1.6 10-1.6 5.9-13.1 4.8-2.8 1.1-1.3 1.6 1.1 2 2.2-1.5 2.5-0.2 2.9 0.6 2 1.6-1 2.5-3.1 1.6-1.7 1.3-0.6 3 2.3-0.4 4.1-1.1 4.1 1.3 1.7 1.9 0.8 1.4 1.5 0.9 1.6 1.2 1.2-0.1 2.2 0.6 0.5 2.6 0.1 2.1-0.4 1.9-0.8 1.3 0.5-0.3 3.6-1 1.7-3.5 2.7-1.4 1.7 9.2 3.3 1.3 2.5-3.4 5 3.2 1.3 6.4-1 2 2.8-1 1.8-0.7 2-0.5 4.6 0.8-0.4 1.8 2 1.1 1.9z" data-id="AZE1696" data-name="Bərdə" name="Bərdə"/><path id="AZE1697" d="M515.5 402.7l-7.2 6.7 6.1 6.4 5.6 6.6-0.3 8.7-6.7 4.8-3.4 2-2.5 3.3 2 3.5 3.2 2.1-2.9 8-1.1 6.5 6.4 3.3 5.6 5.1 6.1 5.1 5.9 4.4-1.1 6.8-7.3 4.3-7.3 6.5-1.6 7.4-7.3 7.5-20.5 11.6 0-9.1-10.9-9.1-3.7-6-4.1-4.8-5.7-1.5-2.8-6.5-3.2-5.3-2.4-4.4 2.2-1.9 2.3-1.5-2.2-6.5 2.9-4.9 5.2-2.2 1.1-2.3 2-1.4 4.1 0.4 4.1-0.4 5.5-2.3 5.7-1.6 5-5.3 2.6-7.9 1.9-10.4 1.7-10.8 3.8-8.5 7.3-16.6 2.4 0.2 2.2 1.2 0.2 2.7 0.9 5.6 0.2 0.5z" data-id="AZE1697" data-name="Beyləqan" name="Beyləqan"/><path id="AZE1698" d="M615.9 512.1l9.3-8.9 9.7 5.9 8.5 4.6 7-8.2 7.4 1.2 7.4 3.2 8.4 3 8.4 2.8-3.7 11.4-0.9 11.4 3.4 4.3 3.1 4.6-0.8 5.9-1.7 5.9-4.3 0.1-4.1-1.1-2.8-1.4-2.8 0-2 2.6-1.4 3.1-2.6 2.4-0.6 3.2-0.3 9.6-5.3 5-5.6-3.5-1.8-7.9-3.9-6.2-6 0-5.2 6.2-5.9 5-3.5 0.4-3.2 1.7-2 2.5-2.5 2.2-6.2-3.5-0.5-10.5-1.7-2.7 1.8-0.6-3.8-8-4.8-6.6-11.7-10.8-28.7-34.6-10.4-9.8-3.3-2.2-2.4-0.6 0.2-2.1 10.4 0.9 12 9 11.1 11 20 12.3 18.3-12.2z" data-id="AZE1698" data-name="Biləsuvar" name="Biləsuvar"/><path id="AZE1699" d="M389.7 546.6l6.1 3 5.9 3.5 3.3 6.1 3.4 5.3 4.7-0.7 4.9-1.1 5.2 3.3 2 2.6-2 1.1-17 6.6-8.2 5.1-1.6 1.9-0.6 2.1-6.2 9.9-2.9 8.4-0.8 1.6-1.8 2.2-11.4 6.4-2.1 0.4-2.5-0.7-4.8-2.1-2.7 0-2.8 1.4-1.6-6.2-5.8-7.6-5.6-4.1-5.9-3.5-2.6-6.2-0.6-7.3-3.3-4.9-2.4-4.8 1.1-6.8 4-3.9 6.8 2.6 6.3 0.6 2.2-7.2-2.6-7.1 3.7-2.5 4.3 2.9 5.3 2 1.1 2.5-0.2 3.1 5 4.3 5.7 3.2 2.2 4 4.3-0.7 2.9-2.7 3.4-0.5 2.6-0.1 0.1-2.9-2.1-6.8 3.6-5.7z" data-id="AZE1699" data-name="Cəbrayıl" name="Cəbrayıl"/><path id="AZE1700" d="M681.4 559.2l-4.4 5.7-3.8 6.2-1.3 8.4 1.3 8.4 6.1 14-1.9 15-3.4-1.5-3.5 0.1-0.3 3.5-1.6 1.6-3.2-1-3.2 0.8-0.2 5.1 2.7 5-4 2.9-4.8 1.8-4.8 3.3-3.8 4.9-6.2 6.7-8.5 2.3-4.7-5.9-5.9-3.9-4 0.9-4 1.3-11.4 0.5 0.8-3 0.1-3.1-0.9-2.7-5.2-11.1-2.5-2.5-9.8-4.1-9.7-9.4-4.2-5.9-2.3-5.9 0.4-7.6 3.1-6.3 4.9-4.7 5.8-3 10.7-2.1 8.9-6.1 4.5-1.4 1.7 2.7 0.5 10.5 6.2 3.5 2.5-2.2 2-2.5 3.2-1.7 3.5-0.4 5.9-5 5.2-6.2 6 0 3.9 6.2 1.8 7.9 5.6 3.5 5.3-5 0.3-9.6 0.6-3.2 2.6-2.4 1.4-3.1 2-2.6 2.8 0 2.8 1.4 4.1 1.1 4.3-0.1z" data-id="AZE1700" data-name="Cəlilabad" name="Cəlilabad"/><path id="AZE1701" d="M735.1 122.7l5.2 10.8 2.5 3.6 2.1 4.3 1 4.9 2.1 19.7 1.1 4.2 2 1.9-2.4 0.2-6.8-5.4-6.5-5.4-5.4 1.7-5.4 2.3-12.3 0-5.6 7.9 3.1 7.7 0.1 8.5-1.7 3.9-2.5 3.1-6.7 1.2-4.9 3.5-2.5 6 1.4 10.3 2.2 10.4-5.6 3.5-5.1 4.9-8.6-4.7-8.8-4.3 0.6-10-0.9-8.6-2.5-5.4 3.3-5 4.3-3.4 2.3-5.8-6.2-8.1-7.2-7.3 4.5-10.9 8.9-7.9 4.4-5.6 0-3.3-2.3-2.8-0.2-9.2 2-9.4 5.5-0.6 5.4-2.5 5.4 2 5.9 0.4 7.8-3 8 0.7 8.9 1.6 9.1-0.3 1-0.3z" data-id="AZE1701" data-name="Dəvəçi" name="Dəvəçi"/><path id="AZE1702" d="M487.2 523.3l-3.1 1.7-9 9.2-2.2 1.5-3.8 0.4-12 4.1-7.1 4-5.6 4.7-8.5 10.9-5.6 5.8-5.1 3-2-2.6-5.2-3.3-4.9 1.1-4.7 0.7-3.4-5.3-3.3-6.1-5.9-3.5-6.1-3 1.3-2.9 0-2.4 3.2-0.6 3-0.9-0.8-4.3-1-4.4 1.4-2.6 1.7-2.4-1.3-4.9-5 2.1-3.5 3-3.8 0.4-1.1-3.7 2.8-3.3 7-1.6 3.9-4.9-5.5 0.8-6.4-1.3 3-5.1 7.8-0.6 3.9-1.6 3.8-2.2 3-3.2 3.2-1.8 5.1-0.9 5.2-1.4 6.6-1.3 6.5-1.6 13.1-3.5 13.2-3.2 2.8 6.5 5.7 1.5 4.1 4.8 3.7 6 10.9 9.1 0 9.1z" data-id="AZE1702" data-name="Füzuli" name="Füzuli"/><path id="AZE1703" d="M555.8 313.4l1.3 11.9-7.2 4.1-4.4-1.8-4.5 0.5-6.6-0.9-6.3-2.9-11.6-6-3.4-0.3-2.8 2.4-3.4 1.8-4.1-1.8-4.2-3.4-4.5-2.5-7 2.4-3.6-2.9-2.9-3.4 0.6-7.5 2.1-6.7 2.1-2.2 0.7-2.5-2.3-3.4-2.8-3.3 6.2-3.6 6.7-1.5 6-0.2 5.6-2.7 5.9 1.6 10.2 3.5 4.2-0.3 8.6 0.9 8.7 2.8 9 2.5 7.2 6.1-4.2 10.3 0.7 9z" data-id="AZE1703" data-name="Göyçay" name="Göyçay"/><path id="AZE1704" d="M605.2 419.2l1.3 2.1-0.3 2.6-2.1 1.6-3.4 0.9-3.6 2.9-3.4 3.3-2.3 3.7-1.7 3.8 1.7 2.6 2.1 2.5 0.7 5.1-2.2 4.8-2.8 5.3-1.4 5.8 1.6 5.2 2.8 4.4 10.3 3.5 8.1 7.3-0.3 3-0.9 2.7-0.3 4.9 0.1 5 2.6 5.2 4.1 4.7-18.3 12.2-20-12.3-11.1-11-12-9-10.4-0.9-0.2 2.1-2 2.9-1.8 1.7-2.1 0.5-13-0.3-4 1.1-3.3 2.3-2.7 2.8 1.6-7.4 7.3-6.5 7.3-4.3 1.1-6.8-5.9-4.4-6.1-5.1-5.6-5.1-6.4-3.3 1.1-6.5 2.9-8-3.2-2.1-2-3.5 2.5-3.3 3.4-2 6.7-4.8 0.3-8.7-5.6-6.6-6.1-6.4 7.2-6.7 1.8 3.8 3.4-1 1.7-0.9 1.8 0.3 1.6 0.7 3.3 1.3 2.8 3.1 1 0.8 1.2-0.5 1.5-1.9 2-0.4 5.3 2.7 2 0.4 1-1.1-0.2-4.8 0.1-2.5 0.6-1.9 1.8-1 2.1 1 2 1.6 1.7 0.7 3.5-2.2 3.4-3 2.7-0.1 1 6.2 1.3 2.6 9.2 5.7 1.6 0.6 1.3 0.1 0.8 0.9-0.2 3.1 5.5-2.8 3.1-0.7 3 0.4 2.9 2.1 1.2 1.5 1.2 3.7 1.4-0.5 2.1-2.3 2.6-1.4 1.4 0 1.4 0.9 0.8 1.3z" data-id="AZE1704" data-name="İmişli" name="İmişli"/><path id="AZE1705" d="M617.5 215.3l7.6 8.8 8.9 6.3 1.2 10-5.4 9.8-3.3 11.1-5.2 9.3-10.2 7.7-16.8 8.1-1.4 2-0.9 2.2-4 2.8-4.3 2.5-3.5 2.8-2.9 3.5-1.3 6.6-3.1 2.4-3.3-2.1-6.8 2.6-7 1.7-0.7-9 4.2-10.3-7.2-6.1-9-2.5-8.7-2.8-8.6-0.9-4.2 0.3-10.2-3.5-5.9-1.6 4.6-5.7 4.3-6 3.5-6.6 5-4.3 7.8-3.5 6.6-5.2 0.1-5.2 0.6-5 2.2-0.9 2.6-0.4 4.9-4.2 0.6-7.1-4.1-7.1-1.8-7.4 0.9-2.7 1.5-2.4 4.8 0.9 1.4-3.7 0.9-4.1 1.9-3.9 2.6-3.1 5.1 1.2 5.1 0.4 4.8 2.1 13.9 8 9.3 4.3 12.9 1 10 8.9z" data-id="AZE1705" data-name="İsmayıllı" name="İsmayıllı"/><path id="AZE1706" d="M626.2 365.9l3.1 5.7 0.9 7.6 0.4 8.9-1.4 9.3-5.6 3.1-4.5 4.5-5.5 3.2-4.4 4.3-1.4 3-2.6 3.7-0.8-1.3-1.4-0.9-1.4 0-2.6 1.4-2.1 2.3-1.4 0.5-1.2-3.7-1.2-1.5-2.9-2.1-3-0.4-3.1 0.7-5.5 2.8 0.2-3.1-0.8-0.9-1.3-0.1-1.6-0.6-9.2-5.7-1.3-2.6-1-6.2-2.7 0.1-3.4 3-3.5 2.2-1.7-0.7-2-1.6-2.1-1-1.8 1-0.6 1.9-0.1 2.5 0.2 4.8-1 1.1-2-0.4-5.3-2.7-2 0.4-1.5 1.9-1.2 0.5-1-0.8-2.8-3.1-3.3-1.3 4.2-3.1 5-2.4 3.9-4.2 2.7-5.1-1.9-16 0.2-16.6 4.4-4.7 3.2-6 1.5-8.8 0.9-9.3 7.2-4.1-1.3-11.9 7-1.7 6.8-2.6-3.4 9.2-1.5 9.6 4.7 4.4 6-1.2 6.6 6.4 9.8-8.2 7.6-0.6 6.7 3.3 0.4 8.9 0.2 8.4 5.1 1.8 4.8 2.4 3.8 7.6 5.8 4.8z" data-id="AZE1706" data-name="Kürdəmir" name="Kürdəmir"/><path id="AZE1707" d="M704 673.2l-4.8 5.9-6.2-1.6 0.1 7.8 0.4 3.5 0.8 3.5 1.3 3.4-3.5 2.2 0 6.8 0.4 2.9 0.9 1.5 2.3-1 2.7-3.6 0.9 31.7-13.8 3.8-15.3 0.8 3.5-5.2 2-5.3-2.9-3.5-3.5-2.5-0.3-3.7 0.4-4.1-2.2-4.7-2.6-4.6-7.4-5.1-7.6-4.9-2-9.6 4.8-9.2 5.5 4.8 6 3.7 6.6-1.4 6.1-4 5.4-2.6 5-3.1 2.3-2.6 2.6-1.6 6.6 0.1 5.5 1.5z m57.7-58.3l-0.8 3.8-2.4 7.2-0.8 3.4-0.5 7.7-0.8 4.7-1.6 3.9-12.8 9-6.8 2.7-4.7-3.9 0.5-2.6 0.2-3.2 1.6-1.7 7.7-1.5 2.6-1.4 2.3-3.3 1.3-4.4 0.2-4.4-1.9-4.2-3.4-1.7-8.2-0.3 0-1.9-1-9-0.6-2.6-3.1-2.5-3.2-0.9-7.3 0.3-2 0.7-1 1.8-0.7 2.2-1.4 3.2-0.1 3.5-0.3 1.7-2.1 0.7-0.3 10.2 0.6 5.5 2.7 4.7-0.7 5.3-4.5 15.8-0.6 1.4-1.1-4.7-2.6-7.1-0.6-5.8 0-5.1-3.9-3.9-4-3.6-0.1-7.2 1.4-7.1 5.9-7.8 6.7-7.3 7.7-8.7 8.5-6.7 5 4.3 3.4 7.2 5.3 3.5 5.9 1.8 6.7 3.3 7 1.8 2.7 3.2z" data-id="AZE1707" data-name="Lankaran" name="Lankaran"/><path id="AZE1708" d="M677.4 616.9l9.1 4.1 10.4-0.7-1.4 7.1 0.1 7.2 4 3.6 3.9 3.9 0 5.1 0.6 5.8 2.6 7.1 1.1 4.7-3.4 7.9-0.4 0.5-5.5-1.5-6.6-0.1-2.6 1.6-2.3 2.6-5 3.1-5.4 2.6-6.1 4-6.6 1.4-6-3.7-5.5-4.8-2.2-9.1-5.7-6.9-8.7-1.3-3.2-8.7 8.5-2.3 6.2-6.7 3.8-4.9 4.8-3.3 4.8-1.8 4-2.9-2.7-5 0.2-5.1 3.2-0.8 3.2 1 1.6-1.6 0.3-3.5 3.5-0.1 3.4 1.5z" data-id="AZE1708" data-name="Masallı" name="Masallı"/><path id="AZE1709" d="M652.4 678.4l-4.8 9.2 2 9.6 7.6 4.9 7.4 5.1 2.6 4.6 2.2 4.7-0.4 4.1 0.3 3.7 3.5 2.5 2.9 3.5-2 5.3-3.5 5.2-3.7 2.2-3.8 1.5-3.8-0.5-4 1.2-3.6 2-3.1 3-1.2 5.1-2.6 4.5-1.9 5.5-4.2-5.3-2.6-3.6-2.8-3.2-2.8-4.4-2.8-2.5-2.2-3-1.2-5.7-1.9-4.8-4 0-8.7 4.1-5.2-0.1-3.1-3-2.7-3.9-8.3-6.7-0.3-3.7 0.7-4.3-0.8-3.1 3.9-2 2.4-3.6 2.3-2.8 0.8-4.8 1.6-4.2 2.9-3.9 3.2-3.3 3.8-2.4 3.5-2.9 15.6-9.3 14.9-10.5 5.7 6.9 2.2 9.1z" data-id="AZE1709" data-name="Lerik" name="Lerik"/><path id="AZE1710" d="M770.4 537.2l0.1 2.9 1.7 4.1 15.8 14.6 2.1 2.5 1.4 2.8-1 1.8-1 7.4 0.2 2.2 1.4 2.5-2.1-1.1-1.5-1.4-2.2-3.5-1 0 0.6 3.2 1.5 3.6 2.1 3.2 2.6 1.9 0 1.6-3.8-0.9-2.4-2.7-2.2-3.1-8.7-5.8-5.7 2.1-4.4 5.8-1.8 7 0.2 24.1-0.6 2.9-2.7-3.2-7-1.8-6.7-3.3-5.9-1.8-5.3-3.5-3.4-7.2-5-4.3-8.5 6.7-7.7 8.7-6.7 7.3-5.9 7.8-10.4 0.7-9.1-4.1 1.9-15-6.1-14-1.3-8.4 1.3-8.4 3.8-6.2 4.4-5.7 7.8 5.8 7.6 6.2 6.4 1.2 6.1-4.7 3.2-0.7 1.8-2.8-1-5.1-0.5-5.5 4.1-7.5 2.5-1.8 0.5-1.3 4.8-4.6 1.8-5.9 4.2-4.1 5.7 6 5.9 7.2 3.8 1.9 4 0.7 3.1-0.6 3-2.1 6.6-2.2 6.6-1.9 1-0.2z" data-id="AZE1710" data-name="Neftçala" name="Neftçala"/><path id="AZE1711" d="M766.6 315l-3.6 6.6-4.7 4.8-4.9 3.9-5.1 2.3-5.4 1-4.9 2.9-2.6 4.9-3.4 3.6-5.9 1.9-8.5 8.9-3.7 3.8-3.1 3.4-8.7-5.9-5.9-2.4-9.3 1-8.4-4.6-6.8 0.8-6.6 0.2-1.1-3.4 4.8-2.7 3-2.6 1-4.5 4-8 1-3.7-2.1-3.2-0.7-3.2 0.3-3.9-0.7-4.9-1.2-4.6 0-4.2-0.8-3.8-2.6-2.1-1.6-2.8 2.6-4.4 3-4.2-0.6-9.8 2.2-9.5 6.3-5 7.1-4.1 9.8 2.9 9.2 6.9 4 3.8 3.7 4.8 6.6 7.3 7.5 5.6 9.2 3.2 16.5 17.1 11.1 5.9z" data-id="AZE1711" data-name="Qobustan" name="Qobustan"/><path id="AZE1712" d="M751.1 172.1l1 2.4 2.9 16.2 8.2 13.6 20.4 23.3 1.5 2.1-0.8 0.3-6.8-0.1-6.6 1.1-8 2.2-8.3-0.7-7.2-2.6-6.8-4.4-4.9-1.8-4.2-3-1.2-8.4-3.8-3.2-3.7 1.2-2.7 3.1-0.8 3.6-1.1 3.3-5.6 3.3-6.1 2-5.6 2-5.7 0.4-2.2-10.4-1.4-10.3 2.5-6 4.9-3.5 6.7-1.2 2.5-3.1 1.7-3.9-0.1-8.5-3.1-7.7 5.6-7.9 12.3 0 5.4-2.3 5.4-1.7 6.5 5.4 6.8 5.4 2.4-0.2z" data-id="AZE1712" data-name="Siyəzən" name="Siyəzən"/><path id="AZE1713" d="M650.4 505.5l-7 8.2-8.5-4.6-9.7-5.9-9.3 8.9-4.1-4.7-2.6-5.2-0.1-5 0.3-4.9 0.9-2.7 0.3-3-8.1-7.3-10.3-3.5-2.8-4.4-1.6-5.2 1.4-5.8 2.8-5.3 2.2-4.8-0.7-5.1-2.1-2.5-1.7-2.6 1.7-3.8 2.3-3.7 2.9 4.6 3.6-0.4 4.5-2.4 4.5-2.6 5.8-2.7 6-1 4 1.9 3.6 3.1-2.4 6.5 1.7 3.3 2.6 2 2.2 0.2 1.7-1.9 3.7-2.2 4.3 0.2 7.3 4.1 7.1 4.7 7.2 3.3 5.4 7.1 0 4.3-1.1 4 0.6 5.7 2.3 5 0 7.7-4.2 6.5-7.9 3.8-8.3 1.7-5 4.2 4.6 2.2z" data-id="AZE1713" data-name="Saatlı" name="Saatlı"/><path id="AZE1714" d="M700.1 432.2l-0.5 6.6-0.1 3 1.3 3 1.2 1.6 3.2 1.5 1.1 1.2 0 0.8 2.7 5 2 2.7 0.8 2.1 0 7.4 0.5 1.8 1.4 2.4 0.4 2-1.6 3.2-0.7 1.8 0.6 1.8 5.3 5.1 2.6 3.1 0.2 2.4-1.8 3.2-2.4 6.1-2.2 2.2-3.2 1.2-3.5 3.8-5.2 2.7 0.7 5-0.8 3.8-3.8-1.8-4.2-2.4-6.1 0.7-6 0.5-8.4-2.8-8.4-3-7.4-3.2-7.4-1.2-4.6-2.2 5-4.2 8.3-1.7 7.9-3.8 4.2-6.5 0-7.7-2.3-5-0.6-5.7 1.1-4 0-4.3-5.4-7.1-7.2-3.3-7.1-4.7-7.3-4.1-4.3-0.2-3.7 2.2-1.7 1.9-2.2-0.2-2.6-2-1.7-3.3 2.4-6.5-3.6-3.1-4-1.9-6 1-5.8 2.7-4.5 2.6-4.5 2.4-3.6 0.4-2.9-4.6 3.4-3.3 3.6-2.9 3.4-0.9 2.1-1.6 0.3-2.6-1.3-2.1 2.6-3.7 1.4-3 4.4-4.3 5.5-3.2 4.5-4.5 5.6-3.1 15.9 0.2 15.4 4.2 3.7 2.1-0.3 2.8 0.6 4.1 0.5 0.4 0.2 5.2 1.2 0.1 4.4 2.4 3.9 0.7 3.1 1.1 1.3 3.1 2.1 0.9 9.7 1.7 3.4 1.1 5.8 4.7z" data-id="AZE1714" data-name="Sabirabad" name="Sabirabad"/><path id="AZE1715" d="M782.6 469.9l-2.5 8.5 0.4 9.6 0.7 7.5 1.7 6.7-3.7 4.4-3.2 5.6 0.1 3.8-2 3.7-1.7 4.8-1.4 5.2-0.7 4.4 0.1 3.1-1 0.2-6.6 1.9-6.6 2.2-3 2.1-3.1 0.6-4-0.7-3.8-1.9-5.9-7.2-5.7-6-4.2 4.1-1.8 5.9-4.8 4.6-0.5 1.3-2.5 1.8-4.1 7.5 0.5 5.5 1 5.1-1.8 2.8-3.2 0.7-6.1 4.7-6.4-1.2-7.6-6.2-7.8-5.8 1.7-5.9 0.8-5.9-3.1-4.6-3.4-4.3 0.9-11.4 3.7-11.4 6-0.5 6.1-0.7 4.2 2.4 3.8 1.8 0.8-3.8-0.7-5 5.2-2.7 3.5-3.8 3.2-1.2 2.2-2.2 2.4-6.1 1.8-3.2-0.2-2.4-2.6-3.1-5.3-5.1-0.6-1.8 0.7-1.8 1.6-3.2-0.4-2-1.4-2.4-0.5-1.8 0-7.4-0.8-2.1-2-2.7-2.7-5 0-0.8 1.3 0.5 2.4-2.3 5.7-0.7 6.1-0.4 6.6 4.5 6.7 3.7 8.8 1.4 8.6 0.8 5.8 1.2 8.6-2.3 3 2.5 2.5 3.6 5 4.2 5.2 4.1z" data-id="AZE1715" data-name="Salyan" name="Salyan"/><path id="AZE1716" d="M667.1 227.4l8.8 4.3 8.6 4.7-2.2 11.4 6.7 9.7-7.1 4.1-6.3 5-2.2 9.5 0.6 9.8-3 4.2-2.6 4.4 1.6 2.8 2.6 2.1 0.8 3.8 0 4.2 1.2 4.6 0.7 4.9-0.3 3.9 0.7 3.2 2.1 3.2-1 3.7-4 8-1 4.5-3 2.6-4.8 2.7 1.1 3.4 6.6-0.2 6.8-0.8-2.2 8.7-5 5.6-5.6 2.9-5.8-2.9-7.4-3.5-6.9-4.2-6.8-1.9-6.9-1.7 3.8-4.5 3.3-4.6 1.1-10.9 7.4-6 8.7-3.8 3.5-1.8 2.7-3.2-2.9-2.4-3.8-1.8-3.5-2.6-3.7-2-11.8-0.3-6.5-2.7-4.8-6.3 1.9-9.3 7.4-7.1 2.5-3.7-0.1-3.9 2.1-4.2 1.8-4.2-3.2-7.1-5.3-5.4-1.2-3-1.5-3.1 5.4-9.8-1.2-10-8.9-6.3-7.6-8.8 13.8 0.2 13.4 3.8 11 4.7 11.4 3.4z" data-id="AZE1716" data-name="Şamaxı" name="Şamaxı"/><path id="AZE1717" d="M842.8 297l-0.5 2.2-2.8 5.1-8.7 3-8.6-0.8-3-4.7-2.7-5-5.9-6.8-6.6-4.4 1.5-4.5 5.8-0.7 1.1-0.7 1.2 2 3.1 2.9 3.3 2.5 2.3 1.1 7.4 0.4 3.3 0.9 2.7 1.6 6.1 5.4 1 0.5z" data-id="AZE1717" data-name="Sumqayıt" name="Sumqayıt"/><path id="AZE1718" d="M480.6 310.6l2.9 3.4 3.6 2.9 7-2.4 4.5 2.5 4.2 3.4 4.1 1.8 3.4-1.8 2.8-2.4 3.4 0.3 11.6 6 6.3 2.9 6.6 0.9 4.5-0.5 4.4 1.8-0.9 9.3-1.5 8.8-3.2 6-4.4 4.7-9.6 0.6-9.5 1.6-9-1.2-8.5 0.3-4.2 2.8-4.3 0.6-2.7-3.7-2.8-4.3-9.6-7.4-9.9-6.7-2.6-5.1-4.8-2.8-2.4-5.6 2.5-14.7 5.1-3.4 6.4-0.7 6.6 2.1z" data-id="AZE1718" data-name="Ucar" name="Ucar"/><path id="AZE1719" d="M785.1 229.7l1.8 4.1 3.6 3.2 7.7 4.8 3.8-1 3.3 2.8 3 3.8 3.4 1.9 1.9 2.2-0.8 5-2.9 8.4-1 4.3-0.3 2.4 0.2 2.5 0.7 1.4 2.3 2.9 0.6 1.3-1.1 0.7-5.8 0.7-1.5 4.5-3.4 5.8-4.7 4.2-2.3 2.7-1.9 2.8-1.6 8.5-11 5-12.5 0.4-11.1-5.9-16.5-17.1-9.2-3.2-7.5-5.6-6.6-7.3-3.7-4.8-4-3.8-9.2-6.9-9.8-2.9-6.7-9.7 2.2-11.4 5.1-4.9 5.6-3.5 5.7-0.4 5.6-2 6.1-2 5.6-3.3 1.1-3.3 0.8-3.6 2.7-3.1 3.7-1.2 3.8 3.2 1.2 8.4 4.2 3 4.9 1.8 6.8 4.4 7.2 2.6 8.3 0.7 8-2.2 6.6-1.1 6.8 0.1 0.8-0.3z" data-id="AZE1719" data-name="Xizı" name="Xizı"/><path id="AZE1720" d="M632.6 652.4l3.2 8.7 8.7 1.3-14.9 10.5-15.6 9.3-3.5 2.9-3.8 2.4-3.2 3.3-2.9 3.9-1.6 4.2-0.8 4.8-2.3 2.8-2.4 3.6-3.9 2-0.4-1.8-2.2-1.9-22.6-11.2-11-8.9-3.4-6.2-0.4-9 1.6-2.5 8.9-5.6 0.5-1.4-0.1-1.6 0.6-1.5 31.5-5.5 7-4.4 1.6-2.4 1.4-2.9 11.4-0.5 4-1.3 4-0.9 5.9 3.9 4.7 5.9z" data-id="AZE1720" data-name="Yardımlı" name="Yardımlı"/><path id="AZE1721" d="M539.9 358.2l-0.2 16.6 1.9 16-2.7 5.1-3.9 4.2-5 2.4-4.2 3.1-1.6-0.7-1.8-0.3-1.7 0.9-3.4 1-1.8-3.8-0.2-0.5-0.9-5.6-0.2-2.7-2.2-1.2-2.4-0.2-3.5-0.9-1.2-2.9-0.8-5.9-2 0.1-5.3 6.7-2-1.4-3 1.5-2-0.1-1.1-1-1-2.6-1.4-1.3-4.1-0.5-3.4 2-2.8 2.5-2.7 0.9-0.4-1.2-4.1-6.7-3.5-7.5-2.1-2.7 0.8-1.9 1.4-1.4 3.2-1.3 1.4-1.9-13.5-1.7-0.4-1.8 3.3-2.9 5.5-6 2.6-5.7 2.3-6.1 9.9 6.7 9.6 7.4 2.8 4.3 2.7 3.7 4.3-0.6 4.2-2.8 8.5-0.3 9 1.2 9.5-1.6 9.6-0.6z" data-id="AZE1721" data-name="Zərdab" name="Zərdab"/><path id="AZE1722" d="M509.6 392.5l-7.3 16.6-3.8 8.5-1.7 10.8-1.9 10.4-2.6 7.9-5 5.3-5.7 1.6-5.5 2.3-4.1 0.4-4.1-0.4-2 1.4-1.1 2.3-5.2 2.2-2.9 4.9 2.2 6.5-2.3 1.5-2.2 1.9 2.4 4.4 3.2 5.3-13.2 3.2-13.1 3.5 4.8-9.4-2.6-8.5-8.5-5.4-4.4-9.8 2.7-1.9 3.6-7.8-3.9-6.4-7.5 1.1-7.2 2.8-14-3-3.8-11 2.2-1.4 2.1-1.7 0.5-6.2 0.2-6.1 6.4-2 4.7-4.3-5.1-4.4 0.7-5.1 8-5.2 7-7.1-0.3-3.5 4.4 3.6 5 3.6 5.7-1.9 14.4-9.6 14.4-10.9 2.1 2.7 3.5 7.5 4.1 6.7 0.4 1.2 2.7-0.9 2.8-2.5 3.4-2 4.1 0.5 1.4 1.3 1 2.6 1.1 1 2 0.1 3-1.5 2 1.4 5.3-6.7 2-0.1 0.8 5.9 1.2 2.9 3.5 0.9z" data-id="AZE1722" data-name="Ağcabədi" name="Ağcabədi"/><path id="AZE1723" d="M331 13.7l1.2 5.2-2.4 7.9-5.8 6.2-6.6 4.7-5.3 3.4-5 4-2.8 6.4-2 7-3.9 5.2-5.1 3.5-5.9 2-5.9 1.3-9.3 6.8-5.2 0.5-5.1-2.9-4.1-0.9-0.3-1.7-3.8-7.2-0.4-1.3-2.3 0.1-1.2 1.7-0.8 2.1-1.5 1.2-4.6-3.8-2.2-10.3-0.1-11.6 1.7-7.8 3.2-3.5 3.8-0.4 8 1.8 3.5-0.3 2.7-1.4 2.5-2.2 7.3-9 3.7-5.9 6.5-13.5 3.7 1 4.6-0.2 7.8 1.1 3.1 1.8 1 4.3-0.8 9.3 0.9 3.9 3 2.6 3.3-0.1 2.9-1.9 5.6-4.9 3.5-1.2 6.9-1.4 2-1.6z" data-id="AZE1723" data-name="Balakən" name="Balakən"/><path id="AZE1724" d="M519.3 159l1.3 2.9 5.5 3.6 6.2 1.4 6.3 1.1 4.4 13.5 13.4 7.9-2.6 3.1-1.9 3.9-0.9 4.1-1.4 3.7-4.8-0.9-1.5 2.4-0.9 2.7 1.8 7.4 4.1 7.1-0.6 7.1-4.9 4.2-2.6 0.4-2.2 0.9-0.6 5-0.1 5.2-6.6 5.2-7.8 3.5-5 4.3-3.5 6.6-4.3 6-4.6 5.7-5.6 2.7-6 0.2-6.7 1.5-6.2 3.6-5.6-3.3-4.1-4.5-0.5-9.8-0.6-9.9 6-1.7 1.6-6 0.2-13.7 3.5-13.1 5.7-10 0.6-5.5-0.7-5.3 5.3-9.7 4.8-10.7 1.3-5.8 1.5-5.3-1.3-5.3 0.1-5.9 0.3-2.7 5.1 2.6 3.2 0.7 11.9-1.1z" data-id="AZE1724" data-name="Qəbələ" name="Qəbələ"/><path id="AZE1725" d="M499.1 156.8l-0.3 2.7-0.1 5.9 1.3 5.3-1.5 5.3-1.3 5.8-4.8 10.7-5.3 9.7 0.7 5.3-0.6 5.5-5.7 10-3.5 13.1-0.2 13.7-16.4-8.7-15.2-11.7-2.9-3.3-2.3-4-0.9-4.9-1-4-2.4-0.2-2.5 0.8-1.6-2.1 0.7-3-3.8-4.3-2.8-5.3 2-9.2 3.8-8.4 7.2-15.7 2-12.2 1.5-9.2 1.4 0.5 17.7 1.7 3.7 1.3 4.8 6.8 3.1 2.4 3.5 0.1 6.1-4.1 3.3-1.3 3.4 0.4 8.9 4.6z" data-id="AZE1725" data-name="Oğuz" name="Oğuz"/><path id="AZE1726" d="M411.2 92.1l-0.5 1-1.8 9.2-4 7.3-14 9.6-22.2 9.9-6.6 4.2-2.8 3.5-1.7 4.1-2.2 3.2-3.1 2.6-3.6 8.5-1.1 10.8 1 8.8 7.7 4.1 11.8 19.2 0.5 25.7-14.3-7.9-14.7-4.5-0.8-6-2.5-5.2-1-6.6-0.7-6.3-6.8-4.1-7.8-0.3-5-3.8 1-1.3 1.4-7.3 0.9-7.8 1.6-6.1 1-1.4 2.3-2.1 1-1.5 0.4-1.5 0.2-3.9 0.3-1.8 1.5-1.8 1.9 0-1.1-3.3-5.3-8.3-3.3-3.7-1.4-2.1 1.3-6.4 7.5-9.6 5.6-12.3 5.6-9.1 8.8-2.9 11.3 0.6 11 3.5 10.1-2.2 6.8-9.6 7-0.9 3.2-1.3 3.3-0.7 3.1 0.8 2.7 3.2 1.2 3.9 0.6 3.9 1.3 3.3 3.4 2.7z" data-id="AZE1726" data-name="Qax" name="Qax"/><path id="AZE1727" d="M443.2 144.4l-1.5 9.2-2 12.2-7.2 15.7-3.8 8.4-2 9.2 2.8 5.3 3.8 4.3-0.7 3 1.6 2.1 2.5-0.8 2.4 0.2 1 4 0.9 4.9 2.3 4 2.9 3.3 15.2 11.7 16.4 8.7-1.6 6-6 1.7-6.7 1.3-6.5-1.5-3-1.5-3-0.9-3.1 1.6-4.1-0.1-4.3-1.8-7-1.8-7.1-1.4-13-5.7-13-5.4-15.3-8.6-15.5-7.9-0.5-25.7-11.8-19.2-7.7-4.1-1-8.8 1.1-10.8 3.6-8.5 3.1-2.6 2.2-3.2 1.7-4.1 2.8-3.5 6.6-4.2 22.2-9.9 14-9.6 4-7.3 1.8-9.2 0.5-1 1.3 1.4 1.4 4.2 0.9 2.3 5.3 6.7 1.3 2.7 0.6 5.6-0.3 11.9 1.7 5.2 3 3 12.9 7.8 3.9 1.5z m-27.9 22.8l2.7-6-0.5-4.6-3.5-6.1-2-1.5-1.9 1.5-1.2 3.6-1.2 4.3-1.5 4.7-0.4 3.5 7 1.9 2.5-1.3z" data-id="AZE1727" data-name="Şəki" name="Şəki"/><path id="AZE1728" d="M678.1 124.7l-2 9.4 0.2 9.2 2.3 2.8 0 3.3-4.4 5.6-8.9 7.9-4.5 10.9 7.2 7.3 6.2 8.1-2.3 5.8-4.3 3.4-3.3 5 2.5 5.4 0.9 8.6-0.6 10-11.4-3.4-11-4.7-13.4-3.8-13.8-0.2-10-8.9-12.9-1-9.3-4.3-13.9-8-4.8-2.1-5.1-0.4-5.1-1.2-13.4-7.9-4.4-13.5 33-25.3 33.8-23.7 11.6-9.8 12.6-6.5 10.2-3.2 9.5-5.5 3.5 6.8 4.4 6.8 3.1 6.3 3.1 6.2 3 4.1 4.2-1 4.1-1.5 3.4 3z" data-id="AZE1728" data-name="Quba" name="Quba"/><path id="AZE1729" d="M649.3 94l-9.5 5.5-10.2 3.2-12.6 6.5-11.6 9.8-33.8 23.7-33 25.3-6.3-1.1-6.2-1.4-5.5-3.6-1.3-2.9 2.6-0.2 7.3-2.2 4-2.6 0.7-2.2-0.9-2.9-0.7-4.7 0.4-4.7 1.6-2.2 2.3-1.6 2.5-3.1 1.5-4.1 0.8-3.6 1.8-1.9 4.4 0.8 3.8-2.2 5.6-16.3 3.3-6.3 5.6-3.5 19.7-3.8 5-2.7 8.9-7.8 14.8-9.3 3.9-4.2 3.4-6.6 7.2-19.8 1.2-1.5 4.4-0.4 4.5 5-3.9 12 3.1 11.1 4.6 0.4 4.2 1.2-0.1 4.5-2.8 4 3.2 6.9 2.1 9.5z" data-id="AZE1729" data-name="Qusar" name="Qusar"/><path id="AZE1730" d="M735.1 122.7l-1 0.3-9.1 0.3-8.9-1.6-8-0.7-7.8 3-5.9-0.4-5.4-2-5.4 2.5-5.5 0.6-3.4-3-4.1 1.5-4.2 1-3-4.1-3.1-6.2-3.1-6.3-4.4-6.8-3.5-6.8-2.1-9.5-3.2-6.9 2.8-4 0.1-4.5-4.2-1.2-4.6-0.4-3.1-11.1 3.9-12-4.5-5-4.4 0.4 11.7-15.2 8.2-13.3 1.8 1.6 5.2 3.2 6 5.5 15.1 20.9 5.8 6 2.4 3.5 1 5.6 11.6 13.2 6.5 14.1 3.5 1.3 2.9 3 2.1 3.5 1.5 3 5.5 8.1 4.2 1.3 1.4 0.8 2.6 3.8 6.1 13z" data-id="AZE1730" data-name="Xaçmaz" name="Xaçmaz"/><path id="AZE1731" d="M385.4 77.2l-6.8 9.6-10.1 2.2-11-3.5-11.3-0.6-8.8 2.9-5.6 9.1-5.6 12.3-7.5 9.6-1.3 6.4-1.1-0.8-2.7 1.1-2.7-6.4-8.4-5-16.6-7-8-7.5-3.4-0.8-2-1-8.9-6.2-3-3.7-1.5-5-1.3-8.9 4.1 0.9 5.1 2.9 5.2-0.5 9.3-6.8 5.9-1.3 5.9-2 5.1-3.5 3.9-5.2 2-7 2.8-6.4 5-4 5.3-3.4 6.6-4.7 5.8-6.2 2.4-7.9-1.2-5.2 1.1-0.8 2.8-3 1.5 0.1 0.7 2.5 1.5 9 0.9 3.1 1.7 2.7 11.2 10.4 2.9 1.8 2.2 0.6 4.4 0.6 2 1 0.8 1.3 0.9 4.2 0.6 1.7 2.4 3.2 8.4 7.2 4.3 6.9 1.4 6.8 2.5 4.2 0.2 0z" data-id="AZE1731" data-name="Zaqatala" name="Zaqatala"/><path id="AZE1734" d="M423 459.9l4.4 9.8 8.5 5.4 2.6 8.5-4.8 9.4-6.5 1.6-6.6 1.3-5.2 1.4-5.1 0.9-3.2 1.8-3 3.2-3.8 2.2-3.9 1.6-7.8 0.6-3 5.1 6.4 1.3 5.5-0.8-3.9 4.9-7 1.6-2.8 3.3 1.1 3.7 3.8-0.4 3.5-3 5-2.1 1.3 4.9-1.7 2.4-1.4 2.6 1 4.4 0.8 4.3-3 0.9-3.2 0.6 0 2.4-1.3 2.9-3.6 5.7 2.1 6.8-0.1 2.9-2.6 0.1-3.4 0.5-2.9 2.7-4.3 0.7-2.2-4-5.7-3.2-5-4.3 0.2-3.1-1.1-2.5-5.3-2-4.3-2.9-3.7 2.5 2.6 7.1-2.2 7.2-6.3-0.6-6.8-2.6 3.1-4.5 1.6-5.2-2-3.4-3-2.2-7.2 1.9-4.1-0.7-4.2-0.8 4.7-3.2 3.2-4.7-1-5.7-2.9-3.2 4.5-5.2 7.7-1.3 4.6-7.3 4.6-7.5 4.3 3.9 4.5 2.5 5.8-4.2 5.3-5-2.1-8.6-8.6-9.4-2-4.2 1.5-2.9 2.1-3.1 6.4-3.3 6.7-2.6 3.4-5.4 1.8-6.4 7.4-1.8 7.1 3.5 9.3 6.3 9.7 2.3 2.2-3.5 2.7-3.6 5.4-0.6 5.4 1.4z" data-id="AZE1734" data-name="Xocavənd" name="Xocavənd"/><path id="AZE1735" d="M302.2 482l1.7 6.9 1.1 6.9-2.9 5.7-2.3 6.1 0.7 5.9 3.8 1.4 3.3 1.6 2.9 2.6 7.1-0.8 5.3-8.9 4.6-1.6 4.7 0.5 2.4 4.8 0.9 6.3-7.7 1.3-4.5 5.2 2.9 3.2 1 5.7-3.2 4.7-4.7 3.2-6.7 4.7-6.7 5.2-7.7-0.9-6.5-4.2 2.1-1 1.2-1.6 0.1-2.1-1.2-2.3 0-3.7 2-1.8 2.5-1.6 1.5-2.8-0.5-3.6-2.1-2.9-2.8-1.8-2.7-0.7-10.8 1.1-3.4-0.6-2.5-1.9-4-5.4-2.5-2-5.8-0.4-11.6 6-6 1.2-3.8-1.2-2.5-2.4-4-7.6-2.4-3-3-1.7-6.4-1.9-5.4-4.3-6.6-13.4-4.6-4.5-10.8-3.3-5.6-2.9 3.2-2.5 6.7-4.8 6.2-5.6 3.2-7.4 3.4-5.4 4.4 3.6 4.3 4.8 5.8-0.7 6-1.9 12.3-1.8 12-4.1 7.3-3.2 7.7-1.2 7.2-2.6 7.1-3.2-2.3 6.7 1.3 5.7 3.9 2.6 3.6 3.4 5.9 12.3 2.9 13.9z" data-id="AZE1735" data-name="Lankaran" name="Lankaran"/><path id="AZE1736" d="M335.1 557.6l-4 3.9-1.1 6.8 2.4 4.8 3.3 4.9 0.6 7.3 2.6 6.2 5.9 3.5 5.6 4.1-6.9 3.8-6.7 4.4-5.7 6.5-4.9 7.2-6.9-4.2-1.9-16-5.2-0.5-0.2-0.6-2.3-2.3-7.3-5.2-4.1-4.3-1.6-3.3-0.9-3.5-1.3-3.2-2.7-2.2-12.3-5.5-5.6-4.4-2.3-6.9 2.2-5.7 5.4-3.4 12.5-2.3 6.5 4.2 7.7 0.9 6.7-5.2 6.7-4.7 4.2 0.8 4.1 0.7 7.2-1.9 3 2.2 2 3.4-1.6 5.2-3.1 4.5z" data-id="AZE1736" data-name="Qubadli" name="Qubadli"/><path id="AZE1737" d="M336.4 478.8l-1.4 2.3 0.2 2.4 1.6 1.2 2.8-0.1 1.2-1.4 1.7-1 1.8 7.6 0.4 6.3 0.1 4.4-0.1 4.1-4.6 7.5-4.6 7.3-0.9-6.3-2.4-4.8-4.7-0.5-4.6 1.6-5.3 8.9-7.1 0.8-2.9-2.6-3.3-1.6-3.8-1.4-0.7-5.9 2.3-6.1 2.9-5.7-1.1-6.9-1.7-6.9 7.7-1.2 7.1-3.5 7.2-0.9 7.8 1.3 4.4 1.1z" data-id="AZE1737" data-name="Şuşa" name="Şuşa"/><path id="AZE1738" d="M375.3 335.2l2.3 10.4 1.8 2.4 2.4 1.7 3 5.5 4.1 3.7 4.9 1.8-0.7 14.1 0.4 7.7 1 4.1 0.8 4.3-4.8 0.6-4.5-1.4-1.6-5.7-3.2-4.1-3.9 1.7-4.3-0.8-1.8-1.8-2.2-0.8-1.2 2.8 1 3.6-10.7 5.3-9.2 4.2-1.3 7.6-4.4 4.6-2.5 6-0.8 8-4-4.5-2.2-5-2.1-4.5-4.4-3.5-8.5-8.1-10.2-1-3.8 3-3.9 1.2-2.2-6.1-1.5-7.3-1.9-8 0.8-8.2 3.4-2.9 1.1-3.7 0.7-3.9 5.9-7.7 9.4-3.7 8.2-5.2 8.5-3.7 6.4 0.2 6.3-0.2 3.7-2.1 6.8-5.2 3.3-2.1 7.9-7.7 1.3 3.5 0.8 3.7 2.6 3.8 3 3.4z" data-id="AZE1738" data-name="Tərtər" name="Tərtər"/><path id="AZE1739" d="M355.5 473.6l-2.1 3.1-1.5 2.9 2 4.2 8.6 9.4 2.1 8.6-5.3 5-5.8 4.2-4.5-2.5-4.3-3.9 0.1-4.1-0.1-4.4-0.4-6.3-1.8-7.6-3.1-2.6-3-0.8-4.4-1.1-7.8-1.3-7.2 0.9-7.1 3.5-7.7 1.2-2.9-13.9-5.9-12.3-3.6-3.4-3.9-2.6-1.3-5.7 2.3-6.7 10-6.1 5.2 2.6 4.6 3.4 5.3-3.1 3.8-5.6 6.2-3.3 7.1-1.3 6 4.5 7-2 8.2 4.2 4.3 9.9 6 5.6 7 3.3-1.5 6-3.5 4.6-3.8 6.6-3.3 6.9z m-12.7-2.9l2.4-6.3 1.5-0.2 0.6-1.7-1.3-2.6-3-1.4-1.2 0.7-2.5 2.2-2.9 4.1 0.5 5.2 2.7 1.9 3.2-1.9z" data-id="AZE1739" data-name="Xocalı" name="Xocalı"/><path id="AZE1740" d="M357.8 612.9l-2.6 2.1-2.4 2.7-4.3 7.7-1 1.3-1.4 1.1-2.8 1.6-1.3 1.1-2.1 3.2-2.8 6.7-2.8 2.7-9.9 5-3.1 2.7-2.3 2.9-4.8 10-2 3.1-2.3 2.7-2.7 2.2-2.7 1.7-3.7 1.5-3.1 0.2-5.9-12.6-0.8-2.5-0.1-2.7 0.3-2.7 0.9-4 2.3-7 0.5-6.1-1-6.3-2.1-7.2-4.2-3.3-5.6-3.3-4.4-4.3-0.2-6.8 4-3.7 5.9 0.8 10.4 5.3 2.1-0.3 7.9-5.7 3.6-0.1 1.5-0.8-0.6-1.5 5.2 0.5 1.9 16 6.9 4.2 4.9-7.2 5.7-6.5 6.7-4.4 6.9-3.8 5.8 7.6 1.6 6.2z" data-id="AZE1740" data-name="Zəngilan" name="Zəngilan"/><path id="AZE2415" d="M9.4 510.2l-2.4-1.5-2.4-3.4-1.9-8.4-1.7-2.8 4.8-2.1 8-1.4 7.4 0.1 5.8-1.4 4.5-2.5 0 1.3-3.7 4.5-6.7 2-7 6.9-4.7 8.7z" data-id="AZE2415" data-name="Sədərək" name="Sədərək"/><path id="AZE2418" d="M170.5 662.6l3.2-5.6-5.1-5.2-6.1-4.4-0.4-2.2 0.8-2.1 0.6-4 1-3.6 7.2-9.1 6-13.1 1.6-4.2 1.1-4.3 0.8-3.8 1.1-3.5 3.6-3.8 3.4-4 4-5.2 9.7 4.8 3.5 3.3 1.1 1.8 0.4 1.6-0.4 1.6-5.2 6.9-1.1 5.6 1.6 5.8 3.6 6 4.4 6.3 3.5 7 8.8 24.9 10 19-1.7 0.2-9.9-2.5-11.3-5.1-35.9-7.6-3.9-1.5z" data-id="AZE2418" data-name="Ordubad" name="Ordubad"/><path id="AZE2419" d="M68.1 524.6l-3.7 11.8-3.1 13-5.6 9.1-7.5 5.5-6.1-4.2-1.6-2.6-1.3-0.4-2.7-0.1-4.4-3.2-0.6-1.5 1.4-2.7-3.6-3.2-2.1-4.4-5.1-21.3-2-4.8-3.6-2.6 1.2-1.6-4-0.1-3.6-0.8-0.7-0.3 4.7-8.7 7-6.9 6.7-2 3.7-4.5 0-1.3 1-0.6 6.3-4.9 6.4-2.2 5.8 3 12.5 16.1 1.8 3.7 0.7 4.1-0.2 5.2-1.7 8 0.7 3.2 3.3 2.2z" data-id="AZE2419" data-name="Şərur" name="Şərur"/><path id="AZE2420" d="M111.8 540.4l-1.8 2.4-5.5 4.6-4.1 6.3 2.6 2 3.7 1.5 1.5 4.6 1.8 4.8 7.6 3.7 7.9 4 3.6 4.6-0.4 4.4 1.6 3 2.9-0.5 1.9 6.2-5.1 3.3-10.6 0.2-10.8 0.8-9.4-0.5-6.6 5.1 11.8 8.7 14.8-1.7 5.4 2 4.8 3.5-0.5 7.9-3.2 6.8 3.2 7.3 4.5 6.6-1 3-2.3 2.9 0.7 8.2-0.8-0.1-3.5-2.1-4.7-1.3-3.9-1.9-3.6-2.4-2-2.3-0.3-2.4 1.2-3.7 0.4-2.3-0.9-1.4-4-1.9-1.6-1.2-0.9-1.8-1.3-4.8-0.7-1.7-1.7-1.7-3-2.1-1.2-2.2 1.5-3.3-1-2.3-2.2-1.4-2.4-0.5-1.7-0.8 0.1-1.9 0.4-2.1-0.5-1.4-1.6-0.2-1.5 0.7-1.7 1.2-17.7-5.9-4.5 1.4-1.1-3.4-1.8-10.9-1.2-2.4-1.4-2.1-1-2.3 3.8 1.5 3.8 1.2 4.5-1.4 4.4-2.1 3.4-2.3 0.7-4.9-2.3-5.2 0.9-2.6 1.1-2.2-1.3-6.1-2.5-5.8-1.1-5.9 1.3-5.9 1.7-6.9 2.2-6.6 3.9-6.1 1.4-1.4 4.2 6 2 4.6 1.7 2.5 2.5 1 8.1 0.7 3 1.6 5.4 5.5z" data-id="AZE2420" data-name="Babək" name="Babək"/><path id="AZE2421" d="M193.3 584.5l-4 5.2-3.4 4-3.6 3.8-1.1 3.5-0.8 3.8-1.1 4.3-1.6 4.2-6 13.1-7.2 9.1-1 3.6-0.6 4-0.8 2.1 0.4 2.2 6.1 4.4 5.1 5.2-3.2 5.6-8.8-3.5-15.2-0.1-9.7-2.4-4.7-0.2-1.3-0.3-0.7-8.2 2.3-2.9 1-3-4.5-6.6-3.2-7.3 3.2-6.8 0.5-7.9-4.8-3.5-5.4-2 7.3-4.6 3.5-8 5.1-3.3-1.9-6.2 7.3-4.2 7.5-2.9 4.9-2.7 3.8 4.1 4.3 0.8 3.6-4.5 5.2-6.2 0.5 1 9.7 2.5 3.5 2.9 3.2 3.5 4.1 3.2 2.5 1.2z" data-id="AZE2421" data-name="Culfa" name="Culfa"/><path id="AZE2422" d="M119.2 607.9l-14.8 1.7-11.8-8.7 6.6-5.1 9.4 0.5 10.8-0.8 10.6-0.2-3.5 8-7.3 4.6z" data-id="AZE2422" data-name="Naxçıvan" name="Naxçıvan"/><path id="AZE2423" d="M169.8 570.2l-5.2 6.2-3.6 4.5-4.3-0.8-3.8-4.1-4.9 2.7-7.5 2.9-7.3 4.2-2.9 0.5-1.6-3 0.4-4.4-3.6-4.6-7.9-4-7.6-3.7-1.8-4.8-1.5-4.6-3.7-1.5-2.6-2 4.1-6.3 5.5-4.6 1.8-2.4 1.8 1.1 1.9 0.3 2-0.4 3.7-1.7 13.7-8.8 4.6-1.9 21.8-5.3 4-0.1 4.7 1.8 3.9 2.8 1.5 2.8 0 3.8-0.5 5.6 1.5 10.1-0.7 3.5-5.8 9.5-1.1 4.4 1 2.3z" data-id="AZE2423" data-name="Şahbuz" name="Şahbuz"/><path id="AZE4838" d="M342.8 470.7l-3.2 1.9-2.7-1.9-0.5-5.2 2.9-4.1 2.5-2.2 1.2-0.7 3 1.4 1.3 2.6-0.6 1.7-1.5 0.2-2.4 6.3z" data-id="AZE4838" data-name="Stepanakert" name="Stepanakert"/><path id="AZE5561" d="M351.6 317.2l-1.5 0.1-1.1-1.1-0.6-1.4 2.7-3 2.3 2.1-0.2 2.2-1.6 1.1z" data-id="AZE5561" data-name="Naftalan" name="Naftalan"/><path id="AZE5562" d="M698.4 704.5l-2.7 3.6-2.3 1-0.9-1.5-0.4-2.9 0-6.8 3.5-2.2 2.8 6.9 0 1.9z" data-id="AZE5562" data-name="Lankaran" name="Lankaran"/><path id="AZE5563" d="M710 447.3l-2.4 2.3-1.3-0.5-1.1-1.2-3.2-1.5-1.2-1.6-1.3-3 0.1-3 0.5-6.6 2.5-0.8 3.7 1 4.5 0.2 2-0.3 1.6 1 0.7 1.9-0.2 6.6-2.3 2.7-2.6 2.8z" data-id="AZE5563" data-name="Shirvan" name="Shirvan"/><path id="AZE5564" d="M415.3 167.2l-2.5 1.3-7-1.9 0.4-3.5 1.5-4.7 1.2-4.3 1.2-3.6 1.9-1.5 2 1.5 3.5 6.1 0.5 4.6-2.7 6z" data-id="AZE5564" data-name="Şəki" name="Şəki"/><path id="AZE5565" d="M342.5 482.2l-1.7 1-1.2 1.4-2.8 0.1-1.6-1.2-0.2-2.4 1.4-2.3 3 0.8 3.1 2.6z" data-id="AZE5565" data-name="Şuşa" name="Şuşa"/><path id="AZE5566" d="M411.8 298.3l-1.6 2.3-5.9-0.3-5.4-3.2-2.4-7.3 3-4.8 7.8 0 3.7-0.2 1.9 0.2 0.8 0.7-0.3 2.9-1.7 4-0.4 1.6 0.1 2.7 0.4 1.4z" data-id="AZE5566" data-name="Yevlakh" name="Yevlakh"/><path id="AZE5567" d="M84.9 518.5l-1.4 1.4-3.9 6.1-2.2 6.6-1.7 6.9-1.3 5.9 1.1 5.9 2.5 5.8 1.3 6.1-1.1 2.2-0.9 2.6 2.3 5.2-0.7 4.9-3.4 2.3-4.4 2.1-4.5 1.4-3.8-1.2-3.8-1.5-3.2-7.1-1.3-2.1-1.6-0.9-1.7-2.1-1.4-2.2-0.6-1.6-1-1.2 7.5-5.5 5.6-9.1 3.1-13 3.7-11.8 6.3-1.5 4.8-4.6 4.6-1.5 1.1 1.5z" data-id="AZE5567" data-name="Kangarli" name="Kangarli"/><circle id="0" cx="653.1" cy="92.6"/><circle id="1" cx="590.6" cy="679.6"/><circle id="2" cx="582" cy="673.9"/></svg>