<svg xmlns="http://www.w3.org/2000/svg" width="1000" height="737" fill="#7c7c7c" stroke="#fff" stroke-linecap="round" stroke-linejoin="round" stroke-width="2" baseprofile="tiny" version="1.2" viewbox="0 0 1000 737"><path id="BFA2183" d="M852.7 437.5l0.9 2.1-0.6 11 3.7 5.4 9.8 6.4 9 7.3 1.5 1.7-1.5 0.5-1.6 1.2-1.1 1.5-0.1 1.1 1.2 2.7-2.1 1.3-2.9 1.3-2.5 1.6-1.1 2.5 0.8 2.2 1.2 1.7 0.2 1.7-2.2 1.9-0.8-1.1-0.9-0.3-0.9 0.3-0.9 1.1-0.8-1.4-1.5-1.7-1.4-0.7-0.6 1.6 0.3 1 1.2 1.2 0.1 2.3-1.6 3-4.2-2-2-0.6-2.4-0.2-2.4 1-1-0.6-0.9-1.5-1.2-1-1.3 2-1.3 1.3-0.7 1.6 2.4 3.9 0.5 4.4 0.6 2.2-3.8-1.7-1.3 0-0.6 0.7-0.8 2.3-0.8 0.5-4.1 1-0.7 0.3 0.2 1.9 1.2-0.9 1.2 0.3 0 2.7 1.8 0.8 0.5 4.4 0.8 1.4 1.4 1.4-0.1 2.1-1.4-0.3-1.2-1.9-1.3-0.4-3.9-0.5-1.8 0.9-0.8 0-0.9-1.5-2.5-1.8-2.8-0.4-1.1 0-1.6 2.7-1.5 1.9-0.1 2.7 0.4 1.2 1.8 1.2 0.1 1.5-0.3 1.5-0.6 0.7-3.9-0.3-3.9-2.1-28.5 0.5-7.9 1.6-15.8 5.5 1.6-5.4-2.1-0.5 0.9-2.2-0.5-0.9-14.1-2.9 0.4-1 4.8-10.2 1.7-1.7 1.7 0.7 1.5 2.1 2 2.4 2.2 0.7 1.2-1.8 0.2-3.5 0.8-3.4 1.5-2.3 4.7-5.4-0.2-2.7 0.6-2.1-0.6-2.3-1.2-1.9-1.2-5.6 0.8-2.5 3.2-2.1 1.3-3.5-0.6-2.6-1.4-3.9-2.7-4.8-0.9-3.1-0.5-8.9-0.6-3.4 0.8-8.8 1.4-2 3.8-3.1 4.3-2 11.6-2.9 3-2.4-0.7-3.3 1-3.7 3.1-3.2 1.6-1.3 5.5-3.4 7.6-6 3 0.2 2.6 1.3 4.1 0.6 3.6 0.2 3.1 2.3 2.5 0.4 1.5 1.4 0.8 2 1.5 1.8 1.5 0.6 4.2 0.3 1.8-0.2 0.9 1.2 0.3 2.3 1.4 1.9 1.8 1.9 2.7 1.8 0 2 0.6 1 1.5-0.7 1.3 0.2 0.9 0.7 1.3 0 2.1 1.3 1.2 1.5z" data-id="BFA2183" data-name="Kompienga" name="Kompienga"/><path id="BFA2184" d="M852.7 437.5l-1.2-1.5-2.1-1.3-1.3 0-0.9-0.7-1.3-0.2-1.5 0.7-0.6-1 0-2-2.7-1.8-1.8-1.9-1.4-1.9-0.3-2.3-0.9-1.2-1.8 0.2-4.2-0.3-1.5-0.6-1.5-1.8-0.8-2-1.5-1.4-2.5-0.4-3.1-2.3-3.6-0.2-4.1-0.6-2.6-1.3-3-0.2-7.6 6-5.5 3.4-1.6 1.3-3.1 3.2-1 3.7 0.7 3.3-3 2.4-11.6 2.9-4.3 2-3.8 3.1-1.4 2-10.3-0.2-2.8-0.4-13.8-9.6-3.8-1.3-7.9 0.3-4-1.9-2.3-1.9-2.2 0.1-6.8-1.3-2 0.6-0.6 3.4-1 0.9-3-0.3-0.2-2-1.1-5.1-3.1-5.1-5.9-1.2-4.1-2.9-1.3-4.4-2.7-1.2-1.8-0.4 0.6-2.3-0.5-3.8 0.5-4.6 2.9-5.5 3.8-2.6 4.2-1.3 3.6-1.8 2.7-0.7-0.4-3.5-5.4-5.2-2.8-3.3-4.1-3-1.8-2.1 1.1-1.4 7.3-6.8 3.4-4.4 3.5-1.1 4.1 0.4 9.7-4.9 13.4-0.2 5.4-3.5 6.8-5.7 1.2-0.4 2.6-1.1 9.6-6.5 3-0.9 14.5 9.4 1.8 2.1 5.7 12.2 3 1.7 1.9-1.5 0.9-1.2 1.4-0.3 1.7 0 1.3-1.1 1-2.2 2.3-2.1-0.1-1.7 0.3-1.6 1.6-0.9 0.9-0.9 0-1.3 2.4-0.6 0.8-1.8 2.3-2.4 0.2-3.1 0.7-1.7 1.8 0.4 0.9-0.6-0.1-2.3 0.3-2.5 1.9-4.7 1.2-1.4 1.9-0.8 2.9-0.5 2.6-0.2 2.5-0.8 2.1-2.4 1.4-3 1.6-1.9 3.5-1.1 2.2 0.1 2.1 1.1 3.5 0.9 1.8 0.2 1.9-1.2 1.5-2.2 0.5-2.4 1-1.7 1.2-1.1 0.1-2 0.5-1.6 1.6-0.7 4-0.6 5.1-1.2 2.6-0.2 0.9-0.4-0.6 2.3 0.6 3.3 1.4 3.9-1 4.2-1 2.8-2.7 11.8-2.9 5.1-2.5 5.7 0 7 2.3 13-0.8 5.6-1.4 5.6 2.9 6.7 5.5 3 4.5 0.7 3.5 1.4-0.1 3.9-3.3 21.2 0 6.6-1.2 6.3-1.9 4.8-1.5 5.4-2.7 4.9-2 1.4z" data-id="BFA2184" data-name="Gourma" name="Gourma"/><path id="BFA2799" d="M195.4 409.6l0.6 0.7 2.1 1.1 0.8 3.8-0.1 1.6-0.5 2.3 0.5 1.2 0.7-0.2-0.8 2.3-0.9 3.9 0.6 8.7-4.2 12.7 0.5 4.3 0.9 4 1.3 4.2 2 3.5 2.3 2.6 2.5 2 1.1 1.4 1.5 6.2 0.6 4.9 2.4 2.4 2.8 0.3-0.2 3.6-3.9 17 0.7 4.5 2.1 2.9 3.6 0 3.7-0.7 1.4 1 3.4 5.5 2.7 3.4 2.7 2.5 2.5 1.9 7.4 7.2 2.1 1.5 3-0.2 1.9-0.3-3.6 3.7-2.5 0.9-1.1 1-1.5 3.1-0.3 1.8 0.5 1.8-0.7 1.1-2 0.2-2.2 1.7-2.8-0.3-0.9 0.9-0.5 2.8-5.4 0-2.1 0.9-1.5 1.8-1.5 2.4-4.4 4.4-0.3 2.4-0.5 2.2-1.7 1.2-4.2 1.4-1.9 1.1-2.3 0.2-2.6-2.8-7.3-1.3-2.8-1-1.8-1-1.6-1.6-2.9-3.3-1.2-0.7-1.5 0.2-3.6 1.7-5.3 1.7-3.2 1.6-1.2 1-6.8 3.7-2 0.1-1.2-1.2-0.8-1.5-1.1-0.9-7.4-2.3-3.3-0.3-1.9-0.8-1.4-2.2-3.2-8.2-2.7-3-3.1-1.2-2.7-0.2-3.1 0-3.2 1.1-3.5 2.3-2.3 2.2-1 1.3-6.6 4.9-2.5 0.2-2.8-1.6-3.5-1.1-2.2-1-1.4-2.2-3.5-4.4-0.7-1.9 0.6-0.6 1.5-3.3 1.8-2.1 0.9-2-0.7-2.5-0.5-2.9 0.9-2.3 2.9-1.3 3.3-0.7 1.8-1.6 2.2-1.3 2.7-0.4 0.7-1.3 0.6-3.6-0.4-2.4-1.2-2.5-2.1-2.6-1.8-2.9-1.5-1.9-7.9-5.4-1.5-0.2-0.8-0.7-1.5-3.9 0.9-3 3.1-6.1 0.6-2.8 0.2-2.9 1.5-3 1.7-1.6 8.9-6.3 1.3 0.8 1.4 3 1.1 0.7 1.5 0.1 1.8-0.7 2.7-2.3 1.8-2.4 1.1-1.8 1.2-3.2 0.4-3.6-0.4-2.6-1.7-2.8-2.1-2.8-1.5-3.4-0.8-3.9 0.2-2.3 0.7-3.4-1.6-1.2-3.2-0.6-3.5 0-1.8-0.8 0.9-4 1.2-1.2 2.1-0.6 1.5-1.3 0-1.6-0.7-1.3-0.3-2.2 0.2-5.7 1.4-6.5-0.3-3.8-1.8-7.7-1.6-2-6.4-3.7-2.1-0.9-1.8-0.4 0.9-1.6 1.3-1.2 1.3-0.3 2.6 0.3 1.3-0.1 2.5-1.2 0.1-0.3 1.8 1.4 2.2 1.2 3.1-0.4 3-0.7 2.6 0.2 2.3-0.3 3.7-2.8 1.9 0.2 1.9 0.9 1.1 1.3 0 2.4-0.6 3 0 2.5 1.6 0.6 2.4 0.2 0.9 1.5-0.7 2.5-1 2.6-0.3 2.6-0.1 2.9-0.5 4.1-0.8 3.7-3.5 8.2-0.6 2.2 0.5 3.1 2.3 2.4 2.5 0.3 2.2-0.7 2-0.9 1.7-1 2.3-0.8 4.4 2 2.6-0.4 2.5-1.5 2-2.5 1.4-2.8 1-4.4 0.6-2.1 3.9-8.6 3.4-3.2 2.5-0.6 3.1 0.3 3.3 0.1 3.1-0.3 2-0.7 1.7-1.3 2.7-0.5 3.2 0.8 3.6 2.2 2-0.2 1.8-0.8z" data-id="BFA2799" data-name="Houet" name="Houet"/><path id="BFA2800" d="M92.9 546.3l-0.9-0.9-1.8-0.6-10.8 0-5.5-0.9-2.5 0.2-5.7 4.6-6.6 2.6-3.3 0.1-6.5 1.7-2.3 0.9-3.6 0.2-2.1-1.9-5.2-5.8-1.6-2.7-1.4-3.3-1.6-2.6-12.4-11.4-3.7-2-11-1-1.3 0.1-0.2-1.2 0.4-2 1.8-1.2 12.6-1.6 2.2-0.7 2.1-0.9 3-1.9 1.3-1.8 0.7-5.2 1.2-3 4-4 1.6-2.7 0.2-2.1-0.9-13.4 0.6-2.4 1.9-1.6 2.8-1.4 1-1.1-0.1-1.6-0.7-3 0-10.7-1.2-4.5-4.5-3.6-3.8-0.3-1-1.5 0-1.4 2.3-4.1 1.1-5 0.3-2.8-0.1-2.3-1-2.6-1.5-1.7-2-1.3-2.4-1.1-2.4-0.5-2.2 0.5-0.5-0.6-4-2.2-0.8-2 2.5-0.5 2.1 1.3 1.4 0 1.4-1.3 4.4-0.7 1.6-1.1 0.8 0 2.2 1.2 0.9-0.1 0.9-0.7 2.5-3.6 4.9-4 3.3-3.8 1.9-1.6 3.9-1.2 4.2-2.6 1.8-0.8 2-0.2 5 0.2 2.3-0.3 1.4 0.1 1.3-0.3 2.4-1.7 2.7-1.1 2.8 0.2 2.7 0.7 2.6 0 5.4-2 2.6 0.1 2.5 2.1 2.2-0.7 3.5-0.6 1.8-1.1 1.9-2.9 1.8 0.4 2.1 0.9 6.4 3.7 1.6 2 1.8 7.7 0.3 3.8-1.4 6.5-0.2 5.7 0.3 2.2 0.7 1.3 0 1.6-1.5 1.3-2.1 0.6-1.2 1.2-0.9 4 1.8 0.8 3.5 0 3.2 0.6 1.6 1.2-0.7 3.4-0.2 2.3 0.8 3.9 1.5 3.4 2.1 2.8 1.7 2.8 0.4 2.6-0.4 3.6-1.2 3.2-1.1 1.8-1.8 2.4-2.7 2.3-1.8 0.7-1.5-0.1-1.1-0.7-1.4-3-1.3-0.8-8.9 6.3-1.7 1.6-1.5 3-0.2 2.9-0.6 2.8-3.1 6.1-0.9 3 1.5 3.9 0.8 0.7 1.5 0.2 7.9 5.4 1.5 1.9 1.8 2.9 2.1 2.6 1.2 2.5 0.4 2.4-0.6 3.6-0.7 1.3-2.7 0.4-2.2 1.3-1.8 1.6-3.3 0.7-2.9 1.3-0.9 2.3 0.5 2.9 0.7 2.5-0.9 2-1.8 2.1-1.5 3.3-0.6 0.6z" data-id="BFA2800" data-name="Kénédougou" name="Kénédougou"/><path id="BFA2801" d="M162.1 306.7l2.7 2.4 2.1-0.2 1.9 1.2 2.1 2 2.5 1.1 0.2 2.2-1.7 1.3-1.2 1.9 0.4 2.4-0.1 4.8-0.6 2.6 0.3 2 2 3.1 1.2 5.4 0.3 4.9 2.3 3.6 5.4 4.1 3 0.8 4-1.3 3-1.9 1.6-1.6 0.6-1.4-0.1-2.1 0.5-2.4 3.1-4.5 0.8-3.1 1.9-2.1 3.9-0.9 4.6 0.3 3.8 0.9 3.1 0.3 6.1-0.9 9.6 0.3 4.9 1.4 7.8 4 4 1.4-0.3 1.4-1.1 3.1-0.4 1.7 0.4 3-0.4 1.2-1.7 1.1-0.9-1.1-2-0.4-1-0.7-1.7-2-1.3-0.3-1.5 0.6-4.8 2.8-1.4 1.1-4.4 7.1-1.6 5.1-1.2 2.7-1.9 1.1-4.3 1.1-1.3 3 0.8 9.6-0.6 1.9-1.5 1.9-2.1 1.4-2.3 0.6-0.5 1.2-0.4 2.4-0.6 1.7-1.4-1-1 0-0.6 1.5-0.4 2.7-1.5 0.4-2.7 4.3 0.7 0.5 1.1 2.1-2 0.8-1.2 1.9-0.2 2.4 0.8 2.1-2 0.1-2-0.9-0.3 1.7-1.8 0.8-2 0.2-3.6-2.2-3.2-0.8-2.7 0.5-1.7 1.3-2 0.7-3.1 0.3-3.3-0.1-3.1-0.3-2.5 0.6-3.4 3.2-3.9 8.6-0.6 2.1-1 4.4-1.4 2.8-2 2.5-2.5 1.5-2.6 0.4-4.4-2-2.3 0.8-1.7 1-2 0.9-2.2 0.7-2.5-0.3-2.3-2.4-0.5-3.1 0.6-2.2 3.5-8.2 0.8-3.7 0.5-4.1 0.1-2.9 0.3-2.6 1-2.6 0.7-2.5-0.9-1.5-2.4-0.2-1.6-0.6 0-2.5 0.6-3 0-2.4-1.1-1.3-1.9-0.9-1.9-0.2-3.7 2.8-2.3 0.3-2.6-0.2-3 0.7-3.1 0.4-2.2-1.2-1.8-1.4 0.5-1.3 0.3-2.1 1.3-2.5 4.5-2.6 3.8-0.2 1.2-1.4-3.1-6.1 11.1-9.3 0.7-1.3-0.3-1.4 0.8-4 1.4-0.8 1.8-0.1 1.2 1 1 1.4 1.2 1 3.7-0.8-1.2-5.5-4.5-11 1-3.1 2.1-2.6 2.4-2.4 1.8-2.4 0.8-1.8-1.8-2.6-2.7-6-2-2.1-5.5-4.3-1.1-2.1 0.7-6.7 2.7-0.4 3.6-1.4 4.2-1 4.2-0.4 3.7 0.8 3.6 2.2 1.7 0.5 2.7-0.3 2.3-0.8 1.6-1.1z" data-id="BFA2801" data-name="Banwa" name="Banwa"/><path id="BFA2802" d="M259.4 249.9l0.6 1 0 1.9-1 9.6 1.9 8.3-1.3 7.3 1.4 14.1 1.6 3.8 2.8 3.4-0.4 4.7-1.7 0.2-1.6 0.5-0.6 0.8-0.5 1.9-1.1 0.2-2.3-0.9-3.5 0-0.4 0.5-0.3 1.8-2.1 1 0.1 1.2 1 1.2 1.7 0.6 0.7 0.8-0.4 1.7-1.5 2.9 0.8 1.2-0.3 0.9-1.4 1.4 0.4 2.6-1 1.7 0.6 1-1.6 0.8-0.1 1.4 0.8 3.6-0.4 1.5-1.8 1.8-0.4 2.4-4-1.4-7.8-4-4.9-1.4-9.6-0.3-6.1 0.9-3.1-0.3-3.8-0.9-4.6-0.3-3.9 0.9-1.9 2.1-0.8 3.1-3.1 4.5-0.5 2.4 0.1 2.1-0.6 1.4-1.6 1.6-3 1.9-4 1.3-3-0.8-5.4-4.1-2.3-3.6-0.3-4.9-1.2-5.4-2-3.1-0.3-2 0.6-2.6 0.1-4.8-0.4-2.4 1.2-1.9 1.7-1.3-0.2-2.2-2.5-1.1-2.1-2-1.9-1.2-2.1 0.2-2.7-2.4 1.4-1.7 2.6-8.4 0.2-1.5-1.6-5.9 0.4-7.4-1-3.5-2.3-3-3.7-3.2-1.6-2.2-3.4-7.4-3.6-3.4-0.7-1.2 0-1.6 1.4-2.2 1.6-4.3 2.1-0.9 8.1 0.4 1.4-0.4 0.9-1.2-0.3-1.1-2.6-1.5-0.9-1.2 0.6-2 1.8-2.2 2.3-2.1 1.9-1.3 1.2-0.3 2.4 0.3 1.4-0.7 2.4-2.8 1.9-3.1 2.2-5.3 1.3-2.4 2.1-2 1-0.5 3.4-0.9 1.2-0.7 1.9-2.2 2.9-1 1.9-1.3 1.6-1.5 0.7-1.2-1-0.7-1.6-0.1-0.7-0.6 1.7-2 0.8-0.5 1 0.5 0.7 1.1 1.1 3.4 1.1 0.4 3 0.6 0.7 0.4-0.1 1.3-0.9 0.6-2.1 0.5-2.6 2.5-1.1 0.6-1.6 1.5 1.6 1.3 2.9 0.8 2.5 0 2.5-0.2 2.1 0.4 4.3 1.8 5.2 1.4 2.3 0.9 9.4 7.6 5.8 3.5 10.3 8.1 0.9 0.3 1.6-0.3 0.9 0.3 2 2.2 1.9 0.9 2.9-0.1 5.3 0.8z" data-id="BFA2802" data-name="Kossi" name="Kossi"/><path id="BFA2803" d="M329.3 394.1l0.4 1.5 1 1.1 2.1 1.4 0.8 1.8 2.6 0 0.7 1.6-0.1 1.3-0.9 3.6-1.1 2.3-0.3 1.3 2.6 3.1 2.1 1.6 1.3 1.5-0.1 1.8-5 6.1-0.6 1.2-1.3-0.1-2.5-0.6-2.2 2.4 1.1 2.3 3.1 1.7 3.6 0.6 7.6-0.1 3.6 1.3 1.5 3.6-0.1 0.7 7.2 11.1 2.3 2.7 0.8 0.3 1.2 3.7 0.6 8.4 1.8 1.9 3.5 2.8 10.2 6.4 2.2 2.5 0.1 2.8-1.7 2-2.2 1.1-3.3 0.5-2.4 2.5-2.9 2.4-4.5-0.2-3.8-0.5-3.4-0.8-3.3 1.3-3.1 3-1.9 2.5-2.7 6.2-2.5-0.9-5.6-0.1-1.3-1.2 1.2-2.7 1.3-2.1 1.9-2.8 0.2-1.6-0.2-4.2 0.2-1.4 1.2-2.4 0.3-1.4 0.2-4.5-0.2-1.3-0.6-1.2-1.6-2.1-0.4-1 2.6-2.7 0.1-3.2-2.5-1.8-1.7-1-1.5 0.1-0.5 1.2-0.9 0.9-1.7-0.5-2.1-1.5-1.8-0.5-1.7 0.7-2.3 0.5-2.4-0.8-2.3-2.2-3.4-1.8-3-0.3-1.8 0.5-1.5 0.8-4.1 3.5-2.8 1.7-3 0.8-2.8 1.6-2.6 2.7-2.2 0.8-2-1-2.6 2.2-3.3 1.1-2.6-2.6-0.9-2.9 0.1-4.8-0.7-0.8-2.4-0.8-2.9-0.4-1.9-1.2-1.7-1.9-4.1-1.1-0.9-1.6 2.7-7.4 0.8-1.7-0.5-1-2.2-1.2-4.1-1.6-7.9-1.5-4.6-2.2-5.3-3.6-0.3-1.7-1-2.2-1.5-1.1-0.4-1.6 1.9-3.7 0.3-2.9 1.2-2.1 1.5-1.6 2.1-1 3.7-0.5 2.4-1.6 1.7-1.6 1-2.2-0.6-3.1 0.2-1.5 10.6-1.8 3.1 0.3 1.1 0.6 2-0.5 7.3 3.8 1.1 3.3-0.1 3.7 2.5 2.1 3.5 0.5 2.6-1.9 3.5-1 7.6 4 3-0.4 2.2-1.5-0.2-2.4-1.1-3.8-2.3-2.2-4.7-0.3-2.7-1.5-1.3-2.8-3.1-2.7-1.6-2.3 0.3-6.6 2.2-1.7 3.7-0.7 6.4 3.2 3.7-0.6 3.6-1.2 1.4 0.1 0.4 2.2 1.7 2.5 2.8 1.8 4.4 1.1 4.6-0.4 2.4-1.4 1.4-1.3z" data-id="BFA2803" data-name="Balé" name="Balé"/><path id="BFA2804" d="M339.3 353.6l0.5 1-0.1 2.5-4 2.3-1.6 2.7-0.7 3 0.7 2.3 4.7 3.9 1.7 2.1 0.9 3.4 0 1.9 0.9 2.9 1.4 2.5 1.6 2 0 0.8-1 3.1-0.3 1.4-0.6 1.2-1.5-0.2-7-4.3-2.7-0.6-1.2 2.1-1.4 3-0.3 1.5-1.4 1.3-2.4 1.4-4.6 0.4-4.4-1.1-2.8-1.8-1.7-2.5-0.4-2.2-1.4-0.1-3.6 1.2-3.7 0.6-6.4-3.2-3.7 0.7-2.2 1.7-0.3 6.6 1.6 2.3 3.1 2.7 1.3 2.8 2.7 1.5 4.7 0.3 2.3 2.2 1.1 3.8 0.2 2.4-2.2 1.5-3 0.4-7.6-4-3.5 1-2.6 1.9-3.5-0.5-2.5-2.1 0.1-3.7-1.1-3.3-7.3-3.8-2 0.5-1.1-0.6-3.1-0.3-10.6 1.8-0.2 1.5 0.6 3.1-1 2.2-1.7 1.6-2.4 1.6-3.7 0.5-2.1 1-1.5 1.6-1.2 2.1-0.3 2.9-1.9 3.7 0.4 1.6 1.5 1.1 1 2.2 0.3 1.7-1.2 0.2-7.9 0.4-2.4 0.6-2.6 1.3-2.4 1.7-1.8 0.7-2.4-0.2-2.7-0.4-1.9-1.1-1.8-1.3-2.4-1.4-2.7-1.3-2.2-0.6-1.5-0.6-0.6-1.6 0.4-1.8-0.6-1.1-2.3-1.1-2-1.4-0.9-2.5-3-0.3-0.7-0.4-0.7 0.2-0.5-1.2 0.5-2.3 0.1-1.6-0.8-3.8-2.1-1.1-0.6-0.7 0.3-1.7 2 0.9 2-0.1-0.8-2.1 0.2-2.4 1.2-1.9 2-0.8-1.1-2.1-0.7-0.5 2.7-4.3 1.5-0.4 0.4-2.7 0.6-1.5 1 0 1.4 1 0.6-1.7 0.4-2.4 0.5-1.2 2.3-0.6 2.1-1.4 1.5-1.9 0.6-1.9-0.8-9.6 1.3-3 4.3-1.1 1.9-1.1 1.2-2.7 1.6-5.1 4.4-7.1 1.4-1.1 4.8-2.8 1.5-0.6 1.3 0.3 1.7 2 1 0.7 2 0.4 0.9 1.1 1.7-1.1 0.4-1.2-0.4-3 0.4-1.7 1.1-3.1 0.3-1.4 0.4-2.4 1.8-1.8 0.4-1.5-0.8-3.6 0.1-1.4 1.6-0.8-0.6-1 1-1.7-0.4-2.6 1.4-1.4 0.3-0.9-0.8-1.2 1.5-2.9 0.4-1.7-0.7-0.8-1.7-0.6-1-1.2-0.1-1.2 2.1-1 0.3-1.8 0.4-0.5 3.5 0 2.3 0.9 1.1-0.2 0.5-1.9 0.6-0.8 1.6-0.5 1.7-0.2 1.2 0.2 2.5 1.1 1.7 4.1 3.3 5.8-0.1 1.3-1.3 1.9 0.9 0.5 0.8-0.5 1 0.9 1.2 0.1 0.9-0.8 0.9-3.5 1.3-1 3.4-1.1 3.9-0.7 1.2 1.2-0.8 12.4 1.1 6-0.3 0.6 1.2 0.6 1.4 0 3-0.6 1.9 0.4 1.6 2 1.3 1.2 0.9-0.9 5.2 8.9 1.8 0.8 0.8 1.8 1.5 1.3 2.4 0.5 1.8 0.7 5.1 3 2.6 0.7 1.4 0.6 2.2 2.3 0.7 0.2 1.1-0.7 2.8-1.5 2.9-2.6 2.1-1.1 2.7 0.1 2.2 1.7 0.9 1.7z" data-id="BFA2804" data-name="Mou Houn" name="Mou Houn"/><path id="BFA2805" d="M723.1 85.1l-2.9 3.4-2.5 1.2-2.2 0.2-3.9 10.3-2.9 3.1-2.6 4.2-8.7 10.2-3.7 1-5.4-1.3-6.5-0.1-5.7 1-4.8-1.1-5-0.6-8.9 4.4-23.4 2.2-8 0.1-2.3-0.9-3.4-3.5-1.7-5.6-1.2-13.8-1.6-1.6-2-1.7-2.9-3.3-3.1-5.8-9.2-9.1-0.1-3.1-1.4-3.7-3.1-5.7-7.9-11.2-4-2.5-6.1-8.3-7.3-5.5-2.7-2.8 26-23.2 6.8-6.9 3.8-2.8 4.2-1.1 31.7-0.2 1.2 0.6 2.9 7.9 1.2 1.6 3.6 0.1 4.5-2.1 7.9-4.8 7.9-1.4 8.8 2.1 16.9 7 31.7 11.1 0.3 2.9-1.1 1.8-1.8 1.4-1.5 2.1-0.2 3.7 3.6 7.6 0.8 3.9-8.4 24.1 0.8 6.6 3.7 6.3 1.8 1.6z" data-id="BFA2805" data-name="Oudalan" name="Oudalan"/><path id="BFA2806" d="M626 123.3l1.2 1.9 0.9 4.6-0.9 5.8-1.7 5.1-3.4 3.3-4 1.5-1.5 0.1-2.1 0.1-6.6 6.4-17.8 9.1-16.3 3.7-8.9 4.6-3.1-0.5-9.6 3.8-6.5 0.1-5.6 0.9-5.5 1.5-5.2 0.5-0.5-0.8-3.7-1.5-6.5-1.5-7-3.1-4.7-5.3-1.6-6.3-1.4-2.8-10.3 5.4-5.1 0.5-5.1 4.1-6.3 12.5-4.6-4.4-4-4.7-7-12.8-0.3-5.2 1-5.1 0.2-2.2-7.6-4.2-10.7-7.8-3.9-2.1-5.7-7.5 6.2-2.8 1-0.9 0.5-1.3 2.4-32 1-3.5 3.7-1.7 6.1-0.2 10.4 0.8 8.8-0.5 8.8-1.7 43.7-28.5 5.4-2.6 24.1-6 4.8-2.1 4.5-2.8 2.7 2.8 7.3 5.5 6.1 8.3 4 2.5 7.9 11.2 3.1 5.7 1.4 3.7 0.1 3.1 9.2 9.1 3.1 5.8 2.9 3.3 2 1.7 1.6 1.6 1.2 13.8 1.7 5.6 3.4 3.5 2.3 0.9z" data-id="BFA2806" data-name="Soum" name="Soum"/><path id="BFA2807" d="M358.2 281.1l-0.8 2.6-1.6 8.6-0.2 4.2 1.4 1.3 3.7 3.1 4.2 4.9-3.6 5.6-3.1 2.5-3.5 2.1-1.9 2.1-1.8 2.5-0.5 3.9 1.4 4.1 1.6 3.3 0.9 2.9-5.5 10-9.6 8.8-0.9-1.7-2.2-1.7-2.7-0.1-2.1 1.1-2.9 2.6-2.8 1.5-1.1 0.7-0.7-0.2-2.2-2.3-1.4-0.6-2.6-0.7-5.1-3-1.8-0.7-2.4-0.5-1.5-1.3-0.8-1.8-1.8-0.8-5.2-8.9-0.9 0.9-1.3-1.2-1.6-2-1.9-0.4-3 0.6-1.4 0-1.2-0.6 0.3-0.6-1.1-6 0.8-12.4-1.2-1.2-3.9 0.7-3.4 1.1-1.3 1-0.9 3.5-0.9 0.8-1.2-0.1-1-0.9-0.8 0.5-0.9-0.5 1.3-1.9 0.1-1.3-3.3-5.8-1.7-4.1-2.5-1.1-1.2-0.2 0.4-4.7 1.1-1 1.7-2.4 0.9-6.1 1.2-2.4 2.6-2.5 7-3.9 1.2-1.8 0.5-2.8 3-2.5 10.4-2.2 1.9 1.3 1.8 3.2 1.9 2.3 2.4 0.4 2.9-0.6 2.8-0.1 3.1 1 2.6 1.8 2-0.5 2.6-2.8 3.9-0.1 4.1 2.6 2.8 2.2 3.4 1.6 3.8 0.9 4.4 0.4 3.5-0.7 3.9-3.9 3.2-0.7 1.9 0.2 4.3 0.9z" data-id="BFA2807" data-name="Nayala" name="Nayala"/><path id="BFA2808" d="M327.9 188.8l1.1 1.6 2.6 3.5 5.3 5.4 4.3 2.1 11.9 2.8 2.9 1.7 1.3 2.8 2.1 1.8 2.7 0.6 2.4 1.2 1.1 1.2 0.4 2.9 0 2.4 0.6 6.1 3.3 6 0.9 2.7 2.7 1.9 3.4 1.7 3.3 0.1 3.1-0.7 3.7 0.7 2.5 1.5-1.3 3.7-5.6 7.7-3.9 6.7-2.7 3-4.3 1.1-4.1-0.1-5.7-0.9-2.7 0.5-1.7 3.6 0 5 1.3 6.4 0 1.8-0.3 2.8-0.3 1-4.3-0.9-1.9-0.2-3.2 0.7-3.9 3.9-3.5 0.7-4.4-0.4-3.8-0.9-3.4-1.6-2.8-2.2-4.1-2.6-3.9 0.1-2.6 2.8-2 0.5-2.6-1.8-3.1-1-2.8 0.1-2.9 0.6-2.4-0.4-1.9-2.3-1.8-3.2-1.9-1.3-10.4 2.2-3 2.5-0.5 2.8-1.2 1.8-7 3.9-2.6 2.5-1.2 2.4-0.9 6.1-1.7 2.4-1.1 1-2.8-3.4-1.6-3.8-1.4-14.1 1.3-7.3-1.9-8.3 1-9.6 0-1.9-0.6-1 1.5 0.3 1.6-0.4 1.2-2.1-0.1-2.3-1.5-4.5 0.5-3.7 2.8-1.1 20.7-1.3 1.7-1.1-4.5-32.4 1.9-4.8 0.7-3 0.5-7.3-0.8-3.1-2.6-2 2.5-2.5 3.3 1.2 5.7 4.3 3.5 0.4 2.7-0.6 2.7-0.1 3.1 1.9 2.3 2.1 0.6 1.2 0.4 1.9 0.8 2 1.5-0.5 2.2-2.4 2.5-1.1 3 0.4 2.9 1.3 0.9-0.1 4.3-1.7z" data-id="BFA2808" data-name="Sourou" name="Sourou"/><path id="BFA2811" d="M529.4 175.8l4.4 7.1 1.2 4.4-2.2 5.6-2 3.7-1.7 2.2 0.1 3 1.7 5.8-1.4 5-3.3 4.2 2.4 5.1 4.6 5.5 3.3 7.1-0.7 3.6-2.1 3.9-0.5 3.1 0.9 5.6-0.4 3.4-4.4-0.6-5.3-0.1-6.9 1.4-7.2 2.6-4.3 4.2-0.2 4 2.5 4.2 0.1 2.6-1.1-0.2-5.7-0.2-2.1-1-2-2.4-1 0-1.5 1-0.7-0.2-0.8-2.2-1 0-1.9 0.6-1.7-1-2.4-2.7-2.3-3.3-5.1-4.2-0.9-0.8 0.3-1.6 1.6-2.2 0.9-2.7-0.1-3.9-1.1-3.4-2.1-4-3.1-2.1-3-0.2-0.8-2.4-2.9-3-2-2.8-0.4-3.1 0.5-12.9-4.9-10.1-0.1-2.9 1.4-5.4 4.3-3.7 5.2-2.8 4.7-1.4 3-2 0-3.5-1.3-2-0.7-0.7 6.3-12.5 5.1-4.1 5.1-0.5 10.3-5.4 1.4 2.8 1.6 6.3 4.7 5.3 7 3.1 6.5 1.5 3.7 1.5 0.5 0.8z" data-id="BFA2811" data-name="Bam" name="Bam"/><path id="BFA2812" d="M452.7 313.4l1.8 2 0 2.6 0.6 2.7 3.1 1.2 4.3 1.2 4.3 2 2.9 3.6 1.2 4.5 0.9 6.6-1.5 2.1-5.1 2.1-3.8 0.7-2.8-1.8-3.4-1.5-3.4-0.2-4.7 0.1-2.6 2.1-1.7 2.9-1.6 3.9-1.4 4.9-2.8 4.4-1.5 3 2.4 2.5 4.1 1.3 4.2-2 5-3.7 4.5-2.6 4.8-1.2 5-0.3 2.4 0.2 1.1 1.2-0.4 2.5 0.1 2.5 2.2 2.2 0.5 2.4-0.1 2.6-0.5 2.1-1.4 1.7-2.9 2.3-3.4 3.6-1.5 2.4-3 0.3-3.5 2.1-1.8 2.1-2.8 1-0.7 3.4-1.6 4.3-4.5 3.6-1.9 2-1.8 2.3-0.3 0.7-2.6 1.8-4.1 2.2-11.1 4.1-4.9 0.7-1.9-0.2-1.8 1-0.4-1.5 1.4-3.3 0.7-3.3-3.9-0.2-5.4 2.6-4.1 0.9-2.8-1.5-5.5-5.1-4-0.5-3.4-1.3-1.3-4.4 0-2.8 1-0.7 2.5-2.2 2.7-3.3-2.3-3.2-3.2-2.9 1.8-2.4 5.1-2.8 3.1-3.8 0.1-8-1.9-14.4-1-1.3-0.7-2.3 1.1-2.4 4.1-0.5 4.3-2.1 2.9-3.3 8.4-5.5 2.9-4.9 1.8-5.4-1.5-2.4-2.9 2-1.6 2.7-1.5 0.4-1.6-2.5-1.5-3.1-0.5-1.7 2.5-1.4 2.3-1.6 3.9-1.4 8-2 3.7-0.1 7.7 0.8 2.2-0.9 1.5-1.2 6.1 0.1 2.8 1.4 1.9 3.2 2.4 0.4 1.5-1.1z" data-id="BFA2812" data-name="Boulkiemdé" name="Boulkiemdé"/><path id="BFA2813" d="M496.3 314l-1.9 4.3-0.4 3-0.9 3-2.7 1.5-2 0.1-3.8 0.6-2.5 0.8-1.6 0.9-0.2 2.1 4.8 16.9 0.4 2.3-3.7 1.6-7.7 2.2-5.1 2.6-1.1 0.8-2.4-0.2-5 0.3-4.8 1.2-4.5 2.6-5 3.7-4.2 2-4.1-1.3-2.4-2.5 1.5-3 2.8-4.4 1.4-4.9 1.6-3.9 1.7-2.9 2.6-2.1 4.7-0.1 3.4 0.2 3.4 1.5 2.8 1.8 3.8-0.7 5.1-2.1 1.5-2.1-0.9-6.6-1.2-4.5-2.9-3.6-4.3-2-4.3-1.2-3.1-1.2-0.6-2.7 0-2.6-1.8-2-1.1-1.8-1.8-4.2 0.4-4.8 2.6-4.7 10-9.4 16.3-4 3.4 3 1.3 0.5 1.8 0.2 2 1 0.5 2.9-0.4 3.8 1.1 7.4 0.8 2.3 1.5 1.2 4.1 1 1 2.2 0.1 4z" data-id="BFA2813" data-name="Kourwéogo" name="Kourwéogo"/><path id="BFA2814" d="M563.6 377.2l0.5 1.5 2.4 2.2 0.6 0.7 0.8 5.8 0.7 2.2 1.1 1.4 2.2 2.2 1 2.5 3.6 4.2 1.7 1.6 3.3 2.4 2.7 3.4 0.7 1.5 0.3 2-0.3 3.7 0.6 1.1-6.3 1-8.2-2.7-5.2-2.6-3.6-0.9-6.5 2.1-8.3 5.7-4.5 4.4-1.5 3.1-10.2 16.7-3.6 12.2-0.5-0.8-9.6-4.7-3.5-4-1.5-2.5-2-1.7-8.6-4.2-2.1-2.1-2.3-1.9-3-1.4-3.2-1-3-2.7-3-3.2-2.6-2.1-10.8-11.9-3-1.6-3.3 0.8-3.5 2.4-4.7 0.2-4.6-0.2-2.1 1.3-1.5-0.1-4.4-6.4-4.8-3.5 1.8-2.3 1.9-2 4.5-3.6 1.6-4.3 0.7-3.4 2.8-1 1.8-2.1 3.5-2.1 3-0.3 6.2 6.7 2.2 1.5 4.8 0.5 2.6 1 2.2 1.7 1.7-0.1 4.4-4.4 2.5-0.7 2.7-1 3.2-2.4 3-1 2.5-1.4 1.8-3.1 1.9-2.1 3.1-1.2 2.3-0.4 1.8 0.4 3-0.4 2.1 1.7 2.5 7.5 1.4 1.8 2.2 0 2.7-1.6 2.6-1.2 3.2-1.1 2.7-0.2 3.1 2.3 2.1-0.7 3.5-1.8 5.5-0.9 5.1 0 2.6-0.5 3.2-1.3 3.8-0.8 1.8-1.8z" data-id="BFA2814" data-name="Bazéga" name="Bazéga"/><path id="BFA2815" d="M559.1 367.4l0.1 2.3 0.8 1.4 1.9 0.7 0.8 0.6 0.9 2.1 0 2.7-1.8 1.8-3.8 0.8-3.2 1.3-2.6 0.5-5.1 0-5.5 0.9-3.5 1.8-2.1 0.7-3.1-2.3-2.7 0.2-3.2 1.1-2.6 1.2-2.7 1.6-2.2 0-1.4-1.8-2.5-7.5-2.1-1.7-3 0.4-1.8-0.4-2.3 0.4-3.1 1.2-1.9 2.1-1.8 3.1-2.5 1.4-3 1-3.2 2.4-2.7 1-2.5 0.7-4.4 4.4-1.7 0.1-2.2-1.7-2.6-1-4.8-0.5-2.2-1.5-6.2-6.7 1.5-2.4 3.4-3.6 2.9-2.3 1.4-1.7 0.5-2.1 0.1-2.6-0.5-2.4-2.2-2.2-0.1-2.5 0.4-2.5-1.1-1.2 1.1-0.8 5.1-2.6 7.7-2.2 3.7-1.6-0.4-2.3-4.8-16.9 0.2-2.1 1.6-0.9 2.5-0.8 3.8-0.6 2-0.1 2.7-1.5 0.9-3 0.4-3 1.9-4.3 1.2 0.9 2 2.4 1.7 3.1 0.1 2.6-1.4 2.5-0.5 3.1 0.8 2.6 2.1 0.5 3.4-1 2.9-1.9 1.8-0.9 2.2 2.7 1.6 1.6 0.5 2.5-0.8 1.9-2.6 4.1 0.6 0.9 9.6-0.6 2.5-1 2.7-2.6 3.6-1.2 1.4 0.6 5.6 1.3 1.7 2.8 1.1 3.5-0.2 3.4-2.3 5.5-0.3 2.4 0.1 2 1.6 0.3 3.6 1.9 3 3.7 1.8 0.3 8.4 4.2 3.3-0.7z" data-id="BFA2815" data-name="Kadiogo" name="Kadiogo"/><path id="BFA2816" d="M501.7 284.1l2.1 1.1 3.3 2.3 3.1 1.6 3.2-0.2 4.5 0.2 4.3 0.9 2.3 0 1.4 1.9 1.6 2.6 3.9 1.4 6.4 1.5 6.2 3.1 5.8 4.4 2.6 4.6-0.1 1.3 2.3 1.4 0.3 1.7-0.7 1.2-1.4 1.3-0.8 1.4 1.2 1.5 1.5 0.2 0.8-1.1 0.3-3.2 1.4-1.2 1.3-0.2 1.1 0.6 0.3 0.6 2.2 0.2 5.5-0.3 5.5 2.9 8.3 10.5 6.4 4.1 3.8 0.8 0 2.4-1.2 2.9-3.6 1.7-4.1 0.5-3.8-2.5-4.9-5-4.2 0.2-3 4-2.5 0.6-3 0.4 1.6 1.1 0.9 3.6-1.2 4.3-2.5 4.6-2 0.4-0.8 1.1 0.1 2.1-0.6 2.7 0.1 1.2 1 0.4 1.3 1.3 0.1 2.9-0.2 3.3-3.3 0.7-8.4-4.2-1.8-0.3-3-3.7-3.6-1.9-1.6-0.3-0.1-2 0.3-2.4 2.3-5.5 0.2-3.4-1.1-3.5-1.7-2.8-5.6-1.3-1.4-0.6-3.6 1.2-2.7 2.6-2.5 1-9.6 0.6-0.6-0.9 2.6-4.1 0.8-1.9-0.5-2.5-1.6-1.6-2.2-2.7-1.8 0.9-2.9 1.9-3.4 1-2.1-0.5-0.8-2.6 0.5-3.1 1.4-2.5-0.1-2.6-1.7-3.1-2-2.4-1.2-0.9-0.1-4-1-2.2-4.1-1-1.5-1.2-0.8-2.3-1.1-7.4 0.4-3.8-0.5-2.9-2-1-1.8-0.2-1.3-0.5-3.4-3 8.5-3.5 4.7 0.3 5.2 2.6 3.4 0.7 0.8-0.5z" data-id="BFA2816" data-name="Oubritenga" name="Oubritenga"/><path id="BFA2817" d="M477.8 255.8l0.9 0.8 5.1 4.2 2.3 3.3 2.4 2.7 1.7 1 1.9-0.6 1 0 0.8 2.2 0.7 0.2 1.5-1 1 0 2 2.4 2.1 1 5.7 0.2 1.1 0.2-3.5 5.8-1.5 5-1.3 0.9-0.8 0.5-3.4-0.7-5.2-2.6-4.7-0.3-8.5 3.5-16.3 4-10 9.4-2.6 4.7-0.4 4.8 1.8 4.2 1.1 1.8-1.5 1.1-2.4-0.4-1.9-3.2-2.8-1.4-6.1-0.1-1.5 1.2-2.2 0.9-7.7-0.8-3.7 0.1-8 2-3.9 1.4-2.3 1.6-2.5 1.4-0.7-0.1-6 2-2.1 0.4-3.2 1.1-4.1 0.8-1.7-0.3-0.8-2.2 1.7-3.4 3.2-2.6 0.9-2-2.8-0.8-5.4 0.3-3.8-0.5-0.6-2.8 1.3-3.3 1.8-2.9-0.6-3.3-2.4-1.8-1.6-0.1-1.5 0.3-2.5 2.1-1.8 1.6-3.6 2.9-5 3.2-4.2-4.9-3.7-3.1-1.4-1.3 0.2-4.2 1.6-8.6 0.8-2.6 0.3-1 0.3-2.8 0-1.8 2.7 0.6 5.8 0.5 6.7-0.2 4.7 0.7 4.4-0.4 5.9-1.2 3.6-1.1 6-6.5 5-3 11.9-5.1 4.4 1 5.1 2.3 4 0.2 3.3 1.8 1.6 2.7 1.6-0.3 7.5 0.3 1.6-1.1 1.6-2.4 1.7-1.8 2 0.4 2.3 0.8 2.9-0.6 2.2-5.7 1.2-2.2 3.1-1.9 3 1.7 2.2 4 6.5-0.9 4.5-2.3z" data-id="BFA2817" data-name="Passoré" name="Passoré"/><path id="BFA2818" d="M429 263.3l-4-0.2-5.1-2.3-4.4-1-11.9 5.1-5 3-6 6.5-3.6 1.1-5.9 1.2-4.4 0.4-4.7-0.7-6.7 0.2-5.8-0.5-2.7-0.6-1.3-6.4 0-5 1.7-3.6 2.7-0.5 5.7 0.9 4.1 0.1 4.3-1.1 2.7-3 3.9-6.7 5.6-7.7 1.3-3.7-2.5-1.5-3.7-0.7-3.1 0.7-3.3-0.1-3.4-1.7-2.7-1.9 1.2-0.7 4.7-1 3.3-1.1 3.1-1.6 2.5-2.3 1.9-2.4 2.3-1.6 5-1.6 3 2.9 6.6 0.4 11.1 3.9 3.7 0.5 3.5 0.1 2.2 0.8 6.4-2.6 2.7 0.8 0.8 1.7 0.1 2.1 0.5 2.4 1.5 3.3-3.4 4.8-1.3 4 0.1 1.2 0.8 2.9-0.3 1.1-2.3 1.1-0.8 2.9-0.5 0.5-2.2 1.1-0.5 4 2.5 2.1z" data-id="BFA2818" data-name="Zondoma" name="Zondoma"/><path id="BFA2819" d="M406.2 317.2l0.5 1.7 1.5 3.1 1.6 2.5 1.5-0.4 1.6-2.7 2.9-2 1.5 2.4-1.8 5.4-2.9 4.9-8.4 5.5-2.9 3.3-4.3 2.1-4.1 0.5-1.1 2.4 0.7 2.3 1 1.3 1.9 14.4-0.1 8-3.1 3.8-5.1 2.8-1.8 2.4 3.2 2.9 2.3 3.2-2.7 3.3-2.5 2.2-1 0.7 0 2.8 1.3 4.4 3.4 1.3 4 0.5 5.5 5.1 2.8 1.5 4.1-0.9 5.4-2.6 3.9 0.2-0.7 3.3-1.4 3.3 0.4 1.5-3.2 0.6-8.9 2.6-4.1 0.5-4.6 1.5-11.7 6.7-3.2 2.4-2.3 3.8-2.2 4.6-1.2 5.2 0 6.4-1.5 3.1-8.2-0.2-2.7 0.4-0.8-0.3-2.3-2.7-7.2-11.1 0.1-0.7-1.5-3.6-3.6-1.3-7.6 0.1-3.6-0.6-3.1-1.7-1.1-2.3 2.2-2.4 2.5 0.6 1.3 0.1 0.6-1.2 5-6.1 0.1-1.8-1.3-1.5-2.1-1.6-2.6-3.1 0.3-1.3 1.1-2.3 0.9-3.6 0.1-1.3-0.7-1.6-2.6 0-0.8-1.8-2.1-1.4-1-1.1-0.4-1.5 0.3-1.5 1.4-3 1.2-2.1 2.7 0.6 7 4.3 1.5 0.2 0.6-1.2 0.3-1.4 1-3.1 0-0.8-1.6-2-1.4-2.5-0.9-2.9 0-1.9-0.9-3.4-1.7-2.1-4.7-3.9-0.7-2.3 0.7-3 1.6-2.7 4-2.3 0.1-2.5-0.5-1 9.6-8.8 5.5-10-0.9-2.9-1.6-3.3-1.4-4.1 0.5-3.9 1.8-2.5 1.9-2.1 3.5-2.1 3.1-2.5 3.6-5.6 5-3.2 3.6-2.9 1.8-1.6 2.5-2.1 1.5-0.3 1.6 0.1 2.4 1.8 0.6 3.3-1.8 2.9-1.3 3.3 0.6 2.8 3.8 0.5 5.4-0.3 2.8 0.8-0.9 2-3.2 2.6-1.7 3.4 0.8 2.2 1.7 0.3 4.1-0.8 3.2-1.1 2.1-0.4 6-2 0.7 0.1z" data-id="BFA2819" data-name="Sanguié" name="Sanguié"/><path id="BFA2820" d="M497.2 488.3l-0.1 1.3 0 5.3-1.3 1.9-1.2 3.5-0.8 3.3-1.7 2.3-2 3.2 0.8 2.5 3.2 1.4 2.4 2 2.1 1.2 3.5 1.7 5.4 2.1 4.8-0.3 0.6 1.3 0.4 2 2 1.2 2.5-0.5 1.4 2.5 0.1 1.7-2.9-1.1-15.9-0.5-2.2 0.7-0.9 2.3-1.5 0.8-106.1 1.1-36.4 0.3 0.1-2.7 0.6-2.2 1.1-2 1.8-1.3 4.2 0 1.7-0.7 0.9-1.9 0.7-2.4 0.5-2.7-1.5-2.8-2.4-2.4-5.9-4.4-2.4-0.2-2.8 4.7-3 1.7-1.2-0.3 0.1-2.6-1-7.5-1-2.1 2.7-6.2 1.9-2.5 3.1-3 3.3-1.3 3.4 0.8 3.8 0.5 4.5 0.2 2.9-2.4 2.4-2.5 3.3-0.5 2.2-1.1 1.7-2-0.1-2.8-2.2-2.5-10.2-6.4-3.5-2.8-1.8-1.9-0.6-8.4-1.2-3.7 2.7-0.4 8.2 0.2 1.5-3.1 0-6.4 1.2-5.2 2.2-4.6 2.3-3.8 3.2-2.4 11.7-6.7 4.6-1.5 4.1-0.5 8.9-2.6 3.2-0.6 1.8-1 1 4.3 0.8 6.7-0.7 1.6-0.1 2.2 1.2 3.1 0.2 3-0.4 2.7-2.6 1.4-5.3-0.1-4.7-0.9-2.1 0.4-1.3 15.1 0.2 3.9 1.7 3.6 3.1 2.5 3.1 1.2 6.2-0.3 3.3 0.3 2.5 1.6 2.4 2.1 1.4 1.5 0.2 2.4 0.8 3.5 2 3.7 2.5 3.2 2.5 2.3 2.5 1.6 2.9 1 1.6 2.1 0.5 2.3 2.1 1.3 2.5 0.8 2.1 0.2 1.3-0.8 1.5-3.1 1.8-2.1 3.8-3.3 6 1.6 1 1.2 0.6 2.1 1.2 1.7 2.2 2.1 3.2 0.4 2.3-1.1 2.1-1.3 3.5-2.8 2.5-3.1 3.4-1.9 4.3-0.2 3.3 0.7 1.4 1.8 0.6 1.4 4 2.1z" data-id="BFA2820" data-name="Sissili" name="Sissili"/><path id="BFA2821" d="M527.6 454.6l4.2 6.3-4.7 4.9-2.3 2.9-1.7 1.6-2 1.5-2.6 1.3-2.9 1.1-3.4 2.5-5.5 6.4-2.7 1.1-2-0.4-2.1 1-2.7 3.5-4-2.1-0.6-1.4-1.4-1.8-3.3-0.7-4.3 0.2-3.4 1.9-2.5 3.1-3.5 2.8-2.1 1.3-2.3 1.1-3.2-0.4-2.2-2.1-1.2-1.7-0.6-2.1-1-1.2-6-1.6-3.8 3.3-1.8 2.1-1.5 3.1-1.3 0.8-2.1-0.2-2.5-0.8-2.1-1.3-0.5-2.3-1.6-2.1-2.9-1-2.5-1.6-2.5-2.3-2.5-3.2-2-3.7-0.8-3.5-0.2-2.4-1.4-1.5-2.4-2.1-2.5-1.6-3.3-0.3-6.2 0.3-3.1-1.2-3.1-2.5-1.7-3.6-0.2-3.9 1.3-15.1 2.1-0.4 4.7 0.9 5.3 0.1 2.6-1.4 0.4-2.7-0.2-3-1.2-3.1 0.1-2.2 0.7-1.6-0.8-6.7-1-4.3 1.9 0.2 4.9-0.7 11.1-4.1 4.1-2.2 2.6-1.8 0.3-0.7 4.8 3.5 4.4 6.4 1.5 0.1 2.1-1.3 4.6 0.2 4.7-0.2 3.5-2.4 3.3-0.8 3 1.6 10.8 11.9 2.6 2.1 3 3.2 3 2.7 3.2 1 3 1.4 2.3 1.9 2.1 2.1 8.6 4.2 2 1.7 1.5 2.5 3.5 4 9.6 4.7 0.5 0.8z" data-id="BFA2821" data-name="Ziro" name="Ziro"/><path id="BFA2822" d="M434.6 121l5.7 7.5 3.9 2.1 10.7 7.8 7.6 4.2-0.2 2.2-1 5.1 0.3 5.2 7 12.8 4 4.7 4.6 4.4 0.7 0.7 1.3 2 0 3.5-3 2-4.7 1.4-5.2 2.8-4.3 3.7-1.4 5.4 0.1 2.9-5.4 1.3-4 0.4-6.6 1.5-3-0.8-3.7-0.3-4.6 0.3-2.7-0.6-4.2-17.1-3.8-11.3-0.9-1.4-2.7-5.6 0.2-4.3 0.9-4.1-2.4-2.3-3.8-1.2-2.1-3.2-0.8-7-2-0.9-2.9-1-5.5-5.6-4.1-1.9-4.3-0.1-3 1.8-2.2 2-1.3 2.1-1.8 0.4-2.2-0.7-1.9 0.8-1.6 1.3-1.9 0-2.8-0.9-1.2-1.1 0.1-2.7-1.2-3.4-4.5-6.1-6.8-6.3 7.1-8.1 2.8-2.4 10.3-5.9 6.9-1.7 9.6 2.1 29.4 14.1 4.1 1 1.9-0.3 2.5-1.2z" data-id="BFA2822" data-name="Loroum" name="Loroum"/><path id="BFA2823" d="M460.7 201.4l4.9 10.1-0.5 12.9 0.4 3.1 2 2.8 2.9 3 0.8 2.4 3 0.2 3.1 2.1 2.1 4 1.1 3.4 0.1 3.9-0.9 2.7-1.6 2.2-0.3 1.6-4.5 2.3-6.5 0.9-2.2-4-3-1.7-3.1 1.9-1.2 2.2-2.2 5.7-2.9 0.6-2.3-0.8-2-0.4-1.7 1.8-1.6 2.4-1.6 1.1-7.5-0.3-1.6 0.3-1.6-2.7-3.3-1.8-2.5-2.1 0.5-4 2.2-1.1 0.5-0.5 0.8-2.9 2.3-1.1 0.3-1.1-0.8-2.9-0.1-1.2 1.3-4 3.4-4.8-1.5-3.3-0.5-2.4-0.1-2.1-0.8-1.7-2.7-0.8-6.4 2.6-2.2-0.8-3.5-0.1-3.7-0.5-11.1-3.9-6.6-0.4-3-2.9-5 1.6-2.3 1.6-1.9 2.4-2.5 2.3-3.1 1.6-3.3 1.1-4.7 1-1.2 0.7-0.9-2.7-3.3-6-0.6-6.1 0-2.4-0.4-2.9-1.1-1.2-2.4-1.2-2.7-0.6-2.1-1.8-1.3-2.8-2.9-1.7-11.9-2.8-4.3-2.1-5.3-5.4-2.6-3.5-1.1-1.6 4.5-1.7-3.6-12.3-0.6-6.9 2-5 2.3-3.7 4.9-16.9-0.8-0.7-0.7 0.2 3.3-5.6 18.7-10.4 2.1-2.4 6.8 6.3 4.5 6.1 1.2 3.4-0.1 2.7 1.2 1.1 2.8 0.9 1.9 0 1.6-1.3 1.9-0.8 2.2 0.7 1.8-0.4 1.3-2.1 2.2-2 3-1.8 4.3 0.1 4.1 1.9 5.5 5.6 2.9 1 2 0.9 0.8 7 2.1 3.2 3.8 1.2 2.4 2.3-0.9 4.1-0.2 4.3 2.7 5.6 0.9 1.4 3.8 11.3 4.2 17.1 2.7 0.6 4.6-0.3 3.7 0.3 3 0.8 6.6-1.5 4-0.4 5.4-1.3z" data-id="BFA2823" data-name="Yatenga" name="Yatenga"/><path id="BFA2824" d="M669 207.2l0.5 1.1-1 2.2-4.5 2.7-3.6 4.5 0.5 4.4 1.8 3.3-0.5 5.2-3 6.4-1.2 5.1 1.5 4.8-1.1 3.6-3.6 4.9-2.7 6.1-0.7 11.3 0.9 3.4 2.1 4.3 0.7 2.2 1.8 4.4 2.2 3.4 2.8 1.9 5.7 3.1 4.9 3.6-3 10.2 1.6 3.9 1.5 4.7 0.1 5-1.3 5.6-22.9 11.9-6.2 0.3-20.8-5-1.4-0.1-0.3-2.3 0-9.2-2.4-6.5-3.2-3.8-1.5-0.3-0.4-8-3.2-6.8-5.7-6.4-4.7-7.5-2.8-7.1-0.7-3.7 0.8-1.7 2-0.7 8.6 5.2 3.5-0.8 1.5-2.5 0.7-4.8-0.9-7.7 0.8-8 2.6-7.5 0.8-6.9-1.4-7.1-1.9-6.6-1.6-9.1-2.3-2.1-2.1-3.8-3.2-14.1-0.2-7.4 1.6-4.2 2.9-2.2 2.8-1 2.5-4.4 1.3-8.5-0.6-7 1.3-4.3 6.1-4.9 2.3 0.7 4.9 2.4 3.5 2.7 7.2 7.8 1.9 4.2 0.9 6 2.8 4.4 3.4 2.9 3.4 4.1 5 2.7 8.3 0.4 5.4 1.5-0.3 3.6-2.2 3.5-0.7 3.9 2.4 4.5z" data-id="BFA2824" data-name="Namentenga" name="Namentenga"/><path id="BFA2825" d="M620.8 151.9l-6.1 4.9-1.3 4.3 0.6 7-1.3 8.5-2.5 4.4-2.8 1-2.9 2.2-1.6 4.2 0.2 7.4 3.2 14.1 2.1 3.8 2.3 2.1 1.6 9.1 1.9 6.6 1.4 7.1-0.8 6.9-2.6 7.5-0.8 8 0.9 7.7-0.7 4.8-1.5 2.5-3.5 0.8-8.6-5.2-2 0.7-0.8 1.7 0.7 3.7 2.8 7.1 4.7 7.5 5.7 6.4 3.2 6.8 0.4 8-3-0.4-4.9 0.7-1.9 3.1 0.7 4.5 0.1 3-4.1 3.8-5 3.3-3 1.7-3.8-0.8-6.4-4.1-8.3-10.5-5.5-2.9-5.5 0.3-2.2-0.2-0.3-0.6-1.1-0.6-1.3 0.2-1.4 1.2-0.3 3.2-0.8 1.1-1.5-0.2-1.2-1.5 0.8-1.4 1.4-1.3 0.7-1.2-0.3-1.7-2.3-1.4 0.1-1.3-2.6-4.6-5.8-4.4-6.2-3.1-6.4-1.5-3.9-1.4-1.6-2.6-1.4-1.9-2.3 0-4.3-0.9-4.5-0.2-3.2 0.2-3.1-1.6-3.3-2.3-2.1-1.1 1.3-0.9 1.5-5 3.5-5.8-0.1-2.6-2.5-4.2 0.2-4 4.3-4.2 7.2-2.6 6.9-1.4 5.3 0.1 4.4 0.6 0.4-3.4-0.9-5.6 0.5-3.1 2.1-3.9 0.7-3.6-3.3-7.1-4.6-5.5-2.4-5.1 3.3-4.2 1.4-5-1.7-5.8-0.1-3 1.7-2.2 2-3.7 2.2-5.6-1.2-4.4-4.4-7.1 5.2-0.5 5.5-1.5 5.6-0.9 6.5-0.1 9.6-3.8 3.1 0.5 8.9-4.6 16.3-3.7 17.8-9.1 6.6-6.4 2.1-0.1 1.6 3.5 2.6 2.8z" data-id="BFA2825" data-name="Sanmatenga" name="Sanmatenga"/><path id="BFA2826" d="M639 402.6l0.2 4.6-1 3.1 1.3 4 3.9 5.2 6.1 4.5 12.9 3.2 3.2 0.4 4.3-6.9 11.3-9.3 1.8-0.7 0.6 0.2 1.8 0.4 2.7 1.2 1.3 4.4 4.1 2.9 5.9 1.2 3.1 5.1 1.1 5.1 0.2 2 0.1 1.3-0.3 1.9-1.6 0.8-2.1 0-5.1-0.6-2.1 1-4.2 3.6-2.4 5-2.3 2.2-1.7 2.1-3 6.4 1 2.8 2.2 2.8-1.5 3.7 0 2-0.5 4.4-1.5 1.9-1.2 1.7 0.7 2-0.3 2.1-1.6 1.8 0.2 2.8 1.5 1.3 2.2 0.1 2.4 0.6 2.1-0.3 2.1-1 2.5-0.5 3.5-0.2 3.5 1.3 1.8 2-0.1 1.9-1.3 1.8-3.1 2.9-1.3 1.8-0.6 1.9-1 2-1.3 1.5-2.2 0.6-1.1 1.2 0 1.9-1.7 3.5-1.5 4.5-23.5-4.9-0.4 2.1 0.8 2.3-1 1.9-1.6 1.6-6.3 4.7-2.3-2.8-2.4-1.9-2.4 0-2.4 3.1-0.6 1.9-0.3 2.9-0.7 1.3-1.5 1.3-3.3 1.5-1.5 1.9-1.2 0.6-4.9-0.2-2.6 0.3-1.8 0.7-1.2 2.2-0.9 3.1-1.3 2.9-2.2 1.4-6.1-5.9 0.4-0.9 1.5-2-0.8-0.9-2.6 0.1-0.1-1.5-0.9 0-0.4-4.2 1.3-2.2 0.6-2-0.8-2.5-2.3-1.9-2-2.2-1.6-3.2-2.8-4.6-1.3-3.2 0.9-0.9 1.8-2.3 1-4 1.5-2.7 3.4-1.7 4.5-3.8 4.8-3 3.5-3.5 3.7-1.4 3.8 1.3 0.1-2.3-0.3-3.5 2-4.6-2.3-3.9-1.4-1.3-4.3-2-1.3-1.1-2.4-1.1-9.6-2.4-2.6 0.3-2.9 2.1-5.6-3.3-5.9-2.2-3.9-2.8-7.1-10.8 1.7-5 3.6-4.6 3.1-1.9 7.4-10.2 6.4-0.5 6.7-2.1 5-4.9 2.1-3.6 2.6-3.5 2.7-2.9 3.6-1.4 7-0.7 5 0.3 1.1 0z" data-id="BFA2826" data-name="Boulgou" name="Boulgou"/><path id="BFA2827" d="M764.3 444.8l-0.8 8.8 0.6 3.4 0.5 8.9 0.9 3.1 2.7 4.8 1.4 3.9 0.6 2.6-1.3 3.5-3.2 2.1-0.8 2.5 1.2 5.6 1.2 1.9 0.6 2.3-0.6 2.1 0.2 2.7-4.7 5.4-1.5 2.3-0.8 3.4-0.2 3.5-1.2 1.8-2.2-0.7-2-2.4-1.5-2.1-1.7-0.7-1.7 1.7-4.8 10.2-0.4 1-61.8-12.7 1.5-4.5 1.7-3.5 0-1.9 1.1-1.2 2.2-0.6 1.3-1.5 1-2 0.6-1.9 1.3-1.8 3.1-2.9 1.3-1.8 0.1-1.9-1.8-2-3.5-1.3-3.5 0.2-2.5 0.5-2.1 1-2.1 0.3-2.4-0.6-2.2-0.1-1.5-1.3-0.2-2.8 1.6-1.8 0.3-2.1-0.7-2 1.2-1.7 1.5-1.9 0.5-4.4 0-2 1.5-3.7-2.2-2.8-1-2.8 3-6.4 1.7-2.1 2.3-2.2 2.4-5 4.2-3.6 2.1-1 5.1 0.6 2.1 0 1.6-0.8 0.3-1.9-0.1-1.3 3 0.3 1-0.9 0.6-3.4 2-0.6 6.8 1.3 2.2-0.1 2.3 1.9 4 1.9 7.9-0.3 3.8 1.3 13.8 9.6 2.8 0.4 10.3 0.2z" data-id="BFA2827" data-name="Koulpélogo" name="Koulpélogo"/><path id="BFA2828" d="M612.7 313.5l1.5 0.3 3.2 3.8 2.4 6.5 0 9.2 0.3 2.3 1.2 4.7 5.4 3.3 4.2 3.5 1.9 3.8 0.8 3.2-1.3 5 3.4 8.6 0.7 3.9 0.9 2.7 6.9 6.8-0.9 1.8 1.1 12.2-1.9 4.9-2.4 2.5-1.1 0.1-1.1 0-5-0.3-7 0.7-3.6 1.4-2.7 2.9-2.6 3.5-2.1 3.6-5 4.9-6.7 2.1-6.4 0.5-1.3-0.4-1.2-0.9-1-1.2-0.8-3.3-1.3-0.1-1.7 0.5-1.8 0.1-2.2-1-0.6-1.1 0.3-3.7-0.3-2-0.7-1.5-2.7-3.4-3.3-2.4-1.7-1.6-3.6-4.2-1-2.5-2.2-2.2-1.1-1.4-0.7-2.2-0.8-5.8-0.6-0.7-2.4-2.2-0.5-1.5 0-2.7-0.9-2.1-0.8-0.6-1.9-0.7-0.8-1.4-0.1-2.3 0.2-3.3-0.1-2.9-1.3-1.3-1-0.4-0.1-1.2 0.6-2.7-0.1-2.1 0.8-1.1 2-0.4 2.5-4.6 1.2-4.3-0.9-3.6-1.6-1.1 3-0.4 2.5-0.6 3-4 4.2-0.2 4.9 5 3.8 2.5 4.1-0.5 3.6-1.7 1.2-2.9 0-2.4 3-1.7 5-3.3 4.1-3.8-0.1-3-0.7-4.5 1.9-3.1 4.9-0.7 3 0.4z" data-id="BFA2828" data-name="Ganzourgou" name="Ganzourgou"/><path id="BFA2829" d="M686.9 371.2l1.8 2.1 4.1 3 2.8 3.3 5.4 5.2 0.4 3.5-2.7 0.7-3.6 1.8-4.2 1.3-3.8 2.6-2.9 5.5-0.5 4.6 0.5 3.8-0.6 2.3-0.6-0.2-1.8 0.7-11.3 9.3-4.3 6.9-3.2-0.4-12.9-3.2-6.1-4.5-3.9-5.2-1.3-4 1-3.1-0.2-4.6 1.1-0.1 2.4-2.5 1.9-4.9-1.1-12.2 0.9-1.8-6.9-6.8-0.9-2.7-0.7-3.9-3.4-8.6 1.3-5-0.8-3.2-1.9-3.8-4.2-3.5-5.4-3.3-1.2-4.7 1.4 0.1 20.8 5 6.2-0.3 22.9-11.9-3.4 10.8 1.3 5.2 5.1 2.9 4.8 3.4-0.2 4.5-3.8 5.1-0.8 5.3 3.9 2.9 8.6 2.6z" data-id="BFA2829" data-name="Kouritenga" name="Kouritenga"/><path id="BFA2830" d="M599.6 504.5l1.3 3.2 2.8 4.6 1.6 3.2 2 2.2 2.3 1.9 0.8 2.5-0.6 2-1.3 2.2 0.4 4.2-14.4-0.3-0.7-0.9-1.4 0-0.7 0.9-2.7 0.5-2.9 3.1-2.1 0.3 0.8-1.8-1.3 0.1-0.7-0.4-0.8-1.8-2.1-0.9-17.4-1.3-3.5 0.5-1.2 2-31.2-0.3-3.2-0.6-4.1-1.7-0.1-1.7-1.4-2.5-2.5 0.5-2-1.2-0.4-2-0.6-1.3-4.8 0.3-5.4-2.1-3.5-1.7-2.1-1.2-2.4-2-3.2-1.4-0.8-2.5 2-3.2 1.7-2.3 0.8-3.3 1.2-3.5 1.3-1.9 0-5.3 0.1-1.3 2.7-3.5 2.1-1 2 0.4 2.7-1.1 5.5-6.4 3.4-2.5 2.9-1.1 2.6-1.3 2-1.5 1.7-1.6 2.3-2.9 4.7-4.9 1.5 0.8 2.3 3.3 1.3 3.5 3.4 0.7 4.2-0.1 2.5 3.3 2.2 3.8 2.4 1.7 4 0.9 3.1 1.9 4.4 5.1 2.9 1.7 3.6-1.1 3.8 0.8 1.5 2.7-0.1 3.5 1.8 0.9 2.6 1.8 2.3 3.6 2 1.4 3.2 3.6 7.6 3.6 3.3-1.3 2-2.5z" data-id="BFA2830" data-name="Nahouri" name="Nahouri"/><path id="BFA2831" d="M585.5 415.6l2.2 1 1.8-0.1 1.7-0.5 1.3 0.1 0.8 3.3 1 1.2 1.2 0.9 1.3 0.4-7.4 10.2-3.1 1.9-3.6 4.6-1.7 5 7.1 10.8 3.9 2.8 5.9 2.2 5.6 3.3 2.9-2.1 2.6-0.3 9.6 2.4 2.4 1.1 1.3 1.1 4.3 2 1.4 1.3 2.3 3.9-2 4.6 0.3 3.5-0.1 2.3-3.8-1.3-3.7 1.4-3.5 3.5-4.8 3-4.5 3.8-3.4 1.7-1.5 2.7-1 4-1.8 2.3-0.9 0.9-2 2.5-3.3 1.3-7.6-3.6-3.2-3.6-2-1.4-2.3-3.6-2.6-1.8-1.8-0.9 0.1-3.5-1.5-2.7-3.8-0.8-3.6 1.1-2.9-1.7-4.4-5.1-3.1-1.9-4-0.9-2.4-1.7-2.2-3.8-2.5-3.3-4.2 0.1-3.4-0.7-1.3-3.5-2.3-3.3-1.5-0.8-4.2-6.3 3.6-12.2 10.2-16.7 1.5-3.1 4.5-4.4 8.3-5.7 6.5-2.1 3.6 0.9 5.2 2.6 8.2 2.7 6.3-1z" data-id="BFA2831" data-name="Zoundwéogo" name="Zoundwéogo"/><path id="BFA2832" d="M312.5 563.1l-0.6 0.7-1.5 0.7-2.3 0.8-5.2 3.2-8.8 7.8-4.1 1.5-2.4 0.6-2.6 0.9-3.4 2-2.5 0.8-4.7-4.1-2.4-1.6-2.8-1.3-3.8-0.2-6.2 2.2-2.5 0.2-1.7-0.4-2.2-1.6-4.1-1.7-5-0.6-5.3 0.7-6.8 1.8-2.3-2.8-1.4-1.1-4.9-0.5-2-0.7-1.4-1.4-0.6-1.7 0.7-2.5 1.1-1 2.5-0.6 7.2 0.2 1.7-1.1-0.4-2.6-1.1-2.7-1.9-2-1.2-1.9 0-1.1 0.5-2.8 0.9-0.9 2.8 0.3 2.2-1.7 2-0.2 0.7-1.1-0.5-1.8 0.3-1.8 1.5-3.1 1.1-1 2.5-0.9 3.6-3.7 0.9-3.6-0.5-1.1-1.1-1.1-0.6-1.5 0.5-0.9 2.5-1.4 2.3-3.7 2.3-0.3 1.5-1.4 2.7-4.6 1.3-0.7 2.3-0.3 2.4-1.4 1.2-2.4 3.5 2.4 4.3-0.7 2.9-1.8 2.4-0.2 2.2 0.3 2.8-1.2 2.7-1 3.8-1 6.9-1.1 5 0.6 4.7 1.6 0.4 3-0.9 4.2-1.1 2.6 0.2 2.7 1 2.7-0.8 3.3-1.7 3.2-0.8 4.6-0.8 1.5-1.8 4.9 1.3 6.2-4.1 1.6-1 2.5 1.5 1.1 0.8 1.5-1 2.6-0.2 2.6 1.5 0.8 1.3-1.7 3.6-0.4 4.9 0.3 1.6 0.4 1.2 1.3 0.4 1.8 1 1.3 1.6 0.8 0.3 0.9z" data-id="BFA2832" data-name="Bougouriba" name="Bougouriba"/><path id="BFA2833" d="M337 492.7l-1.3 2.1-1.2 2.7 1.3 1.2 5.6 0.1 2.5 0.9 1 2.1 1 7.5-0.1 2.6 1.2 0.3 3-1.7 2.8-4.7 2.4 0.2 5.9 4.4 2.4 2.4 1.5 2.8-0.5 2.7-0.7 2.4-0.9 1.9-1.7 0.7-4.2 0-1.8 1.3-1.1 2-0.6 2.2-0.1 2.7-2.8 0.1 0-1.4-10.9-0.2-0.2 1.7 0.8 2.4 1.3 2.3 0.8 2.5-0.7 2.9-1.7 1.9-2 1.5-1.7 2-0.9 2.7-1.4 5.9-2.2 3.5-0.4 2.9-0.7 1.3-1.7 2.1 0.3 1.3-1.8 1.2-1.8 0.4-2.8 0.1-1.4-1.3-0.8-2.1-2.1-2.4-3.1-0.2-3 0.5-0.3-0.9-1.6-0.8-1-1.3-0.4-1.8-1.2-1.3-1.6-0.4-4.9-0.3-3.6 0.4-1.3 1.7-1.5-0.8 0.2-2.6 1-2.6-0.8-1.5-1.5-1.1 1-2.5 4.1-1.6-1.3-6.2 1.8-4.9 0.8-1.5 0.8-4.6 1.7-3.2 0.8-3.3-1-2.7-0.2-2.7 1.1-2.6 0.9-4.2-0.4-3-4.7-1.6-5-0.6-6.9 1.1-3.8 1-2.7 1 0.5-1.3 1.1-6.2 0.8-2.1 1.7-2.5 5.2-6.4 3.9-3 5.1-1.5 3.3 1.4 2 1.7 4-0.5 5.2-1.7 4.7 0.3 3.3 1.8 5.2 1 4.6 1.7 4.3 1.9 1.1 0.4z" data-id="BFA2833" data-name="Ioba" name="Ioba"/><path id="BFA2834" d="M245.1 432.3l5.3 3.6 4.6 2.2 7.9 1.5 4.1 1.6 2.2 1.2 0.5 1-0.8 1.7-2.7 7.4 0.9 1.6 4.1 1.1 1.7 1.9 1.9 1.2 2.9 0.4 2.4 0.8 0.7 0.8-0.1 4.8 0.9 2.9 2.6 2.6 3.3-1.1 2.6-2.2 2 1 2.2-0.8 2.6-2.7 2.8-1.6 3-0.8 2.8-1.7 4.1-3.5 1.5-0.8 1.8-0.5 3 0.3 3.4 1.8 2.3 2.2 2.4 0.8 2.3-0.5 1.7-0.7 1.8 0.5 2.1 1.5 1.7 0.5 0.9-0.9 0.5-1.2 1.5-0.1 1.7 1 2.5 1.8-0.1 3.2-2.6 2.7 0.4 1 1.6 2.1 0.6 1.2 0.2 1.3-0.2 4.5-0.3 1.4-1.2 2.4-0.2 1.4 0.2 4.2-0.2 1.6-1.9 2.8-1.1-0.4-4.3-1.9-4.6-1.7-5.2-1-3.3-1.8-4.7-0.3-5.2 1.7-4 0.5-2-1.7-3.3-1.4-5.1 1.5-3.9 3-5.2 6.4-1.7 2.5-0.8 2.1-1.1 6.2-0.5 1.3-2.8 1.2-2.2-0.3-2.4 0.2-2.9 1.8-4.3 0.7-3.5-2.4-1.2 2.4-2.4 1.4-2.3 0.3-1.3 0.7-2.7 4.6-1.5 1.4-2.3 0.3-2.3 3.7-2.5 1.4-0.5 0.9 0.6 1.5 1.1 1.1 0.5 1.1-0.9 3.6-1.9 0.3-3 0.2-2.1-1.5-7.4-7.2-2.5-1.9-2.7-2.5-2.7-3.4-3.4-5.5-1.4-1-3.7 0.7-3.6 0-2.1-2.9-0.7-4.5 3.9-17 0.2-3.6-2.8-0.3-2.4-2.4-0.6-4.9-1.5-6.2-1.1-1.4-2.5-2-2.3-2.6-2-3.5-1.3-4.2-0.9-4-0.5-4.3 4.2-12.7-0.6-8.7 0.9-3.9 0.8-2.3 0.7 0.4 3 0.3 0.9 2.5 2 1.4 2.3 1.1 0.6 1.1-0.4 1.8 0.6 1.6 1.5 0.6 2.2 0.6 2.7 1.3 2.4 1.4 1.8 1.3 1.9 1.1 2.7 0.4 2.4 0.2 1.8-0.7 2.4-1.7 2.6-1.3 2.4-0.6 7.9-0.4 1.2-0.2z" data-id="BFA2834" data-name="Tuy" name="Tuy"/><path id="BFA2835" d="M59.1 551.3l1.4 2 3.5 1.5 3.3 0.7 2 0.9 2-0.4 2.1 1.7-0.3 2.8-0.9 2.8 1.1 4.1 0.3 4.7-0.6 2.4-0.8 2.4-2 3.9-1.4 2.2-1.6-0.2-2-0.7-2.5 0.7-3.6 0.8-3.8 1.3-2.8-0.3-1.3-0.8-1.5 2.7-1.2 2.9 1.9 2 2.6 1.4 0.6 5.3 2 2.4 0.9 2.5-0.1 2.2 0.8 4.5-0.3 1.6-1.3 2-0.6 2.1 0.1 2.5-3.3 2.5-2-1.3-2.1-0.2-0.9 1.7-1.1 0.2-6.2-3.7-2 0.5-5.9-0.8-2.1-0.1-0.9 0.6-1.5 1.7-1.4 0.3-2.1 0-1.3-0.7-1.5 1.6-2.5-0.1-2.2-0.5-1.7-0.9-1.3-1.2-1.4-3-0.8-0.4-2-0.2-1.8-0.7-0.1-2.2-1.6-3.3-2.2-2.9-2.2-1.2 0.7-1.9 1-6.5 0.5-1.1 3-4.6 1.7-6.8-0.4-1.2-0.9-0.9 0.1-2 0.9-2 1.2-1.2-1.9-0.7-0.8-3.2-0.1-1.2 1.2-6.9 0.7-1.9 0.8-0.9 1.9-1.1 0.1-2.4 1.8-7.4-0.5-1.6-1.5-2.7-2.3-9-1.7-3.5-2.9 0.7 0.8-3.4-1.3-6.6 1.3-0.1 11 1 3.7 2 12.4 11.4 1.6 2.6 1.4 3.3 1.6 2.7 5.2 5.8 2.1 1.9 3.6-0.2 2.3-0.9 6.5-1.7 3.3-0.1z" data-id="BFA2835" data-name="Léraba" name="Léraba"/><path id="BFA2836" d="M92.9 546.3l0.7 1.9 3.5 4.4 1.4 2.2 2.2 1 3.5 1.1 2.8 1.6 2.5-0.2 6.6-4.9 1-1.3 2.3-2.2 3.5-2.3 3.2-1.1 3.1 0 2.7 0.2 3.1 1.2 2.7 3 3.2 8.2 1.4 2.2 1.9 0.8 3.3 0.3 7.4 2.3 1.1 0.9 0.8 1.5 1.2 1.2 2-0.1 6.8-3.7 1.2-1 3.2-1.6 5.3-1.7 3.6-1.7 1.5-0.2 1.2 0.7 2.9 3.3 1.6 1.6 1.8 1 2.8 1 7.3 1.3 2.6 2.8 2.3-0.2 1.9-1.1 4.2-1.4 1.7-1.2 0.5-2.2 0.3-2.4 4.4-4.4 1.5-2.4 1.5-1.8 2.1-0.9 5.4 0 0 1.1 1.2 1.9 1.9 2 1.1 2.7 0.4 2.6-1.7 1.1-7.2-0.2-2.5 0.6-1.1 1-0.7 2.5 0.6 1.7 1.4 1.4 2 0.7 4.9 0.5 1.4 1.1 2.3 2.8-0.1 3.1-0.6 2.6-0.2 11.2 0.5 3.6-0.1 2.2-1.6 1.3-1.3 1.5-0.9 2.7-1.4 3-3.6 4.6-1.2 1.9 0 2.1 1.1 1.9 0.5 1.7 0.9 4.4 0.8 2.2 0.3 2.2-0.9 2.3-4 5.6-2.3 4.9-1.4 1.8-4.1 2.2-5.4 1.7-3-0.1-3.7-0.9-2.8 0.2-1 2-1.4 4.1-0.5 1.8 1.2 3.3 7.3 5.9 3.7 4 0.4 2.5-0.1 2.7-2.3 0.7-4.8 3.1-2.7 0.7-1.9 1-0.5 2.1-0.8 1.8-4 0.1-3 1.2-0.4 1.7-0.8 0.1-2.1-0.9-7.1-2.2-2.2 0.3-2.3 1.7-3.6 5.1-2.3 1.3-4.8 0.7-2.2 0.7-1.6 1.6 2 0.6-3.8 4-0.7 1.2 0.3 4.1-0.3 1.6-1.6 3.2-0.8 1-3.5-1.4-1.9-0.5-0.4 2 0 2.1-0.4 1.1-1.7-0.8-0.9-1.4-1-4.2-1.2-1.8-3-0.8-4.5 0.2-4.1-0.4-1.8-2.6 0.3-2.4 1.2-3.3 0.3-2.2-0.3-0.6-1.8-0.6-2.3 0-0.4 0.2-1.1 3.2 0 1.7-0.5 1.3-1.8 0.5-1.5-0.5-1.8-2.7-1.4-1.2-1.7 1.7-1.5 0.8-3.4 0.2-0.3 1.1-0.8 0.8-2.1 1.2-0.7-1.4-2.3-1.2-0.5-2.3-0.5-0.9-1.4-1.3-1.8-2-2.5-0.1-0.3 1.1 0.7 0.6-1.9 0.4-1.6-2.7-1.7 0.5-0.6-1.6-1.1-1 0-0.9 2.3-0.1 2-0.7-1.2-2.2-0.6-2.9-1.1-1.9-2.4 0.8-0.8-2.6-1.8-1.6-2.5-0.8-3-0.3-1-0.2-1-1.2-1.5-0.3-0.9 0.6-1.4 2-1.1-0.4-3.7-3.5-0.2-1.4 1.8-5.3-1.6-3.8-1.4-1.9-0.5-1.3 2.6-0.1 0.5-1.7-0.9-2.3-1.4-2-3.2-1.8-1.3-1.2-0.7-2.3-1.2 1.1-1.5 0.6-1.4-0.2-1-1.5 1.7-0.8-2.4-0.9 0.1-1.1 3-1-0.3-1-3.2-2.1-0.7-1.3 0.8-2.3-3.3 0.1 0-1.4 1.1-2.3-0.3-2.6-1 1.6-1.6 1-1.6-0.1-0.1-0.6 0.8-1.5 0-7-1-2 3.3-2.5-0.1-2.5 0.6-2.1 1.3-2 0.3-1.6-0.8-4.5 0.1-2.2-0.9-2.5-2-2.4-0.6-5.3-2.6-1.4-1.9-2 1.2-2.9 1.5-2.7 1.3 0.8 2.8 0.3 3.8-1.3 3.6-0.8 2.5-0.7 2 0.7 1.6 0.2 1.4-2.2 2-3.9 0.8-2.4 0.6-2.4-0.3-4.7-1.1-4.1 0.9-2.8 0.3-2.8-2.1-1.7-2 0.4-2-0.9-3.3-0.7-3.5-1.5-1.4-2 6.6-2.6 5.7-4.6 2.5-0.2 5.5 0.9 10.8 0 1.8 0.6 0.9 0.9z" data-id="BFA2836" data-name="Komoé" name="Komoé"/><path id="BFA2837" d="M329.3 566.9l0.1 0.6 1.4 0.3 0.3 1.4-0.6 1.1-0.8 2.1-1.7 3.1-0.3 1.2 0.5 2.5 3.8 6.8 0.3 1.2 0.2 2.8 0.3 1.2 2.7 3.1 0.4 2.5 1 1.6 4.4 3.9 1.6 0.8 2 0.4 3.1 0.1 0.5 0.5-0.6 1.2-1.1 1.2-1.4 0.6-1.6 0.1-1.3 0.4-1.8 2-0.9 1.9-0.6 2.6 0 2.7 1 2.1 1.1 0.5 2.4 0.4 0.7 2.3 1.9 0.3 3.3 1.6 0.5 0.7 0 1.6-0.4 1.7-0.9 1.2-2.6 2-1.6 2.6-0.1 2.6 1.3 5.8 0 4.1-5.2-1.2-4.1-1.1-3.7 1.1-2.3 4.2-1.1 6.4-2.6 1.9-5.2-0.8-5.2-4.1-3.7-4.2-6.3 0-6.7-0.3-3.8 3 0.4 6.4-3.3 5.3 0.6 7-1.5-1-2 1.4-4.2 6.1-1.8 1.8-3 0.3-1.3-1.7-0.2-2.6 0.1-2.6-0.5-0.8-2.8 1.4-1.2 0.4-1.3-0.7-2.2-2-1.6-0.7-19.9-1.6-7.5 1-2.2-0.4-1.3-1-1.8-2-1.7-0.5-1.6 1.7-1.5 0.3-1.6-1-0.9-0.1-6.2 0.7-1.8 0.6-1.3 0.9-2 2.2-1.1 0.8-2.4 0.7-8.4 0.2-0.2 0 0.1-2.7-0.4-2.5-3.7-4-7.3-5.9-1.2-3.3 0.5-1.8 1.4-4.1 1-2 2.8-0.2 3.7 0.9 3 0.1 5.4-1.7 4.1-2.2 1.4-1.8 2.3-4.9 4-5.6 0.9-2.3-0.3-2.2-0.8-2.2-0.9-4.4-0.5-1.7-1.1-1.9 0-2.1 1.2-1.9 3.6-4.6 1.4-3 0.9-2.7 1.3-1.5 1.6-1.3 0.1-2.2-0.5-3.6 0.2-11.2 0.6-2.6 0.1-3.1 6.8-1.8 5.3-0.7 5 0.6 4.1 1.7 2.2 1.6 1.7 0.4 2.5-0.2 6.2-2.2 3.8 0.2 2.8 1.3 2.4 1.6 4.7 4.1 2.5-0.8 3.4-2 2.6-0.9 2.4-0.6 4.1-1.5 8.8-7.8 5.2-3.2 2.3-0.8 1.5-0.7 0.6-0.7 3-0.5 3.1 0.2 2.1 2.4 0.8 2.1 1.4 1.3 2.8-0.1 1.8-0.4 1.8-1.2z" data-id="BFA2837" data-name="Poni" name="Poni"/><path id="BFA2874" d="M770 277.6l-1.9 0.7-0.6 1 0.5 3.5-1.2 1.6-2.4 0.7-2.2 1.2-2.2 1.6-2.7 1.5-3-0.7-3.5-0.2-3.7-1-4-1.7-3-0.6-2.8-1.8-3.4-0.3-1.2 1.4 0.4 2.7-0.8 4-2.6 3.2-1 1.9 3.3 3.3 3.5 6.5 2.5 21.2 3.6 13.3 0 3-6.8 5.7-5.4 3.5-13.4 0.2-9.7 4.9-4.1-0.4-3.5 1.1-3.4 4.4-7.3 6.8-1.1 1.4-8.6-2.6-3.9-2.9 0.8-5.3 3.8-5.1 0.2-4.5-4.8-3.4-5.1-2.9-1.3-5.2 3.4-10.8 1.3-5.6-0.1-5-1.5-4.7-1.6-3.9 3-10.2-4.9-3.6-5.7-3.1-2.8-1.9-2.2-3.4-1.8-4.4-0.7-2.2-2.1-4.3-0.9-3.4 0.7-11.3 2.7-6.1 3.6-4.9 1.1-3.6-1.5-4.8 1.2-5.1 3-6.4 0.5-5.2-1.8-3.3-0.5-4.4 3.6-4.5 4.5-2.7 1-2.2-0.5-1.1 2.1-2 2.7-4.6 2.1-3.1 4.3 0.2 5.5 1.6 4.5 2.1 5.5-0.9 3.6-1.7 6-2.2 0.5 2.4 0.5 4.2 0 3.6 2.4 1.8 4.2 4.9 3.6 8.1 4.2 5.9 7.9 7.5 1.4 4.6 5.6 5 16.5 5.3 2.7 3.6 3.7 3.4 3.5 3.6 4.3 5.8 5 5.1 1.5 3.8-1.1 2.1-1.7 0.3z" data-id="BFA2874" data-name="Gnagna" name="Gnagna"/><path id="BFA2875" d="M862.1 292.6l-4.5 8.3-0.9 0.4-2.6 0.2-5.1 1.2-4 0.6-1.6 0.7-0.5 1.6-0.1 2-1.2 1.1-1 1.7-0.5 2.4-1.5 2.2-1.9 1.2-1.8-0.2-3.5-0.9-2.1-1.1-2.2-0.1-3.5 1.1-1.6 1.9-1.4 3-2.1 2.4-2.5 0.8-2.6 0.2-2.9 0.5-1.9 0.8-1.2 1.4-1.9 4.7-0.3 2.5 0.1 2.3-0.9 0.6-1.8-0.4-0.7 1.7-0.2 3.1-2.3 2.4-0.8 1.8-2.4 0.6 0 1.3-0.9 0.9-1.6 0.9-0.3 1.6 0.1 1.7-2.3 2.1-1 2.2-1.3 1.1-1.7 0-1.4 0.3-0.9 1.2-1.9 1.5-3-1.7-5.7-12.2-1.8-2.1-14.5-9.4-3 0.9-9.6 6.5-2.6 1.1-1.2 0.4 0-3-3.6-13.3-2.5-21.2-3.5-6.5-3.3-3.3 1-1.9 2.6-3.2 0.8-4-0.4-2.7 1.2-1.4 3.4 0.3 2.8 1.8 3 0.6 4 1.7 3.7 1 3.5 0.2 3 0.7 2.7-1.5 2.2-1.6 2.2-1.2 2.4-0.7 1.2-1.6-0.5-3.5 0.6-1 1.9-0.7 1.9 0.6 3.1-0.8 3-1.9 3.4 0.8 4.3-1.5 3.2 1.3 3.7 0.3 3-2.3 2.4-2.7 3.3 0.2 2.4-1.6 2.5-2.2 11.5-6.3 2.4-1 0 2.4 0.4 2.5 1.1 2 3.6 2.1 9 0.7 3.8 1.9 24.1 20.5z" data-id="BFA2875" data-name="Komondjari" name="Komondjari"/><path id="BFA2876" d="M760.6 161.2l-0.7 1.6-1.2 1.3-2.1 2-2.9 1.5-5.7 0.2-1.6 2.1-1.4 2.9-2.2 1.6-5.7 0.2-5.7 2.1-1.8 2.4-1.5 3.8-2.6 2-3.3 0.4-2.2 1.3-1.5 1.7-1.9 1.7-2.7 1.4-2.9 1.1-2.2 1.3-3.5 2.8-6 2.2-3.6 1.7-5.5 0.9-4.5-2.1-5.5-1.6-4.3-0.2-2.1 3.1-2.7 4.6-2.1 2-2.4-4.5 0.7-3.9 2.2-3.5 0.3-3.6-5.4-1.5-8.3-0.4-5-2.7-3.4-4.1-3.4-2.9-2.8-4.4-0.9-6-1.9-4.2-7.2-7.8-3.5-2.7-4.9-2.4-2.3-0.7-2.6-2.8-1.6-3.5 1.5-0.1 4-1.5 3.4-3.3 1.7-5.1 0.9-5.8-0.9-4.6-1.2-1.9 8-0.1 23.4-2.2 8.9-4.4 5 0.6 4.8 1.1 5.7-1 6.5 0.1 5.4 1.3 3.7-1 8.7-10.2 2.6-4.2 2.9-3.1 3.9-10.3 2.2-0.2 2.5-1.2 2.9-3.4 18.1 16.7 5.4 7.3 0.2 1.8-1.2 1.6-0.5 1.1-0.6 4.1-0.6 1.5-3 4.7-0.6 1.6 0.6 1.4 1.6 2.5 2.2 2.2 0.6 1.1-0.2 0.8-1 2.1 0 1.1 1.2 1.4 1.6 0.8 1.3 1.1 0.3 2.3 1 2.3 2.1 1.5 2.2 1.1 1.3 1.5 0 1.2-1 2.3 0 1.4 0.8 0.9 2.6 1.8 1 1.1 1.1 2.4 1 1.4z" data-id="BFA2876" data-name="Séno" name="Séno"/><path id="BFA2877" d="M820.1 260.5l-2.4 1-11.5 6.3-2.5 2.2-2.4 1.6-3.3-0.2-2.4 2.7-3 2.3-3.7-0.3-3.2-1.3-4.3 1.5-3.4-0.8-3 1.9-3.1 0.8-1.9-0.6 1.7-0.3 1.1-2.1-1.5-3.8-5-5.1-4.3-5.8-3.5-3.6-3.7-3.4-2.7-3.6-16.5-5.3-5.6-5-1.4-4.6-7.9-7.5-4.2-5.9-3.6-8.1-4.2-4.9-2.4-1.8 0-3.6-0.5-4.2-0.5-2.4 3.5-2.8 2.2-1.3 2.9-1.1 2.7-1.4 1.9-1.7 1.5-1.7 2.2-1.3 3.3-0.4 2.6-2 1.5-3.8 1.8-2.4 5.7-2.1 5.7-0.2 2.2-1.6 1.4-2.9 1.6-2.1 5.7-0.2 2.9-1.5 2.1-2 1.2-1.3 0.7-1.6 2.4 2.5 4.3 2.8 2.7 3.3 2.4 0.9 0.9 1.2-0.8 2.4-1.2 2.8-0.6 1.9 1.8 3.3 3.3 1.1 16.8-0.5 1.2 0.3 0.4 0.9 0 2.3-0.3 1.4 1.5 1.4 2.5 1.2 2.2 0.2 4.7-0.5 5.9 1.8 6.8 4.1 5.1 5.5 0.6 5.8 2.4 4 4.1 3 13.8 6.4 2.2 0.8 5.4 0.6 2.1 0.6 1.9 1.4 2.5 2.7-3.5 1.3-2.4-1.1-2.1-1.9-2.3-0.7-0.6 0.7-0.6 1.5-1.3 4.4-0.9 0.3-2.8-1.2-6.8-1.7-10-4.1-2.7-0.4-1.7 5.2 0.2 31.4z" data-id="BFA2877" data-name="Yagha" name="Yagha"/><path id="BFA2878" d="M877 471.4l-1.5-1.7-9-7.3-9.8-6.4-3.7-5.4 0.6-11-0.9-2.1 2-1.4 2.7-4.9 1.5-5.4 1.9-4.8 1.2-6.3 0-6.6 3.3-21.2 0.1-3.9-3.5-1.4-4.5-0.7-5.5-3-2.9-6.7 1.4-5.6 0.8-5.6-2.3-13 0-7 2.5-5.7 2.9-5.1 2.7-11.8 1-2.8 1-4.2-1.4-3.9-0.6-3.3 0.6-2.3 4.5-8.3 29.1 24.7 3.6 2 4.2 1.1 28.9 2.5 2.2-0.3 2.1-1.4 1.5-2.2 1.4-2.6 2.1-3.1 1.4-2.4 1-0.2 1.9 0.6 1.4-0.9 2.2-2.4 1.1-0.7 12.3 1.1 5 1.4 3.3 3.8 0.8 2.6 1.8 2 1.3 1.1 2.3 1.5 1.2 1.4 0.8 1.7 0.4 1.7 1 7.8 1.6 3.6 2.3 2.8 0.6 1-0.4 1.9 0.2 3.5-0.9 1.3-1.9 0.5-7.4 0.7-2.4-0.9-0.8 0.4-1.5 1.7-7.3 1.5-1.9 1.6-0.3 3.8 2.4 4.5 23.7 33.3 10 14.1 6.6 5.6-4.5 12.5-1.8 3.3-4.9 5.5-1.3 3.6 0 3.7-0.5 1.2-1.7 1.7-6.8 3.8-9.2 7.6-17.2 17.6-3.4 1.7-4.5-0.4-5.3-2.1-3.3-1.5-1.5-0.2-1.2 0.8-2.2-0.7-2.4 0.5-5 2-2.4 0.2-5.5-0.4-2 0.6-2.4 1.2-5.8 1.2-2.2 1.2-2.5 0.8-2.6-4.9-2.2 0.1 0.8-3.5-11.9-0.9-2.4-0.6-2.1-1.1-0.7 1.8-1.4 0.8z" data-id="BFA2878" data-name="Tapoa" name="Tapoa"/><path id="BFA5989" d="M345.8 646.3l0 6.9 0.7 2.6 2.8 4.3 0.8 2.3-0.1 3.3-1.2 5.8 0.6 3.2 3 4.9 0.3 1.2-0.8 1.3-4.3 4.9-2.2 4.3-0.4 2.7 0.8 2.7 1.1 1.1 1.4 0.1 1.1 0.5 0.6 1 0.6 2.4 1.3 1.1-1.6 1.4-1.1 1.8-0.6 2.1-0.2 2.1 0.2 2.1 0.7 1.3 4.5 4.1 4.6 5.8-4 3.8-3.1 6.5-2.3 2.1-3-0.2-2.9-2.3-12.6-16.8-6.3-12.3-2.2-5.9-1.6-3-2-2-2.3-0.6-4.4 1.3-2.3-0.1-2.2-1.9-1.2-3-1.6-6.1-2.5-3.1-2.9-0.7-2.9-0.1-2.2-1.3-0.5-2.5 0.3-3-0.1-2.5-0.6-7 3.3-5.3-0.4-6.4 3.8-3 6.7 0.3 6.3 0 3.7 4.2 5.2 4.1 5.2 0.8 2.6-1.9 1.1-6.4 2.3-4.2 3.7-1.1 4.1 1.1 5.2 1.2z" data-id="BFA5989" data-name="Noumbiel" name="Noumbiel"/><circle id="0" cx="507.5" cy="230.2"/><circle id="1" cx="375.9" cy="405.2"/><circle id="2" cx="296" cy="611.1"/></svg>