<svg xmlns="http://www.w3.org/2000/svg" width="1000" height="962" fill="#7c7c7c" stroke="#fff" stroke-linecap="round" stroke-linejoin="round" stroke-width="2" baseprofile="tiny" version="1.2" viewbox="0 0 1000 962"><path id="BHS5009" d="M331.6 300.9l3.5 2.2 5.5 1.2-1.6 2-15.2 7.1-3.5-0.1-4.7-2-0.8 1.3-1.7 2-2 1.2-2-0.7-2.2-1.3-2.8-0.3-2.7 0.1-1.8-0.2-2.4-2.7 1.6-3.1 3.5-2.7 3.3-1.4 2.1-0.4 4.9-1.8 2.2-0.2 6.3 0.2 6.2-1.1 2.2 0 2.1 0.7z" data-id="BHS5009" data-name="New Providence" name="New Providence"/><path id="BHS5010" d="M146.2 65.8l-1.4 0.9-3.1 1.6-2.6 1.8-1.5-2.6 3.1-4.1 3.3 0 2.2 2.4z" data-id="BHS5010" data-name="City of Freeport" name="City of Freeport"/><path id="BHS5011" d="M164.7 27.4l-0.4 0.8 0.2 0.5-1.1 0.4-1 0-1.1-1.2-0.2-1.3 0.6 0 1.2 1.2 0.7-1.6 0.6-0.3 0.4 0.5 0.1 1z m-18.5 38.4l-2.2-2.4-3.3 0-3.1 4.1 1.5 2.6-1.3 1.2-3.1 0.2-1.3 0.7-6-0.5-5.8-2.1-3.5-3.5-6.4-3.9-15.3-15.9-6.9-5.7-1.6-2.5 1.6 0 1.3 0.3 1.1 0.7 0.9 1.2 18.7 11.9 4.4 6 5.2-0.9 4.7 2.1 3.5 0 3.2-1.5 3-2.1 2-1 2.9-1.8 0.5-1.3 1.9-1.5 0.3-2 2.2-1.8 1.7-3.7 2.8-1.8-0.4-1.7-3.5-2.2-6.1-1.1 1.1-2.2 3.9-4.5 0.9-2 1.1-6.9 2.8 2 2.5 3.2 1.9 3.5 0.8 2.9 2.7 1.7 6.7 2.6 4.2 8.4 5 11-13.4 3.4-2.6 0.4-2.8 0.9-4.4 3.8-2.8 0.9-1.2 0.8z" data-id="BHS5011" data-name="West Grand Bahama" name="West Grand Bahama"/><path id="BHS5012" d="M255.6 55.5l0 0.7-0.7 1.1-0.5 1.8-0.9 1.4-1 0-0.6-1.1-2-2.4-0.7-1.4-0.3-1.4 0.8-0.7 4.4-0.8 0.7 0.8-1.4 1.7 0.8-0.2 1.2-1.3 1.6-1.3 0.4 0.5-1.3 1.6-0.5 1z m-82.2 0.1l-5-11-4.2-8.4 5.3 2.1 3.1-0.8 6.7 1.7 7.4 1.3 4.8 0.2 2-3 3-1.5 4.5 2.1 2.8 0.5 5.2-2.2 7 1 4.6-1.4 4.7-2.1 2.9-0.5 9.3-0.1 2.2-1 1.4-1.8 1-2.1 1.3-1.8 2.3-1 0.3 3.1-0.7 3.3-0.4 3.3 2.6 5.8 0.1 3.1-1.2 2.7-2.7 1.1-1.1-0.4-2.4-2.1-1.4-0.8-1.9-0.4-9.5 0.6-8.7 2-20 4-8.1 0-17.2 4.5z" data-id="BHS5012" data-name="East Grand Bahama" name="East Grand Bahama"/><path id="BHS5014" d="M331.3 36.8l-6.9 1.6-1.4 1.5-0.9 0.4-3-0.3-2.2-0.9-1.1-1.7 0.9-2.5-2.4-5.6-6.7-11.1-3.9-4.7-2.5-1.8-3.2-1.2-3.2-0.1-2.7 1.4-2.5 1-3.5-0.6-8.6-2.9-2.6-0.3-5.8 0-1.7-0.5-4.1-2.8-2.6-1.2-2.7-0.4-11.5 0.9-4.6 1.7-3.1 0.1 0.4-0.7 1.5-0.4 5.3-3.5 6.6-1.2 13.6 0.2 13.4 3.1 7.7 0.7 3.3-2.7 7.8 3.7 6.2 4.6 26.7 26.2z" data-id="BHS5014" data-name="North Abaco" name="North Abaco"/><path id="BHS5015" d="M335.5 94.4l0.5 0.5 0.9-0.3 0.3 0.5 0 1.3 0.5 0.8 0.2 1.1-0.5 3.7-0.4 0.5-0.7-0.6 0.7-3.4-1.1-2.6-0.6-0.4-0.7 0-1.7 1.2-0.4-0.6 0.9-0.7 2.1-1z m1-8.5l-0.2-0.7 3.5-3.2 1.1 0-0.3 1.1-1.5 1.4-2.6 1.4z m8-10.8l-0.7 0.6-0.2 2.6 0.4 1.9-0.9 0.7-1.1 0.1-1.3-0.7-0.6-1.8-0.7-1.2-0.9-0.8 0.3-0.7 0.6 0.1 1.5-1.4 1.2-0.3 1.4 0.2 1 0.7z m-28.6-24l1.4 0.8 0 2.4-1.3-0.5-0.2-0.8 0.2-0.9-0.1-1z m58.6 43.4l-29 11.4-0.4-2.1-2.5-2.5 4.6-6.8-0.2-1.6-1.2-2-0.3-11.4 2.2-0.1 1.6-0.9 1.2-1.5 1-2 0.2-0.8-0.2-3.1 0.4-1.2 0.9-0.6 1.8-1 1.5-2.5 0.6-2.9-1-2.4-5.2-1.4-3.4-1.6-13.5-2-2.6-1.6-1.6-2.8-1.8-4 0.7-1 0.2-1.3-0.4-1.4-1.7-2.2-0.7-1.8-0.6-0.7-0.7-0.3 6.9-1.6 3 2.1 3.4 1.1 4.9 0.3-1.3 1.8-1.9 0.6-4.8-0.2 2.1 4.5 3 3.5 3.8 2.4 8.9 1.7 4.1 2 7 5.1 5.3 2.9 1.7 1.5 1.3 2.2 1.1 2.9 0 2.7-1.9 1.1-0.5 1.2 0 7.2 0.5 2.7 1.3 1.7 2 1 2.3 0.7-1.9 3.8-0.2 1.2z" data-id="BHS5015" data-name="Central Abaco" name="Central Abaco"/><path id="BHS5016" d="M302.5 137.5l-0.9 1.9-0.5-0.1-0.5-0.8-1.5-1.4 0-0.4 1.2-0.8 0.6-1.1 0.7 0 0.9 2.7z m43-31.6l29-11.4 0.3 1.7 1.4 1.9 0.4 0.9 0.3 1.9-0.2 0.7-1.2 1.3-1.2 1-1.2 0.6-2.6 0.5 0.3-0.7 0.7-2.4-4.7 0.6-4.5 2.5-4 3.6-3.3 3.7-1.3 4.1-1.3 12.4 0.2 3-1.5 9.2 0.7 13.1-0.5 11.6-5.3 5.1-3.8-2-3.4-4.6-2.4-5.1-0.9-3.3-2.3-2.1-10.7-2.4-2.9-3.9 2.3-0.1 2.7-0.9 2.1-1.7 1.7-4 1.8-0.5 2.1-0.2 1.8-0.9 5.3-6.1 3.4-2.9 3.7-1.6-0.9-1.3-0.6-1.4-0.3-1.5-0.1-1.9-0.5-1.2-1.3-0.9-1.1-1.2-0.2-1.8 0.9-1.8 1.3-1.4 1.3-1.5 0.5-2.4 0-4.3z" data-id="BHS5016" data-name="South Abaco" name="South Abaco"/><path id="BHS5017" d="M300 103.6l-4.4 5 0.8-3.7-0.7-2.2-1-2.2-0.1-3.1 1.4 0.7 3.9 3.3 0.8 1-0.7 1.2z" data-id="BHS5017" data-name="Moore's Island" name="Moore's Island"/><path id="BHS5018" d="M256.4 245.5l-1.5 1.7-1.8 0.8-2.2 0-1.3-0.2-2.7 0 1-1 1.1-0.6 0.9 0 1.7 0.1 2.3-0.2 1.7-1 1.1-1.5 0.4 0.1-0.7 1.8z m3.1-47.4l0.2 1.5-1.8-0.2-1.8-2.2-2.4-4.3-2.9-3.3-1-2 0.9-1.3 1.9 0.3 1.4 1.7 5.5 9.8z" data-id="BHS5018" data-name="Berry Islands" name="Berry Islands"/><path id="BHS5019" d="M271 372.4l-13.5-2.3-15.8 1.7-12.7 3.3-6.1 3.4-4.1 7.8-5 7.4-2.7 2.1-1.8 2.1-2.2 1.7-3.8 0.7-3-0.8-18.2-10.4-8.7-8.1-2.8-3.4-1.8-3.6 1.9-0.5 3.1-1.4 2.7-1.7 1.3-1.4 0.4-2.2 1.1 0.2 1.3 1.1 1.2 0.3 1.6-1 1.1-1.2 0.3-1.4-1.1-1.9 1.9-2.7 2.4 0.1 1.9 2.1 0.9 3.3-0.2 2.8-0.5 2.4-1 2.2-1.3 2-3 2.2 0.3 1.6 0.7 1.4 1.1 0.6 3.9-2.5 2.1-0.7 1.2-1.2-0.3-3.6 2.8 1.4 0 2.9-0.7 3.3 0.4 2.9 2.4 1.4 1.4-2 0.3-3.5-0.7-3.1 1.4 0.6 1.5 0.9 1.3 0.4 0.8-0.8-0.1-2.3-1.1-1.6-1.4-1.3-1.3-1.4-0.2-0.9 0.4-2.5-0.2-1-0.9-1.2-2.3-2.1-0.8-1.1-0.6-2.3-0.4-2.5-0.9-1.5-2.1 0.8 1.5 1.3 0.6 2.5-0.1 6.1-1.4-1.7-0.9-2.6-1.2-2.4-2-1-0.3-1.2 0.5-2.8 1.3-4.8 2.2-2.4 3.2-2.6 2.2-3.2-0.6-4 1.4-0.9 3.8-0.8 0.8-1 0.4-2 2-3.9 0.5-2.2 1.3-0.2-0.5-1.2-1.2-1.7-0.6-1.4 0.3-1.3 0.8-2.2 1.1-2.2 1.3-0.9 1.2-2-0.4-4.6-1.3-7.2-1.6-5.1-3-6.7-2-6.1 1.7-3.6 2.5 0.2 5.3 1 2.2 0.9 1.7 1.7 1 1.8 1.2 1.4 2.5 0.6 2.2-0.9 2.1-1.8 2.3-1.1 2.5 1.1 1.8 1.4 2.1 1.1 1.9 1.4 1.6 2.2-2.2 2.5-0.3 2.9 1.1 2.6 2.4 1.9-1.8 6.4-0.6 3.9 0.9 1.8 2.6 0.4 2.2 1.3 1.9 2.4 8.9 22.1 6.4 9.7 2.5 2.7 2.4 1.1 1.8 1 5.4 5.5 1.3 2.3 0.2 2.8-0.2 4-0.6 3.7z" data-id="BHS5019" data-name="North Andros" name="North Andros"/><path id="BHS5020" d="M262.1 434.9l-0.8 0.8-2.6 0.7-1.2 0-1.4-0.8-1.5 0.8-1 1.5-1.4 4.4-1.5 1.9-1.9 1.3-7.4 3.8-2.6 0.3-0.9-1.2-0.8-2.1-0.3-2.2 0.4-1.5 1.4-0.2 1.8 0.5 1.6 0.1 0.7-1.5 1.4-0.6 8-5.5 0.7-0.3 2.4-1.4 1.5-0.5 6 0-0.6 1.7z m-20.3 0.6l0.9 2.1-2.1-0.5-3.7 0.5-2.2 0-1.5-0.7-1.7-1.3-0.6-1.4 1.8-1 3.7-0.7 3.8-1.8 3-0.8 1.6 2.1-2.2 0.1-0.9 1.4 0.1 2z m13.6-13.9l-2.7 1.3-2.4-1.3 0-2.2 2.1-0.9 4.3-0.5 1 0-0.6 1.2-1.7 2.4z m24.2-4.1l0 1.4-1.1 0.9-1.5-0.5-1.6-0.9-1.2-0.6-2.6 0.2-1.5 0.6-2.9 3.1-2.8 1.9-1.9-0.4-0.7-1.6 0.9-1.6 3.2-1.6 2.7-1.9 2.7-1.3 3-0.7 2.3 0.2 1 0.5 1.2 1 0.8 1.3z m-65.8-23.8l5-7.4 4.1-7.8 6.1-3.4 12.7-3.3 15.8-1.7 13.5 2.3-0.9 2.1-0.8 3.1 1.1 3.9 3.2 6.8 0.7 5.7-1.3 4.1-3.4 2.5-5.5 0.9-2.2 0.7-1.5 1.6-1.3 1.8-1.5 1.3-4.4 0.6-1.2 1.4 1.7 3.5-1.7 1.8-5.3 3.6-2.7 0.8-5 0.1-1.8 0.8-5.7 4.2-0.7 1.3 0.2 1.4 0.5 1.3 0.1 1.2-0.8 1.1-1.5 0.3-1.3-0.5-1.3-0.9-0.9-1.1-1.7-4.4-0.9-5.5-1.5-4.6-3.4-2-4.5-2-1-4.7 1-10.9z" data-id="BHS5020" data-name="Central Andros" name="Central Andros"/><path id="BHS5021" d="M270.6 468.2l-5.4 4.4-6 4.5-2.1-0.8-0.1-1.8 0.6-2.1 0-2-1.6-1.8-2.1-1.2-1.1-1.1 0.9-1.3 0-1.1-2.8-1.8-9.1-3.7 0.9-1.2 1-1.1 2.1 1.4 0.8-0.4 0.2-3.4-0.5-0.8 0-0.7 1.3-1.4 1.5-0.8 3.9-1.3 1.6-1.3 0.6-1.3 1-4 0.5-1.2 5-0.4 1.9-0.7 1.5-1.3 0.5-1 0.3-1.2 0.9-2 2.1-1.8 6.1-2.5 1.6-2.2 4.1-2.3 1.3 2.1 1.1 2.6 1.2 2.1 1.8 0.9 1 0.9-1.4 1.9-9 7.5-3.6 2-4.4 0.8 0 1.1 2.5 0.2 1.1 1.2-0.6 1.4-2.6 0.6-0.6 0.6 1.6 1.5 3.5 2.3 2.3-1.1 0.8 1.8-0.3 2.9-2.4 4.5-0.5 2.1-0.8 1.7-2.1 1.1z" data-id="BHS5021" data-name="Mangrove Cay" name="Mangrove Cay"/><path id="BHS5022" d="M274 525.7l-0.8 0.3-1.3-0.9 1.1-0.4-0.5-0.5 0.1-0.9 1.9-0.3 0.9 0.8-0.5 0.9-0.9 1z m-13.8-13.8l-0.8 1-0.7-0.1-1.3-0.8 0.6-1 2.2 0.9z m94.6-44.5l-0.8 1.7-0.9-0.3-1-1.1 0.4-0.8 1.6-0.3 0.7 0.8z m-95.6 9.7l6-4.5 5.4-4.4 2.8 0.8 2.3-2.1 4.5-9.2 3-3.5 1.5-2.3 0.5-3.2 0.2-4 0.5-3.8 1.8-2.3 2.8 0.4 2.2 3.2 1.8 4 1.6 2.9 1.9 2.3 1 2.4 0.5 2.8 0.3 5.3 0.7 3.4 0.2 1.4-0.2 1.8-0.7 3-0.2 1.7 0.5 0.9 2 3 0.5 1.5-0.5 1.9-1 1.3-1.5 1.2-1.5 0.7-3.2 0.1-2.8 1.2-0.6 4 5.1-3.6 3.1-1.4 2.9 0.6 1.2 2.2-0.9 6.1 0.8 2.7-2.5 5.6-2 1-3.6-1.1 0.5 2 2.6 2.2 0.9 2.3-0.2 2.2-0.9 2.3-1 2-0.9 1.1-4.6 1.6-3.4-1.5-3.2-2.3-3.7-1 2.5 3-0.1 1.4-1.3 2.1-1.1 0-2.4-3.4-4.4-1.1-9.2 0.3 4.9-2.3-0.7-2.8 3.1 0.1 7.7 2.7 0.9-2.9 1.5-2 2-1.5 7.8-3.8 2.2-1.7 0-1.8-2.6-1-2.6 1.5-2.4 2.2-2.4 1.1-8.5 5.5 1 1-3.5-0.4-3.5-5-2.9-1.1 9.5-3.5 4.9-2.9 0.7-3.4-2.1 2.2-2.9 1-7.7 0.1-2.1 0.4-1.8 0.7-1.6 0.5-1.9-0.4-1.2-1.3-0.9-1.9-2.1-10.8-0.2-4 0.9-1.7z" data-id="BHS5022" data-name="South Andros" name="South Andros"/><path id="BHS5023" d="M478.3 477.1l-0.9 0.9-2.2-2.2-2.7-5.7-2.3-3.6-1.8-4.8-1.5-2.6-0.6-1.6 0-2.3 3.6 2.5 8.4 19.4z m-22.2-39.6l1.2 2.3-2.7 0-1.7-0.9-6.1-7.9-1.4-2.3 0-2 2.2 1.3 1.4 2 1 2.2 1.4 2.1 1.7 1.4 1.6 0.8 1.4 1z m-43.9-46.6l-0.9 0.8-1.5-0.7-0.9-2.1 0.4-2.8 1.2-0.6 1.5 2.3 0.2 1.1 0 2z" data-id="BHS5023" data-name="Black Point" name="Black Point"/><path id="BHS5024" d="M591.9 565l2.3 3.6-5.2-1.7-6.2-1.2-5.1-1.9-2.4-3.8 4.9 0.3 6.3 1.8 5.4 2.9z m-63.7-39.7l1.2 2 1.7 1.6 1.7 1 2.3 0.4 3.1 0.2-1.1 1.6-0.9 0.5 9.6 10.2 6.9 4.1 1.5 0.5 2.3 4.9 5.5 4 12.2 4.8-2.1 2.2-3.3-0.9-6.5-3.6-7.4-0.6-2.8-1.4 1.2-3.3-2.7-1.9-2.7-2.6-2.6-1.4-2 1.4-5.1-5.4-5.4-4.1-6.2-2-7.2 0.7 0-1.1 4.3-1.3 0.7-0.4-0.3-1.4-1-1.5 0.2-0.9-1.6-1-1.2-1.8-0.3-2.1 1.2-1.7 1.8 0.4 1.2-0.5 1-0.7 0.9-0.3 1.1 0.6 0.8 0.8z" data-id="BHS5024" data-name="Exuma" name="Exuma"/><path id="BHS5025" d="M399.3 231.8l-1.6 0.2-0.1-1.2 2.3-1.5 1.8-0.4 2.3-0.9 1.6-0.1 1.3 0.5-0.3 0.9-2.6 1.1-2.8 0-1.9 1.4z" data-id="BHS5025" data-name="Spanish Wells" name="Spanish Wells"/><path id="BHS5026" d="M416.1 225.8l-0.6 0.9-5.4-0.4 0.9-1 1.6-0.5 1.7 0.4 1.8 0.6z" data-id="BHS5026" data-name="Harbour Island" name="Harbour Island"/><path id="BHS5027" d="M479.1 265.4l-2.8 2.4-1.9-3-3.7-3-5.6-2.1-11.6-2.6-6-3.1-8.8-8.4-5.8-1.7-3.2-0.4-6-1.5-2.8-0.3-3.1 0.8-5.1 2.9-2.2-0.4 3.6-3.8 2.1-6.4 2.2-12 4.1 0 2.2 0.3 1.7 0.8-1.6 2.5-0.7 2.5 0 2.8 0.3 3.4 2.3-3.1 1.6 1.5 1.4 3.2 1.3 1.7 2.8 0.8 18.5 14.3 5.3 3.1 6.8 1.6 6.7 0.3 2.5 0.7 2.3 1.8 3.2 4.4z" data-id="BHS5027" data-name="North Eleuthera" name="North Eleuthera"/><path id="BHS5028" d="M502.3 316.7l-2.3-1.2 1.6-1.5 0.7-1.2 1.1-9.2 0-3.4-2.6-7.4-4.6-3.9-5.2-2.7-4.6-3.7-10.1-14.7 2.8-2.4 4.3 6.1 8.8 8.7 9.1 6.8 4.4 2.9 1.9 2.2 0.8 3.1-1.3 13.7-0.6 2.5-0.1 1.4-0.6 1.7-1.4 1-2.1 1.2z" data-id="BHS5028" data-name="Central Eleuthera" name="Central Eleuthera"/><path id="BHS5029" d="M502.3 316.7l-0.5 3.1 0.6 2.8 1.9 4.2 0.6 2.6-0.6 7.7-0.8 3.2-3.4 5.6-0.8 2.2-0.4 11.3 0.6 6.1 1.8 5.2-4.8-2.1-2.6-5.1-1.5-5.9-2-4.5-2.5-1.8-6.3-2.6-2.7-1.7-3.1-3.6 0.4-1.4 2.3-0.2 14.3 2.4 1-0.4 1.3-2.3 0.7-1.1 2.4-2.4 0.7-1.4 0.4-2.3-0.1-3.6-1.2 0.8-1.7 2.6-1.5 1.4-0.9-1.8 0.2-4.1 1.2-7.3 0.9-2.7 1.2-1.7 2.6-2.4 2.3 1.2z" data-id="BHS5029" data-name="South Eleuthera" name="South Eleuthera"/><path id="BHS5030" d="M624.7 439.2l1.1 2.4 2.4 9.2-6.6-2.2-3-0.3-3.4 0.3-6.6 1.4-2.3 1.2-2.6 2.3-3.6 0.3-3.9-2.6-1.6-3.3 3.1-1.6 2.2-0.5 3.1-1.5 2.9-2.1 1.4-2.4 2.8 0.1 1.3-4.4-0.6-5.2-3-2.5-4.3-1-3-2.3-7.8-12.8-1.1-4.5-2.8-4.2-0.7-2.1-0.8-5.1-2.5-3.9-3.8-2.2-4.8-0.4 0.6-1.7 0.1-1.9-0.2-2-0.5-1.9-0.8-2-0.7-0.7-1-0.5-6.5-5.7-4.7-2.4-1.2-0.9-1-1.3-0.2-1.3 0.7-1.3 3-3.6 1.3-0.5 2.1 0.3 1 0.7 3.9 3.7 3.8 1.5 1.8 1 1.6 1.9 1.1 10.2 0.9 3 1.4 1.7 2.3 2.2 2.2 2.5 1.7 5 4.1 7.5 8.2 11.9 2.6 2.1 5.7 3.1 2.7 2.3 3.6 7.6 0.9 1.2 1.6 1.1 6.4 7.1z" data-id="BHS5030" data-name="Cat Island" name="Cat Island"/><path id="BHS5031" d="M752.9 466.7l-5.9 10.4-0.5-1.9 0.3-1.6 1.2-3.2-1.2 1.9-2.1 6.5-0.2 1.4-9.6 1.1 0-1.1 2.5-3.1 1.7-5 0.6-5.5-0.7-4.9 0.1-3.8 1.6-2.4 2.5-1.4 2.9-1.1 1.6-1.6 0.8-0.5 1 0.4 2.2 4 0.3 0.4 0.3 1.6 1.4 2.3 0.3 1-0.1 1.5-0.8 3.1-0.2 1.5z" data-id="BHS5031" data-name="San Salvador" name="San Salvador"/><path id="BHS5032" d="M701.5 524.2l-0.9 2.1-1.5 1.1-3-0.1 0 1 0.9 1.2-2.7 0-3.5-1.1-1.7-2.3-2.7 1.2-4.8 0.1-2.6 0.9-0.5-3.7 1-2 2.3-1.1 3.3-0.8 7.3-2.2 5.5 0.1 1.8 0.8 3.3 2.4-1.5 2.4z m-47.1-21.4l-1 0.6-0.9-2.6 0.9-2.3 1.3-0.2 0.4 0.7 0 1.8-0.7 2z" data-id="BHS5032" data-name="Rum Cay" name="Rum Cay"/><path id="BHS5033" d="M625.1 526.1l8.6 14.2 2 1.3 2.6 3 2.4 3.6 1.4 3.1 1.8 10.7 1.8 2.8 2.5 2.8 8.6 16.9-0.2 1.6 1.2 1.5 0.3 3.4 0.1 7 1.1 7.6 2.5 4.8 4.1 2.9 12.5 4.7 5.3 4.2 9.5 10.6-0.7 0.8-0.8 1.6-0.6 0.8 1.7 1.6 1.3 4.1 0.7 4.8 0.2 6.2-0.3 1.6-0.8 0.7-1.8-0.6-0.9-1.1-1-5.3-2 1-1-4.1-4.1-7.4-1.5-6.5-1.4-2.2-4.9-6.1-1.6-1.4-1.8-0.9-16.6-3.3-3.7-2.3-1.8-1.5-10.4-6.7-2.3-0.9 0.4-1.6 0.7-1.4 0.9-1.3 1.1-1.2 0.9 0 1.5 2.3 4.1 2 1.5 2.2-3.8-0.6-1.2-0.4 1 1.8 1.5 1.6 1.8 0.9 1.7-0.1 1.8 1.2 2.8 2.4 1.3 0.7 1.6 0.4 2.4 0.2 1.5-0.4-1-1.7-8.3-9.3-1.1-2.7 0.5-4.3 1.3-3.1 1.3-2.5 0.8-2.5-0.1-3.8-1-4.3-1.6-3.8-2.2-2.3-0.5 0.7-1.6 1.4 0.3-3.7-5.5-4.7 0.2-3.5-1.9-0.5-1.8-0.7-0.9-1.2 0.7-1.9-3-2.4-1.1-2.5-0.9-7.2-3-7.6-1.4-0.7-1 0.3-1 0.8-1.7 0.6 1-7.6-0.8-2.3-3.1 2.4 1.4-2.1 0.6-0.7 0.9-0.5-1.8-0.6-1.2 1.1-1.2 1.7-1.7 1.1 0-1.2 1.4-1.6 1.2-1.8 0.6-2.3-0.2-3 1.7 0.7 1.2 1.5z" data-id="BHS5033" data-name="Long Island" name="Long Island"/><path id="BHS5034" d="M565.3 758.8l0.6 1 0.5 2.1-1.1 1.2-1.8 0-1.2-1.3-0.8-2.1-0.2-1.2 0.7-0.2 0.8 0.3 0.8-0.4-0.8-2.6 0.5-0.3 0.7 1 1.3 2.5z m-3.5-5.3l-0.5 0.2-0.6-0.4 0.3-4.1 0.6 0.3 0.4 2.6-0.2 1.4z m-2-12l-0.1 1.4-0.9-0.6 0.3-1.1 0.7 0.3z m-6.2-6.5l-0.4 0.9-1.2-1.3-1-2.4-0.5-2.3 0.6-0.4 0.9 1.7 0.3 0.9 0.5 1 0.8 1.9z m-4.8-17l-1 0.1-0.6-1.1 0-1.2 0.4-0.7 0.7 0.5 0.5 1.3 0 1.1z" data-id="BHS5034" data-name="Ragged Island" name="Ragged Island"/><path id="BHS5035" d="M764.6 701.9l-4.5 3.5 1.3-6.8 4.2-4.5 5.2-4 4.1-5.3-0.7 4.4-4.2 6.5-5.4 6.2z m23.4-31.3l0.6 0.2 1.7-0.2 0.9 0.5 0.7 1.8 2.9 1 5.2 0.4 3.1 0.8-1.1-2.2 3.2 0.8 8.7 3.4-10.8 9.9-0.6-1.6-1.5-0.6 0.1-2.6-2.7 0.5-3.8 1.1-10.7-2.8-1.5-1.2-2.4-2.7-0.8 1.9-1.8 1.5-1.7 0.9-0.8-0.4 0.9-3.4-0.1-1.8-1.2-0.7-9.5-14.2 0.5-0.5 0.6-1.6 1.6-0.1 2.4-0.9 0.9-0.1 1.8 0.5 4.1 2.7 1.5 0.4 3.1 0.3 1.5 0.4 4 3.4 0.5 1.3 0.2 2.8 0.3 1.1z m55-54.2l10.9 1.1 8.2-0.9 2.8 0.9 0 1.2-13 2.6-6.1-0.1-2.8-4.8z" data-id="BHS5035" data-name="Crooked Island and Long Cay" name="Crooked Island and Long Cay"/><path id="BHS5036" d="M873.5 699.7l-2.6 0.5 1-4.3 1.8-1.3 1.8 1.2-2 3.9z m20.2-1.6l-0.9 0.2-8.9-2.7-3-0.5-0.3-0.8 5.1-0.7 3.3 0.8 3.3 1.5 1.4 2.2z m-54.8-21l-3.5 6.1-1.6 1.6-0.1-1.6-0.5-1.3-0.9-0.9-1.4-0.4 0.5 2.1 1.2 2.1 1.6 1 1.7-1 1 2.3 1.3 11.8 0.8 2.4 1.9 4.1-2.5 0.6-1.1 2.6-0.5 3.5-0.9 2.9-1.4 1.9-2.1 2.1-2.2 1.8-1.8 0.7-1.7 1.4-4.8 9.5-7.6 6.3-1.4 0.7-1.5 0.1-8.9 3.6-3.6 0.8-2.3 2.1-3.6 5.8-1.2 1.3-3.8 3.4-1.5 0.7-3.3 0.5-2.6 1.4-4.7 4.6-0.2-1.5 0.2-5.5 0.7-1.6 1.5-0.4 5.7 0.5 1.3-0.6 4.4-3.9 0.1-1-1.6-1.2 0-1 2.9-1.8 1-0.4-1.5-0.6-0.4-0.5-0.1-1.1 2.9-1.1 4.3-2.7 3.3-0.5 0.8-0.5 1.6-2.2 1.9-1.4-0.1-1.9-0.6-2.2 0.1-1.5 2.6-1 4-0.5 3.6-0.9 1.6-2.5 0.6-3.8 1.7-1.8 2.5-0.7 3.3-0.6 5.7-2.2 4-3.7 1.4-5.1-2.2-6.3-4-3-10.4-0.2-4.6-2.3-2.2-2.1 0.3-0.6 1.7-2.9 1-0.9 1.1-0.6 1.1-0.4-0.9-1-2.1-3.3 4.8 1.4 1.2 0.7 0.5-1.8 1-1.3 1.4-0.7 1.2 0.5 1.2-0.9 0.6 0 0-1.2-1.6-0.7-1.3-1.6 7.5 0.1 3.6-0.6 3.9-1.5 0.4 1.6 0.6 0.4z" data-id="BHS5036" data-name="Acklins" name="Acklins"/><path id="BHS5037" d="M946.6 722.4l2.2 0.3 0-0.3 2-1.5 1-0.4 1 0.1 2.2 0.7 1.2 0.2 3.6 1.4 7.5 5.1 3.5 0.2-0.7-0.9-1.3-2.6 4.8 2.5 2.5 0.6 1.5-0.8 2.3 1.8 2.3 0.9 2.6 0.4 3.4 0.1 0.9 0.5 1.2 1 1.9 2.3 1.4 1 2.9 0 1.2 0.6 1.3 2.9-0.7 3.2-1.9 2.5-2.3 1.1-2.5-0.9-6.8-6.6-3-2.2-2.3-1.3-2.6-0.7-3.7-0.2-1.6 0.2-2.2 0.8-1.1 0.2-1.7-0.3-1.7-1.6-1.2-0.3-3.1 0.6-5.8 3.1-3.5 0.7-1.6-0.4-1.7-1.4-0.8-0.4-5.5-1.2-2.5-0.6-1.4-1.1 0.3-1.5 2.7-2-0.8-1.2-0.1-0.7 0.9-1.6 0.7-2-0.3-1.7 0.1-1.4 1.5-1.3 2.5 3.3 1.3 0.8z" data-id="BHS5037" data-name="Mayaguana" name="Mayaguana"/><path id="BHS5038" d="M957.1 922.8l-9.3 11.8-4.7 13.7-3.1 1.8-10.9 4.6-6.3-0.9-1.8 0.5-1.4 0.7-2.8 2.1-1 0 0-1.2 0.9-0.8-2.1-1.7-3.1-0.4-7.6 4.4-5.1-0.3-8.6 2-6.4-2.6-9.4-0.8-2 0.3-2.4 1.2-1.5 2.6-0.5 1.2-1-0.2-1.7-1.2-1.8-2.2-0.4-1.6-0.4-2.7-0.1-3.6-3.1-5.3 0.5-1.1 4.4-0.4 2.4-1.6 0.9-3.4 0.3-3-1.7-2.1-1.6-1.7 0-1.6 5 2.5 5.5-2.1 1.7-1.3 4.5-1.4 1.1-3.1 3.2-2.9 1.3-2.9 3.2 0.8 2.9-1.7 5.8-0.1 1.4-0.7 1.5-1.1 2.2-3.1 1.2-1.3 0.5 0.6 1 3.3 2.3 2.8 2.9 3.9 3.8 1.8 9.1 2.9 3.2-2 3.3-1.6 7.3-1.8 3.3-4.4 3-6.1 7.2-11.4 2.2-3 2.8-1.8 3.1 1.3 1.1 2.8-0.1 3.6-2.9 16.7-1.2 4.3z m-1.5-42.1l-1.3 0.2-0.3-1.7 0.4-1.9-1-3-1.9-3-0.6-3.2 1.5-1.2 3.4-1.1 2.7-1.7 2.6-3.1 2.1-1.6 1.4 0.9 1.8 2.3 1.5 1.3 2.9 1.6 2.9 1.3 1.4 1.6-0.7 3.1-2.7 1.8-5.4 0.6-2.6 2.4-1.6 0.4-5 2.5-1.5 1.5z" data-id="BHS5038" data-name="Inagua" name="Inagua"/><path id="BHS5039" d="M7 548.2l-0.2 0.1-5.8-6.6 0.8 0.5 3.7 3.9 1.5 2.1z m44.8-357.8l0.4 3.4-0.7 0.7-1 0.4-1.8 0.6-0.2-1.5 1-2.4-0.6-0.8-1.9 1.9-1.9 2.6-0.3 2.1 1.5 1.3 2.2 0.9 1.5 1.3-0.5 0.9-4-0.6-1.7-0.1-0.5-0.7 0.4-2.3 1.1-3.2 2-3.4 2.8-2.4 1.6-0.4 0.6 1.7z" data-id="BHS5039" data-name="Bimini" name="Bimini"/><path id="BHS5040" d="M384.8 65.3l-3.2 5.6-0.4-0.9 0.7-1.4 0.5-0.4 0.3-1.7 1.7-4.3 0.5 1.3-0.1 1.8z" data-id="BHS5040" data-name="Hope Town" name="Hope Town"/><circle id="0" cx="315.1" cy="19.7"/><circle id="1" cx="614.4" cy="436"/><circle id="2" cx="301.3" cy="469.6"/></svg>