<svg xmlns="http://www.w3.org/2000/svg" width="1000" height="2211" fill="#7c7c7c" stroke="#fff" stroke-linecap="round" stroke-linejoin="round" stroke-width="2" baseprofile="tiny" version="1.2" viewbox="0 0 1000 2211"><path id="LIE4892" d="M923.4 1945.9l-32.6-49.8-19.8-87.5 3.9-87.5-47.6-128.3 160.5 6 11.2 41.3-49.4 272.5-26.2 33.3z m-266.8-114l-51.5-5.8-27.8-75.8-63.5-11.7-75.4-58.3-19.9-128.3-7.9-105-43.7-58.4 4-128.4 27.8-29.2 75.4 0 23.8-64.2 19.8-93.4 51.6 75.9 55.6 58.4-15.9 110.9 63.5 46.7 27.8 99.2 15.9 157.5-55.6 11.6 4 99.2-8 99.1z" data-id="LIE4892" data-name="Triesenberg" name="Triesenberg"/><path id="LIE4893" d="M605.1 1826.1l-43.7 64.1 43.7 75.8 71.4 0 7.9-75.8-27.8-58.3 107.2 17.5 11.9 122.5 27.3 127.3-50.4 64-146.8 46.8-196.2-32.8-7-71.3-19.8-87.4-47.6-81.6-4-87.5-71.4-17.5-66.3-65.3 67.9-139.8-3.7-223.9 109.2-14.3 43.7 58.4 7.9 105 19.9 128.3 75.4 58.3 63.5 11.7 27.8 75.8z" data-id="LIE4893" data-name="Triesen" name="Triesen"/><path id="LIE4894" d="M605.1 1826.1l51.5 5.8 27.8 58.3-7.9 75.8-71.4 0-43.7-75.8 43.7-64.1z m-195.5 351.1l-239.7-40-160.8-47.7-8.1-97.8 83.4-112.4 109.1-112.7 66.3 65.3 71.4 17.5 4 87.5 47.6 81.6 19.8 87.4 7 71.3z m545-701.3l-75.7 11.9-63.5-105-123-134.3-67.5-40.8 27.2-135 105 62.2 169.6 237.6 27.9 103.4z" data-id="LIE4894" data-name="Balzers" name="Balzers"/><path id="LIE4895" d="M871 1808.6l-107.2 40.8-107.2-17.5 8-99.1-4-99.2 55.6-11.6 111.1-29.2 47.6 128.3-3.9 87.5z m-353.3-735.2l-19.8 93.4-23.8 64.2-75.4 0-27.8 29.2-4 128.4-109.2 14.3-59.8-168.1-56.7-110.9 90.8 31.2-19.9-169.3 51.6 17.5 35.8 64.3 55.5-40.9 162.7 46.7z" data-id="LIE4895" data-name="Vaduz" name="Vaduz"/><path id="LIE4896" d="M923.4 1945.9l-120.4 153.3-27.3-127.3-11.9-122.5 107.2-40.8 19.8 87.5 32.6 49.8z m31.2-470l33.2 122.9-160.5-6-111.1 29.2-15.9-157.5-27.8-99.2-63.5-46.7 15.9-110.9 67.5 40.8 123 134.3 63.5 105 75.7-11.9z m-559.9-758.8l-7.9 93.5 79.3 87.6 77.8 19.7 0.7 91.2-26.9 64.3-162.7-46.7-55.5 40.9-35.8-64.3-51.6-17.5 19.9 169.3-90.8-31.2-20.7-40.5-54.6-173.7 10.4-216 96.1 52.6 123.1 5.9 99.2-35.1z" data-id="LIE4896" data-name="Schaan" name="Schaan"/><path id="LIE4897" d="M263.7 401.5l-31.7 105.2 7.9 105.2 67.5 52.6 87.3 52.6-99.2 35.1-123.1-5.9-96.1-52.6 6.6-137.7 69.1-198.8 111.7 44.3z" data-id="LIE4897" data-name="Gamprin" name="Gamprin"/><path id="LIE4898" d="M417 123.3l-58 137.9-47.6 70.2 3.9 64.3-51.6 5.8-111.7-44.3 54.1-155.6 118-200.6 64.9 96.2 28 26.1z" data-id="LIE4898" data-name="Ruggell" name="Ruggell"/><path id="LIE4899" d="M480.9 295.3l-94.1 30.2-71.5 70.2-3.9-64.3 47.6-70.2 58-137.9 92.2 85.6-28.3 86.4z" data-id="LIE4899" data-name="Schellenberg" name="Schellenberg"/><path id="LIE4900" d="M560.9 539.2l-86.8 8.5-123.1-64.3-35.7-87.7 71.5-70.2 94.1-30.2-19.6 60 31.7 92.4 67.9 91.5z" data-id="LIE4900" data-name="Mauren" name="Mauren"/><path id="LIE4901" d="M652.1 1072.7l-27.2 135-55.6-58.4-51.6-75.9 26.9-64.3 107.5 63.6z m-37.4-312.8l-70.8 158-77.8-19.7-79.3-87.6 7.9-93.5 63.5-52.6 83.4 23.4 73.1 72z" data-id="LIE4901" data-name="Planken" name="Planken"/><path id="LIE4902" d="M560.9 539.2l61.2 145.8-7.4 74.9-73.1-72-83.4-23.4-63.5 52.6-87.3-52.6-67.5-52.6-7.9-105.2 31.7-105.2 51.6-5.8 35.7 87.7 123.1 64.3 86.8-8.5z" data-id="LIE4902" data-name="Eschen" name="Eschen"/><circle id="0" cx="344.4" cy="1605.6"/><circle id="1" cx="490.2" cy="1520.3"/><circle id="2" cx="613.2" cy="541.5"/></svg>