<svg xmlns="http://www.w3.org/2000/svg" width="1000" height="609" fill="#7c7c7c" stroke="#fff" stroke-linecap="round" stroke-linejoin="round" stroke-width="2" baseprofile="tiny" version="1.2" viewbox="0 0 1000 609"><path id="LVA1063" d="M898.5 207.3l-5.7 7.7-2.8 8.1-3.1 13.3 7.2 11.6 8.2 8.6 3.7 0.6 1.6 9.8 5-1.2 5.7 1.2 0.9 5.2 3.8 7.5-7.3 1.1-12.8 7.5 2.5 5.2-6 5.2-6.9-0.6-3.7 3.4 2.5 4.6 1.6 7.9-2.6 0.4-2.1 1.5-3 3.3 0.6 1-1.6 1.7-0.9 0.2-1.1-1-1.9 0.7-1 1.7 0.1 2-0.5 1.4 0.4 4.3-1.1 0.4-13.3-1.6-7.9-1.2-3.5-4.4-3.8 0.8-1.6-0.6-3.5 0.4-3.9 0.9-1.3 1.3-3.5-0.3-2.1-1.3-4.6 0.2-2.4-0.9-5.2-5.4 3.4-4 3.8-4.7 0.6-3.2 7-1.5 6.6 2.3 11.3 3.5 4.7 0 3.4-8.6 5.7-5.2 3.4-2.9 5.7-2.3-2.6-10.9-3.7 1.7-3.5 0-0.9-5.2 4.7-1.7 3.4-6.3 1.6-9.3-2.8-1.1-4.7 0.6-10-3.5-7-2.9-4 1.2-2.9-1.8 0-5.7-6.5 0.5-5.8-0.6 7.9-10.5 3.6-3.7 5.3-7.5 3.7-6.8 3.8-0.4 2.3-1.7 2.7 0.1 2.8-3.1 1-0.6 3.8 0.6 6.9-7.9 4-1.8 7 5.5 7.5-2.8 3.7 0z" data-id="LVA1063" data-name="Balvu" name="Balvu"/><path id="LVA1064" d="M936.1 532.4l-2.2 3.9-13.7 9-3.8 10.9-1 11.7-1.2 5.2-1.2 3.8-3.9 0.5-17.3-1.6-4.5-1.4-4.3-2.6-3.5-4-2.8 3.4-6.4 6.3-2.7 1.1-3.8-2.1-8.5-7.3-3-1.7-5.6-0.9-17.9 2.3-0.2 0.1 0.3-4.5-0.5-4.8-6.1-2.4 0.1-4.6 0.4-2.7 1.2-1.8 1.1-4-2.6-1.2 1.3-2.3 1.5-2.1-1.7-4.1-1.5-9 4.9-1.1 4.4 4.4 5.7 1.9 8.5-1.3 6.1 0.7 6.4-6.4-0.7-10.8 10.3-4.5 7.2-1.9 7.5 0 0.7 5.7-1.1 8.3 2.5 0.7 3.9-3.9 6.4 0 15.4 9.6 6.4 1.9 3.5 0.6-0.3-7 1.8-1.2 3.5 3.1 6.1 3.2 4.9 4.9z" data-id="LVA1064" data-name="Kraslavas" name="Kraslavas"/><path id="LVA1065" d="M981.9 402l0.5 2.4 1.1 2.2 7.1 9.2 1.1 2.1 0.5 2.7-6.8 1.2-6.8 0-6.4-3.9-6.1 1.3 1.8 7.1 2.8 5.1-2.8 2-5-0.7-5.7 5.8-5 5.8-5 2.6 3.2 9 7.2 0 2.1-5.8 10-5.8 5.3 4.5 7.2 3.9 3.5 5.7-4.3 9-2.6 7.5-0.8 1.3-1.2-1-1.1-1.8-2.3 0-1.4 1.2-2.7 1.6-12.2 4.8-2 0.1-1.5-0.8-4.8 1.1-2-0.1-2.2-0.8-1.5-2.6-4.5 0.1-4.8-1-2.9-1.7-2.9-3.2-2-1.3-2.7-3.8 3.5-2.4 1-1.3-0.8-1.4-1-0.5 0-3.3 3.9-5.5-0.6-3.2-1.7-2.7-1.2-2.6-0.3-3.7 0.3-3.3-2.7-2.8-4.1-1.7-2.5-3.4 0.2-2.1-0.5-1.5 0.2-3.4-3.5 0.4-0.7-0.7-0.2-1.6-2.5-3.6-1.6-3.6-0.1-1.8-1.3-3.5-5.7 4.6-1.7-4.5-0.1-2.5-1.1-2.9-0.1-3.8 1-1.5 1.8-1.8 2.5-0.3 3.6-1.4 2.1-1.7 1.1-3.8-1.8-4.7 5.7 0.2 7.5 1.9 4.7 0 4.6 8.4 4.3 3.2 2.8-5.1 5-2.6 7.1 5.8 2.9 7.8 4.6 3.8 3.6-5.1 6-5.2 9 1.3 5.4 4.1z" data-id="LVA1065" data-name="Ludzas" name="Ludzas"/><path id="LVA1066" d="M878.2 331.6l8.8-0.5 7.1 3.3 2.2 7.8 2.1 11.8-0.9 3.2-1.3 1.7 0.2 2.7 0.6 1.2 1.6 1.3 1.9-0.6 3.2 1 2.3 1.7 1.4 2 3.9 4.4-2.6 4.9 0 6 1.8 4.7-1.1 3.8-2.1 1.7-3.6 1.4-2.5 0.3-1.8 1.8-1 1.5 0.1 3.8 1.1 2.9 0.1 2.5 1.7 4.5 5.7-4.6 1.3 3.5 0.1 1.8 1.6 3.6 2.5 3.6 0.2 1.6 0.7 0.7 3.5-0.4-0.2 3.4 0.5 1.5-0.2 2.1 2.5 3.4 4.1 1.7 2.7 2.8-0.3 3.3 0.3 3.7 1.2 2.6 1.7 2.7 0.6 3.2-3.9 5.5 0 3.3 1 0.5 0.8 1.4-1 1.3-3.5 2.4-2.2-2.4-11.5 1.9-2.2-0.8-2.3-3.9-1 1-0.6 2.2-2 1.8-2.8 1.5-3 0.4-2.7 0.9-0.9 1.5 1 3.5-3.8-0.2-1.2 0.8-10-0.8-6 1.8-16.9-1.3-1.4-0.6-1.6 0.6-3.5 3.1-3.2 1.7-0.7 1.7 0.6 2.8-3.3 0-3.2-0.6-1.4-0.7-0.9-1-0.4-1.6 0.1-2.9-0.2-2.4-0.7-1.9-1.8-2.1-2-1.6-0.6-2-1.2-2.3-0.3-3.8-3.6-5.2-1.5-3.4-0.7-3.7 0.9-1.7 3.5-0.1 2.1-2.8-3.4-6.9-2-3.4-7.5-9.6 0.3-1.8 1.4-1.6 0.7-2.1 1.4-3.5 9.2-0.8 5.7 0.6 1.1-4.5-4.6-14.2-0.4-9.7-3.2-7.8-9.3-1.9-4.3-9.1-4.2-5.2-6.1-1.9-4.9-3.8 1.4-6.7 17.2-27.7 2.9-3.3 5.2 5.4 2.4 0.9 4.6-0.2 2.1 1.3 3.5 0.3 1.3-1.3 3.9-0.9 3.5-0.4 1.6 0.6 3.8-0.8 3.5 4.4 7.9 1.2 13.3 1.6z m2.2 72.1l1.3-11-0.2-4.1-3.3-1.4-4.1 1.9-4.9 9.4 1.4 6.5 7.5 3.7 2.3-5z" data-id="LVA1066" data-name="Rezeknes" name="Rezeknes"/><path id="LVA1068" d="M210.6 314.3l-6.7 20.2 2.5 8.6 3.8 3.5 1.2 9.7 0.7 11.5 4.7 4.6 1.9 10.3 3.4 2.8 4.1-8 7-1.1 5.3 4 2.5 5.7-1.4 18 5.5 4.4 0.9 5-1.6 2.9-1.4 4.8 5.7 0.7 2.5 0.9 5 3.9 5.2 1.4-5.1 3.5-19.5 8.1-2.1 0.3-2.3-1-6.1-6.5-4-2.1-8.8-2.1-40.9 1.4-2.7-1.1-5.1-3.8-2.6-1.4-6.2-0.4-15.3 7.2-5.2-7 2.2-2.4 3.6-1.6 1.1-1.7-0.8-1.6-4.8-6.2 0.4-2.5-0.5-1.7 0.3-1.5 1.4-3.2 4.3 0.1 1.6-0.5 2 0.2 1.9 0.8 2.5-1.2 0.2-3.6-1.1-1.4-4.3-3.4-0.9-1.2 0-1.9 6.7-2.4 5.5-1 2.9-1.9 0.7-1.5-1.1-2.6-0.4-2.8-0.9-2.5 0.4-3-0.1-5.2-1-6.6 1.2-2.5 1.8-1.8 4.2-2.6 1.5-2 1-1.9 0.9-3.2 1.1-1.8 0.1-1.5-2.1-6-1.6-7.4 5.8 0 3.5-3.5 2.9-3.5 2.5-1.7 5-2.2 1.5-1.3 3.4-1 0.1-4.2-1.7-2.6-1.3-1.5-2.3-1-2.2 0.4-2.5-1.3-0.7-1.5 0.4-1.1 2.8-1.9 0.4-1 1.9-2.5 3.3 0.7 1 1 0.4 2.3 1.4 1.9 6 2.7 3.5-0.9 2-2.3 1.5-1.3 1.6-3.4 5.2-0.8 2.7 0.7 2 1.1 0.4 1.1-1.2 2.1 0.1 4-0.3 1.9-0.6 1.3-2 2.2-1.3 2.9z" data-id="LVA1068" data-name="Saldus" name="Saldus"/><path id="LVA1076" d="M927 186.3l-0.8 6.1-2.2 3.1-1.4 0.5-1.4 1.2-7.2 4.1-1.7 3.8-2.2 1.5-2.2 4.6-4-0.3-1 0.1-2.4-1.3-2-2.4-3.7 0-7.5 2.8-7-5.5-4 1.8-6.9 7.9-3.8-0.6-1 0.6-2.8 3.1-2.7-0.1-2.3 1.7-3.8 0.4-13.9-5.6-1.4-0.5 0.4-1.5 2.5-3.1-0.9-1.1-5.4-3.5-4.5-4.5-11.4 0.1-5.6 1.1-2.1-4-1.9 0-6.3-0.8-4-0.8-1.8 0.7-4.6 3.1-4.4-3.4-0.7-3.7-6.1-4-2.1-3.2-3.3-7.3 2.8-7.2 4.1 0.6 6 0 2.2-1.8 2.5-16.9 5-3.5 6.9 0 0-4.1-0.3-8.7-1.4-4.5 2.8-2.6 1.7-3.5 1.4-3.8 2.1-3.3 2.6-1.2 1.7 1.3 1.5 1.9 2.1 0.4 2.5-0.6 2.3 0.1 4.8 1.6 3.2 2.6 5.1 7.8 2.8 3.3 3.3 1.6 11 0.7 21.3 7.8 4.5-2.9 24.1-0.2-0.7 9.3 0.4 6.1-1.5 5.2-0.5 4.5 3.4 3.8 14.4 6.8 7.4 8.3z" data-id="LVA1076" data-name="Aluksne" name="Aluksne"/><path id="LVA1077" d="M742.1 129l0.8 2.4-1.6 4.9-0.6 3.6 1.8 3.8 1.1 0.8-0.1 1.8-6.9 3.4-1.3-7.2-2.7 0.6-5.1 0.6-0.7-5-7.7-1.2-4 0-4.4-5.7-4 2.5-6.1 0-10.1 2.5-4.3 5-6.8 0-1-5 2-5-0.3-5-3.3-3.8 7.7-1.2 3.7-3.2 2.7-7.5 1.3-5.7-17.8-3.1-0.3-5-4.1-0.7 2.7-11.9-15.4 5.6-6.4-1.8-3.9-3.3-6.1-2-2.8-4-4.3-2.3-1.6-2.6 1-3.9-0.7-2.2-1.8-1.2-2.2-2.4-2.1-2.8-6.2-4.9 0.5-3.6 4.4 1.4 2.9-0.1 1.7-1.5 3-1.4 2.4-0.2 1.2-0.6 4.2 4.4 5.5 0.6 1.8-13.1 6.7-2.4 2.1 0.1 2.1 3.6 1.3 5.3 1.7 5.1 3.5 3.4 28.9 2.6 1.6 0.8 1 1.3 0.5 2.4-1.3 3.1-0.4 2.4 0.4 5.3 1.2 3.2 15.2 12.8 4.6 5.3 13.1 21.5 4.6 5.5 5.7 4.1 1.8 0.8z" data-id="LVA1077" data-name="Valkas" name="Valkas"/><path id="LVA1079" d="M470.8 395l2.7 4.9 3.7 4 1.4 4.9 5-2.2 5.4 7.2 2.4 11.1-2.2 3.1-9.3 4 0.7 3.6 7.4 1.3-2 4.4-3.2 3.1 1.8 5.4 6.6-3.1 6 3.1-2 2.7-2.6 2.8-8 4.6-4.7 2.1-4.5-1.3-8.7-6.4-4.5-1.8-4.2 0.8-16.7 8.7-3.8 0.7-4.2-0.8-4.6-2.6-12.9-10.2 7.5-4.7 0.7-4.8 4.4-3.2-0.7-4.8 3.2 0 4.9 3.5 4-4.4-5.7-3.6-6.9-3.6-3.7-2.6-0.2-5.4-0.8-7.5-1.7-6.1 3.5-0.2 5.2-6.1-0.3-2 3.7 1.4 6.1 1.4 6.2 3.5 5.4 2.3 2.4-4.5 6.7-4 6.1-0.5 5 1.8z" data-id="LVA1079" data-name="Bauska" name="Bauska"/><path id="LVA1080" d="M633.2 220.4l2.1 4.8-0.4 8.3-1.3 6-4.3-2.4-3.2 0-1.8 1.2-5.1-1.2-2-3.6-4.5-3.9-4.3-0.4-2.2-4.4 0.7-3.6-1.3-3.2-5.8 0 0.2-6.8-4.3-5.5-7.8-4 0-8.8 3.2 1.2 2.6 2 5.2 1.2 1.7 1.2-1.7 3.2 2.8 1.2 4.3-1.2 4.3-1.6 4.6 3.2 5.3 3.2 3.3 3.5 1.5 3.6 0 8.4 3 2 3.2-1.2 2-2.4z" data-id="LVA1080" data-name="Cesu" name="Cesu"/><path id="LVA1081" d="M782.9 493l5.5 2.4 1.8 1.7 2.4 1.8 4.1 0.1 3.7-1 4.5-3.1 2.2-0.5 1.8 0 1.5 1.4 5.6-1.2 0.4 5.8 5.5 11.5 5.2-0.4-2.3 4.7 0.2 1.7 2.2 5.1-0.2 1.4-4.9 1.1 1.5 9 1.7 4.1-1.5 2.1-1.3 2.3 2.6 1.2-1.1 4-1.2 1.8-0.4 2.7-0.1 4.6 6.1 2.4 0.5 4.8-0.3 4.5-3 1.9-7.9 9.8-7.9 14.5-2.8 3.2-11 5.7-3.1 0.3-7.4-3-3.6-0.4-3.4 1.9-2.9 5.1-7.9-0.6-7.7-2.2-19.1-9.3-8.7-6.5-7.2-13.2 4.3-1.9 12.5-1.3-1.8-7.3-8.2-10.1 5.9-6.5-2.2-2.4-2.3-1.7 0.7-4 3.6-2.5 2.7-3.6 4.8 2.8 2.8-5.9-2.2-4.9-1.6-5.9 0.6-5.4-1.7-2.9-1.2-4.4-0.4-5-0.4-3.6-0.3-6.5-0.5-3.7-1.2-3.3-3.8-5.1 4.8-1.6 6.3-1.8 4.9 3.3 5.3 0.8 4 3.1 3.2 8.8 4.6-0.4 0.4-2 1.8-3.6 1.9 0.7 0.8 1.4 4.6 3.9 2 2.8 3.2-3.5z m-4.8 46.6l-0.4-3.1-2.1-0.8-7.4 8.6-9.5-1.5-4.7 4.5 1.6 2.2 5 3.2 0.2 5.9 0.4 3.8 3.9 6.6 1.9-1.4 3.3-1.4 3.5-0.7 2.1-3.1 0.7-5 2-1.8 2.1-4-2.8-1.6 0.7-4.8-0.5-5.6z" data-id="LVA1081" data-name="Daugavpils" name="Daugavpils"/><path id="LVA1082" d="M337.8 404.1l-2.9-6.4-1.5-6.7-3.7 0-5.6 8-5.7 5.8 2 5.4 2.9 2.2-4.7 1.4-8.3 0-5.9 0.8-3.2 4.5-2.7-3.1-1-6.3-4.5-2.2-0.4-11.1 0.2-5.4-3-1.3-3.4-6.7-2.7-3.2-5.7 3.2-2.7-5.9-4.9 3.2 0.7 4.9-4.6 0.4-4.7 3.6-2 3.6-2-0.5-1.4-5.3-3.5-1.6-0.9-2.7-1-1.7-0.8-0.5-0.2-3.4 0.5-1.2 1.7-0.3 3.3 0 1.7-0.8 1.6-1.7 1.8-3.4 0.7-3.3-2.9-3.6-1.3-3.3-3.2-1.7-0.7-4.4 3.5-0.5 6.8-2.8 3.9-0.6 11.4 0.2 5.8 4 7.6 1 2.2-0.2 3.3-1.8 6.6 1.6 3-3.2 3.1-1.5 7.8 0.2 3.7-1.3 3.6-8.5-1.4-4 0.1-2.2 0.8-2 7.3-4.7 2 1.7 2.7 0.4 5.9-1.8 4.8-4.1 2.6 1.9 2.7 11.2-3.1 4.2-6 3.1-3.1 2.7-2.6 4.3 3.4 2.5 2.8 1.1 2.1 1.9 1 6.1-5.6 4.7-2.7 4.9-1.7 1.5-0.9 2.4 10.2 1.8-0.4 3.1-4 2-1.6 0.5-0.6 1.5 0.3 1.7 1.6 1.9 1.7 2.9 0.1 3.8-1.6 6-1.3 1.6-3.2 1.5z" data-id="LVA1082" data-name="Dobele" name="Dobele"/><path id="LVA1083" d="M775.5 177.4l3.3 7.3 2.1 3.2 6.1 4 0.7 3.7 4.4 3.4 4.6-3.1 1.8-0.7 4 0.8 6.3 0.8 1.9 0 2.1 4 5.6-1.1 11.4-0.1 4.5 4.5 5.4 3.5 0.9 1.1-2.5 3.1-0.4 1.5 1.4 0.5 13.9 5.6-3.7 6.8-5.3 7.5-3.6 3.7-7.9 10.5-1.8 2.3-2.2 2.4-3.5 7.8-3.3 3.8-3.8 2.7-5.7 5.4 1.5 3.9-1.6 4.9-8.8-1.5-2-0.9-3.3-0.1-3.1 1.2-1.2 1.4-3.1 2.2-0.9 0.2-0.8-1.2-7.7 3.3-4.4 2.9-4.8 1.3-1.2-7.7-2.1-7.7-1.6-4-2.8-4.8-2.1-3-4.9-1.4-12.7 4.3-5.6-6.9-1-6.6-6.9 2.7-7.7-0.5-4.5 1.6-9.1 1.2 2.3-4.8 0.9-2.9 2.9-5.2 0.7-1.4 0.3-2.3-5-7.2-4.1-7.5-1.8-2.2-1.8-1.2-1.9-0.6-6.7-1-1.3-5.8 1.4-1.5 4.8-0.1 1.3-0.3 0-3.6 2.4-2.2 3.5-1 4 0.4 18.1-1.4 0.6-1.8-0.2-3.1 1.5-1.8 0.6-2.5-0.6-3.3 11.5 2.1 8.8-2.4 0.9-1.9 0-1.6-0.8-0.3-2.7 1.2-1.3-1.2 0.3-1.9 3.3-0.9 1.7-0.9 1.8-2 3.9-1.5 0.8-3.1-0.7-4.5 6.1-0.4 1.5 2 1.9 0.8 3.2-0.5 3.6 1.6z" data-id="LVA1083" data-name="Gulbene" name="Gulbene"/><path id="LVA1084" d="M386.6 327.3l-1.3 7 0.6 1-1.1 6-7.6 1.8 0 4-4.2 1.4 1.8 4.5 3.7-2.3 2.9 4.1-6.6 4.1-5.4-1-3.6 2.1 1.8 4.8 6.3 5.2-0.8 7.1 5 2.4 4.3-4 5.5-2.5-1.2-4.7 3-2.6 5 4.7 5.2 3.2 6.4 1.8 3.9 7.1 3.2 6.3 0.8 8.9 3.1 4.1-4.1 1.2-1.7 2.4-2.5 1.3-1.6 2.5-4.7 1.7-1.5 0.8-1.9 3.6-2.9 3.5 0.3 1.7 1 1 0.1 1.2-1 4.2-0.9 2.1-0.1 1.4 5.2-0.4 0.8 1.2-1.2 4.3-0.3 5.9 0.3 2.8-1.8-0.6-4.5-0.1-9.5 2.2-4.3-0.7-0.2-4.2-1.2-1.7-1.1-0.4-3.8 0.6-9.6-0.5-4.4 1.3-8.3 5-4.9-0.4-14.3-6.1 1-1.5 4.8-3.8 3.1-1.5 2-2.4 0.7-1.6 0-2.2-1.7-3.7-1.4-3.7-1.2-2.1-1.7-1.1-0.7-2.5 1.7-2.3 0.7-2.2-2.2-3.9 3.2-1.5 1.3-1.6 1.6-6-0.1-3.8-1.7-2.9-1.6-1.9-0.3-1.7 0.6-1.5 1.6-0.5 4-2 0.4-3.1-10.2-1.8 0.9-2.4 1.7-1.5 2.7-4.9 5.6-4.7-1-6.1-2.1-1.9-2.8-1.1-3.4-2.5 2.6-4.3 3.1-2.7 6-3.1 3.1-4.2-2.7-11.2-2.6-1.9-3.4-17.2 6.2-2.6 11.1 0.8 1.8 0.5 3.5 0 6 3.6 5.2 5.8 1.5 4 2.2 3.5 4.8 5.6z" data-id="LVA1084" data-name="Jelgava" name="Jelgava"/><path id="LVA1085" d="M676.7 403.6l0.9 4.9-5.2-0.6-3.4-2.2 0.8-10.1 3.8-2.1 3.4 0 1.5 3.3 4-1.6 0.9 3.8-6.7 4.6z" data-id="LVA1085" data-name="Jekabpils" name="Jekabpils"/><path id="LVA1086" d="M539.7 117.6l-0.2 10.7 2.1 4 2.9 3 2.3-0.2 7.1-1.9 2.7 0.4 2.5 1.8 3.3 5.1 0.7 2.8 0 1.6-0.6 0.6 1 1.1 1.7-0.3 2 0.5 0.9 1.8-1.1 0.9-2.4 0.5-1.2 1.7-1.1 2.3-4.5 1.7-1.3 2.2-2 1.6-1.2 2.1-12.8 8.2-1.5 2-4.1 0.2-4.6-1.7-1.9 0.5 0.1 1.4 4.4 4.1-11.2-0.3-0.4-3.5-8.2 5.3 1.9 10.3-2.5 5.3-6.5 2.2 1.6 4.9 5.1 3.6 3.8 15.2-4.3 1-5.3-3.6-2.9-7.2-2.8-3.5-1.7-1.6-1.5-0.8-1.7-5.5-2.2-1.6-10.7 5.8-1.5-0.3-1.5-0.2-3.1 1.1-0.3-1.9 0.6-2.4 0.3-3.1-0.9-3.5-2.9-3.6-1.4-13.2 7.3-2 5.3-2.1 2.1-2.9 1.4-5.3 6.5-1.1 2.7-3.2-1.7-2.5-2.3-3.9-2.7-8.2 3.2-5-8.6-0.7 1-2.9-2.7-3.2-2.5 0.7-3.6-0.7 0.2-5.3-1.6-0.4 0.4-7.9-1.1-12.8 13.4-2.2 3.4 3.2 3.3-1.8-0.8-3.9 0.6-7.5 6.3 0.7-1.3-9.7 6.8-4.7 6 2.6 2.1 2.8 5.5 4.7 7.1-0.4 4 3.6-0.5 5 0.9 8.6 8.5 3.6-1.6 7.2z" data-id="LVA1086" data-name="Limbaži" name="Limbaži"/><path id="LVA1087" d="M709.8 257.1l9.1-1.2 0.5 6.2-1.5 6 0.2 7.1 1.3 5.5-1.9 4.8-0.2 3.2 4 0.3 3.1 6 6.2-0.8 2.6-2.4 5.4 2.4 4.5 0-0.8-4.4 3-1.9 2.6-3.6 1.7-4.7-3-4-1.1-6.7-0.9-3.3 12.7-4.3 4.9 1.4 2.1 3 2.8 4.8 1.6 4 2.1 7.7 1.2 7.7-13.1 23.6 4.3 5.5 1.7 2-0.7 3.2 3.3 2.7 3.4-1.9 2.4 1.1 4.3-3.5 1.5-3.6 7.3-8.6 0.9-4.4 4.5-4.7 2 3.2 10.1-1.2 5.2-1.2 3.2 0 3 3.5 0.2 3.2 3.5 0 3.2 2 2.8 4.7-3.4 4-2.9 3.3-17.2 27.7-1.4 6.7-4-3.9-4.5-2.8-0.4-3.9-3.5 0.4-4.7 1.2-3 3.1-2.6 3.5-4.3-0.4-5.6 3.6-20.3 0-1.8 10.4-3.4 6.5-1.1 1.6-7.1 4.3-1.3-6.1-2.7-1.4-5.1 1.7-3.7-4.4 0.9-2-1.9-1.8-2.9-0.6-1.8-1.3-3.5-1-5.4 2.6-4.7 3.4-2.5 0.9-2.3-0.7-2.9-2.6-2.5-6.5-7.1 7-0.3-3-1.9-2.3-0.1-2.5 1.6-0.7 0.8-1.1 0.4-1.4-4-3.9-10-3.8-1.2-7.1 0.2-2.2 1.4-1.8 1.9-3.5-1.1-4.7-2.1-3-2.2-0.2-3.6-4.2-2.8-2.4-1.1-5.9-1.2-3.9 2.8-3.2 0.8-2.7 8.4-2.4 3.3-1.6 4.3 1.6 3.4-1.6 4.3 0 0.9-4.7-1.3-2-3.2-2.8-4.7-5.1 4.3-2.8 0.8-4.5-0.5-1.8-2.1-3.5-1.2-3.1 0.5-6 0.9-2.9 0.2-2.2 2.1-6.9 3.7-0.8 10 5.3 2.2 0.7 1.4 0 1.1-1.9 1.2-1.1 3.4 0.6 3.7 2.1z" data-id="LVA1087" data-name="Madona" name="Madona"/><path id="LVA1088" d="M625.6 324l-9.3 9.5-6.4 3.5-1.8 0.3-1.8-0.7-1.6 0.1 0.4 2.3-4.2-1.2-4.2 0.9-3.7 2.3-1.6 2.3 5 3.2 0.7 1-0.4 1.6-2.3 4.1-8.4-2.9-0.3 0.8-2.1 1.8-3.3-1.3-3.1-1.4-0.6-1.5-7.1-5.6-3.1-4.3-2.2-3.9-2.4-5-10.1-2.2-3.4-2.8-2.8 2.2-5.2-3.4-5.8-3.3-3.7-1.7-1.5 6.7-3.7 1.7 0.6 5-3.1 5.6-4.9 5.5-2.9-4.1-0.9-1-5-1.6-2.1-2.5-2.8-2.5-1-0.4-3.1-5.4-1.1-1.5 4-3.1 6.9-7.2 4.6 3.6 5-6.8-4.7-2.2-1.3-5.3 3.1-0.4 3.1-3.1 3-1.4 6.5-4.8 4.6 2 5 1.2 1.9-0.3 3.9-3 2.6-1.2 2.3-0.4 3 1.4 3.3-1.1 4.9 1.4 14.7-4.2 12.6 4.1 2.4-0.1-0.6-2 1.3-1.1 0.7-1.4 1.8-1.5 1.3-1.6 5.9-3.1 2.3 0 1.5 0.9 0.9 1.7 1.2 3.5 0.3 2.9 3.2 1.1 4.3-2.9 3.6-5.3-0.8-3.1 0-2.4 3 0.8 2.7-1.6 0.6 3.4 2 2.1 0.1 2.1 1.2 2.1 0.8 3.2 1.2 2.8 0.1 2.8-1.1 2-1.1 2.6 0 1.3 2.5 3.3 3 2.8-10 1.7 0.1 3.3 1.1 1.9 1.2 1.1 0.8 3.9-0.2 3.4z" data-id="LVA1088" data-name="Ogre" name="Ogre"/><path id="LVA1089" d="M816 494.6l-5.6 1.2-1.5-1.4-1.8 0-2.2 0.5-4.5 3.1-3.7 1-4.1-0.1-2.4-1.8-1.8-1.7-5.5-2.4-4.1-3.7-2-4 6 0.5 3.4-3.1 0.3-10.2-2-10.3-2.6-4.1-5.4-1.5-1.4-9.3-2.9-0.5-7.7-3.1-7.4-6.1 2.6-8.3 8.5 4.2 4.9-14.4 2-3.1 4.5-1.1 8.6 5.2 6.5 8.2-3.1 3.1-5.7 3.6-2.6 8.2 2 3.6 5.1 2.1 5.5 5.6 5.7 2.1 4.2 7.1 3.4 9.8-0.5 3.6-4.6 3.5 3.4 2.1 4.9 3.6 2.8 2.5 0.8 5.8z" data-id="LVA1089" data-name="Preilu" name="Preilu"/><path id="LVA1091" d="M279.9 172.1l5.1 4.5-3.4 6.8-5.3 4.1-6.6 4.6 4.7 9.4 8.8 1.7 5 1.8 1 6.4 2.6 5-5.6 7.1-10 6.8-2.5 4-0.3 1.9-0.8 2-1.4 2-2.7 1.9-11-0.7-3.2 0.8-2.1 2.7-4.4 3.5-12.6 3.7-3.9 0.8 1.1 13.4-1.9 6.5-6.1-1.6-4.4 3.5-7-1.4-3.9-0.9-9.3 0.7-4.1-1.2-1.4-4.1-1.4-1.7-0.4-3.5 0.5-5.7-1.2-6-0.8-1.9-2.9-2.6-4.1-2.2-4.8-4.1-1.8-2.6-1.1-2.9-1-1-3.9-1.8-0.3-3.3-1.9-1.2-0.3-0.8 0.8-3.5 5.4-7.9 5.6-5.5 3.2-1.6 0.6-1.3 0.4-2.6 0.6-0.6-1.9-8.3-1.2-3.3 0-4.3-0.6-7.7-0.7-1.5-2.4-2.7 3.2-7.5 5.9-1.8 3.2 5.9 4.4 0 6-2.4 7.2 1.8 3.8-12.3 6-9.4 10.7-1.1 9.4 5.2-2.2 6.5 3.8 5.3 5-5.9 11.4 12.9 3.1 5.2 6.6 3.5 5.4-0.6 2.2-6.4 6.1-2.5z" data-id="LVA1091" data-name="Talsi" name="Talsi"/><path id="LVA1092" d="M346.4 292.9l2 0.5 2.1 10.1-6.2 2.6 3.4 17.2-4.8 4.1-5.9 1.8-2.7-0.4-2-1.7-7.3 4.7-0.8 2-0.1 2.2 1.4 4-3.6 8.5-3.7 1.3-7.8-0.2-3.1 1.5-3 3.2-6.6-1.6-4.2-5.6-3.2-9.8-1.9-8.6-2.7-3.1-8.4 1.3-5.9-2.2-1.2-5.9 2.7-5.4-2.7-4.9-0.8-3.6-0.2-6.8-5.9-2.2-5.9-6.4-1.8-6.3 1.8-8.1 4.4-0.9 2.2-2.3-1.7-4.5-1.5-5-2-5.4 7.7-2.7 2.2-3.7 3.9-2.7 2-3.2-3.4-4.5 1.4-2 0.8-2 0.3-1.9 2.5-4 10-6.8 5.6-7.1 4.4-6.9 2.3 5.7 0.5 8.7-1.8 9.5-2.7 4.1 1.7 4.5 5.2 3.6 7.4 4.6 3.7 9.9-2.5 6.8-4.9 6.8-1.2 6.8 3.9 4.5-2.7 3.2-4.9 4.9 1 3.7 7.1-2.3 10.6 3.6 13 1.4 9.6-4.1 4.9-2.5z" data-id="LVA1092" data-name="Tukums" name="Tukums"/><path id="LVA1093" d="M619 140l-0.7 5.6-2.8 2.4-5-0.8-2.5 0-0.7-4.8 0.9-5.6 4.5-1.6 3.9 0 2.4 4.8z" data-id="LVA1093" data-name="Valmiera" name="Valmiera"/><path id="LVA1094" d="M440.7 263.5l2.6 1.2 6 6.7 3.5 2.2 3.3 1.6 1.9 1.7 2 2.2 2.4 5.6-2.9 3.4-5.6 2.4-1.6 1.3-1.6 2.6 0.3 6.7 3 7.8-8.5-2.3-5.7-5.1-3.2 1-2.8 1.5-1.8 3.5-1.5 0.6-2.4 0.9-0.6-3.4-0.6-3.1-3-2.9-1.9-2.5-3.3-1-4.3-2.4-3.9-1.4 0.9-2 5.4-4.5 0.8-2.2 0.9-1.5-1.1-1.3-3.5-0.8-1.8-1-2.8-1.4-0.8-2.4 3.4-1.7 5.3-4.6 2.4-3.6 1.8-3.4 1.9-2.5 5.3-1.5 5.3-3.5 5.3 8.4 1.5 0.7z" data-id="LVA1094" data-name="Riga" name="Riga"/><path id="LVA4848" d="M6.1 415.9l0-4.9 0.7-2.5-1-4.2-0.4-4.5 0.8-2.4 2.5 2.4 0.8 2.6 0.8 6.5-1.7 0.7-0.6 6-1.9 0.3z m6.5-16.2l-0.7-1.2-2.4-2.1-3.7-1.5-1-1.9-0.6-2.8 1.2-2.2 1.4-10.2 1.4-4.1 6.4 2.3 1.4 10.7 2.2-1.5 1.3 9-4.2 2.4-2.7 3.1z" data-id="LVA4848" data-name="Liepāja" name="Liepāja"/><path id="LVA4849" d="M389.7 365.7l-3 2.6 1.2 4.7-5.5 2.5-4.3 4-5-2.4 0.8-7.1-6.3-5.2-1.8-4.8 3.6-2.1 5.4 1 6.6-4.1 8.5 2.2 2 6.9-2.2 1.8z" data-id="LVA4849" data-name="Jelgava" name="Jelgava"/><path id="LVA4850" d="M778.1 539.6l0.5 5.6-0.7 4.8 2.8 1.6-2.1 4-2 1.8-0.7 5-2.1 3.1-3.5 0.7-3.3 1.4-1.9 1.4-3.9-6.6-0.4-3.8-0.2-5.9-5-3.2-1.6-2.2 4.7-4.5 9.5 1.5 7.4-8.6 2.1 0.8 0.4 3.1z" data-id="LVA4850" data-name="Daugavpils" name="Daugavpils"/><path id="LVA4851" d="M880.4 403.7l-2.3 5-7.5-3.7-1.4-6.5 4.9-9.4 4.1-1.9 3.3 1.4 0.2 4.1-1.3 11z" data-id="LVA4851" data-name="Rezekne" name="Rezekne"/><path id="LVA4852" d="M75.8 180.6l0.8-2.3 9.8-13.1 4.5-8.8 1.5 1.7 1.4 2.5 4.4 14.3-7.3 3 0.7 8.9-4.8-1.6-3.6 4.7-3.3 0.3-4.1-9.6z" data-id="LVA4852" data-name="Ventspils" name="Ventspils"/><path id="LVA5709" d="M213 273.3l-5 8-2.2 10.6-1.5 0.5 1.3 5.4-1.6 3.4-1.5 1.3-2 2.3-3.5 0.9-6-2.7-1.4-1.9-0.4-2.3-1-1-3.3-0.7-1.9 2.5-0.4 1-2.8 1.9-0.4 1.1 0.7 1.5 2.5 1.3 2.2-0.4 2.3 1 1.3 1.5 1.7 2.6-0.1 4.2-3.4 1-1.5 1.3-5 2.2-2.5 1.7-2.9 3.5-3.5 3.5-5.8 0-6.8-3.2-2.9-4-8.5 0-6.6 0.6-6.6 5.7 3.5 16.7-4.1 3.4-6-0.5-6.3 4-2.5 4.2-2.9-0.7-3.5-2-1.2-1.5 0.6-2.1-0.2-2.5-1.1-2.2-0.2-2.3-3.1-5.8-8-6.9-4 0.4-1-0.3-2-2.2-1-2.9-1.7-2.8-0.2-2.6-2.1-3.1-3.7 0.8-5.6 0-1.4-0.5-3.1-5.2-7.8-0.7 4.4-2.9 0.7-2.2 2.8-4.1 3.4-1.7 6.3 0 2.9-5.2 7.5-0.5 3.5-4.1 5.6-1.7-1.9-10.4-5-2.9-3.1-6.4 0.9-3.4-4.7-3.5-4.4-6.1 2.7-0.4 4.5-4.3 2.1-2.6 3.2-0.5 3.8 0.5 2.7-0.6 7.6 2.4 3.1 0.8 0 2.2-0.9 2.6 5.4 0 3.8-3.4 1.4-0.2 10.6 0.5 2.1-0.3 6.1-2.2 2.6-1.7 8.3 3 2.7 0.1 10.7-3.8 2.7-2 0.4-1.9 0-4.3 0.6-4.3 0.9-3 3.9 1.8 1 1 1.1 2.9 1.8 2.6 4.8 4.1 4.1 2.2 2.9 2.6 0.8 1.9 1.2 6-0.5 5.7 0.4 3.5 1.4 1.7 1.4 4.1 4.1 1.2 9.3-0.7 3.9 0.9z" data-id="LVA5709" data-name="Kuldigas" name="Kuldigas"/><path id="LVA5710" d="M73.3 301.1l-6.4-2.1-5.7-2.8-2-2.8 0.6-2 7-1.8 1.1-2.7 2.4-2.8 0.4-3.8-0.2-6.7 1.6-4 0.6-5.7 1.9-1.8 0.4-4.4 4.5 1.3 4.8-3.8 4.4 6.1 4.7 3.5-0.9 3.4 3.1 6.4 5 2.9 1.9 10.4-5.6 1.7-3.5 4.1-7.5 0.5-2.9 5.2-6.3 0-3.4 1.7z" data-id="LVA5710" data-name="Alsungas" name="Alsungas"/><path id="LVA5711" d="M251.6 326.3l-0.1 1.8 4.5 6.3 0.8 9.5 0.3 2-0.5 1.5-1.5 1.2 1.6 4.3-3.5 0.5 0.7 4.4 3.2 1.7 1.3 3.3 2.9 3.6-0.7 3.3-1.8 3.4-1.6 1.7-1.7 0.8-3.3 0-1.7 0.3-0.5 1.2 0.2 3.4 0.8 0.5 1 1.7 0.9 2.7-3.4 0.2-2.5 1.3-2.7-0.8-3.3 0-2.5-5.7-5.3-4-7 1.1-4.1 8-3.4-2.8-1.9-10.3-4.7-4.6-0.7-11.5-1.2-9.7-3.8-3.5-2.5-8.6 6.7-20.2 5.1 2.5 8 1.1 6.6 3.3 1.6 2-0.5 2 5.1-0.3 5.5 1.9 9.6-0.5z" data-id="LVA5711" data-name="Brocenu" name="Brocenu"/><path id="LVA5712" d="M165.4 328.5l1.6 7.4 2.1 6-0.1 1.5-1.1 1.8-0.9 3.2-1 1.9-1.5 2-4.2 2.6-1.8 1.8-1.2 2.5 1 6.6 0.1 5.2-0.4 3 0.9 2.5 0.4 2.8 1.1 2.6-0.7 1.5-2.9 1.9-5.5 1-6.7 2.4 0 1.9 0.9 1.2 4.3 3.4 1.1 1.4-0.2 3.6-2.5 1.2-1.9-0.8-2-0.2-1.6 0.5-4.3-0.1-1.3-1.9-5 1.8-1.2-0.3-0.5-2.3-0.6-1-1.5-0.4-3.7 0.6-2.1-0.2-2.5-0.7-2.1-1.7-1.4-1.9-2-4 0.3-4.7-0.2-2.5 0.2-1.3-0.6-2.1-1.8-3.3-0.1-0.9 3.6-2.3 1.5-1.7 1.4-4.4-2-5.5 1.8-4.7 2.5-4.2 6.3-4 6 0.5 4.1-3.4-3.5-16.7 6.6-5.7 6.6-0.6 8.5 0 2.9 4 6.8 3.2z" data-id="LVA5712" data-name="Skrundas" name="Skrundas"/><path id="LVA5713" d="M138.4 400.8l-1.4 3.2-0.3 1.5 0.5 1.7-0.4 2.5 4.8 6.2 0.8 1.6-1.1 1.7-3.6 1.6-2.2 2.4 5.2 7-34 16.1-1.5-8 3.5-3.2 0-3.2-3.8 0-3-3.7-4.9-5.3 2.6-3.7-0.6-8 7.3-2.1 0-6.4-3.5-1.6 0.6-11.2 5.6-3.1 5.8-2.7-0.3 4.7 2 4 1.4 1.9 2.1 1.7 2.5 0.7 2.1 0.2 3.7-0.6 1.5 0.4 0.6 1 0.5 2.3 1.2 0.3 5-1.8 1.3 1.9z" data-id="LVA5713" data-name="Vainodes" name="Vainodes"/><path id="LVA5714" d="M118.6 355.4l-1.8 4.7 2 5.5-1.4 4.4-1.5 1.7-3.6 2.3 0.1 0.9 1.8 3.3 0.6 2.1-0.2 1.3 0.2 2.5-5.8 2.7-5.6 3.1-7-2.6-10.6 2.6-1.8-2.6 6.5-6.9 0-6.4-1.5-7.5-5-3.8-7.3 1.6-3.8 0-5.3 1.7-2.9-7-3.8 0.5-0.6-5.3-8.5-6.4-3-5.4 1.2-4.8-0.6-12.3 3.5-3.2 8.8-2.7 4.1-2.2-0.4-6.9 7.8 0.7 3.1 5.2 1.4 0.5 5.6 0 3.7-0.8 2.1 3.1 0.2 2.6 1.7 2.8 1 2.9 2 2.2 1 0.3 4-0.4 8 6.9 3.1 5.8 0.2 2.3 1.1 2.2 0.2 2.5-0.6 2.1 1.2 1.5 3.5 2 2.9 0.7z" data-id="LVA5714" data-name="Aizputes" name="Aizputes"/><path id="LVA5715" d="M84 387.3l1.8 2.6 10.6-2.6 7 2.6-0.6 11.2 3.5 1.6 0 6.4-7.3 2.1 0.6 8-2.6 3.7 4.9 5.3 3 3.7 3.8 0 0 3.2-3.5 3.2 1.5 8-7.1 3.4-12.2 0.5-5.1 2.7-10.1 7.8-4.6-9.2-10-6.3 5-6.4 2.9-13.2-7-14.4-0.3-6.3-4.1-3.2 7.3-4.3-1.1-9.6 4.7 3.2 5.5 6.4 1.2 2.1 6.5-0.5-4.1-9.6 4.1-4.8 5.8 2.7z" data-id="LVA5715" data-name="Priekules" name="Priekules"/><path id="LVA5716" d="M40.9 363.3l3.2 11.2-3.8 5.9 0.3 14.3 12.6-3.2 0.9 10.2 4.1 3.2 0.3 6.3 7 14.4-2.9 13.2-5 6.4-16.1 0.5-5-6.3-2.1-20.2-8.8 0.5-2.6-17-9 1.2-1.4-4.2 2.7-3.1 4.2-2.4-1.3-9-2.2 1.5-1.4-10.7-6.4-2.3 3.5-10.3 1.6 3.1 8.8 2.1 4.4-11.7 7.9 9.1 6.5-2.7z" data-id="LVA5716" data-name="Grobinas" name="Grobinas"/><path id="LVA5717" d="M36.5 439.4l-6.5-1.1 0.6 7.9-0.6 9-2 5.9-7.7 11-3.2-2.1-0.3 9 0 6.3-3.8-0.5-2.9-24.3-8.8 1.7 1.3-4.9 0.3-2.8-0.1-4.9-1.5-9.8-0.3-5 0.3-4.7 1.1-3.9 1.9-3.3 1.5-4.2 0.3-2.8 1.9-0.3 0.6-6 1.7-0.7 1.2 3-2 3.4 2 1.5 0 5.3-2 3.2 3.2 4.5 1.1 0.8 1.2-0.6 0.9-1.5 0.4-1.9-1.5-5.3-0.3-4.4 0.2-4.2 0.6-2.7-0.7-1.7-0.6-4.4 9-1.2 2.6 17 8.8-0.5 2.1 20.2z" data-id="LVA5717" data-name="Nicas" name="Nicas"/><path id="LVA5718" d="M36.5 439.4l5 6.3 16.1-0.5 10 6.3 4.6 9.2-9.1 7-2.2 0.7-6.2 0.3-4.3 2.2-5.1 4.4-4.9 5.3-3.5 5.5-2.3 7.9-1 6.8-2.1 4.7-5.5 1.6-8.1 0-5.2 1.4-1.5-10.4-1.9-8.1-6.2-15.6-1.4-5.4-0.6-5.3 0.2-1.5 8.8-1.7 2.9 24.3 3.8 0.5 0-6.3 0.3-9 3.2 2.1 7.7-11 2-5.9 0.6-9-0.6-7.9 6.5 1.1z" data-id="LVA5718" data-name="Rucavas" name="Rucavas"/><path id="LVA5719" d="M59.8 291.4l-0.6 2 2 2.8 5.7 2.8 6.4 2.1-2.8 4.1-0.7 2.2-4.4 2.9 0.4 6.9-4.1 2.2-8.8 2.7-3.5 3.2 0.6 12.3-1.2 4.8-3.2-4.3-4.4 4.3 1.7 8.1 2.1 6.4-4.1 6.4-6.5 2.7-7.9-9.1-4.4 11.7-8.8-2.1-1.6-3.1 1.7-8.2 0.9-21.5-0.5-4.9-1-4.5-0.2-4.3 1.7-4.4 11.3-7.6 1.3-2.3 9.1-5.5 2.5-2.7 5-7.8 1.4-1.6 1.7-1 3.9-3.6 0.5 0 4.2 1.8 3.1 2.5 1.5 3.6z" data-id="LVA5719" data-name="Pavilostas" name="Pavilostas"/><path id="LVA5720" d="M48.8 342.4l3 5.4 8.5 6.4 0.6 5.3 3.8-0.5 2.9 7 5.3-1.7 3.8 0 7.3-1.6 5 3.8 1.5 7.5 0 6.4-6.5 6.9-5.8-2.7-4.1 4.8 4.1 9.6-6.5 0.5-1.2-2.1-5.5-6.4-4.7-3.2 1.1 9.6-7.3 4.3-0.9-10.2-12.6 3.2-0.3-14.3 3.8-5.9-3.2-11.2 4.1-6.4-2.1-6.4-1.7-8.1 4.4-4.3 3.2 4.3z" data-id="LVA5720" data-name="Durbes" name="Durbes"/><path id="LVA5721" d="M223.8 107.2l-2.6-2.4 0.3 14.7 5.4 10 0.3 9.4 1.9 10-10.7 1.1-6 9.4-3.8 12.3-7.2-1.8-6 2.4-4.4 0-3.2-5.9-5.9 1.8-3.2 7.5-2-2.3-8 1.4-4.8-0.8-10.2-4.8 8.3-3.6 4-3.5 1.4-2.1-0.4-3.2 2.1-1.2 2-1.9 9.3-6 0.4-2.6-0.3-8.1-0.5-1.6-1.3-2.3-1.2-3-0.7-3.2 0.2-2.9-1.6-5.2-1.6-0.8-1.5 0.5-0.9-1.5-1.6-7.9 39.8-21.9 5.8-1.8 3.2-0.3 1.5-0.5 3.6-1.8 1.9 0.4 1.4 0.9-1.4 2.8-1.3 9.7-0.5 10.6z" data-id="LVA5721" data-name="Dundagas" name="Dundagas"/><path id="LVA5722" d="M223.8 107.2l0.6 5.2 1.3 3.8 7.6 11.4 30.7 26.8 9.9 12.4 6 5.3-6.1 2.5-2.2 6.4-5.4 0.6-6.6-3.5-3.1-5.2-11.4-12.9-5 5.9-3.8-5.3 2.2-6.5-9.4-5.2-1.9-10-0.3-9.4-5.4-10-0.3-14.7 2.6 2.4z" data-id="LVA5722" data-name="Rojas" name="Rojas"/><path id="LVA5723" d="M302.7 195.9l-4.4 1.7-1 1.8-0.8 3-0.3 7.1-4.4 6.9-2.6-5-1-6.4-5-1.8-8.8-1.7-4.7-9.4 6.6-4.6 5.3-4.1 3.4-6.8 7.2 4.1 4.7 1.1 1.7 0.8 0.4 2 0.1 2.5 0.6 2.6 3 6.2z" data-id="LVA5723" data-name="Mersraga" name="Mersraga"/><path id="LVA5724" d="M596.5 425.4l0.6 7.6 0 2.9 0.5 4-0.8 3.1 1.3 1.6 7.7-1 1.2 1.8-1 1.2-2.9 1.4-2.4 1.9-1.8 2.8-0.1 2.6 3.7 2.9 2.6 3.5 2.2 1.5 4.3 6-1.1 7.3 1.7 4.8-0.6 1.7-4.4 0.4-1.7 1.4-1.4 2.1-33-5.7-5-3.7-4-7.5-2.4-7.9-1.4-2.4-4.6-5.2-1.3-2.5-1.6-4.6-3.5-15.1-3.6-10.4-2.5-4.2-2.9-1 0.9-2.9 3.2-1.4 1.5-3.1 1.2-3.6 12.8-2.2 2 8.9 3.2-0.9 3.2 15.2 8.1-2.7 22.1 1.4z" data-id="LVA5724" data-name="Neretas" name="Neretas"/><path id="LVA5725" d="M705.9 425.7l2.8 0.2 4.9 4.1 1.7 2.2 0.9 4.3 0.1 5.1 0.4 1.4 2.4 5.3-0.2 4.9 0.2 1.2 1.6 1.9 0.2 1.9-0.9 4.6-0.2 5.6 0.6 2.1 2 0.9 1.5 0.2 2.8 1.1 1.4 0.2 2 1.4 5 6.8 3.8 5.1 1.2 3.3 0.5 3.7 0.3 6.5 0.4 3.6-4-7.2-0.2-2 0.8-2.7-1.1-2.2-1.1-0.7-3.1-1.4-3.5-0.7-1.9-1.3-3.2 0.3-1.9 0.6-9.2 8 1.9 3.2-0.1 2.2-3.2 2.7-2.8-0.8-1.5 1.4-0.8 1.6-1.7 2.6-2.9 2.8-1.7 0.3-1.3-0.6-1.6-2.6-1.8-7.2-3.7-0.5-1.2-4.4 0-5-9.8-5.5-1.2-7.7-2.8-4.9-5.2-1.2-5.2-2.2-6.1 1.1-8.6 0.6-1.9-16 7.4-1.7 0.3-7.2-0.3-5.5 8.3-2.2 6.7-13.3-4.6-7.7 1.5-10.6 3.4 2.2 5.2 0.6-0.9-4.9 23 9.8 1.6 1.1 1.2 3.7 2.3 4.7 1.1 2.8z" data-id="LVA5725" data-name="Jekabpils" name="Jekabpils"/><path id="LVA5726" d="M745.4 368.4l3.6 0.6 11.4 6.9 5.3 1.6 9.8 1.2-1.5 7.9 0.5 3 1.3 1.1 1.7 0.6 2.7 0.2-4.5 9.3-0.3 2.5 0.4 1.9-5 0.7-2.7-0.9-1.5-1-4.2-0.6-3.2 0.5-2.4 1.3-3.1 3.2-3.2 2.7-6.9 3.6-1.3-5.9-4.1-5.9-0.3-2.2-1.6-2.2-2.6-0.5-4.6 1.4-3.3 3.3-4.6 6.4-1.1 3.8-5.3 7.1-8.9 5.7-1.1-2.8-2.3-4.7-1.2-3.7-1.6-1.1-23-9.8 6.7-4.6-0.9-3.8-4 1.6-1.5-3.3-3.4 0-3.8 2.1-3.6-0.1-1.8-0.7-2.4-5.9-3-3 1.1-6.5 0.2-5 4.3 0.7 5.9-1 7.2-2.6 6.7-3.5 7.1-7 2.5 6.5 2.9 2.6 2.3 0.7 2.5-0.9 4.7-3.4 5.4-2.6 3.5 1 1.8 1.3 2.9 0.6 1.9 1.8-0.9 2 3.7 4.4 5.1-1.7 2.7 1.4 1.3 6.1 7.1-4.3 1.1-1.6 3.4-6.5z" data-id="LVA5726" data-name="Krustpils" name="Krustpils"/><path id="LVA5727" d="M660.3 374.4l-0.2 5-1.1 6.5 3 3 2.4 5.9 1.8 0.7 3.6 0.1-0.8 10.1-1.5 10.6 4.6 7.7-6.7 13.3-8.3 2.2-0.9-4.4-7.1 0.5-2.4-6.6-3.1-3.9-3.4-5.5 0.6-3.9-2.9-5.1-2-5.3-1.9-2.5-1-3 2.3-7.3 3.2-3 1-2.6 0.1-1.4-1-0.6-2.7 0.2-2.7-1.1 1.3-0.7 1.3 0.1 3.1-0.7 6.2-4.4 5.7-1.1 3.2-1.2 4.5-2.9 1.8 1.3z" data-id="LVA5727" data-name="Salas" name="Salas"/><path id="LVA5728" d="M684.4 368l-6.7 3.5-7.2 2.6-5.9 1-4.3-0.7-1.8-1.3-4.5 2.9-3.2 1.2-5.7 1.1-6.2 4.4-3.1 0.7-1.3-0.1-8.4-0.6-2.1-2.5 0.7-3.4-0.4-2.3 3.4-0.5 1.5-7.2 7-8.4-1.8-8.9 6.4-1.1 0-5.6-2.7-3.4 0.6-3.3 3.7 0.5 4 2.2 4.9-4.1 5.3-3 0.5-1.7 1.7-3 0.3-3.4-1.2-0.9 0.9-1.9 2.6-0.6 2.8 2.4 3.6 4.2 2.2 0.2 2.1 3 1.1 4.7-1.9 3.5-1.4 1.8-0.2 2.2 1.2 7.1 10 3.8 4 3.9-0.4 1.4-0.8 1.1-1.6 0.7 0.1 2.5 1.9 2.3 0.3 3z" data-id="LVA5728" data-name="Plavinu" name="Plavinu"/><path id="LVA5729" d="M651.3 334.7l-4.9 4.1-4-2.2-3.7-0.5-0.6 3.3 2.7 3.4 0 5.6-6.4 1.1 1.8 8.9-7 8.4-1.5 7.2-3.4 0.5-1.2-0.4-3.1 0.1-5.7-3.6-3.4-0.9-4.4 4.1-5 4.2-5.1 1.7 0-21.3-2-5.2 2.3-4.1 0.4-1.6-0.7-1-5-3.2 1.6-2.3 3.7-2.3 4.2-0.9 4.2 1.2-0.4-2.3 1.6-0.1 1.8 0.7 1.8-0.3 6.4-3.5 9.3-9.5 7.8 2.6 6 0.1 5 2.6 3.7 0.7 3.2 4.7z" data-id="LVA5729" data-name="Kokneses" name="Kokneses"/><path id="LVA5730" d="M594.4 353.2l2 5.2 0 21.3-8 1.3-2.7-0.8-7.2-6-3.4-1.6 5.7-5.3 0.3-5-1.9-5 1.1-5.7 3.3 1.3 2.1-1.8 0.3-0.8 8.4 2.9z" data-id="LVA5730" data-name="Aizkraukles" name="Aizkraukles"/><path id="LVA5731" d="M580.3 351.6l-1.1 5.7 1.9 5-0.3 5-5.7 5.3-2.8-1.3-5.2 0.8-4.2 2.3-4.2 1 1-3-0.3-1.1-1.3-4.1 0.3-7.7 0-2.5 1-2.2 2.4-0.9 1.9-1.9-0.3-1.1-0.9-0.6-1.5-2.1 0.1-1-1.1-1.6 9.5-2.5 7.1 5.6 0.6 1.5 3.1 1.4z" data-id="LVA5731" data-name="Skriveru" name="Skriveru"/><path id="LVA5732" d="M624.3 374.5l0.4 2.3-0.7 3.4 2.1 2.5 8.4 0.6-1.3 0.7 2.7 1.1 2.7-0.2 1 0.6-0.1 1.4-1 2.6-3.2 3-2.3 7.3 1 3 1.9 2.5 2 5.3-0.5 1.6-1 0.5-2.3 2.8-2.6 0.7-3.4 0-2.5 2.1-4 4.3-2.8 1.4-8.6 0.6-8.5-2.6-4.9 0.2-0.3 3.2-22.1-1.4-8.1 2.7-3.2-15.2-3.2 0.9-2-8.9-2.5-13.8-5.4 0-0.8-6.9 2.6-0.8 10.1-2.1 2-2.8-1-2.7 4.2-2.3 5.2-0.8 2.8 1.3 3.4 1.6 7.2 6 2.7 0.8 8-1.3 5.1-1.7 5-4.2 4.4-4.1 3.4 0.9 5.7 3.6 3.1-0.1 1.2 0.4z" data-id="LVA5732" data-name="Jaunjelgavas" name="Jaunjelgavas"/><path id="LVA5733" d="M657.1 439.5l0.3 5.5-0.3 7.2-7.4 1.7 1.9 16 0 5-2.8 6-3.3 10-8.2 0.6-2.4-0.4-6.9-3.4-9.3 1.7-14.6-2.5 1.4-2.1 1.7-1.4 4.4-0.4 0.6-1.7-1.7-4.8 1.1-7.3-4.3-6-2.2-1.5-2.6-3.5-3.7-2.9 0.1-2.6 1.8-2.8 2.4-1.9 2.9-1.4 1-1.2-1.2-1.8-7.7 1-1.3-1.6 0.8-3.1-0.5-4 0-2.9-0.6-7.6 0.3-3.2 4.9-0.2 8.5 2.6 8.6-0.6 2.8-1.4 4-4.3 2.5-2.1 3.4 0 2.6-0.7 2.3-2.8 1-0.5 0.5-1.6 2.9 5.1-0.6 3.9 3.4 5.5 3.1 3.9 2.4 6.6 7.1-0.5 0.9 4.4z" data-id="LVA5733" data-name="Viesites" name="Viesites"/><path id="LVA5734" d="M697.2 506.8l-2.4-2-2.5 1.7-1 1.1-3.8 3.3-1.8 0.2-2.1-2.2-1.4-2.3-11.7-10.6 0.5 3.3 0.4 1.3 1.8 2.8 1.2 2.8-1.5 1.7-0.6 2.3-0.9 1.8-3.8 2.5-2 2-4.1-4.6-7.9-5.5-1.6-1.7-1.3-2.6-2.5-8.3-1-2.2-1.7-0.7 3.3-10 2.8-6 0-5 8.6-0.6 6.1-1.1 5.2 2.2 5.2 1.2 2.8 4.9 1.2 7.7 9.8 5.5 0 5 1.2 4.4 3.7 0.5 1.8 7.2z" data-id="LVA5734" data-name="Aknistes" name="Aknistes"/><path id="LVA5735" d="M549.2 382.8l0.8 6.9 5.4 0 2.5 13.8-12.8 2.2-1.2 3.6-1.5 3.1-3.2 1.4-0.9 2.9-1.9 1.8-0.5 2.7-0.2 2.7-0.9 2.2-1.1 0.3-3-1.3-1.4 0.1-17.5 7.8-5.4 4.3-9.2 12.5-6-3.1-6.6 3.1-1.8-5.4 3.2-3.1 2-4.4-7.4-1.3-0.7-3.6 9.3-4 2.2-3.1-2.4-11.1-5.4-7.2-5 2.2-1.4-4.9-3.7-4-2.7-4.9 1-5.8-5.5-3.1-3.7 0.4-1.7-12 8.1-1.8-1.7-10.7 2.6 0.5-0.2-1.7 1.5-1.1 4.3-0.9 1.8-0.8 2.1-1.7 5.4-5.1 5.4-2.2 4.7 1.6 6.2 0 4.6 7.6-6.1 4 0.4 4.5 0.9 5.6 2.4 3.3 1.8 1.5 3.7 0.4 0.8 0.7-0.2 2.2 1.7 0.4 2.4 1.2 0.9 1.4-3.6 2.3-2 5.8 10.4-0.1 30-8.6z" data-id="LVA5735" data-name="Vecumnieku" name="Vecumnieku"/><path id="LVA5736" d="M467.3 362l1.7 10.7-8.1 1.8 1.7 12 3.7-0.4 5.5 3.1-1 5.8-5-1.8-6.1 0.5-6.7 4-2.4 4.5-5.4-2.3-6.2-3.5-6.1-1.4-3.7-1.4 1.3-3.9 2.4-3.3 0.6-2.7-0.4-1.4-3.5-0.3-3.6-1-2-1.7-2-2.5 0-1.3 3.1-0.8 1.2-2-0.8-2.3-0.1-1.8-2-1.5-3.7-4.4 1.1-1 0.8 1.1 2.6-0.7-1.2-6.8 7.4 1.6 4.2 2.7 1.8 0.7 2.4 0.1 1.6-0.5 1.7-2.1 0.2-1.7 1.5-1.8 1.5 0.2 1.9-0.5 2.9-1.5 2.1-1 1.7 0.6 0.7 2.7 1.6 1.6 2.7 2.1 5.7 3 2.7 0.5z" data-id="LVA5736" data-name="Iecavas" name="Iecavas"/><path id="LVA5737" d="M417.9 344.7l0.2 2.3 1.4 2.9-1 3.6 4.5 1.8 1.2 6.8-2.6 0.7-0.8-1.1-1.1 1 3.7 4.4 2 1.5 0.1 1.8 0.8 2.3-1.2 2-3.1 0.8 0 1.3 2 2.5 2 1.7 3.6 1 3.5 0.3 0.4 1.4-0.6 2.7-2.4 3.3-1.3 3.9 0.3 2-5.2 6.1-3.5 0.2-3.5-0.1-3.1-4.1-0.8-8.9-3.2-6.3-3.9-7.1-6.4-1.8-5.2-3.2-5-4.7 2.2-1.8-2-6.9-8.5-2.2-2.9-4.1-3.7 2.3-1.8-4.5 4.2-1.4 0-4 7.6-1.8 1.5 1.6 2.3 1.4 2.4 0.7 3.7-2.2 10-1.9 1.7 0.1 0.9 0.8 0.7 2 2.3 1.4 7.6-0.5z" data-id="LVA5737" data-name="Ozolnieku" name="Ozolnieku"/><path id="LVA5738" d="M420.8 401.9l1.7 6.1 0.8 7.5 0.2 5.4 3.7 2.6 6.9 3.6 5.7 3.6-4 4.4-4.9-3.5-3.2 0 0.7 4.8-4.4 3.2-0.7 4.8-7.5 4.7-15.2-4.9-0.3-2.8 0.3-5.9 1.2-4.3-0.8-1.2-5.2 0.4 0.1-1.4 0.9-2.1 1-4.2-0.1-1.2-1-1-0.3-1.7 2.9-3.5 1.9-3.6 1.5-0.8 4.7-1.7 1.6-2.5 2.5-1.3 1.7-2.4 4.1-1.2 3.5 0.1z" data-id="LVA5738" data-name="Rundales" name="Rundales"/><path id="LVA5739" d="M337.8 404.1l2.2 3.9-0.7 2.2-1.7 2.3 0.7 2.5 1.7 1.1 1.2 2.1 1.4 3.7 1.7 3.7 0 2.2-0.7 1.6-2 2.4-3.1 1.5-4.8 3.8-1 1.5-9.2-4-3.1-0.6-16 3.8-2.7-8-4.7-4.9 4.2-5.8 3.2-4.5 5.9-0.8 8.3 0 4.7-1.4-2.9-2.2-2-5.4 5.7-5.8 5.6-8 3.7 0 1.5 6.7 2.9 6.4z" data-id="LVA5739" data-name="Tervetes" name="Tervetes"/><path id="LVA5740" d="M301.2 419.1l-4.2 5.8 4.7 4.9 2.7 8-2.5 1.6 1.2 2.6-6.9 7.5-6.9 1.7-6.3-4.9-4.9-12.3-3.3-7.2-4.5-2.5-4.9 0.9-4 2.9-5.2-1.4-5-3.9-2.5-0.9-5.7-0.7 1.4-4.8 1.6-2.9-0.9-5-5.5-4.4 1.4-18 3.3 0 2.7 0.8 2.5-1.3 3.4-0.2 3.5 1.6 1.4 5.3 2 0.5 2-3.6 4.7-3.6 4.6-0.4-0.7-4.9 4.9-3.2 2.7 5.9 5.7-3.2 2.7 3.2 3.4 6.7 3 1.3-0.2 5.4 0.4 11.1 4.5 2.2 1 6.3 2.7 3.1z" data-id="LVA5740" data-name="Auces" name="Auces"/><path id="LVA5741" d="M829.4 307.6l-2-3.2-1.2-5.7-1.1-1.8-4.2-2.8-1.7-1.9 0-2.1 0.8-5.5-2-2.2-3.4-0.1-1.1 0.5-1.4-1.7 1.6-4.9-1.5-3.9 5.7-5.4 3.8-2.7 3.3-3.8 3.5-7.8 2.2-2.4 1.8-2.3 5.8 0.6 6.5-0.5 0 5.7 2.9 1.8 4-1.2 7 2.9 10 3.5 4.7-0.6 2.8 1.1-1.6 9.3-3.4 6.3-4.7 1.7 0.9 5.2 3.5 0 3.7-1.7 2.6 10.9-5.7 2.3-3.4 2.9-5.7 5.2-3.4 8.6-4.7 0-11.3-3.5-6.6-2.3-7 1.5z" data-id="LVA5741" data-name="Rugaju" name="Rugaju"/><path id="LVA5742" d="M934.1 268.9l-7.7 2.1-7.2 1.2-0.9-5.2-5.7-1.2-5 1.2-1.6-9.8-3.7-0.6-8.2-8.6-7.2-11.6 3.1-13.3 2.8-8.1 5.7-7.7 2 2.4 2.4 1.3 1-0.1 4 0.3 2.2-4.6 2.2-1.5 1.7-3.8 7.2-4.1 1.4-1.2 1.4-0.5 2.2-3.1 0.8-6.1 1.9 2.1 13.9 8.7 2.6 2.3 1.7 3.7 0.8 5.9-0.7 14.3-1 7.8-1.3 5.4-4.2 4-12.8 6.3-2.6 3.8 1.9 4.6 3.6 1.9 3.2 2.5 0.8 6.5-0.7 2.8z" data-id="LVA5742" data-name="Vilakas" name="Vilakas"/><path id="LVA5743" d="M920.1 316.8l-1 1.3-3-2.1-2-1.9-2.7-1.3-2.7-3.3-1.6 0.9-2.7 1-1.7 1.3-9.8 1.3-1.6-7.9-2.5-4.6 3.7-3.4 6.9 0.6 6-5.2-2.5-5.2 12.8-7.5 7.3-1.1-3.8-7.5 7.2-1.2 7.7-2.1-2.2 5.5-0.9 2.8-0.4 2.5-0.3 5.1-0.4 2.8-9.2 19.7-2.8 8.9 2.2 0.6z" data-id="LVA5743" data-name="Baltinavas" name="Baltinavas"/><path id="LVA5744" d="M950.6 341.7l-3-0.2-3.2 3.9 0 9.8-2.5 5.8-5.7-6.5-16.1 1.3-7.1 7.8-1.7 9-3.9-4.4-1.4-2-2.3-1.7-3.2-1-1.9 0.6-1.6-1.3-0.6-1.2-0.2-2.7 1.3-1.7 0.9-3.2-2.1-11.8-2.2-7.8-7.1-3.3-8.8 0.5 1.1-0.4-0.4-4.3 0.5-1.4-0.1-2 1-1.7 1.9-0.7 1.1 1 0.9-0.2 1.6-1.7-0.6-1 3-3.3 2.1-1.5 2.6-0.4 9.8-1.3 1.7-1.3 2.7-1 1.6-0.9 2.7 3.3 2.7 1.3 2 1.9 3 2.1 1-1.3 2.3 0.6 11.4-6.4 5.9-1.7 6.1 1.8 2.9 2.5 5.4 6.2 3.1 2.4 0.7 3.6-2.6 5.7-3.3 6-1.4 4.2z" data-id="LVA5744" data-name="Karsavas" name="Karsavas"/><path id="LVA5745" d="M950.6 341.7l2.3 4.3 13.6 9.6 1.4 4.3 0.1 11.3 0.7 5.3 1.9 4.1 2.4 2.7 11 5.3 2.4 1.9 0.9 2.9-1 2.2-3.6 3.5-0.8 2.9-5.4-4.1-9-1.3-6 5.2-3.6 5.1-4.6-3.8-2.9-7.8-7.1-5.8-5 2.6-2.8 5.1-4.3-3.2-4.6-8.4-4.7 0-7.5-1.9-5.7-0.2 0-6 2.6-4.9 1.7-9 7.1-7.8 16.1-1.3 5.7 6.5 2.5-5.8 0-9.8 3.2-3.9 3 0.2z" data-id="LVA5745" data-name="Ciblas" name="Ciblas"/><path id="LVA5746" d="M992.2 420.6l-0.5 8.5 0.4 5.7 1 5.1 5.6 16.9 0.3 2.6-0.3 3.7-0.8 1.9-1.1 1.6-1.1 2.7-1.2 5.8-0.8 5.9-1.3 5.4-2.8 4.8-5.2-3.5-5.9 2.2-2.4 1.7-1-4.2 2.6-6 2.1-3.6-1-2.9 2.6-7.5 4.3-9-3.5-5.7-7.2-3.9-5.3-4.5-10 5.8-2.1 5.8-7.2 0-3.2-9 5-2.6 5-5.8 5.7-5.8 5 0.7 2.8-2-2.8-5.1-1.8-7.1 6.1-1.3 6.4 3.9 6.8 0 6.8-1.2z" data-id="LVA5746" data-name="Zilupes" name="Zilupes"/><path id="LVA5747" d="M923.3 467l2.7 3.8 2 1.3 2.9 3.2 2.9 1.7 4.8 1 4.5-0.1 1.5 2.6 2.2 0.8 2 0.1 4.8-1.1 1.5 0.8 2-0.1 12.2-4.8 2.7-1.6 1.4-1.2 2.3 0 1.1 1.8 1.2 1 0.8-1.3 1 2.9-2.1 3.6-2.6 6 1 4.2-3.7 2.8-5.9 2.8-5.7 1.3-1.8 0.9-2.1 2.2-1.4 2.7-1.2 3-1.6 3.3-9.4 7.2-4.3 4.5-0.6 5.9-2.3 4.2-4.9-4.9-6.1-3.2-3.5-3.1-1.8 1.2 0.3 7-3.5-0.6-6.4-1.9-15.4-9.6-6.4 0-3.9 3.9-2.5-0.7 1.1-8.3-0.7-5.7-7.5 0-7.2 1.9-3.2-9.6 9.3-3.2 4.3-3.8-1.1-5.2-4.3-5.1-0.6-5.3 6-1.8 10 0.8 1.2-0.8 3.8 0.2-1-3.5 0.9-1.5 2.7-0.9 3-0.4 2.8-1.5 2-1.8 0.6-2.2 1-1 2.3 3.9 2.2 0.8 11.5-1.9 2.2 2.4z" data-id="LVA5747" data-name="Dagdas" name="Dagdas"/><path id="LVA5748" d="M872.1 476.2l0.6 5.3 4.3 5.1 1.1 5.2-4.3 3.8-9.3 3.2 3.2 9.6-10.3 4.5 0.7 10.8-6.4 6.4-6.1-0.7-8.5 1.3-5.7-1.9-4.4-4.4 0.2-1.4-2.2-5.1-0.2-1.7 2.3-4.7-5.2 0.4-5.5-11.5-0.4-5.8 5.6 1.1 1.1-2.9-2.3-2.4 1.6-2.9 5-2.8 4.4-0.4 5.2-2.4 0.9 1 1.4 0.7 3.2 0.6 3.3 0-0.6-2.8 0.7-1.7 3.2-1.7 3.5-3.1 1.6-0.6 1.4 0.6 16.9 1.3z" data-id="LVA5748" data-name="Aglonas" name="Aglonas"/><path id="LVA5749" d="M741.3 503.3l0.4 5 1.2 4.4 1.7 2.9-0.6 5.4 1.6 5.9 2.2 4.9-2.8 5.9-4.8-2.8-2.7 3.6-3.6 2.5-0.7 4 2.3 1.7 2.2 2.4-5.9 6.5 8.2 10.1 1.8 7.3-12.5 1.3-4.3 1.9-3.2-7.5-3.5-5.4-13.6-11.9-8.5-9.6-20.2-13.5-10.4-11.8 2-2 3.8-2.5 0.9-1.8 0.6-2.3 1.5-1.7-1.2-2.8-1.8-2.8-0.4-1.3-0.5-3.3 11.7 10.6 1.4 2.3 2.1 2.2 1.8-0.2 3.8-3.3 1-1.1 2.5-1.7 2.4 2 1.6 2.6 1.3 0.6 1.7-0.3 2.9-2.8 1.7-2.6 0.8-1.6 1.5-1.4 2.8 0.8 3.2-2.7 0.1-2.2-1.9-3.2 9.2-8 1.9-0.6 3.2-0.3 1.9 1.3 3.5 0.7 3.1 1.4 1.1 0.7 1.1 2.2-0.8 2.7 0.2 2 4 7.2z" data-id="LVA5749" data-name="Ilukstes" name="Ilukstes"/><path id="LVA5750" d="M768.1 405l-0.4 5.8 0 5.2 3.1 1.5 2.3 1.6-4.9 14.4-8.5-4.2-2.6 8.3 7.4 6.1 7.7 3.1 2.9 0.5 1.4 9.3-5.4 3.6-7.1 0-9.4 0.5-5.4-4.1-3.2-7.7-3.4 0.5-0.3 9.2-8.2-2.5 2.5 14.3 3.3 9.1-4.8 1.6-5-6.8-2-1.4-1.4-0.2-2.8-1.1-1.5-0.2-2-0.9-0.6-2.1 0.2-5.6 0.9-4.6-0.2-1.9-1.6-1.9-0.2-1.2 0.2-4.9-2.4-5.3-0.4-1.4-0.1-5.1-0.9-4.3-1.7-2.2-4.9-4.1-2.8-0.2 8.9-5.7 5.3-7.1 1.1-3.8 4.6-6.4 3.3-3.3 4.6-1.4 2.6 0.5 1.6 2.2 0.3 2.2 4.1 5.9 1.3 5.9 6.9-3.6 3.2-2.7 3.1-3.2 2.4-1.3 3.2-0.5 4.2 0.6 1.5 1z" data-id="LVA5750" data-name="Livanu" name="Livanu"/><path id="LVA5751" d="M776.5 456.6l5.4 1.5 2.6 4.1 2 10.3-0.3 10.2-3.4 3.1-6-0.5 2 4 4.1 3.7-3.2 3.5-2-2.8-4.6-3.9-0.8-1.4-1.9-0.7-1.8 3.6-0.4 2-4.6 0.4-3.2-8.8-4-3.1-5.3-0.8-4.9-3.3-6.3 1.8-3.3-9.1-2.5-14.3 8.2 2.5 0.3-9.2 3.4-0.5 3.2 7.7 5.4 4.1 9.4-0.5 7.1 0 5.4-3.6z" data-id="LVA5751" data-name="Varkavas" name="Varkavas"/><path id="LVA5752" d="M821.1 415.5l-1.4 3.5-0.7 2.1-1.4 1.6-0.3 1.8 7.5 9.6 2 3.4 3.4 6.9-2.1 2.8-3.5 0.1-0.9 1.7 0.7 3.7 1.5 3.4 3.6 5.2 0.3 3.8 1.2 2.3 0.6 2 2 1.6 1.8 2.1 0.7 1.9 0.2 2.4-0.1 2.9 0.4 1.6-5.2 2.4-4.4 0.4-5 2.8-1.6 2.9 2.3 2.4-1.1 2.9-5.6-1.1-0.8-5.8-2.8-2.5-4.9-3.6-3.4-2.1 4.6-3.5 0.5-3.6-3.4-9.8-4.2-7.1-5.7-2.1-5.5-5.6-5.1-2.1-2-3.6 2.6-8.2 5.7-3.6 3.1-3.1-6.5-8.2-8.6-5.2-4.5 1.1-2 3.1-2.3-1.6-3.1-1.5 0-5.2 0.4-5.8 2.7 0.9 5-0.7-0.4-1.9 0.3-2.5 4.5-9.3 10.8-0.6 2.2 0.8 2.9-4 3.8 0.7 6.1 4 1.5 4-7 3 3.5 1.2 0.9 2.2 1.8 0.7 3.7 0 1.4 0.8 1.1 1.7 5 1.6 7 0.6 0.8 3.9-3.5 1.6-1.1 1.8z" data-id="LVA5752" data-name="Riebinu" name="Riebinu"/><path id="LVA5753" d="M821.1 415.5l1.1-1.8 3.5-1.6-0.8-3.9-7-0.6-5-1.6-1.1-1.7-1.4-0.8-3.7 0-1.8-0.7-0.9-2.2-3.5-1.2 7-3-1.5-4-6.1-4-3.8-0.7-2-4.8 1-2.3 1.8-2.1 5.4-2.8 0.5-0.8-1.7-2.8-0.4-2.8 0.5-3.1-0.4-4.7-0.9-3.5 0.2-0.8 4.9 3.8 6.1 1.9 4.2 5.2 4.3 9.1 9.3 1.9 3.2 7.8 0.4 9.7 4.6 14.2-1.1 4.5-5.7-0.6-9.2 0.8z" data-id="LVA5753" data-name="Vilanu" name="Vilanu"/><path id="LVA5754" d="M469.6 230.6l3.1 1.1 4.2-0.7 5.8-0.4 5.7 19.4-1 2.8-5.9 5.7-7.1 2.8-6.1 1.1-5.7 7.3-4.3-0.7-4-2.8-1.9-4.6 1.5-3.8 1-6 7.7-3.5 2.3-3.9 0.5-8.8 1-5.3 3.2 0.3z" data-id="LVA5754" data-name="Ādaži" name="Ādaži"/><path id="LVA5755" d="M532.3 25.3l2 21 3 0.1 1.3 0.6 1.6 2.3-0.2 1.4 0.6 6.5 0.8 4 0.3 3.1 1.9 2.7 2.3 1 1.6-0.6 1.1 0.4 1 4.5 1.7-2.1 5.8 1.8 1.3 1.3 8.3 7.6 0.9 3.3 2 4.7-1 1.2-1.5 2.6-0.6 1.7 0 2.2 0.9 2.4 1.4 2.2-1 3.5 1.2 5.5-3.7-0.4-0.5 1.7 2.7 3.6 0.2 1.2-3.2 1.5-2.6-0.5-1.3-1.1-1.2-1.9-2.6 0.3-1.9-0.1-3.5 2.1-4.4 4.2-7.3-3.2 1.6-7.2-8.5-3.6-0.9-8.6 0.5-5-4-3.6-7.1 0.4-5.5-4.7-2.1-2.8-6-2.6-7-25.8-3.3-2.9 2.3-3.3-0.4-6.8-0.7-6.5 5.7 0.5 8.4-0.9 2.1-1.8 2.5-7.1 2.1-2.7 4.3 1.1 3.5 2.3 3.6 0.6 1.5-1.3z" data-id="LVA5755" data-name="Alojas" name="Alojas"/><path id="LVA5756" d="M410.5 292.3l-3.5 2.6-2.4 3.7-6 4-4.6 3.6 2.9 9 1.5 5.4-4.2 5.9-5.9-4.5-1.7 5.3-4.8-5.6-2.2-3.5-1.5-4-5.2-5.8-6-3.6-3.5 0-1.8-0.5-11.1-0.8-2.1-10.1 7.9 2.5 5.7 0.4 3.2-2.3 3.4 0.9 4.7 0 4.7-0.9 8.3-2.7 1.8-3.6 2.9 1.8 8.6-1.3 5.4-1.8 4.7-2.7 2.4-4.7 1.8 1 3.5 0.8 1.1 1.3-0.9 1.5-0.8 2.2-5.4 4.5-0.9 2z" data-id="LVA5756" data-name="Babites" name="Babites"/><path id="LVA5757" d="M490.7 339.2l-0.5 9.8-5.4 2.2-5.4 5.1-2.1 1.7-1.8 0.8-4.3 0.9-1.5 1.1 0.2 1.7-2.6-0.5-2.7-0.5-5.7-3-2.7-2.1-1.6-1.6-0.7-2.7-1.7-0.6-2.1 1-3.5-3.6-2.3-1 0.9-5.7 4.6-2.7 3.5 3.1 2.2-1.7-1-4.1-1.2-5.8 5.7-0.9 7.1 0.4 9.3 2.7 7.2 3.2 8.1 2.8z" data-id="LVA5757" data-name="Baldones" name="Baldones"/><path id="LVA5758" d="M466.4 230.3l-1 5.3-0.5 8.8-2.3 3.9-7.7 3.5-1 6-1.5 3.8-2.1-3.1-9.6 5-1.5-0.7-5.3-8.4 13.5-8.9 1.2-3.6 2.6-2.9 3.1-2 2.4-1 0.1-2.7 1.3-1.8 3.3-2.4 2.5-2.9 2.5 4.1z" data-id="LVA5758" data-name="Carnikavas" name="Carnikavas"/><path id="LVA5759" d="M360.3 281.4l-0.3 0.4-10.5 4.8-2.2 3-1.4 1.5 0.5 1.8-4.9 2.5-9.6 4.1-13-1.4-10.6-3.6-7.1 2.3-1-3.7 4.9-4.9 2.7-3.2-3.9-4.5 1.2-6.8 4.9-6.8 2.5-6.8-3.7-9.9-7.4-4.6-5.2-3.6-1.7-4.5 2.7-4.1 1.8-9.5-0.5-8.7-2.3-5.7 0.3-7.1 0.8-3 1-1.8 4.4-1.7 0.6 1.3 1.4 4.2 1.1 5 1.1 8.9 1.1 4.7 2.1 2 1.2 2.4 3.9 23.5 1.4 3.9 1.9 1.6 2.5 0.9 6.5 7.7 11.4 4.7 11.8 2.2 1.7 1.5 6.7 9.9 1.2 1.1z" data-id="LVA5759" data-name="Engures" name="Engures"/><path id="LVA5760" d="M496.2 261.7l-2.6-0.3-3.5 2.3 1.5 12.6-11.1 0-6.9 1.8-0.7 6.8-3.4 6-2.7-3.2-4.4-3-2.4-5.6-2-2.2-1.9-1.7-3.3-1.6-3.5-2.2-6-6.7-2.6-1.2 9.6-5 2.1 3.1 1.9 4.6 4 2.8 4.3 0.7 5.7-7.3 6.1-1.1 7.1-2.8 5.9-5.7 1-2.8 0.8 6.7 5-1 2 6z" data-id="LVA5760" data-name="Garkalnes" name="Garkalnes"/><path id="LVA5761" d="M513.8 303.2l1.3 5.3 4.7 2.2-5 6.8-4.6-3.6-6.9 7.2-4 3.1-3-1.1-5.6 0.6-1.7-0.7-1.1-0.4-4-3.4-2.5-1.4-1.9 0-0.2-1.9 0.7-3.1 0.1-2-0.5-1.7-1-1.5-0.3-1.5 0.6-0.8 2.4 0.1 3.1 1.6 1.7 2.2 1.1 0.4 1.1-0.7 0.5-1.2-0.6-4.7 1.8-0.9 7.4 3.4 16.4-2.3z" data-id="LVA5761" data-name="Ikskiles" name="Ikskiles"/><path id="LVA5762" d="M525.7 242.6l-1.9 5-2.3 4.2 1.4 5.3-7.1 3.8-4 0.7-3.9-3.5-2.8 3.3-6.9 0.5-2-0.2-2-6-5 1-0.8-6.7 6.1-4.6 2.1-3.5 6.9 1.4 6.5 1.8 4.8-3.2 5-2.5 5 0 0.9 3.2z" data-id="LVA5762" data-name="Incukalna" name="Incukalna"/><path id="LVA5763" d="M272.9 313.4l-2.7 5.4 1.2 5.9 5.9 2.2 8.4-1.3 2.7 3.1 1.9 8.6 3.2 9.8 4.2 5.6-3.3 1.8-2.2 0.2-7.6-1-5.8-4-11.4-0.2-3.9 0.6-6.8 2.8-1.6-4.3 1.5-1.2 0.5-1.5-0.3-2-0.8-9.5-4.5-6.3 0.1-1.8 3.8-2.5 4.2-3.6-1.5-5.4 5.4-2.3 4.4 1.4 5-0.5z" data-id="LVA5763" data-name="Jaunpils" name="Jaunpils"/><path id="LVA5764" d="M412.1 279l-2.4 4.7-4.7 2.7-5.4 1.8-8.6 1.3-2.9-1.8-1.8 3.6-8.3 2.7-4.7 0.9-4.7 0-3.4-0.9-3.2 2.3-5.7-0.4-7.9-2.5-2-0.5-0.5-1.8 1.4-1.5 2.2-3 10.5-4.8 0.3-0.4 0.9 0.7 6.5 2.1 8.7 0.9 23.5-5.8 8.6-4.1 0.8 2.4 2.8 1.4z" data-id="LVA5764" data-name="Jurmala" name="Jurmala"/><path id="LVA5765" d="M272.9 313.4l-5 0.5-4.4-1.4-5.4 2.3 1.5 5.4-4.2 3.6-3.8 2.5-9.6 0.5-5.5-1.9-5.1 0.3 0.5-2-1.6-2-6.6-3.3-8-1.1-5.1-2.5 1.3-2.9 2-2.2 0.6-1.3 0.3-1.9-0.1-4 1.2-2.1-0.4-1.1-2-1.1-2.7-0.7-5.2 0.8-1.3-5.4 1.5-0.5 2.2-10.6 5-8 7 1.4 4.4-3.5 6.1 1.6 1.9-6.5-1.1-13.4 3.9-0.8 12.6-3.7 4.4-3.5 2.1-2.7 3.2-0.8 11 0.7 2.7-1.9 3.4 4.5-2 3.2-3.9 2.7-2.2 3.7-7.7 2.7 2 5.4 1.5 5 1.7 4.5-2.2 2.3-4.4 0.9-1.8 8.1 1.8 6.3 5.9 6.4 5.9 2.2 0.2 6.8 0.8 3.6 2.7 4.9z" data-id="LVA5765" data-name="Kandavas" name="Kandavas"/><path id="LVA5766" d="M545.5 327.1l-7 8.4-2.8 1.1-0.9 6.2-3.7 2.2-2.6 3.6 4.8 1.6 4.6 3.3 5.1 12 2 1.9 2.5 0.5 7.4 4.4 4.5-1 0.3 1.1-1 3 4.2-1 1 2.7-2 2.8-10.1 2.1-2.6 0.8-30 8.6-10.4 0.1 2-5.8 3.6-2.3-0.9-1.4-2.4-1.2-1.7-0.4 0.2-2.2-0.8-0.7-3.7-0.4-1.8-1.5-2.4-3.3-0.9-5.6-0.4-4.5 6.1-4-4.6-7.6-6.2 0-4.7-1.6 0.5-9.8 1.1-1.7 0.6-2.8-0.1-1.8-1.9-4.4-1.4-5.5 1.7 0.7 5.6-0.6 3 1.1 1.1 1.5 3.1 5.4 1 0.4 2.8 2.5 2.1 2.5 5 1.6 0.9 1 2.9 4.1 4.9-5.5 3.1-5.6-0.6-5 3.7-1.7 1.5-6.7 3.7 1.7 5.8 3.3 5.2 3.4z" data-id="LVA5766" data-name="Keguma" name="Keguma"/><path id="LVA5767" d="M445.5 306.6l-2.8 3.7 1.7 4 4 5.9 5.6 0.9 7.2 0 4.2-6.7 6.1 2.3 8 1.1 1.9 0 2.5 1.4 4 3.4 1.1 0.4 1.4 5.5 1.9 4.4 0.1 1.8-0.6 2.8-1.1 1.7-8.1-2.8-7.2-3.2-9.3-2.7-7.1-0.4-5.7 0.9 1.2 5.8 1 4.1-2.2 1.7-3.5-3.1-4.6 2.7-0.9 5.7-5.9-2.6-15.1 1.8-3.8 2.8-1.4-2.9-0.2-2.3 1.1-1.8 0.1-6.1 4.2-1.3 6.9 1.3 0.2-4.5 3.7-5.4 1.2-4.9-2.7-3.6-1.7-2.7-0.4-7.6 1.5-0.6 1.8-3.5 2.8-1.5 3.2-1 5.7 5.1z" data-id="LVA5767" data-name="Kekavas" name="Kekavas"/><path id="LVA5768" d="M532.9 176.3l3.1 5.8 2.3 5.7 1.1 1.9 0.3 1.5 3 2.4-0.4 2.3-1.5 1.7-0.1 0.7 3.7 5.1 2.8 2.8 0.9 2.8-0.4 2.4-0.9 3-1.3 2.6-3.2 4.4-2.2 5-3.1 2.4-5.3 1.8-2.5 4.2-1.2 6-2.3 1.8-0.9-3.2-5 0-5 2.5-4.8 3.2 1.4-6-0.2-5.3-2.3-2.5-5.2 0.7-0.5-6.7 6.1-1.8 2.9-3.2 4.3-1-3.8-15.2-5.1-3.6-1.6-4.9 6.5-2.2 2.5-5.3-1.9-10.3 8.2-5.3 0.4 3.5 11.2 0.3z" data-id="LVA5768" data-name="Krimuldas" name="Krimuldas"/><path id="LVA5769" d="M569.5 343.1l-9.5 2.5 1.1 1.6-0.1 1 1.5 2.1 0.9 0.6 0.3 1.1-1.9 1.9-2.4 0.9-1 2.2 0 2.5-0.3 7.7 1.3 4.1-4.5 1-7.4-4.4-2.5-0.5-2-1.9-5.1-12-4.6-3.3-4.8-1.6 2.6-3.6 3.7-2.2 0.9-6.2 2.8-1.1 7-8.4 2.8-2.2 3.4 2.8 10.1 2.2 2.4 5 2.2 3.9 3.1 4.3z" data-id="LVA5769" data-name="Lielvardes" name="Lielvardes"/><path id="LVA5770" d="M576.4 279.5l-1.3 2.4 0.6 7.4-14.7 4.2-4.9-1.4-3.3 1.1-3-1.4-2.3 0.4-2.6 1.2-3.9 3-1.9 0.3-5-1.2-4.6-2 1.2-8.1 0.3-5.9 3.7 1.1 6.2-6.6-1.4-6.7 1.2-4.6-3.1-9.5 1.7-2.8 2.9 4.2 5 1.8 6.6 0.2 0.8 4.9 2.9 2.8 4.1 3 1.1 2.2 1 1 1 0.2 4 2.1 1.2 1.6 3.5 2 3 3.1z" data-id="LVA5770" data-name="Malpils" name="Malpils"/><path id="LVA5771" d="M427.5 305.6l-4.2 4.7-3.2 4-6.2 0.5-11.3 1.8-4.2 4-1.5-5.4-2.9-9 4.6-3.6 6-4 2.4-3.7 3.5-2.6 3.9 1.4 4.3 2.4 3.3 1 1.9 2.5 3 2.9 0.6 3.1z" data-id="LVA5771" data-name="Marupes" name="Marupes"/><path id="LVA5772" d="M423 355.3l-4.5-1.8 1-3.6 3.8-2.8 15.1-1.8 5.9 2.6 2.3 1 3.5 3.6-2.9 1.5-1.9 0.5-1.5-0.2-1.5 1.8-0.2 1.7-1.7 2.1-1.6 0.5-2.4-0.1-1.8-0.7-4.2-2.7-7.4-1.6z m4.5-49.7l0.6 3.4 2.4-0.9 0.4 7.6 1.7 2.7 2.7 3.6-1.2 4.9-3.7 5.4-0.2 4.5-6.9-1.3-4.2 1.3-0.1 6.1-1.1 1.8-7.6 0.5-2.3-1.4-0.7-2-0.9-0.8-1.7-0.1-10 1.9-3.7 2.2-2.4-0.7-2.3-1.4-1.5-1.6 1.1-6-0.6-1 1.3-7 1.7-5.3 5.9 4.5 4.2-5.9 4.2-4 11.3-1.8 6.2-0.5 3.2-4 4.2-4.7z" data-id="LVA5772" data-name="Olaines" name="Olaines"/><path id="LVA5773" d="M531 279.5l-0.3 5.9-1.2 8.1-6.5 4.8-3 1.4-3.1 3.1-3.1 0.4-16.4 2.3-7.4-3.4-1.8 0.9 0.6 4.7-0.5 1.2-1.1 0.7-1.1-0.4-1.7-2.2-3.1-1.6-3.9-9.5-3.2-0.5-4.7-4.5 3.4-6 0.7-6.8 6.9-1.8 11.1 0-1.5-12.6 3.5-2.3 2.6 0.3 2 0.2 6.9-0.5 5.4 12.2 7.9 5.9 6.7-2.3 5.9 2.3z" data-id="LVA5773" data-name="Ropazu" name="Ropazu"/><path id="LVA5774" d="M498.6 34.6l0.7 6.5 0.4 6.8-2.3 3.3 3.3 2.9 7 25.8-6.8 4.7 1.3 9.7-6.3-0.7-0.6 7.5 0.8 3.9-3.3 1.8-3.4-3.2-13.4 2.2 1.1 12.8-0.4 7.9 1.6 0.4-0.2 5.3 3.6 0.7 2.5-0.7 2.7 3.2-1 2.9 8.6 0.7-3.2 5 2.7 8.2 2.3 3.9 1.7 2.5-2.7 3.2-6.5 1.1-1.4 5.3-2.1 2.9-5.3 2.1-7.3 2-1.8-17.8-0.2-9.5-0.7-5.6-1.4-2.6-0.9-3 0.6-6.8 1.7-9.5-1.7-15.1-0.7-3.4-6-10.2-2-4.8 0-4.7-1.5-12.1-0.4-6.2 0.4-3.2 1-3.2 1.4-2.8 6 2.5 3.9-0.2 3.2-1.8 1.6-2.6 2.2-6.2 1.8-2 5.4-2.9 7.3-6.7 2.7-0.6 4 0.4z" data-id="LVA5774" data-name="Salacgrivas" name="Salacgrivas"/><path id="LVA5775" d="M474.2 295.4l3.2 0.5 3.9 9.5-2.4-0.1-0.6 0.8 0.3 1.5 1 1.5 0.5 1.7-0.1 2-0.7 3.1 0.2 1.9-8-1.1-6.1-2.3-4.2 6.7-7.2 0-5.6-0.9-4-5.9-1.7-4 2.8-3.7 8.5 2.3-3-7.8-0.3-6.7 8.5 2.4 3.9 1.3 1.5 5 2.5-3.6 7.1-4.1z" data-id="LVA5775" data-name="Salaspils" name="Salaspils"/><path id="LVA5776" d="M481.9 202l2.1 6.3 1.5 8.2-5.9 0.7-10 13.4-3.2-0.3-2.5-4.1 6.7-7.7 2.9-7.1 1.2-10.2-0.6-12.8 2.9 3.6 0.9 3.5-0.3 3.1-0.6 2.4 0.3 1.9 3.1-1.1 1.5 0.2z" data-id="LVA5776" data-name="Saulkrastu" name="Saulkrastu"/><path id="LVA5777" d="M512.2 220.3l-2.9 3.2-6.1 1.8 0.5 6.7 5.2-0.7 2.3 2.5 0.2 5.3-1.4 6-6.5-1.8-6.9-1.4-2.1 3.5-6.1 4.6-5.7-19.4-5.8 0.4-4.2 0.7-3.1-1.1 10-13.4 5.9-0.7-1.5-8.2-2.1-6.3 1.5 0.3 10.7-5.8 2.2 1.6 1.7 5.5 1.5 0.8 1.7 1.6 2.8 3.5 2.9 7.2 5.3 3.6z" data-id="LVA5777" data-name="Sejas" name="Sejas"/><path id="LVA5778" d="M571.5 249l3.5 5.2 4.3 5.5-5 4 2.4 4.8 2.6 4.7-0.2 4-2.7 2.3-3-3.1-3.5-2-1.2-1.6-4-2.1-1-0.2-1-1-1.1-2.2-4.1-3-2.9-2.8-0.8-4.9-6.6-0.2-5-1.8-2.9-4.2-1.7 2.8 3.1 9.5-1.2 4.6 1.4 6.7-6.2 6.6-3.7-1.1-5.9-2.3-6.7 2.3-7.9-5.9-5.4-12.2 2.8-3.3 3.9 3.5 4-0.7 7.1-3.8-1.4-5.3 2.3-4.2 1.9-5 2.3-1.8 1.2-6 2.5-4.2 5.3-1.8 3.1-2.4 2.2-5 4.7 2.6 4.6 6 0.7 1.8 0.7 4.8 0.8 3.5 0.5 5.2 5.4 1.4 11.8 2.3z" data-id="LVA5778" data-name="Siguldas" name="Siguldas"/><path id="LVA5780" d="M469.5 290.9l4.7 4.5-7.1 4.1-2.5 3.6-1.5-5-3.9-1.3-8.5-2.4 1.6-2.6 1.6-1.3 5.6-2.4 2.9-3.4 4.4 3 2.7 3.2z" data-id="LVA5780" data-name="Stopinu" name="Stopinu"/><path id="LVA5781" d="M633.6 239.5l-3 6.4 3.2 2.3 4.1 0.8 3.3 7.6-0.3 3.5-4.1 4-5.3 7.5-2.6 0-3-3.9-2 2.4 2.4 4.7-0.9 3.4-2.1 0-2.7 1.6-3-0.8 0 2.4 0.8 3.1-3.6 5.3-4.3 2.9-3.2-1.1-0.3-2.9-1.2-3.5-0.9-1.7-1.5-0.9-2.3 0-5.9 3.1-1.3 1.6-1.8 1.5-0.7 1.4-1.3 1.1 0.6 2-2.4 0.1-12.6-4.1-0.6-7.4 1.3-2.4 2.7-2.3 0.2-4-2.6-4.7-2.4-4.8 5-4-4.3-5.5-3.5-5.2 3.5-0.4 4.9-1.5 5.4-7.2-3.2-4.4-1.5-4.7-0.9-6.4-1.7-5.2-2.8-1.6-4.7 0-2-3.6 5.6-4.8 4.8 0.8 5.6-0.4 3.4-5.1 0-2.8 7.8 4 4.3 5.5-0.2 6.8 5.8 0 1.3 3.2-0.7 3.6 2.2 4.4 4.3 0.4 4.5 3.9 2 3.6 5.1 1.2 1.8-1.2 3.2 0 4.3 2.4z" data-id="LVA5781" data-name="Amatas" name="Amatas"/><path id="LVA5782" d="M803.3 131.3l1.4 4.5 0.3 8.7 0 4.1-6.9 0-5 3.5-2.5 16.9-2.2 1.8-6 0-4.1-0.6-2.8 7.2-3.6-1.6-3.2 0.5-1.9-0.8-1.5-2-6.1 0.4 0.7 4.5-0.8 3.1-3.9 1.5-1.8 2-1.7 0.9-3.3 0.9-0.3 1.9 1.3 1.2 2.7-1.2 0.8 0.3 0 1.6-0.9 1.9-8.8 2.4-11.5-2.1 0.2-8.6 1.2-0.3 2.2-2.3-0.4-3.7 0.5-1.7 1-1.6 0.7-4.1 0.8-1.4-0.8-2.4-3-2.5 0.4-1.8 2.3-2.2 1.8-2.3-2.1-0.6 0.1-7.6 6.9-3.4 0.1-1.8-1.1-0.8-1.8-3.8 0.6-3.6 1.6-4.9-0.8-2.4 11 4.7 2.2 2.3 4.7 6.6 2.5 2.9 2.1-0.4 1.9-1.6 1.9-1.1 1.3 0.3 2.5 1.9 1.4 0.4 1.4-0.6 1.1-3.5 0.9-1.7 4.1-3.6 4.5-2.7 4.6-1.5 10.7 0.6 2.4-0.7z" data-id="LVA5782" data-name="Apes" name="Apes"/><path id="LVA5783" d="M662.9 149.7l-7.9 0.8-5.3 4.3-0.6 1.8-2.5 2-7.6-1-5.7 4.5-1.9 2.4-2.8 0.9-2.4-2.3-1.3-0.8-3.5 2-7.4-1.3-3 1.6-0.9-6.1-1.9-4.8-0.2-6.5 2.5 0 5 0.8 2.8-2.4 0.7-5.6 3.2-2.8 3.7-4.8 4-4.4 4.6-2.1 2.9-5.6 5.5-1.6 4.5 0.4 4.3 0.8 1.7 3.2 2.4 3.7-1.9 3.2 2.6 1.6 3.2 0 4.1 4.4-1.5 1.2-5.2 0.4 1.3 3.2 4.9 1.1 4.2-1.9 1.7 3.2-6.3 6.5z" data-id="LVA5783" data-name="Beverinas" name="Beverinas"/><path id="LVA5784" d="M589.9 72.3l3 1.2 0.4 4.5 5.8-1.3 9.1-1.2 10.5-0.4 5.4 0 8.1-0.8 1.6 2.6 4.3 2.3 2.8 4 6.1 2 3.9 3.3-2.4 4.4-6.9 0.4-2.8 5.7 0 7.2-9.8 2.5-2.8 3.3 3.3 4.3 7.9 4-2.9 5.6-4.6 2.1-4 4.4-3.7 4.8-3.2 2.8-2.4-4.8-3.9 0-4.5 1.6-3.7-4.4-5.4-4.8-4.7-2.1-1.3-5.6-5.2-6-0.8-2.4-3.7-1.7-1.3-4.8-4.5 2.8-4.8 2.4-3.8 0-1.2-5.5 1-3.5-1.4-2.2-0.9-2.4 0-2.2 0.6-1.7 1.5-2.6 1-1.2-2-4.7-0.9-3.3-8.3-7.6 2.4-4.6 3.6 0.4 4.3 0 2.8 3.2 2.2 0.4 0.6-2.4-1.3-4.9-1.5-2.8 4.1-1.6 2.2 2.8 9 7.3 3.1 1.2z" data-id="LVA5784" data-name="Burtnieku" name="Burtnieku"/><path id="LVA5785" d="M744.6 265.6l0.9 3.3 1.1 6.7 3 4-1.7 4.7-2.6 3.6-3 1.9 0.8 4.4-4.5 0-5.4-2.4-2.6 2.4-6.2 0.8-3.1-6-4-0.3 0.2-3.2 1.9-4.8-1.3-5.5-0.2-7.1 1.5-6-0.5-6.2 4.5-1.6 7.7 0.5 6.9-2.7 1 6.6 5.6 6.9z" data-id="LVA5785" data-name="Cesvaines" name="Cesvaines"/><path id="LVA5786" d="M678.1 285.9l4.7 5.1 3.2 2.8 1.3 2-0.9 4.7-4.3 0-3.4 1.6-4.3-1.6-3.3 1.6-8.4 2.4-0.8 2.7-2.8 3.2 1.2 3.9 1.1 5.9-2.6 0.6-0.9 1.9 1.2 0.9-0.3 3.4-1.7 3-0.5 1.7-5.3 3-3.2-4.7-3.7-0.7-5-2.6-6-0.1-7.8-2.6 0.2-3.4-0.8-3.9-1.2-1.1-1.1-1.9-0.1-3.3 10-1.7-3-2.8-2.5-3.3 0-1.3 1.1-2.6 1.1-2-0.1-2.8-1.2-2.8-0.8-3.2-1.2-2.1-0.1-2.1-2-2.1-0.6-3.4 2.1 0 1.9-0.1 6.6 3.3 2.3 0 2.8-0.6 4.3-2.6 0.7 2.6-0.7 2.4-0.6 3 9.4-5.8 1.1-2 3-1.2 3.8 1.3 2 2.5 1.4 0.6 2.2-1 2.5-0.4 2.2 1.1 1.6 2.2 1.7 2.8 4.5-0.4z" data-id="LVA5786" data-name="Erglu" name="Erglu"/><path id="LVA5787" d="M709.8 257.1l-3.7-2.1-3.4-0.6-1.2 1.1-1.1 1.9-1.4 0-2.2-0.7-10-5.3-3.7 0.8-5.7 0-2.6-5.9-3.2 0-4.8-3.6-4.1-4.8-1.5-4 1.1-7.5 3.6-2.4 2.9 0.4 4.3 2.8 2.5 2.8 3.5 0 7.1-1.6 6-4 3.4-3.6 6.7 1 1.9 0.6 1.8 1.2 1.8 2.2 4.1 7.5 5 7.2-0.3 2.3-0.7 1.4-2.9 5.2-0.9 2.9-2.3 4.8z" data-id="LVA5787" data-name="Jaunpiebalgas" name="Jaunpiebalgas"/><path id="LVA5788" d="M608.2 136.8l-0.9 5.6 0.7 4.8 0.2 6.5 1.9 4.8 0.9 6.1 0.8 1.6-1.8 1.8 0.9 4.3-0.8 3.3 0.1 1.9-0.9 1.2-4.1 0.3-3.1-3.1-0.8-1.6-0.8-0.5-3 0.4-3.9-0.3-4.8-2.6-3.7-0.4-1.9-1.3-1.7-2.1-6.1-8.1 0-3.4-2.4-5.1-3.5 1.8-2.5-3.2 1.1-0.9-0.9-1.8-2-0.5-1.7 0.3-1-1.1 0.6-0.6 0-1.6-0.7-2.8-3.3-5.1-2.5-1.8-2.7-0.4-7.1 1.9-2.3 0.2-2.9-3-2.1-4 0.2-10.7 7.3 3.2 4.4-4.2 3.5-2.1 1.9 0.1 2.6-0.3 1.2 1.9 1.3 1.1 2.6 0.5 3.2-1.5-0.2-1.2-2.7-3.6 0.5-1.7 3.7 0.4 3.8 0 4.8-2.4 4.5-2.8 1.3 4.8 3.7 1.7 0.8 2.4 5.2 6 1.3 5.6 4.7 2.1 5.4 4.8 3.7 4.4z" data-id="LVA5788" data-name="Kocenu" name="Kocenu"/><path id="LVA5789" d="M571.5 249l-11.8-2.3-5.4-1.4-0.5-5.2-0.8-3.5-0.7-4.8-0.7-1.8-4.6-6-4.7-2.6 3.2-4.4 1.3-2.6 6.6 2 9.3-0.8 5.8-1.6 2 3.6 4.7 0 2.8 1.6 1.7 5.2 0.9 6.4 1.5 4.7 3.2 4.4-5.4 7.2-4.9 1.5-3.5 0.4z" data-id="LVA5789" data-name="Ligatnes" name="Ligatnes"/><path id="LVA5790" d="M812.1 281.1l1.4 1.7 1.1-0.5 3.4 0.1 2 2.2-0.8 5.5 0 2.1 1.7 1.9 4.2 2.8 1.1 1.8 1.2 5.7 2 3.2-0.6 3.2-3.8 4.7-2.8-4.7-3.2-2-3.5 0-0.2-3.2-3-3.5-3.2 0-5.2 1.2-10.1 1.2-2-3.2-4.5 4.7-0.9 4.4-7.3 8.6-1.5 3.6-4.3 3.5-2.4-1.1-3.4 1.9-3.3-2.7 0.7-3.2-1.7-2-4.3-5.5 13.1-23.6 4.8-1.3 4.4-2.9 7.7-3.3 0.8 1.2 0.9-0.2 3.1-2.2 1.2-1.4 3.1-1.2 3.3 0.1 2 0.9 8.8 1.5z" data-id="LVA5790" data-name="Lubanas" name="Lubanas"/><path id="LVA5791" d="M589.9 72.3l-3.1-1.2-9-7.3-2.2-2.8-4.1 1.6 1.5 2.8 1.3 4.9-0.6 2.4-2.2-0.4-2.8-3.2-4.3 0-3.6-0.4-2.4 4.6-1.3-1.3-5.8-1.8-1.7 2.1-1-4.5-1.1-0.4-1.6 0.6-2.3-1-1.9-2.7-0.3-3.1-0.8-4-0.6-6.5 0.2-1.4-1.6-2.3-1.3-0.6-3-0.1-2-21 2.9-2.7 3.3-2.2 10.6-1.5 3.5-2.5 10.2-10.5 3-1.9 3.2-1 2.1 6-0.6 4.9-1.3 5.6 1.3 5.7 3.8 1.3 0.7 5.2-1.7 1.7 1.2 5.3 4.6 4 3.9 2.4 2.3 4.5 0.7 4.1 4.1 5.2 0.4 8.1-0.6 5.3z" data-id="LVA5791" data-name="Mazsalacas" name="Mazsalacas"/><path id="LVA5792" d="M647.8 42.8l-1.8 13.1-5.5-0.6-4.2-4.4-1.2 0.6-2.4 0.2-3 1.4-1.7 1.5-2.9 0.1-4.4-1.4-0.5 3.6 6.2 4.9 2.1 2.8 2.2 2.4 1.8 1.2 0.7 2.2-1 3.9-8.1 0.8-5.4 0-0.4-6.9-4.7 0-1.5-8.1-3.5-9.3-3.2 0.4-3-5.6-5-0.5-4.1-2-1.3-6.5 2.4-4 3.2-4.5 3.5-5.3 1.9 1.6 0.7 4.9 3.4-0.8 4.5-0.4 0.5-5.3 1.7-4.4 5.2 6.3 5.4 3.5 4.9 1.1 1.3 0.9 1.2 1.9 0.4 3.5 0.7 2 2.9 3.8 3.1 1.9 3.2 0.5 3.4-0.3 2.3-0.7z" data-id="LVA5792" data-name="Nauksenu" name="Nauksenu"/><path id="LVA5793" d="M609.3 178.7l-1.3 4.2-2.8 3.2-5.2 0.4-4.5-1.2-5.6 3.2-2 4.4 0 8.8 0 2.8-3.4 5.1-5.6 0.4-4.8-0.8-5.6 4.8-5.8 1.6-9.3 0.8-6.6-2 0.9-3 0.4-2.4-0.9-2.8-2.8-2.8-3.7-5.1 0.1-0.7 1.5-1.7 0.4-2.3-3-2.4-0.3-1.5-1.1-1.9-2.3-5.7-3.1-5.8-4.4-4.1-0.1-1.4 1.9-0.5 4.6 1.7 4.1-0.2 1.5-2 12.8-8.2 1.2-2.1 2-1.6 1.3-2.2 4.5-1.7 1.1-2.3 1.2-1.7 2.4-0.5 2.5 3.2 3.5-1.8 2.4 5.1 0 3.4 6.1 8.1 1.7 2.1 1.9 1.3 3.7 0.4 4.8 2.6 3.9 0.3 3-0.4 0.8 0.5 0.8 1.6 3.1 3.1 4.1-0.3z" data-id="LVA5793" data-name="Pargaujas" name="Pargaujas"/><path id="LVA5794" d="M646.6 158.6l-1.1 6.3-3.3 8.8-2.8 2.4-0.4 4.8-3.7-0.8-4.1 0.8-4.7 4.4 0.2 3.6 2.8 2 2 4.4 1 4 3.3 2.4 2.6 2.8 0.4 5.1-0.2 4.4-3.3 2.8-2.1 3.6-2 2.4-3.2 1.2-3-2 0-8.4-1.5-3.6-3.3-3.5-5.3-3.2-4.6-3.2-4.3 1.6-4.3 1.2-2.8-1.2 1.7-3.2-1.7-1.2-5.2-1.2-2.6-2-3.2-1.2 2-4.4 5.6-3.2 4.5 1.2 5.2-0.4 2.8-3.2 1.3-4.2 0.9-1.2-0.1-1.9 0.8-3.3-0.9-4.3 1.8-1.8-0.8-1.6 3-1.6 7.4 1.3 3.5-2 1.3 0.8 2.4 2.3 2.8-0.9 1.9-2.4 5.7-4.5 7.6 1z" data-id="LVA5794" data-name="Priekulu" name="Priekulu"/><path id="LVA5795" d="M686.2 141.8l2 3.8 0 5-3.4 5-5.4-2.5-8.4-1.9-8.1-1.5 6.3-6.5-1.7-3.2-4.2 1.9-4.9-1.1-1.3-3.2 5.2-0.4 1.5-1.2-4.1-4.4-3.2 0-2.6-1.6 1.9-3.2-2.4-3.7-1.7-3.2-4.3-0.8-4.5-0.4-5.5 1.6-7.9-4-3.3-4.3 2.8-3.3 9.8-2.5 0-7.2 2.8-5.7 6.9-0.4 2.4-4.4 6.4 1.8 15.4-5.6-2.7 11.9 4.1 0.7 0.3 5 17.8 3.1-1.3 5.7-2.7 7.5-3.7 3.2-7.7 1.2 3.3 3.8 0.3 5-2 5 1 5 6.8 0z" data-id="LVA5795" data-name="Strencu" name="Strencu"/><path id="LVA5796" d="M613.8 18.4l-1.7 4.4-0.5 5.3-4.5 0.4-3.4 0.8-0.7-4.9-1.9-1.6-3.5 5.3-3.2 4.5-2.4 4 1.3 6.5 4.1 2 5 0.5 3 5.6 3.2-0.4 3.5 9.3 1.5 8.1 4.7 0 0.4 6.9-10.5 0.4-9.1 1.2-5.8 1.3-0.4-4.5-3-1.2 0.6-5.3-0.4-8.1-4.1-5.2-0.7-4.1-2.3-4.5-3.9-2.4-4.6-4-1.2-5.3 1.7-1.7-0.7-5.2-3.8-1.3-1.3-5.7 1.3-5.6 0.6-4.9-2.1-6 6.5-0.1 3.5 2.4 1.9 5.3 1.3 6.4 1.7 5.6 2 1.7 2.2 0 4.4-2.2 2.7-3.7-0.9-4.1-3.9-7.1 0.2-4.5 1.7-1.7 2.5 0.5 2.5 2 0.9 1.8 1.7 4.7 0.8 1.5 1.3 0.8 1.7-0.7 1.4-0.1 5.6 3 3.1 3.9z" data-id="LVA5796" data-name="Rujienas" name="Rujienas"/><path id="LVA5797" d="M662.3 226.4l-1.1 7.5 1.5 4 4.1 4.8 4.8 3.6 3.2 0 2.6 5.9 5.7 0-2.1 6.9-0.2 2.2-0.9 2.9-0.5 6 1.2 3.1 2.1 3.5 0.5 1.8-0.8 4.5-4.3 2.8-4.5 0.4-1.7-2.8-1.6-2.2-2.2-1.1-2.5 0.4-2.2 1-1.4-0.6-2-2.5-3.8-1.3-3 1.2-1.1 2-9.4 5.8 0.6-3 0.7-2.4-0.7-2.6-4.3 2.6-2.8 0.6-2.3 0-6.6-3.3-1.9 0.1 0.9-3.4-2.4-4.7 2-2.4 3 3.9 2.6 0 5.3-7.5 4.1-4 0.3-3.5-3.3-7.6-4.1-0.8-3.2-2.3 3-6.4 1.3-6 0.4-8.3-2.1-4.8 2.1-3.6 3.3-2.8 0.2-4.4 5.2 0 4.3-2.3 5.4 1.9 4.9-2.2 1.3-0.6 2.1-0.3-1.2 5.9-1.1 2.8-1.1 8 3.7 3.6z" data-id="LVA5797" data-name="Vecpiebalgas" name="Vecpiebalgas"/><path id="LVA5798" d="M736.6 149.7l-0.1 7.6 2.1 0.6-1.8 2.3-2.3 2.2-0.4 1.8 3 2.5 0.8 2.4-0.8 1.4-0.7 4.1-1 1.6-0.5 1.7 0.4 3.7-2.2 2.3-1.2 0.3-0.2 8.6 0.6 3.3-0.6 2.5-1.5 1.8 0.2 3.1-0.6 1.8-18.1 1.4-4-0.4-3.5 1-2.4 2.2-2.1-3.7-2.1-0.4-2.1-1.6-2.9-0.6-11.2 0.9-2.6-0.4-1.6 0.5-15.2 1.9-2.1 0.3-1.3 0.6-1.1-2.4-0.5-3 0.8-4.2-0.3-1.7 0.5-1.7 1.8-0.9-0.3-2-4-6-2.4-5.8 1.2-4.4-6.4-13.2-1.3-3.1 2.5-2 0.6-1.8 5.3-4.3 7.9-0.8 8.1 1.5 8.4 1.9 5.4 2.5 3.4-5 0-5-2-3.8 4.3-5 10.1-2.5 6.1 0 4-2.5 4.4 5.7 4 0 7.7 1.2 0.7 5 5.1-0.6 2.7-0.6 1.3 7.2z" data-id="LVA5798" data-name="Smiltenes" name="Smiltenes"/><path id="LVA5799" d="M701.8 209.5l0 3.6-1.3 0.3-4.8 0.1-1.4 1.5 1.3 5.8-3.4 3.6-6 4-7.1 1.6-3.5 0-2.5-2.8-4.3-2.8-2.9-0.4-3.6 2.4-3.7-3.6 1.1-8 1.1-2.8 1.2-5.9 15.2-1.9 1.6-0.5 2.6 0.4 11.2-0.9 2.9 0.6 2.1 1.6 2.1 0.4 2.1 3.7z m-43.2-2.5l-4.9 2.2-5.4-1.9-4.3 2.3-5.2 0-0.4-5.1-2.6-2.8-3.3-2.4-1-4-2-4.4-2.8-2-0.2-3.6 4.7-4.4 4.1-0.8 3.7 0.8 0.4-4.8 2.8-2.4 3.3-8.8 1.1-6.3 1.3 3.1 6.4 13.2-1.2 4.4 2.4 5.8 4 6 0.3 2-1.8 0.9-0.5 1.7 0.3 1.7-0.8 4.2 0.5 3 1.1 2.4z" data-id="LVA5799" data-name="Raunas" name="Raunas"/><path id="LVA5800" d="M800.1 357.2l-0.2 0.8 0.9 3.5 0.4 4.7-0.5 3.1 0.4 2.8 1.7 2.8-0.5 0.8-5.4 2.8-1.8 2.1-1 2.3 2 4.8-2.9 4-2.2-0.8-10.8 0.6-2.7-0.2-1.7-0.6-1.3-1.1-0.5-3 1.5-7.9-9.8-1.2-5.3-1.6-11.4-6.9-3.6-0.6 1.8-10.4 20.3 0 5.6-3.6 4.3 0.4 2.6-3.5 3-3.1 4.7-1.2 3.5-0.4 0.4 3.9 4.5 2.8 4 3.9z" data-id="LVA5800" data-name="Varaklanu" name="Varaklanu"/><path id="LVA934" d="M178.7 175.7l2.4 2.7 0.7 1.5 0.6 7.7 0 4.3 1.2 3.3 1.9 8.3-0.6 0.6-0.4 2.6-0.6 1.3-3.2 1.6-5.6 5.5-5.4 7.9-0.8 3.5 0.3 0.8 1.9 1.2 0.3 3.3-0.9 3-0.6 4.3 0 4.3-0.4 1.9-2.7 2-10.7 3.8-2.7-0.1-8.3-3-2.6 1.7-6.1 2.2-2.1 0.3-10.6-0.5-1.4 0.2-3.8 3.4-5.4 0 0.9-2.6 0-2.2-3.1-0.8-7.6-2.4-2.7 0.6-3.8-0.5-3.2 0.5-2.1 2.6-4.5 4.3-2.7 0.4-4.8 3.8-4.5-1.3-0.4 4.4-1.9 1.8-0.6 5.7-1.6 4 0.2 6.7-0.4 3.8-2.4 2.8-1.1 2.7-7 1.8-1.5-3.6-3.1-2.5-4.2-1.8-0.5 0 4.4-4 3.1-4.9 2.6-7.2 1.7-9.1 0.1-10.3-0.4-2.7-1.5-6.8 0.3-2.7 1.3-3.6 0.3-2.2-0.3-16.6 0.3-5.3 0.9-4.5 1.7-4.6 2.2-3.4 2.4-1.4 1.8-2.1 4.4-11.5 4.1 9.6 3.3-0.3 3.6-4.7 4.8 1.6-0.7-8.9 7.3-3-4.4-14.3-1.4-2.5-1.5-1.7 10.7-21 4.2-4.8 5.8-3.1 25.3-1.8 6-1.9 26.9-14.7 1.6 7.9 0.9 1.5 1.5-0.5 1.6 0.8 1.6 5.2-0.2 2.9 0.7 3.2 1.2 3 1.3 2.3 0.5 1.6 0.3 8.1-0.4 2.6-9.3 6-2 1.9-2.1 1.2 0.4 3.2-1.4 2.1-4 3.5-8.3 3.6 10.2 4.8 4.8 0.8 8-1.4 2 2.3z" data-id="LVA934" data-name="Ventspils" name="Ventspils"/><circle id="0" cx="394.7" cy="370.2"/><circle id="1" cx="920.1" cy="231.7"/><circle id="2" cx="760.3" cy="348.2"/></svg>