<svg xmlns="http://www.w3.org/2000/svg" width="1000" height="791" fill="#7c7c7c" stroke="#fff" stroke-linecap="round" stroke-linejoin="round" stroke-width="2" baseprofile="tiny" version="1.2" viewbox="0 0 1000 791"><path id="MKD2894" d="M255 650.4l-0.2 2.9 3.6 3.9 0.8 4.7-0.8 5.9-3.9 6.6-3.8 3.6-3.3 2.3-1.5 5.1 0 5.9 2.7 3.1 6.8 1.2 1.7 1.4 0 4.7 1 4.4 1.9 3.8 3.3 3.4 2.6 3.2 0.9 3.1 0 4.1 2.9 2.5 4.2 0 6.6-0.3 5.4 0 5.3 2.8 4.2 5.9 1.7 3.5 0 4 4 1.3 4 0 5.4 0.3 2.1 1.6 1.7 6.6-0.5 6.5 4.1 2.5 0.9 2.5-0.5 3.5-1.4 3.1-0.9 5.6-1.5 6-0.4 0.7-1.2 3.6-14.3-3-10.2-0.6-25.3 7.7 0.8-3.5-6.7-24.8-3.7-7.4-5.5-22.7-2.2-2.4-2.8-0.6-2.1-1.4-1-4.5-5.3-8.7-1-2.4-1.8-1.4-2.3-0.3-2.8 0.6 2.5 1.1-0.1 2.4-17.3-6.2-8.3-0.6-7.8 5.2-11.4 12.4-3.4 6.5 0.4 7.5 3.8 5.9 4.1 1.7 5.2-0.6 10.4 9.2 4.2 1.4 2.2 5.1-5.6 9.3-4.1 2.1-1.1-3.2-6.5-6.4-19.4-5.7-20.5-3-0.4 0.1-1.2-6.6 0-10.7 1.5-6.8 1.9-6 4.4-3.4 9.9-1 3.1-3.4 0.7-5.7 0-4.7-2.1-5-2.1-2.5-0.2-7.5 1.9-1.9 3.3-1.6 0.4-4 0-5.4 0.3-6.9 1.9-11 2.8-8.1 3.8-4.7 4-5.4 4.5-4.4 8.9-5.3 6.7-4.1 8-4.4 8.3-6.3 4.7-5.3 3.5-6.7 0.5-0.9 1.2 4.4 2.6 3.2 3.5 0 3.8 0.3 1.7 4.1 1.9 10.7 0 6.6 2.1 8.1 5.2 8z" data-id="MKD2894" data-name="Resen" name="Resen"/><path id="MKD2895" d="M27.7 606.8l-4.9-13.1-1.8-7.6 28.2-1.7 11.7 1.4 9.4 2.5 1.7 3.7-2.4 4.6-10 4.5-31.9 5.7z" data-id="MKD2895" data-name="Vevčani" name="Vevčani"/><path id="MKD2896" d="M339.4 606.8l3.4 4.9 0 4.4-1.5 3.5-1.9 3.1 0 5 1.3 4.6 2.1 4.6 3.5 4.1 3.8 2.5 5.2 1.8 2.2 2.3 0.8 3.5 0.2 3.3-0.4 3.8 0 4.9-0.2 5 1 2.8 1.9 2.1 3.1 1.7 3 0.8 2.1 0 4-2.5 2.9-2.1 1.9-0.5 2.5 0 3.3 0.8 0.9 0.9-0.8 2.2 0 5.3-0.9 3.1-1.4 2.2-0.2 3.7 0.7 5.3 1.1 2.2 4.7 4.9 0.7 4.7 0.3 7.2 0.2 4 4.7 0.9 3.7 1.3 1.7 3.7 4.9 5.9 5.2 5.6 4.2 6.2 1.1 4.4 0.3 4.6 1.4 6.2-0.1 5.3-2 5.5-29.7-4.2-9.5 0.2-9.2 4.2-14.2 14.1-6.1 3.5-13.2 2.8-13.3 0-5.9-1.2 1.2-3.6 0.4-0.7 1.5-6 0.9-5.6 1.4-3.1 0.5-3.5-0.9-2.5-4.1-2.5 0.5-6.5-1.7-6.6-2.1-1.6-5.4-0.3-4 0-4-1.3 0-4-1.7-3.5-4.2-5.9-5.3-2.8-5.4 0-6.6 0.3-4.2 0-2.9-2.5 0-4.1-0.9-3.1-2.6-3.2-3.3-3.4-1.9-3.8-1-4.4 0-4.7-1.7-1.4-6.8-1.2-2.7-3.1 0-5.9 1.5-5.1 3.3-2.3 3.8-3.6 3.9-6.6 0.8-5.9-0.8-4.7-3.6-3.9 0.2-2.9 9.6-4.2 3.5-2 5-0.8 4.2-0.3 9.1-4.4 4.4-5.8 6-3.6 5-0.4 3-4.7 2-3.9 3.5-0.4 4.5-2.4 7.1-5.5 3.8-6.7 3.5-2.7 0.8-0.2 1.9-0.6 2.4 2.8 2.6 1.9 2.5 0.3z" data-id="MKD2896" data-name="Bitola" name="Bitola"/><path id="MKD2897" d="M271.3 516.3l2.8 1.5 6.3 3 2.9 2.4 0 7.4 5.9-0.9 5.9 0.9 4.5 0 2.6 4 0 12.8-0.4 4.9 0 2.9 0.7 2 3 0 4-0.5 3.7-1.9 3.7 1.4 4.9 5.9 1.1 6.4 1.8 6.4 4.4 4 2.2 3.9 0 10.8-1.1 3.5-0.2 5.3-0.8 0.2-3.5 2.7-3.8 6.7-7.1 5.5-4.5 2.4-3.5 0.4-2 3.9-3 4.7-5 0.4-6 3.6-4.4 5.8-9.1 4.4-4.2 0.3-5 0.8-3.5 2-9.6 4.2-5.2-8-2.1-8.1 0-6.6-1.9-10.7-1.7-4.1-3.8-0.3-3.5 0-2.6-3.2-1.2-4.4-0.5 0.9-0.4-2.4-2.6-4.3-1.2-2-2.8-6.3 0-6-4.5-2.5-2.6-3.5-3.8-10.4-3.8-2.2-3.8-1.8-3.8-3.2-2.8-3.1-0.9-4.1 0-5.4 0.4-0.9 2.4-4.8 8.7-6.6 9.2-4.1 10.9 0.4 7.8 0 11.6-0.6 6.3-3.9 5.9-5.9 1.1-4 5.9-2.9 1.6 0.9z" data-id="MKD2897" data-name="Demir Hisar" name="Demir Hisar"/><path id="MKD2898" d="M229.5 599.2l2.6 4.3 0.4 2.4-3.5 6.7-4.7 5.3-8.3 6.3-8 4.4-6.7 4.1-8.9 5.3-4.5 4.4-4 5.4-3.8 4.7-2.8 8.1-1.9 11-0.3 6.9 0 5.4-0.4 4-3.3 1.6-1.9 1.9 0.2 7.5 2.1 2.5 2.1 5 0 4.7-0.7 5.7-3.1 3.4-9.9 1-4.4 3.4-1.9 6-1.5 6.8 0 10.7 1.2 6.6-7.6 1.8-12.9 11-6.9 2.7-9.8-2.2-6.3-5.4 1.6-0.5 8.8-7.5 11.2-2.6 4.4-2.8 0-3.4-2.1-7.6 3-10.8 4.6-11.7 2.3-10.6-2.2-26.6 0.6-11.6 4.4-9.6-5.6-0.9-7.1-3.2-6.2-4.2-2.5-4.1-1.6-8.7-1.5-1.8 6.5-7.8 2.3-5.2 6.7-2.8 0-4.1-0.5-6.2 1.6-3.5 3.1-5.9 4.9-3.1 0.8-4.2 2.6-2.4 3.9-0.7 9.9 0.4 6.5-2.8 4.2-0.3 6.5 0.3 4.9 1.4 9.1 3.5 10.2 6.9 7.5 1.4 10.9 1.3 5.7-1.4z" data-id="MKD2898" data-name="Ohrid" name="Ohrid"/><path id="MKD2899" d="M199.9 547.8l-0.4 0.9 0 5.4 0.9 4.1 2.8 3.1 3.8 3.2 3.8 1.8 3.8 2.2 3.8 10.4 2.6 3.5 4.5 2.5 0 6 2.8 6.3 1.2 2-5.7 1.4-10.9-1.3-7.5-1.4-10.2-6.9-9.1-3.5-4.9-1.4-6.5-0.3-4.2 0.3-6.5 2.8-9.9-0.4-3.9 0.7-2.6 2.4-0.8 4.2-4.9 3.1-3.1 5.9-1.6 3.5 0.5 6.2 0 4.1-6.7 2.8-2.3 5.2-6.5 7.8-2.6-3.2-4-2.3 1-1.8-1-2.2 0.3-3.2 0.8-2.7 0-2.1-2.1-2.1-1.3-1.7-0.8-3.8 0-3.5 1.3-3.8 2.4-2.7 3.6-4.9 2.9-9.3 1.3-11.5-0.6-4.5-2.8-4.8-5-6.6-2.3-4.1 0-12.2-1.6-12.8-3.9-8.3-4.4-8-4.1-8-3.4-7.3-0.3-0.3 3.4-3.1 12.5 0.6 17.4-0.3 9.9-0.3 11.9 1 8.4 2.1 14.8 0.3 2.6 7.3 4.1 8.7 1.4 6.6-0.8 5.9 2.9 5.9 7.2 2.4 3.1 3.5 3.4 7.2 2.1 3.3z" data-id="MKD2899" data-name="Debarca" name="Debarca"/><path id="MKD2901" d="M533.5 226l-1.4 2.9-2.2 7.2-0.2 5.8-13.4 10-5.2 2.1-5-0.2-2.2 1.1-0.3 1.8 1 8.3 0 5-0.5 4.4-0.9 5-1.8 5.2-2.6 10.8-1 2.1-2.1 0.6-4.5-1.6-1.9-3.2-2.4-2.9-2.7 0-0.2 1.8-1.7 2-2.2 2.1-1.4 2.7-2.2 0-0.3-1.1 0.8-1.8-0.2-3.9-1-0.9-1.5 0.7-1.9 1.8-2.9-0.2-4.2-0.7-3.9-1.8-0.2-1.3 0-1 2-3 1.2-2.3 0.3-7.1 0.4-12.3 0-7.1-1.9-2.8-3.6 0.4-5.1-2.6-3.6-1.2-3.4 0-2.1-0.2-4.5 0-2.3-0.6-0.9-2.9 0.9-3.1 1.2-1.4 3.5-3.8 0.7-1.2 1-1.6 2.9-0.9 4.3-2.9 4.7-2.2 2.5-3.8 3.4 0 3.2 2.9 3.4 1.7 10.1-0.8 1.2-2.6-0.8-4.6-2.4-2.3 0-2 0.5-2.2 1.4-2.5 4.1-9.4 0.9-0.3 2.1 2.5 5.7 3.1 3.8 0.8 3.8 2.9 1.5 4.2 2.3 1.1 2.6 0 3-1.3 2.2-1.8 4.5-0.4 5.6 0.2 3.7 2.6 3.1 4.4 5.2 3.6z" data-id="MKD2901" data-name="Skopje" name="Skopje"/><path id="MKD2902" d="M293.2 493.3l-6.1 3.6-10.8 3.9-3.5 1.6-2.9 2-0.7 1.4-2.1-1.5-6-2.4-5.2-2.4-2.8-5.3-1.3-2.7-3.1 0.3-3.8 1.8-2.5 0-4.7 1.3-2.5-4.1 0-3.8-0.8-4.6-1.9-4.5 0.3-3.5 1-2 6-0.7 7.1 2.1 3.8-1.1 5.9-0.3 3.5-1.4 2.9-0.8 2.5-1.4 3.1-2.2 4.8 0 1.9 1.4 0.2 1.4 0 6.7 0.4 1.9 1.4 2.5 2.3 2.5 4.6 1.9 4 0.6 3.7 2.2 1.3 4.2 0 1.4z" data-id="MKD2902" data-name="Plasnica" name="Plasnica"/><path id="MKD2903" d="M517.6 487l0 4.1 2.3 3.7 4.2 4.5 2 1.4 3.8 0 1-1.9 1-2.7 1-1.8 2-1.1 0.8 2.7 0 6.4-1.4 2.9 0 4.8-0.4 5.3 0.8 4.5 2.1 2.8 2.2 3.7 0.8 4.6-0.2 7.4-2.2 4.3-0.8 3.7 0 2.9-0.6 5.6 0.2 7.7 1 4.5 2 6.9 1.8 3.7 3.4 1.1 4 0 6-0.6 4.9 0.6 1.6 0 0.8 2.1-1.4 1.6-0.8 4.2-2 3.5-2.3 4.8-0.6 4.7-0.2 6.1 2.3 4.6 2 1 3 5 0.1 6.5-0.6 10.1 0.6 7.4 0.8 4 2.2 1.6 3 0.8 5.4 0 2.2 0.3 1 2.6 0 4.5 0.9 6.2-6.4 4.8-3.1 3.5-1.5 4.9-0.4 8.5-8.6-4-4.2-0.9-4.2-3.7-3.3-3.5-1.4-3.1-1.2-0.6-1.1 0.3-1.7 3.1-3.7 0.3-5.2 0-5.4-1.5-3.3-2.2-3.9-5.3-3.5-2.5-4.1-0.6-5.4-1.3-12.8-6.2-12.7-1.8-7-1-5.2-1.9-6.1-4.3-2.1-3.5-1.6-3.7-1.7-1.9-2.8 0.4-3.3 2.9-1.5-1.7-4.5-1.5-6-1-5.3-2-7.1-5.6-2.9 0-5 3.5-4.3 0-4.3-0.2-7.4-4.1-2.7-4.8-2.4-1-8.5-0.5-2.3-2.3-1.4-4.1-4.8-3.8-4.6-7.4-4.9-3-3.7-0.3-5.9-1.3-1.9-2.8-0.4-3.3 0.5-0.1 2.3-0.6 5.6-0.3 3.3-2.3 2.8-3.8 5.2-5.6 1.5-7.9 0.4-4.6 1.9-2.5 1.5-3.6 0-4.6-1.7-1.3-3.8-0.5-4-0.2-1.6-2.1-0.2-2.8-1.6-1.2-0.2-3.4 0.2-1.5 6.1-5.4 5.5-4.8 2.7-0.5 1.7-3 2.3-3.4 5-4.3 8 0 5.5-1.5 3.6-1.3 12.8-0.5 4-2 4.6-5.9 8.6-3.1 0.8-6.1 2.3-6.4 3-3.3 4.5-2 5.1 0.2 2.8 0.5 2.9 2.1 2.1 3.3 0.8 2.8 3.6 0.2 3.7-1 2.1-1 2.8-6.1 0.6-10.2 1.1-2.1 1.2-0.7 6.1-0.3 4-0.5 1.9-1.5 3.1-1.6 2.7 0 2.1 0.8 1.5 2.5 2.9 1.6 3.8 1.5 3.6 2.1 1.3 3 2 3.8 2.1 1.7z" data-id="MKD2903" data-name="Prilep" name="Prilep"/><path id="MKD2904" d="M737.3 181.9l-2.1 7.1-1.3 6.1-1.7 0.4-5.9 3.7-2.4 4.1-1.8 4.2-5.6 4.5-4.8 5-3.9 2.8-1.9 2.4 0.1 0.5-1.8-1.1-1.5 0.2-2.6 2-3 5.7-0.9 4.2-0.7 4.4-2.1 3.8-3.5 1.7-2.7 2.2-2.9 3.3-2.1 0-1.6 0.9-1.2 2.6 0.5 3.8 5 7.3 8.7 10.8-1.7 1.9-3.8 0.5-5.6 0-4.5 0.2-4.1-1.8-1.3-4.1 0-2.5-1.2-2.2-2.5-0.6-4.5 2.4-0.9 0.7-1.2-2.4-1.6-1-2.2 1-1.3 0-2.2-0.6-2.5-1.4-3.1-0.3-2.7 0-2.1 0.6 0-1.2-2.6-3-1.2-0.9-1.3-2 0.3-1.2 1.9-1.5 1.2-3.3 0.2-3.5-0.2-2.1-1.6-1.2-3.5-0.9-2.5-2.4-4.3-8-3.4-7.1-4-2.4-6.6-5-5.3-5.1-1.1-3.8 0.9-5.7 2-4.1 2-4.8 0.4-0.2 1.3-0.7 1.4 0 6.2 3.3 2.6 2.1 1.8 0.6 1.8-0.3 0.8-2.1 0.9-3.9 1.5-4.1 2.7-3.6 2.2-1.2 3.3 0.3 4.8 0 5.1-0.9 3.7-2.1 9.4-3.5 4.2-1.8 3.8 2.7 1.7 3.8 2 1.5 4.7 0 2.2-0.6 2-2.1 2-0.8 1.9 0.2 2 2.4 2.2 3.6 3.1 1.2 1.8 0 2.6-3.9 0-15.7 1.6-1.2 7-0.3 6.4 0 7.1 0.6 4.6 2.6 5.7 5.1 3.3 5.2z" data-id="MKD2904" data-name="Probistip" name="Probistip"/><path id="MKD2905" d="M847.8 338.2l-0.2 3.9 0.3 5.4 1.5 6.8 2.7 2.5 3 1.5 1.9 2.2-0.2 2.8-2.1 2.7-3.3 6.2-2.3 3.1-0.2 3.4 0.7 4.4 1.4 3.6-1 1.3-4.3 0.8-4.8 0-2.6 0.5-1.4 1.5-3 5.6-1.8 3.3-1.2 3.4 0.2 3 5.4 8.7 2.8 1.7 0.7 3.5 0.2 3.7 1.5 2.9 0.5 3.5 0 3.9-0.3 5-2.2 3.5-1.7 2.2-1.5 1.2-2.2-0.2-3.9-4-7.6-7.4-6.1-3.7-2.2 0-1.7 1-2 4.9-3.7 2.7-2.8 0.8-2.2 0-1.5 1.2 0 2 0.9 1.2 1.9 4.5 0 2.7-1.2 1.1-2.5-1.1-7.2-2-5 0-3.7-1-2-1.7 0.2-2.7 2-1 1.8-1.5 1-2.5 0-2.9-1.7-2.3-3.6-4.2-3.5-5.9-5.4-5.9-3.3-2.8-5.5-0.4-12.3-0.8-2.9-0.5-3.3-2.7-3.2-3-3.5-1-2.6 0-3.9-1.7-1.3-0.5-3.3-2.2-1.9-3.7 0-9.2-0.7-4.2-1.5-2-3.8-10.4 1.3-3 6.4-6.6 2.4-0.5 3.2 2 2 1.7 7.8 2.7 4.2 0.3 3-0.5 1.8-3.7 1.1-3 3-6 3.5-5.2 2.2-3.7 0.8-1.7 1.5-3.3 2.8-2.9 1.7-4.2 0.7-5.3 0-6.9 3.7-3.2 4.6-3.3 2.5-0.8 3.8 0.8 2.8 2.3 2.6 3.2 1.7 1.5 3.3 1.5 4.4-0.3 4.3 0 5.3-1.2 2.2-2.2 0.8-2.8 1.1-2.2 2.8-0.2 1.3 1.2 2.2 5.2 2.2 1.5 6.5 3 2.8 2.5 2.4 2.7 4.2 3.5 4.8 1.9 3.1 0 3.4 0.5z" data-id="MKD2905" data-name="Radovis" name="Radovis"/><path id="MKD2906" d="M803.5 117.5l-6.8 3.5-3.6 2.3-6.9 4.8-6.8 4.5-4.1 5.9-6.8 3.8 0 1.1-6.2-1.2-7.1 0-4.7 0.5-8.4 0.4-1 1.3 0 1.6-5-3.5-6.2-3.9-6.9-1.7-4-4.2-2.8-0.9-2.5 2.4-3.3 1.2-7.4 1.5-6 0.3-5.7-0.3-4.2 0-2-2.4 0.3-2 1.3-4.8 0.4-7.6-1.4-9.1-2.9-6.7-2.4-20.1-1.1-10.5 2.5-10.6-0.7-7.6-6.8-7.2-8.1-2.4-4.6-5.3-1.6-12.6 37.1-15.7 10.2-10.6 3.5-0.7 1.8 2.6 0.3 8.9 1.1 3.8 5.7 6.8 6.2 4.8 6.9 2.6 7.7 0.5 38.3 52.1 14.7 11.1 5.2 15.1 4.8 8.2z" data-id="MKD2906" data-name="Kriva Palanka" name="Kriva Palanka"/><path id="MKD2907" d="M599.8 429.2l-0.1 5.4 0.6 10.9-0.3 9.4-1.3 1.3-1.2 4.3 0.4 6.9-1 8.5-4 2.7-2.8 1.6-1.6 2.1-0.2 4-1.9 0.8-2.2-0.8-3.2-2.7-5.8-2.6-3.4 0-1.8 1.8-0.8 6.7-2.8 2.1-6 0.3-6 0-2.5 0.8-3 0-7-0.8-3.4-3.7-4-5.6-2.3-3.5 0.7-8.8 0.6-3.2 1.2-4.3 0.2-0.7 2.2-2.2 2.2-1.6 4.2-0.5 2.2 0 1.8-1.6 1.1-1.9 0-2.6-0.7-4.8-0.6-1.4 0-4.8 1.1-1 2.9-0.3 3.1 1.1 2 1.8 5.8 3 6 0 2.2-2.7 1.4-4 2.4-2.9 2.4-1.9 4.6 1.1 2.3 2.1 5.6 0 1-7.4 3.4-2.2 3.2 0 3.1 1.8z" data-id="MKD2907" data-name="Vardar" name="Vardar"/><path id="MKD2908" d="M312.8 145.2l-1.7 6.7 0.9 9.7 2.7 6.9 3.6 2 4.1-0.8 2.4-2.8 3-0.4 3.3 3.6 1.2 6.8 4.5 8.4 4.1 9.7 6 7.6 9.8 0.9-0.2 7.7 0 9.7 0.7 1.7-1.3 2.4-4.1 0.4-4.7 0-6.6 3.8-7.6 5.9-4.4 4.2-4.7 5.5-5 3.8-9.5 3.4-5.6 2.5-1.9 3.8-0.1 1.3-3.8-2-5-6.1-2.5-0.4-3.1-3.3 0-5.1 1.1-8.8 1.2-7.4 1.5-6.5 0.3-6.7-1.3-2.1-5.2-3-5.1-3.7-4.8-2.1-4-1 0.1-0.5 0.2-2.2 1-1 2-1 5.3-1 4.5-2.1 2.8-1 0-4-3.3-6.1-1-4.1 0.4-2.9 2.5-3 3.7-1.7 1.6-2.1 0-4.7-1.6-4.6-2.1 0.4-2.6 1.7-2.8 0-3.1-3.8-3.2-3 1.6-2.1 4.4-2.1 5.7-0.5 4.7-0.8 4.7 0 4.7-0.8 4.6-5.5 0.6-1.8 3.3 3.4 3.1 0.7z" data-id="MKD2908" data-name="Saraj" name="Saraj"/><path id="MKD2909" d="M383.9 224.2l3.4 0 2.4 1.3 0 6.5 1.6 2.6-0.2 6.3-1.5 8.7-1.2 4.4-6.3 0.4-9.8 0.7-6-3.1-4-1-5.4 0-6 1.7-2.7 3 0 6.8 1.7 4.7 4.8 0 5.3 1.7 3 0.3 2 2.1-0.5 2.7-3.5 0-4.1 3-1.4 4.4-2.3 10.1-0.8 5.8-1.5 1-2.5 0-1.5 1.7-0.5 4 1.8 2 3.5 1.4 1.7 5-3 5.3-1.4 7.9 0 5.9 2 5.9 1 0.4-2.5 1.9-6.2-0.8-7.5-6.8-6-11.8-7.3-10.1-5.6-9.3-4.7-5.4-4-4.3-0.4-0.4 2.2-6.7 0.9-8.5 0-4.6-2.2-1.7-4.4-3-2.8-3.8 0.2-2.9 0.1-1.3 1.9-3.8 5.6-2.5 9.5-3.4 5-3.8 4.7-5.5 4.4-4.2 7.6-5.9 6.6-3.8 4.7 0 4.1-0.4 1.3-2.4 0.8 1.6 25.9 0z" data-id="MKD2909" data-name="Sopiste" name="Sopiste"/><path id="MKD2910" d="M623.9 36.8l0.1 7.7 1.4 3.7 0.5 4.5 0.4 5.5 0 3.4-2.7 3.1-7.5 1.2-1.5 3.1 0.8 3.5 2.8 5.5-0.1 11.5 0.3 2.6 1.8 3.1 3 4.7 1.4 3.9 0 3.3-1.8 2.4-2.8 0.5-4.5-0.2-2.5-0.3-4.4-0.3-3.9 0-2 1.5 0 2.8 0.4 6.2 0 3.6-0.4 5.5-3.7 7.3-3.9 6-4.6 1.7-4.9 0.2-0.4 0.5-1.5-4.2-1.1-4.7-1.8-4.2-2.7-1.3-3.3 0.4-2.2 1.4-0.9 2.9-0.2 2.4-1.7 2.2-1.2 0.3-3.3-0.1-6.7-2-3.9-1.5-3.5-3.6-2.6-0.2-4.5 0.9-3.1 1.1-2.7 2.2-3.6 0.7-3.9 2-1.9 2.9-3.1 0-3.1-1.3-2.4-3.2-4.1-4.6-3.5-5.2-1.3-4.2-0.4-8.5 0.1-3.1 0.6-2.6 1.4-2.3 1.1-2.4-0.1-5.3 0-5.1-1.4-2.5-0.9-1.3 0.1-4.2 0.8-2.7 2.1-1.1 2.8-0.5 3.2-1.3 0.8-2.5-0.1-4.4-2.6-3.1-2.1-1.1-3.4-0.7-3.9-1.7-0.7-1.4-8-3.7-3.7-3.5 38-23.3 7.9-1.8 15.5 0.2 2.8-0.7 13.2-11.5 4.1-1.9 4.9 1 20.8 10.8 12.7 4.6 6.9 0.8z" data-id="MKD2910" data-name="Northeastern" name="Northeastern"/><path id="MKD2911" d="M663.5 269l-6.2 5.4-3.3 6.9 0 7.2 1.2 9.1 2.6 7.7 3.3 5 4.4 0.9 7.7 0.2 5.8 0.9 5.5 3.5 7.1 6.4 4.9 5.7 4.3 0.9 3.4 0.4 7.8 6.8 5.8 6 4.4 5.9 8.2 0 10.3-2.2 8.4-0.7 5.6-1.9 5.6 0.2 2 2.4-0.8 1.7-2.2 3.7-3.5 5.2-3 6-1.1 3-1.8 3.7-3 0.5-4.2-0.3-7.8-2.7-2-1.7-3.2-2-2.4 0.5-6.4 6.6-1.3 3 3.8 10.4 1.5 2 0.7 4.2 0 9.2 1.9 3.7 3.3 2.2 1.3 0.5-1.7 3.2-4.5 4.2-4.6 5.5-4.6 4.9-7.2 6-2.1 1.9-0.3 2.5 0.4 0.5-3 0.7-7.3 0.2-6.9-1.9-5.9-4.3-4-2.6-4.3-1.9-3-1.9-0.2-7.5-1.1-3.4-6.2-2.1-5.1-0.2-5.5-0.5-3.1 0.9-2.5-1.9-1.7-4.9-0.5-5.8-1.4-6-1.5-3.6-1.4-2.4-1.9-1.9-2.7 0.4-1.9 3.7-1.3 3.4-1.3 1.7-1.9 0.9-1.9 0-3.2-3.7-2.8-5.1-1.5-1.9-3.8-1.5-3.7-0.2-4.6-3.9-1.8-1.5-5.6-3.2-3.9-0.4-6.7 0.6-1.3-0.9-0.4-0.3-0.1-5.8-4.8-3.9-3-2.8-1.1-2.1 0.6-3.6 0.8-3 1.6-2.1 2.2-2.4 1.6-3.6 2.4-1.3 2.1 0 2.1 1.3 2.8 2.7 1.3 2.2 2.2 1.7 1.5-0.4 0.8-2 0.6-2.5 1.6-0.5 4-0.2 0.6-1.3 0-2.1-1.4-1.5 0-1.7 2.6-0.8 4.1 3.1 2.2 3.3 2.7 1.1 2.2 0 1.3-1.5-0.9-3.8-2-0.9-1.3-1.5 0.5-1.8 0.8-1.7 2-0.6 0.3-3.6-1.2-3.8-1.9-2.7-1.8-3.5 0.2-2.1 1.3-1.5 7.1-2 2.4-4.2 6.2-8.3 2.9-5 4.7-3 0.4-3.2-0.6-3-1.8-2.7-1.1-2.9-1.5-2.1-0.5-3.9 0.7-2 2.4-0.9 2-1.5 1.1-2.1 0-2 2.1-0.6 2.7 0 3.1 0.3 2.5 1.4 2.2 0.6 1.3 0 2.2-1 1.6 1 1.2 2.4z" data-id="MKD2911" data-name="Štip" name="Štip"/><path id="MKD2912" d="M439.8 242.6l-1.2 1.4-0.9 3.1 0.9 2.9 2.3 0.6 4.5 0-1.7 3-4.9 1.6-3.6 2.3-4.1 3.4-5.1 2.7-1 7.4-2.6 5-2.9 2.5-1.8 2.8-0.2 4.8-0.7 3.2-1.7 2.1-3.6 0.2-2.2-0.5-1-1.4-0.2-3.6-0.7-2.1-2.9-0.2-3.2 3.7-2.6 5.7 0.5 6.6 0 4.4 1.4 3.6 4.8 6.2 1.5 3.7-1 3.8-1 3 0 4.4 0.3 0.2-3.5 1.3-7.5 2.1-4.1 3.4-4.7 9.3-2.2 5-2.9 3-4.3 1.7-1.9 2.9-1.3 7.2-1.8 6.4-0.4 1.6-3.5-3.3-4.4-9.2 0-17.8-3.4-4-4.4 0-2.9-0.9-1-0.4-2-5.9 0-5.9 1.4-7.9 3-5.3-1.7-5-3.5-1.4-1.8-2 0.5-4 1.5-1.7 2.5 0 1.5-1 0.8-5.8 2.3-10.1 1.4-4.4 4.1-3 3.5 0 0.5-2.7-2-2.1-3-0.3-5.3-1.7-4.8 0-1.7-4.7 0-6.8 2.7-3 6-1.7 5.4 0 4 1 6 3.1 9.8-0.7 6.3-0.4 1.2-4.4 1.5-8.7 0.2-6.3 0.3 0.6 4.3 0 3.4-2 3.9 0 3.6 4.2 0 11.3 0.8 2.4 4.8 1.9 2.9-1.4 1.6-2.7 0.7-3.1 1.1-3 1.9-2.2 2.2-0.7 3-1.7 1.7-0.8 2.7-2.4 2.7-1.7 2.2 0.7 4.7 8.6z" data-id="MKD2912" data-name="Studenicani" name="Studenicani"/><path id="MKD2913" d="M390.7 197.1l0 2.5-0.6 5-0.9-0.5-1.5 0.5-1.1-2.4-3.2 0.3-0.1-2.3 0.3-2 0.1-4.1 0.1-1.5 5 3 1.9 1.5z" data-id="MKD2913" data-name="Cair" name="Cair"/><path id="MKD2914" d="M615.9 195.5l-0.4 0.2-2 4.8-2 4.1-0.9 5.7 1.1 3.8 5.3 5.1 6.6 5 4 2.4 3.4 7.1 4.3 8 2.5 2.4 3.5 0.9 1.6 1.2 0.2 2.1-0.2 3.5-1.2 3.3-1.9 1.5-0.3 1.2 1.3 2 1.2 0.9 2.6 3 0 1.2 0 2-1.1 2.1-2 1.5-2.4 0.9-0.7 2 0.5 3.9 1.5 2.1 1.1 2.9 1.8 2.7 0.6 3-0.4 3.2-4.7 3-2.9 5-6.2 8.3-2.4 4.2-7.1 2-1.3 1.5-0.2 2.1 1.8 3.5 1.9 2.7 1.2 3.8-0.3 3.6-2 0.6-0.8 1.7-0.5 1.8 1.3 1.5 2 0.9 0.9 3.8-1.3 1.5-2.2 0-2.7-1.1-2.2-3.3-4.1-3.1-5.6-3.7-6.8-5.9-7.8-8-6.3-8-6.2-8.3-3.3-2.7-4.4-0.9-5.6-2.3-3.7-4.5-5.1-7.1-3.8-1.5-5.6-0.4-3.5-4-10.1-13-1.8-6.3-2.4-10 0-6.7 0.2-5.8 2.2-7.2 1.4-2.9 0.5-1.2 3-2.1 1.2-2.9 3.2-2.6 1.9-2.6 0-3.8 0.9-3.5 2.2-2.9 5.4-4.5 2.8-2.9 4.8-0.9 5.9-0.2 5.2 1.4 4.1 4.5 2.5 5 2.3 2.4 4.2-0.3 5.6-3.1 7.1-2.6 3.7-2.8 0.9-4.1-0.2-0.5 7.3 0 5.5-1.1 2.4 0.8z" data-id="MKD2914" data-name="Sveti Nikole" name="Sveti Nikole"/><path id="MKD2915" d="M547.5 281.9l0.1 2.6-1.4 2.2-2 2.1-3.6 4.3-2.4 2.1-2.3 2.5-1.2 2.1 0.6 2 3.9 5.3 1.9 2 2.1 3 0 3.7-0.9 2.7-4.1 8.7-0.5 1.3-0.5 3 1.2 1.8 4.4 0 3.1 1.2 1.7 3 2.9 5.9 1.8 2.7 0 6.9-1.5 7.5-3.4 4.3-6.4 6.6-2.6 5.3-1.9 5-2 5-3.7 5.9-4.3 0.7-6 0.3-1.2 1.8-1.2 8.1-3.8-0.4-8.9-2.3-3.4-3.9-0.7-4.3-0.3-8.9-1.4-2.1-1.9 0.5-1.1 1.4-3.6 3.2-2 0.9-2.1-0.3-2-3.2-0.7-2.9 0.1-3-1-4.3-3.2-5.1-1.4-8.6-2.4-5.7-4.1-2.1-4.2-0.2-4.8-0.9-3.2-1.4-2.9-1.6-2.2-0.5-2.1 0-1.4 1.4-1.6 1.1-2.3 0-2-1.6-2.7-5.9-3.5-6.9-2.3-3.4 0.3-1.2 0.1-0.4 7-0.7 6.2-2.2 2.4-1.7 2-3.8 3.4-5.8 2.4-3.4 0-9.4-1.8-1.1-1.6-2.3 0-10.1 1.8-0.6 0.2 1.3 3.9 1.8 4.2 0.7 2.9 0.2 1.9-1.8 1.5-0.7 1 0.9 0.2 3.9-0.8 1.8 0.3 1.1 2.2 0 1.4-2.7 2.2-2.1 1.7-2 0.2-1.8 2.7 0 2.4 2.9 1.9 3.2 4.5 1.6 2.1-0.6 1-2.1 2.6-10.8 1.8-5.2 0.9-5 0.5-4.4 0-5-1-8.3 0.3-1.8 2.2-1.1 5 0.2 5.2-2.1 13.4-10 0 6.7 2.4 10 1.8 6.3 10.1 13 3.5 4z" data-id="MKD2915" data-name="Veles" name="Veles"/><path id="MKD2916" d="M246.9 473.8l-7.1-2.1-6 0.7-1 2-0.3 3.5 1.9 4.5 0.8 4.6 0 3.8 2.5 4.1 4.7-1.3 2.5 0-0.1 4.8-5.5 2.8-5.5 1.4-11.1 0-3.7-0.4-1.5-3.1 0-3.1-1.9-3.1-10.1-7-1.6-3.1-0.5-3.8 0.5-4.6 3.4-1.3 0.4-0.6 3.5-5.7 3.9-9.7 4.2-2.8 6.7-0.7 5-3.5 3.4-4.8 2-7.7 1.6-4.5 3.1-3.1 4.7-1.4 5.2-4.6 3.4-5.9 2.3-3.1 1.6 2.8 1 8.3 2.1 3.2 4.7 4.5 4.9 2.4 3.7 2.4 0.2 3.2-3.9 2.4-4.4 4.5-4.4 6-5.7 4.1-2.4 3.8-3.6 1.1-2.9 1.7-0.7 3.8 0 4.6z" data-id="MKD2916" data-name="Vraneštica" name="Vraneštica"/><path id="MKD2917" d="M461.2 289.8l-1.8 0.6 0 10.1 1.6 2.3 1.8 1.1 0 9.4-2.4 3.4-3.4 5.8-2 3.8-2.4 1.7-6.2 2.2-7 0.7-0.1 0.4-2.9-0.8-16.5 0.4-12.5 0.5-2.2-2.3-0.3-0.2 0-4.4 1-3 1-3.8-1.5-3.7-4.8-6.2-1.4-3.6 0-4.4-0.5-6.6 2.6-5.7 3.2-3.7 2.9 0.2 0.7 2.1 0.2 3.6 1 1.4 2.2 0.5 3.6-0.2 1.7-2.1 0.7-3.2 0.2-4.8 1.8-2.8 2.9-2.5 2.6-5 1-7.4 5.1-2.7 4.1-3.4 3.6-2.3 4.9-1.6 1.7-3 2.1 0.2 3.4 0 3.6 1.2 5.1 2.6 3.6-0.4 1.9 2.8 0 7.1-0.4 12.3-0.3 7.1-1.2 2.3-2 3 0 1z" data-id="MKD2917" data-name="Zelenikovo" name="Zelenikovo"/><path id="MKD2918" d="M271.1 200.9l-0.1 0.5 4 1 4.8 2.1 5.1 3.7 5.2 3 1.3 2.1-0.3 6.7-1.5 6.5-1.2 7.4-1.1 8.8 0 5.1 3.1 3.3 2.5 0.4 5 6.1 3.8 2-0.2 2.9 2.8 3.8 4.4 3 2.2 1.7 0 4.6-0.9 8.5-2.2 6.7 0.4 0.4-6.7-3.1-4.5-4.2-4.6-3.1-3.7-1 0-5-2.1-3.1-2.8 0-2.9 1-1.6 5.3-2.8 0.3-9.6 0-2.6-2.4-5-4.2-4.6 0-6-0.4-3.9-0.7-0.3-4.5 0.3-5.3 1-3.8 3.4-0.7 1-2.4 0-1.8-1.8-4.5-5.2 0-3.6-2.1-0.8-7.7 0-4.6-2.1-1-3.4-0.4-4.4-4.5-3.9-6.9 2.8-4 3.5-1.4 2.8-0.3 1.6-0.7 0.2-3.9-1.3-1-4.1-1.4-1.9-2.8-0.8-2.5-3.3-1-1.6-1.8 0-1.4 2.1-3.1 2.1-2.8 2.4-0.6 1.5 1.6 6.7 1.9 4.3 0 2.9-1.5 2 1.5 0 3.6-2.3 2.3 0.9 1.9 4.6 1.6 7.8 0.8 2.9 0 2-3.1 2-1.2 6.3-0.2z" data-id="MKD2918" data-name="Želino" name="Želino"/><path id="MKD2919" d="M452.1 164.4l3.4 0 4.6 2.2 3.2 2.1 0.1 5.1 0.3 0.8-2.2 2-5 5.4-3.3 4.8-4.7 5.9-2.5 2.7-3.5 0.4-3.9 1-6.6 3.7-1.9 2.4-1.9 0.2-0.9-0.9-0.5-0.5 0.1-4.1 0.4-4.9 1.8-3 2.8-2.6 0.2-2.4-0.4-5.4-0.7-4.1-0.3-2.9-3.6-5.4-0.3-2.2 0-3.9 0.9-2 2 2.9 2.6 3 2.6 2.6 3.1 5.6 2.8 2.4 6.3 1.4 2.2-0.9 2.8-11.4z" data-id="MKD2919" data-name="Aracinovo" name="Aracinovo"/><path id="MKD2920" d="M480.6 72.3l0.7 2.5 0.2 11.1 0.1 7.1 1.5 4.7 1.1 5.7 0 4.4-0.7 2.1-2.2 0.9-3 0.4-2.6 2 0 4.2 0.3 2.4-0.3 6.8-1.2 0.9-2-0.3-2.4-1.9-2.3-0.7-1.9 0.7-1.4 2.8 0.1 9.2-0.4 4.9-1.6 5.4-2.9 2.9-2.8 2.6-3.5 2-2.3 1.1-1 3.3 0.1 3.8 1.9 1.1-2.8 11.4-2.2 0.9-6.3-1.4-2.8-2.4-3.1-5.6-2.6-2.6-2.6-3-2-2.9-2.4-3.6-5.9-7.3-3.4-5.6-2.5-4.2-4.1-8.1-4.4-5.1 1.4-3.7 6.8-3.3 3.6-3.3 1.1-7 0-7.1-1.4-2.9-3.3-1.1-4.3-5.2-4.1-7-0.8-3.8-3.2-10.4 3.8-4.6 6.9 4.8 8-0.2 16.3-4.3 5.1 2.7 19.3-0.3 13.7 3.7 6.7 0.4z" data-id="MKD2920" data-name="Lipkovo" name="Lipkovo"/><path id="MKD2921" d="M406.4 121.2l-1.4 3.7 4.4 5.1 4.1 8.1 2.5 4.2-4.7 2.8-7.2 9.1-4.3 8.4-1 10.4 0 18.1-2.4 5.2-5.7 0 0 0.8-1.9-1.5-5-3-0.1 1.5-1.9 1.7-3.3 0-6-1.6-4.4-5.2-2.4-4.9 2.7-3.6 1.2 1.2 3.3 0.4 2.3 2.8 1 3.3 2.3 3.2 2.7 0.4 1.7-1.5-1.2-5.1-0.3-6.6 0.4 0.4 1.5 1.6 0.6-1.1 3.4-1.3-1-18.2 1-11.6 1.9-7.2 5.8-10.4 3.4-8.4 5.7-2 2.3 0.8z" data-id="MKD2921" data-name="Butel" name="Butel"/><path id="MKD2922" d="M439.3 331.3l-0.3 1.2 2.3 3.4 3.5 6.9 2.7 5.9 2 1.6 2.3 0 1.6-1.1 1.4-1.4 2.1 0 2.2 0.5 2.9 1.6 3.2 1.4 4.8 0.9 4.2 0.2 4.1 2.1 2.4 5.7 1.4 8.6 3.2 5.1 1 4.3-0.1 3 0.7 2.9 2 3.2 2.1 0.3 2-0.9 3.6-3.2 1.1-1.4 1.9-0.5 1.4 2.1 0.3 8.9 0.7 4.3 3.4 3.9 8.9 2.3 3.8 0.4-0.6 10.1 2.4 3.4 4.7 3.7 4.6 2.9 1.6 3.2 0 5-1.8 3.9-2.7 2.7-2.5 3.2-0.7 4.8-0.2 5.4 1.2 4.6 8.7 5.4 1.9 1-1.2 4.3-0.6 3.2-0.7 8.8-2.1-2.7-4.6-0.7-2.3 2.3-2.3 4.3-3.3 4 0 0.7-2.1-1.7-2-3.8-1.3-3-3.6-2.1-3.8-1.5-2.9-1.6-1.5-2.5-2.1-0.8-2.7 0-3.1 1.6-1.9 1.5-4 0.5-6.1 0.3-1.2 0.7-1.1 2.1-0.6 10.2-2.8 6.1-2.1 1-3.7 1-3.6-0.2-0.8-2.8-2.1-3.3-2.9-2.1-2.8-0.5-5.1-0.2-0.5-2.1-2.5-3.8-3.6-3.1-10.3-2.8-3.6-0.8-2.5-1.2-1.4-2.1-0.7-3.8-1.2-3.8-0.9-2.3-2.7-0.8-2.5 0.3-2.3 1.7-2.5 0.3-7.4 0-4-2-2.7-3.1-2.5-4.6-0.6-5.1 0-7.2-1-6.1-1.8-4.9-4.3-1.5-2.1-1.8-1.9-3.6-1.1-4.3-3.3-3.6-6.3-2.6-4.2-1.5-5.1-1.5-3.3 0 0.2-1.6 0.3-6.3 0-5-1.6-4.2 0.3-3.4 1.3-1.7 2.2-2.1 3.4-4.2 2.5-4.6-0.5-3.7 1.8-6.4 1.3-7.2 1.9-2.9 4.3-1.7 2.9-3 2.2-5 4.7-9.3 4.1-3.4 7.5-2.1 3.5-1.3 2.2 2.3 12.5-0.5 16.5-0.4 2.9 0.8z" data-id="MKD2922" data-name="Caška" name="Caška"/><path id="MKD2923" d="M387.7 204.6l-0.4 0.1-1.9 4.6 0.9 1-1.9 2.2-0.8 6.6-7-7 1.1-5.9 2.6-3.1 3.1-0.6 3.2-0.3 1.1 2.4z" data-id="MKD2923" data-name="Centar" name="Centar"/><path id="MKD2924" d="M780 305.8l-9.7-0.2-11.9-1.3-1.8-3.7-2.4-4.3-4.4-5.6-3.8-3.7-1-4.3-0.1-6.9 6.6-0.2 3.6-3.3 1.5-2.1 1.8-1.3 2.1 0 1.6 1.3 0.4 1.9 2.1 0.6 1.8-0.8 1.5-2.8 3-4.1 3.4-1.1 1.4 0-0.1 0.6 1.3 2.5 2 2.2 0.7 3 1 6.7 0.3 6.2 0 8.7-0.5 4.2-0.4 5.3 0 2.5z" data-id="MKD2924" data-name="Zrnovci" name="Zrnovci"/><path id="MKD2925" d="M706 222.7l1.7 4.9 4.9 6.2 6 4.2 15.1-0.5 0.9 1.3 0.4 2.4-0.4 1.5-1.2 0.9-1 2.3 0 3.7 0.3 8.7 2.4 4.9 2 7.8 2.2 1.1 1.8 0 2.1 2.8 1.7 0.9 0.1 6.9 1 4.3 3.8 3.7 4.4 5.6 2.4 4.3 1.8 3.7-1.3 1.8-3.3 0-4.9-0.6-8.5-8.6-4.4-0.2-4.6 0.6-15.3-2.6-10.1-7.5-8.5-7.9-3.9-4.8-8.7-10.8-5-7.3-0.5-3.8 1.2-2.6 1.6-0.9 2.1 0 2.9-3.3 2.7-2.2 3.5-1.7 2.1-3.8 0.7-4.4 0.9-4.2 3-5.7 2.6-2 1.5-0.2 1.8 1.1z" data-id="MKD2925" data-name="Cešinovo-Obleševo" name="Cešinovo-Obleševo"/><path id="MKD2926" d="M400.8 70.1l3.2 10.4 0.8 3.8 4.1 7 4.3 5.2 3.3 1.1 1.4 2.9 0 7.1-1.1 7-3.6 3.3-6.8 3.3-2.3-0.8-5.7 2-3.4 8.4-5.8 10.4-1.9 7.2-1 11.6 1 18.2-3.4 1.3-0.6 1.1-1.5-1.6-1.2-2.9-2.9-5.2-3.1-2.8-3.2 0.8-2.7 2.8-0.3 5.2 0 3.6-2.7 3.6-4.2-3.2-4.5-0.5 0-7.4-6.7-14.9-11.9-11.7-4.2-2.4 0.2-1.2-0.3-10.6-0.6-4.5-1.2-2.8-0.8-2.8 0.5-4.7 22.9-35.2 5-4.1 6.8-0.6 13.6 5.2 4.1-0.4-0.4-3.5-2.8-4.6-0.6-4.6 6.4-3.6 4.5 1.4 3.6 3.8 4 1 1.7-2.1z" data-id="MKD2926" data-name="Cucer Sandevo" name="Cucer Sandevo"/><path id="MKD2927" d="M734.6 495.6l-1.2 3-0.6 3.6-0.3 5.1 0.7 4.1 2.1 6.3 1.9 2.2-0.4 1.2-0.1 2.9 0.3 2.6 3.1 4.2 1.6 5.2 0.3 4-0.1 4.3-0.5 2.2-2 0.7-3.3 0-5-0.5-8 0.5-1.9 1.7-5.1 6.6-0.2 1.8-2.4 0.9-11 7.6-9.7 5.6-6.4 0.9-7-0.9-6.4-4.1-5.6-3.8-2-5.6-1.7-2.9-2.4-0.3-2.2-1.2-2.9-3.2-1.6-0.6-5.7-5.3-6.5-6.4-3.2-3.3 2.3-0.1 5.3 0.6 5.9 0 5.8-1.4 1.1-2 0.7-3.2 0.8-2.7 0.6-3 0-2.2-1.1-2.9-2.5-3.2-2.5-3.3-0.9-2.3 0.4-1.7 1.4-1.9 2-0.2 4.2-3.4 3.1-6.9 1.4-6.3 2-6.9 1.7-3 4-3.1 4.2-5 2.7-1.9 3.5 0 2.3 0.7 4.1 4 3.9 2.2 6.1 3.2 3.5 1.2 2 0 1.4-1.3 1.4-2.3 1-2.8 1.1-2.3 1.7-1.5 3-1.5 4.2-4 2-2.2 1.1 2.6 3.5 0.5 7.8 4.2 1.8 3.9-0.7 3.7-3.3 3.2-0.8 3.3 0.2 4.2 0.9 6.1 1.1 1.8z" data-id="MKD2927" data-name="Demir Kapija" name="Demir Kapija"/><path id="MKD2928" d="M451.7 485.9l-4.5 2-3 3.3-2.3 6.4-0.8 6.1-8.6 3.1-4.6 5.9-4 2-12.8 0.5-3.6 1.3-5.5 1.5-8 0-5 4.3-2.3 3.4-1.7 3-2.7 0.5-5.5 4.8-0.7-1.2-4.4-2.8-5-0.3-3.4 0.5-2.9 1.3-5.1 0.3-2-0.8-1.1-2.3-1.2-7.9-1.1-4.8-2.5-1.1-1.7 0.8-2.9 2.6-2.5 0.2-1.9 1.5-0.4 1.2-3.1-1.7-1.4-2.8-4.5-4.8-5.2-6.1-4.4-2.3 0.2-3.6 1.5-2.1 3.8-0.2 9.2 0.5 0.4-5.6-1.3-3.1-2.3-1.5-6.2-7.1-4.5-6.4-1.9-3.4-0.4-0.7 0-3.1 0.5-1.3 2.9-1.7 2.7 0 2.1-1.3 1.5-3.6 1.7-2 4.5-0.8 4 1.5 2.1 1.6 3.1 1.5 1.9 0.5-0.3-13.5 1.1-3.6 2.1-3.8 5.7-7 2.9-3.5 2.5-6.2 0.4-9.4 0.5-6.4 3.1 0 3.3 0 5.1 1.5 4.2 1.5 6.3 2.6 3.3 3.6 1.1 4.3 1.9 3.6 2.1 1.8 4.3 1.5 1.8 4.9 1 6.1 0 7.2 0.6 5.1 2.5 4.6 2.7 3.1 4 2 7.4 0 2.5-0.3 2.3-1.7 2.5-0.3 2.7 0.8 0.9 2.3 1.2 3.8 0.7 3.8 1.4 2.1 2.5 1.2 3.6 0.8 10.3 2.8 3.6 3.1 2.5 3.8 0.5 2.1z" data-id="MKD2928" data-name="Dolneni" name="Dolneni"/><path id="MKD2929" d="M427.7 158.8l-0.9 2 0 3.9 0.3 2.2 3.6 5.4 0.3 2.9 0.7 4.1 0.4 5.4-0.2 2.4-2.8 2.6-1.8 3-0.4 4.9-0.1 4.1 0.5 0.5-3.8 6.1 0.1 1.9 0.9 1.7 3.8 2.4 2.7 0.8 6.2 4.4 2.6 2.1 2 3.5 1.7 3.4 0.3 8.5 0.2 0.6-0.7 1.2-3.5 3.8-4.7-8.6-2.2-0.7-3.3-5.2-6.7-5.2-10.6-5.2-8.2-6.5-5.7-3.2-3.9-0.7-4.4-2.7 0.6-5 0-2.5 0-0.8 5.7 0 2.4-5.2 0-18.1 1-10.4 4.3-8.4 7.2-9.1 4.7-2.8 3.4 5.6 5.9 7.3 2.4 3.6z" data-id="MKD2929" data-name="Gazi Baba" name="Gazi Baba"/><path id="MKD2930" d="M591.1 371.2l1.3 0.9 6.7-0.6 3.9 0.4 5.6 3.2 1.8 1.5 0.3 3.2-1.1 3.2-2.1 3-2.2 4.9-2.4 1.3-2.7 3-1.8 3.9-0.5 2.9 0 2.8 1.3 2.4 2.6 1.5 2.9 0 2.8-1.8 3-1.4 3.2-1.1 2.1 0 2.4 1.9 0.5 2.4 0 2.7-2.9 6.6-2.4 3.7-0.9 2.1-0.2 1.5 0.5 1.5 1.3 0.6 2 2.4 0 2.5-3 7.9-1 1.7-4.9 0.3-1.3-2-0.8-4 0-5.8-1.8-2.2-2.4 0-1.1 1-3.1-1.8-3.2 0-3.4 2.2-1 7.4-5.6 0-2.3-2.1-4.6-1.1-2.4 1.9-2.4 2.9-1.4 4-2.2 2.7-6 0-5.8-3-2-1.8-3.1-1.1-2.9 0.3-1.1 1 0 4.8 0.6 1.4 0.7 4.8 0 2.6-1.1 1.9-1.8 1.6-2.2 0-4.2 0.5-2.2 1.6-2.2 2.2-0.2 0.7-1.9-1-8.7-5.4-1.2-4.6 0.2-5.4 0.7-4.8 2.5-3.2 2.7-2.7 1.8-3.9 0-5-1.6-3.2-4.6-2.9-4.7-3.7-2.4-3.4 0.6-10.1 1.2-8.1 1.2-1.8 6-0.3 4.3-0.7 3.7-5.9 2-5 1.9-5 2.6-5.3 6.4-6.6 3.4-4.3 1.5-7.5 0-6.9 0.4-3.4 1.2-0.9 4.4 0 2.4 0.7 1 1.8 0.5 4.6 1.9 5.9 0.2 4.8 0 5.2 0.8 4.1 0.9 5.3 1.3 3.2 2.4 1.3 5 1.4 3.9 0.5 3.1 0 4.2-2.8 3.8-3.6 1.4-3z" data-id="MKD2930" data-name="Gradsko" name="Gradsko"/><path id="MKD2931" d="M611.7 335.2l-2.6 0.8 0 1.7 1.4 1.5 0 2.1-0.6 1.3-4 0.2-1.6 0.5-0.6 2.5-0.8 2-1.5 0.4-2.2-1.7-1.3-2.2-2.8-2.7-2.1-1.3-2.1 0-2.4 1.3-1.6 3.6-2.2 2.4-1.6 2.1-0.8 3-0.6 3.6 1.1 2.1 3 2.8 4.8 3.9 0.1 5.8 0.4 0.3-1.4 3-3.8 3.6-4.2 2.8-3.1 0-3.9-0.5-5-1.4-2.4-1.3-1.3-3.2-0.9-5.3-0.8-4.1 0-5.2-0.2-4.8-1.9-5.9-0.5-4.6-1-1.8-2.4-0.7-4.4 0-1.2 0.9-0.4 3.4-1.8-2.7-2.9-5.9-1.7-3-3.1-1.2-4.4 0-1.2-1.8 0.5-3 0.5-1.3 4.1-8.7 0.9-2.7 0-3.7-2.1-3-1.9-2-3.9-5.3-0.6-2 1.2-2.1 2.3-2.5 2.4-2.1 3.6-4.3 2-2.1 1.4-2.2-0.1-2.6 5.6 0.4 3.8 1.5 5.1 7.1 3.7 4.5 5.6 2.3 4.4 0.9 3.3 2.7 6.2 8.3 6.3 8 7.8 8 6.8 5.9 5.6 3.7z" data-id="MKD2931" data-name="Lozovo" name="Lozovo"/><path id="MKD2932" d="M802.2 452.7l-0.5 0.4-0.2 3.2 0 3.9 0.3 4.2 1.3 4.2 0.6 4.7 0.5 0.5-0.4 3.5-1.9 1.7-4.6-0.7-2-1.5-2.8 0-4.6 1.5-5.6 2.7-2.5 2.7-0.1 0.9-2-0.7-5.2-0.7-7 0.3-17.2 4.2-9.4 3.7-1.5 2.7-0.5 2.4-1.7 0-0.6-0.9-1.1-1.8-0.9-6.1-0.2-4.2 0.8-3.3 3.3-3.2 0.7-3.7-1.8-3.9-7.8-4.2-3.5-0.5-1.1-2.6-0.6-1.4-0.2-5.1-1.8-4.3-2.8-4.1-3.3-5.5-4.3-4.7-2.5-3.2-0.4-0.5 0.3-2.5 2.1-1.9 7.2-6 4.6-4.9 4.6-5.5 4.5-4.2 1.7-3.2 3.9 1.7 2.6 0 3.5 1 3.2 3 3.3 2.7 2.9 0.5 12.3 0.8 5.5 0.4 3.3 2.8 5.4 5.9 3.5 5.9 3.6 4.2 1.7 2.3 0 2.9-1 2.5-1.8 1.5-2 1-0.2 2.7 2 1.7 3.7 1 5 0 7.2 2 2.5 1.1z" data-id="MKD2932" data-name="Konce" name="Konce"/><path id="MKD2933" d="M484.4 204.1l-0.9 0.3-4.1 9.4-1.4 2.5-0.5 2.2 0 2 2.4 2.3 0.8 4.6-1.2 2.6-10.1 0.8-3.4-1.7-3.2-2.9-3.4 0-2.5 3.8-4.7 2.2-4.3 2.9-2.9 0.9-1 1.6-0.2-0.6-0.3-8.5-1.7-3.4-2-3.5-2.6-2.1-6.2-4.4-2.7-0.8-3.8-2.4-0.9-1.7-0.1-1.9 3.8-6.1 0.9 0.9 1.9-0.2 1.9-2.4 6.6-3.7 3.9-1 3.5-0.4 2.5-2.7 4.7-5.9 3.3-4.8 5-5.4 2.2-2 1.2 3.2 4.6 2.8 9.2 7.9 5.3 0 1 2 0 4.6-0.7 2.9-0.4 3.3 0 2.2 0.5 0.6z" data-id="MKD2933" data-name="Ilinden" name="Ilinden"/><path id="MKD2934" d="M693.6 274.5l3.9 4.8 8.5 7.9 10.1 7.5 15.3 2.6 4.6-0.6 4.4 0.2 8.5 8.6 4.9 0.6 3.3 0 1.3-1.8 11.9 1.3 9.7 0.2 0 6.1-0.2 3.9-2.5 0.8-4.6 3.3-3.7 3.2 0 6.9-0.7 5.3-1.7 4.2-2.8 2.9-1.5 3.3-2-2.4-5.6-0.2-5.6 1.9-8.4 0.7-10.3 2.2-8.2 0-4.4-5.9-5.8-6-7.8-6.8-3.4-0.4-4.3-0.9-4.9-5.7-7.1-6.4-5.5-3.5-5.8-0.9-7.7-0.2-4.4-0.9-3.3-5-2.6-7.7-1.2-9.1 0-7.2 3.3-6.9 6.2-5.4 0.9-0.7 4.5-2.4 2.5 0.6 1.2 2.2 0 2.5 1.3 4.1 4.1 1.8 4.5-0.2 5.6 0 3.8-0.5 1.7-1.9z" data-id="MKD2934" data-name="Karbinci" name="Karbinci"/><path id="MKD2935" d="M365.7 184.1l2.4 4.9 4.4 5.2 6 1.6 3.3 0 1.9-1.7-0.1 4.1-0.3 2 0.1 2.3-3.1 0.6-2.6 3.1-1.1 5.9 7 7-0.2 1.8 0.5 3.3-25.9 0-0.8-1.6-0.7-1.7 0-9.7 0.2-7.7 0.3-7.8 0-15.3 4.5 0.5 4.2 3.2z" data-id="MKD2935" data-name="Karpoš" name="Karpoš"/><path id="MKD2936" d="M639.2 534.7l3.2 3.3 6.5 6.4 5.7 5.3 1.6 0.6 2.9 3.2 2.2 1.2 2.4 0.3 1.7 2.9 2 5.6 5.6 3.8 6.4 4.1 7 0.9 6.4-0.9 9.7-5.6 11-7.6 2.4-0.9 0 0.4 2.2 4.4 0.3 3 0 9.4 0.5 3.1 2.1 1.1 2 0 1 1.3-0.2 3.1-2.1 1.1-1.7 0.4-3.9 3.3-3.1 2.8-4.6 2.2-2 0-2.8 0.4-0.3 3.3 1.1 3.7 1.2 2.9 0.7 4.6 1.7 4.8 0 2.6-1.1 0.7-2.6 0.2-5.6-0.2-6.6 1-2.3 1.1-1.3 2.9-0.5 3.5-0.8 2.1 2.2 5.9-3.1-0.4-8.8 0.8-8.9 4.2-14 12.7-8.1 3-2.9-1.1-12.9-7-1-1.5-0.6-2.6-1.2-2.5-2.9-1-1.6 1-4 4.5-1.8 1.4-24.9 7.3-11.8 6.4-3.6 2.7-0.9-6.2 0-4.5-1-2.6-2.2-0.3-5.4 0-3-0.8-2.2-1.6-0.8-4-0.6-7.4 0.6-10.1-0.1-6.5-3-5-2-1-2.3-4.6 0.2-6.1 0.6-4.7 2.3-4.8 2-3.5 0.8-4.2 1.4-1.6-0.8-2.1-1.6 0-4.9-0.6-6 0.6-4 0-3.4-1.1-1.8-3.7-2-6.9-1-4.5-0.2-7.7 0.6-5.6 0-2.9 0.8-3.7 2.2-4.3 0.2-7.4-0.8-4.6-2.2-3.7-2.1-2.8-0.8-4.5 0.4-5.3 0-4.8 1.4-2.9 0-6.4-0.8-2.7-2 1.1-1 1.8-1 2.7-1 1.9-3.8 0-2-1.4-4.2-4.5-2.3-3.7 0-4.1 0-0.7 3.3-4 2.3-4.3 2.3-2.3 4.6 0.7 2.1 2.7 2.3 3.5 4 5.6 3.4 3.7 7 0.8 3 0 2.5-0.8 6 0 6-0.3 2.8-2.1 0.8-6.7 1.8-1.8 3.4 0 5.8 2.6 3.2 2.7 2.2 0.8 1.9-0.8 0.2-4 1.6-2.1 2.8-1.6 4-2.7 1-8.5-0.4-6.9 1.2-4.3 1.3-1.3 2.7 2.4 4.2 0 3.4-0.3 4-2.4 3.1-0.5 4 1.6 2 2.9-0.2 10.7 1 6.1 3 13.6-0.2 8.7 0.2 9.6 1.8 8 3.4 5.9 0.8 4.2-0.2 3.2 0.2 2.4 3.8 2.1 2.2 1.6z" data-id="MKD2936" data-name="Kavadartsi" name="Kavadartsi"/><path id="MKD2937" d="M390.1 204.6l4.4 2.7 3.9 0.7 5.7 3.2 8.2 6.5 10.6 5.2 6.7 5.2 3.3 5.2-2.7 1.7-2.7 2.4-1.7 0.8-3.4-5-5.7-4.5-5.4-1.3-8.1-3.2-4.4-3.3-4.3-5.8-4.8-0.6-3.4-4.2-0.9-1 1.9-4.6 0.4-0.1 1.5-0.5 0.9 0.5z" data-id="MKD2937" data-name="Aerodrom" name="Aerodrom"/><path id="MKD2938" d="M425.8 238.2l-3 1.7-2.2 0.7-1.9 2.2-1.1 3-0.7 3.1-1.6 2.7-2.9 1.4-4.8-1.9-0.8-2.4 0-11.3-3.6-4.2-3.9 0-3.4 2-4.3 0-0.3-0.6-1.6-2.6 0-6.5-2.4-1.3-3.4 0-0.5-3.3 0.2-1.8 0.8-6.6 1.9-2.2 3.4 4.2 4.8 0.6 4.3 5.8 4.4 3.3 8.1 3.2 5.4 1.3 5.7 4.5 3.4 5z" data-id="MKD2938" data-name="Kisela Voda" name="Kisela Voda"/><path id="MKD2939" d="M768.5 143.4l0 1.4 1.6 5.2 2.6 1.5 1.9-1.7 1.5-3 2.3-1.3 2.3 1.5 2.6 3.8 0.3 5.7 0 10.7 1.7 4.5 3.9 2.2 5.7 3 1.5 1.8 1.1 8-0.2 3.9 1.5 2.5 2.7 3.5 1 3 2.6 3.2 0.1 4.8-0.1 5.4 0.7 4 1.9 3.3 0 4-5.9 3.9-4.6-0.2-1.8-1.5-1.9-2.8-2.4-2-1.9-0.9-3.3 0-2.9 0.2-1.2 2-1 7-0.8 7.2-1.9 5.2-0.1 4.5 0.5 12.6-2.7 3.3-0.1 1.1-1.4 0-3.4 1.1-3 4.1-1.5 2.8-1.8 0.8-2.1-0.6-0.4-1.9-1.6-1.3-2.1 0-1.8 1.3-1.5 2.1-3.6 3.3-6.6 0.2-1.7-0.9-2.1-2.8-1.8 0-2.2-1.1-2-7.8-2.4-4.9-0.3-8.7 0-3.7 1-2.3 1.2-0.9 0.4-1.5-0.4-2.4-0.9-1.3-15.1 0.5-6-4.2-4.9-6.2-1.7-4.9-0.1-0.5 1.9-2.4 3.9-2.8 4.8-5 5.6-4.5 1.8-4.2 2.4-4.1 5.9-3.7 1.7-0.4 1.3-6.1 2.1-7.1 2.4-8.9 1.1-5.2 2.8-4.8 0.5-4.3-0.7-3.9-1.8-4.1-0.5-4.7 0-1.6 1-1.3 8.4-0.4 4.7-0.5 7.1 0 6.2 1.2z" data-id="MKD2939" data-name="Kocani" name="Kocani"/><path id="MKD2940" d="M615.5 109.8l2.7 3.3 3.3 3.1 3.9 0 1 1.1 0 2.2 0.6 6.2 1.4 2.4 4.6 0 4.2 0.4 6.4 3.4 4.4 5.7 6.5 5 3.9 3.8 3 2.4 6.5-0.3 3.9-1.9 4.9-1.2 3.6-1.6 0.7-1.7-0.2-3.6 0.5-4.5 3-1.4 1.1-0.1-0.3 2 2 2.4 4.2 0 5.7 0.3 6-0.3 7.4-1.5 3.3-1.2 2.5-2.4 2.8 0.9 4 4.2 6.9 1.7 6.2 3.9 5 3.5 0.5 4.7 1.8 4.1 0.7 3.9-0.5 4.3-2.8 4.8-1.1 5.2-2.4 8.9-3.3-5.2-5.7-5.1-4.6-2.6-7.1-0.6-6.4 0-7 0.3-1.6 1.2 0 15.7-2.6 3.9-1.8 0-3.1-1.2-2.2-3.6-2-2.4-1.9-0.2-2 0.8-2 2.1-2.2 0.6-4.7 0-2-1.5-1.7-3.8-3.8-2.7-4.2 1.8-9.4 3.5-3.7 2.1-5.1 0.9-4.8 0-3.3-0.3-2.2 1.2-2.7 3.6-1.5 4.1-0.9 3.9-0.8 2.1-1.8 0.3-1.8-0.6-2.6-2.1-6.2-3.3-1.4 0-1.3 0.7-2.4-0.8-5.5 1.1-7.3 0-1.1-4-4.6-4.5-2.8-1.7-1.7-1.9-1.1-5.2-0.5-4.3-1.3-2.8-3.5-0.3-3.3 0-3-0.4-1.6-2.4-0.4-3.6 2.5-5 4.4-5.7 1-7.6 1.5-1.9 0.4-0.5 4.9-0.2 4.6-1.7 3.9-6 3.7-7.3 0.4-5.5 0-3.6-0.4-6.2 0-2.8 2-1.5 3.9 0 4.4 0.3 2.5 0.3z" data-id="MKD2940" data-name="Kratovo" name="Kratovo"/><path id="MKD2941" d="M376.8 534l-6.1 5.4-0.2 1.5 0.2 3.4 1.6 1.2 0.2 2.8 1.6 2.1 4 0.2 3.8 0.5 1.7 1.3 0 4.6-1.5 3.6-1.9 2.5-0.4 4.6-1.5 7.9-5.2 5.6-2.8 3.8-3.3 2.3-5.6 0.3-2.3 0.6-1.8-0.6-1.8-1.6-3.1-4.5-4-2.1-1 0.1-0.2-2.6-2.6-0.3-2.2-1 0.8-3.1 1.4-1.5 1.9-6.4 0.5-5.3-0.5-5.3-2.5-4.4-3.3-3.3-1.5-2-1.9-3.9 0-4.8 0.2-7.6 0-5.4 0.5-1.4 0.4-1.2 1.9-1.5 2.5-0.2 2.9-2.6 1.7-0.8 2.5 1.1 1.1 4.8 1.2 7.9 1.1 2.3 2 0.8 5.1-0.3 2.9-1.3 3.4-0.5 5 0.3 4.4 2.8 0.7 1.2z" data-id="MKD2941" data-name="Krivogaštani" name="Krivogaštani"/><path id="MKD2942" d="M318.3 471l1.9 3.4 4.5 6.4 6.2 7.1 2.3 1.5 1.3 3.1-0.4 5.6-9.2-0.5-3.8 0.2-1.5 2.1-0.2 3.6 4.4 2.3 5.2 6.1 4.5 4.8 1.4 2.8 3.1 1.7-0.5 1.4 0 5.4-0.2 7.6 0 4.8 1.9 3.9 1.5 2 3.3 3.3 2.5 4.4 0.5 5.3-0.5 5.3-1.9 6.4-1.4 1.5-0.8 3.1 2.2 1 2.6 0.3 0.2 2.6-1.7 0.2-3.1 1-1.5 3.6-2.8 8.9-2.7 4-0.4 4.9 4.2 4.7-2.5-0.3-2.6-1.9-2.4-2.8-1.9 0.6 0.2-5.3 1.1-3.5 0-10.8-2.2-3.9-4.4-4-1.8-6.4-1.1-6.4-4.9-5.9-3.7-1.4-3.7 1.9-4 0.5-3 0-0.7-2 0-2.9 0.4-4.9 0-12.8-2.6-4-4.5 0-5.9-0.9-5.9 0.9 0-7.4-2.9-2.4-6.3-3-2.8-1.5-0.4-2.2-2.7-6.1 1-2.2 0.7-1.4 2.9-2 3.5-1.6 10.8-3.9 6.1-3.6 5.2-2.5 7-2.3 5.5-2.2 1.4-4.1 0-7.8 0.9-3.4 3.5-0.2 1.6 0.2z" data-id="MKD2942" data-name="Kruševo" name="Kruševo"/><path id="MKD2943" d="M585.2 144.5l-1.5 1.9-1 7.6-4.4 5.7-2.5 5 0.4 3.6 1.6 2.4 3 0.4 3.3 0 3.5 0.3 1.3 2.8 0.5 4.3 1.1 5.2 1.7 1.9 2.8 1.7 4.6 4.5 1.1 4 0.2 0.5-0.9 4.1-3.7 2.8-7.1 2.6-5.6 3.1-4.2 0.3-2.3-2.4-2.5-5-4.1-4.5-5.2-1.4-5.9 0.2-4.8 0.9-2.8 2.9-5.4 4.5-2.2 2.9-0.9 3.5 0 3.8-1.9 2.6-3.2 2.6-1.2 2.9-3 2.1-0.5 1.2-5.2-3.6-3.1-4.4-3.7-2.6-5.6-0.2-4.5 0.4-2.2 1.8-3 1.3-2.6 0-2.3-1.1-1.5-4.2-3.8-2.9-3.8-0.8-5.7-3.1-2.1-2.5-0.5-0.6 0-2.2 0.4-3.3 0.7-2.9 0-4.6-1-2-5.3 0-9.2-7.9-4.6-2.8-1.2-3.2-0.3-0.8-0.1-5.1-3.2-2.1-4.6-2.2-3.4 0-1.9-1.1-0.1-3.8 1-3.3 2.3-1.1 3.5-2 2.8-2.6 2.9-2.9 1.6-5.4 0.4-4.9-0.1-9.2 1.4-2.8 1.9-0.7 2.3 0.7 2.4 1.9 2 0.3 1.2-0.9 0.3-6.8-0.3-2.4 0-4.2 2.6-2 3-0.4 2.2-0.9 0.7-2.1 0-4.4-1.1-5.7-1.5-4.7-0.1-7.1-0.2-11.1-0.7-2.5 5.9-3.8 5.6-6.8 5-3.1 3.7 3.5 8 3.7 0.7 1.4 3.9 1.7 3.4 0.7 2.1 1.1 2.6 3.1 0.1 4.4-0.8 2.5-3.2 1.3-2.8 0.5-2.1 1.1-0.8 2.7-0.1 4.2 0.9 1.3 1.4 2.5 0 5.1 0.1 5.3-1.1 2.4-1.4 2.3-0.6 2.6-0.1 3.1 0.4 8.5 1.3 4.2 3.5 5.2 4.1 4.6 2.4 3.2 3.1 1.3 3.1 0 1.9-2.9 3.9-2 3.6-0.7 2.7-2.2 3.1-1.1 4.5-0.9 2.6 0.2 3.5 3.6 3.9 1.5 6.7 2 3.3 0.1 1.2-0.3 1.7-2.2 0.2-2.4 0.9-2.9 2.2-1.4 3.3-0.4 2.7 1.3 1.8 4.2 1.1 4.7 1.5 4.2z" data-id="MKD2943" data-name="Kumanovo" name="Kumanovo"/><path id="MKD2944" d="M288.7 279.8l3.7 1 4.6 3.1 4.5 4.2 6.7 3.1 4 4.3 4.7 5.4 5.6 9.3 7.3 10.1 6 11.8 7.5 6.8 6.2 0.8 2.5-1.9 2.9 0.9 4.4 0 3.4 4 0 17.8 4.4 9.2 3.5 3.3 0.4-1.6 0.5 3.7-2.5 4.6-3.4 4.2-2.2 2.1-1.3 1.7-0.3 3.4 1.6 4.2 0 5-0.3 6.3-0.2 1.6-3.1 0-0.5 6.4-0.4 9.4-2.5 6.2-2.9 3.5-5.7 7-2.1 3.8-1.1 3.6 0.3 13.5-1.9-0.5-3.1-1.5-2.1-1.6-4-1.5-4.5 0.8-1.7 2-1.5 3.6-2.1 1.3-2.7 0-2.9 1.7-0.5 1.3 0 3.1 0.4 0.7-1.6-0.2-3.5 0.2-0.9 3.4 0 7.8-1.4 4.1-5.5 2.2-7 2.3-5.2 2.5 0-1.4-1.3-4.2-3.7-2.2-4-0.6-4.6-1.9-2.3-2.5-1.4-2.5-0.4-1.9 0-6.7-0.2-1.4-1.9-1.4-4.8 0-3.1 2.2-2.5 1.4-2.9 0.8-3.5 1.4-5.9 0.3-3.8 1.1 0-4.6 0.7-3.8 2.9-1.7 3.6-1.1 2.4-3.8 5.7-4.1 4.4-6 4.4-4.5 3.9-2.4-0.2-3.2-3.7-2.4-4.9-2.4-4.7-4.5-2.1-3.2-1-8.3-1.6-2.8 0.5-7 0-14.6-2-4.2-5.5-2.4-4.2 0-4.1-0.3-2.3-2.1-1.3-4.7 2-7.5-0.7-9.1-1.4-3.5-1.8-2.4-1-2.8 0-4.2-0.5-4.5-3.7-2.8-1.8-5.2 0.5-2.8 2.1-1.8 3.1 0 1.1-2.1 0-12.9 2-4.9 8.1-0.7 2.2-0.4 5.3-1.3 5.5-5.2 6.5-10.5 9.1-10.1 7.6-5.6 5.1 0 1.6 0.4z" data-id="MKD2944" data-name="Brod" name="Brod"/><path id="MKD2945" d="M359.1 588.2l-0.5 0.1 0.4 3.3 1.9 2.8 5.9 1.3 3.7 0.3 4.9 3 4.6 7.4 4.8 3.8 1.4 4.1 2.3 2.3 8.5 0.5 2.4 1 2.7 4.8 7.4 4.1 4.3 0.2 4.3 0 5-3.5 2.9 0 7.1 5.6 5.3 2 6 1 4.5 1.5 1.5 1.7-0.2 0.2-1.6 7.8-4.7 6.5-5.7 6.9-6.1 7.7-4.4 2.8-8.4-1.2-9.2-1.2-5.3-1.9-5.8-2.5-4 0-6.1 4.4-3.5 4.6-0.9 2.5-0.9-0.9-3.3-0.8-2.5 0-1.9 0.5-2.9 2.1-4 2.5-2.1 0-3-0.8-3.1-1.7-1.9-2.1-1-2.8 0.2-5 0-4.9 0.4-3.8-0.2-3.3-0.8-3.5-2.2-2.3-5.2-1.8-3.8-2.5-3.5-4.1-2.1-4.6-1.3-4.6 0-5 1.9-3.1 1.5-3.5 0-4.4-3.4-4.9-4.2-4.7 0.4-4.9 2.7-4 2.8-8.9 1.5-3.6 3.1-1 1.7-0.2 1-0.1 4 2.1 3.1 4.5 1.8 1.6 1.8 0.6z" data-id="MKD2945" data-name="Pelagonia" name="Pelagonia"/><path id="MKD2946" d="M707.5 433.8l2.5 3.2 4.3 4.7 3.3 5.5 2.8 4.1 1.8 4.3 0.2 5.1 0.6 1.4-2 2.2-4.2 4-3 1.5-1.7 1.5-1.1 2.3-1 2.8-1.4 2.3-1.4 1.3-2 0-3.5-1.2-6.1-3.2-3.9-2.2-4.1-4-2.3-0.7-3.5 0-2.7 1.9-4.2 5-4 3.1-1.7 3-2 6.9-1.4 6.3-3.1 6.9-4.2 3.4-2 0.2-1.4 1.9-0.4 1.7 0.9 2.3 2.5 3.3 2.5 3.2 1.1 2.9 0 2.2-0.6 3-0.8 2.7-0.7 3.2-1.1 2-5.8 1.4-5.9 0-5.3-0.6-2.3 0.1-2.2-1.6-3.8-2.1-0.2-2.4 0.2-3.2-0.8-4.2-3.4-5.9-1.8-8-0.2-9.6 0.2-8.7-3-13.6-1-6.1 0.2-10.7-2-2.9-4-1.6-3.1 0.5-4 2.4-3.4 0.3-4.2 0-2.7-2.4 0.3-9.4-0.6-10.9 0.1-5.4 1.1-1 2.4 0 1.8 2.2 0 5.8 0.8 4 1.3 2 4.9-0.3 1-1.7 3-7.9 0-2.5-2-2.4-1.3-0.6-0.5-1.5 0.2-1.5 0.9-2.1 2.4-3.7 2.9-6.6 0-2.7-0.5-2.4-2.4-1.9-2.1 0-3.2 1.1-3 1.4-2.8 1.8-2.9 0-2.6-1.5-1.3-2.4 0-2.8 0.5-2.9 1.8-3.9 2.7-3 2.4-1.3 2.2-4.9 2.1-3 1.1-3.2-0.3-3.2 4.6 3.9 3.7 0.2 3.8 1.5 1.5 1.9 2.8 5.1 3.2 3.7 1.9 0 1.9-0.9 1.3-1.7 1.3-3.4 1.9-3.7 2.7-0.4 1.9 1.9 1.4 2.4 1.5 3.6 1.4 6 0.5 5.8 1.7 4.9 2.5 1.9 3.1-0.9 5.5 0.5 5.1 0.2 6.2 2.1 1.1 3.4 0.2 7.5 3 1.9 4.3 1.9 4 2.6 5.9 4.3 6.9 1.9 7.3-0.2 3-0.7z" data-id="MKD2946" data-name="Negotino" name="Negotino"/><path id="MKD2947" d="M565.9 682l0 1.7-0.8 3.9-5.3 8-13.8 13.4-5.4 9.8-14.6 10.2-3.9 4.9-0.7 4.3-0.1 5.5-1.4 5.9-4.9 5-11.1 2.5-20.1-4.6-11 5.1-0.8 2-0.9 6.7-1.5 2.8-1.9 0.7-5.6-0.3-2.2 0.3-3.9 3.2-9.1 9.1-3.4 2.2-10.9-2.1-17.2-15.5-1.4-0.2 2-5.5 0.1-5.3-1.4-6.2-0.3-4.6-1.1-4.4-4.2-6.2-5.2-5.6-4.9-5.9-1.7-3.7-3.7-1.3-4.7-0.9-0.2-4-0.3-7.2-0.7-4.7-4.7-4.9-1.1-2.2-0.7-5.3 0.2-3.7 1.4-2.2 0.9-3.1 0-5.3 0.8-2.2 0.9-2.5 3.5-4.6 6.1-4.4 4 0 5.8 2.5 5.3 1.9 9.2 1.2 8.4 1.2 4.4-2.8 6.1-7.7 5.7-6.9 4.7-6.5 1.6-7.8 0.2-0.2 3.3-2.9 2.8-0.4 1.7 1.9 1.6 3.7 2.1 3.5 6.1 4.3 5.2 1.9 7 1 12.7 1.8 12.8 6.2 5.4 1.3 4.1 0.6 3.5 2.5 3.9 5.3 3.3 2.2 5.4 1.5 5.2 0 3.7-0.3 1.7-3.1 1.1-0.3 1.2 0.6 1.4 3.1 3.3 3.5 4.2 3.7 4.2 0.9 8.6 4z" data-id="MKD2947" data-name="Novatsi" name="Novatsi"/><path id="MKD2948" d="M357 180.4l0 15.3-0.3 7.8-9.8-0.9-6-7.6-4.1-9.7-4.5-8.4-1.2-6.8-3.3-3.6-3 0.4-2.4 2.8-4.1 0.8-3.6-2-2.7-6.9-0.9-9.7 1.7-6.7 16.8 3.4 4.1-0.9 0.5-3.7 4.2 2.4 11.9 11.7 6.7 14.9 0 7.4z" data-id="MKD2948" data-name="Gjorce Petrov" name="Gjorce Petrov"/><path id="MKD2950" d="M211.4 391.7l-0.7 4.5 1.3 5.2 0 8.4-0.3 5.9-2.8 5.2-1.8 5.9-2.1 1.4-0.5 2.3-1.9-0.5-2.1 0-4.1 1-2.9 2.4-8 3.9-6.5 1.3-1.9 4.2 0 2.6-1.5-0.5-1.1-2.4-1.8-5.9-6-6.6-2.5-6.6-2.9-6.3-6.5-1-2.6-6.7-1.8-6.6-2.9-5.2-4.4-0.8-1.6-0.3-5.2 1.4-3.1-2.4-0.3-3.5 4.2-5.2 8.8-0.3 3.1-2.5 6.8-8 4.5-2.8 8.8 0 2.1-1.7 6.1-0.6 4.3-0.5 8 2.5 6 3.1 5.7 4.2 3.7 4.9 2.8 3.4 3.6 3.2z" data-id="MKD2950" data-name="Zajas" name="Zajas"/><path id="MKD2951" d="M92.1 495.2l-2.5 2.9-4.4 5.9-5.4 3.1-11.3-0.7-12.9 0-12.1-0.3-5.6 0.8-1.9-5.2-4.6-6.6-3-1.9-6.5-1.1-2.7-2.4-0.8-2.8-0.8-8.5-1.3-4-0.7-1.4 5.8-5.2 5.8-6.8 8.9-4.3 8.6-5.5 4.4-7.6 9.4 0 6.9 1.1 4.5 6.5 2.4 9.8 4 3.8 4.5 0 2.9 9.2 0 15.2 6.1 1.1 2.3 4.9z" data-id="MKD2951" data-name="Centar župa" name="Centar župa"/><path id="MKD2952" d="M111.8 467.5l-3.7-1.7-3.1 0.7-2.6 3.4-1.6 4.5-0.8 5.6-1.3 6.3-1 3.4-3.1 5.8-1.3-1.6-1.2 1.3-2.3-4.9-6.1-1.1 0-15.2-2.9-9.2-4.5 0-4-3.8-2.4-9.8-4.5-6.5-6.9-1.1-9.4 0-4.4 7.6-8.6 5.5-8.9 4.3-5.8 6.8-5.8 5.2-4.2-8.1-3-3.1-4.3-2-2.8-7.7 1.1-14-1.4-7.4 19-4.2 5.6-2.4 5.2-3.2 3.3-3.3 2.1-5.4 0-1.1 7.3 3.2 7.7 8.7 9.7 7 13 2.8 4.5 0 8.1 7 4.5 7.1 5.3 6 8.5 3.2 5.3 2.7 1.7 8.7z" data-id="MKD2952" data-name="Debar" name="Debar"/><path id="MKD2953" d="M177.1 445.4l0 1.9 1.1 4.2 2.3 3.5 2.6 2.4 6 3.8 5.5 2.5 5.7 1.7 5.7 4.2 1.7 2.9-0.4 0.6-3.4 1.3-0.5 4.6 0.5 3.8 1.6 3.1 10.1 7 1.9 3.1 0 3.1 1.5 3.1 3.7 0.4 11.1 0 5.5-1.4 5.5-2.8 0.1-4.8 3.8-1.8 3.1-0.3 1.3 2.7 2.8 5.3 5.2 2.4 6 2.4 2.1 1.5-1 2.2 2.7 6.1 0.4 2.2-1.6-0.9-5.9 2.9-1.1 4-5.9 5.9-6.3 3.9-11.6 0.6-7.8 0-10.9-0.4-9.2 4.1-8.7 6.6-2.4 4.8-2.1-3.3-3.4-7.2-3.1-3.5-7.2-2.4-2.9-5.9 0.8-5.9-1.4-6.6-4.1-8.7-2.6-7.3-14.8-0.3-8.4-2.1-11.9-1-9.9 0.3-17.4 0.3-12.5-0.6-3.4 3.1-1-1.2 3.1-5.8 1-3.4 1.3-6.3 0.8-5.6 1.6-4.5 2.6-3.4 3.1-0.7 3.7 1.7 4.4 1.7 6.2 1.1 4.9-1.8 4.2-4.1 4.6-8.8 4.9-2.7 0-6.6 0.4-4.8 4.9-5.5 0-21.7-2.5-14.2-0.7-3.3 4.4 0.8 2.9 5.2 1.8 6.6 2.6 6.7 6.5 1 2.9 6.3 2.5 6.6 6 6.6 1.8 5.9 1.1 2.4 1.5 0.5z" data-id="MKD2953" data-name="Drugovo" name="Drugovo"/><path id="MKD2954" d="M204.5 430.5l-0.3 1.9 1.6 2.4 0.7 4.5 0.8 2.1 2.6 0 2.3-2.1 1.9-0.3 3.1 2.4 2.1 3.9 0 9-4.2 2.8-3.9 9.7-3.5 5.7-1.7-2.9-5.7-4.2-5.7-1.7-5.5-2.5-6-3.8-2.6-2.4-2.3-3.5-1.1-4.2 0-1.9 0-2.6 1.9-4.2 6.5-1.3 8-3.9 2.9-2.4 4.1-1 2.1 0 1.9 0.5z" data-id="MKD2954" data-name="Kicevo" name="Kicevo"/><path id="MKD2955" d="M177.3 370.9l-6.1 0.6-2.1 1.7-8.8 0-4.5 2.8-6.8 8-3.1 2.5-8.8 0.3-4.2 5.2 0.3 3.5 3.1 2.4 5.2-1.4 1.6 0.3 0.7 3.3 2.5 14.2 0 21.7-4.9 5.5-0.4 4.8 0 6.6-4.9 2.7-4.6 8.8-4.2 4.1-4.9 1.8-6.2-1.1-4.4-1.7-1.7-8.7-5.3-2.7-8.5-3.2-5.3-6-4.5-7.1-8.1-7-4.5 0-13-2.8-9.7-7-7.7-8.7-7.3-3.2 0-3.5-8.3-24.2-1.9-11.1-3.1-37.7 1.1-5.5 3.1-6.9 3.9-5.1 9-8.9 2.5-4.6-0.3-3.4 11.5 4.9 8 3.2 4 4.6 8.8 4.2 6 5.2 8.1 1.4 8.1 0.7 4.4-3.5 3.6-4.9 3.7-4.5 8 0 7.3 1 7.5 1.4 6 0.4 2.4 2.8 4.9 8.7 0.8 10.1 3.6 4.2 4.7-2.8 10.9 0 3.9 0.4 0 2.7-3.4 3.2-2 2.4 2.8 5.6 5 8 5.7 6.6 0.8 4.7z" data-id="MKD2955" data-name="Mavrovo and Rostusa" name="Mavrovo and Rostusa"/><path id="MKD2956" d="M237.8 379.7l1.3 4.7 2.3 2.1 4.1 0.3 4.2 0 5.5 2.4 2 4.2 0 14.6-0.5 7-2.3 3.1-3.4 5.9-5.2 4.6-4.7 1.4-3.1 3.1-1.6 4.5-2 7.7-3.4 4.8-5 3.5-6.7 0.7 0-9-2.1-3.9-3.1-2.4-1.9 0.3-2.3 2.1-2.6 0-0.8-2.1-0.7-4.5-1.6-2.4 0.3-1.9 0.5-2.3 2.1-1.4 1.8-5.9 2.8-5.2 0.3-5.9 0-8.4-1.3-5.2 0.7-4.5 0.3-2.1 2.1-1.4 3.7-2.8 5.4-0.7 4.9-1.7 4.2-0.7 3.4-2.8 2.4 0.2z" data-id="MKD2956" data-name="Oslomej" name="Oslomej"/><path id="MKD2957" d="M228.7 188.3l-4-0.9-3.3-2.1-1.1-2.1 0-7.1 1.1-3.8-1.6-3.2-2.9-3.8-3.3-1.4-2.4 0-3.4-1.1-1.3-3.8-2.1-5.6-3.1-6.4-3.3-3.8-3.7-2.1-4.9-3.2-5-2.1-4.4-1.4 38.8-13.3 9.8-4.9 4.6-4.5 9.4 8.7 5.7 7 5.3 7.4 3.4 7 3.2 2 3.7 0.8 2.9 1.9 1.5 4.7-0.6 5.9-4 5-3.5 2.8-4.3 7.8-2.6 6.2-6.1 3.1-6.7 1.2-10.6 2.3-1.5 1.6 0.3 1.2z" data-id="MKD2957" data-name="Tearce" name="Tearce"/><path id="MKD2958" d="M228.7 188.3l0.8 3.4-2.4 0.6-2.1 2.8-2.1 3.1 0 1.4 1.6 1.8 3.3 1 0.8 2.5 1.9 2.8 4.1 1.4 1.3 1-0.2 3.9-1.6 0.7-2.8 0.3-3.5 1.4-2.8 4-3.9-0.8-3.1-0.4-5-3.5-3.1-2.4-2.3-0.4-2.4 1.4-2 4.2-0.8 2.1-1.5-0.1-1.6-0.2-5.2-6.3-4.2-4.9-3.7-2.1-11.9-2.5-10.4-2.8-6 0.4-4.4 2.8-3.9 3.8-4.7 3.5-6.8 2.5-5.9 3.1-4.5 4.6-5.9 2.8-1.3 1.6-3.7-15.9 0.5-11.9 4.8-25.8 3.9-11.3 7.6-9.3 9.9-5.7 36.5-12.5 4.4 1.4 5 2.1 4.9 3.2 3.7 2.1 3.3 3.8 3.1 6.4 2.1 5.6 1.3 3.8 3.4 1.1 2.4 0 3.3 1.4 2.9 3.8 1.6 3.2-1.1 3.8 0 7.1 1.1 2.1 3.3 2.1 4 0.9z" data-id="MKD2958" data-name="Tetovo" name="Tetovo"/><path id="MKD2959" d="M197.1 261.9l0.7 2.1-0.2 5.9 0.2 3.5 2.3 0.9-2.8 1.2-1.5 1.8-1.9 2.8 1.9 8.3-3.9 4.6-7.4 2.4-12.4-3.1-9.9 1.4-4.7 4.2-7-1.1-6.8-3.8-2.3-3.5-2.4-6.6-2.5-3.2-5.3-0.7-5.4 0-4.9-0.3-1.7-0.8-8.2-3.6-4.9-5 3.5-3.9 6.5-11.2 4.1-9.8 0.2-1.8 4.8-3.2 4.5-1.3 11.9 1.8 12.3 2.4 12.7 4.2 11.2 6 9.9 5.9 5.2 1.1 2.6 2.4 1.6 0z" data-id="MKD2959" data-name="Polog" name="Polog"/><path id="MKD2960" d="M200.9 220.5l0.3 9.9 1.6 2.5 5.2 0 4.4 0.3-0.3 3.9-1.3 2.8-1.5 4.9-2.6 3.8-2.9 2.1-4.1 0.7-1.9 2.8 0.3 2.5 1.3 2.8 0.5 2.4-2.8 0-1.6 0-2.6-2.4-5.2-1.1-9.9-5.9-11.2-6-12.7-4.2-12.3-2.4-11.9-1.8-4.5 1.3-4.8 3.2 1.3-10.8-1.2-5 1.3-1.6 5.9-2.8 4.5-4.6 5.9-3.1 6.8-2.5 4.7-3.5 3.9-3.8 4.4-2.8 6-0.4 10.4 2.8 11.9 2.5 3.7 2.1 4.2 4.9 5.2 6.3 1.6 0.2z" data-id="MKD2960" data-name="Bogovinje" name="Bogovinje"/><path id="MKD2961" d="M225 220.4l3.9 6.9 4.4 4.5 3.4 0.4 2.1 1 0 4.6 0.8 7.7 3.6 2.1 5.2 0 1.8 4.5 0 1.8-1 2.4-3.4 0.7-1 3.8-0.3 5.3 0.3 4.5 3.9 0.7 6 0.4 4.6 0 5 4.2 2.6 2.4 9.6 0 2.8-0.3 1.6-5.3 2.9-1 2.8 0 2.1 3.1 0 5-1.6-0.4-5.1 0-7.6 5.6-9.1 10.1-6.5 10.5-5.5 5.2-5.3 1.3-1.8-3.4-7.5-10.1-7.1-5.6-3.1-3.8 0.6-3.9-1.1-4.2-2.3 0-6 0.4-8.3-1.1-8.4-4.9-2.9-1.2-2.3-0.9-0.2-3.5 0.2-5.9-0.7-2.1 2.8 0-0.5-2.4-1.3-2.8-0.3-2.5 1.9-2.8 4.1-0.7 2.9-2.1 2.6-3.8 1.5-4.9 1.3-2.8 0.3-3.9-4.4-0.3-5.2 0-1.6-2.5-0.3-9.9 1.5 0.1 0.8-2.1 2-4.2 2.4-1.4 2.3 0.4 3.1 2.4 5 3.5 3.1 0.4 3.9 0.8z" data-id="MKD2961" data-name="Brvenica" name="Brvenica"/><path id="MKD2962" d="M106.1 269.3l4.9 5 8.2 3.6 1.7 0.8 4.9 0.3 5.4 0 5.3 0.7 2.5 3.2 2.4 6.6 2.3 3.5 6.8 3.8 7 1.1 4.7-4.2 9.9-1.4 12.4 3.1 7.4-2.4 3.9-4.6-1.9-8.3 1.9-2.8 1.5-1.8 2.8-1.2 2.9 1.2 8.4 4.9 8.3 1.1 6-0.4 2.3 0 1.1 4.2-0.6 3.9 3.1 3.8 7.1 5.6 7.5 10.1 1.8 3.4-2.2 0.4-8.1 0.7-2 4.9 0 12.9-1.1 2.1-3.1 0-2.1 1.8-0.5 2.8 1.8 5.2 3.7 2.8 0.5 4.5 0 4.2 1 2.8 1.8 2.4 1.4 3.5 0.7 9.1-2 7.5-2.4-0.2-3.4 2.8-4.2 0.7-4.9 1.7-5.4 0.7-3.7 2.8-2.1 1.4-0.3 2.1-3.6-3.2-2.8-3.4-3.7-4.9-5.7-4.2-6-3.1-8-2.5-4.3 0.5-0.8-4.7-5.7-6.6-5-8-2.8-5.6 2-2.4 3.4-3.2 0-2.7-3.9-0.4-10.9 0-4.7 2.8-3.6-4.2-0.8-10.1-4.9-8.7-2.4-2.8-6-0.4-7.5-1.4-7.3-1-8 0-3.7 4.5-3.6 4.9-4.4 3.5-8.1-0.7-8.1-1.4-6-5.2-8.8-4.2-4-4.6-8-3.2-11.5-4.9-0.6-7.4-3.1-13.2 0.5-11.6 9.8-6 9.1 9.6 4.7 2.5 6.3-0.3 2.9-2.4 4.2-8 2.5-1.7 3.7 2.3 7.4 10.4 3.7 2.8 8.4-2.9 4.4-5z" data-id="MKD2962" data-name="Gostivar" name="Gostivar"/><path id="MKD2963" d="M306.4 141.1l-0.6 1.8-4.6 5.5-4.7 0.8-4.7 0-4.7 0.8-5.7 0.5-4.4 2.1-1.6 2.1 3.2 3 3.1 3.8 2.8 0 2.6-1.7 2.1-0.4 1.6 4.6 0 4.7-1.6 2.1-3.7 1.7-2.5 3-0.4 2.9 1 4.1 3.3 6.1 0 4-2.8 1-4.5 2.1-5.3 1-2 1-1 1-0.2 2.2-6.3 0.2-2 1.2-2 3.1-2.9 0-7.8-0.8-4.6-1.6-0.9-1.9 2.3-2.3 0-3.6-2-1.5-2.9 1.5-4.3 0-6.7-1.9-1.5-1.6-0.8-3.4-0.3-1.2 1.5-1.6 10.6-2.3 6.7-1.2 6.1-3.1 2.6-6.2 4.3-7.8 3.5-2.8 4-5 0.6-5.9-1.5-4.7-2.9-1.9-3.7-0.8-3.2-2-3.4-7-5.3-7.4-5.7-7-9.4-8.7 13-12.9 9.3-6 3.1 0 2.6 0.8 5.2 2.9 14.8 11.5 13.8 13.6 6.3 10.5 3.6 7.5 1.5 1.5z" data-id="MKD2963" data-name="Jegunovce" name="Jegunovce"/><path id="MKD2993" d="M868.6 470.6l1.7 1.5 3 3.5 2.2 6.9 0.8 3.2-0.2 2.7-3 6.4 0 3 3.7 1.2 1.7 1.7 2 0 2.4-2.2 5.7-0.5 1.5 2 0.7 2.5 0.6 4.1 1.1 1.8 2.4 2.2 3.2 1.7 3.3 0.5 1.9-0.5 4-2.2 4.8-0.2 0 0.9 2.6 2.5 0.4 5.4-0.4 7.9 0.4 9.9 0 2.7 1.1 1.9-6.1 1.1-7.3 6.4-1.2-1-6.1-3.7-14.1-7.4-4.6-1.2-2.6 0.7-2.7 1.7-2.1 4.7-2.2 5.4-2.6 3.2-1.1 1-2 0-1.3-2-2.6-0.2-2.1 1.2-1.4 2.5-2.6 1-8 0-2.9-1 0-3.5-4.1-4.1-2.9-2.5-2.7-0.2-4.4 1.7-3.9 0.2-5 0-2.7-0.2-0.6-7.7-1.7-3.7-3.3-5.1-2-4 0-2.2 1.5-4 2.9-3.6 1.5-3.5 0-2.5-1.8-2.9-2.1-1.8-3.7-0.4-2.9 0.2-4.7 0-4.8-2.2-3.7-3.5-4-4.4-3.4-4.7-2.5-3 0.1-1.3 0.1-0.9 2.5-2.7 5.6-2.7 4.6-1.5 2.8 0 2 1.5 4.6 0.7 1.9-1.7 0.4-3.5 0.6 0.5 1.5-1.5 4.8-6.1 1.1-3 1.3-2 3.8-0.5 4.5 2.5 2.6 0 3.1 2.5 4.6 2.2 5.6 6.9 2.4 3.5 4.1 0 7.2 0.2 6.1-2.5 3.9-0.7 4.8-3.9 2.4-1.3z" data-id="MKD2993" data-name="Southeastern" name="Southeastern"/><path id="MKD2994" d="M779.7 484.6l-0.1 1.3 2.5 3 3.4 4.7 4 4.4 3.7 3.5 4.8 2.2 4.7 0 2.9-0.2 3.7 0.4 2.1 1.8 1.8 2.9 0 2.5-1.5 3.5-2.9 3.6-1.5 4 0 2.2 2 4 3.3 5.1 1.7 3.7 0.6 7.7 2.7 0.2 5 0 3.9-0.2 4.4-1.7 2.7 0.2 2.9 2.5 4.1 4.1 0 3.5 2.9 1 8 0 2.6-1 1.4-2.5 2.1-1.2 2.6 0.2 1.3 2 2 0 1.1-1 2.6-3.2 2.2-5.4 2.1-4.7 2.7-1.7 2.6-0.7 4.6 1.2 14.1 7.4 6.1 3.7 1.2 1-4.3 3.8-3.6 14.6-5.3-1.8-2.9-0.2-3-0.7-6.2 0.2-2.9 0.5-2.1 0-4.7-1.3-3.9-0.4-2.7 1.7-2.2 3.4 0 3.1-1 3-2.2 1.1-6 0.2-8.1-0.4-4.7 7.2-3.2 4.7-3.4 2.2-3 1.2-0.8-0.1-1.9-0.1-3.7-2.5-1.7-3.4-6.8 0.2-1.7 3-0.1 3.4-1 9.1-7.1 5.1-1 0-3.7-6.4 0-2.5-1.3-2-3.1-1.2-0.2-4.1 0.2-5.3-2.4-7.5-2-4.6 0.1-10.2 0-4.7-0.8-3.6-1.4-0.7-2.9 0-4.1-1.7-2.7-2.7-3.5-5.4-6.2-7.2-3.1-5.1-2.6-2.1-4.1-0.5-4.9-2.5-3.9-4.1-2.9-0.6-8.7-0.6-0.2-0.2-1.9-2.2-2.1-6.3-0.7-4.1 0.3-5.1 0.6-3.6 1.2-3 0.6 0.9 1.7 0 0.5-2.4 1.5-2.7 9.4-3.7 17.2-4.2 7-0.3 5.2 0.7 2 0.7z" data-id="MKD2994" data-name="Valandovo" name="Valandovo"/><path id="MKD2995" d="M889.5 420.4l0.8 3.5 0.7 7.2 0 5.2-0.9 4.9-0.5 7.2-0.8 2.7-4 7.9-3.6 2.7-2.5 3.2-2.2 1-4.7 1-3.1 2-0.1 1.7-2.4 1.3-4.8 3.9-3.9 0.7-6.1 2.5-7.2-0.2-4.1 0-2.4-3.5-5.6-6.9-4.6-2.2-3.1-2.5-2.6 0-4.5-2.5-3.8 0.5-1.3 2-1.1 3-4.8 6.1-1.5 1.5-0.6-0.5-0.5-0.5-0.6-4.7-1.3-4.2-0.3-4.2 0-3.9 0.2-3.2 0.5-0.4 1.2-1.1 0-2.7-1.9-4.5-0.9-1.2 0-2 1.5-1.2 2.2 0 2.8-0.8 3.7-2.7 2-4.9 1.7-1 2.2 0 6.1 3.7 7.6 7.4 3.9 4 2.2 0.2 1.5-1.2 1.7-2.2 2.2-3.5 0.3-5 0-3.9-0.5-3.5-1.5-2.9-0.2-3.7-0.7-3.5-2.8-1.7-5.4-8.7-0.2-3 1.2-3.4 1.8-3.3 3-5.6 1.4-1.5 2.6-0.5 4.8 0 4.3-0.8 1-1.3 0.4 1-0.4 4.4 1.1 3.7 1.2 0 1.8-1 2.1-4.9 1.8-1.6 2.7 0.7 5.6 6 4.6 1.2 1.9 1.7 1.2 3.2-0.1 8-0.9 2.4-2.5 0.8-2.4 1.2-0.2 2 0.4 2.5 8.5-0.3 10.2 2.5 1.5 0.2z" data-id="MKD2995" data-name="Vasilevo" name="Vasilevo"/><path id="MKD2996" d="M826.6 590.6l0.7 2.9 2.2 2.4 2.8 1.3 1.6 2 2.1 3.4 2.2 0.4 5 0 3.1-1.4 5.4 0.2 2.9 1.1 6.6 4.8 1.8 0 0.9 1.2 0.3 4.3-0.3 6.6 0.5 0.1-2.5 4.1-0.4-0.6-4.5-1.1-5.9 1.7-1.3 3.7 0.3 4.7-0.9 4.2-6.7 8.6-6.7 5.6-1.3 0.5-1.3-2.8-5.9-4-10-5.2-4.1-0.5-4.7-0.1-0.9-1.1 0.3-4.9 2.1-6.7 0.7-4.1 0-2.7-0.4-2.6-3.9-6-2.4-2.6-1.4-2.6 7.1-5.1 1-9.1 0.1-3.4 1.7-3 6.8-0.2 1.7 3.4 3.7 2.5 1.9 0.1z" data-id="MKD2996" data-name="Bogdanci" name="Bogdanci"/><path id="MKD2997" d="M940.1 447.6l0.3 2.5 0.2 6.2-1.1 4.2-2.4 2-2.2 2.9-2.1 3.5-3.3 4.2-4.2 3.7-5.4 3.9-1.9 2.5 0.2 4.5 0 10.6-0.2 3.4-0.7 2.7-1.5 1.5-3.3 2.5-0.4 1.5-4.8 0.2-4 2.2-1.9 0.5-3.3-0.5-3.2-1.7-2.4-2.2-1.1-1.8-0.6-4.1-0.7-2.5-1.5-2-5.7 0.5-2.4 2.2-2 0-1.7-1.7-3.7-1.2 0-3 3-6.4 0.2-2.7-0.8-3.2-2.2-6.9-3-3.5-1.7-1.5 0.1-1.7 3.1-2 4.7-1 2.2-1 2.5-3.2 3.6-2.7 4-7.9 0.8-2.7 0.5-7.2 0.9-4.9 0-5.2-0.7-7.2-0.8-3.5 4 0.5 2.8 4 1.1 4.7 3.3 4 5.8 3.9 4.6 1 6.8 1 5.8 0.2 7.5 0.5 3.5 2.5 3.5 4.9 1.9 0z" data-id="MKD2997" data-name="Bosilovo" name="Bosilovo"/><path id="MKD2998" d="M802.6 605.4l1.4 2.6 2.4 2.6 3.9 6 0.4 2.6 0 2.7-0.7 4.1-2.1 6.7-0.3 4.9 0.9 1.1 4.7 0.1 4.1 0.5 10 5.2 5.9 4 1.3 2.8-6 2.4-8.6 0.5-12.7-1.9-6.2 0.1-7.5 2.2-5.4 1.4-6.2 0.7-11.6-0.5-4.4-1.7-8.2-5.4-3.6-1.7-4.8-0.3-9.9 1.7-7.3 0.3-3.3 2.1-2.4-0.3-0.8-1.8-0.6-6.8-1-2-3.6-1.1-11.9-1.5-14.7-4.7-4.4-0.6-2.2-5.9 0.8-2.1 0.5-3.5 1.3-2.9 2.3-1.1 6.6-1 5.6 0.2 2.6-0.2 1.1-0.7 0-2.6-1.7-4.8-0.7-4.6-1.2-2.9-1.1-3.7 0.3-3.3 2.8-0.4 2 0 4.6-2.2 3.1-2.8 3.9-3.3 1.7-0.4 2.1-1.1 0.2-3.1-1-1.3-2 0-2.1-1.1-0.5-3.1 0-9.4-0.3-3-2.2-4.4 0-0.4 0.2-1.8 5.1-6.6 1.9-1.7 8-0.5 5 0.5 3.3 0 2-0.7 0.5-2.2 0.1-4.3-0.3-4-1.6-5.2-3.1-4.2-0.3-2.6 0.1-2.9 0.4-1.2 0.2 0.2 8.7 0.6 2.9 0.6 3.9 4.1 4.9 2.5 4.1 0.5 2.6 2.1 3.1 5.1 6.2 7.2 3.5 5.4 2.7 2.7 4.1 1.7 2.9 0 1.4 0.7 0.8 3.6 0 4.7-0.1 10.2 2 4.6 2.4 7.5-0.2 5.3 0.2 4.1 3.1 1.2 1.3 2 0 2.5 3.7 6.4 1 0z" data-id="MKD2998" data-name="Southeastern" name="Southeastern"/><path id="MKD2999" d="M916.2 541.1l-1.1-1.9 0-2.7-0.4-9.9 0.4-7.9-0.4-5.4-2.6-2.5 0-0.9 0.4-1.5 3.3-2.5 1.5-1.5 0.7-2.7 0.2-3.4 0-10.6-0.2-4.5 1.9-2.5 5.4-3.9 4.2-3.7 3.3-4.2 2.1-3.5 2.2-2.9 2.4-2 1.1-4.2-0.2-6.2-0.3-2.5 12.5 0 13.7-0.9 3.3-1.5 3.7-0.8 1.1 36.4 0.5 2.5 2.2 5.3 0.5 3-1 2.5-4.5 5.6-1.2 3.2 0.8 11 2 10.9-1.4 9.7-9.3 7.3-35.4-2.7-11.4 2z" data-id="MKD2999" data-name="Novo Selo" name="Novo Selo"/><path id="MKD3000" d="M894.9 567l-0.4 1.8-1.6 41-3.7 20-4.5 10.4-4.2 3.1-5.1-2.5-6.9-6.3-3-4.1-1.8-4-1.8-2.4 2.5-4.1-0.5-0.1 0.3-6.6-0.3-4.3-0.9-1.2-1.8 0-6.6-4.8-2.9-1.1-5.4-0.2-3.1 1.4-5 0-2.2-0.4-2.1-3.4-1.6-2-2.8-1.3-2.2-2.4-0.7-2.9 0.8 0.1 3-1.2 3.4-2.2 3.2-4.7 4.7-7.2 8.1 0.4 6-0.2 2.2-1.1 1-3 0-3.1 2.2-3.4 2.7-1.7 3.9 0.4 4.7 1.3 2.1 0 2.9-0.5 6.2-0.2 3 0.7 2.9 0.2 5.3 1.8z" data-id="MKD3000" data-name="Dojran" name="Dojran"/><path id="MKD3003" d="M842 204.8l0.3 3.4 0 8.2 0.5 7 0.2 5.7 0 4.5 1.6 1.4 4.3 1 7.8 2.5 15 8 4.8 1.2 3.5 0.8 3.7 0.2 0 2.8-1.7 1.5-1.5 3.4-3.3 6-1.1 7.5-1.7 8.4-2.4 4.7-2.7 3.7-0.8 3.8-0.2 5.2 0.3 0.8-0.8 0.2-0.8 4.2 1.3 2.7 0.6 5.5-0.6 8.7-1.5 6.2-2.5 6.2-3.7 4.5-5.4 0-4.2 0.7-3.2 2.8-3.4-0.5-3.1 0-4.8-1.9-4.2-3.5-2.4-2.7-2.8-2.5-6.5-3-2.2-1.5-2.2-5.2-1.3-1.2-2.8 0.2-1.1 2.2-0.8 2.8-2.2 2.2-5.3 1.2-4.3 0-4.4 0.3-3.3-1.5-1.7-1.5-2.6-3.2-2.8-2.3-3.8-0.8 0.2-3.9 0-6.1 0-2.5 0.4-5.3 0.5-4.2 0-8.7-0.3-6.2-1-6.7-0.7-3-2-2.2-1.3-2.5 0.1-0.6 0.1-1.1 2.7-3.3-0.5-12.6 0.1-4.5 1.9-5.2 0.8-7.2 1-7 1.2-2 2.9-0.2 3.3 0 1.9 0.9 2.4 2 1.9 2.8 1.8 1.5 4.6 0.2 5.9-3.9 1.9 1.2 3.5 1.5 2.8 0 4.4-3 2.8-5.7 2.4-5.3 0.7-4.7 1-3.2 2.4-2.3 2.9-0.5 6 0.8 3.5 1.7z" data-id="MKD3003" data-name="Vinitsa" name="Vinitsa"/><path id="MKD3004" d="M901 306.2l0.6 4.1 3.2 7.5 2.2 6.9 2.7 1.5 0.8 3 0.2 4.9 1.5 3.5 3.1 0.8 1.1-0.8 0.4-2.7 2.2-1.7 5.3-0.3 17 3.2 4.5 2 2 3.7 0 3.7 5.4-0.2 6.1 0.5 5.9 3.7 7.4 6.2 10.6 3.5 4.4 3.2 2 1.9-3.4 5.5-2.6 7.6-1.2 2.6-2.1 1.3-6.1 1.8-1.9 1.8-1.9 6-1.2 7.2-0.4 7.4 0.7 7 1.2 3 3.7 5.8 0.9 3.5-0.3 3-1.9 8.7 0.2 7.9-3.7 0.8-3.3 1.5-13.7 0.9-12.5 0-1.9 0-3.5-4.9-3.5-2.5-7.5-0.5-5.8-0.2-6.8-1-4.6-1-5.8-3.9-3.3-4-1.1-4.7-2.8-4-4-0.5-1.5-0.2-10.2-2.5-8.5 0.3-0.4-2.5 0.2-2 2.4-1.2 2.5-0.8 0.9-2.4 0.1-8-1.2-3.2-1.9-1.7-4.6-1.2-5.6-6-2.7-0.7-1.8 1.6-2.1 4.9-1.8 1-1.2 0-1.1-3.7 0.4-4.4-0.4-1-1.4-3.6-0.7-4.4 0.2-3.4 2.3-3.1 3.3-6.2 2.1-2.7 0.2-2.8-1.9-2.2-3-1.5-2.7-2.5-1.5-6.8-0.3-5.4 0.2-3.9 3.2-2.8 4.2-0.7 5.4 0 3.7-4.5 2.5-6.2 1.5-6.2 0.6-8.7-0.6-5.5-1.3-2.7 0.8-4.2 0.8-0.2 1 2.7 3.9-0.3 14.6 1.8 5.6 1.7 6.4 3.7 0.9 0.1z" data-id="MKD3004" data-name="Berovo" name="Berovo"/><path id="MKD3005" d="M949.4 262.8l-2.9 3.1-11.6 8.4-5.2 5.7-2.4 4.5-3.1 6.7-2.1 4-3.3 0.5-4.4 1.7-2.8 4.5-3.9 4.2-3.1 0.5-3.6-0.4-0.9-0.1-6.4-3.7-5.6-1.7-14.6-1.8-3.9 0.3-1-2.7-0.3-0.8 0.2-5.2 0.8-3.8 2.7-3.7 2.4-4.7 1.7-8.4 1.1-7.5 3.3-6 1.5-3.4 1.7-1.5 0-2.8-3.7-0.2-3.5-0.8-4.8-1.2-15-8-7.8-2.5-4.3-1-1.6-1.4 0-4.5-0.2-5.7-0.5-7 0-8.2-0.3-3.4-0.8-8.6 0.9-2.7 1.8-0.8 4.1-0.7 0.9-1.5 0.4-8.7 0-7.5 0.2-7.7 0.5-7.5 0.2-5 19 9.7 11.6 2.5 1.8 1.5 1.4 2.3 1.7 2.2 2.6 1 17.7-0.8 4 0.5 1.8 2.1 0.9 3.4 1.3 3.6 3.1 2.4 2.7-0.1 5.9-2.1 2.3 0.1 4.3 3 2.2 2.6 0.8 4 0.3 6.9 3.2 5.8 0.9 5.6 0.7 12.6 2.9 12 4.2 12 0.6 3.6-0.2 7.8 1 3.9 0.5 0.6z" data-id="MKD3005" data-name="Delcevo" name="Delcevo"/><path id="MKD3006" d="M850.2 154.1l-0.2 5-0.5 7.5-0.2 7.7 0 7.5-0.4 8.7-0.9 1.5-4.1 0.7-1.8 0.8-0.9 2.7 0.8 8.6-3.5-1.7-6-0.8-2.9 0.5-2.4 2.3-1 3.2-0.7 4.7-2.4 5.3-2.8 5.7-4.4 3-2.8 0-3.5-1.5-1.9-1.2 0-4-1.9-3.3-0.7-4 0.1-5.4-0.1-4.8-2.6-3.2-1-3-2.7-3.5-1.5-2.5 0.2-3.9-1.1-8-1.5-1.8-5.7-3-3.9-2.2-1.7-4.5 0-10.7-0.3-5.7-2.6-3.8-2.3-1.5-2.3 1.3-1.5 3-1.9 1.7-2.6-1.5-1.6-5.2 0-1.4 0-1.1 6.8-3.8 4.1-5.9 6.8-4.5 6.9-4.8 3.6-2.3 6.8-3.5 1.2 2.1 8.1 8.3 33.8 24.3 3.6 1.9z" data-id="MKD3006" data-name="Makedonska Kamenica" name="Makedonska Kamenica"/><path id="MKD3007" d="M989.6 364.3l-2-1.9-4.4-3.2-10.6-3.5-7.4-6.2-5.9-3.7-6.1-0.5-5.4 0.2 0-3.7-2-3.7-4.5-2-17-3.2-5.3 0.3-2.2 1.7-0.4 2.7-1.1 0.8-3.1-0.8-1.5-3.5-0.2-4.9-0.8-3-2.7-1.5-2.2-6.9-3.2-7.5-0.6-4.1 3.6 0.4 3.1-0.5 3.9-4.2 2.8-4.5 4.4-1.7 3.3-0.5 2.1-4 3.1-6.7 2.4-4.5 5.2-5.7 11.6-8.4 2.9-3.1 1.2 1.3 4.5 2.4 1.8 2.1 2.5 6.2 4.1 17.9 8.3 19.7 2.4 3.8 4.3 1.9 9.2 0.5 4.1 2 6.9 10.9 0.3 12.3-4.3 12.2-5.1 8.3z" data-id="MKD3007" data-name="Phecevo" name="Phecevo"/><path id="MKD4845" d="M94.6 495.5l1 1.2 0.3 0.3 3.4 7.3 4.1 8 4.4 8 3.9 8.3 1.6 12.8 0 12.2 2.3 4.1 5 6.6 2.8 4.8 0.6 4.5-1.3 11.5-2.9 9.3-3.6 4.9-2.4 2.7-1.3 3.8 0 3.5 0.8 3.8 1.3 1.7 2.1 2.1 0 2.1-0.8 2.7-0.3 3.2 1 2.2-1 1.8-6.3-3.7-20.7-2.6-5.8 2.6-1.7 4.9-6.4 42.7-5.7 0.1-5.3-0.6-11-5.2-2.8-7 0.3-9.1-2-11.7-6.1-12-14.4-20.5 31.9-5.7 10-4.5 2.4-4.6-1.7-3.7-9.4-2.5-11.7-1.4-28.2 1.7-4.8-20.3-2.1-15.6 1.5-11.2 5.6 1.7 5.6-3.4 5-6.4 3.7-7.1 2.8-8.7 0.1-7-0.5-1.2 5.6-0.8 12.1 0.3 12.9 0 11.3 0.7 5.4-3.1 4.4-5.9 2.5-2.9 1.2-1.3 1.3 1.6z" data-id="MKD4845" data-name="Struga" name="Struga"/><path id="MKD4846" d="M685.4 132.5l-1.1 0.1-3 1.4-0.5 4.5 0.2 3.6-0.7 1.7-3.6 1.6-4.9 1.2-3.9 1.9-6.5 0.3-3-2.4-3.9-3.8-6.5-5-4.4-5.7-6.4-3.4-4.2-0.4-4.6 0-1.4-2.4-0.6-6.2 0-2.2-1-1.1-3.9 0-3.3-3.1-2.7-3.3 4.5 0.2 2.8-0.5 1.8-2.4 0-3.3-1.4-3.9-3-4.7-1.8-3.1-0.3-2.6 0.1-11.5-2.8-5.5-0.8-3.5 1.5-3.1 7.5-1.2 2.7-3.1 0-3.4-0.4-5.5-0.5-4.5-1.4-3.7-0.1-7.7 6 0.7 13.5-2.5 16.6-7 1.6 12.6 4.6 5.3 8.1 2.4 6.8 7.2 0.7 7.6-2.5 10.6 1.1 10.5 2.4 20.1 2.9 6.7 1.4 9.1-0.4 7.6-1.3 4.8z" data-id="MKD4846" data-name="Rankovce" name="Rankovce"/><path id="MKD5883" d="M381.8 179l-0.4-0.4 0.3 6.6 1.2 5.1-1.7 1.5-2.7-0.4-2.3-3.2-1-3.3-2.3-2.8-3.3-0.4-1.2-1.2 0-3.6 0.3-5.2 2.7-2.8 3.2-0.8 3.1 2.8 2.9 5.2 1.2 2.9z" data-id="MKD5883" data-name="Šuto Orizari" name="Šuto Orizari"/><circle id="0" cx="276" cy="388.2"/><circle id="1" cx="488.6" cy="319.5"/><circle id="2" cx="804.3" cy="256.9"/></svg>