<svg xmlns="http://www.w3.org/2000/svg" width="1000" height="1982" fill="#7c7c7c" stroke="#fff" stroke-linecap="round" stroke-linejoin="round" stroke-width="2" baseprofile="tiny" version="1.2" viewbox="0 0 1000 1982"><path id="NZL3334" d="M794.3 481.4l0.4 4.7 2.3 3.6 5.2 1.5 0.8 2 0.4 1.9 0.4 0.6-0.1 0.9-1.6 1.3-0.3 1.5-0.6 1.5 0.4 1.2 1.7 0.8 2.1 1.8-0.9 2.5-0.4 3.1 0.4 5.6-1.7 1.2-2.5 0.7-2.4 1.2-3.5 4.7-1.6 1-1.1 1.1 0.9 0.6 0.9 0.3 0.5 1.2-0.5 1.6 0.8 2.5 1.2 2.2-0.3 0.6-0.7 0.2-0.3 1.2-0.1 1.3-3.6 12.9-0.8 6.7-1.7 7.7-0.1 0.7 0.3 1.2 1.4 1.8 1.6 0.5 5-0.2 4.6 4 1.1 0.7 1.3 0.2 0.6 0.2 0.6 0.4 0.4 1.2-0.2 1.4 0.3 1.5 0.9 1.1 2.6 2.6 0.2 1.9-0.5 1.7 0 2.7 2.2 5.4 0.2 3.1-0.4 3.5-0.2 3 2.3 2.6 2.7 1.9 8.2 0.7 2.3 1.2 3.1 2.9-0.1 0.8-1.4 2.3-1.8 0.1-2-0.4-1.5 0.4-4.4 7.4-4.6 4.6-0.7 1.3-0.1 1-0.3 1.2-0.4 1.1-1.6 2.9-0.5 0.4-1.3 0.2-0.5 0.4-0.5 0.9-3 7.6-1.8 2.9-2.6-1.4-2.4-3.3-7-1.7-10.4-0.4-15 2.1-11.9 1.8-12.2 1.4-2.1-0.8-4-1.3-0.3-0.2-5.8 1.6-10-0.2-8 1.7-2.4-0.1 2.3-3.8 3.6-8.1 2.1-7 0.8-1.7 0.7-2.1 0.3-5.7 0.4-2.3 0-0.5-0.1-0.7 0.1-0.6 0.2-0.2 0.6 0 0.7-0.2 0.5-0.3-0.5-1.6-0.2-1.5-0.1-1.5 0.1-0.9 0.7-1.7 0.9-5.8 0.3-4-0.1-1.1-0.4-0.9-1.3-2.3-1-6.6-1.4-5.5-1-2.6-1.2-2.3-5.9-6.1-1.5-2.8-7.1-8.1-5.4-3.4-4.2-2-2-0.4-3.4 0 2.1-3.8 1.6-1.7 1.9-1.2 1.9-2.3 2.3-1.8 1.7-0.6 1.3-1.6-0.2-1.4 0-2 0.3-0.7 0.8-0.4 1.8-0.5 1.4-1.3-0.5-1-0.7-0.8 0.1-4.6 1.2-4.5-0.7-3-1.1-3.1-3.6-3.1-2.2-2.9-0.7-2.1-0.1-2.2 0.5-0.9 0.3-1-0.4-1.5-1.5-0.8-3.5-2.5 0.2-1.4 0.8-1.4 1.2-3.3 2.2-2.4 1.8-0.3 1.3-0.6 1.6-3.5 6.5-8.5 0.9-0.3 1.3 0.4 0.9-0.6-0.8-1.7-1.5-1.4-5.1-1.2 0-3.1-1.2-2.5-3.1-0.7-1.7-1.9-0.8-2.8 0.2-3.3-1.2-2.3-2.7 1.2-2-3.3-0.8-3.8 1.7-3.5 0.3-0.4 0.4-0.4 1.7-0.6 1.3-0.8 2.7-1.7 2.9-1-0.1-0.8 0.2-0.9 1.9-3.2-0.3-1.8 0.6-1.3 4.8-0.9 1.8-0.9 1.6-1.3 0.9-0.2 0.8 0.4 0.7-0.5 0.8-0.6 3.2 0.2 3 0.6 1.9-0.3 3.1-1.7 1.3-1.1 1-0.6 0.8-0.3 0.1-1.1 0.4-1.1 1.6-1.1 1.3 1.2 1.8 0 4.6-1.1 4.8 0 2.6 1.8 3.2 1.5 2.3-0.8 2.2-1.4 1 1.1-1.2 2.8-2.2 2.5-1 3.3-1.7 4.1-2.7 4.3 1.4 2.7 2.2 1.9 0 2.8-1.4 2.8 0.4 2.4 1.5 1.8 0.2 1.6-0.7 1.2-0.6 3.6 2.7 1.6 2.5-0.4 2.5 0.2 0 2.1-1.3 2.8-1.3 1.9-0.5 2.3 1 1.6 0.7 2-1 4.6-1.6 4.2-1.8 3.6 0.3 3.9 6.7 2 7-0.1 3.2 0.4 3-1.5 0.9-1.2 0.4-1.6 0.6-1.5 0.8-1.3 0.5-1.3 0.9-1.2 3.1-1.1 2.1-2.5 0.2-0.6 0.4-0.3 3.4-0.4 5.8 0.2 4.5-1.6 2.1 0.7z" data-id="NZL3334" data-name="Manawatu-Wanganui" name="Manawatu-Wanganui"/><path id="NZL3396" d="M927.3 463.2l-2.5-3.9-3.5-0.6-8.3-7.3-12.8-14.6-0.2-7.5-6.8-4.6-1.5 5.2-16.4-9.9 1.3-2.6-0.7-3.4-0.1-3.2 5.2-3.7 9.3-3.9 2.9-2.7 1.6-3.1 0.3-3.5-0.5-1.8 0.7-1.5 1.9-0.8 2.1-0.3 2.1-1 1.9-1.5 1.7-1.8 1.2-0.5 1.1-0.7 0.4-1.2 0.4-1.2 1.6-1.8 0.3-2.2 0.1-3.8-0.9-2.3 0.9-0.8 2.6 0.8 2.9 3 3.1 2.6 3.3 2 3.1-4.2 4.4-15.4 4-7.6 2.9-2.9 2.1-3.7-0.7-2-1.8-0.1-2 1.6-1.7-1.4 0.3-2.3 0.6-1.9 0.1-3.2-0.8-2.8-0.4-0.9 0.2-1.1 1.7-0.8 4.4-1.4 1.5-2.5 0.1-1.6 15.4 0.8 1.8 0.5 0.9 0.8-1 1.1 0 0.6 0.9 0.5 1.5 1.5 0.8 0.7 1.3 0.5 1.3 0.2 2.7 0 0.9 0.3 1.5 1.3 1 0.3 2.4 0 1 0.2 1.1 0.5 1.2 1 1.7 1.8 1.2 1.9-0.1 1.7-0.7 0.9-1.4 2.4-2.9 3.1-1.6 4.5-1.1 2.4-2.7 2-1.2 2.1-2.1 6.1-0.9 1.6-1.2 1.6-0.6 1-0.3 1.1 0.6 2.3 1.1 2 0.9 2.1-0.5 2.6-1.2 1.3-1.6 1.2-0.7 1.5 1.9 4.1-0.2 2-1 1.9-1.1 1.7-0.5 2 1.1 2 1.5 1.7 0.8 1.3-0.3 1.1-0.6 1-1.3 1.3-0.3 1.3-0.2 2.2-0.5 1.2 0.9 0.4 0.8 0.7 0.5 1-0.1 1.4-0.5 0.8-2.9 1.6-0.3 0.8 0 6.4-0.4 0.8-8.7 9.7-7.9 7-1.3 0.7-3-2.8-2-0.5-1.9 0.5-1.7 1.2-0.6 0.4-0.5-0.2-0.3 0-0.1 1.2 0 0.5 0.3 1.1 0.1 0.4 1.5 1.5 0.6 1.1-0.2 1.2-1.3 2.4-0.5 2.2-0.1 5.2-0.8 5.8-1 3z" data-id="NZL3396" data-name="Gisborne District" name="Gisborne District"/><path id="NZL3397" d="M927.3 463.2l-0.2 3.9-0.6 1.6 0.7 2-0.6 1.4-1.1 1.5-0.5 1.9 5.3 0.6 2.5 1.3 1.1 2.5-4.2 4.4-1.8 5-0.7 3.2-0.9 1.1-1.3 1-1.1 1.3-2.1-6.1-0.6-3.2 0.1-2.9 0.3-1.7 0.6-1.6 0.7-1.4 0.7-1.1 0.1-1.2-1.1-0.8-1.4 0.1-1.1 1.6-0.8-0.4-2.3-1.7-1.2-0.4-12.1-0.6-12.5-0.3-1-0.4-0.7-0.7-0.7-0.2-2 1.8-14.3 7.1-10.5 5.1-0.9 1.2-0.4 2.2-0.8 2.1-1 2-1.9 2.5-2.8 3.1-1.8 1.4-0.2 0.3-0.9 2.8-1 1.2-0.5 1.2-0.2 1.3-0.1 1.7 0.3 1.7 0.6 0.9 0.9 0.7 0.9 1.1 0.5 2 0.5 9.3 0.2 1.9 0.6 1.7 0.4 0 0.5 0.6 1.3 0.7 2 1.5 0.5 0.5 1 0.7 1.4 0 2.6-0.3 2.4 0.6-0.2 1.4-1.4 2-0.8 2.4-0.4 0.8-0.8 0.8-1 0.6-1.7 0.7-0.6 1.1-1.8 6.7 0 0.3 0.1 0.5 0.1 0.6-0.2 0.7-0.3 0.2-1.2 0.5-0.4 0.3-1 1.9-2.6 8.9-1.6 4.1-1.1 1.7-0.3 0.9-0.1 1.3 0.2 2.6-0.1 0.6-0.1 0.5-1 1.5-0.2 0.5-1.3 3.5-1.9 3.7-3.1 4.5-3.3 3.2-0.7 0.3-0.7-0.4-0.6-0.8-0.7-0.4-0.9 0.6-1.9 2.8-0.7 1.6-0.3 2.1 0.5-0.9 0.6-0.7 0.7-0.4 0.9-0.2-5 10.2-0.7 6.4-3.1-2.9-2.3-1.2-8.2-0.7-2.7-1.9-2.3-2.6 0.2-3 0.4-3.5-0.2-3.1-2.2-5.4 0-2.7 0.5-1.7-0.2-1.9-2.6-2.6-0.9-1.1-0.3-1.5 0.2-1.4-0.4-1.2-0.6-0.4-0.6-0.2-1.3-0.2-1.1-0.7-4.6-4-5 0.2-1.6-0.5-1.4-1.8-0.3-1.2 0.1-0.7 1.7-7.7 0.8-6.7 3.6-12.9 0.1-1.3 0.3-1.2 0.7-0.2 0.3-0.6-1.2-2.2-0.8-2.5 0.5-1.6-0.5-1.2-0.9-0.3-0.9-0.6 1.1-1.1 1.6-1 3.5-4.7 2.4-1.2 2.5-0.7 1.7-1.2-0.4-5.6 0.4-3.1 0.9-2.5-2.1-1.8-1.7-0.8-0.4-1.2 0.6-1.5 0.3-1.5 1.6-1.3 0.1-0.9-0.4-0.6-0.4-1.9-0.8-2-5.2-1.5-2.3-3.6-0.4-4.7 3.8-4.8 5.2 5 6 2 1.2-1.5-0.9-2 1.9-1.4 2.2-0.6-0.2-2.7-0.6-3.3 3.8-4.9 5.7 0.1 3.8-0.5 1.1-0.5-0.6-1.7-0.2-2.6 1.1-2.3 3.8-4.1 2.9-4-0.3-3.2 0.5-1 0.5-0.9-0.2-5 1.6-2.4 2.3-1.6 1.9-1 6.6-1.8 4.4 2.6 2.2 0.5 1.9 0 1.3-1.3 1-1.4 0.6-1.4 0.6-1.5 1.3-1.5 1.5-1.2 1-0.3 0.5 0.3 1.5-0.7 1.1-1.8 3.6-1.4 0.6-1.1 0.7-0.9 1-2.3 1.9-0.6 1.4-0.7 16.4 9.9 1.5-5.2 6.8 4.6 0.2 7.5 12.8 14.6 8.3 7.3 3.5 0.6 2.5 3.9z" data-id="NZL3397" data-name="Hawke's Bay" name="Hawke's Bay"/><path id="NZL3398" d="M717 249.9l-0.1 0.9 0.6 2 0.1 0.9-0.2 0.7-0.4 0.3-1-0.2-0.6 0.1-1.6 0.5-1.6 0.2-1.6-0.2-3.1-1.2 0.5-0.7-1.7-1.7-0.7-0.1-1 0.8-0.8 0.3-0.3-1.1 0.2-1.7 0.6-1.1 0.6 0 3.9 0 0.9 0.5 0.6 0.9 0.8 0.5 1.4-0.9 3.4-3 1.7-1 0.4 0.3 0.8 1 0.7 1.4-0.6 0.5-1.1 0.3-0.8 0.8z m-21.3-31.3l-1.2 0.4-2.7-0.1-0.8-0.4 1.2-0.8 0-1.1-0.8-2.4 0.2-1.1 1.1-0.7 1.2 0.5 1 1.1 0.4 1.3 0.5 2.3-0.1 1z m17.3-21.3l-1.3 0.2-1-0.1-1.5-2.1 1.1-1.8 1.9-1.1 1.1 0.1 0.3 0.6 0.7 0.8 0.6 0.9 0 1.2-0.7 0.9-1.2 0.4z m15 75.1l-4.2 2.3-2.5-1.6-1.6 3.7-1.7 5.2-0.4 6.8-7.1 1-8.7 2.1-8.3 2.1-6.7 2.1-4.6 3.1-4.5 0.7-1.6-4-0.8-3-1.8-3.5-0.3-0.9-0.5-2-3.2-6.2-0.6-2.7 1.3-0.1 2.1 0.5 3.1-1 1.1 0.4 0.8 0.8-0.2 1-0.7 1.1-0.1 0.6 3.9 7.6 0.3 3.1 1.1 2.5 1.3 1 0.8-2.2-0.9-2.5-0.2-1.5 0.9-0.7 2.3 0.4 1-0.1 1.1-0.9-1.5 0-3.9-0.7-1.4-0.6 1.2-0.6 4.1-3.7 0.6 0.2-0.1 2.1 3.2-3.8 1.7-1.4 1.9-0.2 3 3.4 1 0.6 1.1-0.5 0.2-1.1-0.4-1.3-0.7-1.1 0.2-1.1-3.9-1.5-1.5-1.3-1.2 0.4-0.7-1.2-0.6-1.9-0.7-1.4-1.9 2.4-1.2-1-0.1-2.1 0.9-1.2 0.9-0.3 0.9-0.7 0.7-0.9 0.4-1.1-5-0.9-5.2 0.3-2.6 0.7-2 1.6-0.7 1.2-0.5 2.3-0.3 1.1-0.8 1-0.6 0-1.8-1.7-1.1 1.7-1.7 1.5-1.8 0.6-1.5-0.8-0.9-1.7-3.1-11-1.7-9-1.5-4.3-4-7.4-10.6-13.4-2.3-4.4-0.4-4.4 0.2-1.1 0.3-0.9 0.6-0.5 1-0.2-0.9 2.7-0.1 1.3 0.4 1.3 1.3-2.5 0.7-1 1.1-0.4 1.1 0.7 1.2 3.1 1.5 1.5 1.8 3.1 1.1 0.8 1.3 0.3 0.7 0.9-0.1 1.1-1.1 0.9 3.1 1.2 0.8 0.1 0.1 0.3-0.8 0.5-1.1 0.4-1.1 0.2 0.7 0.5 0.3 0.8-0.1 0.9-0.4 1 1 0.1 0.7 0.3 1.5 1 0-0.7 0.1-1.3-0.1-0.7 0.8 1.4 0.8 2.2 0.7 1 0.8-1.9 0.9 0.1 0.3-1.1 0.1-1.6 0.4-1.4 0.5-0.6 1.2-1.1 0.4-0.9-1.2 0.4-0.4 0.2-0.7-1.8 0.8-4.3-0.6-1.1-0.7 1.4-0.3-0.7 0-5-0.1-0.3 0.3-0.5 1.3-1.4-0.6-1.1-0.9-1-0.7-1.1 0.3-1.1 1.7-1.5-0.1-0.6-2.4-1.5-0.5 0-1.3 1.7-1 0.9-0.6 0.4-4.6 0.4-2.4-0.6-1.7-1.6-0.5-3.1 1 0.6 0.6-2.3 0.9-0.2 1 0.7 1.2 0.5 3.3-0.2 1.6-0.5 1.2-0.9 1.2-1.3 1-0.6 2.3-1.1 2.1-1.9 0.8-0.4 0.6 0 0.5-0.3 0.2-1.3-0.4-0.4-0.2-0.1-0.1-0.2-0.3-0.6 2.3-1.7 7.5-6.4 1.4-0.9 0.9 1.1 4.4 6.7 2.4 2.8 3.2 2.3 2 0.8 0.1 0.5-0.5 1.3 0 0.3 0.3 0.1 0.2 0.2-0.2 0.4-0.3 0.2-0.3-0.1-0.1-0.3-0.1-0.1-0.4 0.3-0.3-0.2-0.2 0.1-0.2 1.1 0.6 1.7 1.7 0.7 2.2 0.3 1.8 0.6-2.3 0.4-6.3-0.3-1.4 0.2 0.2 1.3 1.1 4 1.3 2.5 0.1 1.7-0.2 1.7-0.3 1.5-1.6-4.5-1.2-1.9-2-0.8 1.4 4.2-0.2 1.6-1.7 0.1 0 0.7 0.7 0.3 0.7 0.4 0.6 0.5 0.6 0.7-0.5 1-1.7 1-0.4 0.7 0 1.3 0.8 1.7 0.2 1.3 0 1.9 0.4 0.3 1 1 0.7 0.6 1.1 0.3 2.1 0.1 3.3-1.3 0.9 0 0.8 0.7-0.3 0.5-3.6 2.1-1.9 0.7-1.2-0.1-3.3-1.3 1.6 1.7 1.2 2.4 4.6 14.4-1.7-0.5-1-0.9-1.1-0.3-2 1.1-0.6-0.5-0.3-0.6 0-0.7 0.4-0.9-1.5-0.3-1.1-2.6-1.1 0-2.7 1.4-1.3 0.8-1.2 1.4 0 0.7 0.6 0 2.7-0.4 1.4 0.4-0.7 0.7-1.1 0.7-0.8 0.8 0.4 0.7 1.3 0.8 0.3 0.3 0 0.6 0.1 4.1 0.3 1.3 1 0.5 0.6-0.5 0.1-1.1-0.1-1.4 0.2-1 0.5 0.8 0.6-1.1 0.7-1 0.9-0.7 0.9-0.5 1.2-0.2 3.6 0.8 4.9 0 1.6 1.1-0.2 2.9-0.8 1.1-0.7 0.7-0.4 0.8 0.3 1.9 0.4 1.2 0.5 0.7 0.5-0.2 0.7-1 2.1-10.6 0.5 0 1.7 4.6 0.6 2.2-0.1 2.5 1.7-0.5 2 0 1-0.8-1.3-2.3-0.3-1.6 1.8-0.5 2.5 0.3 1.6 0.7 0.9 2.2-0.9 4.4 1 1.7 1.2 0.3 1-0.4 0.8-0.6 1.3-0.4 1.8-1.3 0.5 0.2 0.4 0.4 0.4 0.1 2.5-1.2 0.7-0.1 0.8 0.3 1.7 1.4 0.9 0.3 0.7 0.4 2.7 3.4 0.5 0.9z m9.1-84.7l0.2 1.1 1.1 1.1 2 1.3 2 0.8 0.7 0.1 0.7 0.4-0.4 0.8-0.7 1-0.4 0.8-0.3 1.4-0.4 1.1 0 1.1 1 1.6 0.3 0.4 0.4 0.3 0.4 0.2 0.5 0.1 0.2 0.1 0 0.4-0.1 0.5 0.1 0.3 1.5 2.1 0.6 0.5-1.5 3.3-0.7 0.7-1.1 0.1-0.6-0.7-0.3-1.2 0-1.2-0.4-1-1 0.3-1.2 0.7-0.8 0-0.4-1-0.2-2.4-0.3-0.8-0.6-0.5-0.6 0-1.9 0.5 0.3-0.9 0-0.6-0.3-0.5-0.5-0.7-1.8 0.6-2.2-1-1.8-1.9-0.5-2.3 2 2.5 0.6 0.2 0.7-0.8 0-1.2-0.2-1.3 0.3-1 0.6-1.6-1-0.9-1.6-0.8-0.9-1.6 2.3 0.1 1-0.4 0.9-1-1.5-1.6-0.3-1.9 0.9-1.4 2-0.3 0.7 0.3 0.7 0.5 0.5 0.9 0.2 1.2 0.3 0.6 2.3 1.7-1.5 0.8z" data-id="NZL3398" data-name="Auckland" name="Auckland"/><path id="NZL3399" d="M940 324.9l-0.1 1.6-1.5 2.5-4.4 1.4-1.7 0.8-0.2 1.1 0.4 0.9 0.8 2.8-0.1 3.2-0.6 1.9-0.3 2.3 1.7 1.4 2-1.6 1.8 0.1 0.7 2-2.1 3.7-2.9 2.9-4 7.6-4.4 15.4-3.1 4.2-3.3-2-3.1-2.6-2.9-3-2.6-0.8-0.9 0.8 0.9 2.3-0.1 3.8-0.3 2.2-1.6 1.8-0.4 1.2-0.4 1.2-1.1 0.7-1.2 0.5-1.7 1.8-1.9 1.5-2.1 1-2.1 0.3-1.9 0.8-0.7 1.5 0.5 1.8-0.3 3.5-1.6 3.1-2.9 2.7-9.3 3.9-5.2 3.7 0.1 3.2 0.7 3.4-1.3 2.6-1.4 0.7-1.9 0.6-1 2.3-0.7 0.9-0.6 1.1-3.6 1.4-1.1 1.8-1.5 0.7-0.5-0.3-1 0.3-1.5 1.2-1.3 1.5-0.6 1.5-0.6 1.4-1 1.4-1.3 1.3-1.9 0-2.2-0.5-4.4-2.6-6.6 1.8-1.9 1-2.3 1.6-1.6 2.4 0.2 5-0.5 0.9-0.5 1 0.3 3.2-2.9 4-3.8 4.1-1.1 2.3 0.2 2.6 0.6 1.7-1.1 0.5-3.8 0.5-5.7-0.1-3.8 4.9 0.6 3.3 0.2 2.7-2.2 0.6-1.9 1.4 0.9 2-1.2 1.5-6-2-5.2-5 3.6-6.1-1.5-9-1.3-1.3-1.8 1-2.4-0.5-2-1.9-2.2-3.7-1.9-4-0.9-1.4 0.5-3.2 0.7-2.3 1.6 0.1 5.1 2 1.7-0.6 1.4-1.5-1.7-3.7-3.1-3.6 0.9-3.9 1.8-4.3-1.2-1.4-6.4-2.6-4.4-1.2-0.8-2.1 0.7-2.2 1.1-0.2 1.1-0.3 0.7-1.5 0.9-1.2 2-2.1 1.4 1.4 1.6 0.9 1.6 2 0.4 0.4 2.6 0 1.3-0.2 1.2-0.5 0.7-0.5 1.2-1.1 0.7-0.4 1.1 0 1 0.4 0.8 0.8 0.3 1.2-0.1 1.2-0.5 0.8-1.2 1.3-0.5 1.2-0.2 1 1.1 0.8 1.9 0.1 1.7-0.8 0.9-2.2 0.5-2 1.4-1 4.6 2.2 1.5-2.7 1.8-7.8-0.8-3.8-2-1.9-11.7-5.3-0.9-1.2-0.8-1.6-1.3-2.2-1-2.7-0.7-4.1-1-4.1 0.1-2.2-1.2-1.5-3.4-3.3-5.5-0.9-2.3-1.4-1.8-1.7-0.8-2.7-2.6-1.2-1.3-0.1-1.2-0.3-0.9-1.6-1.2-4.1 0.6-2.3 0.1-2.1-2.1-2.7-0.6-1.2-1-7.9-2.7-6.7-1.9-3.1-1.5-3.5-0.1-2.8-1.3-2.7 0.2-2.3 0.6-1.5-0.8-1.8-1-1.2 0.6-1.5 0.9-1.4 2.3 1.3 2.5 0.7 0.2-1.2-1.8-1.6 0.3-1.7 1.4-0.6 1.6-2.6 0.4-3.7 3.1-1.2 0.2 0.8 1.4 3 0.3 1.5 0.2 0.7 1.1 0.8 0.3 0.8 0 1.3-0.4-0.2-0.6-0.6-0.6 0.2-0.6 1.5 0.7 0.6 3.1 0.5 1.3 0.6 1.4 0.9 1.2 1 1.1 1.1 0.8 1.3 1.2 2.9 0.6 1.2 2.2 2.1 1 1.2 0.3 1.7-2.8-2.2-0.9-0.5-1.2-0.1-1.1 0.2-1.2-0.2-1.3-1.2 0.8-0.5 2.4-0.9-2.7-1.8-1.3-1.3-1-1.2-1.5-0.9-2-0.2-3.6 0.7 0.4 0.6 0.7 1.1 0.4 0.4-0.3 0.5-0.2 0.7-0.1 0.8 0.1 0.6 0.5 0.8 0.5 0.1 0.4-0.2 0.2 0 0.4 0.3 0.8 0.2 0.3 0.2 0.2 0.5-0.2 0.6-0.3 0.5-0.1 0.4 0.3 2.1 0.1 0.5 0.4 0.5 0.4 0.2 1.4 0 0.6-0.2 0.4-0.5 0.3-0.4 0.3-0.2 1.3 0.6 0.7 1.2 0.4 1.4 0.8 1.5 1.2-0.9 0.7 0.6 0.7 1 0.8 0.6 1.1-0.5 0.4-1 0.5-0.8 1.5 0.2 1 0.7 0.4 0.9 0.1 1.2 0 1.6 0.4 0.9 0.9 0 1.3-0.4 1.1-0.2-1-4.7-1.8-2.9-0.4-1.3 1.1-0.4 1.5 1.3 2.7 5 1.9 1.1 2.1 0.5 4.6 2.3 2.2 0.5 0.9 0.4 1.9 1.8 0.9 0.4 2.3 0 0.4 0.4 0.3 0.7 0.6 0.3 0.9-0.7 15.4 11.3 3.1 1.5 4.9 0.8 4.6 1.8 5.2 0.8 4.3 2.7 7.1 0.9 2.9 1.7-4.5 0-0.8 0.2 0.4 0.6 3.6 2.6 1 0.4 1.1 0.2 1-0.5 0.2-1.2-0.4-1.3-0.5-1 1.3-0.4 0.7 0.5 0.7 0.7 1 0.5 5 0 0.2 0.2 0.8 1.5 0.5 0.3 0.3-0.2 0.4-0.3 0.4-0.2 0.3-0.3 0-0.7 0-0.7 0.5-0.3 0.9-0.1 2.3-0.5 6.9-0.5 1.8-1.2 1.4-1.3 6-3.7 2.3-2 0.8-1.1 0.3-0.9 0-2.4 1.3-2.4 0.3-1 0.4-0.6 3.2-1.7 1.2-1.7 0.9-3.6 0.9-1.7 1.1-1.4 0.5-0.8 0.2-1.2 0.6-0.7 7.7-2.2 1.5-0.1 1.4-0.4 1-1.1 1.8-2.8 1.2-0.7 3.5-0.3 1.4-0.7 1-1.1 0.3-0.9-0.4-1.1-0.9-1.5 3 0.6 3.6 0.2z" data-id="NZL3399" data-name="Bay of Plenty" name="Bay of Plenty"/><path id="NZL3400" d="M632.2 767.9l-6 6.4-2.2 3.7-1.1 2.4-0.4 2.1 0.1 3.2-0.2 1.8-0.7 1-0.5 1-0.6 1.4-0.1 0.5-1.5 1.9-1.5 2.8-1.5 1.5-3.5 2.2-1.6 1.6-2.4 3.9-0.4 0.4-0.6 0.1-1.1-0.1-0.7 1.9-0.4 0.6-0.8 0.8-0.8 0.6-0.6 0.8-0.1 1.7 0.3 1 1.3 1.6 0.5 1-0.5 0.8-0.6 0.7-1.6-2.1-0.8-0.6-1.2-0.2-1 0.3-1.7 1.5-0.8 0.3-0.9 0.8-4.1 5-1.5 4-1.2 4.6-1.8 3.8-3.4 1.8 0 0.8 0.5 0 0.4 0.2 0.3 0.3 0.4 0.2-6 13-0.8 3.6-1.2 2.3-1.5 1.9-2.4 1.2-0.1 1.1 0.3 2 0 1.2 0.1 0.6 0 0.6-0.6 1.3-0.7 0.9-0.7 0.4-0.5 0.5-0.2 1.5-0.3 0.7-0.7 0.7-3.4 2.1-0.8 0.3-2.2 0.4-3.2 1.6-0.4 1.1-0.3 1.2-0.3 0.9-0.7 0.7-3.7 2.9-10.4 2.6-2.6 1.2-2 2.6-5.9 4.4-1.2 2.1-1.7 4.4-1.8 2.8-0.4 0.9 0.2 1.5 0.6 1.3-0.6 2.6-0.3 2.7-0.1 5.6-0.5 0.6-0.5 1.5 0.2 2.3 1.4 6.6 2.2 6.3-0.2 1.7-1-1.2-0.9-0.2-0.3 0.7 0.6 1.5 1.2 0.8 4.7 1.3-2.2 1-5.1 0.4-2.3 0.8-2 1.9 0.9 0.8 2.1 0.3 1.7 0.6 1.6-2.1 2.9-0.7 2.7 0 1.3 0.2 0.3 1.6 0.7 1.5 0.7 0.9 0.4-0.4 0.3-2.7 0.7-2.7 2.1 1.3 0.4 0.9 0.1 1.8-0.2 2.9 0.3 0.7 1-0.3 0.7-0.8 0.6-1.3 0.6-1.1 1-0.5 1.2 0.1 1.1 0.5 0.9 0.9 0.3 1.5 2.2-2.5 0.9-0.5 0.3 1.9 0.9 1 1.1 0.9 0.9 1.3 0 0.8-0.2 0.9-0.3 0.7-0.1 0.5 0.2 0.7 0.7 1.1 0.2 0.5 0.3 2.9-0.3 3.1-0.6 3-0.9 2.7-1-1.5-1.9 2.5-1.4-0.3-0.5 2.3 0 0.7-0.7-0.9-0.6-0.2-0.7 0.4-0.7 0.7-0.3-1.4-1-2.4-0.3-1.4 0-1.6 0.3-0.9-0.2-0.9-0.8-1.3-0.5-1.4 0.2-1.6-0.1-1.3-1-0.5-1.2 0.4-0.5 1.1 0.3 1.2 0.9 1-1.1 2.9 0 2.9 0.8 2.8 2.4 3.9-0.3 0.2-1.8-0.3-5 0-1.1-0.6-1.7-2.2-1.8 0.6-0.9-0.8-1.6-2.1-3-3.2-0.1-1.4 1.5-2-1.4 0.1-2.1 1-6.3 1-2.1 1.1-4.5 0.4-6.8 2.5-3.1 0.5-0.6-0.4 0.3-1.1 0.7-0.8 1-0.5 2-0.3 11.6-4.1 1.2-0.1 1.2-0.4-0.6-0.8-2.2-1.4-0.9-0.2-2.5 0.3-1.3-0.5-0.5-0.6-1-1.5-0.6-0.7-2-1.1-2 0.4-2 0.8-2.2 0.5-1.3 1.1-0.7 2.7-0.3 3.1-0.1 2.6 0.2 1.6 0.2 0.6-0.2 0.6-0.9 1.3-0.9 0.4-6.4 1-0.9-0.2-1.6 0.6-1.4 1.6-3.5 1.2-1.6 1.4-8 3.8-14.9 10.9-2.3 0.4-1.2-0.2-1.2 0.1-1 0.6-5.7 4.1-2.9 0.6-1.2 0.5-0.9 0.9-0.8 1-0.9 0.7-2.2 0.7-2 1.5-0.8 0.4-1.3 0.4-1.4 1.7-0.8 0.8-0.5 0.9-2 0.8-0.9 0.7-4.8 5.1-1.8 1.1-1.6-0.6-1.1 0.8-0.9 0.7-0.6 1.2-0.3 1-4.2 7.8-0.3 1.2 0 6.2-0.4 2-1 1.6-2.3 2.7-0.1 0.9-0.1 1.3-0.2 1-0.9 0.5-0.6 0.2-2.3 1.3 1.7 2.2 0.4 3.7 0 8.1 0.9 5.2 0.1 1.9-0.4 2-0.9 0.9-1 0.6-0.8 1.3 2.2 0.4 0.8 2.6-0.1 3.5-0.6 6.5-0.8 2.2-0.9 1.5-0.7 1.5-3.6-0.7-8.1-3.3-13.7-3.8-6.5 1.8-3 0-3.1 0.8-2.7 1.4-12 11.1-7.5 4.4-1.6-1.6-1.7-2.8-0.8-2.8-0.4-3 0.2-2.4-0.9-2.1-1.5-1-2.9-0.2-6.8 1.5-5.5-0.4-2.4-1.3-1.6-2.1-2.3-3.7-2.7-6.5-2.5-7.8-1.8-3.9-2.3-3-2.5-1.1-5.7 0.7-4.3-4.6-2.1-2.9-2.2 0.3-1.7-1-1.5-2.1-1.2-7.1-1.2-2.8-2.2-2-2.4-1-0.5-1.6-0.2-2.7 0-19.5 0.2-2.3 1.6-2.5 1-2.1 1.8-3 1.7-2.1 1.3-2.9 2-3.3 0.9-2.6-0.6-6 4.1-4.9 2.7-2.6 2.6-3.1 12-10 2.1-3.8 1.7-1.8 1.5-2.9 2-2.4 2-2.9 1.1-2.7 1.2-2.3 2-2.4 6-5.4 2.4-1.5 7.7-2.7 10.4-6 3.7-1.5 2.6-0.4 1.3 0.5 2 0 7.5-8.4 13.5-10.8 7.7-4 2.9-1.9 4.8-8.4 3-1.9 1.6 0.2 6.1-2 1.5-0.9 0.9-1.1 0.3-1.2 0.5-1.6 1-1.9 3.3-3.3 1.8-1.3 3.1-1.3 2.6-0.2 1.4-0.3 1.2-0.7 1.6-1.2 2.8-1.1 1-0.1 0.8 0.2 0.5 0.4 0.4 0 0.6-0.1 2.9-0.8 3.2-0.3 2.8-0.6 3.9 0.1 1.1-0.7 0.9-1 0.4-1.3 0.3-1.4 0.9-2.8 0.6-2.8 0.3-1.1 0.4-0.5 4-1.2 4.7-2.9 0.3-2 0.4-1.2 1.8-2.2 1.8-2.7 1.5-1.3 2.3-1.7 1.1-0.3 2.3-0.2 1.4-0.5 2-1 2.2-2 2.1-4.2 3.4-2.8 0.9-1.1 0.8-1.5 1.6-1.6 0.7-1 0.8-1.6 1.1-1.3 4.8-3.7 3.9-3.5 2.2-1 1.5-0.3 1.9-0.9 1-1.1 0.4-1.2 0.3-1.1 1-2.1 0.5-1.2 0.3-1 0.4-2 2.2-0.6 1.4-0.9 1.4-1.2 3.6-4.3 1-2.2 2.1-5.9 0.2-1.5 0.3-1.1 0.6-0.5 0.8-0.2 0.9 0 0.9 0.2 0.5 0.3 1.2 0.2 0.8 0.5 1.3 3.3 1.4 0.8 1.4 0.3 1.2 0 1.5 1.5 1 0.3 0.4 1.4 0.3 1.7 0.8 2.5 0.9 1.3 0.2 1.5-0.3 1.3-0.2 1.5 0.6 1.1 1.3 0.6 1.4 0.5 1.4 0.7 0.9 2.2 1 1.4 0.6 1.3 0.5 0.8 3 2.5-0.1 1.5-0.4 1.6 0 1.2 0.8 0.8 1.3 0.4 1.1 0.5 2 2 1.5 0 1-1.1 2.9-1.8 1.5-0.3 1.3-1 1.4-2.1 1.9-2.1 1.5-3.2 0.1-1.3-2.1-1.5 1-1.5 1.9-1.9 2.5-2.1 4.1-4.1 2.6-1.4 7.1-2.9 1.1-1.2 0.5-1.6 0.8-1.6 0.2-3 2.1-5.9 4.9-4.3 2-1.2 1.5-1.3 1.5-0.4 1.8-1.2 1.3-1.1 1.6-1.1 1.2-1.1 1.3-3.3 1-1.1 1.4 0.5 1.1 1.2 0.8 1.3 0.7 0.6 0.9-0.6 1-0.9 1.5-0.7 6.5-1.4 1.3-0.1 1.3 0.2 1 0.6 1 0.5 2.2 0.5 1.5-0.1 1.1 0.1 0.8 0.4 0.4 0.6 2.3 2.8z" data-id="NZL3400" data-name="Canterbury" name="Canterbury"/><path id="NZL3401" d="M656.8 682.6l-0.6 1.3-0.4 3.1-0.6 1.1-1.1 0.8-1.4 0.1-1.4-0.2-1.4 0.1-1 0.6-1.9 1.7-0.8 0.5-1.2 0.2-3.9-0.2 0.4-0.4 0.8-0.8 0.3-0.2 0.8-0.1 1.9 0.2 0.7-0.4 3.9-4.6 1.4 1.4 1.7-0.7 1.2-1.7 0-1.8-1 0.5-0.9-0.1-0.8-0.7-0.5-1.1 1.4-0.1 1-0.8 0.9-0.8 0.9-0.4 1.3 0.2 0.2 0.7-0.1 1.2 0.2 1.4z m-24.6 85.3l-2.3-2.8-0.4-0.6-0.8-0.4-1.1-0.1-1.5 0.1-2.2-0.5-1-0.5-1-0.6-1.3-0.2-1.3 0.1-6.5 1.4-1.5 0.7-1 0.9-0.9 0.6-0.7-0.6-0.8-1.3-1.1-1.2-1.4-0.5-1 1.1-1.3 3.3-1.2 1.1-1.6 1.1-1.3 1.1-1.8 1.2-1.5 0.4-1.5 1.3-2 1.2-4.9 4.3-2.1 5.9-0.2 3-0.8 1.6-0.5 1.6-1.1 1.2-7.1 2.9-2.6 1.4-4.1 4.1-2.5 2.1-1.9 1.9-1 1.5 2.1 1.5-0.1 1.3-1.5 3.2-1.9 2.1-1.4 2.1-1.3 1-1.5 0.3-2.9 1.8-1 1.1-1.5 0-2-2-1.1-0.5-1.3-0.4-0.8-0.8 0-1.2 0.4-1.6 0.1-1.5-3-2.5-0.5-0.8-0.6-1.3-1-1.4-0.9-2.2-1.4-0.7-1.4-0.5-1.3-0.6-0.6-1.1 0.2-1.5 0.3-1.3-0.2-1.5-0.9-1.3-0.8-2.5-0.3-1.7-0.4-1.4-1-0.3-1.5-1.5-1.2 0-1.4-0.3-1.4-0.8-1.3-3.3-0.8-0.5 2.6-9 7.8-9.9 0.7-2 0.9-5.5 0.8-3.1 2.7-4 1.3-1.6 0.3-1.4 0.7-1.6 4.6-4 3.2-4 2.2-3.7 6.1-7.1 2-3.3 3.5-1 1.9-0.2 1.5-0.8 0.7-1.6-0.3-2.3 0.1-2.7 0.4-2.2 0.1-1.5 0.8-2.6 1.9-0.7 2.6-1.8 3.5-3.6 6.7-10.4 3.2-3.1 2.4-3.1 1.2-2 1.3-3.5 0.7-3.3 0-1.9 0-0.7 1-0.5 1.3 0.6 1.2 1.3 0.8 1.8 0.1 2 0.5 0 0.4-1 0.4-0.3 0.4 0.3 0.3 1 1.1-0.7-1-2.4 1.1-1.2 2-0.7 1.9-1 0.6-1.1-0.1-1-0.6-0.8-1-0.3-2.9 2.1-0.5-0.3 0-1.3 0.1-0.6 1.2-1.6 0.7-0.6 1.7-0.9 0.8-0.6 0.8-0.4 3.9-0.6 0.4-0.5 1.7-2.7 1.9-1.3-0.3 4.7 1.9 0.5 0.3-0.4 2.3-2.4 0.2-0.5 0.2-1.3 0.1-0.4 0.4-0.2 1.2-0.4 3.8-2.1 0.6-0.1 0.9 0 0.9 0.2 0.7 0.5 0.8 2.7-1.3 0.4-3.7-1 0.5 1.4-0.5 0.7-0.7 0.7-0.4 1.5-0.9-0.4-0.8 0-0.8 0.3-0.7 0.8 0.5 0.6 0.1 0.4 0.3 0.2 0.7 0.2-1.3 1.2-2.5 0.8-2.4 0.1-1.1-1.1-1.2-0.2-2.2 0.3-1.2 1.1 1.9 2-1.1 0.7-0.8 0.9 0.1 0.7 1.3 0.5-0.3 1.3-0.5 1.2-0.7 1-0.7 0.7 0.7 0.8 0.9 0.3 0.8-0.6 0.3-1.6 1.8-2.6 0-0.5 5.1-0.9 2.7-0.2 2 1.1-0.8-0.1-0.7 0.2-0.4 0.6-0.2 1-0.3 1-0.6-0.1-0.7-0.4-0.5-0.1-0.4-0.1-0.6-0.4-0.4 0-0.2 0.8 0.1 0.4 0.4 0.6 0 0.4-0.1 1-0.3 0.5-0.5-0.1-0.7-0.3-0.5 2.3-1.1 0.7-1.2 0.4-0.9 1.5 1.2 0 1.4 0.6 1.2 1.1 0.5 1.4-0.2 1.1-0.7 2.3-0.2 1.2-1 1.2-2.2 1.1-4.2 1.3 0.3 1.1 0.5 0.9 0.7 0.4 0.6 0.3 8.2-4.8 2.9-0.8 0-0.7-1.2-0.4-1 0.1-0.8-0.2-0.7-0.9 3.3-0.4 1.6 0 1.2 0.8 1.2 0.4 1.9-0.2 1.8-0.6 1.2-0.7-0.4-0.3-1.2-1.2 4.5 0.5 2.3-0.6 1.6-1.9-8.6 0.2-1.4 0.5-0.2 0.3 0 0.4-0.1 0.5-0.7 0.1-0.6 0-0.3 0-0.3-0.2-0.4-0.4 0.5-1.4-4.1 1.8-2.1-0.1-0.7-3.1 0.4-1.7 0.8-0.9 1-0.7 1-0.9 0.2-0.6-0.2-0.7 0-0.6 0.5-0.2 0.7-0.1 0.4-0.3 0.1-0.7-0.1-1 2.7 0.6-0.9 1.6-0.2 1.6 0.5 3.2 1.3-2.5 0.7-2 1-1.1 2.3 0-1.3-2-0.3-1 1.3-2.1 0-1.5-0.6-1.1-1.3-0.1-0.5 1-0.3 1.6-0.5 1.1-1-0.5-2.4-2.6-0.5-1.2 2.7 0-0.7-1.3-0.1-1 0.6-0.4 1.2 0.6 0.1-2.2 1.3 0.6 2.8 2.9 1.7 1.2 1.6 0.5 1.4-0.5 1.2-1.8 1.3 1.3 1.3-0.6 0.7-1.6-0.2-1.9 1.1 0.4 1.2 1.1 1 1.6 0.4 1.4 0 1.2-0.1 0.8-0.4 0.3-1.6 0.3-0.4 0.4 0 0.7 0.4 0.9 1.4 1.2 1.5-0.5 1.3-1.4 1.6-2.1 3.1-3.1 1.1-0.4 0.6 1.3-0.6 1.7-4 6.4-0.4 1-0.1 2-0.3 0.9-0.2-0.3-1.1 0.6-0.9 0.8 0.1 0.3-0.3 0.2-0.7 0.5-0.7 0-0.4-1.1 0-4.2-0.2-0.4-0.5 0.7-0.6 1.2-0.2 1-1.2-0.5 0 0.9 0.6 1.3 0.6 1.1 1.6 1.7 0.5 0.9 0.5 1.6-0.4 0.2-0.9 0.3-0.3 0.1 0-0.2-1.6 1-0.6 0.7-0.4 0.6-0.6 0.6-1 0.2-4.1 0-2 0.6-1.3 1.5-0.9-0.6-0.9-0.2-0.8 0.4-0.6 1.1-1.2-0.5-1.4 0.4-1.4 0.9-1 1-0.3 1.2 1.8 0 2.2-0.7 0.8-0.5 1.7 0.6 1.1-0.5 1.1-1 1.4-0.9 0.8-0.1 0.9 0.3 0.8 0.1 1.5-1 1.6-0.4 0.7-0.3 0.8 1 1.1 0.9 1.1 0.7 1 0.3 0.9-0.3 1.1-1 0.8-0.2 2.1-0.3 1.6-0.7 3.2-2.5-1 2.6-1.2 2.4-0.5 0.7-1.6 1.4-0.7 1-0.4 1-0.3 1-0.5 0.8-2.4 0.7-1.8 1.4-1.2 0.4 0.4-1 1.3-2.3 0.2-0.6-0.8-0.3-1.6 1.7-1-0.3 0.5-1.5-2.2 1.6-1.5 2.5-1.2 3-1.5 2.7-1.8 2.5-0.4 1.3 0.1 1.9 0.9 3.1 0.1 1.5-0.5 1.7 1.4 0.3 0.9 1.3 0.4 1.4-0.3 0.6 0.3 0.4 0.9 0.5 0.8-0.2 0.4-2.1-0.4-0.5-0.7-2.1-0.2-1.6 1 1 4.3 7.3 0.1 1.4 0.4 1.4 0.3 1 0.5 1.9 0 1.1 1.7 5.7 0.4 0.7 0.7 1.8 1.7 1 2 0.2 1.4-0.5-0.4 2.5-5.5 10.5-1.3 2-9 9.7z m-9.7-122.4l0.5 1.1 0.1 0.7-0.3 0.2-0.5 0.3-1.1 1.4-0.3 0.6-0.3 1-0.3 2.6-0.4 1.2-0.3 0.1-1.6-0.1-0.4 0.3-0.9 1.2-0.5 0.5-1.9 0.7-0.5 0.3-0.4 0.7-0.2 0.7-0.2 0.5-1 0.7-1.1 0.5-1.1 0.1-1-0.6 0.3-0.4 0.1-0.3 0-0.3 0.1-0.5 0.9-0.5 0.5-0.8 0.1-1-0.4-1.1-0.9 1-0.2 0.3-0.4-1.1-0.2-1.3 0.2-1.3 0.4-1.1 1.2 1.1 0.9 1.2 1 0.9 1.6 0.3 0-0.7-0.9-0.8-0.8-1-0.7-1.4-0.2-1.6 0.2-1.5 1-3.9 0.4-0.9 0.4 0.1 0.1 0.9 0.2 0.8 0.9 0.2 0.3-1.4 0.4-0.9 0.6-0.4 1.1 0.6 0.1 1.5-0.2 1.8 0.3 1.7 0.6-1 2.5-0.8 1.2-1.1-2.7 0 1.8-1.5 0.7-0.8 0.7-1.1 0.8-2.9 0.4-0.7 0.4 1.5-0.1 1.5-0.2 1.4-0.8 2.6z" data-id="NZL3401" data-name="Marlborough District" name="Marlborough District"/><path id="NZL3402" d="M570.9 708l-2.8-1.4-3-2.8-1.6-2.6-0.4-1.3 0.7-0.1 1.5-0.7 2.8-2.5 2.7-1.7 1.3-1.4 3-4.2 4.8-4.8 1.9-0.8 0.9-1.5 0.8-0.3 0.4 0.3 0.1 0.8-0.3 0.9-0.2 0.8 2.6-1.2 1.3-0.8 1.1-1.2 1.2-2.4 0.6-0.7 0.7-0.1 0.7 0.5 0.6 0 0.7-1.1-0.8-1.1 0.7-1.4 1.3-1.2 0.2-0.1 0 0.7 0 1.9-0.7 3.3-1.3 3.5-1.2 2-2.4 3.1-3.2 3.1-6.7 10.4-3.5 3.6-2.6 1.8-1.9 0.7z" data-id="NZL3402" data-name="Nelson City" name="Nelson City"/><path id="NZL3403" d="M563.1 699.9l0.4 1.3 1.6 2.6 3 2.8 2.8 1.4-0.8 2.6-0.1 1.5-0.4 2.2-0.1 2.7 0.3 2.3-0.7 1.6-1.5 0.8-1.9 0.2-3.5 1-2 3.3-6.1 7.1-2.2 3.7-3.2 4-4.6 4-0.7 1.6-0.3 1.4-1.3 1.6-2.7 4-0.8 3.1-0.9 5.5-0.7 2-7.8 9.9-2.6 9-1.2-0.2-0.5-0.3-0.9-0.2-0.9 0-0.8 0.2-0.6 0.5-0.3 1.1-0.2 1.5-2.1 5.9-1 2.2-3.6 4.3-1.4 1.2-1.4 0.9-2.2 0.6-1.4-0.2-0.7 0-0.8 0.1-0.5 0.3-0.3 0.6-0.3 0.6-0.4 0.7-0.6 0.4-0.8 0.2-1.1-0.7-1.1-1.5-1.6-3.5-0.6-2.5-0.6-4.3-0.6-1.8-0.9-1.3-1.3-0.9-1.1-0.1-1.9 0.2-0.8-0.2-0.7-0.4-0.6-0.6-0.5-0.2-0.4-0.4-0.4-0.8-0.6-1.3-0.5-0.9-1.2-0.5-2.2 0.4-1-0.2-0.9-0.7-0.8-1.3-0.5-1.6-0.1-2 0-1.4-0.2-1.3-0.7-0.9-0.7-0.4-0.9-0.6-0.8-0.8-0.7-2-0.4-1.5-0.2-1.1 0.9-5.1 1.9-1.6 0.7-1.5 0.9-2.7 0.2-2.6-0.2-1.7-0.2-1-0.4-0.9-0.1-0.8 0-0.7 0.2-1.8 0.4-1 0.7-1.1 1.5-1.4 1.3-0.7 1.3-0.6 3.9-0.6 0.8-0.6 0.1-1.4-0.2-1.4 0.3-1.3 0.9-1 1.9-0.7 1.2-0.7 1-1.2 0.9-2.3 0.8-2.6 0.9-4.2 0.5-1.4 0.7-1.1 3.7-2.6 0.7-1.3 0.3-1.2 0-1-0.8-1.3-0.1-0.7 0.4-0.6 1.2-0.7 1-0.4 0.9-0.1 2.9 0.9 1.4 0 1.4-0.5 1.3-1 1.6-1.8 0.9-1.5 0.3-2 0-1.7 0.2-1.7 0.2-1.2 0.1-1-0.2-0.6-1.1-1.3 0-0.9 0.8-0.7 5.4-2.2 3.5-3.2 0.3-0.8-0.2-0.7-0.7-0.8-1.4-1-3.9-1.2-1-0.4-1-0.8-3.3-3.5-1-0.6-0.9-0.3-0.7-0.4-0.6-0.7-0.7-1.2-0.6-0.9-0.4-0.9-0.4-1.1-0.4-1.1-1-0.9-1-0.4-1.6 0-2.3 0.5-0.8-0.2-0.8-0.3-0.7 0-0.6 0.4-1.5 2.2-0.9 0.1-0.7-0.8-0.3-3 0.4-1.7 0.8-1.2 0.5-0.5 0.9-1.3 0.4-1.2-0.2-1.3-0.9-1.3-1-0.8-0.9-1-0.6-1.3-0.7-1.8-0.7-1.2-2.5-2.2-0.7-1.5-1.1-6.8-0.3-1 1 0.1 0.5-0.1 1.1-1 2.1-1.5 1-0.2 0.3-0.4 4-3.1 7.7-9.6 3.3-3.3 2.9-1.1-1.3 3.3-0.1 1.2 1.1 0.4 0.4-0.5 0.5-0.9 0.5-0.7 1.3 0.6 0.7-0.3 0.6-0.5 0.5-0.5-0.3-1.4 2.3-1.1 0.1-0.9-0.9-1.1-0.2-0.3-1 1-1.1 0.6-1.1 0.2-1-0.4 3-3.8 3.5-1.9 15.2-0.7 5 0.6 4.6 1.3 2.5 0.3-1.7 0.7-16.7-1.3-1.2 0.3-0.8 1-0.7 2.1-0.8 4-0.7 1.9-1.2 1 0.7 2.1-0.4 0.8-1 0.1-1.4-0.2 1.1 2.8 0.4 0.3 1.3 0.5 0.4 0.5 0 1.7-1 3 0.5 1.7 0.5-0.5 1.6-0.9 1.1 2.9 2.6 2.7 6.6 5.3 1 0.3 1-0.4 1.9-1.5 0.4-0.2 1 0 0.3-0.3-0.2-1.4 0.1-0.4 1.3-1.3 0.6 0.1 0.8 1.2 1-1.6 1.1-0.9 1.1 0.1 1 1.5 0.4 1.3 0 1-0.4 2 0.5 0.9-0.1 0.9-1 1 1.3 0.3 1.2-0.1 1 0.3 0.8 1.5-0.2 0.5-0.8 4.5 0.3 1.9 0.2 0.9-0.2 0.7-0.9 1.4-1.7 1.8-2 1.6 0.8 0.5 0.5 0.2 0.6-0.2 0.8-0.5 0.9 5.1 0.1 1.6 0.5 1.6 0.8 1.3 0.6 1.4-0.3 1.7-0.3-1-0.5-0.8-0.6-0.6-0.7-0.4-0.5 3.6 0.2 0.9 1.2 1.3 0.5 0.7 0.2 1.2 0.5 0 0.8-1.3 0.6 1.3 0.8 4.2 0.9 2.8 0.1 0.8-0.5 0.6-1.3 0.7-0.3 0.7 0.6 1.5 1.3 0.9 1.7 0.4 3.6 0 0.9-0.2z" data-id="NZL3403" data-name="Tasman District" name="Tasman District"/><path id="NZL3404" d="M676.5 188.4l-1.4 0.9-7.5 6.4-2.3 1.7-0.8 0.9-1 0.6-1.1 0.3-0.3 0-0.8 0.1-0.7 0.4-1.9 1.7-0.8 0.6-0.6-1.1-1.3 0.8-1.5 1.4-1.4 0.8-1.9-0.3-1.1-0.5-0.7-0.5-0.4-1.7 0.8-0.4 2.3 0.8 1.2 1.2 0.6 0.1 0.4-2.4 1.2-3.1 1.8-2.4 0.5-1 0.1-0.7 0.1-0.8 0.4-1.4 1.2 0.6 1-0.2 0.2-0.8-0.9-1.5-0.7-0.5-2.9-0.9 0.3 2.9-1 3.3-1.9 2.6-2.2 1.1 1.2-1.6 0.4-0.3-0.9-0.4-0.8 0.2-0.7 0-0.2-0.9-0.2-1.5-0.5-0.3-0.7 0.2-0.7 0-0.8-0.3-0.5 0-0.2-0.3-0.1-1.4 0.1-1 0.2-1 0.7-1.9-1.2 0.1-0.8 0.6-1.6 1.9 0.3-2.6-1.2-0.1-3.3 2.7 0.8 0.8 0 2.1 1 0.4 1.4 0 1 0.2 0.7 0.5 0.8 1.2-0.4 1.4 0 0.9 0.7 0.4 0.5-0.2 0.4-0.4 0.7-1 0.7 0 0.8 0.8 1.4 2.1-2.8 0.8-0.4 0.2-0.2 0.9-0.5 0.5-0.6 0.2-0.8 0-0.6-0.4-1-1.3-0.7-0.3-0.9-0.1-0.5-0.4-1.8-2.7-0.7-1.4-0.9-1.4-1.3-1.2-1.4-0.3-3.7-0.1-0.7-0.6-0.5-0.9-1.2-1.2-1.3-1-1-0.5-1.2-0.7-0.6-1.8 0-3.7-0.5-1.4-2.2-2.3-0.9-2.9-1-1.1-2.3-1.8 2.8-2.6 0.7-1.5-0.3-2.3-0.5-0.7-0.8-0.8-0.8-0.6-0.6 0-0.1 1.3 0.5 0.9 0.8 0.7 0.4 0.5-0.5 2-2.9 1.6-0.3 1.5 3.9 5.6 0.6 1 1.6 1 0.6 2.2 0.4 2.5 0.6 1.8 0.5 0.8 1 2.1 0.6 1.1 0.7 0.5 1 0.4 0.9 0.6 0.6 1.9 0.7 0.7 0.8 0.5 0.6 0.6 4.2 6.5 1 0.6 1.2-0.2 1.1 0.1 0.7 1.2-1.6 0.7 0.7 1.2 1.6 1.6 0.8 2.1-0.6 2-1.5 1.3-3.6 1.5-3.7 0.1-1.9-3.3-2.4-9.2-10-13.8-2.8-5.6-17.4-23.5-17.3-23.4-0.5-1.8 0.5-1.5 2.6-3.4 0.6-1.6 0.1-2.2 0.6-2.1 0.9-1.3 1.6 0.8 0.4-1 0.1-0.4 0.7 0.9 0.8 1 0.8 0.9 1.1 0.4 0.2-0.6-0.2-3.3 0.3-1.2 2.1 3.3 0.4-1.7 0-1.8 0.4-1.8 1.3-1.3 0.7 0 0.5 0.4 0.5 0.3 0.9-0.7 0.3-0.6 0.5-2 1.3-2.2-2.8 0.9-0.9-0.3 0-1.1-0.1-0.7-0.3-0.4-0.9-0.1-0.3 0.5 0 3.5-0.8-1.4-1.3-4.5-1.3 1.4 0.3 1.8 1 1.7 0.6 1.6-0.5 1.6-1.2 0.9-1.5-0.1-2-1.2-0.8-0.1-0.4 0.3 0.7 1.9-0.5 0.4-0.8 0.2-0.7 0.3-0.7 0.4-0.5-0.3-0.9-1.4-0.6 0-0.9 0.4-1.5 1.2 0.7 1.4-0.5 0.6-1 0.4-0.7 0.9 0 0.5 0.2 0.5 0.2 0.3 0.1-0.1-0.2 7.1-0.3 0.8-0.7 0.1-0.6-0.6-6.6-9.3-0.9-2.5 0.4-1.6 2.6-3-0.5 0-1.1-0.1-0.5 0.1 1.5-1.8 0.7-1 0.4-1.1-2.3 0.4-1.4 1.5-0.9 2.2-0.7 2.4-0.8-0.7-2.4-2.8-0.5-1 0.7-0.8 2.7-2 0.9-1.1-1.2-0.4-2.2 1.3-1.4 0.3-1.3-0.4-1.1-0.9-1.8-2.5-3.1-3.2-0.5-1.3 0.1-1.8 1.1-0.5 1.5 0.3 1.4 0.7 2.5-3.5 1.5-4.4 0.3-4.8-1.1-4.7-2.4-5.9-1-1.6-4.7-4.7-1.4-2-2.4-6.1-1-1-1.4-0.7-15.7-20.9-3.1-2.6-6.5-4 0.8-0.7 0.5-0.7 0.8-1.8-0.2-0.7-0.1-1.5 0.4-1 1.3 0.9 1.7 1 4.5 0.2 1.9 1.1 1-1 2.4-0.6 2.4-1.5 8.7 0.8 1.4-0.3 0.8-0.7 0.8-0.9 0.9-0.3 1.2 1.3-2.2 1.4-0.6 1.9 0.1 5-0.2 1.3-0.3 0.7-0.6 0.5-1.3 0.1-0.3-0.5-0.3-1.1-0.6-1.2-1.1-0.4 0.1-0.5 0.3-1 0.1-0.5-1.5-0.5-0.6 0.1-0.6 2.4-0.2 2-0.6 0.6-1.3-0.8 0 1-0.3 0.7-0.5 0.6-0.7 0.4 0.7 0.8 2.5 1.8 0.2-1 0.4-0.9 0.5-0.6 0.9-0.1-0.4 1.4-0.2 0.6-0.4 0.6 0.8 0.6 0.8 0 0.6-0.4 0.4-0.9 0.5 1.1 0.1 1.2 0 5.4 0.3 0.6 0.7-0.6 0.9-2.2 0.2-2.8-0.5-2.6-1.2-2 2.1 1 1.1 4.6 0.8 5.4 0.8 3.7 2.5 2.9 3.2 2.8 2.6 3.2 0.7 3.9-3.7-4.5-1.6-1.3 0.3 3.4 3.2 3.3 10.3 6-0.3 1.1-1.6 2-0.5 0.8-0.2 1-0.1 3.9 0.2 0.5 0.5-0.1 0.9 0.1 2.5 0.7 0.6 0 0.6-0.9 0.3-1.1 0.4-0.9 1.1-0.5 1-1.1-0.2-2.7-1.1-4.5 0.5-2.1 1.4-0.6 1.9-0.3 1.8-1.2 0.5-1.2-0.1-1.1-0.4-0.9 0-0.6 0.9-0.9 0.6 0 0.5 0.7 0.4 1.1 0 0.9-0.1 0.8-0.4 1.6 2.3-1.2 0.9-0.2-0.4 1 0.2 0.8 1.1 1.4-3.1 1.4-3.2 0-0.8 0.3-0.5 1.5 0.4 1.8 0.8 1.6 0.7 1.2 1 1.5 1.3 1.2 1.5 0.9 1.7 0.3 3.8-0.5 1.4 0.5 1.5 2 0.8-1.6 0.2-0.4-0.8-1.1-1-0.9-0.8-1.1-0.1-1.5 0.8-1.6 1-0.1 1.1 1 0.8 1.4 0.9-0.9 1.1-0.2 0.9 0.5 0.8 2.1 1.1 0.5 2.3 0 0.3-0.2 0.2-0.5 0.3-0.4 0.6-0.2 0.7 0.2 0.1 0.5 0 0.6 0.2 0.5 0.4 0.7 0.2 0.6 0.3 0.5 0.7 0.2 0.6 0.1 0.5 0.1 1 0.5-1 0.5-0.4 0.8-0.3 1-0.4 0.9-1.8 1.3-0.7 0.8 0.1 0.8 2.6 2.3 1.7-0.1 0.3-0.4-0.1-0.6 0-0.9 1.6-3.2 0.1-0.6-0.2-1.4 0.1-0.5 0.5-0.5 1.3-0.2 1.4-0.8 1.2 0 2.2 0.1-0.2 0.5 0.7 1.1 1.3 1.6 3.1 2.4 1.2 1.5 0.5 2.3 1 1.7 2.5 0.4 4.4-0.5 1.9 0.5 1.9 1.3 1.4 2 0.7 2.3-3.2 1-0.9-0.3-0.3-0.9 0-1-0.4-1-0.4 0.2-0.6 0.4-0.8 0-0.9-1.3-1.9 1.1-0.8 0.6 0.8 0.6 1.4 2.2-2.6 0.4-0.2 1.3 1.2 1 1.6-0.7 0.8 0.5 0.8 0.2 0.8-0.2 0.8-0.5 1 1.4-0.2 1.3-0.6 1.2-0.2 1.2 0.5 1.2 2.9 3 0.4 0.9 0.3 1.1 0.1 2.5 0.3 0.3 0.5-1 0.5-1.5 0.3-1.3 1.5 0.8 0.8 0.4 0.9 0.1-0.2-0.5-0.2-1-0.2-0.4 1.2-0.1 0.6 0.5 0.5 0.6 0.6 0.3 0.7-0.4 0.2-0.9-0.3-1-0.6-0.4-1.7-0.1-2.2-0.6-1.9-1-0.7-1.5 0.5 0.7 1.1-1.1 1.8-0.1 3.9 0.5-0.4-0.9-0.2-0.4 0.8-0.1 1.1 0.2 0.8 0.3 0 0.3 0.8-0.5 0.1-0.4 0-0.4 0.4-0.9 2.1-2.3 2.4-2 0.6 2.4-0.7 1.9-1 1.9-0.5 2.2 0.6 2.2 1.3 1 1.7 0.2 1.7-0.1 0 0.6-0.7 1.3 2.3 2.9-1.1 1-0.5-0.3-2.1-2.3-2.4-1.9-0.8-0.7 1.3 2.1 2.8 6.3 1.8 1.4 1.5 0.1 1.6 0.4 0-0.1 0-0.3 0.2-0.2 0.3 0.1 0.4 0.3 0.2 0.8 0.2 0.2 0.7 0.7 1.8 3.3 0.4 1.1-3 0.5 0.3 1.1 4.1 3.3 3.7 4 0.7 2.2-1 3.2-1.2-0.7-3.5-0.5-1.4-0.1-0.8 0.5 1.3 1.1 2.9 1.6-0.4 0.1-1.1 0.6 2 0.5 0.8 0.3 0.3 0.8-0.3 1-0.6 0.7-0.9 0.4-0.8 0.2 4.5 2.8 0.8 1.1 0 1.1-0.5 2.3 0.2 0.9 1.8 3.5-2.1 0.6-1.5-1-1.5-1.6-1.7-1.2 0.5-1.7-2.2-0.7 0.1-1.5-1.2 0.1-1.9 0.8-1.2 0.3-0.5-0.1-0.8-0.9-0.5-0.2-0.5 0.3-0.4 1.3-0.4 0.3-1.2 0.1-0.2-0.2 0.3-0.8 0-1.7-0.2-1.4-0.4-1.1-0.6-1.1-0.9-1-0.3 2.1 0.3 5.2-0.2 1.6-0.4 0.9-0.1 1.3 0.2 1.2 0.5 0.7 1.2 0.2 0.7-0.8 0.5-1.2 0.5-1.1 1.4-0.2 5.2 0.6 1.6 0.6 1.3 1.7-0.3 1.8-1.3 1.9-1.8 1.8 1.3 1.3 0.3 2.3-0.1 2.5 0.1 1.7 0.9 1.2 3.5 2.6 1.4 0.8 1 0.1 1.9 0 0.9 0.5 0.7 1.2-0.1 0.9-0.4 0.8-0.2 1.1 0.3 2.2 0.9 1.2 1.1 0.9 0.4 0.4z" data-id="NZL3404" data-name="Northland" name="Northland"/><path id="NZL3405" d="M692.8 445l-1.3 0.8-1.7 0.6-0.4 0.4-0.3 0.4-1.7 3.5 0.8 3.8 2 3.3 2.7-1.2 1.2 2.3-0.2 3.3 0.8 2.8 1.7 1.9 3.1 0.7 1.2 2.5 0 3.1 5.1 1.2 1.5 1.4 0.8 1.7-0.9 0.6-1.3-0.4-0.9 0.3-6.5 8.5-1.6 3.5-1.3 0.6-1.8 0.3-2.2 2.4-1.2 3.3-0.8 1.4-0.2 1.4 3.5 2.5 1.5 0.8 0.4 1.5-0.3 1-0.5 0.9 0.1 2.2 0.7 2.1 2.2 2.9 3.6 3.1 1.1 3.1 0.7 3-1.2 4.5-0.1 4.6 0.7 0.8 0.5 1-1.4 1.3-1.8 0.5-0.8 0.4-0.3 0.7 0 2 0.2 1.4-1.3 1.6-1.7 0.6-2.3 1.8-1.9 2.3-1.9 1.2-1.6 1.7-2.1 3.8-2.9 0.1-6.2-2.3-4.7-0.5-2-0.5-1.8-1.2-8.2-7.8-1.5-1.9-4.5-7.1-3.1-3.3-3.9-2.2-4.1-1.4-13.2-2.1-4.4-1.5-10.4-7.8-2.9-3.1-2.3-4-1.5-4.6-0.4-4.5 0.4-4.6 1-4.7 2.3-4.5 3.5-2.8 7.9-3.6 19.7-12.4 1.7-0.5 10.3 0.7 3.7-1.2 3.4-2.6 9.2-9.6 1.2-2.1 0.6-3.6 0.7-2.3 0.2-1.3 0-3.1 0.3-0.7 5.4 2.8 6.8 0.5 1.5-0.5 1.1 0.3 1 0.8 1.4 1.6 2.1 1.4z" data-id="NZL3405" data-name="Taranaki" name="Taranaki"/><path id="NZL3406" d="M489.9 645.5l0.3 1 1.1 6.8 0.7 1.5 2.5 2.2 0.7 1.2 0.7 1.8 0.6 1.3 0.9 1 1 0.8 0.9 1.3 0.2 1.3-0.4 1.2-0.9 1.3-0.5 0.5-0.8 1.2-0.4 1.7 0.3 3 0.7 0.8 0.9-0.1 1.5-2.2 0.6-0.4 0.7 0 0.8 0.3 0.8 0.2 2.3-0.5 1.6 0 1 0.4 1 0.9 0.4 1.1 0.4 1.1 0.4 0.9 0.6 0.9 0.7 1.2 0.6 0.7 0.7 0.4 0.9 0.3 1 0.6 3.3 3.5 1 0.8 1 0.4 3.9 1.2 1.4 1 0.7 0.8 0.2 0.7-0.3 0.8-3.5 3.2-5.4 2.2-0.8 0.7 0 0.9 1.1 1.3 0.2 0.6-0.1 1-0.2 1.2-0.2 1.7 0 1.7-0.3 2-0.9 1.5-1.6 1.8-1.3 1-1.4 0.5-1.4 0-2.9-0.9-0.9 0.1-1 0.4-1.2 0.7-0.4 0.6 0.1 0.7 0.8 1.3 0 1-0.3 1.2-0.7 1.3-3.7 2.6-0.7 1.1-0.5 1.4-0.9 4.2-0.8 2.6-0.9 2.3-1 1.2-1.2 0.7-1.9 0.7-0.9 1-0.3 1.3 0.2 1.4-0.1 1.4-0.8 0.6-3.9 0.6-1.3 0.6-1.3 0.7-1.5 1.4-0.7 1.1-0.4 1-0.2 1.8 0 0.7 0.1 0.8 0.4 0.9 0.2 1 0.2 1.7-0.2 2.6-0.9 2.7-0.7 1.5-1.9 1.6-0.9 5.1 0.2 1.1 0.4 1.5 0.7 2 0.8 0.8 0.9 0.6 0.7 0.4 0.7 0.9 0.2 1.3 0 1.4 0.1 2 0.5 1.6 0.8 1.3 0.9 0.7 1 0.2 2.2-0.4 1.2 0.5 0.5 0.9 0.6 1.3 0.4 0.8 0.4 0.4 0.5 0.2 0.6 0.6 0.7 0.4 0.8 0.2 1.9-0.2 1.1 0.1 1.3 0.9 0.9 1.3 0.6 1.8 0.6 4.3 0.6 2.5 1.6 3.5 1.1 1.5 1.1 0.7 0.8-0.2 0.6-0.4 0.4-0.7 0.3-0.6 0.3-0.6 0.5-0.3 0.8-0.1 0.7 0 1.4 0.2-0.4 2-0.3 1-0.5 1.2-1 2.1-0.3 1.1-0.4 1.2-1 1.1-1.9 0.9-1.5 0.3-2.2 1-3.9 3.5-4.8 3.7-1.1 1.3-0.8 1.6-0.7 1-1.6 1.6-0.8 1.5-0.9 1.1-3.4 2.8-2.1 4.2-2.2 2-2 1-1.4 0.5-2.3 0.2-1.1 0.3-2.3 1.7-1.5 1.3-1.8 2.7-1.8 2.2-0.4 1.2-0.3 2-4.7 2.9-4 1.2-0.4 0.5-0.3 1.1-0.6 2.8-0.9 2.8-0.3 1.4-0.4 1.3-0.9 1-1.1 0.7-3.9-0.1-2.8 0.6-3.2 0.3-2.9 0.8-0.6 0.1-0.4 0-0.5-0.4-0.8-0.2-1 0.1-2.8 1.1-1.6 1.2-1.2 0.7-1.4 0.3-2.6 0.2-3.1 1.3-1.8 1.3-3.3 3.3-1 1.9-0.5 1.6-0.3 1.2-0.9 1.1-1.5 0.9-6.1 2-1.6-0.2-3 1.9-4.8 8.4-2.9 1.9-7.7 4-13.5 10.8-7.5 8.4-2 0-1.3-0.5-2.6 0.4-3.7 1.5-10.4 6-7.7 2.7-2.4 1.5-6 5.4-2 2.4-1.2 2.3-1.1 2.7-2 2.9-2 2.4-1.5 2.9-1.7 1.8-2.1 3.8-12 10-2.6 3.1-2.7 2.6-4.1 4.9-2.3-1.3-1.4 0-2 0.3-1.3 1.9-1.1 2.2-1.5 2.1-2.3 1.2-2.8 2-3.2 1.6-2.6 2-3 1.6-2.5-0.7-2-1.1-1.3-1-2.3 0.1-2.9 1.6-4.8 0.7-3.8-0.2-3.2 0.5-3.6 1.6-3.6 3-0.8 1.1-0.9 1.9-2.7 3.4-2.7 1.6-1.8 1.7-1.4 1.8-0.8 2.3-0.5 2.1-1.9 5.2-1.7 2.7-2.9 3.1-2.2 1.3-5 0.7-15.1 7.3-9.6 1.1 2.2-8.7 0.6-1.8 0.7-2.5-1-1.9-0.8-2.2-1.6-2.3-1.5-1.8-2.6-1.8-2.7-1.2-3.9 0.2-4.2 1.4-0.7-0.9-1.9-0.8 0-0.7 3.6-1.3 1.5-0.9 2.8-3.3 4.8-3.3 3-3 2.6-3.3 0.1-0.6 0-1.1 0.3-1.4 0.6-1.3 0.8-0.8 0.9-0.8 0.9-0.5 0.8-0.4-0.5-0.3-1.5-1.2 1.5-0.8 1.5-0.5 4.8-0.3 2.8-0.6 2.6-1.4 1.6-1.1 0.7-0.8 1.1-0.6 2 0.2 0.6-0.3 1.9-1.8 1.3 0.7 1.2 1.9 1.6 1.7 3.7 0.6 4.4-1.4 4.2-2.7 4.6-4.7 3.6-2.4 1.5-1.5 1.3-1 4.9-2.7 1.3-1.1 0.4-0.9 0-1.1 0.3-0.9 0.6-0.6 2.1-1.3 0.7-0.3 1.5-0.8 2.9-3.5 1.4-0.8 1.5-0.6 5.6-3.8 3.9-1.3 2.1-1.1 0.9-1.6 0.3-0.8 0.9-0.9 0.9-0.7 0.8-0.2 2.1-0.2 0.6 0.1 0.7 0.1 0.7-0.1 0.9-0.6 1.1-1.2 3.1-0.9 2.6-2 3.1 0.7 1.7-0.2 4-3.2 1.6-0.4 1.2-0.9 2.6-4 1.2-1.3 0.4-1.2 0.1-1.3 1.5-1.9 2-0.4 0.9-1 0.1-1.4 0.5-2.3 1.6-2 1.7-1.4 10.2-5.1 1-1.7 0.7-2.8 1.7-0.6 1.1-1 0.7-1.7 0.6-1.5 0.8-0.7 1.8-0.8 2-1.4 1.1-0.5 1.2-0.3 0.9 0.3 1.6 1 0.9 0.3 5-8-2.4-0.5-2 2.1-1.7 2.8-1.8 1.3 1.5-4.6 2.6-3.1 2-1.5 0.7-1.6 0-0.8 5.7-0.4 1.7-0.8 0.6-0.7-0.6-0.9 1.4-1.1 1-1.6 1.2-0.9 1.7 0.7 0.2-1.7 0.9-0.4 0.5-0.8 3-1.9 6.9-2.5 3-2.4 2.5-0.4 1.2-0.1 0.8-0.1 0.7-0.8 0.9-1.2 0.9-0.7 2.8-1.4 1.4-1.6 2.7-4 1.4-0.9 1.3-1.1 6.6-11.5 1-1 0.8-0.3 1.5-0.7 1.4-1 0.6-1.3 1.1-2 0.8-0.9 0.8-0.4 1.2-0.8 1.3-1.9 1.9-3.7 1.4-0.8 5.5-11.4 1.6-1.9 0.8-1.5 0.2-3.4 0.5-2.4 3.8-5.8 1.6-4.7 2.1-15.4 1.4-3.8 0.3-2.3 0.8-2.6 0.4-0.8 2.6-3.2 1.1-1.9 0.8-2.3 1.3-6.6 1.1-2 0.7-3.4 1.6-3.9-0.5-1.2-0.6 0.8-0.3-0.8-0.1-0.5-0.1-4.9 1.2-0.9 4.6 0.7 5.4-0.8 1.4 0.1 0.6 0 3.8-1.7 7.3-4.7 1.9-2.3 0.7-0.5 1.1-0.3 1.1 0.2 0.7-0.2 0.6-2.4 0.6-0.7 0.7-0.5 0.8-0.7 1.1-1.8 2.8-6.4 0.4-0.5 0.4-0.1 0.2-0.4 0.2-2.1 0.1-0.2 0.2-0.2 0.4-0.3 0.6-1 0.4-0.9 0.3-1.2 0-1.2 0.9-1.5 2.1-1.7 2.2-1.5 1.6-0.6-0.3-0.9 0-1 0.1-1 1.1-2 0.1-1.2 0.1-2.2 0.2-2.5 0.4-1 0.7 0.3 0.4-0.1 0.7-0.5 0.9-0.4 0.9-0.1-1.5-2.9-0.4-1.2-0.7-11.3 0.2-1.3 0.7-2.3 0.1-1-0.5-5.3 0-11.1-0.4-3.1 0-1.8 0.7-0.8 0.9-0.1 0.7-0.2 0.5-0.7 1-2 1.9-2.4 0.3-0.6 0.1-1.1 0.2-0.4 0.5-0.6 0.5 0 0.5 0 0.5-0.3 0.3-0.4 0.2-0.7 0.3-0.6 0.5-0.3 0.1 0 0.1 0z" data-id="NZL3406" data-name="West Coast" name="West Coast"/><path id="NZL3407" d="M292.6 979.1l0.6 6-0.9 2.6-2 3.3-1.3 2.9-1.7 2.1-1.8 3-1 2.1-1.6 2.5-0.2 2.3 0 19.5 0.2 2.7 0.5 1.6 2.4 1 2.2 2 1.2 2.8 1.2 7.1 1.5 2.1 1.7 1 2.2-0.3 2.1 2.9 4.3 4.6 5.7-0.7 2.5 1.1 2.3 3 1.8 3.9 2.5 7.8 2.7 6.5 2.3 3.7 1.6 2.1 2.4 1.3 5.5 0.4 6.8-1.5 2.9 0.2 1.5 1 0.9 2.1-0.2 2.4 0.4 3 0.8 2.8 1.7 2.8 1.6 1.6 7.5-4.4 12-11.1 2.7-1.4 3.1-0.8 3 0 6.5-1.8 13.7 3.8 8.1 3.3 3.6 0.7-0.7 1.6-0.3 1.7-5.2 9.8-8.6 8.9-4.1 9.1-1.9 7.8-1 2.3-0.9 2.8 1 1.3 1.4 1.3-0.2 2.5-2.8 3.4-0.7 1.5-0.1 1.2 0.3 1.2 0.2 1.4-1 2-2.2 1.5-1.6 1.7 0.6 2.7-0.9 1.3-1 0.6-1-0.1-1.3-1 0.1 1.2 0.2 1.1 0.7 2.1-1.3 1.3-1 0.4-2.7-0.1-1.6 0.6 0.1 1.1 1.1 1.1 1.7 0.2-1.8 4-0.6 0.6-0.8 0.3-1 0.6-1.6 1.4-0.6 0.2-0.5-0.2-0.4 0.1-0.1 1 0 1 0.1 0.6 0.3 0.2 0.7 0.1 1.1 0.4 1.1 0.7 1 0.1 1-1.2 1.4 1.2 2 1.1 1.6 1.1 0 1.5-1.4 1-3.7 0.8-1.5 0.8-1.5 2.4-0.6 0.7-0.7 0.3-0.8 0.2-0.8 0.4-1 2.8-2.8 1.9-0.8 1.9 1.5-0.8 2.7-0.7 2.4-2.1 3.5-1.4 1-1 1.2-2.5 0.9-1.3 1.1-0.7 0.9-0.3 0.9-0.5 0.8-1.5 0.8 1.4 0.3 1.7-0.2 6-0.7 1.5-1.1 0.5-1.7 0.2-1.6-0.1-0.3 0.1-0.8 0.7-0.4 0.7 0 0.8-0.1 0.6-16 1.6-6.5 2.3-5.8 4.2-4.4 6.5-1.2 2.6-0.3 1.3-0.3 3.4-0.7 2-0.1 1-0.6 2.4-1.4 2.1-1.7 1.7-1.6 1.1-4.1 1.7-1.9 1.2-1.7 2-1.3 2.1-1.5 1.7-10.6 7.6-2.7 3.8-1 5.8 0.2 3-0.4 1.1-2.2 0.9-1.8 1.5-0.6 0.4-1.3-0.2-2.6-1.1-1.3-0.2-1.3 0.2-2.3 1-1.2 0.3 1.2 0.5 6.2 0.3-1.5 3.9-2.5 1.7-2.7 1.1-2.6 2.2-1.1-0.2-2-0.8-2.1-0.5-1.6 0.7-1 0.9-4.1 2.5 0.5 0.5 0.7 1.3 0.5 0.6-2.1 0.6-2.6-0.8-2.4-0.1-1.4 2.6-1.6-1.3-0.5-0.3-2.7-0.4-1.3 0.1-1.1 0.7-1.5 1.7-1 0.7-0.9 0.3-2.7 0.4-1-0.2-1-1 0.3-2.3-0.2-1.3-0.1 0-0.1 0 0.3-6 1.3-2.4 0.9-2.9-0.1-2.2-3.1-4.4-0.4-2.4 0-2.9-0.6-3-1-2.8 0.6-3.4 1.1-2.8 0.5-3.2 0.2-7.2-2.5-6.2-0.9-3 0.2-2.9-0.9-3.8-2.1-3.7-2-2.9-0.7-3.5-0.1-3.3 0.4-3.1-0.4-2.8-1-2.4-2.2-2.1-1.3-1.5-0.4-3.8-0.4-2.3-0.2-2 0-3 0.5-3.6 1.2-4.8 4.7-9.8 5.4-14.2 3.2-3-1.3-4.7-7.1-7.9-2.8-1.6-3.4 1.8-8.5 12.4-3.4 1.6-3-0.5-2.6-1.1-1.9-3.8-4.9-7.1-2.2-5.5-1.8-0.9-13.5 6.2-5.1 0.4-3-0.1-3.8-2-1.1-3.3-0.1-3-2.4-5.2-1.3-3.7-0.4-3.2 2.8-9.2-0.2-2.1-4.3-2-2.2-2-2.1-2.9-1.5-3.4-0.8-3.5-0.4-4.1 1.6-4.2 1.3-8.7-0.3-3.9 2-8.1 1.5-4 2.7-4.7 2.6-3.3 2.5-1.8 1.7-1.7 9.6-1.1 15.1-7.3 5-0.7 2.2-1.3 2.9-3.1 1.7-2.7 1.9-5.2 0.5-2.1 0.8-2.3 1.4-1.8 1.8-1.7 2.7-1.6 2.7-3.4 0.9-1.9 0.8-1.1 3.6-3 3.6-1.6 3.2-0.5 3.8 0.2 4.8-0.7 2.9-1.6 2.3-0.1 1.3 1 2 1.1 2.5 0.7 3-1.6 2.6-2 3.2-1.6 2.8-2 2.3-1.2 1.5-2.1 1.1-2.2 1.3-1.9 2-0.3 1.4 0 2.3 1.3z" data-id="NZL3407" data-name="Otago" name="Otago"/><path id="NZL3408" d="M121.4 1338.7l-1.8 0.6-0.6-1.4 0.9-1.6 1.9-1.2 1.7-0.2 0.8 1.5-1 0.9-1.9 1.4z m19.1-6.3l1.1 0.3 0.7-0.1 0.3 1-0.3 0.4-0.2 0.1 0 0.5-0.6 0.5-0.7-0.1 0-1-0.4-0.4-0.3-0.5 0.4-0.7z m-22.1-3.8l-0.6 1.2 0.1-0.5-0.1-0.7-0.1-0.6 0.4-0.4 0.3-0.1 0.1 0.4 0 0.3-0.1 0.4z m64.5-26.6l-0.5 0.2-0.9-0.4 0.2-0.8 0.6-0.5 0.6 0.8 0 0.7z m-42.4-13.9l-1.2 0.4-1-0.4-0.5-1.5 0.3-1.5 0.9-0.7 1.2-0.2 1 0.3 1 0.9-0.8 1.9-0.9 0.8z m67.4 0l-0.7 1.1 0.3-1.2-0.5-1-0.8-1.1-0.7-1.4 1.2-0.1 1.2-0.5 0.8-1 0.5-1.5 1.2 2.5-0.9 2.4-1.6 1.8z m-46.6-10.3l1.5 1.2 1.3 1.6 6.9 9.7 1.1 1.2 1.3 0.9 1 1 0.5 1.6 0.9 0.3 1.8 1 0.9 1.4-1.5 1.5 1.6 0.8 0 0.7-1.9 0.7-7-0.7 0.5-1.5-4.3-0.2-1.5 0.8 0.8 2.1-0.2 1.3-3.8 5.3 2-0.2 2.6-3.5 1.7-0.9 0.8 0.3 2.1 1.6 2 0.6 3 1.3-0.3 0.8-0.2 0.6-0.4 0.5-0.6 0.4 0 0.7 0.9 0.1 4.1-1.5 1-0.1 1-0.6 0.6-0.2 0.3 0.4 0.2 0.9 0.6 0.9 0.7 0.6 0.6 0.3-0.4 1.1-0.5 2.8-0.2 0.8-0.8 0.5-0.9-0.1-0.9-0.3-1.1-0.1 0 0.8 3.5 2.3 1 1.2 0.2 0.7-0.6 0.3-0.8 0.2-0.6-0.1-0.4-0.4-0.6-1.4-0.6-0.5-1.7-0.1-0.4 0.8 0.5 2.8-0.9 0.5-2.6-1.1 0.9 1.7-5.8 0-4.8 0.9-1.9 0.9-4.8 4.5-1.4 1.9-1.1 0.8-1.3 0-1.4-0.7-1-0.9-1.2-0.7-2.8 0.5-0.9-0.1-0.8-1.4-0.5-1.6-0.6-0.9-1.6 1.5-1.3 0.4-0.6 0.3 0 0.5-0.5 2.7-1.2-0.9-4 3.2-2.2 0.8 1.3 1.5 2.4-0.4 4.7-1.9-0.9 2.2-0.9 1.5-2.4 2.6 0-2.8-0.9 0.1-1.4 1.4-1.1 1.6-1.4 0.8-2.6 0.6-2.6 0.2-1.6-0.5-0.4-2.2 0.5-2.9 0.9-2.7 0.9-1.8 0.8-0.7 1.5-0.3 1.5-1.2 2.7-1.4-1.3-0.9 0-1 0.5-1.2 0.4-1.4-0.1-1.7-0.3-1.4 0-1.2 0.6-1.6 0.8-1.1 0.8-0.8 1.8-1.2 1.3-0.5 1 0.3 0.9 0.5 1 0.1 1.4-1.5-0.3-2.7-0.6-3 0.3-2.5 1-0.6 2.3 0 1-0.9 1.2-2.2 0.5-1.2 0.2-1.6-0.4-2.5-1.1-2.4-2.6-4-0.4-1.2 0.3-1 0.6-0.8 0.3-0.9 0-0.7-0.2-0.5-0.2-0.5-0.4-0.6-0.3-0.8 0.1-0.6 0.4-0.6 0.1-0.6 0.4-3.2 1.1-1.6 1.7-0.6 2.4-0.1 2 0.8 1.2 0.2 1-0.6 1.1-1.1 0.9-0.2 3.6 1.9z m-79.4-15.2l0.1 0.7-1-1.2-0.7-0.9 1.1-0.1 0.5 0.1 0.1 0.5-0.1 0.9z m70.7-11.9l-0.3 0.3-0.6-0.7-0.8-0.1 0.2-0.3 1-0.1 0.3-0.3 0.2 0.6 0 0.6z m-95-35.7l-0.7 0.4-0.3-0.3 0.1-0.4-0.2-1.2 0.1-1.5 1-1.1 1.2-0.3 1.1 0.6 0.4 0.9-0.5 0.9-2.2 2z m-6.8-8.6l-0.4 0.7-0.4-0.3-1.1-1.5 0-0.7 0.4-0.6 0.7 0.1 0.7 0.4 0.5 0 0.2 0.2-0.4 0.6-0.2 1.1z m0.9-3.1l-0.2 0.1-1-0.4-0.1-0.6 0.2-0.6 0.2-0.1 0.5 0.2 0.4 0.6 0 0.8z m2.9-4.4l-1.5 1.8-0.7 0-0.9-0.4-0.2-0.3 0.2-0.4 0.4-0.5 0.1-0.5 0.1-0.2 1.3-0.5 0.4 0 0.3-0.2 0.6 0 0.2 0.6-0.3 0.6z m14.8-26.7l-8.4 3.2-0.6-0.2-0.4 0.2-2.2 0.3-0.4-0.2 0-0.2-0.3-0.2 0.3-0.4 1.7-0.3 1-1 2-0.1 2.9-1.4 3.7-0.3 0.5 0 0.4 0.3-0.2 0.3z m-20.4 2.3l-1.5 0.1-0.4-0.5 0-0.4 0.3-1 1.6-0.5 1.2 0 0.7-0.6 1.1-0.1 1.1 0.5 0 0.6-0.9 0.5-0.9 0.2-1.1 0.6-1.2 0.6z m25.2-1.8l-1.9 0-1.2-0.6 0.4-0.4-0.6-0.3 0-0.6 0.8-0.9 0.9-0.5 4.6 0.5 0.4 0.5 0.1 0.6-0.4 0.3-3.1 1.4z m-8.2-14.3l1 2.1 0.6 2.5 0.3 2.4-0.3 2.4-0.9 1.8-1.4 1-1.7 0.2-0.2-0.6-0.5-1.1-0.6-0.5-0.6 2-0.6 0.4-0.7 0-0.6-0.2-0.4-1.1-0.4-2.2-0.3-2.2 0.1-1.3-1.1-2.1-1.3 0.2-4.8 5.7-1.2 0.9-1.7 0.5 0.4-1.4 0.8-2 0.9-1.8 0.9-0.8 0.2-0.3 0.9-1.7 0.6-1.6 0.9-0.3 1.9 0.1 6.2-2.2 1.4-0.1 0.7 0.2 1.5 1.1z m23.4-35.8l-2.6 0.5-1-0.3-1.4-1.4-1.2-0.8-1.7-0.6-1.5-0.8-0.6-1.5-0.9-1.4-0.1-0.8 0.7-0.4-0.1-0.5 0.5-1 4.7-7.5 0 0.5 0.1 0.3 0.2 0.3 0.2 0.4 0.7 3.9 1.1 3.7 2.9 7.4z m166.2 146l-0.9-0.3-0.7 0.8 0 2.5-0.9 0.8-0.2 0.6-0.2 0.5-0.4 0.3-2.4 0-1.3-0.5-0.8-1-0.6-1.1-0.5-0.6-1 0.2 0 1 0.2 1.3-0.3 1.4-2 1.3-2.6-0.7-2.7-1.4-2.1-0.7-2.5 0.1-1.4-0.2-0.9-1.4-2-7-0.1-1.1-0.4-1.3-1.1 0-2.3 0.9-7.9 1.5-2.6 0 0.6-1.2 1-0.4 1-0.1 1.1-0.6-1.5-0.9-2-0.5-3.8-0.1 0.6 1.6 1 1 0.4 0.8-1 1.2 0.3 0.3 0.5 0.9 0.3 0.3-4.2 1.4-13.2-1.4 0.9-1.9 0.5-0.6 0.6-0.5 1.1-0.4 2.8 0.1 0.9 0.3 0.8 1.3 2.2 0.4 1.4-0.6-1.8-1.9-2.2-0.9-6.7 0.1-3.1-2-1.5-0.3-0.7 1.9 0.5 2.3 2.3 3 0.9 2.1-2.1-0.4-2.8-3.4-1.7-0.9-0.3-0.5-0.1-1-0.5-1.1-2-0.7-0.6-0.6-0.3-1-0.2-1.3 2.4-0.7 0.8 0 0.8 0.3 0.2 0.3 0 0.5 0.3 0.8 0.5-0.8 4-3.4 0.8-3-0.6-3.6-1.4-2.6-2 0 0.7 2.8-0.8 2.6-1.5 1.6-1.6-0.1-0.9-1.6-1.6-4.6-4.1-7.7-1.3-1.4-2.1-0.6-7.6 1.4-1.1 0.6 0 1.3 0.2 1.3-0.2 0.6-1.1-0.4-1.3-0.6-1.3-0.5-1 0.4-2.3-0.4-1.5 0.1-0.7 1-0.4 1.2-0.9 0.3-0.9-0.1-0.8-0.3-1.1-0.6-0.6-0.1-0.5 0.2-1.2 1.1-0.5 0.2-0.8-0.4-0.8-0.7-0.7-1.1-0.9-0.4-0.7-1-1-2.1-0.8-0.8-1.8-1-0.9-0.8 1-0.7 1.1-0.4 0.9-0.7 0.8-1.3-4-5.3-1.9-3.2 0-2.2-1.2-1.1-3.1-0.3-1.6-0.5-3.6-2.4-1.1-0.3-8.8-1-0.7 0.3-0.4 0.7-0.1 1.9-0.3 0.8-0.9 1.8-0.3 1.5-0.1 1.5-0.5 1.6-1 1.4-1.2 0.3-2.6-0.2-1.2 0.5-2.4 1.5-1.1 0.4-1.5-0.2-3.2-1.2-1.7-0.1-1.2 0.3-0.7 0.4-0.4 0.4-0.6 0.3-0.4-0.4-0.3-0.7-0.3-0.3-0.9-0.2-4.9-2.4-1.4 0-1.3 0.3-1.3-0.1-5.2-1.4-10.6 0.2-5.2-0.9-4.3-3.2-2.3-3.1-0.4-1.1 0.5-0.7 2.2-1 0.8-0.6 2.9-3.4 2.6-3.8 2.2-5.1 1.2-2.3 1.6-1 2.3-0.5 3.5-3 1.9-1.1 0-0.7-1.7 0.2-4.7 2.9-3.3 1.2-1.8 1.1-1.2 1.4-0.2 1.2 0.1 0.9 0.3 0.7-0.2 1-0.3 0.3-2.4 2.6-0.1 0.5-0.2-0.1-0.7-0.9 0.1-0.6 0.3-0.8 0-1-0.9-0.8-1 3.5-2.4 1.4-5.6 1.3 0-2 0.2-1.7 0.7-0.9 1.2 0.8 0.3-3.6 0.9-2.4 1.4-1.7 2.2-1.4 4.6-1.2 2-0.9 1.3-2.5-2.6 1.3-2.7 0.9-1.1-0.1-1.4-0.4-1.2-0.7-0.2-0.7 4.2-5.1 0.7-1.2 0.1-0.8-0.8-0.9-0.8 0.1-0.9 0.7-0.7 0.8-0.3 0.5-0.3 0.8-0.3 0.7-0.1 0.7-1.4 1-0.5 0.5-2.1 3.4-0.3 1.1-1.1 1.2-7.3 2.2-1 0.7-1.8 2-0.6 0.4-0.6-0.6-0.6-1.3-0.4-1.4 0-0.9 0.3-1.2-0.1-1.5-0.4-2.2 0-10 0.5-2.5 1.3-1.1 5-0.8 5.3 0-0.6 0.8 0.6 0.8 1.9-1.7 2.3-0.6 4.8 0 1.9-0.4 4.1-1.6 2.1-0.3 2.3 0.4 1.1-0.1 0.8-0.7 0.7-0.8 0.7-0.7 1.6-1.2 3.7-1.7 1.6-1.3 1-2.3-3.3 1.4-1.2 0.2-5.5-0.7-7.2 2.1-1.8-0.6 1.4-3.3 0.9-1.1 1.4-1 4.1-1.2 1.2-1-7.5 1.1-1.3-0.4-0.5-2.6 0-2.5 0.9-1.8 1.8-0.7 2-0.4 3.9-2.1 2.3-0.4 4 1.5 2.1 0.1 1.7-1.6-2.6 0.1-1.2-0.5-0.9-1.2 5-1.6 2.2-1.7 0.7-2.7-10.3 5.4-6.3 1.3-4.2 2.4-0.9 0.1-1.7 0.5-0.8 0.1-1.4-0.2-0.6-0.4-1-2 0-1.7 2.9-6.2 1.4-6.6 0.8-1.7 3.4-1.9 3.8 1.6 3.7 2.5 3.3 0.8-0.9-2.6-1.2-2.8-1.2-0.9-0.9 2.5-1.4-1.2-3.1-1.5-1.3-1-1-1.3-0.3-1.2 0.5-1.4 1-1.8 2.6-2.8 1.7-1.3 0.8 0.4 0.6 1.8 1.4 1.4 3.2 1.6-0.7 0.5-0.6 0.7-0.5 0.8-0.3 1.1 2.5-0.3 2.2-1 2-0.2 2.2 2.2 0.6 1 0.3 1-0.1 1.1-0.8 1.4-2 1.6-0.8 1 0.7 0.5 2.6-0.2 1-0.6 1-1.1 0.5-1.4 0.3-1.5 0.5-0.6 2.1 2 1 0.6 0.8 0.9 0.5 2.6 1.4 3.7 0.3-0.3 0.2-0.4 0.6 0.5 1 0.5 0.5 0.5-0.4-3.6-4-5.2-7.8-7.8 1.1-1.5 1.3-0.8 7.9-2.3 1.4 0.1 0.8 0.9 1.3 2.6 1.1 1 1.4 0.5 1.6 0.1 1.4-0.7 0.9-1.4-1.3-0.4-2.7 0.2-1.1-0.8-0.7-1.2-0.2-0.5 0.1-2.1 0.5-1.2 0.6-0.5 0-0.1-2.9 0.1-2.9 1.3-2 0.6-6.2 0.6-1.4-0.8-0.1-1.4-0.7-2.2-0.5-2.2-1.4-1.2-0.3-1.2-0.3-4.9 0.6-1.8 1.7-1.2 2.3 0.1 1.8 1.3 3 4.2 0.9 0.7 1.3 0.5 1.2 0 0.6-0.8-0.4-0.7-2.8-2.3-2.8-3.7-1.6-1.4-1.9-0.1 3-5 1.9-1.9 1.7 0.5 2.9 4.9 0.2 1.6-0.1 1.4 0.1 1.2 0.9 1 0.4-1.5-0.3-2.2 0.4-0.8 1.2-0.6 4.6 0.6-1.1-1.4-4.4-1.6-1.6-1.1-1.3-1.8-0.9-1.8-0.2-1.8 1.1-1.7 1.8-0.7 2 0.6 2.1 1 2 0.6 1.6 0.8 1.9 1.7 1.7 0.9 1.1-1.2-1.4-0.4-9.3-5.4-0.9-0.9 0.3-1.6 1.3-1.5 3.9-3.3 1.2-0.7 1.5-0.3 1.8-0.1-0.4-0.5-0.7-1.2-0.4-0.5 5.9-3.6 2.5-0.1 1.1 3.3 0.2 0.5 0.6 0.6 0.5 0.8 0.2 1.1-0.2 1-0.7 2.1-0.1 1 0.6 1.5 0.9 1.1 0.6 1.4-0.5 2 2.8 0.3 1.4-0.2-0.3-1.2-0.3-0.6-0.3-0.8-0.1-0.8-0.1-0.8-0.2-0.7-1.6-1.6-0.2-1.1 0.2-1.5 0-1.8-0.5-1.5-0.6-1.2-1.1-3.5-0.2-1.3 0.9-3.7 2.3-2.4 2.8-0.4 2.4 2.4 0.6 1.4-0.2 0.8-0.7 0.8-0.7 1.5-0.4 2 0.3 1.6 0.7 1.3 1.4 1 0.2-2.4 0.6-1.6 0.8-1.5 0.6-1.9-0.1-2.2-2-2.3-0.5-1.9-0.9-1.4-0.2-0.8 1.5-0.8 0.8-0.7 0.8-0.5 0.9 0.6 1.4 2.1 1.3 1.3 1.4 0.8 2 0.6-1.3-0.8-2.9-3.6-2-1.8-0.3-1.2 0.6-1.5 1.2-1 4.1-1.2 0.6-0.7 0.6-1.5 0.4-0.7 0.5-0.3 1.3-0.5 0.6-0.4 2.2-2.4 2.2-1 2.3 0.6 3.4 3.1 2.6 1.5 1 1.2 2.4 4.7 0.5-1.2 0.2-1.6-0.2-1.7-0.5-1.4-0.4-0.4-1.8-1-2-2.3-0.5-0.3-0.4-0.1-0.3-0.2-0.4-0.8-0.2-0.8 0.2-2.9-0.5-3.2-0.5-1.6-0.6-1.2 1.8-2.7 6.4-7.3 2.2-2 2.8-1.9 1.9-2.5-0.3-3.5 6.9 0 0.7-0.4 0.9-1.9 0.1-1.7-0.3-0.3 4.2-1.4 3.9-0.2 2.7 1.2 2.6 1.8 1.5 1.8 1.6 2.3 0.8 2.2 1 1.9-0.7 2.5-0.6 1.8-2.2 8.7-1.7 1.7-2.5 1.8-2.6 3.3-2.7 4.7-1.5 4-2 8.1 0.3 3.9-1.3 8.7-1.6 4.2 0.4 4.1 0.8 3.5 1.5 3.4 2.1 2.9 2.2 2 4.3 2 0.2 2.1-2.8 9.2 0.4 3.2 1.3 3.7 2.4 5.2 0.1 3 1.1 3.3 3.8 2 3 0.1 5.1-0.4 13.5-6.2 1.8 0.9 2.2 5.5 4.9 7.1 1.9 3.8 2.6 1.1 3 0.5 3.4-1.6 8.5-12.4 3.4-1.8 2.8 1.6 7.1 7.9 1.3 4.7-3.2 3-5.4 14.2-4.7 9.8-1.2 4.8-0.5 3.6 0 3 0.2 2 0.4 2.3 0.4 3.8 1.3 1.5 2.2 2.1 1 2.4 0.4 2.8-0.4 3.1 0.1 3.3 0.7 3.5 2 2.9 2.1 3.7 0.9 3.8-0.2 2.9 0.9 3 2.5 6.2-0.2 7.2-0.5 3.2-1.1 2.8-0.6 3.4 1 2.8 0.6 3 0 2.9 0.4 2.4 3.1 4.4 0.1 2.2-0.9 2.9-1.3 2.4-0.3 6z" data-id="NZL3408" data-name="Southland" name="Southland"/><path id="NZL5468" d="M767.3 235.8l-0.5 0-0.5 0-0.4 0-0.6-0.2-0.9-0.5-0.2-0.3 0.1-0.4 0.2-0.4 0.1-0.3 0.1-0.3-0.1-0.3-0.1-0.3-0.5-0.4-0.6-0.2-0.6-0.4-0.4-1 2.1-0.7 0.5 0.8 0.8 2.5 0.9 0.1 0.6 0.4 0.5 0.6 0.4 0.9-0.5 0.3-0.4 0.1z m9.5 71.4l-3.1 1.2-0.4 3.7-1.6 2.6-1.4 0.6-0.3 1.7 1.8 1.6-0.2 1.2-2.5-0.7-2.3-1.3-0.9 1.4-0.6 1.5 1 1.2 0.8 1.8-0.6 1.5-0.2 2.3 1.3 2.7 0.1 2.8 1.5 3.5 1.9 3.1 2.7 6.7 1 7.9 0.6 1.2 2.1 2.7-0.1 2.1-0.6 2.3 1.2 4.1 0.9 1.6 1.2 0.3 1.3 0.1 2.6 1.2 0.8 2.7 1.8 1.7 2.3 1.4 5.5 0.9 3.4 3.3 1.2 1.5-0.1 2.2 1 4.1 0.7 4.1 1 2.7 1.3 2.2 0.8 1.6 0.9 1.2 11.7 5.3 2 1.9 0.8 3.8-1.8 7.8-1.5 2.7-4.6-2.2-1.4 1-0.5 2-0.9 2.2-1.7 0.8-1.9-0.1-1.1-0.8 0.2-1 0.5-1.2 1.2-1.3 0.5-0.8 0.1-1.2-0.3-1.2-0.8-0.8-1-0.4-1.1 0-0.7 0.4-1.2 1.1-0.7 0.5-1.2 0.5-1.3 0.2-2.6 0-0.4-0.4-1.6-2-1.6-0.9-1.4-1.4-2 2.1-0.9 1.2-0.7 1.5-1.1 0.3-1.1 0.2-0.7 2.2 0.8 2.1 4.4 1.2 6.4 2.6 1.2 1.4-1.8 4.3-0.9 3.9 3.1 3.6 1.7 3.7-1.4 1.5-1.7 0.6-5.1-2-1.6-0.1-0.7 2.3-0.5 3.2 0.9 1.4 1.9 4 2.2 3.7 2 1.9 2.4 0.5 1.8-1 1.3 1.3 1.5 9-3.6 6.1-3.8 4.8-2.1-0.7-4.5 1.6-5.8-0.2-3.4 0.4-0.4 0.3-0.2 0.6-2.1 2.5-3.1 1.1-0.9 1.2-0.5 1.3-0.8 1.3-0.6 1.5-0.4 1.6-0.9 1.2-3 1.5-3.2-0.4-7 0.1-6.7-2-0.3-3.9 1.8-3.6 1.6-4.2 1-4.6-0.7-2-1-1.6 0.5-2.3 1.3-1.9 1.3-2.8 0-2.1-2.5-0.2-2.5 0.4-2.7-1.6 0.6-3.6 0.7-1.2-0.2-1.6-1.5-1.8-0.4-2.4 1.4-2.8 0-2.8-2.2-1.9-1.4-2.7 2.7-4.3 1.7-4.1 1-3.3 2.2-2.5 1.2-2.8-1-1.1-2.2 1.4-2.3 0.8-3.2-1.5-2.6-1.8-4.8 0-4.6 1.1-1.8 0-1.3-1.2-1.6 1.1-0.4 1.1-0.1 1.1-0.8 0.3-1 0.6-1.3 1.1-3.1 1.7-1.9 0.3-3-0.6-3.2-0.2-0.8 0.6-0.7 0.5-0.8-0.4-0.9 0.2-1.6 1.3-1.8 0.9-4.8 0.9-0.6 1.3 0.3 1.8-1.9 3.2-0.2 0.9 0.1 0.8-2.9 1-2.7 1.7-2.1-1.4-1.4-1.6-1-0.8-1.1-0.3-1.5 0.5-6.8-0.5-5.4-2.8 0.1-0.3 1.2-0.4-0.5-1.7 0.2-1.5 0.5-1.5 0.3-1.7 0.2-17 0.6-3.7 2.7-6.2 1-3.4 0.6-3.8 0.4-5.8 0.7-3.5 0.1-2-0.3-1.8-0.7-1.8-0.4-1.7 0.4-1.4 1.2 0.6 1.4 0.2 1.5-0.3 1.2-0.5 0.1 1.1 0.4 0.9 0.5 0.8 0.5 0.5 0.5 0 0-1.4 1.2 0.9 0.9 1.3 1.1 0.7 1.6-0.8-0.6-0.4-1.6-1.7 2.1-0.7 2.4 0.3 2.1-0.2 1.4-2.1-1.4 0-0.6 0.2-0.6 0.6-0.6-0.8 0.2-1.9-1.5-1.4-2.2-0.7-1.5 0.4-0.6 1.1-0.3 1-0.5 0.7-1.2 0.2-0.8-0.6-0.1-1.4 0.3-1.6 0.3-1 0.7-1.1 0.7-0.3 0.7-0.1 1-0.5 2.5-2.7 1.2-0.9 0.1-1.9-0.9-1.7-1.8-0.2-1.2 1.7-0.7 2.3-1 1.2-2.1-1.5-0.3-1.8 0.6-9.3 2.1-4.6 3.6-1.3 4.4-0.1 4.2-0.6-0.3-0.9-0.5-0.6-0.6-0.4-0.8-0.1 1.1-0.8 0.8-1.1 0.3-1.4-0.6-1.5-3.2 2-0.3 0.5-0.3 1.1-0.4 0.4-0.3-0.1-0.5-0.3-0.5-0.2-2.4 1.1-1.3-1.5-4.9-19.1-4.5-10.8-0.8-4.4 0-1.1 0.7-1.2 0.9-0.5 2.2-0.6 0.9-0.5 0.8-1.9 0.7-2.2 1-1.8 1.9-0.8 0.2-0.4-0.4-0.7-0.8-0.4-1.1 0.6-0.7 0.6-1.5 1-0.7 0.6-2.2 4-1.1 0.5-1.7-1.5-1.1-1.7-1.5-3.5 4.5-0.7 4.6-3.1 6.7-2.1 8.3-2.1 8.7-2.1 7.1-1 0.4-6.8 1.7-5.2 1.6-3.7 2.5 1.6 4.2-2.3 0.4 1.2 0.2 1.4 0 2.2-1 6.7 0.3 2.3 0.9 2.1 1.2 1.8 1.2 1.4 2.8 1.6 3.4 0.1 3.5-0.9 3-1.4 0.6-0.6 0.3-0.7 0.4-0.5 1.1-0.2 0.6 0.4 0.2 1.1 0 2.1 0.4 1.9 1 1.2 1.4 0.2 1.4-0.9-1.2-0.3-0.8-1.1-0.5-1.4-0.3-3.1-0.7-2.5-0.2-1.3-1.3-2.9-0.3-1.4 0.1-5.1-0.3-1.2-0.4-0.8-1.8-5.9-0.5-1.1-0.8-1.1-0.9-1-2-1.4-0.8-0.9-0.4-1-0.3-1-0.4-1-1-0.9 1.7-0.6 1.8 0.3 1.7 0 1.1-1.6-2.5 0-1.2-0.2-1.1-0.6 1-0.3 1-0.2 0.8-0.5 0.5-0.9-0.7 0-0.5-0.3-0.5-0.2-0.4-0.2 3.8-1.1 1.3-1.2-0.4-2.3-1.2 0.8-0.4 0.5-0.5-1-0.4-0.9 0-1 0.4-1-1.7-2.9 0.5-2.6 1-2.3-0.3-2.2-0.7-0.3-0.9-0.1-0.7-0.4-0.4-0.8-0.2-0.2-1.4-2-1.4-0.8-2.8-1.1-1.3-1.2-0.7-1.2-0.4-1.6-0.2-3.7 0.7-1.4 1.5 0 1.9 0.4 2.6-0.6 0.5 0.5 0.3 0.8 0.5 0.8 0.3 0.8 0.1 0.3 0.3 0.3 0.6 0.3 1.6 1.6 0.8 0.1 2-2.3 1.4 1.8 0.9 2.4-0.1 2.5-1.7 1.9 1.6 1.3 1.8 0 1.3 0.5 0.6 2.5 0.2 2.4-0.2 1.3-0.8-0.4-1-0.9-0.7 0.2-0.3 0.9 0.5 1.1 0.8 0.4 2.3-0.4 0.8 0.3 0.5 1.1-0.3 1-0.5 0.9-0.2 1 0.5 2.8 1.1 0.3 3.1-2.5-1.1-0.5-0.5-0.1 0.6-0.9 0.9-0.3 1.1 0.2 0.9 0.6 0.9 0.5 1.1-0.6 1.9-1.5 1.4-0.5 1.1-0.1 1 0.4 1 1.2 0.9 0.1 1-0.6 0.8-0.1 0.2 1.6-0.4 1.3-0.8 0.3-2.2-0.3-0.4 0.5-1.5 2.8-1 0.7-1.9 0.8-1 0.8-1.2 1.7-1.2 2 1 0.7-0.1 0.7-0.3 0.7 0.2 0.8 0.9 0.9 0.9 0.6 0.6-0.1-0.1-1 1.3-1-0.6-3.1 1-1.3 1.6 0.9 3.2-0.7 1.8 1.5 0.3 1.1-0.1 2.4 0.3 1.1 1.2 1.6 0.3 0.7 0.4 1.3 0.4 4.6-0.2 3.1 0 0.5 0.1 1-0.4 1-0.7 1.1-0.3 1 0.4 0.6 0.8-0.5 0.9-1 0.5-0.8 1.4 1.8-0.3 2.4-1.1 2.6-1.3 2.1-0.1 0.9 0.8 0.3 1 0.2 0.7 0.3 0.2 1.2-0.1 2.8 0.4 1.3-0.7-0.5-0.6-0.8-0.4-1-0.4-1-0.6 0 0.4 2.4 0.5 2.1 0.2 1.7-1.1 1.1 2.6 1.2 0.9 0.9 0.8 1.8 0.7 3.8 0.3 3.9 0.2 0.7z" data-id="NZL5468" data-name="Waikato" name="Waikato"/><path id="NZL5469" d="M694.9 656.8l-1.2 0.4-0.5-0.2-0.3-0.5 0.2-0.6 0.3-0.5 2.4-2.5 0.4-0.6 0.7-1.8 0.4-0.3 0.6-0.1 0.4-0.1 0.7 0.4 0.2 0.5-1.3 2.5-3 3.4z m107.1-9l-2.7 6.8-1.2 4.8-1.2 2-3.8 1.6-1.6 1.8-1.3 2.4-0.9 2.1-2.5 9.3-1.6 3.9-7.8 11-11.8 9.7-2.8 3-3.9 2.8-4.5 2.4-16.9 13.4-5.3 2.1-1.3 0.9-2.5 2.9-1.3 0.6-5.9 0.5-1.2-0.7-0.7-3.2-1.2-1 0.4-1.5-0.4-1.2-0.6-1-0.5-1.3-0.1-1.4 1.2-7.7-0.3-1.1-0.9-0.7-9.2-3.6-2.1-0.2-1.9 0.5-1.8 1.2-3.8 4.2-0.7 0.5-0.8 0.2-1.3-0.3-1.7-1.3-1-1-0.2-0.9 1-1.9-0.1-1.7-0.5-1.9-0.1-2.5 0.6-2.2 1.7-4 0.3-2.6-0.9-2.3-2-0.6-2.3 0.4-1.6 0.7-1.2 1-0.9 1-0.6 1.3-0.5 1.6 3.6 0.9 1.1 1-0.5 2.4-0.5 0.8-0.7 0.7-0.8 0.1-0.9-0.6-0.8-0.3-0.9 0.7-0.9 0.9-1 0.5-3.6-0.7-3.7-2-2.9-2.9-0.7-3.6 0.9-2 1.4-0.8 3.5-0.7 1.3-1.1 3-3.7 1.9-1.8 1.9-4.3 1.2-1 1.6-0.8 1-1.1 0.8-0.1 1 2.7 1-1 0.4-0.9 0-1-0.3-1.4-0.4-0.2-1-1.3-0.5-1.3 0.6-0.7 0.9-0.4 1.3-1.9 0.9-0.4 0.9-0.3 1-0.7 0.9-0.9 0.6-0.9 0.6-1.3 0.2-1 0.3-2.6 1.6-4.6 0.7-1.5 4.6-5 2-3.5 2.4 0.1 8-1.7 10 0.2 5.8-1.6 0.3 0.2 4 1.3 2.1 0.8 12.2-1.4 11.9-1.8 15-2.1 10.4 0.4 7 1.7 2.4 3.3 2.6 1.4z" data-id="NZL5469" data-name="Wellington" name="Wellington"/><path id="NZL5476" d="M481.5 1.3l1.1 0.2 0.3-0.3 0.2-0.2 0.4 0 0.5 0 0.1 0.4-0.3 0.3-0.7 0.1 0 0.3 0.2 0.5 0 0.3 0.3 0.2-0.3 0.1-0.3 0.1-0.5 0-0.5-0.3-0.3-0.4-0.4-0.5-0.5-0.3-0.1-0.6 0.1-0.2 0.3 0.1 0.4 0.2z" data-id="NZL5476" data-name="Three Kings Islands" name="Three Kings Islands"/><path id="NZL5477" d="M997.3 1627l-0.6 0.1-3.1-0.1-2.5-0.6-1.7-1.7-0.1-3.3 0.8-1.4 3.3-4 1.2-1.1 1.1-0.4 1.1 0.1 1 0.5 0.8 1.1 0.4 2-0.4 2-0.6 2-0.3 2-0.1 2-0.3 0.8z" data-id="NZL5477" data-name="Antipodes Islands" name="Antipodes Islands"/><path id="NZL5478" d="M257.2 1965.1l-0.3 1.2 1-0.1 1 0.6 0.5 1.1 2.6 1.1 1.4 1.8-1.4 0.6-1.9-0.5 0.8 3 0.1 1.3-1.3 1-0.6 1.3-0.6 1.9-2.7 1.6-2.2-0.3-2.6-0.3-1-0.9-1.5-1.1-1.2-0.6-0.8-1.3-1-0.4-0.7 0.9-2-1.9-0.8-1.4 0.7-1.1 1.6 0.1 2.9 0.9 2.4 0.6 0.5-2.5 0.6-2.2 1.2-2.5 1.2-1.2 2.1-1.4 1.4 0 0.6 0.7z" data-id="NZL5478" data-name="Campbell Islands" name="Campbell Islands"/><path id="NZL5479" d="M20.3 1765l5.3 1.4 1.6 1.2-1.1 0.6-2.2 0.5-2 1.1-1.1 0.2-1.1-0.3-0.5 1.2-10.6-1-0.5-0.5-0.4-0.8-0.7-1-1.7-1.6-0.8-1-0.6-1.6 1.4 0.3 1.2 0.7 2.1 1.9 1.1 0 6-1.5 0.9-1.1 0.5-0.3 0.9 0.2 2.3 1.4z m7.2-40.8l-0.2 1.7-0.1 0.8 1.2 0 3.5-0.8-0.3 0.7 0.3 1.4 0.6 1.4 0.5 0.7-3.2 0-0.7 0.3-0.3 0.7 0 0.9-0.3 1-1.3 1.3-1-0.4-0.9-0.5-1.3 0.8 0.8 0.9 0.5 1.2 0.8 3-0.5-0.3-1.1-0.3-0.5-0.3 0.3 1.8 0.2 0.7-0.6 0.5-1.5 2 1.2-0.4 1.2 0 1.3 0.4 1.1 0.8-1.9 0.9-4-0.5-2.1 0.5 0 0.8 1.5 0 2.7 1.5 1.6 0.2-0.7 2.1-0.9 2 1.2 0.1 2-0.3 1.1 0.2-0.4 1.1-0.1 1 0.1 1.1 0.4 1-0.7 0-1.3 0.1-0.7-0.1 0 0.9 1.1 0.1 1.4 0.7 1.2 0.9 0.6 0.8-0.2 2.1-0.9 2-1.2 1.1-1.2-0.6-1.8-1.6-2.4-0.9-2.2-1.2-1.3-2.7-0.8 1.3-0.9 0.9-1.9 1.2 0.4-1.6 0.8-1.8 0.5-1.9-0.4-1.8-0.8-1.2-1.1-1.1-1.1-0.1-1 1.2 0.7 0.7 0.9 1.1 0.4 1.1-0.6 0.4-1.1-0.3-1.8-1.3-1.1 0 0.8 1.1 0.8 0.7 0.7 0.9 0.3 1.4 0 1.9-0.4 1.3-0.8 0.8-1.1 0.2-1.4-0.1-1-0.4-0.9-0.9-1-1.5-0.6 0.1-1 1.1-1.8 2.5-0.8-6.9 3-4.9 10.3-7.4 1.5-2.2 1-2.8 0.3-3.7 0.6-2.8 0.9-2.9 0.2-2.7-1.7-2 1.4-0.4 1-0.6 1-0.2 1.4 0.7 1 0.1 3.7-0.8 1.1-0.5-0.2 0.8z" data-id="NZL5479" data-name="Auckland Islands" name="Auckland Islands"/><path id="NZL5480" d="M58.2 1429.1l0.4 1.1 0.2 1.3 0 1.3-0.7-0.4-0.4-0.7-0.7-1.7-0.7-0.3-2.8 0.8 0-0.9 3.9-4.2 1.4-0.5-0.4 0.7-0.6 2.4 0.4 1.1z" data-id="NZL5480" data-name="The Snares" name="The Snares"/><circle id="0" cx="170.7" cy="1231.5"/><circle id="1" cx="735" cy="580.3"/><circle id="2" cx="676" cy="263.5"/></svg>