<svg xmlns="http://www.w3.org/2000/svg" width="1000" height="556" fill="#7c7c7c" stroke="#fff" stroke-linecap="round" stroke-linejoin="round" stroke-width="2" baseprofile="tiny" version="1.2" viewbox="0 0 1000 556"><path id="SYC5197" d="M30 554.1l-1 0.9-1-0.5-0.2-1 0.9-1.1 1.2-0.7 1-0.3-0.2 1.2-0.7 1.5z m2-36.3l-1.3 0.5-3.4 2.6-1.8 1-7.3-0.2-8 2.5-6.5 0.3-2.7-6.7 2.3 2.8 4.3 1.3 4.6-0.3 3.1-1.7 1.7 0 2.7-0.8 2.5-1.2 1.3-0.8 0.6 0.7 0.7-0.7 1 0.5 1.1 0.2 0-0.7-1-0.7-0.6-0.9-0.3-1.2-0.2-1.3 4.7 2 2.1 1.4 0.9 1-0.5 0.4z m-9.2-4.8l-1.7 1.6-3.1 0.3-3.1-0.4-1.7-0.9-1.2 0.7-2.3-0.3-1.1 0.4-0.2-0.4 0-0.3-0.6-0.1 0-0.4 0.5-0.1 3.4-1.2 3.8 0.2 3.9 0.7 3.4 0.2z m974.7-218.8l-2.5 3.9 1.2-5.2 1-2 1.8-1-0.4 2.2-1.1 2.1z m-349.5-15.9l0.5 1.1-0.4-0.1-0.1-0.2 0-0.8z m59.6-155.5l0.1 0.7-0.5-0.5-0.2-0.5-0.4-1.1 0.7 1 0.3 0.4z" data-id="SYC5197" data-name="Outer Islands" name="Outer Islands"/><path id="SYC5198" d="M923.9 47.8l-0.3 0.8-2.2-0.8 0.3-0.3 2.2 0.3z" data-id="SYC5198" data-name="Anse aux Pins" name="Anse aux Pins"/><path id="SYC5199" d="M921.1 47.7l0.3 2.6 0.4 1.4-0.3 1.9-1.3-0.3-1.1-1.4 0.1-0.9-0.3-0.6 0.2-1 1.1-0.8 0.4-1.1 0.5 0.2z" data-id="SYC5199" data-name="Anse Boileau" name="Anse Boileau"/><path id="SYC5200" d="M917.1 39.6l-0.6-0.1-1.3 0.7-0.2-0.8 0.2-0.9 0.6-1.3 1.2 0.2 0.5-0.5 0.3 1.2-0.4 0.5-0.3 1z" data-id="SYC5200" data-name="Anse Etoile" name="Anse Etoile"/><path id="SYC5201" d="M921.4 47.8l2.2 0.8-0.4 1.9 0.3 0.6 0.3 2.3-1.8-1.2-0.2-0.5-0.4-1.4-0.3-2.6 0.3 0.1z" data-id="SYC5201" data-name="Au Cap" name="Au Cap"/><path id="SYC5202" d="M923.8 53.4l-0.8 0.2-0.3 1.1 0.9 2-1.6 0.1-0.4-1-0.1-1.8 0-0.4 0.3-1.9 0.2 0.5 1.8 1.2z" data-id="SYC5202" data-name="Anse Royale" name="Anse Royale"/><path id="SYC5203" d="M921.5 53.6l0 0.4 0.1 1.8 0.4 1 0 0.6-1.6-0.1-0.2-0.3-0.5-1.1-0.8-0.3-0.7 0.4-0.8-0.3 0.5-1.8 1.6 0 0.7-0.6 1.3 0.3z" data-id="SYC5203" data-name="Baie Lazare" name="Baie Lazare"/><path id="SYC5204" d="M947.6 15l-2.1-1.2-0.6-0.9-5.8-3.5 0.8-0.3 0.6-0.1 0.8 0 1.4 1.3 1.3 0.5 1.5 0.3 0.7 1 1-0.5 1.3 0.2 1 1.2-1.6 0.1-0.3 0.8 0 1.1z m-3.5-6.1l0 0.3-1.2-0.4-0.9-0.8 0.3-0.3 0.7 0 2.1 0.1-0.2 0.5-0.9 0 0.1 0.6z" data-id="SYC5204" data-name="Baie Sainte Anne" name="Baie Sainte Anne"/><path id="SYC5205" d="M915.2 38.5l-0.2 0.9 0.2 0.8-0.5 0.4 0.3 0.7-0.7 0.9-0.6-1.1-0.9 0.3-0.2-0.3 0.3-0.2 0.4-0.8 0.4-0.8 0.6-0.4 0.1-0.4 0.8 0z" data-id="SYC5205" data-name="Beau Vallon" name="Beau Vallon"/><path id="SYC5206" d="M917.1 42.3l0 0.5-0.5 0.2 0.9 1.5-0.5 1-1.4-0.7-0.4-1.4-0.6-0.6 1.2-1 1.2-0.2 0.3 0.4-0.2 0.3z" data-id="SYC5206" data-name="Bel Air" name="Bel Air"/><path id="SYC5207" d="M914.3 42.2l-1.4 0.5 0.2 0.7-1.1 0.5-2.8-1.4 0.8-0.8 0.6-0.2 1.2-0.1 0.8-0.3 0.2 0.3 0.9-0.3 0.6 1.1z" data-id="SYC5207" data-name="Bel Ombre" name="Bel Ombre"/><path id="SYC5208" d="M922.4 46.4l-0.7 1.1-0.3 0.3-0.3-0.1-0.5-0.2-1.3-1.5 0.7-0.4 0.2-0.7 2.2 1.5z" data-id="SYC5208" data-name="Cascade" name="Cascade"/><path id="SYC5209" d="M917.5 36.9l-0.5 0.5-1.2-0.2-0.6 1.3-0.8 0 0.1-0.8 0-1.6 0.7-0.2 1.4 0.1 0.9 0.9z" data-id="SYC5209" data-name="Glacis" name="Glacis"/><path id="SYC5210" d="M918.8 46.3l0.5-0.3 1.3 1.5-0.4 1.1-1.1 0.8-0.2 1-1-0.1-1-1.5-0.9-1.3 0.1-0.4-0.4-0.1 0.1-0.6 0.8-0.1 0.4-0.8 2 1.5-0.2-0.7z" data-id="SYC5210" data-name="Grand'Anse" name="Grand'Anse"/><path id="SYC5211" d="M936 15.3l-0.3 0-0.4-0.4 0.3-0.3 0.2 0.2 0.2 0.5z m1.4-2l-0.5 0.1 0-0.4 0.3-0.2 0.3 0.1-0.1 0.4z m10.2 1.7l-0.9 0.8-1.2-0.1-1.4-0.6-1-0.9-0.5-1.3-1.4-0.2-1.2-0.1-0.7-0.8-0.1-0.7-0.6-1.5 0.5-0.2 5.8 3.5 0.6 0.9 2.1 1.2z m-9.2-13.8l-0.3 0.3-0.8-0.1-0.5-0.1 0.1-0.3 0.6 0 0.9 0.2z" data-id="SYC5211" data-name="Grand'Anse Praslin" name="Grand'Anse Praslin"/><path id="SYC5212" d="M965.6 38.9l-0.5 0.2-0.6-0.1-0.6-0.6 0-0.4 0.3-0.2 0.4-0.1 0.4 0.1 0.5 0.6 0.1 0.5z m-68.3-9.1l-1.8 0.4-1.4-1.6-0.6-2.4 0.4-1.8 1.6 0.5 1.8 1.3 0.9 1.7-0.9 1.9z m57.8-12.5l-0.3 0.9-0.7-0.2-0.8-0.9-0.3-1.2 0.6-1.2 0.3-1 1.2 0.5 0.7 1.3 0.6 0.9-0.7 0.3-0.6 0.6z m7.9-3.1l-0.1 0.7-0.4-0.2-0.1-0.7 0.2-0.7 0.5 0.3-0.1 0.6z m-3.9-0.6l-0.6 0.2-0.5-0.6-0.6-0.9 0.1-0.6 0.5 0.1 1 1 0.1 0.8z m-1-4l-0.4 0-0.4-0.8 0-0.5 0.3 0 0.2 0.6 0.3 0.7z" data-id="SYC5212" data-name="La Digue and Inner Islands" name="La Digue and Inner Islands"/><path id="SYC5213" d="M917.1 39.6l0 0.8-0.1 1.2-1.2 0.2 0.2-0.7-0.8-0.9 1.3-0.7 0.6 0.1z" data-id="SYC5213" data-name="English River" name="English River"/><path id="SYC5214" d="M915.8 41.8l-0.8-0.5-0.3-0.7 0.5-0.4 0.8 0.9-0.2 0.7z" data-id="SYC5214" data-name="Mont Buxton" name="Mont Buxton"/><path id="SYC5215" d="M920.8 42.6l0.2 0.2 0.4-0.1 0.3 0.7-0.1 0.3-0.3 0.1-0.4-0.2-0.3-0.3-0.4-0.1 0-0.4 0.2-0.2 0.4 0z m-3.3 1.9l-0.9-1.5 0.5-0.2 0-0.5 0.4 0 0.7 1-0.4 0.6-0.3 0.6z m4.8-2l-0.2 0.2-0.6-0.3-0.1-0.3 0.2-0.2 0.2 0.3 0.4 0 0.1 0.3z m-0.9-2.9l0.9 0.1 0.2 0.1-0.2 0.4-0.3 0.5-0.7 0.2-0.4 0.3-0.2-0.2 0.1-0.6-0.1-0.3 0.3-0.4 0.4-0.1z" data-id="SYC5215" data-name="Mont Fleuri" name="Mont Fleuri"/><path id="SYC5216" d="M918.6 43.8l0 0.7 0 0.5-0.1 0.3 0.3 1 0.2 0.7-2-1.5 0.5-1 0.3-0.6 0.4-0.6 0.4 0.5z" data-id="SYC5216" data-name="Plaisance" name="Plaisance"/><path id="SYC5217" d="M923.9 47.8l-2.2-0.3 0.7-1.1 0.3 0.1 1.2 1.3z" data-id="SYC5217" data-name="Pointe La Rue" name="Pointe La Rue"/><path id="SYC5218" d="M911.7 47.7l-0.2 0.1-0.6-0.7 0-0.5 0.4 0.1 0.3 0.2 0.2 0.3-0.1 0.5z m-3.2-1.3l-0.8-0.1-0.5-0.4 0.2-0.2 0.4 0.1 0.7 0.6z m8.5-0.9l-0.4 0.8-0.8 0.1-0.1 0.6 0.4 0.1-0.1 0.4-1.4-0.1-2.6-1.6-0.7 0-0.7-0.3 0-0.4 0.5-0.1-0.2-0.3-0.8-0.2-1 0.2-0.8-0.3-0.6-0.4 0.2-0.3 0.8 0.1 0.2-0.3-0.3-0.5 0.6-0.5 2.8 1.4 1.1-0.5-0.2-0.7 1.4-0.5 0.3 0.6 0.6 0.6 0.4 1.4 1.4 0.7z" data-id="SYC5218" data-name="Port Glaud" name="Port Glaud"/><path id="SYC5219" d="M915.8 41.8l-1.2 1-0.3-0.6 0.7-0.9 0.8 0.5z" data-id="SYC5219" data-name="Saint Louis" name="Saint Louis"/><path id="SYC5220" d="M920.4 57.3l1.6 0.1 0-0.6 1.6-0.1 0.1 1.4 0.8 0.5 0.3 1.4-1.8 0-1.5-0.7-1.1-2z" data-id="SYC5220" data-name="Takamaka" name="Takamaka"/><path id="SYC5221" d="M920 45.6l-0.7 0.4-0.5 0.3-0.3-1 0.1-0.3 0-0.5 1.4 1.1z" data-id="SYC5221" data-name="Les Mamelles" name="Les Mamelles"/><path id="SYC5222" d="M920.2 44.9l-0.2 0.7-1.4-1.1 0-0.7 1.6 1.1z" data-id="SYC5222" data-name="Roche Caïman" name="Roche Caïman"/><circle id="0" cx="916.1" cy="41.4"/><circle id="1" cx="919.4" cy="51.4"/><circle id="2" cx="912.8" cy="41.4"/></svg>