<svg xmlns="http://www.w3.org/2000/svg" width="1000" height="661" fill="#7c7c7c" stroke="#fff" stroke-linecap="round" stroke-linejoin="round" stroke-width="2" baseprofile="tiny" version="1.2" viewbox="0 0 1000 661"><path id="SVN1000" d="M404.9 455.4l0 5.5-1 4 0.6 2.1 2 0.4 2.1 0.9 5.5 4.2 5.9 8.8-5.5 1.7-5 4.1-8.5 3.1-12.9 2.2-7.2 1.6-11-10.4-7.8-12.7-2.5-5-0.3-4.7 0.6-3.8-2.5-4.7 5.6-1.7 7.2 2.6 3.8 2.8 2.3 1 1.6 1.2 2.2 0.2 2.6-0.1 3.6-3.1 1.6-3.6-0.4-6.4 2 0.6 0.7-0.9 0.3-2.1 2-3.3 6.5 6.5 1.4 3.8 4.5 5.2z" data-id="SVN1000" data-name="Velike Lašče" name="Velike Lašče"/><path id="SVN1001" d="M558.1 205.1l10 4.2 2.1 0.1 2.6 0.8 1.7 0.8 0.2 3.1-0.1 3.8 4.6 2.6 3.5 12.8 1.1 3 0.5 3.8 0 1.7-3.1 6.6-4.7 1.1-7.4-5-3.9 0.2-2.6 1.3-2.1 2.4-2.7 4.9-3.9-2.8-2.5-4.4-4.8-3.3-1.9-3-4.7-2.4 1-9.3 4-6.6 1.7-6.3 0.5-12.2 0.9-3.5 2.1 0.1 4.2 1.4 3.7 4.1z" data-id="SVN1001" data-name="Velenje" name="Velenje"/><path id="SVN1002" d="M623.8 231.2l-20.1 0-11.1-12.6 6.8-9.9 4.1-10.7 2.1-2.7 2.4-1.6 5.3-1.5 8.5-0.6 3.9 2.5-0.1 1-3.1 2.1-0.7 1.8 0.2 2.7 4.7 8.2 2.7 2.4 2.2 1.6 0.9 2.4-0.6 4.2-0.8 2.4-7.3 8.3z" data-id="SVN1002" data-name="Vitanje" name="Vitanje"/><path id="SVN1003" d="M360.7 305.6l7.6 11.8 4.2 1.4-0.3 5.8-2.9 2.1-1.2 3-3.2 2.2-8.4 2.7-3.5 0.3-2.2-2.1-3.4-22.8 2.8-2.6-1.5-3.3 12 1.5z" data-id="SVN1003" data-name="Vodice" name="Vodice"/><path id="SVN1004" d="M317.9 414.1l-6.8 2-2 2.9-1.3 5.2 0.2 4.1 1 4 6.4 16.6 2 3.1 3.9 4.9-3.6 1.9-12.4-9.1-5.2-1.8-3.2 2.5-4.3-9.8-8-10-6.8-6.9-2.8-2-2.1-0.9-1.5 0.1-1.4-0.9-1.1-2.1 0.6-2.2 1.4-2.7-0.5-3.4 1.3-6.3 2.8-1.8 0.4-0.9-7.6-5.1-3-0.8-1.9-7.6 17 2 0.8 3.3-2.4 1.9 0.5 1.6 1.6 1.8 6.9 3.2 2.1 0.2 0.9-0.8-0.2-1.3 0.4-1.5 1.8-0.9 8.1-1.5 2.2-0.9 8.4-2.2 5.5-3.1 2.3-3.1 5.9-2.2 3.6 3.8 0.7 2.1-0.5 3.9-3.6 1.3-2.3 2.5-2.1 3.9 1 6.2-3.1 6.8z" data-id="SVN1004" data-name="Vrhnika" name="Vrhnika"/><path id="SVN1005" d="M582.1 155.7l-3.4 5.5-14.4-7.5-1.7-3.6-3.4-4.8-4.4-3.7-3.1-4.7 0.8-4.2-0.7-3.5 1.5-3.8 1.1-1.7 4.4-1.2 4.5 0.7 4.6-1.8 9.2-7.3 2.6 3.2 1.7 1.3 1.9 0.7 1.9 1.5 0.7 1.5 0 1.9-0.5 2.6-2.6 4.6-1.8 1.1-3.8 1.1 0.9 1.9 0.2 1.9-1.2 3.8-1.7 3-0.7 3.1-0.2 2.3 1.6 3.9 6 2.2z" data-id="SVN1005" data-name="Vuzenica" name="Vuzenica"/><path id="SVN1006" d="M509.7 307.9l9.2-0.5 4.1 7.7-2.7 2.3-3.7 1.8-2 2 0.5 1.1 2.3-1 1.2 0.3 4.6 5.5 4.3 7.2 1.3 4.1 0 2.4-2.9 3.1-2.3 1.2-1 0-3.7-1.1-7.5 3.1-2.5 1.6-2.9 3.5-2.5 1.7-1.4 0.5-5.1 1-3.9 0-2.3 0.5-2.5-1.3-3.5-6-0.2-2.1 0.8-3.6-0.1-1.5-1.1-1.4-2.7-0.7-13.5-0.1-1.4-3.4 1.5-2.1 0.3-3.4-3.8-5.2-1.1-2.6-2.2-1.3 0.6-1.4 20.8-2.5 2.2-0.9 2.9-5.3-0.9-8.1 3.5-0.9 1.7 4.2 4.7 3.5 2.3 0.9 10.6-2.8z" data-id="SVN1006" data-name="Zasavska" name="Zasavska"/><path id="SVN1007" d="M625.1 179.6l1.1 5.5 2.2 2.7 2.2 3.2 5 2.3 4.4 3.1 5.1 1.3 7.8 6.2-2 3.2-1.3 4.6-0.8 0.9 0 1.4 1.7 2.2 1.2 2.1-0.5 1.3-2.4 3.1-0.3 1.3 5.1 4.4-4.1 7.5-1.4 0-2-1-2.4-0.6-1.8 1-1.9 2.1-4.2 8.1-6-3.4-3.5-3.7-0.6-4.1-1.9-3.1 7.3-8.3 0.8-2.4 0.6-4.2-0.9-2.4-2.2-1.6-2.7-2.4-4.7-8.2-0.2-2.7 0.7-1.8 3.1-2.1 0.1-1-3.9-2.5 0.7-3.3-0.8-2.1-2.1-3.1-0.7-5.7 6.2 2.2z" data-id="SVN1007" data-name="Zrece" name="Zrece"/><path id="SVN1008" d="M242.6 212l-2.2 6.5 5.2 9.5 1.7 2.8 2.1 4.1 0.9 2.4-0.4 2.3-4.7 4.7-1.1 3-1.1 1.9-4.1 3.5-1.6 5.3-3 3.6-1.4-0.9-1.8-4.5-1.5-2.5-2.1-0.2-1.9 0.8-2.7 0.9-2.5 0.3-4.5-1.4-3-2.8-1.8-2.3-1.9-1.8-4.2-2.8-3.5-0.7-4.7-4.5-6.1-2.1-5.4-3.5-15.1-3.1-6.5 0.1-9.8-6.8 22.2-12.1 9.3-8.4 4.2-2.9 3.7-1.9 2.3-2.7 4.1-1.2 25.5 13.9 2.8 2.4 4.7 2.2 1.6 0.4 8.3-1.5z" data-id="SVN1008" data-name="Bled" name="Bled"/><path id="SVN1009" d="M153.9 223.8l9.8 6.8 6.5-0.1 15.1 3.1 5.4 3.5 6.1 2.1 4.7 4.5 3.5 0.7 4.2 2.8 1.9 1.8 1.8 2.3 3 2.8 4.5 1.4 2.5-0.3 2.7-0.9 1.9-0.8 2.1 0.2 1.5 2.5 1.8 4.5 1.4 0.9 3-3.6 15.4 1.7 1.6-0.6 2.2-0.3 1.1 0.6 1.6 2.3-0.4 6.7-3.9 1.3-10.6-1.2-3.7 0.4-3.5 0.8-2.3 3.3-1.3 3-1 7.1-0.8 2.5-2.6 1.2-17.8-2.8-6.2 1.6-3.9 3.3-32.4 4.3-4.5-0.1-4.7-0.7-14.2-4.6-15.9-9.3-10.8-11-3-7.2 4.7-11.1 2.3-4.3 4.7-4.5 20.2-11 4.4-6 1.9 0.4z" data-id="SVN1009" data-name="Bohinj" name="Bohinj"/><path id="SVN1010" d="M225.4 326.1l-14.5 25.8-1.1 4.1-0.8 4.8 0.5 1.5 2.1 2.7 0 3.2-3.4 1-3.2-0.3-3-1.2-5.6-4.1-5.5-4.9-1.4-0.2-1.1 3.6-2.4 2.4-1.3 2-3 0.2-1.5-1-1.1 0.2-0.3 2.5-0.9 2-3.1 0.1-1.9-0.4-4.1-2.6 3.8-2.6 0.3-1.4-0.5-3-0.8-2.6-0.7-4 0-3.6-0.6-3.6-3-5.4-1.3-4.4 0-2.5 1.2-3.6 1.2-2.9 4.1-4.3 5.4-3.3 10.9-3.5 9.9-7.4-0.3 3.9 0 2.5 1.7 1.2 2.9 1.1 12 1.1 8.5 2.7 1.9 4.2z" data-id="SVN1010" data-name="Cerkno" name="Cerkno"/><path id="SVN1011" d="M269 358.1l-0.3 6.7-0.8 3-0.3 3.1-6.3 10.2-6.6-5.6-2.2-2.2-4-5.1-1.9-1.7-3.4-1.5-25.2-5.5-3.6 0.8-1.8 0.8-1 3.9-2.1-2.7-0.5-1.5 0.8-4.8 1.1-4.1 14.5-25.8 6.6-4.3 1.1-1.3 20.3-4.1 3.7 0.5 3.9-0.8 5.8-0.4 2.8 0.8 1.9 1.8 1.2 2-2.6 5.3-2 1.9-1.5 2.8-1 3.6 1.4 1.4 0.5 1.5 0.2 2.1-1.3 2.1-0.9 2.6-0.1 4 0.3 3.9 2.3 2.5 1 4.1z" data-id="SVN1011" data-name="Gorenja vas-Poljane" name="Gorenja vas-Poljane"/><path id="SVN1012" d="M211.6 365l7.6 4.6 8.8 12.9 2.6 1.1 2.1 0.1 1.3 2.2 1.6 3.9 1.7 2.8 8.7 3.1-0.4 6.2-2.7 3.5-2.6 2.7-3.1 2.5-0.7 1.8 0.3 0.9 1.4 0.5 0.7 2.1-0.4 4.6-2 5.3-2.2 4.3-0.4 4 0.1 3.5 1.1 3.5 1.5 2.2 3.8 10.3-24.7-5.2-12.6-8.8-4-4.2-6.3-4.1-3-2.7-4.2-1.3-7.7-6.5-7.2-8.4-5.7-2.9-3.1-2.1-2-2.1-0.3-1.8-4.3-6.1 4.3-2.2 0.6-8.6-0.2-5.2 0.4-1.7 1.3-0.1 0.7-0.9-0.3-1.7-0.9-1.4-1.9-1.2-0.9-1.3-0.4-1.6 0.9-2 1.2-0.7 3 0.9 1.7-0.2 1.7-2.6 2.3 0.6 4.1 2.6 1.9 0.4 3.1-0.1 0.9-2 0.3-2.5 1.1-0.2 1.5 1 3-0.2 1.3-2 2.4-2.4 1.1-3.6 1.4 0.2 5.5 4.9 5.6 4.1 3 1.2 3.2 0.3 3.4-1 0-3.2z" data-id="SVN1012" data-name="Idrija" name="Idrija"/><path id="SVN1013" d="M334.3 266.2l-0.7 4.5-4.1 5.7-3.1 12-2.5 4.6-0.4 2.7 0.3 1.3 1.5 2.1 5.6 11.6 1.5 7.7 1 2-6.5 4.7-2.8-7.3-1.7-2.4-2.5-0.7-1.2 0.3-1.2-0.4-0.4-2.1 1.3-3.1-0.5-0.4-5 1.4-3.7-0.2-19.7-8.2-2-1.7 0-2.3 0.8-1.4 1.9-1.9 0.2-1.4-1.1-2-8.4-4.1-8.5-3.4-4.4-2.4-5-5.7-8.1-6 3.9-1.3 15.5 4.1 2 0.9 12.8-0.8 7.5 3 8.5 6.2 1.6-0.8 0.8-1.9 0.6-4.5-1.4-3.1-4.7-6.4-1.2-0.9-0.1-1.8 0.4-1.6 2.7-2.6 0.6-2.5 1.8-1.1-0.7-3.3 1.3-7.1 2.4-1.5 4-3.8 2.8-1.1 14.6-0.4-3.8 11.7-1.4 6.5-0.8 2.3-1.2 1.6-4.4-1.3-0.7 1.2 0.5 2.6 0.9 2.1 2.7 1.9 3.1-0.9 8.8 1.1z" data-id="SVN1013" data-name="Kranj" name="Kranj"/><path id="SVN1014" d="M206.8 177.2l-0.2 6.2-0.6 3.9-2.4 2.4-1.6 1.1-2.3 3.8-4.1 1.2-2.3 2.7-3.7 1.9-4.2 2.9-9.3 8.4-22.2 12.1-1.9-0.4-5.6-7.1-1-1.7-1.2-2.9-1.9-2.5-4-3.2-9.9-6-5.2-2.4-4-0.9-8.2 3.6-3.2 1-3.3 0.4-1.6-1.1 1.1-10.2-1.4-4.7 0.8-1.7 0.5-11.8 1.7-2.4 1.2-2.9 0.6-3.2 0-3.6 4.8 0.4 20.9 5.1 4.3-0.1 20.6-3.4 9.5 1.6 29 13.8 5.2 0.6 5.1-0.9z" data-id="SVN1014" data-name="Kranjska Gora" name="Kranjska Gora"/><path id="SVN1015" d="M305.5 251.3l0.7 3.3-1.8 1.1-0.6 2.5-2.7 2.6-0.4 1.6 0.1 1.8 1.2 0.9 4.7 6.4 1.4 3.1-0.6 4.5-0.8 1.9-1.6 0.8-8.5-6.2-7.5-3-2.2-7.1-0.5-3.1 0.3-13.3 7 1.7 1.9 1.3 1.8 0.3 8.1-1.1z" data-id="SVN1015" data-name="Naklo" name="Naklo"/><path id="SVN1016" d="M286.7 249.1l-0.3 13.3 0.5 3.1 2.2 7.1-12.8 0.8-2-0.9-15.5-4.1 0.4-6.7-1.6-2.3-1.1-0.6-2.2 0.3-1.6 0.6-15.4-1.7 1.6-5.3 4.1-3.5 1.1-1.9 1.1-3 4.7-4.7 0.4-2.3-0.9-2.4-2.1-4.1-1.7-2.8 7-4.4 2.9 0.3 3.7-0.4 3.3-2.3 1.3-3.1 1.7-4.7 4.6-6 2.7-2.2 4.8-1.6 4.6 5.4 0.8 10.7-2.1 16.9 0.5 2.7 0.9 1.4 1.6 1-0.6 2.2 1.2 3.3 2.2 1.9z" data-id="SVN1016" data-name="Radovljica" name="Radovljica"/><path id="SVN1017" d="M326.9 325.1l-3.1 1-2.1 3.6-2.7 1.4-3.7 0.8-6.2 5-2.2 3.5-0.9 3.8 0.8 2.4-1.7 6.9-18.3-3.8-11.2 3-6.6 5.4-1-4.1-2.3-2.5-0.3-3.9 0.1-4 0.9-2.6 1.3-2.1-0.2-2.1-0.5-1.5-1.4-1.4 1-3.6 1.5-2.8 2-1.9 2.6-5.3-1.2-2-1.9-1.8-2.8-0.8-5.8 0.4-3.9 0.8-3.7-0.5 2.5-4.3 6.7-2.3 2.5-2.4 5.4-2.6 3-1 1.6-1.8 1.5-8 2.4-2.5 1.9-4.3 8.4 4.1 1.1 2-0.2 1.4-1.9 1.9-0.8 1.4 0 2.3 2 1.7 19.7 8.2 3.7 0.2 5-1.4 0.5 0.4-1.3 3.1 0.4 2.1 1.2 0.4 1.2-0.3 2.5 0.7 1.7 2.4 2.8 7.3z" data-id="SVN1017" data-name="Škofja Loka" name="Škofja Loka"/><path id="SVN1018" d="M201.2 288.9l2.5 5.9 0 3-5 11.6-9.9 7.4-10.9 3.5-5.4 3.3-4.1 4.3-1.2 2.9-1.2 3.6 0 2.5 1.3 4.4 3 5.4 0.6 3.6 0 3.6 0.7 4 0.8 2.6 0.5 3-0.3 1.4-3.8 2.6-2.3-0.6-1.7 2.6-1.7 0.2-3-0.9-1.2 0.7-0.9 2 0.4 1.6 0.9 1.3 1.9 1.2 0.9 1.4 0.3 1.7-0.7 0.9-1.3 0.1-0.4 1.7 0.2 5.2-0.6 8.6-8.7-5.6-2.4-2.7-3.3-5-2.9-6.4-1.1-5.6-0.2-5.5 0.3-3.2-2.6-10.2-2.2-2.2-3.9-0.2-3.7 3.4-19.1-12.1-1.4-2.5-2.3-1.3-3.2-4.5-0.6-3.4-5.8-9.9-8.1 1.7-1.2-4.1-3.2-0.6 3.1-4.3-4.5-4.3-0.3-4.5 0.7-3.9 1.6-2.5 1.6-1.5 3 0.9 1.4-0.6 3.6-2.5 2.5-0.6 5.7-0.1 2.3-2.2 0.8-5.4 2.2-8.4 2.2-3.9 3.1-3.3 2.5-0.6 3.2-0.1 10.8 11 15.9 9.3 14.2 4.6 4.7 0.7 4.5 0.1 32.4-4.3z" data-id="SVN1018" data-name="Tolmin" name="Tolmin"/><path id="SVN1019" d="M340.6 206.5l-0.9 1.3-3.7 9-1.2 4.4-3.4 6.4 0.1 4.1-0.9 5.7-14.6 0.4-2.8 1.1-4 3.8-2.4 1.5-1.3 7.1-8.1 1.1-1.8-0.3-1.9-1.3-7-1.7-2.2-1.9-1.2-3.3 0.6-2.2-1.6-1-0.9-1.4-0.5-2.7 2.1-16.9-0.8-10.7-4.6-5.4 1.3-6 37.9 1.1 10.7-2.4 3.4 0.8 1.5 2.1 1 2.6 1.8 2.2 5.4 2.5z" data-id="SVN1019" data-name="Tržič" name="Tržič"/><path id="SVN1020" d="M254.9 269.7l8.1 6 5 5.7 4.4 2.4 8.5 3.4-1.9 4.3-2.4 2.5-1.5 8-1.6 1.8-3 1-5.4 2.6-2.5 2.4-6.7 2.3-2.5 4.3-20.3 4.1-1.1 1.3-6.6 4.3-1.9-4.2-8.5-2.7-12-1.1-2.9-1.1-1.7-1.2 0-2.5 0.3-3.9 5-11.6 0-3-2.5-5.9 3.9-3.3 6.2-1.6 17.8 2.8 2.6-1.2 0.8-2.5 1-7.1 1.3-3 2.3-3.3 3.5-0.8 3.7-0.4 10.6 1.2z" data-id="SVN1020" data-name="Železniki" name="Železniki"/><path id="SVN1021" d="M261.3 381.1l-5 8-10.3 6.6-8.7-3.1-1.7-2.8-1.6-3.9-1.3-2.2-2.1-0.1-2.6-1.1-8.8-12.9-7.6-4.6 1-3.9 1.8-0.8 3.6-0.8 25.2 5.5 3.4 1.5 1.9 1.7 4 5.1 2.2 2.2 6.6 5.6z" data-id="SVN1021" data-name="Žiri" name="Žiri"/><path id="SVN1022" d="M240.4 453.6l1.6 4.6-9.3 7.7-1.1 1.3-14.9 5.5-7.7-5.1-1.2-3.3-1-4.5-3.1-3.6-2.5-1.3-3.3-0.8-4.2 0.2-5.4 1.6-7.6 4.7-3.3 3.5-4.6 2.9-5 4-1.8 5.4-7.1 1.1-1.8-0.1-7.6-4.1-3.4-5.4-0.8-1.1-5-2.8-1.3-1.2-0.9-1.8-1-1.1-2.5-3.5-5.7-5.8-4.4-2.7-2.5-3.2-2.6-1.6-1.6-0.6-0.4-1.2 4.4-3.1 2.1-0.8 6.7-8 7.8-13.2 14.3-10.4 0-4.4 2.6-4 4.3 6.1 0.3 1.8 2 2.1 3.1 2.1 5.7 2.9 7.2 8.4 7.7 6.5 4.2 1.3 3 2.7 6.3 4.1 4 4.2 12.6 8.8 24.7 5.2z" data-id="SVN1022" data-name="Ajdovščina" name="Ajdovščina"/><path id="SVN1023" d="M152 223.4l-4.4 6-20.2 11-4.7 4.5-2.3 4.3-4.7 11.1-17.7 3.1-6.3-0.6-7-2-14.3 0.5-10.8-1.1-5.6 1.8-2 1.7 1 1.5 0.3 2.2-1 2.2-3.8 1.9-12.1-1.7-8.9-2.8-5.2-2.5-4.3-1.3-4.7-3.6-2.7-1.6 4.5-7.7 4.3-9.8 3.4-4.1 4.2-0.5 3.9-1.9 7.6-5.6 14.7-7.9 7.7-8.1 6.8-9.5 7.7-7.3 10.8-1.5 7.8 0.3 5.9-3.2 2.7-5.5 1.4 4.7-1.1 10.2 1.6 1.1 3.3-0.4 3.2-1 8.2-3.6 4 0.9 5.2 2.4 9.9 6 4 3.2 1.9 2.5 1.2 2.9 1 1.7 5.6 7.1z" data-id="SVN1023" data-name="Bovec" name="Bovec"/><path id="SVN1024" d="M76.6 392.5l7.1 7.4-4.8 2.5-3.3 3-9.2 2.2-10.2 4.9-9.5 0.7-8.6-9.9-0.9-1.8-1.5-1.2-4.1-4.9 4.8-4.4 1.7-1.1 2.4-3.2 0.9-3.2-0.8-2.9-2.5-2.7 7.2-9.7 5.5-4.2 3 2.3 4.5 1.8 3.3 3.5 1.8 4.3 2.8 4.9 5.1 4.8 5.3 6.9z" data-id="SVN1024" data-name="Brda" name="Brda"/><path id="SVN1025" d="M213.9 507.2l11.1 8 3 4.1 3.7 9.1-3.3 3.5-3.6 1.8-2.2 4.1-0.7 3.2 0.6 3.1 1.3 2.8 0.2 6.3 1.2 3 1.6 3.4 1.6 4.5-1.1 2.7 0.1 0.8 3.4 1.6-0.2 4.6-4 1.9-1.7 2.9-1.8 1.2-2.1 0.6-6.3-1.3-4.7-4.1-5.9-2.8-5.9-4.3-5.2-2.7-6.5-1.3-3.9-3 1.7-8.4-2.3-4.2 8.2-12.6 1.7-3.2-0.9-4-1.7-3.6-1.3-5.1 0.4-3.1 2.4-2 3.6-1.8 4.5-7.5 4.1-2.3 0.8-0.6 3.3 0.3 6.8 4.4z" data-id="SVN1025" data-name="Divaca" name="Divaca"/><path id="SVN1026" d="M182.6 560.9l3.9 3 6.5 1.3 5.2 2.7 5.9 4.3 5.9 2.8 4.7 4.1 6.3 1.3 2.1-0.6 1.8-1.2 1.7-2.9 4-1.9 4.6 4.3-0.7 1.5-1 3.3-1.7 3.4-1.3 5.4 0.3 2 1 1.3 1.8-0.6 2 1.2-1 7.1-2.6 8.7-2.3 5.9 0.7 1.3 5.8 4.7 1.4 1.6 2 4.3-0.1 5.5-0.4 3-7.6-0.4-8.3-2.9-7.9-5.8-4.2-4.3-4.6-2.4-8.4-1.8-1.1-3.5-10-11.9-13.3-2.8-5-3.5-3.1-3.6-1.5-2.1-3-11.3-0.8-2.2 6-7.5 2.4-5.9-0.3-0.9 4.8-4.5 9.4 0.5z" data-id="SVN1026" data-name="Hrpelje-Kozina" name="Hrpelje-Kozina"/><path id="SVN1027" d="M95.3 622.3l-1.7 6.7-3.5 1.8-1.5-0.6-0.7-1.6-1.9-3-1.6-1.1-2-2.1-1-4-0.1-2.7-2.3-5.4-0.2-2 20.4-3.1-0.3 10.9-3.6 6.2z" data-id="SVN1027" data-name="Izola" name="Izola"/><path id="SVN1028" d="M128.9 352l-0.7 9-1.9 2.8-2.9 5.1-3.8 2.9-2.4 0.1-8.5-3.6-7.5-0.5-4.7 2.5-3.7 3.1-7 10.8-2.4 1.7-0.2 1.7 4.3 5.9 1.7 2.7-1 1.2-1.2 0.4-1.3-0.1-2.3-2.3-3.2-2.4-3.6-0.5-5.3-6.9-5.1-4.8-2.8-4.9-1.8-4.3-3.3-3.5-4.5-1.8-3-2.3 29.8-22.8 9-16.7-1.2-4.5 8.1-1.7 5.8 9.9 0.6 3.4 3.2 4.5 2.3 1.3 1.4 2.5 19.1 12.1z" data-id="SVN1028" data-name="Kanal" name="Kanal"/><path id="SVN1029" d="M115.7 260.3l3 7.2-3.2 0.1-2.5 0.6-3.1 3.3-2.2 3.9-2.2 8.4-0.8 5.4-2.3 2.2-5.7 0.1-2.5 0.6-3.6 2.5-1.4 0.6-3-0.9-1.6 1.5-1.6 2.5-0.7 3.9 0.3 4.5 4.5 4.3-3.1 4.3-4.2-0.8-9.3 1-8.1-1.3-9.5-9.5-6-4.2-8.8-1.8-4.5-2.5-9.4-0.7-5-1.7 4.7 8.1-8.7 1.4-2.7-4-1.1-6.3-4.2-5.9-2-11.5-1.7-5.5-2.5-4.6 8.3-5.1 1.3-2.4 2.7 1.6 4.7 3.6 4.3 1.3 5.2 2.5 8.9 2.8 12.1 1.7 3.8-1.9 1-2.2-0.3-2.2-1-1.5 2-1.7 5.6-1.8 10.8 1.1 14.3-0.5 7 2 6.3 0.6 17.7-3.1z" data-id="SVN1029" data-name="Kobarid" name="Kobarid"/><path id="SVN1030" d="M149.5 473.3l7.6 4.1 1.8 0.1 7.1-1.1 5.2 8.4-15.8 4.8-31.5 4-6.8-0.2-1.9 0.7-6.3 4.6-1.9 4.2-12.5-9.8-5.3-1.7-10.9-1.3-8.9-4.9-2.2-4.4 5.6-1 18.1 0.5 6.7-1.1 3.8-4.2 3.7-2.1 2.2-3 1.8-1.6 0.9-8.4 16.8 9.3 5.5 1.6 6.8 0 3.4-0.5 7 3z" data-id="SVN1030" data-name="Komen" name="Komen"/><path id="SVN1031" d="M198.1 620.1l-4.9-1-2.2 1.4-1.1 3.2 0 4.9 6.7 8.1-4.1 5.5-14.8 6.4-4.6 4.5-2.8 4.4-3.4 2.5-16.9-2.5-5-1.6-4.2-4.3-15-9.5-31.4 1.5 0.4-3 3-2.1 2.2-5.3 3.5-3.6 1.4-2-1.1-1.9-8.5-3.4 3.6-6.2 0.3-10.9 24.6-3.6 0-2.8-3.3-4.9-9.7-10.6 15.6-1.4 12.5 6.8 15-1.5 6.4-8 0.8 2.2 3 11.3 1.5 2.1 3.1 3.6 5 3.5 13.3 2.8 10 11.9 1.1 3.5z" data-id="SVN1031" data-name="Koper" name="Koper"/><path id="SVN1032" d="M90.2 445.2l-2.3 2.1-4.4 0.7-1.6 0.9-0.1 1.4 2.8 3.2 3.2 2.1 8.3 2.9 4.4-0.2 9.5 1.6-0.9 8.4-1.8 1.6-2.2 3-3.7 2.1-3.8 4.2-6.7 1.1-18.1-0.5-5.6 1-2.6-5.1 1-15.6 9.6-21.8 4.5 3.8 10.5 3.1z" data-id="SVN1032" data-name="Miren-Kostanjevica" name="Miren-Kostanjevica"/><path id="SVN1033" d="M78.8 608.3l0.2 2 2.3 5.4 0.1 2.7 1 4 2 2.1 1.6 1.1 1.9 3 0.7 1.6 1.5 0.6 3.5-1.8 1.7-6.7 8.5 3.4 1.1 1.9-1.4 2-3.5 3.6-2.2 5.3-3 2.1-0.4 3-9.8 0.4-12.5-13.5 0.6-1.9-0.8-3.8 2.2-4.7 0-2.8-3.1-0.6-2.4-1.8-1.9-3-1.3-4.2 6.7 1.6 6.7-1z" data-id="SVN1033" data-name="Piran" name="Piran"/><path id="SVN1034" d="M198.9 505.4l-4.5 7.5-3.6 1.8-2.4 2-0.4 3.1 1.3 5.1 1.7 3.6 0.9 4-1.7 3.2-8.2 12.6 2.3 4.2-1.7 8.4-9.4-0.5-4.8 4.5-0.2-0.4-2.8-0.2-4.8-2.7-3.4-3.7-25.2-42.7-21.9-10-3.1-2.3 1.9-4.2 6.3-4.6 1.9-0.7 6.8 0.2 31.5-4 15.8-4.8 9.2 7.7 16.5 9.3 2 3.6z" data-id="SVN1034" data-name="Sežana" name="Sežana"/><path id="SVN1035" d="M216.7 472.7l4 12.8-2.1 5.3-1 8.6-1.7 2.4-2 5.4-6.8-4.4-3.3-0.3-0.8 0.6-4.1 2.3-2-3.6-16.5-9.3-9.2-7.7-5.2-8.4 1.8-5.4 5-4 4.6-2.9 3.3-3.5 7.6-4.7 5.4-1.6 4.2-0.2 3.3 0.8 2.5 1.3 3.1 3.6 1 4.5 1.2 3.3 7.7 5.1z" data-id="SVN1035" data-name="Vipava" name="Vipava"/><path id="SVN1039" d="M930.1 101l-3.7 3 0.1 2.4-1 3.9 4.7 4.5 0.8 9.5-8.4-0.5-2.5 2.5-1.4 1.8-0.8 2.6 0.8 3.3 1.3 3.3-5.8 7.1-9.8-14-4.2-3.6-13.5-6.4 6.9-4.4 3.1-4.8 4.1-1.7 11.2-11.2 8.8 1 2.5-2.7 2.3 0.6 4.5 3.8z" data-id="SVN1039" data-name="Beltinci" name="Beltinci"/><path id="SVN1040" d="M844 200.3l-4.5-1.2-5.2 2.8-1.3 1.5-2.6 4.1-12.7-1.8 3.2-14 7.6 2.2 6.2-5.7 2.3-3.7 1.4-3.3 4-7.8 6 10.2-0.3 8.9-4.1 7.8z" data-id="SVN1040" data-name="Dornava" name="Dornava"/><path id="SVN1041" d="M844 200.3l7.8 3.4 4.8 9.6 3.1 9-6.5-1.6-4.6 3.8-2.9 7.2 0 2.6 1 2 1.1 1.2 0.8 2.6 0.7 5.3 2.3 8-3.5 3.8-6.3 4.4-6.6 3.4-1.5 0.4-1.4-2.2-4.4-14.8 0.3-3.6-1.6-5.1-1.2-1.2 0.6-5.8 2.6-0.2 2.6-0.9 1-0.7 3-3.3-0.5-3.8-2.5-5.8-0.3-4-1.5-6.5 2.6-4.1 1.3-1.5 5.2-2.8 4.5 1.2z" data-id="SVN1041" data-name="Gorišnica" name="Gorišnica"/><path id="SVN1042" d="M842.2 164l-2 1.7 2.2 7.7-4 7.8-1.4 3.3-2.3 3.7-6.2 5.7-7.6-2.2-3.1-4.1 0.3-9.5 0.9-3 0.8-6.7 1.6-2 2.4-2.3 2.9-1.4 3.7-2.4 7.7-2.4 4.1 6.1z" data-id="SVN1042" data-name="Juršinci" name="Juršinci"/><path id="SVN1043" d="M963.3 93.9l-3.2-0.5-6.1-2.7-3-2.2-2.4-4.5 2.9-5.6 1.9 0.8 5.9 0.4 4.8 3.2 1.7 8.7-2.5 2.4z" data-id="SVN1043" data-name="Kobilje" name="Kobilje"/><path id="SVN1044" d="M930.6 40.1l-0.4 1.7 0.7 1.8 4.4 13.3 3.6 4.6 2.7 5.3 2.9 3.5 4.4-0.7 0.1 7.8 2.5 1-2.9 5.6-4.9-2-2.1 2.4-2.1 3.5-3.2 7.1-1 7.2-5.2-1.2-4.5-3.8-2.3-0.6-2.5 2.7-8.8-1-4.7-0.8-7.1-3.7-1.7-1.6-1.9-2.4-0.1-3.4-4.1-8.4-1-9.7 2.7-3.9 1.9-0.1 6.5-8.2 2.3 0.3 1.8-1.2 2.7-4.7 2.7-2.4 5.4-8.2 10.4 1.3 2.8-1.1z" data-id="SVN1044" data-name="Moravske Toplice" name="Moravske Toplice"/><path id="SVN1045" d="M912 98.3l-11.2 11.2-4.1 1.7-3.1 4.8-6.9 4.4-12.8-6.1-3.2-2.2 3.2-6.1 0.8-3.2-1.4-3.1-1.4-2.7-1.8-2.3-1.3-4.7-0.4-2.4 1.7-6.3 11.4-0.6 2.2 0.8 8.7-3.5 4.1 8.4 0.1 3.4 1.9 2.4 1.7 1.6 7.1 3.7 4.7 0.8z" data-id="SVN1045" data-name="Murska Sobota" name="Murska Sobota"/><path id="SVN1046" d="M931 124.3l-0.3 3.6-4 5.2-2.4 0.8-4.3 3.4-1.3-3.3-0.8-3.3 0.8-2.6 1.4-1.8 2.5-2.5 8.4 0.5z" data-id="SVN1046" data-name="Odranci" name="Odranci"/><path id="SVN1047" d="M909.9 176.1l-0.1 2.9 1.2 6.2 3.7 12.7 0.3 3.7-0.6 7.4 0.8 3.9 2 2.3 5.4 3.6 1.4 2.2 0.5 5.1-1.4 1.4-7.3-0.1-11.3 2.8-2.7 0.1-5.3-1.2-4.5-2.7-7.6-7.3-3.1-1.5-3.9 0.8-2.6 2.8-2.5 3.5-3 2.5-3.7 0.7-1.8-0.4-4.1-5.2-3.1-9-4.8-9.6-7.8-3.4 4.1-7.8 0.3-8.9-6-10.2-2.2-7.7 2-1.7 9.9 2.3 5.1 2.1 14.6 2.7 7.2 3 3.5 0.4 1.6-0.6 0.9-1.6 4.8-1.2 4 3 2.7 2.4 3.2 4.9 1.5 0 1.2-1.3 2 0.8 1.6-0.4 1.7-2.7 2.2-1.7z" data-id="SVN1047" data-name="Ormož" name="Ormož"/><path id="SVN1048" d="M860.9 126.2l3.5 10.9-0.4 2.5-3.6 10.3-10.2-1.6-3.6 2.8-1.9 2.7-0.4 1.1 0.4 1.2-0.5 3.1-2 4.8-4.1-6.1-6.6-10.2-5.7-9 3.1-9.2 11.2-3.5 4.3 1.9 3-3.2 3.8-4.5 2.2 0.2 1.7 1.7 1.6 5.2 1.1 1.6 0.8-0.3 2.3-2.4z" data-id="SVN1048" data-name="Sveti Jurij" name="Sveti Jurij"/><path id="SVN1049" d="M935.3 102.2l10.7 13.8 9.6 7.2-4.6 1.1-4.7-1.5-2.7 0.6-1.5 1-0.2 1.5-2.1 4.6-8.8-6.2-0.8-9.5-4.7-4.5 1-3.9-0.1-2.4 3.7-3 5.2 1.2z" data-id="SVN1049" data-name="Turnišče" name="Turnišče"/><path id="SVN1050" d="M859.7 222.3l4.1 5.2-9.7-2-0.2 8.2 0.8 6.6-0.1 6-2.3 6.3-0.7 0.8-2.3-8-0.7-5.3-0.8-2.6-1.1-1.2-1-2 0-2.6 2.9-7.2 4.6-3.8 6.5 1.6z" data-id="SVN1050" data-name="Zavrc" name="Zavrc"/><path id="SVN196" d="M930 8.8l0.1 1.3 1.7 4 0 6.2-0.6 2.6-1.7 3 0.7 2.9 4.1 3-2.8 4.8-0.9 3.5-2.8 1.1-10.4-1.3 0.8-3.6 0.9-1.7 1.1-4.9-0.4-3.5-2.1-3.9-4.5-4.5-5.3-3.1-15.3-11.2 29.3-2.5 3.3 1.9 4.8 5.9z" data-id="SVN196" data-name="Šalovci" name="Šalovci"/><path id="SVN197" d="M877 4.4l-2.3 6.1 0.7 4.8-8.3 0.5-2.2 0.8-4.5 3.6-1.7 1.7-5.2 1.3-1-13.9 13-7.7 11.5 2.8z" data-id="SVN197" data-name="Kuzma" name="Kuzma"/><path id="SVN198" d="M828.9 129.5l-3.1 9.2 5.7 9-8.7 6.1-1.6 0.2-2.1-0.2-0.7-1.2-5.3-2.7-2.8-10.8 2.1-3.8 3.7-2.8 1.7-0.7 4-3.3 7.1 1z" data-id="SVN198" data-name="Cerkvenjak" name="Cerkvenjak"/><path id="SVN199" d="M814.6 124.7l-2.3 2.5-3.4 2.4-3.2 0.4-0.9 0.7-1.3-0.4-1.6-1.8-5.6-8.2-4-2.3 0.9-5.7 2.9-6 4.2-4.4 6.7 2.8 2.9-0.1 1.4-0.3 2.6 1.1-0.8 2.2-4.8 4.4 0.1 2.5 0.8 3.6 5.4 6.6z" data-id="SVN199" data-name="Benedikt" name="Benedikt"/><path id="SVN200" d="M800.4 94.1l-0.1 7.8-4.2 4.4-2.9 6-0.9 5.7-1.9 1.7-1.6-0.1-2.2-0.8-3.3-2.6-1.6-1.9-0.3-3.9-1.6-5.9-1.6-2.4-5.8-0.7-1.8-3.6-0.6-2.8 0.1-2.2 2-2.3 0.3-2.6 1.2-2.9 0.2-8 4.4 1.7 2.8 4.5 10 6.8 5.7 1.5 3.7 2.6z" data-id="SVN200" data-name="Sveta Ana" name="Sveta Ana"/><path id="SVN201" d="M934.3 31.8l-4.1-3-0.7-2.9 1.7-3 0.6-2.6 0-6.2-1.7-4-0.1-1.3 1.4 1.8 2.8 1.5 4.6 0.3 1.4 2.3-0.7 4.1-1.8 5.7-2.2 5.2-1.2 2.1z" data-id="SVN201" data-name="Hodoš" name="Hodoš"/><path id="SVN202" d="M879 17l-3.1 19.4-4.7 9.3-2.1 1.7-2.5 0.8-1.9-0.8-2.8-0.5-6 0.3-3.6-2.7-0.2-2.6 1.4-18.7 5.2-1.3 1.7-1.7 4.5-3.6 2.2-0.8 8.3-0.5 3.6 1.7z" data-id="SVN202" data-name="Grad" name="Grad"/><path id="SVN203" d="M813.1 167.3l5.9 7.8-0.9 3-6.9 4.4-4.5 4.9-0.9 1.8-1.6 1.3-2.4 0.6-2.5-0.6-4.8-2.9-7.7-10.5-7-5.6 9.8-5.2 4.1 2.8 6.5 0.1 12.9-1.9z" data-id="SVN203" data-name="Destrnik" name="Destrnik"/><path id="SVN204" d="M305.1 353.5l2.5 3.5 1.6 1.6 3.9 1.7 6.8-3.1 11.6 3.3 2.1 0.1 1.8 0.7 1.1 1.3 2.6 7 0.7 1.1 1.7 4.7 0.3 4.3-0.4 3.3-3.4 2.1-5.2-2.7-1.7-0.4-6.9 1.6-5.9 2.2-2.3 3.1-5.5 3.1 0.7-3.6-0.4-3.3-1.9-3.9-2-1.4-2.4-0.9-12.9-1.3-8 1.9-1.5 0.7-2.9 3.8 0.2 5.1-17-2 0.8-4.6-1.9-1.4 6.3-10.2 0.3-3.1 0.8-3 0.3-6.7 6.6-5.4 11.2-3 18.3 3.8z" data-id="SVN204" data-name="Dobrova-Polhov Gradec" name="Dobrova-Polhov Gradec"/><path id="SVN205" d="M418.5 307.3l-6.2 6.2-3.5 7-0.6 2.6 0.3 1.5 2.2 1 1.9 2.5 3.7 1.4 2.5 3.1-3 2.3 0.2 2.8 2.6 2.1 1.9 1.2-0.7 3.8-6.6-0.2-4.2 2.1-7.6 5-3.7 1.7-7.3 0.8-0.7-4-7.2-1.1 0.5-7.6 1.5-4.6 4.5-6-2-13.2 2.1-5.8 6.1 0.3 7.1-4 2.3-2.3 2-1.1 2-0.7 1.9-0.2 8 3.4z" data-id="SVN205" data-name="Domžale" name="Domžale"/><path id="SVN206" d="M404.8 230.6l2.2 15 7.6 10.6 1.9 5.1 1.1 4.1 1.7 1.9 6.4-0.2-0.6 7.9 3.2 3 12.4 4 11.3 0.6 7.1-0.6 13.8 0.7 9.6 5.7 14.3 9.9-6.4 3.8-3.5 0.9-35.8 4-5.1 1.8-6.7 0-4.3-0.8-6.1-2.1-10.4 1.4-8-3.4-1.9 0.2-2 0.7-2 1.1-2.3 2.3-7.1 4-6.1-0.3-3.3-1.5 0.9-2.6-4-7.7-1.5-6-4-7 3.6-1.8 1.4-2.9 0.5-3.6-3.6-6-1.7-1.9-0.9-4.9-2.1-4.3 0.1-6.1 2.8-4.3-2.7-7 0.7-4.4-0.4-3-3-3.5 10.4-3.9 8.5 3.4 4.5-0.3 9.5-2z" data-id="SVN206" data-name="Kamnik" name="Kamnik"/><path id="SVN207" d="M513.2 504.8l0.5 7.8-1.1 3.5-2.6 13.5 1.5 4 1.4 2.8 6 6.7 6.4 7.7 1.4 7.9 4.1 7.3 6 11.1 5.4 2.2 2.1 5.5-0.3 2.7 1.4 4.2 0 5 1.7 2.3 3.7 3.6 0 2-1.1 0.6-2.2-0.7-2.6 1.8-2.8 3.7-1.1 5.2 1.1 2.6 2.1 1.1 3.4-0.9 3.5-1.3 3.6-0.4 2.5 1.7 0.1 2.2-1 1.3-4.5 1.1-3.5 1.8-1.9 1.5-3.8 4.6-2.7 6.8-3.2-2.7-15.4-0.4-3.2-2.9-3.5-1.7-2.9-0.4-3.8-8.9-6.8-6.3-1.9-0.4-2.5 0.4-5.1 1.5-3.8 0.3-5.2-1.2-4.8-2.8-1.8-0.4-2 0.6-3.1 2.6-0.8 1.7-0.8 3-1.5 4.2-1 1.2-1.4 0.9-4.4-0.7-6.8-8-12.5-11.8-5.4-3.9-2-3.6-0.4-1.7 0.5-0.8 0.1-2.1-1.1-1.8-2-9.6-4.1-14.1 5-4.4 1.6-4.2 7.3 3.4 5.1-1 2.2-3.1 3.3-6.7 0.4-4.9 10.4-24.4-8.4-6.9 5.7-6.6 4.2 0 2.8-1.3 3.4 0.4 5 1.8 2.3 1.6 2.4 3.7 5.9-0.5 9.7-10.9 4.1-1.1 13.5 2.4z" data-id="SVN207" data-name="Kocevje" name="Kocevje"/><path id="SVN208" d="M772.4 101.4l5.8 0.7 1.6 2.4 1.6 5.9 0.3 3.9 1.6 1.9 3.3 2.6 2.2 0.8 1.6 0.1 1.9-1.7 4 2.3 5.6 8.2 1.6 1.8 1.3 0.4 0.9-0.7 3.2-0.4 3.4-2.4 2.3-2.5 7.2 3.8-4 3.3-1.7 0.7-3.7 2.8-2.1 3.8 2.8 10.8-1.4 3.4-10.1-5.5-2.5 1.9-3.6 2-1.7 1.9-1.8 3.8-0.6 2.6-1 1.9-0.8 4.4-9.8 5.2-2.3-1.1-1.8-4.1 1.2-2.7 1.1-1.3-0.8-2.4-1.9-2.4-5.8-4.3-0.7-1.4-0.3-1.9-0.9-1.4-1.3-1-1.7-0.4-2 0.4-4.9 0 4.9-5.7-1.1-0.9-0.6-1.7-2.9-3.8 1.7-6.8-0.7-6.8 0.9-5.6 3.2-8.9 0.8-4.2 1.6-2.3 6.9 0.6z" data-id="SVN208" data-name="Lenart" name="Lenart"/><path id="SVN209" d="M372.4 519.3l6.1 19.1 0.6 5 3 6.6 0.3 1.1-1.6 0.7-2.5 2.7-4 9.2-3.3 4.9-8 9-2.9 4.4-2 5.7-0.3 2-1-0.5-2.4 0.2-2.1-0.3-1.9 0.7-2.4-0.6-3.5 0.2-3.3-0.4-0.3-1.1 1.7-2.1 0.1-3.1-0.8-2.5-4.2-3.9-1.9-3.7 0.2-3.2 1.1-9.1-0.1-8-2.9-4.1-7.4-8.5-2.3-8.2 7.8-1.2 21.5-17.1 9.4 7.6 5.4 1 1.4-0.6 2.5-1.9z" data-id="SVN209" data-name="Loška dolina" name="Loška dolina"/><path id="SVN210" d="M456.9 203.6l0.4 7.5 1.1 4.5-0.7 4.9-8.2 22.9-15.7 12.8-8.1 10.9-6.4 0.2-1.7-1.9-1.1-4.1-1.9-5.1-7.6-10.6-2.2-15 9.4 0.8 18.1-8.6 3.5-2.6 1.7-1.8-1-2.6 0.1-3.9 4.6-6.6 4.8-4.5 1.8-0.3 9.1 3.1z" data-id="SVN210" data-name="Luce" name="Luce"/><path id="SVN211" d="M773.2 235.9l2 4.6 0.9 1.1 0.5 1.6-3.9 8.4-8.9 10.5-3.5 5.5-1.3 10.9-5.2-1.8-11.9 0.8-6-4.5 8.5-10.5 2.5-6.6 0.5-6.4 0.1-5.3-1.7-3.3-2.3-1.2-5.9-1-3.1-3.6-0.9-2.5 1-2.6 28 2 4.8 1 5.8 2.9z" data-id="SVN211" data-name="Majšperk" name="Majšperk"/><path id="SVN212" d="M615.2 460.1l-7.3 4-1.4 2.4-1.6 3.9 0.8 5.4 1.7 4.4 5.7 5.9 7.4 11.3 3.1 12.3 0.2 1.3-8.6 2.9-12.8 7.2-2.7 3.1-1.6 4.4-6.9 5-11.8 8.3-2 0.6-4.1 0.4-4.9-0.4-9.5 0.6-7.4-1.2 0.9-3.7 4-2.7 1.1-1.7 0.7-2-0.9-2.2-2.2-3.1-10.6-11.7-0.4-2.2-1.1-2.4-4.2-6.4-1.5-5.7 8.9-11.4 3.2-1.9 1.6-2.3 2.5-0.7 1.1-1.6 1.8-4 0.6-3.1-0.5-3 0.5-0.6 1.6 0 1.1-0.5 2.1-1.9 3-11 12.6 2.7 3.8-1.1 4.2-1.8 2.5-2.7 3.5-7.3-0.6-4.1 0.2-2 3.5-6.9 9.5 7.9 2.9 1.4 3.4 2.4 3.1 3.7 1.6 2.3 0.9 1.9-1.4 2.9 0.7 4.7z" data-id="SVN212" data-name="Novo Mesto" name="Novo Mesto"/><path id="SVN213" d="M717.4 309.1l-1.1 1.6-5.9 11.3-4.6 13 0 11.5 4.4 10.3 6.3 6.7-5.1 4.8-2.7-1.5-1.2-4.4 0.3-1.7 1-1.6-4.7-10.3-2.8-1.6-5.3-4.6-3.9-0.8-3.4-3 3-11.3 7-4.4 3.6-6.7 10.9-11.4 4.2 4.1z" data-id="SVN213" data-name="Bistrica ob Sotli" name="Bistrica ob Sotli"/><path id="SVN214" d="M656.9 110.5l1.8 3.5-0.5 4.6-1 3.4-0.5 2.5 0 2.1 1.8 0.9 0.9 2.6-2.4 4.6-3.3-0.2-5.7-3.8-6.1-2-3.8-0.4-1.5 0.6-0.8 1.6 0.1 3.9-0.8 3-5.8 8.1-2.9 7.8-3.2 4.5-2 6.5-1.8-7.8 0.1-2.1 1-2.5-1-1.4-4.9-2.8-2.7-4.8-7.3-7.2 4.4-12 4.3-4.2 2.1-0.7 5.2-2.5 2.6-2.1 1.1-7.3 0.1-3.9 17.5-1 9.3 3.6 5.7 4.9z" data-id="SVN214" data-name="Podvelka" name="Podvelka"/><path id="SVN215" d="M371.9 233.4l3 3.5 0.4 3-0.7 4.4 2.7 7-2.8 4.3-9.1 5.6-4.6 1.4-5.4 0.2-5.3 2.1-15.8 1.3-8.8-1.1-3.1 0.9-2.7-1.9-0.9-2.1-0.5-2.6 0.7-1.2 4.4 1.3 1.2-1.6 0.8-2.3 1.4-6.5 3.8-11.7 6.8 0.5 2.2-2.2 2.1-4.3 1.3-0.8 3.1-0.2 4.7 1.2 21.1 1.8z" data-id="SVN215" data-name="Preddvor" name="Preddvor"/><path id="SVN216" d="M779.8 171.5l7 5.6 7.7 10.5 4.8 2.9 2.5 0.6 2.4-0.6 1.6-1.3 0.9-1.8 4.5-4.9 6.9-4.4-0.3 9.5 3.1 4.1-3.2 14-0.1 2.9-2.3 3.2-10 6.3-2.4-1.5-8.5 5.9 0.5-2.5-0.6-0.9-1.8-0.9-1.8-2 0.4-1.2-0.1-2.8 0.3-2.2-0.4-1.7-3.5-7.2-9.1-11.1-4.4-5.6-2.8-1.1-4.6 0.7 4.2-5.6 3.7-2.5 3.1-5.5 2.3 1.1z" data-id="SVN216" data-name="Ptuj" name="Ptuj"/><path id="SVN217" d="M522.2 145.9l-2.1 8.6-0.5 8.1-1.2 3.9-2 3.3-1.7 1.3-6.7 2.9-7-0.6-0.9-0.7-5.2-5.7 7.5-7.7 0.9-4.2-1.1-1.7-0.3-4.9 0.1-5.7-0.4-2.5-0.9-1.5-2.5-0.6-0.9-1-1.6-2.9-1.2-3.1-1.2-1.9-3.3-3.1-1.7 0.1-0.8-0.7-2.1-4.9 1.1-0.2 6.9-4.4 0.2 0.7 7.4 5.9 5.3 0.5 1.9 1.3 1.5 2.4 3.5 4.5 5 4.1 3.1 1.9 2.1 4.5-1.2 4z" data-id="SVN217" data-name="Ravne na Koroškem" name="Ravne na Koroškem"/><path id="SVN218" d="M454.2 515.3l8.4 6.9-10.4 24.4-0.4 4.9-3.3 6.7-2.2 3.1-5.1 1-7.3-3.4 1.1-2.3 0-3.3-1.2-3.6-3.4-1.1-4-2.6-10-3.5-2.9-2.8-6.6-8.2 3.5-3.2 2-3.9 4.3-12.5 0.2-4.1-0.9-3.6-3.8-2-6.1-1.2-6.5-2.2-4.5-1.1-3-1.7-4-3.6 12.9-2.2 8.5-3.1 5-4.1 5.5-1.7 34.2 34z" data-id="SVN218" data-name="Ribnica" name="Ribnica"/><path id="SVN219" d="M697.5 164.6l-7.7 5.8-12.3-0.9-29.3 9.9 2.3-10 8-8.7 2.7-6.1 0.5-2.8-0.2-1.9 3-3.8-0.4 5.3 7.8 1.9 4.2-1.5 20.4-11.3-3.2 20.4 4.2 3.7z" data-id="SVN219" data-name="Ruše" name="Ruše"/><path id="SVN220" d="M686.8 271.8l-1.8 2.1-1 1.5-1.9 1.7-3.9 5-4.7 3.2-3.7 1.7-5.5 4-3.5 4-0.2 2.1 0.9 3.8 2.6 6.8 5.7 8.8 0.7 2.6 1.6 3.4 2.4 2.4 4.5 1.7 3.6-1.1 3.1-0.3 1.8-0.6 4.2 2.9-3 11.3-5.7 4-3.3 4.2-2.6 1.4-2.4-0.5-1.2-0.7-2-0.3-1 2.1-0.6 2.7 3.2 6.6 1.9 9.2-23.5 2-15.8-4.1 2.8-5.3 0.8-2.5-0.3-3.9 1.2-4.8 2.3 0.4 2.6-1 2.4-2.6 2.6-2.2 0.9-2.2 1-0.3 2.2 2.4 1.5 0.9 1.2 0.1 0.6-0.7 0.9-4.1-0.5-1.4-1.2-1.5-2.9-1.8-1.2-1.1-2.7-3.6-0.5-1.3-2.7-0.1-10.3 7.5-1.2-6.3 2-3.9 0.5-4.4-3.7-6.2 0.3-11.6 0.7-2.9-1.5-4.3-7-3.1 1.3-5.8 2.5-2.3 1.5-1.9 0.7-4.4 1.7-9 1.8-1 2.7-3.4 0.6-2.2-1.1-1.9-0.9-0.8 0.9-5 6.2 4.3 32.9 10 2-0.3 1.8-1 5.7 2.9z" data-id="SVN220" data-name="Šentjur pri Celju" name="Šentjur pri Celju"/><path id="SVN221" d="M689.8 170.4l2 6.5 0.7 4 2.9 2.7 26.3 15.7 0.5 1.6 3.7 1.2 4.5 2.2 6.3 6.9-3.2 2.9 0.6 1 1.9 1.6-0.5 1.9 0.6 2.4-1 3.4-1.4 2.1 0.9 3.5-1 2.6 0.9 2.5 3.1 3.6 5.9 1 2.3 1.2 1.7 3.3-0.1 5.3-0.5 6.4-2.5 6.6-8.5 10.5-10.1 0.2-14-4.7-6.6-0.1-3.5 1.1-1.8 1.1-1.7 2.6-4.2-1.9 1.7-7.2-0.9-7-2.3-11.5-2.2-5-2.7-2.4-2.5-0.3-6.8-4.1-1.9-5.6-0.9-4.2 0.5-4.2-0.3-1.2-1.5-1.1-4.5-1.3-3.9 0.4-1.9-1.4-1-2.6-1-1.9-3.3-4.2-5.7-2.6-7.8-6.2-5.1-1.3-4.4-3.1-5-2.3-2.2-3.2-2.2-2.7-1.1-5.5 7.6-1.3 1.5 0.9 4.1 4 1.4 0.3 1.9-0.7 1.1-0.8 5.5-2.6 29.3-9.9 12.3 0.9z" data-id="SVN221" data-name="Slovenska Bistrica" name="Slovenska Bistrica"/><path id="SVN222" d="M805.3 218.1l7.8 3.1 2.1 1.6 2.3 6.4 2.8 1.7 5.7 1.8-0.6 5.8 1.2 1.2 1.6 5.1-0.3 3.6 4.4 14.8 1.4 2.2-3.7 1-10.5 1.9-9.5 5.3-0.8-4.7 0.7-2.5-0.2-2.4 0.3-2.6-0.2-1.4-2-4.3-0.8-3.5 0.3-1.5 1.1-2.3-0.3-3.3-0.7-1.5-1.4-1.3-1.8-1.1-5.2-2.3-1.3-0.9-4.8-0.6-7.2 2.2-1.5 0.8-1.8 2.6-1 2.6 0.2 2.9-1.3 8.7-7.6-5.6 3.9-8.4-0.5-1.6-0.9-1.1-2-4.6 5.1-2 0.8-3.1 1.1-2.6 2.1-10.6 6 5.9 6.1-1 8.5-5.9 2.4 1.5z" data-id="SVN222" data-name="Videm" name="Videm"/><path id="SVN223" d="M635.8 245.5l-1.4 4.5 1.1 3 0.6 1 2.1 1.9-0.9 5 0.9 0.8 1.1 1.9-0.6 2.2-2.7 3.4-1.8 1-1.7 9-10.4-5.3-1.4-0.6-2.1-0.2-1.1 0.6-1.7 0.2-1.3-0.8-3.1-2.9-1.5-4.1-5.4-8.4-9.5-6 6-6.9 0.8-3.3-0.1-4.5 0.6-1.5 2-2.1-0.6-2.2 20.1 0 1.9 3.1 0.6 4.1 3.5 3.7 6 3.4z" data-id="SVN223" data-name="Vojnik" name="Vojnik"/><path id="SVN224" d="M581.2 248.4l9.4 4.7 0 14.7-1.2 2-1 3.2-0.4 1.8 0.8 3.1-0.5 1.5 1.2 7.4 0.4 3.6-2.4 17.3-4 4.6-8.7 1.7-20 0.5-0.7-1.8 2.3-0.2 2.2-1.1 1.8-2.2 0.5-1.5 0.5-3.9 0.1-7 0.4-2.2 0.7-1.3 1.7-0.8-1.7-2.1-4.5-2.5-6.2-6.2 1.9-5-0.8-2.5 1-2.6 2.4-4.8 1-2.8 0.4-10.7 2.7-4.9 2.1-2.4 2.6-1.3 3.9-0.2 7.4 5 4.7-1.1z" data-id="SVN224" data-name="Žalec" name="Žalec"/><path id="SVN225" d="M386.7 307.8l-14.2 11-4.2-1.4-7.6-11.8 16.5-18.5 4 7 1.5 6 4 7.7z" data-id="SVN225" data-name="Komenda" name="Komenda"/><path id="SVN226" d="M678.3 233.8l-13.1 0.6-2.5-0.8-9.1-5.2-5.1-4.4 0.3-1.3 2.4-3.1 0.5-1.3-1.2-2.1-1.7-2.2 0-1.4 0.8-0.9 1.3-4.6 2-3.2 5.7 2.6 3.3 4.2 1 1.9 1 2.6 1.9 1.4 3.9-0.4 4.5 1.3 1.5 1.1 0.3 1.2-0.5 4.2 0.9 4.2 1.9 5.6z" data-id="SVN226" data-name="Oplotnica" name="Oplotnica"/><path id="SVN227" d="M794.4 222.5l-6.1 1-6-5.9-9.8-17 1.7-2.7-0.6-3.4 0.5-1.9 4.2-2.6 9.1 11.1 3.5 7.2 0.4 1.7-0.3 2.2 0.1 2.8-0.4 1.2 1.8 2 1.8 0.9 0.6 0.9-0.5 2.5z" data-id="SVN227" data-name="Hajdina" name="Hajdina"/><path id="SVN228" d="M750.7 167l0.5 0.7-2.7 3.9-0.4 1.4 1.4 2.5 0.6 2.8 1 2.6-5 6.7-2.4-2.3-3.7-7.6-0.9-2.4 1.4-3.5 0.4-1.8-2-3.6 0.7-2.8 11.1 3.4z" data-id="SVN228" data-name="Miklavž na Dravskem polju" name="Miklavž na Dravskem polju"/><path id="SVN229" d="M739.6 163.6l-0.7 2.8 2 3.6-0.4 1.8-1.4 3.5 0.9 2.4 3.7 7.6-7.2 1.2-3.4 0.9-5.5 0.2-1.5-0.3-2.2-1-3.2-2.7-7.6-3.7-8.3 0-4.9-2.1-8.1-0.9-2-6.5 7.7-5.8 14.2-3.1 27.9 2.1z" data-id="SVN229" data-name="Hoce-Slivnica" name="Hoce-Slivnica"/><path id="SVN230" d="M811.7 153.3l2 2.1 0.6 1.2 0.6 3.9-1.8 6.8-12.9 1.9-6.5-0.1-4.1-2.8 0.8-4.4 1-1.9 0.6-2.6 1.8-3.8 1.7-1.9 3.6-2 2.5-1.9 10.1 5.5z" data-id="SVN230" data-name="Trnovska vas" name="Trnovska vas"/><path id="SVN231" d="M780.3 257.2l11.7 11.3 1.6 1 2.6 7.2 1.8 3-14.8 0.5-5 1.3-4.8 2.3-1.2 0.9-13.2-6.2 1.3-10.9 3.5-5.5 8.9-10.5 7.6 5.6z" data-id="SVN231" data-name="Žetale" name="Žetale"/><path id="SVN232" d="M810 273.6l-11.1 6.1-0.9 0-1.8-3-2.6-7.2-1.6-1-11.7-11.3 1.3-8.7-0.2-2.9 1-2.6 1.8-2.6 1.5-0.8 7.2-2.2 4.8 0.6 1.3 0.9 5.2 2.3 1.8 1.1 1.4 1.3 0.7 1.5 0.3 3.3-1.1 2.3-0.3 1.5 0.8 3.5 2 4.3 0.2 1.4-0.3 2.6 0.2 2.4-0.7 2.5 0.8 4.7z" data-id="SVN232" data-name="Podlehnik" name="Podlehnik"/><path id="SVN233" d="M494.9 167l-7.8 0.1 1-5.6-1.2-1.3-2.2-1.8-3.2-3.4-1.1-3-0.1-2.2-1.7-1.5-1.8-0.9-1.2-2.2-3.2-0.7-1.9 0.6-6.8-0.2-3.5 0.6 2.4-7.5 3.6-7.7 5.3-7.8 4-1.7 4.5 0.6 5.4-0.7 2.1 4.9 0.8 0.7 1.7-0.1 3.3 3.1 1.2 1.9 1.2 3.1 1.6 2.9 0.9 1 2.5 0.6 0.9 1.5 0.4 2.5-0.1 5.7 0.3 4.9 1.1 1.7-0.9 4.2-7.5 7.7z" data-id="SVN233" data-name="Prevalje" name="Prevalje"/><path id="SVN234" d="M696.5 140.5l-20.4 11.3-4.2 1.5-7.8-1.9 0.4-5.3 0.7-8.4-1.3-3.9-2.1-2-2.4-1.7-0.9-2.6-1.8-0.9 0-2.1 0.5-2.5 1-3.4 0.5-4.6-1.8-3.5 1.4 1.3 7.2 4.5 9.5-1.7 5.9-4.6 0.8-1.9 2 2.4 1.5 6.2-0.1 3.4 1.1 2.6 1.3 1.9 3.1 1.8 1.6 2.2 0.5 4.3 0 3 3.8 4.6z" data-id="SVN234" data-name="Selnica ob Dravi" name="Selnica ob Dravi"/><path id="SVN235" d="M659.4 130.1l2.4 1.7 2.1 2 1.3 3.9-0.7 8.4-3 3.8 0.2 1.9-0.5 2.8-2.7 6.1-8 8.7-2.3 10-5.5 2.6-1.1 0.8-1.9 0.7-1.4-0.3-4.1-4-1.5-0.9-7.6 1.3-6.2-2.2-1.1-4.8 3.4-8.3 2-6.5 3.2-4.5 2.9-7.8 5.8-8.1 0.8-3-0.1-3.9 0.8-1.6 1.5-0.6 3.8 0.4 6.1 2 5.7 3.8 3.3 0.2 2.4-4.6z" data-id="SVN235" data-name="Lovrenc na Pohorju" name="Lovrenc na Pohorju"/><path id="SVN236" d="M382.5 349.1l-9.4-3.8-6.1-7.4 22-7-4.5 6-1.5 4.6-0.5 7.6z" data-id="SVN236" data-name="Trzin" name="Trzin"/><path id="SVN237" d="M380.2 219l0.3 0.9 1.8 9.6-10.4 3.9-21.1-1.8-4.7-1.2-3.1 0.2-1.3 0.8-2.1 4.3-2.2 2.2-6.8-0.5 0.9-5.7-0.1-4.1 3.4-6.4 1.2-4.4 3.7-9 0.9-1.3 4.4 2 5.3 0.8 10.9-2.6 4.3 6 3.6 7.9 4.2 4.4 5.5-2.4 1.4-3.6z" data-id="SVN237" data-name="Jezersko" name="Jezersko"/><path id="SVN238" d="M530.7 470.9l3.7 6.7 1.2 1.1 10.6 8-8.9 11.4-7.8-0.1-5.8-1.6-3.6 1.1-2.3 1.2-4.6 6.1-13.5-2.4-4.1 1.1-9.7 10.9-5.9 0.5-2.4-3.7-2.3-1.6-5-1.8-3.4-0.4-2.8 1.3-4.2 0-3.1-8-0.4-2.3 0.6-7.8 6.3-0.2 4 0.9 3.8-1.7 2.1-3.7 0.2-7.8-1.9-6.8-0.9-2.3 0-2.7 1-1.3 8.2-1.5 0.2-5.7 16.6-0.5 2.9 0.9 3.2 2.3 1.3 2.1 0.6 2.6 1.3 2.4 2.6 1.9 3.8 0.8 6.6-3.2 4.9 2 1.3 2.3 2 0.8 3.6-1.3z" data-id="SVN238" data-name="Žužemberk" name="Žužemberk"/><path id="SVN239" d="M603.7 231.2l0.6 2.2-2 2.1-0.6 1.5 0.1 4.5-0.8 3.3-6 6.9-4.4 1.4-9.4-4.7 3.1-6.6 0-1.7-0.5-3.8-1.1-3-3.5-12.8 13.4-1.9 11.1 12.6z" data-id="SVN239" data-name="Dobrna" name="Dobrna"/><path id="SVN240" d="M535.1 295l0.5 6.7-0.3 1.8-2.1 6.5-8.5 1-5.8-3.6-9.2 0.5 0.5-6.3 0.8-3.1 11.1-18.1 6.5 2.1 3.8 5.1 0.9 2 1.8 5.4z" data-id="SVN240" data-name="Tabor" name="Tabor"/><path id="SVN241" d="M522.1 280.4l-11.1 18.1-0.8 3.1-0.5 6.3-10.6 2.8-2.3-0.9-4.7-3.5-1.7-4.2 6.4-3.8-14.3-9.9 4-6.3 0-2.1 0.8-2.1 2.4-0.7 3.3-0.2 2.4-1.7 6.3-2.6 1.5-1.5 0-1.8 2.1-0.6 4.2-0.3 12.6 11.9z" data-id="SVN241" data-name="Vransko" name="Vransko"/><path id="SVN242" d="M564.8 456.1l-3 11-2.1 1.9-1.1 0.5-1.6 0-0.5 0.6 0.5 3-0.6 3.1-1.8 4-1.1 1.6-2.5 0.7-1.6 2.3-3.2 1.9-10.6-8-1.2-1.1-3.7-6.7 0.2-9.2 1.8-2.7 2.2-2.6 3.2-2.4 4.4-1 2.7-0.8 1.8-2 1.7-3 1.1-0.8 1.4-0.1 1.1 1.4 2.1 1.5 1.6 1.9 1.9 1.2 1.6 1.5 5.3 2.3z" data-id="SVN242" data-name="Mirna Pec" name="Mirna Pec"/><path id="SVN243" d="M551.9 281.7l6.2 6.2 4.5 2.5 1.7 2.1-1.7 0.8-0.7 1.3-0.4 2.2-0.1 7-0.5 3.9-0.5 1.5-1.8 2.2-2.2 1.1-2.3 0.2-10.6 1.4-10.3-4.1 2.1-6.5 0.3-1.8-0.5-6.7 4.9-2 9-12.5 2.9 1.2z" data-id="SVN243" data-name="Prebold" name="Prebold"/><path id="SVN244" d="M557.8 253.3l-0.4 10.7-1 2.8-2.4 4.8-1 2.6 0.8 2.5-1.9 5-2.9-1.2-13.8-22.7 2.1-3.4 0.5-4.7 0.2-5.6 2-6.7 4.7 2.4 1.9 3 4.8 3.3 2.5 4.4 3.9 2.8z" data-id="SVN244" data-name="Polzela" name="Polzela"/><path id="SVN245" d="M511.7 629.2l-4.6-0.6-5.5-5.2-7.2-4.7-5.8 0.3-1.1 9.6-6.1 10.5-13.5 4.9-13.2-2.8-5-12.6-0.1-0.1-29.4-13-6.3-5.4-0.1-2.3 1.1-8-0.6-3.5-1.9-2.6 5.3-2.7 13.7-9.4 2 9.6 1.1 1.8-0.1 2.1-0.5 0.8 0.4 1.7 2 3.6 5.4 3.9 12.5 11.8 6.8 8 4.4 0.7 1.4-0.9 1-1.2 1.5-4.2 0.8-3 0.8-1.7 3.1-2.6 2-0.6 1.8 0.4 4.8 2.8 5.2 1.2 3.8-0.3 5.1-1.5 2.5-0.4 1.9 0.4 6.8 6.3 3.8 8.9z" data-id="SVN245" data-name="Kostel" name="Kostel"/><path id="SVN247" d="M535.2 257.8l13.8 22.7-9 12.5-4.9 2-1.8-5.4-0.9-2-3.8-5.1-6.5-2.1-12.6-11.9 0.1-8.8 4.5-4.2 1.2-2.2 0.5-2.6 3.1-4.8 2.7-1.9 9.1 5.9 4.5 7.9z" data-id="SVN247" data-name="Braslovce" name="Braslovce"/><path id="SVN248" d="M406.9 531.5l-3.7-5.9-1.6-1.9-3.2-1.9-6.5-0.3-7.3-2.7-2-7.6 0-3.3-1.2-3.3-4-6.6 3.5-4 7.2-1.6 4 3.6 3 1.7 4.5 1.1 6.5 2.2 6.1 1.2 3.8 2 0.9 3.6-0.2 4.1-4.3 12.5-2 3.9-3.5 3.2z" data-id="SVN248" data-name="Sodražica" name="Sodražica"/><path id="SVN249" d="M537.3 498.1l1.5 5.7 4.2 6.4 1.1 2.4 0.4 2.2 10.6 11.7 2.2 3.1 0.9 2.2-0.7 2-1.1 1.7-4 2.7-0.9 3.7-5.8-0.8-3.7 1.8-2.9 3.1-5.9 8.3-1.3 2.6-1.1 9.1-4.1-7.3-1.4-7.9-6.4-7.7-6-6.7-1.4-2.8-1.5-4 2.6-13.5 1.1-3.5-0.5-7.8 4.6-6.1 2.3-1.2 3.6-1.1 5.8 1.6 7.8 0.1z" data-id="SVN249" data-name="Dolenjske Toplice" name="Dolenjske Toplice"/><path id="SVN250" d="M310.5 392l-8.4 2.2-2.2 0.9-8.1 1.5-1.8 0.9-0.4 1.5 0.2 1.3-0.9 0.8-2.1-0.2-6.9-3.2-1.6-1.8-0.5-1.6 2.4-1.9-0.8-3.3-0.2-5.1 2.9-3.8 1.5-0.7 8-1.9 12.9 1.3 2.4 0.9 2 1.4 1.9 3.9 0.4 3.3-0.7 3.6z" data-id="SVN250" data-name="Horjul" name="Horjul"/><path id="SVN251" d="M415.2 187.7l1 2.5 14.7 2.9 3.6 2.6 6.7 9.6-4.6 6.6-0.1 3.9 1 2.6-1.7 1.8-3.5 2.6-18.1 8.6-9.4-0.8-9.5 2-4.5 0.3-8.5-3.4-1.8-9.6-0.3-0.9 1.5-4 2.7-8.9 4.7-6.8 3-1.2 6.9-0.6 3.2-1 3.3-2.1 6.4-6.7 1.4-0.4 1.9 0.4z" data-id="SVN251" data-name="Solcava" name="Solcava"/><path id="SVN252" d="M640.2 348.9l-3.8-12.6 10.3-7.5 2.7 0.1 0.5 1.3 2.7 3.6 1.2 1.1 2.9 1.8 1.2 1.5 0.5 1.4-0.9 4.1-0.6 0.7-1.2-0.1-1.5-0.9-2.2-2.4-1 0.3-0.9 2.2-2.6 2.2-2.4 2.6-2.6 1-2.3-0.4z" data-id="SVN252" data-name="Dobje" name="Dobje"/><path id="SVN253" d="M440.3 451.6l5.1 7.5-0.2 1.3-2.2 5.9-0.5 6.2 1.7 2.5 2.2 4 3.4 3.6 0.9 3.1 6.3 4.9-0.6 7.8 0.4 2.3 3.1 8-5.7 6.6-34.2-34-5.9-8.8-5.5-4.2-2.1-0.9-2-0.4-0.6-2.1 1-4 0-5.5 6.2-3.8 1.5-2.5 2.3-0.7 2 0.7 2.1 1.3 12.2 4.3 2.6 0 6.5-3.1z" data-id="SVN253" data-name="Dobrepolje" name="Dobrepolje"/><path id="SVN254" d="M380.9 494l-3.5 4 4 6.6 1.2 3.3 0 3.3 2 7.6-6.5 0.3-1.7-1.6-4 1.8-2.5 1.9-1.4 0.6-5.4-1-9.4-7.6 4.4-3.6-1.8-3.8-1.7-0.7-5.7-4.5-5.3-6.3-1.4-2.9 0-2.2 1.3-2.9 1.4-2.2 2-2.5 8.4-7.1 3-1.2 3.8-2.4 7.8 12.7 11 10.4z" data-id="SVN254" data-name="Bloke" name="Bloke"/><path id="SVN255" d="M738.4 379.4l-2.6 0.7-5.3 6.2-1.4-2.6-7.9-0.1-2.3-0.8-2.2-1.7-1.5-1.4-3.8-11.4 5.1-4.8 2.5 2.6 3.9 2.3 8.8 3.8 3.9 2.8 2.8 4.4z" data-id="SVN255" data-name="Podcetrtek" name="Podcetrtek"/><path id="SVN256" d="M723.9 125.8l10.4 0.6 6.1 6.1 6.8 4.7 7.7 0.4 3.1-2.2 2.9 3.8 0.6 1.7 1.1 0.9-4.9 5.7-4.9 6.6-4.8 2.6-1 2.7 1.4 3.5 2.3 4.1-11.1-3.4-27.9-2.1-14.2 3.1-4.2-3.7 3.2-20.4-3.8-4.6 0-3-0.5-4.3-1.6-2.2-3.1-1.8-1.3-1.9-1.1-2.6 0.1-3.4-1.5-6.2-2-2.4 1.2-2.7 0.9-4.4 5.2 5.3 10.7 2.9 6.4-0.1 2.4 1 2.2 2.8 2.7 1.7 4.3 4 1.1 3.3 5.1 3.9z" data-id="SVN256" data-name="Maribor" name="Maribor"/><path id="SVN257" d="M621.2 164.3l-3.4 8.3-17-1.4-6.4 0.4-4.9-1-8.6-6.5-2.2-2.9 3.4-5.5 3.1-2.9 0.4-3.6 1.4-1.9 1.7-1.6 15.9-10 7.3 7.2 2.7 4.8 4.9 2.8 1 1.4-1 2.5-0.1 2.1 1.8 7.8z" data-id="SVN257" data-name="Ribnica na Pohorju" name="Ribnica na Pohorju"/><path id="SVN258" d="M249 196.6l-3.3 2.9-2.6 4.1-0.5 8.4-8.3 1.5-1.6-0.4-4.7-2.2-2.8-2.4-25.5-13.9 2.3-3.8 1.6-1.1 2.4-2.4 0.6-3.9 0.2-6.2 5.6-1 5.5 0.1 5.2 1.6 4.7 2.3 17.8 15.5 3.4 0.9z" data-id="SVN258" data-name="Jesenice" name="Jesenice"/><path id="SVN259" d="M278.9 197.6l-1.3 6-4.8 1.6-2.7 2.2-4.6 6-1.7 4.7-1.3 3.1-3.3 2.3-3.7 0.4-2.9-0.3-7 4.4-5.2-9.5 2.2-6.5 0.5-8.4 2.6-4.1 3.3-2.9 0.6 0.2 29.3 0.8z" data-id="SVN259" data-name="Žirovnica" name="Žirovnica"/><path id="SVN260" d="M159.6 395.2l-4.3 2.2-2.6 4 0 4.4-14.3 10.4-7.8 13.2-6.7 8-2.1 0.8-4.4 3.1 0.4 1.2 1.6 0.6 2.6 1.6 2.5 3.2 4.4 2.7 5.7 5.8 2.5 3.5 1 1.1 0.9 1.8 1.3 1.2 5 2.8 0.8 1.1 3.4 5.4-7-3-3.4 0.5-6.8 0-5.5-1.6-16.8-9.3-9.5-1.6-4.4 0.2-8.3-2.9-3.2-2.1-2.8-3.2 0.1-1.4 1.6-0.9 4.4-0.7 2.3-2.1 6.3-5.8 3.3-1.2 1.7 0.4 1.2-1.6 0.3-3.2-0.3-1.6-2.2 0-2.2-1.6-3.8-0.3-1.5-0.9-2.9-2.8-2.3-1.2-2-0.5-5.6-1.9 2.4-9.3-5.4-8.7-1.6 0.4 3.3-3 4.8-2.5-7.1-7.4 3.6 0.5 3.2 2.4 2.3 2.3 1.3 0.1 1.2-0.4 1-1.2-1.7-2.7-4.3-5.9 0.2-1.7 2.4-1.7 7-10.8 3.7-3.1 4.7-2.5 7.5 0.5 8.5 3.6 2.4-0.1 3.8-2.9 2.9-5.1 1.9-2.8 0.7-9 3.7-3.4 3.9 0.2 2.2 2.2 2.6 10.2-0.3 3.2 0.2 5.5 1.1 5.6 2.9 6.4 3.3 5 2.4 2.7 8.7 5.6z" data-id="SVN260" data-name="Nova Goriška" name="Nova Goriška"/><path id="SVN261" d="M90.2 445.2l-10.5-3.1-4.5-3.8 2.8-6.4 2.2-8.9 5.6 1.9 2 0.5 2.3 1.2 2.9 2.8 1.5 0.9 3.8 0.3 2.2 1.6 2.2 0 0.3 1.6-0.3 3.2-1.2 1.6-1.7-0.4-3.3 1.2-6.3 5.8z" data-id="SVN261" data-name="Šempeter-Vrtojba" name="Šempeter-Vrtojba"/><path id="SVN263" d="M939.8 130.5l1.9 2.9 1.1 6.4-1.1 3.3-1.8 3.6 1.9 1.7 1.7 0.6-3.2 3.8-6.1 2.1-5.9-1.7-3.3-5.8-2.2 1.3-2.2 2.1-4.4-3.5-2-2.9 5.8-7.1 4.3-3.4 2.4-0.8 4-5.2 0.3-3.6 8.8 6.2z" data-id="SVN263" data-name="Črenšovci" name="Črenšovci"/><path id="SVN264" d="M943.5 149l-1.7-0.6-1.9-1.7 1.8-3.6 3.1-0.1 2-0.4 5.4-2.4 4.9-3.3 2.1-2.2 2.5-1.6-6.1-9.9-9.6-7.2 6-8.7 1.7-1 1.3 3.3 5.8 4.7 11.3 6.7 11.6 18.4 10.7 9.1 4.6 19.9-7.7-6.2-3.1-1.8-3.3-0.6-6.9 0.9-2.7-0.3-2.7-1.9-5.3-5.7-2.8-1.8-3.6-0.3-4.1 0.3-4-0.5-3.7-3-1.9 3.5-2.4-3.5-1.3 1.5z" data-id="SVN264" data-name="Lendava" name="Lendava"/><path id="SVN265" d="M914.2 144.4l2 2.9 4.4 3.5 2.2-2.1 2.2-1.3 3.3 5.8 5.9 1.7-2.9 1.8-7.6-3.1-5.7 6.7 0.4 2.6-8.2 9.3-0.3 3.9-2.2 1.7-1.7 2.7-1.6 0.4-2-0.8-1.2 1.3-1.5 0-3.2-4.9-2.7-2.4-4-3-4.8 1.2-0.9 1.6-1.6 0.6-3.5-0.4-7.2-3-14.6-2.7-5.1-2.1-9.9-2.3 2-4.8 0.5-3.1-0.4-1.2 0.4-1.1 1.9-2.7 3.6-2.8 10.2 1.6 6.3 1.3 7.8 4.6 6.5 1.5 3.6 0.2 3.7-1.1 2.5-2.4 0.7-4.1 0.9-3.8-1.6-1.8 0.9-2.8 4.4-2.9 3.6-0.1 0.7-0.6 4-7.5 9.8 14z" data-id="SVN265" data-name="Ljutomer" name="Ljutomer"/><path id="SVN266" d="M886.7 120.4l-3.4 2.1-4.3-0.9 0.5 4.7 1.9 3.7 3.6 3.1 0.9 4.5 5.8 3.9-0.9 2.8 1.6 1.8-0.9 3.8-0.7 4.1-2.5 2.4-3.7 1.1-3.6-0.2-6.5-1.5-7.8-4.6-6.3-1.3 3.6-10.3 0.4-2.5-3.5-10.9 5.1-6.6 5.2-0.2-2.1-4.3 1.6-3 3.2 2.2 12.8 6.1z" data-id="SVN266" data-name="Križevci" name="Križevci"/><path id="SVN267" d="M904.4 130.4l-4 7.5-0.7 0.6-3.6 0.1-4.4 2.9-5.8-3.9-0.9-4.5-3.6-3.1-1.9-3.7-0.5-4.7 4.3 0.9 3.4-2.1 13.5 6.4 4.2 3.6z" data-id="SVN267" data-name="Veržej" name="Veržej"/><path id="SVN268" d="M838.1 157.9l-7.7 2.4-3.7 2.4-2.9 1.4-2.4 2.3-1.6 2-0.8 6.7-5.9-7.8 1.8-6.8-0.6-3.9-0.6-1.2-2-2.1 1.4-3.4 5.3 2.7 0.7 1.2 2.1 0.2 1.6-0.2 8.7-6.1 6.6 10.2z" data-id="SVN268" data-name="Sveti Andraž v Slovenskih Goricah" name="Sveti Andraž v Slovenskih Goricah"/><path id="SVN269" d="M931.3 156.7l-2 1.2-9.9 3.9-1 1.1-0.4-2.6 5.7-6.7 7.6 3.1z" data-id="SVN269" data-name="Razkrižje" name="Razkrižje"/><path id="SVN270" d="M955.6 123.2l6.1 9.9-2.5 1.6-2.1 2.2-4.9 3.3-5.4 2.4-2 0.4-3.1 0.1 1.1-3.3-1.1-6.4-1.9-2.9 2.1-4.6 0.2-1.5 1.5-1 2.7-0.6 4.7 1.5 4.6-1.1z" data-id="SVN270" data-name="Velika Polana" name="Velika Polana"/><path id="SVN271" d="M948.6 84l2.4 4.5 3 2.2 6.1 2.7 3.2 0.5-1.9 1.9-6 2.9-2.9 4.5 1.2 3.1-1.7 1-6 8.7-10.7-13.8 1-7.2 3.2-7.1 2.1-3.5 2.1-2.4 4.9 2z" data-id="SVN271" data-name="Dobrovnik" name="Dobrovnik"/><path id="SVN272" d="M830.4 207.5l1.5 6.5 0.3 4 2.5 5.8 0.5 3.8-3 3.3-1 0.7-2.6 0.9-2.6 0.2-5.7-1.8-2.8-1.7-2.3-6.4-2.1-1.6-7.8-3.1 10-6.3 2.3-3.2 0.1-2.9 12.7 1.8z" data-id="SVN272" data-name="Markovci" name="Markovci"/><path id="SVN5884" d="M825.5 79.4l-6.6 9.3-4.7 4.3-6.6 0.7-7.2 0.4-3.7-2.6-5.7-1.5-10-6.8-2.8-4.5-4.4-1.7-5.7-4.7-0.6-1 12.1-5 8.9-0.7 8.8 1.7 21.4 10.9 6.8 1.2z" data-id="SVN5884" data-name="Apace" name="Apace"/><path id="SVN5885" d="M504.5 409.7l-4.7 4.1-3.9 1.4-6.9-4.5-8.9-13.3-1.9-1.4-1.8-0.6-0.7 1-0.2 1.6-2.2 0.4-4.1-0.3-10.2-3.3-9.3-0.3-2 1-0.8 0.8-7.3 0.7-0.6-9 1.1-2.5-0.8-2.8-1.6-2.7-1.9-2.1-2-2.7 0.6-1.4 0-2 0.9-3.4 5-0.3 17.1 3 12.2-6.1 6.8 1.4 7.5 7.1 7.4 9.8 7.3 6.7 4.5 11.1 1.4 8.6z" data-id="SVN5885" data-name="Šmartno in Litiji" name="Šmartno in Litiji"/><path id="SVN926" d="M853.3 51l0.8 9.5-0.5 3-1 4.2 1.9 4.9 2.3 2.3 2.7 1.4 2.9 0.8 2.6 2.1 5.1 2.1-1.7 6.3 0.4 2.4 1.3 4.7 1.8 2.3 1.4 2.7 1.4 3.1-0.8 3.2-3.2 6.1-13.7-9.5-8-8.5-4.4-1.1-3.6-2.6-0.6-10.6-3.6-7.2-6.8-4.3-3.6-11.3-0.3-8.1 0.4-6.7 5.4-0.4 5.4 0.9 0.7 1.7 3.6 4 2 1.2 9.7 1.4z" data-id="SVN926" data-name="Cankova" name="Cankova"/><path id="SVN927" d="M841 90.4l3.6 2.6 4.4 1.1-10.8 13.8-0.3 5.3 2.2 12.8-11.2 3.5-7.1-1-7.2-3.8-5.4-6.6-0.8-3.6-0.1-2.5 4.8-4.4 0.8-2.2-2.6-1.1-1.4 0.3-2.9 0.1-6.7-2.8 0.1-7.8 7.2-0.4 6.6-0.7 4.7-4.3 6.6-9.3 6.1 1.1 3.5 2.4 5.9 7.5z" data-id="SVN927" data-name="Gornja Radgona" name="Gornja Radgona"/><path id="SVN928" d="M917.4 39.9l-5.4 8.2-2.7 2.4-2.7 4.7-1.8 1.2-2.3-0.3-4.3-5.7-1.2-2.3 3.3-9.1-0.6-3.9-1.3-1.5-2.1-1.1-2.4-0.7-6.1-6-1.1-3.5-2-2-1.4-2-4.3-1.3-3.6-1.7-0.7-4.8 2.3-6.1 1.6 0.4 14-1.3 15.3 11.2 5.3 3.1 4.5 4.5 2.1 3.9 0.4 3.5-1.1 4.9-0.9 1.7-0.8 3.6z" data-id="SVN928" data-name="Gornji Petrovci" name="Gornji Petrovci"/><path id="SVN929" d="M902.5 56.1l-6.5 8.2-1.9 0.1-2.7 3.9 1 9.7-8.7 3.5-2.2-0.8-11.4 0.6-5.1-2.1-2.6-2.1-2.9-0.8-2.7-1.4-2.3-2.3-1.9-4.9 1-4.2 0.5-3-0.8-9.5 2.6-3.8 6-0.3 2.8 0.5 1.9 0.8 2.5-0.8 2.1-1.7 4.7-9.3 3.1-19.4 4.3 1.3 1.4 2 2 2 1.1 3.5 6.1 6 2.4 0.7 2.1 1.1 1.3 1.5 0.6 3.9-3.3 9.1 1.2 2.3 4.3 5.7z" data-id="SVN929" data-name="Puconci" name="Puconci"/><path id="SVN930" d="M870.7 112.1l-1.6 3 2.1 4.3-5.2 0.2-5.1 6.6-2.3 2.4-0.8 0.3-1.1-1.6-1.6-5.2-1.7-1.7-2.2-0.2-3.8 4.5-3 3.2-4.3-1.9-2.2-12.8 0.3-5.3 10.8-13.8 8 8.5 13.7 9.5z" data-id="SVN930" data-name="Radenci" name="Radenci"/><path id="SVN931" d="M853.5 23.2l-1.4 18.7 0.2 2.6 3.6 2.7-2.6 3.8-9.7-1.4-2-1.2-3.6-4-0.7-1.7-5.4-0.9-5.4 0.4 0.1-1.4 2.2-14.4-0.2-3.3-1.4-1-0.3-1 3-3.3 1.9-1.1 14.1-3.5 6.6-3.9 1 13.9z" data-id="SVN931" data-name="Rogašovci" name="Rogašovci"/><path id="SVN937" d="M334.4 457.2l-3.6 1.6-2 2.8-2.2 0.4-2.6-2.1-2.7-3-3.9-4.9-2-3.1-6.4-16.6-1-4-0.2-4.1 1.3-5.2 2-2.9 6.8-2 1.4 6.2 4.5 5.7 2.5 2.6 3 2 1.7 0 1.9 1.4 0.6 1.6-1 5.9-0.5 4.9-1 3.4 3.4 9.4z" data-id="SVN937" data-name="Borovnica" name="Borovnica"/><path id="SVN938" d="M693.1 478.7l-1.6-3-7-10.3-1.5-3.5-1.6-2.9-1-3.3 0.1-3.6 1.7-5.4 4.7-3 3.7-1.3 1.4 0 1.3-1.2 1.9-1 0.8-3.9 2.5-1.5 1-2.8 0.7-4.8-0.3-16.2 3.9-9.9 4.5-0.2 8.3-4.2 13.9-10.4 5.3-6.2 2.6-0.7 1.7 2.4-1.4 4.8-3.7 5.6-2.5 9.3 0.9 23.4-0.4 7.6-1.7 5.7-2.2 5.4-1.3 5.4 1.4 5.8 3.7 9.2 0.2 6.5-3.2 4.5-6.4 3.5-6.2 1.8-12.3 0.4-11.9-2z" data-id="SVN938" data-name="Brežice" name="Brežice"/><path id="SVN939" d="M703.8 401.1l-4.7-1.7-1.3-1-0.2-2.2-1.4-5.7 2.5-0.2 1.4-0.6 1.9-0.2 2.3-0.7 4.5-0.6 1.4 1.8-6.4 11.1z" data-id="SVN939" data-name="Krsko" name="Krsko"/><path id="SVN940" d="M338 385.1l4.5 6 3.9 2.9 0.7 1.9-1.8 2.6-2.8 2.6-2.3 3.3-0.1 3.1 3 2.7 4.5 11.8-0.1 5 1.6 7.6 0.9 6.6 7.4 11.5-15.2 7.9-2 0.2-5.8-3.6-3.4-9.4 1-3.4 0.5-4.9 1-5.9-0.6-1.6-1.9-1.4-1.7 0-3-2-2.5-2.6-4.5-5.7-1.4-6.2 3.1-6.8-1-6.2 2.1-3.9 2.3-2.5 3.6-1.3 0.5-3.9-0.7-2.1-3.6-3.8 6.9-1.6 1.7 0.4 5.2 2.7z" data-id="SVN940" data-name="Brezovica" name="Brezovica"/><path id="SVN941" d="M632.5 279.2l-0.7 4.4-1.5 1.9-2.5 2.3-1.3 5.8-2.3-0.3-3.3 1.5-2.5 1.7-1.8 2.1 0 8.6 0.5 2.6-2.7 2.2-11.6-2.2-2.3-1.6-2.8-0.1-6.2 2.5-3.4-0.5-0.6-2.4 2.4-17.3-0.4-3.6-1.2-7.4 0.5-1.5-0.8-3.1 0.4-1.8 1-3.2 1.2-2 0-14.7 4.4-1.4 9.5 6 5.4 8.4 1.5 4.1 3.1 2.9 1.3 0.8 1.7-0.2 1.1-0.6 2.1 0.2 1.4 0.6 10.4 5.3z" data-id="SVN941" data-name="Celje" name="Celje"/><path id="SVN942" d="M377.2 287.1l-16.5 18.5-12-1.5-5.8-7.8-0.4-4.4-0.3-10.3 0.5-5.4 1.7-4.2 1.1-0.9 1-1.6 1.3-1.3 2.3-3.3 5.3-2.1 5.4-0.2 4.6-1.4 9.1-5.6-0.1 6.1 2.1 4.3 0.9 4.9 1.7 1.9 3.6 6-0.5 3.6-1.4 2.9-3.6 1.8z" data-id="SVN942" data-name="Cerklje na Gorenjskem" name="Cerklje na Gorenjskem"/><path id="SVN943" d="M321.3 456.9l2.7 3 2.6 2.1 2.2-0.4 2-2.8 3.6-1.6 5.8 3.6 2-0.2 15.2-7.9 2.5 4.7-0.6 3.8 0.3 4.7 2.5 5-3.8 2.4-3 1.2-8.4 7.1-2 2.5-1.4 2.2-1.3 2.9 0 2.2 1.4 2.9 5.3 6.3 5.7 4.5 1.7 0.7 1.8 3.8-4.4 3.6-21.5 17.1-7.8 1.2-18.5-14.7-1.4-6.5-7.6-1.4-3.7-2.6-5.7-6.1-3.6-6.5 0.4-4.9 6.3-16.3-0.9-4 7.2-18.1 3.2-2.5 5.2 1.8 12.4 9.1 3.6-1.9z" data-id="SVN943" data-name="Cerknica" name="Cerknica"/><path id="SVN944" d="M487.1 167.1l7.8-0.1 5.2 5.7 0.9 0.7 7 0.6-2.9 13.6-0.2 5.8-4.4 3.4-15.9 7.5-27.7-0.7-9.1-3.1-1.8 0.3-4.8 4.5-6.7-9.6-3.6-2.6-14.7-2.9-1-2.5 2.3 0.4 2.3-5.7 3.7-4.5 1.6-3.1 1.9-2.2 5.2-2.4 2.8 2 8.2-1.3 7-3.2 1.7-1.6 2.6-5.9 5.2 1 5.8 1.7 6.4 5.2 6.9 2.3 4.1 0.4 2.7-0.6 1.5-3.1z" data-id="SVN944" data-name="Črna na Koroškem" name="Črna na Koroškem"/><path id="SVN945" d="M590.2 576.5l-0.4 3.7 4.9 1.7 3.1-0.9 1.3 0.7-0.1 1.1 1 2.3 1.7 3.1 3 2.8 3 1.4 0.6 0.7 0.2 0.4 1.9 11.8 2.5 9.8 4.6 7.7 15.9 10.8-3 2.7-5.7 7.9-2.8 2.6-3.5 1.1-10.3-0.2-30.8 11.4-14.3-2-23.1-19.8 2.7-6.8 3.8-4.6 1.9-1.5 3.5-1.8 4.5-1.1 1-1.3-0.1-2.2-2.5-1.7-3.6 0.4-3.5 1.3-3.4 0.9-2.1-1.1-1.1-2.6 1.1-5.2 2.8-3.7 2.6-1.8 2.2 0.7 1.1-0.6 0-2-3.7-3.6-1.7-2.3 0-5-1.4-4.2 0.3-2.7-2.1-5.5 10.1 3.4 8.8-0.8 2.6-0.9 1.5-1.1 1.5-2.6 1.6-1.8 5.7-3.2 4.7 0.2 5.7 1.1 5.8 2.9z" data-id="SVN945" data-name="Crnomelj" name="Crnomelj"/><path id="SVN946" d="M419.8 344.8l5.2 2.6 3.9 0.7 1.8 1.7 1.5 2.7 2.7 0.6 6.1-0.5-1.3 3.2-1.7 1.2-10.2 5.1-6.4 0.7-2.6-1.8-1.9-0.4-6.5 2.2-7.7 0.5-5.6-1.5-6.2-3.8-0.5-3.8 7.3-0.8 3.7-1.7 7.6-5 4.2-2.1 6.6 0.2z" data-id="SVN946" data-name="Dol pri Ljubljani" name="Dol pri Ljubljani"/><path id="SVN947" d="M546.1 101l1 6.2 1.5 4.1 3.5 6.4 6.7 4.8-4.4 1.2-1.1 1.7-1.5 3.8 0.7 3.5-0.8 4.2-10.3 9.1-0.6 2.1-1.5 1.6-1.3 0.3-3.6-1.4-4 1.4-2.6 1.6-1.1 0-4.5-5.7 1.2-4-2.1-4.5-3.1-1.9-5-4.1-3.5-4.5-1.5-2.4-1.9-1.3-5.3-0.5-7.4-5.9-0.2-0.7 4.5-2.8 4.5 0.9 6.1 8.8 11.8-16.9 18.2-5.9 7.6 0.8z" data-id="SVN947" data-name="Dravograd" name="Dravograd"/><path id="SVN948" d="M777.5 170.4l-3.1 5.5-3.7 2.5-4.2 5.6-7.9-8.3-1.9-1-2.6-0.9-1.4-1.7-1.5-4.4-0.5-0.7-2.3-4.1-1.4-3.5 1-2.7 4.8-2.6 4.9-6.6 4.9 0 2-0.4 1.7 0.4 1.3 1 0.9 1.4 0.3 1.9 0.7 1.4 5.8 4.3 1.9 2.4 0.8 2.4-1.1 1.3-1.2 2.7 1.8 4.1z" data-id="SVN948" data-name="Duplek" name="Duplek"/><path id="SVN949" d="M476.8 254l3.2 6.6-1.7 5.9-3.1 4.2-1.4 4.7-0.9 7.3-13.8-0.7-7.1 0.6-11.3-0.6-12.4-4-3.2-3 0.6-7.9 8.1-10.9 15.7-12.8 5.3-2.2 1 1.1 3.1 1.8 11.9 9.6 6 0.3z" data-id="SVN949" data-name="Gornji Grad" name="Gornji Grad"/><path id="SVN950" d="M436.6 399.2l-2.2 7.3-5 7.5-0.8 6 1.1 0.2 3.3 1.3 1.4 1 0.2 1.1-0.5 1.6 1.4 6.4 4.3 8.8-0.1 2.1-0.8 2.8 0 2.1 1.4 4.2-6.5 3.1-2.6 0-12.2-4.3-2.1-1.3-2-0.7-2.3 0.7-1.5 2.5-6.2 3.8-4.5-5.2-1.4-3.8-6.5-6.5-3-9.1 1.2-14.4-0.2-3.8-1.2-5.2 2.1-3.5 2-1.8 0.9 0.1 3-2.3 4.6 3.4 9.5-0.3 5.1-2.9 1.9-1.9 1.2-2.2 4.7-2.6 2.7-0.1 1.7 0.8 3 2.5 4.9 2.6z" data-id="SVN950" data-name="Grosuplje" name="Grosuplje"/><path id="SVN951" d="M570.7 356.1l-11.1 3-7-3.5-2.3-4.4-0.5-1.9-3-2.9-2.2-1-1.1-1.5-2-3.5-0.9-1.1-1.1-3.3 0.2-2.3 1.6-3.8 4.2-7.2 5.7-3.8 3.6-4.4 5.6 7.4 1.2 2.7 7.8 5.8 3.9 4.8 2.7 4.2 2.6 5.9 0 2.4-1.1 1.6-3.7 2.4-3.8-1.4-3.9-2.2-1.2 0.2-0.9 1.5 0.4 2.2 2.1 2.1 4.2 2z" data-id="SVN951" data-name="Hrastnik" name="Hrastnik"/><path id="SVN952" d="M533.2 310l10.3 4.1 10.6-1.4 0.7 1.8-3.6 4.4-5.7 3.8-4.2 7.2-1.6 3.8-0.2 2.3 1.1 3.3 0.9 1.1 2 3.5 1.1 1.5 2.2 1 3 2.9 0.5 1.9 2.3 4.4-1.4 5.6-1.4 0.9-3.1 0.8 0.4 4.5-5.5 1.4-14.2 4.7-3.1 0.4-4.6-1.3-0.3-2.4-1.5-2.9-1.1-6.1-0.1-1.8 1.5-1.4 1.3-2.3 0.9-2.5-1.5-9.2 3.7 1.1 1 0 2.3-1.2 2.9-3.1 0-2.4-1.3-4.1-4.3-7.2-4.6-5.5-1.2-0.3-2.3 1-0.5-1.1 2-2 3.7-1.8 2.7-2.3-4.1-7.7 5.8 3.6 8.5-1z" data-id="SVN952" data-name="Trbovlje" name="Trbovlje"/><path id="SVN953" d="M371.1 402.8l6.5 8.2 1.9 7.8 0.5 5.3-1.5 10.2 2.2 2.8 0.4 2.1-0.2 2.6 0.7 1.2 5.9 2.6 0.4 6.4-1.6 3.6-3.6 3.1-2.6 0.1-2.2-0.2-1.6-1.2-2.3-1-3.8-2.8-7.2-2.6-5.6 1.7-7.4-11.5-0.9-6.6-1.6-7.6 0.1-5-4.5-11.8 9.3-4.1 1.9-4 7.1-2.7 3.3-0.1 6.4 3.5z" data-id="SVN953" data-name="Ig" name="Ig"/><path id="SVN954" d="M337.1 560.3l-1.1 9.1-0.2 3.2 1.9 3.7 4.2 3.9 0.8 2.5-0.1 3.1-1.7 2.1 0.3 1.1 3.3 0.4 3.5-0.2 2.4 0.6 1.9-0.7 2.1 0.3 2.4-0.2 1 0.5-1.3 10.2-1.6 6.4-4.2 7.6-12.4 9.2-5.9 5.5-12.2 6.9-14.6 1.3-14.7-2.8-12.6-5.5-6.9-1.7-8.1 2.4-15.1 7-8.2 1.5-0.9 0 0.4-3 0.1-5.5-2-4.3-1.4-1.6-5.8-4.7-0.7-1.3 2.3-5.9 2.6-8.7 1-7.1-2-1.2-1.8 0.6-1-1.3-0.3-2 1.3-5.4 1.7-3.4 1-3.3 0.7-1.5-4.6-4.3 0.2-4.6 3.9 0.7 2.3-1.5 5.5-1.9 7.7-0.5 13.4 0.8 6.8-0.8 3.5-0.9 3.6-3.3 2.7-1.6 12.4-4.9 9.9-2 3.6-2 0.8-1.7-0.7-1.4 1.3-0.6 4.6-0.1 6.9 5.7 3 3.5 15.1 3.6z" data-id="SVN954" data-name="Ilirska Bistrica" name="Ilirska Bistrica"/><path id="SVN955" d="M495.9 415.2l-5.9 6.3-6.3 3.6-2.2 4-1 3.5-1.5 11.9-1.7 5.2 0.9 4.5 1.8 3.6-0.2 5.7-8.2 1.5-1 1.3 0 2.7 0.9 2.3 1.9 6.8-0.2 7.8-2.1 3.7-3.8 1.7-4-0.9-6.3 0.2-6.3-4.9-0.9-3.1-3.4-3.6-2.2-4-1.7-2.5 0.5-6.2 2.2-5.9 0.2-1.3-5.1-7.5-1.4-4.2 0-2.1 0.8-2.8 0.1-2.1-4.3-8.8-1.4-6.4 0.5-1.6-0.2-1.1-1.4-1-3.3-1.3-1.1-0.2 0.8-6 5-7.5 2.2-7.3 3-2.2 7.3-0.7 0.8-0.8 2-1 9.3 0.3 10.2 3.3 4.1 0.3 2.2-0.4 0.2-1.6 0.7-1 1.8 0.6 1.9 1.4 8.9 13.3 6.9 4.5z" data-id="SVN955" data-name="Ivancna Gorica" name="Ivancna Gorica"/><path id="SVN956" d="M772.5 200.6l9.8 17-2.1 10.6-1.1 2.6-0.8 3.1-5.1 2-5.8-2.9-4.8-1-28-2-0.9-3.5 1.4-2.1 1-3.4-0.6-2.4 0.5-1.9-1.9-1.6-0.6-1 3.2-2.9 14.9-9.1 5.6-1.8 5.6 0.6 4-1.7 5.7 1.4z" data-id="SVN956" data-name="Kidricevo" name="Kidricevo"/><path id="SVN957" d="M711.4 368.3l3.8 11.4 1.5 1.4 2.2 1.7 2.3 0.8 7.9 0.1 1.4 2.6-13.9 10.4-8.3 4.2-4.5 0.2 6.4-11.1-1.4-1.8-4.5 0.6-2.3 0.7-1.9 0.2-1.4 0.6-2.5 0.2-3.5-12.3-3.4-3.9-4.1-3-2.3-0.3-7.9-3.5-1.9-9.2-3.2-6.6 0.6-2.7 1-2.1 2 0.3 1.2 0.7 2.4 0.5 2.6-1.4 3.3-4.2 5.7-4 3.4 3 3.9 0.8 5.3 4.6 2.8 1.6 4.7 10.3-1 1.6-0.3 1.7 1.2 4.4 2.7 1.5z" data-id="SVN957" data-name="Kozje" name="Kozje"/><path id="SVN958" d="M696.2 390.5l1.4 5.7 0.2 2.2 1.3 1 4.7 1.7-3.9 9.9 0.3 16.2-0.7 4.8-1 2.8-2.5 1.5-0.8 3.9-1.9 1-1.3 1.2-1.4 0-3.7 1.3-4.7 3-1.7 5.4-0.1 3.6 1 3.3 1.6 2.9 1.5 3.5 7 10.3 1.6 3-8.3-1.4-3.1 1.5-5.9 4.9-3.1 1.1-3.6-0.6-3.6-1.2-3.6-0.4-3.5 1.6-1.5 4.3 1.3 4.7 0.5 4.4-3.6 2.9-1.8-1.9-7.3-13.7-0.5-6.2-0.9-5.4-0.4-9.9-2.3-8.8-8.6-3.2-3.3-3.7 0.8-3.5 0.3-7.7 2.8-8.4 2.7-7.4 5.7-8.5 11-11.1 1.7-3 0.1-2.9-0.6-2.6-1.7-2.4-1.1-3.6-0.8-3.4 0-3.9 0.9-2.1 0.3-1.6-0.6-6.1 23.5-2 7.9 3.5 2.3 0.3 4.1 3 3.4 3.9 3.5 12.3z" data-id="SVN958" data-name="Krško" name="Krško"/><path id="SVN959" d="M723.5 103.3l5.9 18.1-5.5 4.4-5.1-3.9-1.1-3.3-4.3-4-2.7-1.7-2.2-2.8-2.4-1-6.4 0.1-10.7-2.9-5.2-5.3 0.1-0.8 3.1-6.6 4.9-3.7 6.8-1.8 6.7-0.1 4.8 1.4 4.1-1.2 1.6-1.2 0.2 5.3 7.4 11z" data-id="SVN959" data-name="Kungota" name="Kungota"/><path id="SVN960" d="M614.4 312l0.5 3.1-1.3 2.8-2.5 1.8-0.7 0.9 0.4 1.2 1.2 0.9 5.9-0.3 16.1-6.9 3.7 6.2-0.5 4.4-2 3.9 1.2 6.3 3.8 12.6-1.2 4.8 0.3 3.9-0.8 2.5-2.8 5.3-16.4 1.6-4.5 1.8-3.3 2.6-1.6 0-1-1.3-0.9-4.4-1.4-2.1-2.5-1.6-4.7-1.7-16-0.2-3.1 0.7 0 1.7 2.3 2.7 1.2 2.8-0.9 2.6-12.2-14.5-4.2-2-2.1-2.1-0.4-2.2 0.9-1.5 1.2-0.2 3.9 2.2 3.8 1.4 3.7-2.4 1.1-1.6 0-2.4-2.6-5.9-2.7-4.2-3.9-4.8-7.8-5.8-1.2-2.7-5.6-7.4 20-0.5 8.7-1.7 4-4.6 0.6 2.4 3.4 0.5 6.2-2.5 2.8 0.1 2.3 1.6 11.6 2.2z" data-id="SVN960" data-name="Laško" name="Laško"/><path id="SVN961" d="M518.9 344l1.5 9.2-0.9 2.5-1.3 2.3-1.5 1.4 0.1 1.8 1.1 6.1 1.5 2.9 0.3 2.4 4.6 1.3 3.1-0.4 14.2-4.7 1.1 5.1 1 2.3 5 3.8-0.2 4.3 7.2 12.1-4.4-0.3-1.6-0.9-2.5 0.3-3.2 2.3-7.7-0.4-4.5 0.7-0.9 3-0.4 3.8-1.4 3.7-2.5 3.3-7.7 2.7-5.6-3.7-4.4-1-4.4-0.2-1.4-8.6-4.5-11.1-7.3-6.7-7.4-9.8-7.5-7.1-6.8-1.4-12.2 6.1-17.1-3-5 0.3-3.4-1.8-0.6-1.7-3.5-2.8 10.2-5.1 1.7-1.2 1.3-3.2 16.5-7 9.1-9.8 1.4 3.4 13.5 0.1 2.7 0.7 1.1 1.4 0.1 1.5-0.8 3.6 0.2 2.1 3.5 6 2.5 1.3 2.3-0.5 3.9 0 5.1-1 1.4-0.5 2.5-1.7 2.9-3.5 2.5-1.6 7.5-3.1z" data-id="SVN961" data-name="Litija" name="Litija"/><path id="SVN962" d="M367 337.9l6.1 7.4 9.4 3.8 7.2 1.1 0.7 4 0.5 3.8 6.2 3.8 5.6 1.5 7.7-0.5 6.5-2.2 1.9 0.4 2.6 1.8 6.4-0.7 3.5 2.8 0.6 1.7 3.4 1.8-0.9 3.4 0 2-0.6 1.4 2 2.7 1.9 2.1 1.6 2.7 0.8 2.8-1.1 2.5 0.6 9-3 2.2-4.9-2.6-3-2.5-1.7-0.8-2.7 0.1-4.7 2.6-1.2 2.2-1.9 1.9-5.1 2.9-9.5 0.3-4.6-3.4-9.2-8.6-7.6-1.5-6.7 1.1-2.1 1.5 0.2 4.3-0.8 6.1-6.4-3.5-3.3 0.1-7.1 2.7-1.9 4-9.3 4.1-3-2.7 0.1-3.1 2.3-3.3 2.8-2.6 1.8-2.6-0.7-1.9-3.9-2.9-4.5-6 3.4-2.1 0.4-3.3-0.3-4.3-1.7-4.7-0.7-1.1-2.6-7-1.1-1.3-1.8-0.7-2.1-0.1 7-5.2 1.6-0.6 0.7-0.8-2.1-3.3-1-1.9-1.1-3.1-1.2-0.9 0.6-2.6 1.3-1.5 2-0.9 4.2 0 4.5-2.6 2.8-4.3 2.2 2.1 3.5-0.3 8.4-2.7 2.1 6z" data-id="SVN962" data-name="Ljubljana" name="Ljubljana"/><path id="SVN963" d="M484.6 204.3l2.9 2.8 0.4 10.9-6.5 19 0 6.8-4.6 10.2-6-0.3-11.9-9.6-3.1-1.8-1-1.1-5.3 2.2 8.2-22.9 0.7-4.9-1.1-4.5-0.4-7.5 27.7 0.7z" data-id="SVN963" data-name="Ljubno" name="Ljubno"/><path id="SVN964" d="M262.4 387.1l1.9 7.6 3 0.8 7.6 5.1-0.4 0.9-2.8 1.8-1.3 6.3 0.5 3.4-1.4 2.7-0.6 2.2 1.1 2.1 1.4 0.9 1.5-0.1 2.1 0.9 2.8 2 6.8 6.9 8 10 4.3 9.8-7.2 18.1-17.3-7.6-7-4.4-6.6-1.4-16.8 3.1-1.6-4.6-3.8-10.3-1.5-2.2-1.1-3.5-0.1-3.5 0.4-4 2.2-4.3 2-5.3 0.4-4.6-0.7-2.1-1.4-0.5-0.3-0.9 0.7-1.8 3.1-2.5 2.6-2.7 2.7-3.5 0.4-6.2 10.3-6.6 5-8 1.9 1.4-0.8 4.6z" data-id="SVN964" data-name="Logatec" name="Logatec"/><path id="SVN965" d="M384.6 518.8l7.3 2.7 6.5 0.3 3.2 1.9 1.6 1.9 3.7 5.9 6.6 8.2 2.9 2.8 10 3.5 4 2.6 3.4 1.1 1.2 3.6 0 3.3-1.1 2.3-1.6 4.2-5 4.4 4.1 14.1-13.7 9.4-5.3 2.7-4.3-2.1-10.8-8.7-4.1-4.3-3-5.7-0.2-6.1 0.3-8.3-0.7-7-3.4-2-3.8 1.6-0.3-1.1-3-6.6-0.6-5-6.1-19.1 4-1.8 1.7 1.6 6.5-0.3z" data-id="SVN965" data-name="Loški Potok" name="Loški Potok"/><path id="SVN966" d="M464.6 325.1l-7.6-2.2-10.3-1.5-13.4 2.8-5.9 4.8-8.6 3.6-2.5-3.1-3.7-1.4-1.9-2.5-2.2-1-0.3-1.5 0.6-2.6 3.5-7 6.2-6.2 10.4-1.4 6.1 2.1 4.3 0.8 6.7 0 5.1-1.8 35.8-4 0.9 8.1-2.9 5.3-2.2 0.9-20.8 2.5-0.6 1.4 2.2 1.3 1.1 2.6z" data-id="SVN966" data-name="Lukovica" name="Lukovica"/><path id="SVN967" d="M350.8 332.8l-2.8 4.3-4.5 2.6-4.2 0-2 0.9-1.3 1.5-0.6 2.6 1.2 0.9 1.1 3.1 1 1.9 2.1 3.3-0.7 0.8-1.6 0.6-7 5.2-11.6-3.3-6.8 3.1-3.9-1.7-1.6-1.6-2.5-3.5 1.7-6.9-0.8-2.4 0.9-3.8 2.2-3.5 6.2-5 3.7-0.8 2.7-1.4 2.1-3.6 3.1-1 6.5-4.7-1-2-1.5-7.7 16.5-0.7 3.4 22.8z" data-id="SVN967" data-name="Medvode" name="Medvode"/><path id="SVN968" d="M389.1 311.9l-2.1 5.8 2 13.2-22 7-2.1-6 3.2-2.2 1.2-3 2.9-2.1 0.3-5.8 14.2-11-0.9 2.6 3.3 1.5z" data-id="SVN968" data-name="Mengeš" name="Mengeš"/><path id="SVN969" d="M608.3 593.1l-0.6-0.7-3-1.4-3-2.8-1.7-3.1-1-2.3 0.1-1.1-1.3-0.7-3.1 0.9-4.9-1.7 0.4-3.7 3.6-0.2 1.7-0.9 2.3-1.9 3.1-3.1 0.9-1.8 1.1-3.3 1-1.4 1.2-0.9 2.3-0.2 1.4-2.3 0.2-3-3.1-5.9-3.1-4.5-4.4-3.7-4-8.9-0.6-0.8-2.6-0.1 6.9-5-0.3 0.9 0.6 1.9 2.3 1.2 3.1 3 3.1 6.1 1.7 2.2 2.8 2.1 4.1 1.5 1.3-0.9 0.5-1.8 1.4-1.2 3.8-1.1 1.2-0.6 1 0.9 5.7 6.6 5.2 8.6 1.7 4-6.5 0-4.4 1.5-4 2.1-9.3 3-1.8 3.4-1.2 3.5-2.1 1.9-4 2.1 0.3 3.7 2.3 4.9 1.7 5z" data-id="SVN969" data-name="Metlika" name="Metlika"/><path id="SVN970" d="M487.1 167.1l-1.5 3.1-2.7 0.6-4.1-0.4-6.9-2.3-6.4-5.2-5.8-1.7-5.2-1 3.3-7.6 2.4-7.1 3.5-0.6 6.8 0.2 1.9-0.6 3.2 0.7 1.2 2.2 1.8 0.9 1.7 1.5 0.1 2.2 1.1 3 3.2 3.4 2.2 1.8 1.2 1.3-1 5.6z" data-id="SVN970" data-name="Mežica" name="Mežica"/><path id="SVN971" d="M617.8 172.6l1.1 4.8 0.7 5.7 2.1 3.1 0.8 2.1-0.7 3.3-8.5 0.6-5.3 1.5-2.4 1.6-2.1 2.7-4.1 10.7-6.8 9.9-13.4 1.9-4.6-2.6 0.1-3.8-0.2-3.1-1.7-0.8-2.6-0.8-2.1-0.1-10-4.2 3.6-10.1 3-0.6 1.6-2.1 0.5-4.8 3.5-3.5 7.6-11.1 3-8.8 8.6 6.5 4.9 1 6.4-0.4 17 1.4z" data-id="SVN971" data-name="Mislinja" name="Mislinja"/><path id="SVN972" d="M464.6 325.1l3.8 5.2-0.3 3.4-1.5 2.1-9.1 9.8-16.5 7-6.1 0.5-2.7-0.6-1.5-2.7-1.8-1.7-3.9-0.7-5.2-2.6 0.7-3.8-1.9-1.2-2.6-2.1-0.2-2.8 3-2.3 8.6-3.6 5.9-4.8 13.4-2.8 10.3 1.5 7.6 2.2z" data-id="SVN972" data-name="Moravce" name="Moravce"/><path id="SVN973" d="M518.9 225.6l-0.4 9.8 0.5 2.7 2.6 5.9-2.7 1.9-3.1 4.8-0.5 2.6-1.2 2.2-4.5 4.2-1.3-7.2-2.1-2.7-1.9-0.5-1.9 0.9-7.3 6.3-15.1 4.1-3.2-6.6 4.6-10.2 0-6.8 6.5-19 11.9-3.4 3.2 2.1 4.2 1.1 2.8 0.4 4.4-1.1 2.5 0.6 2.1 1.9 0.7 1.8-0.8 4.2z" data-id="SVN973" data-name="Mozirje" name="Mozirje"/><path id="SVN974" d="M573.6 104l0.3 1.6 2.6 3.8 0.7 1.9-0.1 2.8-9.2 7.3-4.6 1.8-4.5-0.7-6.7-4.8-3.5-6.4-1.5-4.1-1-6.2 27.5 3z" data-id="SVN974" data-name="Muta" name="Muta"/><path id="SVN975" d="M509.6 259.7l-0.1 8.8-4.2 0.3-2.1 0.6 0 1.8-1.5 1.5-6.3 2.6-2.4 1.7-3.3 0.2-2.4 0.7-0.8 2.1 0 2.1-4 6.3-9.6-5.7 0.9-7.3 1.4-4.7 3.1-4.2 1.7-5.9 15.1-4.1 7.3-6.3 1.9-0.9 1.9 0.5 2.1 2.7 1.3 7.2z" data-id="SVN975" data-name="Nazarje" name="Nazarje"/><path id="SVN976" d="M763.1 107.3l-3.2 8.9-0.9 5.6 0.7 6.8-1.7 6.8-3.1 2.2-7.7-0.4-6.8-4.7-6.1-6.1-10.4-0.6 5.5-4.4-5.9-18.1 8.5-1.5 1.7-1.3-0.4-1.6 0.6-2.2 2.1-4 0.9-3.4 1.1-1.5 2.3-0.2 1.8 0.6 3.8-0.3 4.5 1.3 1.5 1.4 0.7 1.3 0.4 2.5 1.8 2.1 1.4 1.1 1.2 1.5 1.1 2 1.4 1.6 3.2 4.6z" data-id="SVN976" data-name="Pesnica" name="Pesnica"/><path id="SVN977" d="M324.4 531.5l2.3 8.2 7.4 8.5 2.9 4.1 0.1 8-15.1-3.6-3-3.5-6.9-5.7-4.6 0.1-1.3 0.6 0.7 1.4-0.8 1.7-3.6 2-9.9 2-12.4 4.9-2.7 1.6-3.6 3.3-3.5 0.9-6.8 0.8-13.4-0.8-7.7 0.5-5.5 1.9-2.3 1.5-3.9-0.7-3.4-1.6-0.1-0.8 1.1-2.7-1.6-4.5-1.6-3.4-1.2-3-0.2-6.3-1.3-2.8-0.6-3.1 0.7-3.2 2.2-4.1 3.6-1.8 3.3-3.5 7.5 3.4 5.3 1.4 5.1 0 7.1-1.4 9.3-4.3 5.7-0.4 11.7-4.4 4.7-3.6 16.4-8.8 1.4 6.5 18.5 14.7z" data-id="SVN977" data-name="Pivka" name="Pivka"/><path id="SVN978" d="M289.7 468.5l0.9 4-6.3 16.3-0.4 4.9 3.6 6.5 5.7 6.1 3.7 2.6 7.6 1.4-16.4 8.8-4.7 3.6-11.7 4.4-5.7 0.4-9.3 4.3-7.1 1.4-5.1 0-5.3-1.4-7.5-3.4-3.7-9.1-3-4.1-11.1-8 2-5.4 1.7-2.4 1-8.6 2.1-5.3-4-12.8 14.9-5.5 1.1-1.3 9.3-7.7 16.8-3.1 6.6 1.4 7 4.4 17.3 7.6z" data-id="SVN978" data-name="Postojna" name="Postojna"/><path id="SVN979" d="M743.7 185.3l2.4 2.3 2 4.7-0.5 2.9 4 6.9-14.9 9.1-6.3-6.9-4.5-2.2-3.7-1.2-0.5-1.6-26.3-15.7-2.9-2.7-0.7-4 8.1 0.9 4.9 2.1 8.3 0 7.6 3.7 3.2 2.7 2.2 1 1.5 0.3 5.5-0.2 3.4-0.9 7.2-1.2z" data-id="SVN979" data-name="Race-Fram" name="Race-Fram"/><path id="SVN980" d="M570.7 356.1l12.2 14.5 0.8 3.6 1.8 1.8 2.6 0.7 2.1 1 4.5 3.8 0.3 1.5-1.7 1.4-4.5 0.5-24.1-5.9-16 1-5-3.8-1-2.3-1.1-5.1 5.5-1.4-0.4-4.5 3.1-0.8 1.4-0.9 1.4-5.6 7 3.5 11.1-3z" data-id="SVN980" data-name="Radece" name="Radece"/><path id="SVN981" d="M604.6 135.7l-15.9 10-1.7 1.6-1.4 1.9-0.4 3.6-3.1 2.9-6-2.2-1.6-3.9 0.2-2.3 0.7-3.1 1.7-3 1.2-3.8-0.2-1.9-0.9-1.9 3.8-1.1 1.8-1.1 2.6-4.6 0.5-2.6 0-1.9-0.7-1.5-1.9-1.5-1.9-0.7-1.7-1.3-2.6-3.2 0.1-2.8-0.7-1.9-2.6-3.8-0.3-1.6 10.2 1.1 40.6-2.1-0.1 3.9-1.1 7.3-2.6 2.1-5.2 2.5-2.1 0.7-4.3 4.2-4.4 12z" data-id="SVN981" data-name="Radlje ob Dravi" name="Radlje ob Dravi"/><path id="SVN982" d="M735.9 273l6 4.5 11.9-0.8-6.2 3-1.7 1.2-2.5 2.3-2.2 4.6-3.1 2-4.3 8-0.1 2.5-5.3-0.4-6.8 3.5-4.2 5.7-4.2-4.1-1.9-7.2-1-1.2-2.3-1.3-3.5-4.9-6.3-17.2 1.7-2.6 1.8-1.1 3.5-1.1 6.6 0.1 14 4.7 10.1-0.2z" data-id="SVN982" data-name="Rogaška Slatina" name="Rogaška Slatina"/><path id="SVN983" d="M759 278.5l13.2 6.2-3.3 2.5-6.4 10.9-6 3.9-22.8-1.7 0.1-2.5 4.3-8 3.1-2 2.2-4.6 2.5-2.3 1.7-1.2 6.2-3 5.2 1.8z" data-id="SVN983" data-name="Rogatec" name="Rogatec"/><path id="SVN984" d="M590.2 576.5l-5.8-2.9-5.7-1.1-4.7-0.2-5.7 3.2-1.6 1.8-1.5 2.6-1.5 1.1-2.6 0.9-8.8 0.8-10.1-3.4-5.4-2.2-6-11.1 1.1-9.1 1.3-2.6 5.9-8.3 2.9-3.1 3.7-1.8 5.8 0.8 7.4 1.2 9.5-0.6 4.9 0.4 4.1-0.4 2-0.6 11.8-8.3 2.6 0.1 0.6 0.8 4 8.9 4.4 3.7 3.1 4.5 3.1 5.9-0.2 3-1.4 2.3-2.3 0.2-1.2 0.9-1 1.4-1.1 3.3-0.9 1.8-3.1 3.1-2.3 1.9-1.7 0.9-3.6 0.2z" data-id="SVN984" data-name="Semic" name="Semic"/><path id="SVN985" d="M348.7 304.1l1.5 3.3-2.8 2.6-16.5 0.7-5.6-11.6-1.5-2.1-0.3-1.3 0.4-2.7 2.5-4.6 3.1-12 4.1-5.7 0.7-4.5 15.8-1.3-2.3 3.3-1.3 1.3-1 1.6-1.1 0.9-1.7 4.2-0.5 5.4 0.3 10.3 0.4 4.4 5.8 7.8z" data-id="SVN985" data-name="Šenčur" name="Šenčur"/><path id="SVN986" d="M767.5 71.3l0.6 1 5.7 4.7-0.2 8-1.2 2.9-0.3 2.6-2 2.3-0.1 2.2 0.6 2.8 1.8 3.6-6.9-0.6-1.6 2.3-0.8 4.2-3.2-4.6-1.4-1.6-1.1-2-1.2-1.5-1.4-1.1-1.8-2.1-0.4-2.5-0.7-1.3-1.5-1.4-4.5-1.3-3.8 0.3-1.8-0.6-2.3 0.2-1.1 1.5-0.9 3.4-2.1 4-0.6 2.2 0.4 1.6-1.7 1.3-8.5 1.5-7.4-11-0.2-5.3 1.7-1.3 1.9-4-0.1-5.9 1-7 5.1 3.1 24.3 3.6 8.4-0.5 9.3-3.7z" data-id="SVN986" data-name="Šentilj" name="Šentilj"/><path id="SVN987" d="M655.1 500.5l-0.2 0.2-31.1 10.3-0.2-1.3-3.1-12.3-7.4-11.3-5.7-5.9-1.7-4.4-0.8-5.4 1.6-3.9 1.4-2.4 7.3-4 8.1-4.6 3.3 1.7 0.5 1.1 2.1-0.6 2.4-2 1.7-4.3 8.6 3.2 2.3 8.8 0.4 9.9 0.9 5.4 0.5 6.2 7.3 13.7 1.8 1.9z" data-id="SVN987" data-name="Šentjernej" name="Šentjernej"/><path id="SVN988" d="M635.7 365.4l15.8 4.1 0.6 6.1-0.3 1.6-0.9 2.1 0 3.9 0.8 3.4 1.1 3.6 1.7 2.4 0.6 2.6-0.1 2.9-1.7 3-11 11.1-5.7 8.5-2.7 7.4-5.2-4.4-1.3-3.2-2.5-1.3-2.3-0.7-3.2-0.6-6.8 0.5-1.9 1-1 0.9-0.5 2.9 0.5 2.3-0.8 2.2-1.5-0.2-4.2-4-2-0.1-0.7 0.5-0.7 2.5-5.4 2.9 0.1 3.6-11.1-6-7.2-6.4-4.7-5.9-2.2-4.5 0.3-2.8 1-1.9 1.4-1.8 0.4-2.6-0.8-0.8-3 0.9-1.7 1.3-2.5 0.9-2-1-1.3-2.3-5.4-3.6-7.2-12.1 0.2-4.3 16-1 24.1 5.9 4.5-0.5 1.7-1.4-0.3-1.5-4.5-3.8-2.1-1-2.6-0.7-1.8-1.8-0.8-3.6 0.9-2.6-1.2-2.8-2.3-2.7 0-1.7 3.1-0.7 16 0.2 4.7 1.7 2.5 1.6 1.4 2.1 0.9 4.4 1 1.3 1.6 0 3.3-2.6 4.5-1.8 16.4-1.6z" data-id="SVN988" data-name="Sevnica" name="Sevnica"/><path id="SVN989" d="M633.9 428.1l-2.8 8.4-0.3 7.7-0.8 3.5 3.3 3.7-1.7 4.3-2.4 2-2.1 0.6-0.5-1.1-3.3-1.7-8.1 4.6-0.7-4.7 1.4-2.9-0.9-1.9-1.6-2.3-3.1-3.7-3.4-2.4-2.9-1.4-9.5-7.9-0.1-3.6 5.4-2.9 0.7-2.5 0.7-0.5 2 0.1 4.2 4 1.5 0.2 0.8-2.2-0.5-2.3 0.5-2.9 1-0.9 1.9-1 6.8-0.5 3.2 0.6 2.3 0.7 2.5 1.3 1.3 3.2 5.2 4.4z" data-id="SVN989" data-name="Škocjan" name="Škocjan"/><path id="SVN990" d="M397.3 399.9l-3 2.3-0.9-0.1-2 1.8-2.1 3.5 1.2 5.2 0.2 3.8-1.2 14.4 3 9.1-2 3.3-0.3 2.1-0.7 0.9-2-0.6-5.9-2.6-0.7-1.2 0.2-2.6-0.4-2.1-2.2-2.8 1.5-10.2-0.5-5.3-1.9-7.8-6.5-8.2 0.8-6.1-0.2-4.3 2.1-1.5 6.7-1.1 7.6 1.5 9.2 8.6z" data-id="SVN990" data-name="Škofljica" name="Škofljica"/><path id="SVN991" d="M578.7 161.2l2.2 2.9-3 8.8-7.6 11.1-3.5 3.5-0.5 4.8-1.6 2.1-3 0.6-3.6 10.1-3.7-4.1-4.2-1.4-2.1-0.1-0.9 3.5-28.3-9.4-13.8-6 2.9-13.6 6.7-2.9 1.7-1.3 2-3.3 1.2-3.9 0.5-8.1 2.1-8.6 4.5 5.7 1.1 0 2.6-1.6 4-1.4 3.6 1.4 1.3-0.3 1.5-1.6 0.6-2.1 10.3-9.1 3.1 4.7 4.4 3.7 3.4 4.8 1.7 3.6 14.4 7.5z" data-id="SVN991" data-name="Slovenj Gradec" name="Slovenj Gradec"/><path id="SVN992" d="M678.3 233.8l6.8 4.1 2.5 0.3 2.7 2.4 2.2 5 2.3 11.5 0.9 7-1.7 7.2-7.2 0.5-5.7-2.9-1.8 1-2 0.3-32.9-10-6.2-4.3-2.1-1.9-0.6-1-1.1-3 1.4-4.5 4.2-8.1 1.9-2.1 1.8-1 2.4 0.6 2 1 1.4 0 4.1-7.5 9.1 5.2 2.5 0.8 13.1-0.6z" data-id="SVN992" data-name="Slovenske Konjice" name="Slovenske Konjice"/><path id="SVN993" d="M698.2 273.2l6.3 17.2 3.5 4.9 2.3 1.3 1 1.2 1.9 7.2-10.9 11.4-3.6 6.7-7 4.4-4.2-2.9-1.8 0.6-3.1 0.3-3.6 1.1-4.5-1.7-2.4-2.4-1.6-3.4-0.7-2.6-5.7-8.8-2.6-6.8-0.9-3.8 0.2-2.1 3.5-4 5.5-4 3.7-1.7 4.7-3.2 3.9-5 1.9-1.7 1-1.5 1.8-2.1 7.2-0.5 4.2 1.9z" data-id="SVN993" data-name="Šmarje pri Jelšah" name="Šmarje pri Jelšah"/><path id="SVN994" d="M540 237.4l-2 6.7-0.2 5.6-0.5 4.7-2.1 3.4-4.5-7.9-9.1-5.9-2.6-5.9-0.5-2.7 0.4-9.8 4.4 5.9 8 4.1 8.7 1.8z" data-id="SVN994" data-name="Šmartno ob Paki" name="Šmartno ob Paki"/><path id="SVN995" d="M547.2 203l-0.5 12.2-1.7 6.3-4 6.6-1 9.3-8.7-1.8-8-4.1-4.4-5.9 0.8-4.2-0.7-1.8-2.1-1.9-2.5-0.6-4.4 1.1-2.8-0.4-4.2-1.1-3.2-2.1-11.9 3.4-0.4-10.9-2.9-2.8 15.9-7.5 4.4-3.4 0.2-5.8 13.8 6 28.3 9.4z" data-id="SVN995" data-name="Šoštanj" name="Šoštanj"/><path id="SVN996" d="M766.5 184l4.6-0.7 2.8 1.1 4.4 5.6-4.2 2.6-0.5 1.9 0.6 3.4-1.7 2.7-5.7-1.4-4 1.7-5.6-0.6-5.6 1.8-4-6.9 0.5-2.9-2-4.7 5-6.7-1-2.6-0.6-2.8-1.4-2.5 0.4-1.4 2.7-3.9 1.5 4.4 1.4 1.7 2.6 0.9 1.9 1 7.9 8.3z" data-id="SVN996" data-name="Starše" name="Starše"/><path id="SVN997" d="M626.5 293.6l7 3.1 1.5 4.3-0.7 2.9-0.3 11.6-16.1 6.9-5.9 0.3-1.2-0.9-0.4-1.2 0.7-0.9 2.5-1.8 1.3-2.8-0.5-3.1 2.7-2.2-0.5-2.6 0-8.6 1.8-2.1 2.5-1.7 3.3-1.5 2.3 0.3z" data-id="SVN997" data-name="Štore" name="Štore"/><path id="SVN999" d="M555.7 396.4l5.4 3.6 1.3 2.3 2 1 2.5-0.9 1.7-1.3 3-0.9 0.8 0.8-0.4 2.6-1.4 1.8-1 1.9-0.3 2.8 2.2 4.5 4.7 5.9 7.2 6.4 11.1 6-3.5 6.9-0.2 2 0.6 4.1-3.5 7.3-2.5 2.7-4.2 1.8-3.8 1.1-12.6-2.7-5.3-2.3-1.6-1.5-1.9-1.2-1.6-1.9-2.1-1.5-1.1-1.4-1.4 0.1-1.1 0.8-1.7 3-1.8 2-2.7 0.8-4.4 1-3.2 2.4-2.2 2.6-1.8 2.7-0.2 9.2-3.6 1.3-2-0.8-1.3-2.3-4.9-2-6.6 3.2-3.8-0.8-2.6-1.9-1.3-2.4-0.6-2.6-1.3-2.1-3.2-2.3-2.9-0.9-16.6 0.5-1.8-3.6-0.9-4.5 1.7-5.2 1.5-11.9 1-3.5 2.2-4 6.3-3.6 5.9-6.3 3.9-1.4 4.7-4.1 4.4 0.2 4.4 1 5.6 3.7 7.7-2.7 2.5-3.3 1.4-3.7 0.4-3.8 0.9-3 4.5-0.7 7.7 0.4 3.2-2.3 2.5-0.3 1.6 0.9 4.4 0.3z" data-id="SVN999" data-name="Trebnje" name="Trebnje"/><circle id="0" cx="257.5" cy="597.8"/><circle id="1" cx="410" cy="481.2"/><circle id="2" cx="629.8" cy="245.8"/></svg>