<svg xmlns="http://www.w3.org/2000/svg" width="1000" height="424" fill="#7c7c7c" stroke="#fff" stroke-linecap="round" stroke-linejoin="round" stroke-width="2" baseprofile="tiny" version="1.2" viewbox="0 0 1000 424"><path id="TUR2229" d="M79.7 308.9l-0.2 0.5-1-2.1 0.5-0.2 0.2 0.3-0.2 0.4 0.7 1.1z m74.9 6.2l-6.9-0.9-3.8-2.1-3.2-2.7-3.8-0.8-2.8 1.9-1.9 3.7-2 1.6-6.3 0.5-3.7-0.2-2.2-1.1-2.4 0-2.4 0.6-2.3-0.4-3.7-2.5-4.2-0.6-2-0.8-1.9-1.2-1.7 0.1-1.6 0.9-0.7 1.1-2.8 6.1-0.6 1.1-0.9 0-0.8 0.5-0.5 0.8-0.2 0.9-0.6 0.6-1.2-0.1 0 0.5 0.7 0.5-0.3 0.3-3.1 0.2-0.7 0.3-0.6 0.5-0.7-0.8-0.4 0-0.3 0.3-0.2-0.7-0.6 0.1-0.7-0.3 0.5-0.6 0.4-0.6 0.1-0.7-0.2-0.8 1.1-0.4 0-0.5-0.5-1.2 0.3-3-0.9 0.3-0.3-0.4-0.4 0-0.7 0.8 0.2-1.1 0.3-1 0.1-1-0.3-1 0.2-0.4-0.4-0.7 0.2-0.7 0.8 0.5 0.5-1 0.1-1.5-0.1-0.7-0.8-0.3-3-2-4.6-1.2-1.9-1.1 0.5-1.3 0.9-0.3 3.5 0.3 1.1-0.2 4.5-1.6 0.7-0.5 1.2-1.5 0.4-1 0.2-1.5 0-1.5 0-0.8-0.9-1.2-0.3-0.7 0.1-1.3 0.8-0.8 0.3-0.8 3.6 0 4.2-1.7 6.3-4.2 2.7-0.4 12.8 1 12.1-3.3 10.1-0.1 1.8-0.7 1.8-1.1 2.1-0.6 2.1-0.3 8.2-3 7.1 0.2 0.6 1.5 0.7 1.4 2.9 2 0.6 2-0.1 2.2 0.8 4-0.4 1.4-1.2 0.9-0.1 1.7 1.1 1.5 0.8 1.7 1.1 1.7 3.4 0.7 0.5 1.5-0.2 1.8-1.6 1.2-2 0.1-2.4 3.4-2.8 2.7-4-0.5-3.7 1-1 2.5 0.6 2.5 1.1 0.6 0.4 0.9 0.3 0.9z" data-id="TUR2229" data-name="Aydin" name="Aydin"/><path id="TUR2230" d="M37.1 251.6l-0.1 0.7-0.5 0-0.8 0.3-0.2-1.3 1.6-0.8 0.3 0.6-0.3 0.5z m20.2-1.8l-0.6 0.4-0.4-0.4-0.1-0.3-1.2-0.6-0.3-0.3 0-2 0.4-1.4-0.1-0.6 0.6 0.1 0.6 0.5 0.4 0.8 0.1 1.8 0.7 0.7 0.1 0.5-0.2 0.8z m94.8 23.8l-8.2 3-2.1 0.3-2.1 0.6-1.8 1.1-1.8 0.7-10.1 0.1-12.1 3.3-12.8-1-2.7 0.4-6.3 4.2-4.2 1.7-3.6 0 0.2-0.8 0-0.6-0.2-0.6 0.7-0.7-0.4-1.4-1.4-2.5-1.4 0.5-1.9 0-1.9-0.3-1.2-0.6-0.8-1.2-1.4-0.3-0.3-0.2-0.2-1.3-0.5-0.4-1.5-0.2-2.7-1.1-1.4-0.1-1.6 0.3-1.5 0.6-0.4 1-0.4 0.2-0.5-0.3-1.1-2.4 0.2-0.8 0-1-0.3-1-0.3-0.9-0.5-0.9-1.2-1.1-0.5-0.7-0.9 0.5-0.2-0.8 0.1-2-0.7-0.6-0.8 0-0.9 0.4-1 0.2-3.3 0-0.5 0.2-0.7 4.3-0.4-0.4-0.3 0 0.2 1 0 0.8-0.3 0.7-0.6 0.3-0.4-0.3-0.6-1.7-0.5-0.8 0 1.4-0.5 0.1-0.7-0.5-1-1.1-0.4-0.6-0.1-0.6 0.2-1-1.4 0.4-1.3-1.1-1.3-1.4-1.3-0.6 0.4 1.4-0.4 0-0.3-0.4-1.1-1.2 0.2-1.3 0-0.6-0.2-0.6-0.4 0-0.4 1.8-1.1 0.4-1.3-0.4-1.7-1.5-0.5-0.3-2.7-0.8-0.1-0.5 0.3-1 1.4 0.6 0.6-0.9 0.5-1.2 1.1-0.3 0-0.5-1-0.7-0.1-1.2 0.4-0.7 0.7 0.8 0.2-0.9 0.5-0.4 0.2 0.8 0 0.7-0.1 0.6-0.5 0.6 0.6 0.3 1.1 0.2 0.2 0.6 0.3 0.2 0.8 0.1 0.7-0.2 0.4-0.4-0.5-0.8 0-0.5 0.9 0.6 0.9-0.1 0.6-0.3 2.5-1.7 0-1.3-0.4-1.4-0.9-0.8 0-0.5 1.3 0.7 0.7 0.7 0.4-0.1 0.8-1.7-0.7-0.5-1.3-1.1-1.1-0.4-0.7-0.7-0.5-0.1-0.4 0.3-0.5 0.9-0.3 0.2-1 0 0-0.3 0.5-0.7 0.3-1.3-0.2-0.8-1.3-1.9-0.1-0.8-0.6-2-0.1-0.9-0.6-2.5 0.2-1.9 0.2-0.8 0.5-0.3 0.8-0.1 1.2-0.6 0.5-0.2 1.4 0.1 1.3 0.4 1.2 0.5 0.9 0.8 1.8 2 0.8 1.2 0.3 1 1.2 1.9 1.3 1.8 1.1 1 0.3 0.8 0.1 0.7 0 1.3 0.3 0.7-0.7 0.4-0.5-0.4-0.5-0.1-0.6 0.2-0.6 0.3 0.9 0.5 0 0.6-0.5 0.8-0.4 0.9 1.3 0.2 0.5 0.7 0.3 1 0.6 1.1 0.9 3 0.8 1.5 1.2-0.4 0.2-0.9-0.3-0.6-0.8-0.6-0.4-2.7 0.3-1.2 0.6-1.1 0.8-0.7 0.8 0.2 0.4-0.4 0.6 0.7 0.6 1.2 0.9 2.7 1.1-0.5 0.4 0.8 0.8-0.1 0.9-0.4 0.9-0.3 4.2-0.4 2.5-1.3 1.1-0.3 1-0.8 0.5 0.1 1 0.3 0.6-0.4 0.4 0 1.4 0.7 1.2-0.8 1.2-1.3 1.5-0.8 0-0.5-0.5-0.4-0.6 0.4-0.3-0.5-1 0.5-1.8-0.2-0.4 0.2-1.4-0.6-1.4 0-3.2 1.4-1.1 0.5 0.3-0.8-0.9-0.7-1.5-2.5-0.8-0.5-1.3-0.4-0.5-0.3-1.1-0.9 0.1-0.4 0.9 0.7 1.4 0.9 0.8 0 0-0.5-0.6-0.7-0.6-0.7-0.8-0.5-0.8-0.4 0.2-0.7 0.3-1.7 0.2-0.8-0.8-0.7-0.4 0.2-0.6 0.5-1.1 0 0.4-0.9-1.1-0.4-0.7-0.1-0.7 0 0.3-1.3-0.6 0-0.5-0.3-1-0.7 0.8-0.7 1-0.2-1-1.6-0.4-0.8-0.4-1.2 1-0.7 2.7-0.6 1.5-1.1 0.7 0.6 1 0.1 1.2 0.5 0.8 0.3 0.8-0.1-0.4-0.9 1-0.8 0.4-0.1 0.4 0.5 0.2-1.1-0.2-1.2-0.3 0.5-1.1-1.9-0.4-0.4 2.1-1 0.4 1.5 0.8 0.1 0.6-0.8-0.7-1.7 0.9-0.3 0.8-0.4 0.7-0.6 0.5-0.5 1 0.7 1.2-0.7 0.4-1.1-1.2-0.3 0.9-1.8 0-0.7-0.9-0.7-0.9 0.8-0.5 0.4-0.6 0.1-1 0-0.3-0.2-0.5-0.9-0.3-0.2-0.6 0.2-0.5 0.3-0.3 0.1-0.5-0.6-0.6 0.5-1.8 1.1-0.7 0.2-0.5-0.3-0.8-1.2-0.8-0.3-1-0.7-0.5-1.6 0.1-1.6 0.8-1.2 0-0.4-1.1 0 0.7-0.8 1.2-0.9 1.3-0.8 1-0.3 0.5-0.6-0.4-1.3-1.2-2-1.5-1.9-0.7-0.5-1.6-0.9 11.2-8.1 1-1.1 0.9-1.6 1-1.4 1.5-0.9 1.6-0.6 9.5-6.2 2.9 0.6 2.3 2.1 1.5 3 2 5.2 1.7 8.1 0.9 2.4 1.9 3.6-0.4 3.6-1.4 1.6-3.4 2.9-3.3 1.3-2.9 2-0.6 2.4-0.3 2.6-0.9 2.2-1.6 1.7-1.5 2.4-0.2 1.4 1.4 1.5 0.8 0.3 1.2 1.6 1.4 4.6 3.1 2.6 3.7 0.4 5.8-0.1 1.1 0.1 1.6 1.6 0.8 3.7 3.7 2.5 4 1.9 0.5 1 0.6 2.1 0.4 1 2.2 2 2.6-0.6 1.3-2.2 0.8-2.1 2.5 0.1 2.5 1.2 1.6 0 1.6-0.5 2.1 2.4 1.4 3.3 5.1-0.8 2-0.6 1.4 0.2 1 1.2 1.8 0.6 1.2 0.1 2.4 0.6 1.4 1.9 2.2 6.8 2.3 3.5z" data-id="TUR2230" data-name="Izmir" name="Izmir"/><path id="TUR2238" d="M103.8 114.4l0.5 0.5 0.6 0.1 0 0.6-0.6 0.1-0.7-0.4-0.9-0.2-0.9-0.1-0.8-0.5-0.1-0.8 0.6-0.5 0.4-0.9 0.4-0.6 1.8 0.8 0.1 0.5-0.3 0.6-0.1 0.8z m29.9 4.6l-0.3 0.5-2.5 3.8-1.5 1.3-1.4 1.4 0.4 2.3 1.2 0.4 1 2.2-0.5 1.2-0.7 1.1-0.7 2.6 0.3 1.4 0.9 2.5 1.9 3.1 2.9 2 0.9 1.7 1 4.8 0.9 2.1 13.8 10.2 4.1 0.5 1.2-1.1 1.3-0.7 0.8 1.2-0.2 1.4 0.1 1.8 1 1.7 0.3 0.8 0.6 0.4 1 0.1 0.7 0.5 1.3 2 2.1 0.3 2.4-0.5 2.4 0.1 1.6 0.8 1.2 1.3-1 2-0.3 1.3 0 1.3-0.4 0.9-0.6 0.6-0.7 1.9-0.7 4.8-1.2 2-1.2 1.5-0.4 1-1.6 2.9-1.7 1.2-3.8 1.3-2 1-0.5 2.3 0.3 0.8 0.1 1.7-0.3 0.7-4.6-0.7-4.8 2.5-1.9 0.5-2 0.2-2.2-0.2-2.2 0.4-1.4 1.9-1.9 1.2-2.3 0.4-2.2 1-2.4-0.9-2.6-6-4.3-4.7-0.4-1-0.8-0.4-3.9 1.4-2.1-1 0.6-2.3 1.6-2.8-1.3-2.2-0.8 0.1-1.7 0.3-0.8-0.1-2.1-1.1-2.1-0.1-3.7 0.5-3.7-1.1-2.2-1.8-2.4-1.2-4 2.1-1.5-3-2.3-2.1-2.9-0.6-9.5 6.2-1.6 0.6-1.5 0.9-1 1.4-0.9 1.6-1 1.1-11.2 8.1-0.4-0.2-1.1-0.8-0.7-0.8 0.1-0.7-0.4-1.4-0.3-1.3-0.4-1-0.9-0.5-2.5 0.2-1.2-0.1-1.1-0.5 0.5-0.5 0.3-1.4 0.4-0.7 0.7-0.2 0.5 0.3-0.1 0.4-0.9 0.2 0 0.5 0.6-0.1 0.9 0.6 0-0.6 0.3-0.6 1.1-0.6 0.9-1.4 5.5-4.3-0.7-0.4 0.1-1.3-0.1-0.6 1.9-0.1 0.7-0.3 0.6-0.5-0.5-1 0.8-0.6 3-1 0.2-0.1 0.1-1 0.7-2.5 0-1.5-0.4-0.9-0.8-0.5-1.5-0.2-1.2 0.5-0.9 1-1 0.4-1.3-0.9-7.4 1.3-0.1-5.5 1.7-5.3 2.1-0.4 4.7 0.6 2.2-0.8 2-1.6 3.7-1.6 2.2-1.8 2.5 0 1.6 0.2 1.4-0.8 3.9 0.7 3.8 1.3 2.2-0.9 2.1-1.5 2.2-1 2.1-1.5 1.1-2.6 0.9-2.8 0.3-2.7-0.9-0.8-0.9-1.4 0.5-1.2 0.4-0.5 0.6-1.5 0.2-1.9 0.7-2.2 0.3-1.3-0.2-0.4-0.9-0.2-2.1-0.8-1-2.1 0.6-0.5 0.8-0.3 3.6-3.8 2.5-1.5 0.6-3-0.2-0.7 1.3-0.8 0.8-0.2 1.5 0.3 1.3 0.6 1.2 0.3 1.2-0.8 1.1 0.5 1.5 0.2 1.5-0.4 1.2-1.8 2.8-1.5 0.8-1.2-0.9 0-2.6-0.9-0.8 0.4-0.4 0-0.3-1.3-0.7-0.3-0.3-0.2-0.6-0.9-0.1-1.2-0.2-0.5-0.9-0.1-0.4-0.2-1.7-1.7-0.4-0.6 0-0.5 0.6-0.2 0.5-0.4 0.8-1 0.6-0.3 0.9 0.4 0.5-0.8 1 1.2 0.5 0.3 0.3-0.4 0.5-0.2 8.6 1.4 2.4 0.8 1 1.2-0.9 1.6-4.5 2.3-1.4 1.2 0.2 1.7 1.9 0.6 4.4-0.4 4.4-1.7 5-0.2z m-30.1-18.1l1.4 0.7 0.8-0.3 1.5 0.3 1.3 0.7 0.3 1.2-1 0.7-1.9 0.3-1 0.4-1.8 1.5-1 0.4-1.1-0.5-0.6 0-1-0.5-0.9-0.7 0.2-1.5-0.7-1.1 0.3-0.7 0.7-0.7 0.3 0.2 0.2 0.7 1.3-0.7 1.3-0.4 1.4 0z" data-id="TUR2238" data-name="Balikesir" name="Balikesir"/><path id="TUR2239" d="M20.6 156.8l0.8 0.2 0.3 0.3 0.9-0.4 0.3 0.6-0.1 2.4-0.3 1-0.9-0.1-1.7-1.1-1.5-0.8-0.7-0.5-0.3-0.8 0.4-0.6 1-0.2 1.8 0z m-4-21.2l0.5 0.2 1-0.2 0.8-0.7 0.3 0 0 1.4-1.2 0.7-1.1 0.4-3.5 0.5-2.3 1-4.7 0.8-1.1-0.1-1.3-0.5-0.6-0.3-0.3-0.4-2.1-0.7 0-0.4 1.2-2 1.7-1.8 2.1-1.3 3.5-0.7 4.5-1.7 0.7-0.1 0.6 0.1 1.1 1.3 0.7 0.1 0 0.5-0.2 1.4 0 0.9 0.2 0.5-0.5 1.1z m83.9-10.9l0.2 0.7-0.6 3-2.5 1.5-3.6 3.8-0.8 0.3-0.6 0.5 1 2.1 2.1 0.8 0.9 0.2 0.2 0.4-0.3 1.3-0.7 2.2-0.2 1.9-0.6 1.5-0.4 0.5-0.5 1.2 0.9 1.4 0.9 0.8-0.3 2.7-0.9 2.8-1.1 2.6-2.1 1.5-2.2 1-2.1 1.5-2.2 0.9-3.8-1.3-3.9-0.7-1.4 0.8-1.6-0.2-2.5 0-2.2 1.8-3.7 1.6-2 1.6-2.2 0.8-4.7-0.6-2.1 0.4-1.7 5.3 0.1 5.5-10.9 2-1.2 0.5-0.5 0.6-0.6 0-2.3 1.3-0.4 0.3-0.6 0-2.7-0.5-0.6 0.1-0.7 0.3-0.5 0.1-0.7 1.1-1-0.6-4.1 1-2.1 0-2-1-0.2-1.5 1.3-3.5 0.8-3.4 2-1.9 0.4-1.6 0.4-3.7-0.2-0.7-1-1.9-0.2-0.9 0-0.6 0.5-0.4 0.2-0.4 0-1.6 0.2-1.8-0.1-0.6-0.8-0.2 0.3-0.7 0.7-3.4-0.3-1.8 0-0.6 0.1-0.6 0.5-0.9 0.3-1.2 1.1-1.9 0.5-0.5 2.7 0.9 0.9-0.5 1.7-0.8 0.6-0.3 2.2-2.3 0.4-0.7 0.2-0.6 0-0.9 0.3-0.7-0.1-0.5 0.8-0.1 0.5-0.3 0.3-0.8 0.2-1.3 0-1.3-0.4-1 0.4-1 0.2-0.4 1-0.1 0.8-0.1 1.3-0.7 1.8-0.4 0.9-0.9 2.3-3.1 0.5-0.3 1.2-0.5 0.6-0.5 5.6-6.9 1.1-0.9 2.1-0.1 4.5 0.4 1.8-0.5 0.6 0.2 1.4 0.8 2.9 0.2 1.2-0.2 1.4-1.2 1.3-1.6 1.6-1.3 2.4-0.1 1.8 0.3 2 0.1 1.2-0.3 1.7-1.1 0.8 0 0.9 0.6 0.5 1 0.8 2.1-0.7 0.5-0.6-0.3-0.5 0.3 2.3 2.5 2.9 1.9 3.1 1.4 3.7 0.9 1.4 0 0.6-0.1 0.5-0.4z m-31.7-16.8l-0.7 0.1-2 0.6-3 1.9-0.8 0.8-0.9 0.6-3.3 0.5-0.9 0.6-1.7 1.4-0.7 0.3-0.6 0.5-0.5 2-0.5 0.8-1.7 1-0.4 0.5-0.1 1.1-0.3 1.1-0.8 0.9-2.8 2.7-0.4 0.3-1.5 0.3-0.7 0.6-1.1 1.1-0.3 0.5-1.4 1.7-0.9 0.8-1.2 0.7-1.2 0.6-1.1 0.2-0.7 0.6 0.1 1.2 0.7 1.3 0.7 0.6-2.4 2.4-0.8 0.6-2.1 1.2-1.6 1.5-0.6 0.4-2.8 0.9-0.5 0.1-0.5-0.4 0.1-0.8 0.4-0.8 0.3-0.4 0.9-0.6 0.6-1.5 0.4-1.4 0.2-0.7 2.4-3.3 0.6-2.4-0.2-1.9-1-1.5-1.6-1.2 0.6-0.4 0.1-0.5-0.2-0.3-0.7-0.2-0.2-0.3 0.5-0.6 0.7-0.6 0.3-0.1 0.6-0.6 2.7-1 1-0.1 0.8-1.3 2.6-1.7 2.4-2.1 3.1-1.1 2.3-2 1.5-1 1.6-0.7 1.4-0.4 2.5 0.4 0.7-0.4 0.7-0.7 1.1-1.7 0.8-0.9 1.2 0.6 1.6-0.5 1.5-1.3 0.7-1.4-1.6-3.4-0.4-0.6-0.6 0 0.4-4.3 0-0.2 7.6 0.7-0.1 5.5 1.7 5.1z" data-id="TUR2239" data-name="Çanakkale" name="Çanakkale"/><path id="TUR2240" d="M62.2 9.7l1.4 8.1 1.6 6.7 0.6 6.8-1.1 6.7-2.2 3.2-0.8 5.1-2.5 5.3 1.6 3.1 0.6 1.3 0.4 9.7-0.8 4.1-2.6 3.3-1.6 4.2-0.9 4.8 0.3 5.6 2 4.4 1.4 4.5 0 0.2-0.4 4.3-3.4 0.6-1.2 0.6-0.7 0.2-3.6 0-1.4 0.5-4 2.3-1.5-1-0.8-0.3-0.9-0.1-0.7 0.3-0.8 0.5-0.8 0.2-1.4-0.7-0.9 0.1-2.8 0.8-9.6 0-1.4-0.2-0.7-0.5-0.5-1-0.3-1.3-0.4-1 0.3-1.1-0.1-1.5-0.5-1.5-0.8-1.1 0.5-0.2 2 0.2 1.6-0.8 1.2-1.4 0.4-1.8 0.8-1.3 2.8-2.4-0.4-0.8 0.1-0.4 0.3-0.6 0-0.4 1.1-0.5 0.3 0 0.4-0.4 0.3-0.6 0.4-1.4 0.3 0 0.5 0.7 0.8 0.3 0.7-0.2 0-0.4-0.5-0.8 0.6-0.6 1.5-0.7 0.8-0.6 0.5-0.7-0.7-0.5-0.5-0.7-0.2-0.6 0.2-0.5 0.4-0.2 0.8-0.1 0.4-0.4 0.4-0.8 0-0.8-1.4-0.7-0.5-0.7-0.7-1.6-0.1-1 0.9-1.8-0.4-0.3-0.8-0.2 0-0.6 1-1.5-0.6-1.2-0.2-1.3 0.2-1.3 0.6-1.5-0.8-1.2 0.5-0.6 3.4-0.3 0.8-0.5 1.4-1.2 1.5-1 0.6-0.8 0.6-0.1 2.6-2.9 0.6 0.7 1 0.6 1.1 0.3 0.9-0.1 0.7-0.7 0.5-1.2 0.2-1.4 0-1.5-0.2-1.4-0.8-3.4-0.3-2.6-0.2-1.2-0.6-1 0.3-0.7-0.2-1.8 0.3-0.8-0.4-0.9 0-1-1 1.5-0.5-0.6-2.4-1.2-2.9-2.2 0.4-0.9 0.2-1-0.8-0.2-1-0.4-2-0.6-1.4-1.3-0.9-0.3-1.4 0.2-0.5-0.8-0.4-1.4 0.2-1.5 0.8-1.7 2.1-1.9 5.4 0.2 2.5-0.7 0.7-1 0.4-1.3 0.2-1.2 0.2-1.3 0.2-1.1-0.7-0.6 0.1-0.7 0.7-0.6 1.5-1.7 0.8-0.6 1-0.1 4.9 0.8 1-0.1 0.5-0.4 1.1-1.1 0.6-0.2 0.5 0.3 1 0.8 0.6 0.2 0.9-0.7z" data-id="TUR2240" data-name="Edirne" name="Edirne"/><path id="TUR2241" d="M133.4 40.1l-2.4 3.4-0.1 0-9.1 1-9 1.1-5.7 1.4-5.1 1.5-2.4 3.7-1.9 3.9-3.1 2.3-3.3 0.9-2.9-1.9-2.3-3.1-2.9-2-6.1 0-8.5 0.7-7.8 1.7-1.6-3.1 2.5-5.3 0.8-5.1 2.2-3.2 1.1-6.7-0.6-6.8-1.6-6.7-1.4-8.1 1.2-0.9 0.6 0 1 0.2 0.5-0.6 0.6-0.2 0.9 0.1 0.5-0.1 0.6-0.7 0.9-1.6 0.7-0.3 1-0.7 1.2-2.1 1.2-0.7 1 0 1 0.3 0.8 0.5 0.8 0.7 1.8 0 1.2 0.3 1.6-2.1 0.7-0.6 1.1-0.1 1.8 0.4 1.7 1 1.4 1.4 2.2 3.4 1.2 1.4 1.2 1.1 3.9 2.2 0.7 0.6 1.3 1.8 0.7 0.5 0.8-0.4-0.7-0.3 0.6-0.5-0.5-0.4 1.1-0.4 0.5-0.4 0.5-0.5 0.4 0.3 0.4-0.4 0.2-0.7 4-1 1.9 0 2.7 1.5 0.8 0.3 0.6-0.1 0.7-0.2 0.1-0.4-0.8-0.5 0.1-0.7 0.1-1 0.1-0.7 0.8 0 1-0.2 0.5 0.1 1.3 0.3 1.4 0.7 0.7 0.2 2.5-0.3 0.8 0.3 1.9 0.4 0.7 3.3 0 0.8 0.6 0.6 0.2 0.6 0 0.5-0.5 0.3-0.5-0.1-1-0.5-0.9 0.1-0.7 0.4-0.4 0.9-0.1 1.7 0.3 1.9 0.7 1.3 1 1.1 0.8 1.2 1 3.2 0.6 0.9 1 0.9 0.4 0.5 0.3 0.8 0.2 0.3 0 0.7-0.6 0 0 0.4 0.4 1.1 0.7 1.3 0.8 1 1.5 0.9 0.8 1 1.1 1.9 1.3 1.2z" data-id="TUR2241" data-name="Kirklareli" name="Kirklareli"/><path id="TUR2242" d="M131.9 72l-0.5-0.2-2.5 0.9-0.3 0.3-0.6 0-2.8 1.2-0.8 0.2-0.9 0.4-0.8 0.6-0.6 0.6-1.1 1.9-0.4 0.9 0.1 0.6-0.9 0.2-4.2-0.5-0.8-0.5-0.8-0.6-0.8-0.5-2.1-0.6-1.9-0.1-11.2 1.6-1.6 1-1.1 2.3-1.3 5.5-1.2 2.1-4.9 4.8-2.2 4-4.7 3.5-1 1.4-0.6 0.2-1.3 0.1-1.4 1-2.4-0.1-1.1 0.2-0.9 0.7-1.5 2.2-0.6 0.4-1.4 0.2-1.7-5.1 0.1-5.5-7.6-0.7-1.4-4.5-2-4.4-0.3-5.6 0.9-4.8 1.6-4.2 2.6-3.3 0.8-4.1-0.4-9.7-0.6-1.3 7.8-1.7 8.5-0.7 6.1 0 2.9 2 2.3 3.1 2.9 1.9 3.3-0.9 3.1-2.3 1.9-3.9 2.4-3.7 5.1-1.5 5.7-1.4 9-1.1 9.1-1 1.4 4.9 0.6 4.6-1.6 5.7-0.7 4.2 0.7 5.3 0.6 3.8z" data-id="TUR2242" data-name="Tekirdag" name="Tekirdag"/><path id="TUR2263" d="M259.7 123.7l0.7 3 3.2 5.7 2 2.4-5.4 0.3-4.2 3.4-0.9 3.5-0.7 3.5-1.7 3.2-2.7 1.9-2.8 0-2.7 1.2-0.8 1.4-0.9 1.3-1.6 0.9-1.3 1.1-0.6 7-2.2 4-2.9 3.3-2 0.5-3.9 0.5-4.1 1.2-2.2-0.7-5.8-4.1-1.8-0.8-2.1-1.3-0.9-1.1-1.7-3.7-0.3-2.8 0.9-5.8 2.9 0.6 2.6-1-0.7-3.4-1.4-1.1-2.7-3.9-0.1-3.4 1.5-6.9 5-5.3 0.9-1.9-0.2-1.8-1.2-1.5-0.2-2.2 0.6-1.6 0.6-1.9 0.2-2.2 1-1.9 1-1.1 1.1-0.9 2.8-1.5 1.5 3.1 1.8 2.8 2.1 1.7 1.9 2.1 4.6 1.4 7.2-1.9 2.3-0.2 1.9 0.6 2 0 1.6 1 1.3 1.9 0.9 0.8 3.9-0.1 2.7 0.7z" data-id="TUR2263" data-name="Bilecik" name="Bilecik"/><path id="TUR2264" d="M150.5 111.1l-0.6 0.3-0.2-0.5 0.4-1.9-0.2-1.1 0.9-0.3 0.5 0.3 0.1 0.3-0.3 0.3-0.6 2.6z m73.5-1.3l-2.8 1.5-1.1 0.9-1 1.1-1 1.9-0.2 2.2-0.6 1.9-0.6 1.6 0.2 2.2 1.2 1.5 0.2 1.8-0.9 1.9-5 5.3-1.5 6.9 0.1 3.4 2.7 3.9 1.4 1.1 0.7 3.4-2.6 1-2.9-0.6-1.6 0.2-1.5 0.7-1.7 0.3-1.6-0.2-5.5-2.2-2.6 1.9-1.1 4-0.6 1.6-1 1.1-1.5 5.4-2.4 1.8-1.1 3.1-0.3 4.5-2.9 1.8-3.7 0.1-3.7-0.5-2.3-0.5-2-1.6-1.2-1.3-1.6-0.8-2.4-0.1-2.4 0.5-2.1-0.3-1.3-2-0.7-0.5-1-0.1-0.6-0.4-0.3-0.8-1-1.7-0.1-1.8 0.2-1.4-0.8-1.2-1.3 0.7-1.2 1.1-4.1-0.5-13.8-10.2-0.9-2.1-1-4.8-0.9-1.7-2.9-2-1.9-3.1-0.9-2.5-0.3-1.4 0.7-2.6 0.7-1.1 0.5-1.2-1-2.2-1.2-0.4-0.4-2.3 1.4-1.4 1.5-1.3 2.5-3.8 0.3-0.5 7.3-0.3 2.7 0.4 4.5-0.1-1 0.3-0.3 0.5-0.2 0.6 2.2-0.8 2.4 0 2.4 0.6 2.4 1.1 0.3-0.4 0.7 0.4 0.5-0.2 0.5-0.5 0.4-0.2 3-0.5 0.8-0.7 0.8-0.4 1 0.1 1.8 0.6 1.5 0.1 1.5 0.3 0.7 0.3 1.3 0.8 0.9 0.3 0.9 0.2 4-0.1 0.9-0.2 0.8-0.6 0.4-0.9 0.5-1.8 0.3-0.8 0.7 0.3 0.9-0.1 0.9-0.3 0.8-0.4-1-1.1-1.1-1.1-1.3-0.8-1.1-0.3-2.9 0-0.4 0.3-1.2 0.9-0.1-7.4 3.6 0.9 1.6-0.2 8 3.5 3.3-0.7 3.3-3.5 3.3 0.7 2.9 0.9 3.1-0.2 9.6-3.6 3.6-0.7 7.1 2.6 0.3 1.6 0.5 1.4z" data-id="TUR2264" data-name="Bursa" name="Bursa"/><path id="TUR2265" d="M181.3 88.1l-0.2 1.1-0.7-0.5 0-1 0.5-0.9 0.8-0.2-0.1 0.9-0.3 0.6z m38.6-20.9l0.1 0.6 0.5 2.1 0.2 2.2-1.5 3.5-2.8 1.6-3.4 1.3-3 2.1-0.4 1.7-0.9 1.6-1.9 0.2-1.5-1.3-1.6-3.4-2.5-2.1-2.7-0.3-2.3 1.7-2.2 2.2-1.3 0.7-2.7 2.3-1.8 2.3-0.7-0.4-1.1 0.2-1-1-2.9-1.4-1.1-0.9-1.1-1.4-1-0.9-2.9-1.5 0.4-0.5-0.6-0.3-0.3-0.7-0.2-1-0.4-0.9 1-0.5 1.1-1.2 0.8-1.4 0.7-2.7 0.6-1 0.2-0.8-1.1-0.8 1.2-1.9 1.9-2.2 2.1-1.5 1.9 0.3 0.5-0.7 0.8-0.1 9.8 1.8 10.4 2.5 12.7 1.9z m-88 4.8l-0.6-3.8-0.7-5.3 0.7-4.2 1.6-5.7-0.6-4.6-1.4-4.9 0.1 0 2.4-3.4 1.6 1.5 7.9 5 11.2 4.9 16.1 7.7 5.1 1.1 0.6 0.5 0.7-0.1 0.3-0.7 0.4-0.1 1.2 0.2 1.3 0.5 0.8 0.7-0.4 1.8-0.7 1.3-0.9 1.1-0.9 0.6-0.6 0.2 0.1 0.4 0.4 0.6 0.7 1 0.3 0.3-0.4 0.8-0.2 1.4-0.4 1.2-0.5 1.1-0.5 0.8-0.4 0.4-1 0.3-0.4 0.3-0.4 0.6-0.1 0.4 0.3 1.2-0.6 0.4-1.1-0.1-0.5-0.4-0.6 0.2-0.6 0.7-0.6 0.2-0.9 0.6-2.1 0.5-0.5 0.2-0.8 0.7-0.6 0.2-1.3-0.1-0.6-0.2-0.3-0.4-0.5-0.5-1.3-0.1-6.3 0.8-1.6-0.6 0.5-2.2-0.6-0.7-0.9-0.3 0.4-1.6-0.5-1.4-1.1-0.9-1.3-0.3 0.3 1 1.1 1.1 0.4 1.2 0.1 0.7-0.2 1-0.3 1-0.7 0.6-1.5-0.2-2.7-2.8-1.3-0.7-1.7-0.3-3.6-1.4-1.8-0.3-1.8 0-0.4-0.1-0.6-0.7-0.4-0.1-2 0.4-0.9 0.1-0.4-0.3z" data-id="TUR2265" data-name="Istanbul" name="Istanbul"/><path id="TUR2266" d="M249.5 65.8l-0.3 1.1-1.7 4.2 0.9 3.5 3.9 0.8 0.2 2.2-1.2 2.2-0.3 2.3-0.9 0.2-2.9 0.1-1.7-0.9-2.1-0.4-0.9 0.6 0.4 1.5 0.7 0.2 0.6 0.4-3.4 3.7-2 10.3-2.2 4.2-3 2.1-3.4 0.8-1.6 0.9-1.7 0.7-3.7 0.3-7.1-2.6-3.6 0.7-9.6 3.6-3.1 0.2-2.9-0.9 0.4-2.7 0-6.1 0.5-0.3 1.2-0.6 0.5-1.1 0.4-0.3 1.2-0.3 0.5 0.1 0.9 0.4 0.7 0.8 0.4 1.3 0.5 0 10.1-2.3 6-0.3 1.9 0.8 1 0 0.8-1.3-0.5-1.6-2-0.3-4.3 0.5-1.1 0.5-0.6 0-0.6-0.3-1.1-1-0.3-0.2-0.8-0.1-1.9-0.7-1-0.1-12.4 0.5-1 0.3-0.8 0.7-0.9 0.4-1-0.5-0.5-0.5-0.4-1.2-0.6-0.2 0.8-0.5-0.2-0.7-0.4-0.5-0.9-0.6-0.2 0.4-0.5-0.4-0.5 0.4-0.6 0.2-1.4 0.3 0-0.4 0.5-0.1 0.4-0.3 0.1-0.4 0.1-0.7 0.5 0.3 0.5-0.3-0.6-0.9-1-1.3-0.5-0.4 1.8-2.3 2.7-2.3 1.3-0.7 2.2-2.2 2.3-1.7 2.7 0.3 2.5 2.1 1.6 3.4 1.5 1.3 1.9-0.2 0.9-1.6 0.4-1.7 3-2.1 3.4-1.3 2.8-1.6 1.5-3.5-0.2-2.2-0.5-2.1-0.1-0.6 1.2 0.1 13.1 0.4 1.5-0.2 0.8-0.4 1.2-0.8 0.7-0.2 0.5-0.4 0.7-1.4 0.4 0.4 0.6-0.6 0.6-1.1 0.6-0.3 0.7 0.6 2.1 0.4 1.8 1.4 3.1 0.7z" data-id="TUR2266" data-name="Kocaeli" name="Kocaeli"/><path id="TUR2267" d="M276.9 71.9l-0.1 0.7 0.3 2 0.1 1.5-3 2.8-1.8 4.1 0.4 2.1 0.9 1.8 0.1 2.1-0.7 2 0.5 1.8 1.1 1.6-1.2 2.1-3.3 2.6 0.2 2.2 0.3 2.2-0.6 2-3.4 1.6-3.6-0.1-2.1 3.2-1.5 4.2-0.8 0.5-0.6 0.7 0.3 1.8 1.1 1.4 1.2 2.4-1 2.5-2.7-0.7-3.9 0.1-0.9-0.8-1.3-1.9-1.6-1-2 0-1.9-0.6-2.3 0.2-7.2 1.9-4.6-1.4-1.9-2.1-2.1-1.7-1.8-2.8-1.5-3.1-0.5-1.4-0.3-1.6 3.7-0.3 1.7-0.7 1.6-0.9 3.4-0.8 3-2.1 2.2-4.2 2-10.3 3.4-3.7-0.6-0.4-0.7-0.2-0.4-1.5 0.9-0.6 2.1 0.4 1.7 0.9 2.9-0.1 0.9-0.2 0.3-2.3 1.2-2.2-0.2-2.2-3.9-0.8-0.9-3.5 1.7-4.2 0.3-1.1 14 3.4 1.8 1.6 0.8 0.5 4.4 0.8 6.4-0.2z" data-id="TUR2267" data-name="Sakarya" name="Sakarya"/><path id="TUR2268" d="M339.1 76.3l2.6 0.1 4.4 1-0.2 1.9 0 1.9 1.2 0.8 1.5 0.3 2.4 1.5 6 3 2 3.6-0.2 1.8-0.2 2-0.8 3.8-1.9 0.8-1.5 1.4-0.2 3.7 2 5.5-0.9 1.6-1.9 2.1-1.4 2.5-4.2 2.3-7.2-1.1-2.2 0.7-2.2 1.5-6.1 1.5-3.6 1.7-4.5 1-6.5-0.1-2 0.2-4.7 1.9-1.7-0.2-1.6-0.6-1.5-0.2-1.2-0.6-1.7-1.9-8.8 1-4.6-2.8-4.9-1.7-1.3 1.4-0.5 2.6 0.2 4.1-1.6 3.5-4.3 2.5-3.2 4.3-3.4-0.6-3.1-1.2-2-2.4-3.2-5.7-0.7-3 1-2.5-1.2-2.4-1.1-1.4-0.3-1.8 0.6-0.7 0.8-0.5 1.5-4.2 2.1-3.2 3.6 0.1 3.4-1.6 0.6-2-0.3-2.2-0.2-2.2 3.3-2.6 4.3 1.5 8.5-0.2 5.9 2.5 5-0.6 4-3 1.9-5.1 0.2-3.6 2.6-1.9 6.7-1.2 4.8-1.1 2.6-3 0.9-6 3.8 0.3 3.2 0.9 11.2 0.3z" data-id="TUR2268" data-name="Bolu" name="Bolu"/><path id="TUR2269" d="M272.1 136.6l2.2 2.8 0.6 4.1 0.3 1.4 1.2 0.4 2.1-0.1 5-2.2 3 0.3 1.3 0.9 1.4 0.5 1.5-1.1 1.4-1.2 4.8 0.6 1.3-0.4 1.3-0.2 2.2 2.3 1.5-0.5 1.7 0.6 2-0.5 3.8 0 1.9-0.7 2.1 1.4 2.4-0.3 0 2 0.6 1.2 0.2 1.7 0.8 2.1 1.3 2 1.5 0.9 1.8 0.1 0.4 1 0.7 1.1 0.7 0.5 0.1 1.8-2.2 2.4 0.4 3.4 2.6 7.2 2.6 2.3 0.7 1.4 0.2 2.1 0.8 1.2 0.6 1.4 0 2.1-0.3 2-0.5 2.1 0.3 1.2 0.1 2.6 1.1 1.8 1.6 1.1 0.4 2-1 1.7-1.3 1.2-1.1 0.1-1.1 0.4-1 1.4-2.7 1.3-1.3 0.9-0.2 2-0.3 1.9-0.8 1.1-4.1 0.7-3.1-0.4-2-0.5-4.1-0.1-6.7 0.7-3.9-3-2.6-5.9-3.7-3.9-2.1 0.6-1.8 1.6-1.9 1.3-2 0.5-3.8 2.9-3.8 1.7-2.2-2.6-2.6-1.2-1.9 1.4-3.3 3.3-3.5 2.3-1.8 0.9-2.4 0.4-2.4-1.3-0.8-0.7-0.9-0.5-1.2-1.5-0.8-2.2-1.4-1.4-1.9-0.4-0.9-4.3-5.2-6.9-0.7-5.2-1.4-4.1-5.7-5.5-2-3.3 2.9-3.3 2.2-4 0.6-7 1.3-1.1 1.6-0.9 0.9-1.3 0.8-1.4 2.7-1.2 2.8 0 2.7-1.9 1.7-3.2 0.7-3.5 0.9-3.5 4.2-3.4 5.4-0.3 3.1 1.2 3.4 0.6z" data-id="TUR2269" data-name="Eskisehir" name="Eskisehir"/><path id="TUR2270" d="M446.9 10.7l0.2 4-1.5 4.1-2.6 3.2-0.1 2.3 3.4 1.3 1.9 0 2.2 0.2 3.2 0.9 6.3 0.3 3.5 1 2.9 3.9-1.8 4.7-1.7 1.2-1.6 1.5-1 2.3-0.5 2.7 0.4 1.3 0.5 1.4-0.4 9.1-2.7 0.6-1.8 2.6-1.5 3.8-1.2 1.5-2.4 2.2-1.8 4.5-1.8 2.2-0.6 1.4 1 2.6 1.1 0.4 1.7 1.9-1.2 3.4-7.4 3.1-4.6 1-2.1-0.1-2.2-0.5-1.7-1.2-1.7-1.6-3-1.1-2-3.3 0.6-2.1 1.4-1.5 1.6-2.2-0.6-2.7-0.8-0.5-1.7 0.6-8.5 4.6-4 0.7-5.5 3.3-2 0.7-2.4-0.8-2-2.3-4.7-3.1-6.7-0.8-0.7-0.6-1.2-1.6-0.5-0.9-1.1-1.6-2.8-1.2-2.9-0.5-1-7.4 0.5-2.4 2.3-3.2 2.8-2.7 5.1-1.1-1.5-3.4-1.5-6.2-3.7-2.8-3.9 1.3-3.1 0.5-1.8-2-0.5-5 3.4-2.4-1.9-5.1-1.5-3.1-0.5-4.2 1.5-0.4 0.9-0.5 0.6 0.3 3.6-1 1.9-0.8 2.4-1.6 8.2-2.8 8.3-4.4 1.9-0.1 3.8 0.7 5.6 0 1.1 0.2 2.7 1 11.1 1.1 0.9-0.3 1.5 0.5 6.8-0.5 11.1 1.5z" data-id="TUR2270" data-name="Kastamonu" name="Kastamonu"/><path id="TUR2271" d="M213.5 403.5l0.2-0.6 0.4-0.5 0.7 0.2-1.3 0.9z m-12-2.1l-0.5 0.3-0.7-0.3 0.4-0.4 0.8 0.4z m2.6 2.2l0.5-2 0.6-0.7 0.4-0.3 0.4 0-0.1 1 0.4 0.2 0.1 0.4-0.9 0.5-0.1 0.3-0.5 0.4-0.8 0.2z m17.3-4l-0.3 0.6-0.4-0.1-1.4 0.3 0.2-0.5 1-0.6 1.8-0.4-0.9 0.7z m133.7-31.9l1.8 4.7 2.2 4.4 1.4 1.8 1.7 1.2 2.1 1.1 1 2.1-0.5 3.8 0.3 7.2-0.8 3.1-0.9 1.6-0.7 1.7-0.2 1.7-0.4 1.5-0.8 1.3-0.1 0.4-0.2-0.1-1.9-0.2-1-0.3-4-2.3-0.5-0.5-0.4-0.8-0.9-0.4-1.1-0.3-0.8-0.5-2.4-3.3-0.5 0-0.2-0.4-1-0.6-0.2-0.4-0.2-1.9-0.2-0.5-1.2-1.8-3.1-2.8-1-2.8-0.6-0.8-0.7-1.3-0.9-0.3-0.9-2-0.6-1.1-0.8-0.4-3.2-3.3-0.4-0.2-1.6-0.2-1-0.8-2.1 0.1-1.1-0.2-0.4-0.6-0.6-0.6-1.3-0.4-1.5-0.3-0.9 0.2-0.5-0.5-2-0.8-1-1.5-0.7-0.6-0.6 0.1-1.1-0.2-4-1.8-0.8-0.7-0.8-0.9-9.8-4.4-1.5-0.3-0.2-1.6-1.8-1.1-20.9-3.1-8.6 0.5-1.4-0.4-1.1-0.7-2.1-1.6-3 2-1.4 1.4-0.8 2-0.9 1.7 0 2-0.3 2.1 0.1 1.2 0.5 1 0 0.4-0.7 1.1-0.2 0.6-0.1 1 0.1 1.1 0.7 1.2 0.2 0.8 0.4-0.4-0.1 1.3-0.7 2.3 0.1 0.8-1.8 1.5-0.8 1-0.6 2.3-1.1 1.8 0 0.5-0.7 1.1 0.1 1.1 0.6 0.9 0.7 0.5-0.4 0.9 1.4 0.5-0.8 0.9-1.4 1.2-0.6 1.4 0.7-0.1 0.4 0.1-0.5 0.5-0.7 0.6-0.7 0.6-0.5 1.4-0.7 0.9-1.5 1.3 0.1-2.8-0.3-1.1-0.6-0.5-1.2 0.3-5.5-2.5-1.1-0.1-4 0.7-0.4 0.5-0.2 1-0.1 1.3-0.3 0-0.4-1.2-0.3 1.2 0 0.5-0.8-0.5 0 1-1.9-0.5-0.8-0.5-0.1 0.5-3.5 1.9-0.8-0.1-0.6 0.4-0.6-0.1-1.3-0.3-0.7 0.2-0.7 0.7-0.9 0.5-1.9 0.4-0.4 0.9-0.5 0-1.3 0.4 0 0.4 1.1 0-0.7 0.7-0.8 0.6-0.8 0.4-0.9 0.1 0-0.4 0.2-0.3 0.5-0.6-0.7 0.1-0.4 0.4-0.6-0.7-0.6-0.2-0.7 0.1-0.6 0.3-0.4 0.7-0.5 0.4-0.9 1.1-0.2-1.3-1.8-0.9-0.5-1.3 0.7 0.3 0.3-0.3-0.1-0.6-0.4-0.3-2.6 0.4 0-0.4 1-0.5 0.5 0-0.6-0.5-4.2 0.1-1.4-0.3-3.2-1.9-0.6 0.6-0.3-0.6-0.2-1.8-0.3 0.5-0.7-0.5-0.8 0.4-0.6 0.8-0.4 0.9-0.4 0.2-0.5-0.4-0.6-1-0.3 0.4-3.2-3 1.4-0.7 1-1.3 0.3-1.7 0-1.7 0.5-0.9 0.3-1.1 1.7-3.6 3.3-1.3 1.6 0.7 1.1-0.6-0.2-1.8 0.4-1.8 2.4-2.1 2.6-1.9 0.9-3.6-0.7-4 5.7-13 1.5-0.2 1.4-0.8 1.2-1.8 1.5-1.4 2-3.8 0.8-4.9 2.9-3.9 9.3-4.9 3.2-0.6 7.8-3.2 3.1 0.4 3.2 3.9 1.3 0.5 7.2-0.3 4.7 0.5 4.1 0 1.9-0.5 3.2-3.5 1-2.8 3.6-3.2 4.6 1.9 5.4-1.9 2.8-0.4 2.5-1.8 2.6-0.9 2.8 0.4 1.1 1.4 1.2 1.3 2.1 1.7 2.2 0.9 5.2 0 13.4 2.8 4.4 2.8 3.3 3.2 3.7 2.5 2.6 2.8 2.3 3.3 1.5 1.4 1.5 1.1 3.5 3.3 2 0.8 1.7 1.1 0.2 2-1.3 1-0.6 2 0.8 1.8 2.2 0.8 2.4 0.2 1.7 0.4 1.1 1.6 0.8 4.3-0.4 4.4z" data-id="TUR2271" data-name="Antalya" name="Antalya"/><path id="TUR2272" d="M315.6 207.7l-0.7 4.5-0.5 1.7 1.6 1.6 0.9 0.6-0.4 2.7-4 6.6-1.6 3.2-0.8 3.5 0.1 1.4 0.2 1.3-0.2 1.5-4.5 6-4 4.2-9.2 6-1.3-0.4-1.2-0.7-2.3-3.4-1-0.8-1-0.6-1.3-0.2-1 0.9-2.6 2.8-6.5 5.3-3.2 3.7-3.3 3.1-4 1.6-1.1 0-1.1 0.3-3 2.4-2 0.5-1.9 0.8-2.5 2.9-2.8 2.5-2 1.2-4.7 4.6-3.5 2.1-1.1 2.1-0.7 6.8-1.7 3.2-3.7 2-4.1 0.2-4.7-0.3-4.2 1.5-2.3-4.1-0.6-0.5-0.8-0.2-1.4-0.7-0.7-0.3-2.4 0-1.2-0.5 0-6.7 0.8-1.9 1.7-0.7 1.6-0.8 14.1-10.6 1.4-1.7-0.8-4.4-1.4-1.7-5.6-9.4-7.2-1.7-0.1-1.8 1.2-1.5 1-2.8 0.7-2.6 3.2-3.1 0.8-2.5 0.3-2.8 10.8-6.5 1.5-1.9 2.1-3.6 1.4-4.5 1.4-2.8 0.8-3.1 1-2.7 6.2-2.8 3.6-5.6 1.9 0.4 1.4 1.4 0.8 2.2 1.2 1.5 0.9 0.5 0.8 0.7 2.4 1.3 2.4-0.4 1.8-0.9 3.5-2.3 3.3-3.3 1.9-1.4 2.6 1.2 2.2 2.6 3.8-1.7 3.8-2.9 2-0.5 1.9-1.3 1.8-1.6 2.1-0.6 3.7 3.9 2.6 5.9 3.9 3 6.7-0.7 4.1 0.1 2 0.5z" data-id="TUR2272" data-name="Afyonkarahisar" name="Afyonkarahisar"/><path id="TUR2273" d="M275.8 321.5l-3.6 3.2-1 2.8-3.2 3.5-1.9 0.5-4.1 0-4.7-0.5-7.2 0.3-1.3-0.5-3.2-3.9-3.1-0.4-7.8 3.2-3.2 0.6-9.3 4.9-2.9 3.9-0.8 4.9-2 3.8-1.5 1.4-1.2 1.8-1.4 0.8-1.5 0.2-4.5-6.1-6.2 0.8-2.6 3.2-2-0.8 0.9-3.8-1.2-3.3 0.4-3.6 0.9-3.4 1.4-3.1 5.1-7.7 2.3-4.6 0.2-0.6-0.2-0.9-0.3-0.6-0.4-0.3-0.7 0.1-0.6-2.5 0.1-2.6-0.5-1.8 0-1.8 6.7-3.5 0.5-1.5 0.7-1.4 1.5-0.9 0.8-0.4 2.1-1.2 3.7-3.1 4.2-1.5 4.7 0.3 0.7 2.2 1 2 2 0.7 1.9-0.9 5.8-4.3 1.5-0.8 1.4-1 2.4-2.5 2.6 1.9 2.3 3.3 2.1 2.1 2.2 1.8 3.7 0.6 3.3 0 3.1 1.9 1.7 5.3 1.4 3.2 3.2 4.8 0.5 1.2 0.9 1.1 0.8-0.1 1.6 0.2 1.1 1.5 0.7 1.9z" data-id="TUR2273" data-name="Burdur" name="Burdur"/><path id="TUR2274" d="M219 296.6l-3.7 3.1-2.1 1.2-0.8 0.4-1.5 0.9-0.7 1.4-0.5 1.5-6.7 3.5 0 1.8 0.5 1.8-0.1 2.6 0.6 2.5 0.7-0.1 0.4 0.3 0.3 0.6 0.2 0.9-0.2 0.6-2.3 4.6-5.1 7.7-1.4 3.1-0.9 3.4-0.4 3.6-2.5 2-0.3 4.2-0.6 1.7-1.1 1.4-1.8 0.9-5.2-2.8-2.9-0.2-1.2-1.3-0.2-1-0.2-2.2-0.4-2.5-0.7-2.5-3.2-3-3.8-1.8-0.6-0.7-1-1.8-0.6-0.7-3.9-0.5-1.7-2.6-0.7-3-1.5-2.7-2.5-1-1.8 0-1.4-0.5-0.5-1.9 0-1.9 0.2-1.3-0.6-1.2-0.3-0.9-0.4-0.9-1.1-0.6-0.6-2.5 1-2.5 3.7-1 4 0.5 2.8-2.7 2.4-3.4 2-0.1 1.6-1.2 0.2-1.8-0.5-1.5-3.4-0.7-1.1-1.7-0.8-1.7-1.1-1.5 0.1-1.7 1.2-0.9 0.4-1.4-0.8-4 0.1-2.2-0.6-2-2.9-2-0.7-1.4-0.6-1.5 2.4-0.1 2.1-1 0.7-1.6-0.2-1.8 2.3-4.5 4.9-1.1 3.1 0.7 2.8 1.7 2.9 0 2.7-1.8 1.8 0.3 1.7 1.9 1.7 0.1 1.7-0.6 1.4-0.7 1.3 0.9 0.6-0.1 0.7-1.3 0-0.9 2.6-2 3.7 0.4 4-0.1 1.9-0.6 1.7-1.5-0.4-3.9 0.4-4 6.5-1.5 7.2 1.7 5.6 9.4 1.4 1.7 0.8 4.4-1.4 1.7-14.1 10.6-1.6 0.8-1.7 0.7-0.8 1.9 0 6.7 1.2 0.5 2.4 0 0.7 0.3 1.4 0.7 0.8 0.2 0.6 0.5 2.3 4.1z" data-id="TUR2274" data-name="Denizli" name="Denizli"/><path id="TUR2275" d="M292.5 252.5l1.5 4.9 4.1 3.3 3.1 4.2 3.6 3 1.8 0.7 1.2 1.8 3.8 3.3-0.4 2.2-3.3 2.1-3.7 1.4-1.7 1.1-1.1 4.3 1.2 5.2 0.1 5.1-2.1 3.5-0.3 3.1-1.7 2.1-2.2 0.7 0 2.3 1.3 2 0.7 2.4-0.5 3.9-1.4 3.7-2.8-0.4-2.6 0.9-2.5 1.8-2.8 0.4-5.4 1.9-4.6-1.9-0.7-1.9-1.1-1.5-1.6-0.2-0.8 0.1-0.9-1.1-0.5-1.2-3.2-4.8-1.4-3.2-1.7-5.3-3.1-1.9-3.3 0-3.7-0.6-2.2-1.8-2.1-2.1-2.3-3.3-2.6-1.9-2.4 2.5-1.4 1-1.5 0.8-5.8 4.3-1.9 0.9-2-0.7-1-2-0.7-2.2 4.1-0.2 3.7-2 1.7-3.2 0.7-6.8 1.1-2.1 3.5-2.1 4.7-4.6 2-1.2 2.8-2.5 2.5-2.9 1.9-0.8 2-0.5 3-2.4 1.1-0.3 1.1 0 4-1.6 3.3-3.1 3.2-3.7 6.5-5.3 2.6-2.8 1-0.9 1.3 0.2 1 0.6 1 0.8 2.3 3.4 1.2 0.7 1.3 0.4z" data-id="TUR2275" data-name="Isparta" name="Isparta"/><path id="TUR2276" d="M210.3 152.7l-0.9 5.8 0.3 2.8 1.7 3.7 0.9 1.1 2.1 1.3 1.8 0.8 5.8 4.1 2.2 0.7 4.1-1.2 3.9-0.5 2-0.5 2 3.3 5.7 5.5 1.4 4.1 0.7 5.2 5.2 6.9 0.9 4.3-3.6 5.6-6.2 2.8-1 2.7-0.8 3.1-1.4 2.8-1.4 4.5-2.1 3.6-1.5 1.9-10.8 6.5 0-6.9-2.5-2.9-1.5-0.6-6.5-1.5-3.3 0-1.4 0.5-1.4 0.8-0.9 3.7-1.3 3.1-3 0.3-6.5 1.8-3.8 0.2-3.5-0.5-3.2-2-3 0-2.9 2.4 0.2-4.2-1.1-3.1-1.7-3.2 0.5-4.1-0.4-1.1-0.5-1.1-3.3-5.3-1.6-1-7.8-1.7-1.1-0.9-2.6-2.9 0.3-0.7-0.1-1.7-0.3-0.8 0.5-2.3 2-1 3.8-1.3 1.7-1.2 1.6-2.9 0.4-1 1.2-1.5 1.2-2 0.7-4.8 0.7-1.9 0.6-0.6 0.4-0.9 0-1.3 0.3-1.3 1-2 2 1.6 2.3 0.5 3.7 0.5 3.7-0.1 2.9-1.8 0.3-4.5 1.1-3.1 2.4-1.8 1.5-5.4 1-1.1 0.6-1.6 1.1-4 2.6-1.9 5.5 2.2 1.6 0.2 1.7-0.3 1.5-0.7 1.6-0.2z" data-id="TUR2276" data-name="Kütahya" name="Kütahya"/><path id="TUR2277" d="M157.2 203.4l2.6 2.9 1.1 0.9 7.8 1.7 1.6 1 3.3 5.3 0.5 1.1 0.4 1.1-0.5 4.1 1.7 3.2 1.1 3.1-0.2 4.2-1.9 2-4 3.1-0.6 1.4-1.6 1.7-1.5 0.5 0.2 2.4 1.5 0.5 1.2 1.5 0.2 1.4 0.1 1.6 0.3 3.3-0.3 3.1-0.7 2-1.1 1.7-1.4 1.3-0.5 1 1.4 1 1.5 0.1 2 2.1-4.9 1.1-2.3 4.5 0.2 1.8-0.7 1.6-2.1 1-2.4 0.1-7.1-0.2-2.3-3.5-2.2-6.8-1.4-1.9-2.4-0.6-1.2-0.1-1.8-0.6-1-1.2-1.4-0.2-2 0.6-5.1 0.8-1.4-3.3-2.1-2.4-1.6 0.5-1.6 0-2.5-1.2-2.5-0.1-0.8 2.1-1.3 2.2-2.6 0.6-2.2-2-0.4-1-0.6-2.1-0.5-1-4-1.9-3.7-2.5-0.8-3.7-1.6-1.6-1.1-0.1-5.8 0.1-3.7-0.4-3.1-2.6-1.4-4.6-1.2-1.6-0.8-0.3-1.4-1.5 0.2-1.4 1.5-2.4 1.6-1.7 0.9-2.2 0.3-2.6 0.6-2.4 2.9-2 3.3-1.3 3.4-2.9 1.4-1.6 0.4-3.6-1.9-3.6-0.9-2.4-1.7-8.1-2-5.2 4-2.1 2.4 1.2 2.2 1.8 3.7 1.1 3.7-0.5 2.1 0.1 2.1 1.1 0.8 0.1 1.7-0.3 0.8-0.1 1.3 2.2-1.6 2.8-0.6 2.3 2.1 1 3.9-1.4 0.8 0.4 0.4 1 4.3 4.7 2.6 6 2.4 0.9 2.2-1 2.3-0.4 1.9-1.2 1.4-1.9 2.2-0.4 2.2 0.2 2-0.2 1.9-0.5 4.8-2.5 4.6 0.7z" data-id="TUR2277" data-name="Manisa" name="Manisa"/><path id="TUR2278" d="M170.6 367.1l1.1 0.5-0.5 0.4-0.7 0.9-0.3-0.7 0.1-0.9 0.3-0.2z m-74.8-18.2l-0.4 0.2-0.4-0.3-1.1-0.4-0.2-0.6-0.3-0.4-0.6-0.4 0.4-0.3 1.6 0.8 1 0.3 0.5 0.4-0.1 0.5-0.4 0.2z m99.5-6.9l1.2 3.3-0.9 3.8 2 0.8 2.6-3.2 6.2-0.8 4.5 6.1-5.7 13 0.7 4-0.9 3.6-2.6 1.9-2.4 2.1-0.4 1.8 0.2 1.8-1.1 0.6-1.6-0.7-3.3 1.3-1.7 3.6-0.3 1.1-0.5 0.9 0 1.7-0.3 1.7-1 1.3-1.4 0.7-0.3-0.2-0.4-1-0.7-0.8-3.1-1-0.9-1.1-0.7 0.5-0.2-0.9 0.2-0.4 0-0.5-1.5 0 0.4-0.4-0.6-0.4-0.8-0.1 0.2-0.6 0.4-0.4 0.5-0.2 0.6-0.1-0.3-0.5 0.3-1.2-0.3-1.1-0.6-0.8-0.8-0.5 0-0.4 0.7-0.5 0.7-0.3 0-0.5-0.2-2.3-0.3-1.1-0.5 0.3-0.4 0-0.7-0.8-2.5 1-1.1-0.2 1-0.2 0.2-0.7-0.3-0.8-0.6-1 0.3-0.4 0.5-1.2 0.3-0.7 0.8 0.7 0.6-0.6 0.7-1 0.8-0.3 0 0.4-0.3 0.7 0.4 0.2 0.6-0.2 0.3-0.5-0.4-1.2-0.6-0.8-3.3-2.3-4-1.8-0.6-0.6-0.3-0.9-0.9 0.6-0.9 1.2-0.7 0.7 0.3 0.4 0 0.5-1 0-0.8 0.4-0.1 0.5 0.1 1.1-0.7 0.2 0.3 0.5 0.4 0.4-0.3 0.5 0.7 0.8 0.3 0 0.6-1.1 0.1-0.6-0.3-0.9 0.9 0.8-0.3 1.1-0.9 1-0.8 0.6 0.4 0.7-0.6 0.3-0.9 0.1-0.7-0.1-0.5-0.6 0-0.6 0.4-0.5 0.8-0.2 0-0.4-0.8-0.5-0.6-0.4-0.5-0.3-0.9 0.3-0.3-1.7-1.9-1.3-2.3-0.5-1.6 0.8-0.3 0-0.3-1.2-0.5-0.5-0.7 0.3-0.7 1-0.4-0.5-0.6-1.8 0.5-0.9 0.2-1.2-0.2-1.2-0.5-0.7 0.3-0.4-0.3-0.9-0.3 0.8-0.4 0.3-0.1-0.6-0.7-0.8-1.5-0.2-1.1 0.6 0.1 1.6-0.5-0.4-1-0.2-0.6-0.2 0.7-0.5 0-0.4-1.2 0-0.7-0.2-0.4-0.7-0.2-1.3 0.6-0.1 0.1-0.6-0.3-0.3-0.2-0.9-0.5-0.3-0.1 0.6-0.4 0.6-1.1 0.3-1.5 0.2-0.5 0.2 0 0.3 0.7 0.9 1.2-0.1 0.6 0.5-0.6 0.9-0.4 1-0.5 0.7-1 0-2.7-1.4-0.6-0.3-0.3 0 0.3 1.3-1.3 0.1-0.6-0.2-0.2-0.5 0.2-0.6 0.6-0.3 1.3-0.3 0-0.4-0.6-0.4-0.7-0.7-0.8-0.4-0.9 0.4-0.7 1.1-0.3 1 0.1 1 0.7 0.6-0.2 1.5 2.1 1.5 0.3 1.5-0.6-0.4-0.8-0.3-0.8 0.2-0.3 1-0.7-0.5-0.1 1 0.1 0.4-2.7 0.9-1 0.8-1 1.4-0.7 1.4-1 1.6-1.2 1-1.4-0.4-0.3 0.6-0.7 0.2 0.3 0.9-0.6 0.3-0.5 0.1-0.4-0.2-0.3-0.6-0.5 0.9-0.7 0.1-0.6-0.4-0.6-0.6 0.3-0.9-0.7-0.8 3.9 0 1-0.5 0.6-0.6 0.5-0.8 0.8-0.8-0.7-0.9-1 0.9-0.5 0 0.5-0.6 0.2-0.8-0.2-0.8-0.5-0.5-0.6-0.2-0.1 0.8-0.2 0.3-0.6 0-1-0.5-0.4 0.2-0.6 0-0.5-0.3-0.2-0.6 0.2-0.2 1.9-0.4-0.4-0.5 1.1 0.1 0.4-0.1 0.5-0.5 0.2-0.4 2-0.1 0.5-0.3-0.2 1 0.8 0.1 0.8-0.6 0-1-0.5-0.3-1-0.1-0.3-0.5 0.1-0.4 1-0.9 0.4-0.5 0.3 0.8 0.7 0.6-0.3-1.1 0-1.4-0.3-0.5-0.6-0.2-0.6 0.1-0.5 0.3-0.9 1.4-1.1 0.8-0.4-0.1-0.3-0.7-0.8 0.8-2 0.6-0.7 0.4-0.4 0-0.3-0.8-0.5 0.3-0.6 0.6-0.8 0.4-0.2-0.9-0.4 0.1-0.8 0.8-0.7-0.7-0.3-0.1-0.4 0.8-0.4 0-0.6-0.6-0.9-0.5-1.1-0.2-0.9 0.4 0-0.4-0.7 0.3-0.6-0.1-1.4-0.2-0.9 0.3-1.1 1.4-0.7 0.5 0.1 1-0.7 2-0.1 1.5-1.8-0.9-0.9-0.4-0.9-0.1-0.9 0.1-0.8 0.2-0.5 0-0.3-0.7-3.6 1.3-0.4 0.7-0.5 0.1-0.7-0.7-0.3-0.1-1.7-0.3-0.6 0.3-0.2-0.8-0.4-0.5-0.5 0-0.7 0.4-0.1-1.2-0.7-0.6 0-0.4 0.7 0.3 0.8 0.2 0.9 0 0.7-0.3 0.4-0.7 0.3-1 0.5-0.8 0.6-0.4 0.5-0.1 1.3 0.1 3.8-0.6 1.9 0.2 1-0.3 0.2-0.7 0.1-0.9 0.3-0.8 1.1-0.3 2.4 1.4 0.8-0.3 0.8 0.5 1.4-0.2 0.6 0.2 1.3-1.3 0.7-0.3 4.6-0.2 0.6-0.2 0.3 0.4 0.8 0.4 1.1 0.3 1 0 1.8-0.2 0.9 0.3 0.9 0.8 0.1-0.7 0.3-0.3 1-0.8-0.3-0.7-0.5-0.4-0.7-0.2-1 0 0.3-0.4 0.5 0.1 0.1-0.3-0.7-1.3 0.5-0.3 0.4 0.2 1.4-0.7 0-0.4-1-1.1-0.8-1.2 0.7 0.5 0.4-0.5-0.3-0.2-0.4-0.7 1.7 0 0-0.4-1 0 0-0.5 1.2 0 0.5 0.1 0.4 0.4 0.6-0.4 0.5 0.4 0.4 0 0.5-0.4 1.1 0.6 0.8-0.2 0.1 0.5 0.3-0.1 0.2-0.5-0.6-0.4 0-0.4 0.9 0 0.6 0.4 1-1.8 0.4-0.4 0-0.5-0.7 0 0.4-0.6 0.3-0.7 0.8 0.7 0.9 0.1 0.4-0.3-0.3-1 2.8-1.1 1.5-0.3 0-0.5-0.8-0.7-0.5-0.2-6.8 1-2.5 0-1 0.2 0.2 1.2-0.9-0.5-5.6-0.9-0.6 0.2-0.6 0.6-0.6 0.1-0.6 0-1.5-0.4-1.3 0.1-4.3 1.4-0.8-0.2-0.4 1-0.9-0.3-0.6 0-0.7 0.3-1-0.8-1.7 0-1.6 0.6-1 1-1-0.6-1.4-0.5-1.2 0.1-0.3 1.5-1.2-0.9-0.6-0.3-0.7-0.1-1.6 0.1-0.6-0.1-0.5-0.5-0.9-1.4-0.4-0.4-0.7 0.1-0.8 0.6-0.6-0.7-0.1 0.6-0.6 1.7-0.2-0.4 0.2-0.6-0.4-0.4 0.3-0.3-0.3-0.6-0.5 0.4-1.3 0.2-0.7 0.3 0.2 1.1-0.3 0.8-0.6 0.5-0.7 0.3 0.3 0.9-0.7-0.1-0.4 0.1-0.3-0.5-0.9 0.2-0.5-0.9-0.3-1.5-0.1-1.1-0.2-1.1-0.5-0.8-0.2-1 0.6-1.4 0.4 0 0.9-0.4 0.9-0.6 0.6-0.8-0.8-0.4-0.4 0.1-0.5-0.2 0.5-0.7 1.7 0.6 1-0.3-0.1-0.4 0.2-1.1-0.1-0.7 0.5 0.1 0.4 0.4 0.2 0.6-0.1 0.7 0.4 0 0.3-0.7 0.3-0.5 0.4-0.1 0.4 0.4 0.4-0.5 0 1.1 0.1 0.3 1 0 0.7 0.6 0.7 0.2 0.7 1.4 0.8 0.5 0.8-0.2 1.3-1 1.1-0.5 1-0.7 1.2 0 0.6-0.3 0-0.5-0.7 0.2-0.4 0.3-0.4-2-0.4-1.1-0.6-0.5 0-0.5 2.4-0.5 0.7 0.1-0.6 1.4 1-0.5 0.8-0.9-0.8-0.3-0.3-0.5 0-1.3 0.1-0.2 0.7-0.5 0.4-0.8 0.2-1.3-0.7-0.5-0.4-0.1-0.3 0.6-1.3-0.1-0.6 0.2-0.2 0.5-0.3 1-0.7 0.9-0.8 0.4-0.7-0.3 0.9-0.8 0.1-0.8-0.6-0.6-1.2 0-0.6 0.8-0.5 0.2-0.3-0.3 0.1-0.7 0.4-0.6 0.9-1.2 0-0.5 0.2-0.7 0.1-0.9-0.6-1.1-0.4 0-0.2 1.9-1.2 0.6-1.4-0.2-1.1-0.9-0.5-1.5 0.5-1.3 0.9-1.1 1.2-0.6-0.6-1-1-0.4-0.2 0 0.6-1.1 2.8-6.1 0.7-1.1 1.6-0.9 1.7-0.1 1.9 1.2 2 0.8 4.2 0.6 3.7 2.5 2.3 0.4 2.4-0.6 2.4 0 2.2 1.1 3.7 0.2 6.3-0.5 2-1.6 1.9-3.7 2.8-1.9 3.8 0.8 3.2 2.7 3.8 2.1 6.9 0.9 0.6 1.2-0.2 1.3 0 1.9 0.5 1.9 1.4 0.5 1.8 0 2.5 1 1.5 2.7 0.7 3 1.7 2.6 3.9 0.5 0.6 0.7 1 1.8 0.6 0.7 3.8 1.8 3.2 3 0.7 2.5 0.4 2.5 0.2 2.2 0.2 1 1.2 1.3 2.9 0.2 5.2 2.8 1.8-0.9 1.1-1.4 0.6-1.7 0.3-4.2 2.5-2z" data-id="TUR2278" data-name="Mugla" name="Mugla"/><path id="TUR2281" d="M702.3 267.9l1.3 0.9 4.2-1.8 1.6 1.7 0.2 1.8-0.4 1.5-1.2 2.7 0.5 0.9-0.5 0.8-1.9 1.4-2 1.5-3.2 0.9-0.9 0.5-0.6 0.8-0.2 0.9-0.3 2.2-0.5 1-0.7 0.5-2.6 0.8 0.6 1 0 0.8-0.3 0.9-0.6 0.9 0.4 0.8-0.1 0.6-0.3 0.5-1.4-0.4-0.4-0.1-0.8 0.3-0.7 0.6-0.6 0.8-0.4 1 0.7-0.2 1.5-1 0.6-0.1 0.6 0.5-0.1 1.7 0.6 0.9-1 0.3-1.2 0.1-1 0.2-0.7 0.8 0.4 0.3 1.4 1.5-0.8 0.5-0.5 0-0.9-0.6-0.3 0.3-0.6 0.7-0.8 0.4-0.7-0.1-0.8-0.8-1 0.7 0.9 1 2.6 2-11.6 1.8-2.5 2.7-0.5 0.2-0.7 1.2-3.1 3.3-1.1 0.7-6.4 1.1-1.6-0.7-3 1.2-0.6 0-0.3 1.5-0.8 0.3-2.3-0.3-0.4 0.4-0.1 1.6-0.6 0.7-0.5-0.1 0-0.6-0.3-0.1-2.3-0.6-0.9-0.5-0.7-0.8-1.5 1.1-0.6 0-0.8-0.6-4.1-3.6-6.1-2.3-5.7-0.1-5.7 1.2-5.7-3.5-3.1-1.1-1.8-3 0-3.9 2.1-2.6 2.9-2.6 2.5-3.2 7.4-1.4 4.6-1.9 4.8-0.7 2.2 0.7 2.3 0.3 1.8-0.6 1.9-0.9 4.3-1.1 3.2-2.8 0.1-3.5 1.4-2.6 4-2.2 3.3-5 3.8-4.4 3.7 0 3.1-0.9 3 0.6 0.2 2.2-2 1.9-1.1 0.7 0.4 1.4 0.9 0.4 0.8 0.6 3.1 0.8 3.7 0 3.6 0.6 3.8-0.8 1.5-0.1 1.4-0.3 2.1-1 2.3-0.5 2.8-1.4 2.4-2.7z" data-id="TUR2281" data-name="Adiyaman" name="Adiyaman"/><path id="TUR2282" d="M764.1 248.9l-17.5 0.6-0.8-0.4-1.8-1.4-1.2-0.6-2.4 0.5-0.8 2.1-1.1 2.2-1.3 2-1.6 1.1-1.8 0.6-4-0.3-3.9 0.4-1.5 0.8-4 0.6-2.2 1-4.5-0.4-4.3-1.1-7.1 1.2-2.2-0.3-4.2 1.5-1.9-0.3-1.5-1.4-0.9-0.6-1.3-0.2-0.1-0.4-1.2-1.9-0.4-0.4-1.4-1 0.4-0.5-1.2-0.9-1.7 0.2-3.1 1.2-1.5-0.1-4.3-2.2-1 0.3-1.1-1-1.4-0.4-3-0.4-0.7-0.2-0.7-0.4-0.7-0.6-0.9-1.2-0.6-0.3-0.6 0.6-0.8-0.7-0.7-1.2-0.5-1.4-0.1-1.1-0.2-0.6-0.3-0.4-0.2-0.5 0.8-1.4 0.6-1.9 0.6-1 0.8-0.9 1-0.6 1.3-0.2 0.7-0.4 0.7-1 0.3-1.2-0.4-1.1 0.6-0.8 1.4-0.2 5.7 0.5 0.7-0.2 0-0.7 0-0.9 0.2-0.4-0.6-2.1 0-1.4-0.3-4.2-0.6-1.9-0.9-1.7 0-2.8 1.4-1.9 3.7-0.2 1.4-0.7 1.6-0.3 2 3 0.1 2-0.8 1.7 0 1.9 2.2 2.2 1.5 0 4.1-1.1 4.1-0.3 2.2 1 1.6-0.3 0.5 0 1.6 1 1.7 0.1 2.1 0.7 2.1 0.2 2.4 1.1 2.3 1.6 2.3 0.7 1 0.7 1.2 1.5 1.3-0.3 1.3 0.6 1.3 0.4 1.6-1.1 1.3-1.7 1.8-0.4 1.9 0.1 5-0.3 4.9-1.9 3.2-3.6 1.4-2.8 0.7-3.2-0.2-2.3-0.6-2.6 0.7-1.1 1-0.7 2.6-0.6 2.8-0.2 11.9-6.4 1.8-0.6 4.3-1.9 1.6 3.2-2.2 4.3-2.6 3.7-1 4.7 1.2 5.2 3.2 3.9 0.9 2.2-0.3 2.4-0.7 2.6-1 1.8-1.7-0.6-1.6-0.3-2.4 7.1 2.8 4.2 0.5 2.9 0.2 3.1z" data-id="TUR2282" data-name="Elazig" name="Elazig"/><path id="TUR2283" d="M606.8 240.5l-3 5.2 0.6 3.9 0.9 0 1.9-0.4 1-0.1 7.8 1.7 6.6 3.9 3.6 1.1 4.1 1.9 2.5 4.5-0.3 2.7-2.9 7.6-0.3 2-1 1.6-0.8 0.8-1.2 2-2.7 9.7-2.1 3.9-2.5 3.2-2.9 2.6-2.1 2.6 0 3.9 1.8 3 3.1 1.1 5.7 3.5-0.1 2 0.4 1.9-0.7 3-2.2 1.5-3.3-0.1-3.3 0.4-7 2.5-6.5 1.1-2.9 1.5-4.7 5-4-1.3-1.5-5.9-2.6-1.6-2.4 3.4-6.3 2.9-2.3-3.4-2.8-2.6-1.8-1.3-2-0.5-5.7 1.1-2 0.8-1.7 0.3-0.9-1-1.3 0.5-0.5 0.3-0.3 0.6-0.5 0.1-2.2-2.6-0.2-4.4-0.6-0.8-0.7-0.7-0.6-1.9 0.4-2 1.5-1.6 1.1-1.9 0.1-5.2 1.4-1.9 1-0.5 1.7-1.7 0.2-2.7-1.7-4.1-0.3-3.1 0.1-2 0.6-4.4 1.6-4.2 2.6-11.8 1.6-4.1 2.9-2.8 1.9-2 1.7-2.4 4-4.7 1.6-2.7 0.7-3.5 1-2 1.7-1.1 6.9-1.7 6.8 0.9 1.3 0.9 1.3 0.6 11.7-1z" data-id="TUR2283" data-name="K. Maras" name="K. Maras"/><path id="TUR2284" d="M680 212.4l-3.7 0.2-1.4 1.9 0 2.8 0.9 1.7 0.6 1.9 0.3 4.2 0 1.4 0.6 2.1-0.2 0.4 0 0.9 0 0.7-0.7 0.2-5.7-0.5-1.4 0.2-0.6 0.8 0.4 1.1-0.3 1.2-0.7 1-0.7 0.4-1.3 0.2-1 0.6-0.8 0.9-0.6 1-0.6 1.9-0.8 1.4 0.2 0.5 0.3 0.4 0.2 0.6 0.1 1.1 0.5 1.4 0.7 1.2 0.8 0.7 0.6-0.6 0.6 0.3 0.9 1.2 0.7 0.6 0.7 0.4 0.7 0.2 3 0.4 1.4 0.4 1.1 1 1-0.3 4.3 2.2 1.5 0.1 3.1-1.2 1.7-0.2 1.2 0.9-0.4 0.5 1.4 1 0.4 0.4 1.2 1.9 0.1 0.4 1.3 0.2 0.9 0.6 1.5 1.4 1.9 0.3 4.2-1.5 2.2 0.3 0.9 1 0.6 1.4 0.2 1.6-1.7 6.1-2.4 2.7-2.8 1.4-2.3 0.5-2.1 1-1.4 0.3-1.5 0.1-3.8 0.8-3.6-0.6-3.7 0-3.1-0.8-0.8-0.6-0.9-0.4-0.4-1.4 1.1-0.7 2-1.9-0.2-2.2-3-0.6-3.1 0.9-3.7 0-3.8 4.4-3.3 5-4 2.2-1.4 2.6-0.1 3.5-3.2 2.8-4.3 1.1-1.9 0.9-1.8 0.6-2.3-0.3-2.2-0.7-4.8 0.7-4.6 1.9-7.4 1.4 2.1-3.9 2.7-9.7 1.2-2 0.8-0.8 1-1.6 0.3-2 2.9-7.6 0.3-2.7-2.5-4.5-4.1-1.9-3.6-1.1-6.6-3.9-7.8-1.7-1 0.1-1.9 0.4-0.9 0-0.6-3.9 3-5.2 3.1-1.4 2.6-2.5 2.7-3.1 1.1-0.4 2.3-1.5 3.7-4 0.8-2.5-0.3-1.5-0.6-1.4-0.9-3-0.5-3.2 1.1-2.6 2.3-0.6 4.4 2.2 4.4-0.9 1.8-1.3 2-0.8 1.9-1.3 1.9-0.9 4.1-0.1 1.7-0.8 1.9-0.3 3.5 0.5 3.4-1 3.7-2.9 4.1-1.4 4.1 2.1 5 0.3 2.3 0.9 2.2 1.3 3.4 4z" data-id="TUR2284" data-name="Malatya" name="Malatya"/><path id="TUR2285" d="M476.9 321l1.7 3.9 1.9 3.7 2.5 1.9 0.2 6.7 1.2 3.8 2.4 1.8 3.2-0.1 2 2-1.5 4.1 0 3.7 0.7 3.7 0.2 1.8-0.2 1.8-1.9 1.8-2.2 0.6-2.8 1.9 0 0.1-1 0.2-0.7 0.3 0.3-1.3-0.7-0.4-2.1-2.3-4.3-2.2-0.3 0.4-1.5-0.8-2.3 0.5-3.4 1.6-1.6 0.3-0.6 0.2-1.6 0.9-0.3 0.3-0.5 1.2-0.3 0.3-1.6 0.9-4.5 4.1-5.7 3.6-1.6 1.4-4.5 5.7-0.4 1-0.2 0.6-0.5 0.5-1.1 0.5-1.9 1.9-1.8 1-0.1 1.7 0.3 2.1-0.1 1.7-1.1 0.9-1.6 0.3-1.4 0.5-0.5 1.4 0.3 0.1-1 1.3-0.4 0.8-0.2 1 0 0.7-0.3 0.5-0.9 0 0-0.4 0.5-1.2-0.3-1.8-0.8-1.6-1.1-0.7-0.7-0.3-0.7-0.4-0.6-0.2-0.8 0.7-1 1.6-0.9 0.9 0.3 0.4-0.6 0.5-0.8 1.4-1.1 0.3-1.8 0.8-0.4 0.3-1.6 1.7-0.2 0.7-0.3 1.8-0.5 0-1.3-2-0.2-0.9-0.5-0.3-0.7 0.2-0.7 0.3-1.2 1.1-1.2 1.5-1.1 1.1-1.2-0.2 0.7-0.4 0-0.4-1.2-0.2-2.2-0.6-1-0.1-1.2 0.2-1.8 1-0.8 0.1-2-0.7-1.1-0.1-0.9 1.1-1.2 0.2-2.3-0.1-1.5 0.5-0.6 0-0.7-0.1-1.1-0.6-0.5-0.2-1.2 0.4-0.7 0.8-0.5 1-0.7 0.9-0.5 0.4-0.9-0.4-0.7-0.1-1.6 0.1-3.5-0.8-1-0.1-3.3 1.8-0.6 0.2-0.5 0.7-2.8 2.2-2.2-0.1-4.7-1.1-2-1-3.1-2.1 0.1-0.4 0.8-1.3 0.4-1.5 0.2-1.7 0.7-1.7 0.9-1.6 0.8-3.1-0.3-7.2 0.5-3.8 3.4-0.4 3.4 0.9 3.2-0.1 2.9-1.3 3.1-0.8 3.2 0.2 1.7-0.3 1.2-1.2 0.7-2.4 0.7-2.1 0.7-0.3 0.8-0.2 1.9 1 2 0.8 1.3-1.7-1.2-2-2.4-1.8-2.8-0.7-1.1-0.9-1-1.3-1.3-0.6-0.7-1.7-0.5-1.9-0.9-1.5-1.1-1.3-0.1-2.1 2-0.4 0.8-0.3 2.4-1.5 1.5-0.6 0.7 0.4 0.5 1.2 1.9 0.5 1.1-1.9 0.6-2.9 1.7-2 2-0.6 1.7-1.3 1.7-1.5 1.9-1.2 2.1-0.6 6.6-0.6 4.2-1.6 4.3-0.4 1.8 0.6 1.3-0.2 1.9-1 3.8-0.7 5-3.9 1.9-0.8 3.9-0.3 3.7-1.4 1.8-2.2 1.4-0.8 4.5-1.6 3-1.5 2.3-2.2 1.6-0.9 2.7-0.9 1-0.7 0.6-2.1 3.9-0.1 1.8-0.6 1.6-1 3.6-1.6 3.7 0.9z" data-id="TUR2285" data-name="Mersin" name="Mersin"/><path id="TUR2286" d="M474 187l-2.9 0.5-3.4-0.8-1.1 0.7-0.2 1.5 0.4 2.4 1.2 2 0.6 3.5-0.7 4.4 1.5 2.7 1.2 2.6-2.2 2.8-3.2 1.4-2.8 1.8-6.3 2.6-1.2 3.6 0.7 3 0.2 1.5-2.1 0.6-5.8-4.9-1.1 0.2-2.3-0.3-1.1 0.3-2.6 1.6-2-1.9-0.8-2.6-2-1-1.2 0.1-2.1-0.4-0.7-1 0.3-2.3-3.2-1.2-0.7-0.7-1.7-0.8-2.8-0.2-1-0.8-0.9-1.3-0.7-0.6-0.9-0.3-2.6-2.2-5.9-3.7-1.1-3.8 5.9-10.3 8.4-6.8 3.6-5.7 2.4-7 8.3-8 1.1 1 1 1 2.9 0 2.7 2.6 2.6 3 2.4 0.8 4.1 0 1 1.5 0.5 1.5 0.6 1.4 7.2 8.9 2.3 1.5 2.6 0.5 2.3 1.9 1.3 3.2z" data-id="TUR2286" data-name="Kirsehir" name="Kirsehir"/><path id="TUR2287" d="M578.8 240.8l-1.7 1.1-1 2-0.7 3.5-1.6 2.7-4 4.7-1.7 2.4-1.9 2-2.2-2.3-1.3-3.5-2-3.1-2.7-1.2-4.2 1.1-4 2.3-2.3 1.9-2.2 5.5-1.5 2-2.2 4.6-2.8 3.9-19.4 13.3 1.2 12.1-2.8 1.3-6.4-2.5-4.7-1.2-9-0.7 0.9-4.1 0.2-3.4 2.4-1.5-0.5-2.4-1.1-2.3-0.2-2.8 0.5-2.8-1.4-4.5-8.5-0.1-3-3.2-3.7-10.2 1.4-2.7 2.1-2.3 4.6-7.4 0.3-3.1-0.6-3.1 0.2-3.1-3.6-4.7-2.4-4.9 1.4-3.4 1.1-3.6 0-1.6 0.1-1.7 0.6-1.4 0.7-1.2 11.8 1.9 5.9-3.8 2.3-0.8 16.9-11 4.4-6.1 2.7 0.2 2.6 1.3 0.4 0.7 0.7 1.4 0.4 0.5 1.7 0.7 1.7 0.3 5 3.6 5.1 0.7 4-1.4 8.6 1.2 2.6 2 2.6 0.9 4.7-1.6 4.9 0 4.4 0.9 4.2 2.2 1.9 6-2.2 6.3-1.2 2.5-1 2.5-1.4 5.3-2.1 6.1-0.2 1.1-0.4 1-1.2 2.2-0.2 2.8z" data-id="TUR2287" data-name="Kayseri" name="Kayseri"/><path id="TUR2288" d="M474 187l0.9 0.2 1.5 0.7 0.4 0.8 0.2 1.5 0.5 1.3 1.3 1.6 1.7 0.9 1 2 0.7 2.7 4.2 2.6 1.1 2-0.4 1.6 0.2 1.6 0.4 1.4 0.8 1.6 0.7 1.7-0.7 1.2-0.6 1.4-0.1 1.7 0 1.6-1.1 3.6-1.4 3.4 2.4 4.9 3.6 4.7-0.2 3.1 0.6 3.1-0.3 3.1-4.6 7.4-2.1 2.3-1.4 2.7-5.4 2.1-2.7-0.7-2.2-2.2-1.4-0.8-3.1 0.1-4.4 1.4-3-0.5-1.9-1.2-1.8-1.8-2.1-1.7-0.9-0.9-0.1-3.2 1.6-3.4-0.4-3-1.1-0.4-2.3 0.5-2.6-0.8-2.4-1.6-0.7-3.3 1.8-3.1 0.8-3.3-1.7-6 0.6-2.7 5.8 4.9 2.1-0.6-0.2-1.5-0.7-3 1.2-3.6 6.3-2.6 2.8-1.8 3.2-1.4 2.2-2.8-1.2-2.6-1.5-2.7 0.7-4.4-0.6-3.5-1.2-2-0.4-2.4 0.2-1.5 1.1-0.7 3.4 0.8 2.9-0.5z" data-id="TUR2288" data-name="Nevsehir" name="Nevsehir"/><path id="TUR2289" d="M543.1 345.8l2.3-0.4 2.1 0.6 2.2 0.1 2.4-0.7 2.4 0.8 1.7 1.8 2 1.3 2.6 0 2.6-0.3 3.4 3.4 4.2 1.9 0.9 0.8 0.4 1.4 0.7 0.5 0.8 0.1 0.5 0.6-1.1 0 0.2 1.6-0.6 1.2-0.8 1.2-0.7 1.3-0.2 1.4 0 1.3-0.2 1.2-0.6 1.6-0.7 2.7 0 2.9-0.3 2.8-1.5 2.5-0.2 1 0.1 1.1 1 3.5 0.6 0.8 1.1 0.5 0.4 0.9 0.1 1.1-0.7 1.5 0.3 0.6 1.7 0.2 0.9 0.3 0.6 0.7 0.5 1 0.4 1.1 0.2 0.9 0 1.4-0.3 0.6-3.7 0.7-1 0-3.9-0.6-1 0.1-0.6 0.2-0.2 0.9-0.3 0.4-0.4 0.2-2.1-0.3-0.7-0.3-0.6-0.4-0.7-0.8-0.6 0.6 0.8 0.9-0.1 0.5-0.7 0.9-0.1 1-0.2 9.3 0.1 1.9-1.1 0.3-2-0.8-1.1 0.5-0.4 2.2-0.8 0.2-1.3-0.3-1.7 0.6-1.1 1.9-0.3 4.5-0.6 1.9-1 0.2-3-2.2-1.6-0.7-1.6-0.1-0.8-0.2-0.6-0.5-0.1-0.8 0.1-0.8 0-0.9-0.7-0.7-1 0.2-1 0.3-1.1 0.3-0.4-0.2 0.5-0.9 2.3-4 0.6-0.5-0.1-1.1-1.4-4.5-3.7-6.1-0.7-0.9-0.6-1.1-0.6-2-0.7-0.9-0.9-0.7-0.6-0.8-0.6-1.5 0.1-1 1.4-2.1 0.4-0.6 0.5-0.3 1.2-0.2 0.3-0.3 0.6-1.5 0.4-0.5 0.9-0.5 0.5-0.4 0.3-0.6 0.2-1.3 0.7-0.4 0.6-0.7 2-0.7 0.5-0.3 2.4-3 0.4-0.7 0.6-0.1 5.6-3.6 0.8-0.1 0.5-0.5 0.7-1.2 0.5-1.3 0.2-1 0-0.9-0.5-1.1-0.2-1.2 0-4.1-0.2-1-0.5-1.1-3.1-4.4-1.7-1.8-2-1.4-2-0.5-1.8 0.7-1.8 1.6-0.9 1.1-0.9-1.3 0-2.7 4.3-4.9 1-0.7 1.1 0.3 1.2 0.4z" data-id="TUR2289" data-name="Hatay" name="Hatay"/><path id="TUR2290" d="M563 86.6l-1.5 0.8 0 0.5 0.4 0 0 0.5-0.7 0.9 0.6 1.2 1.1 1 0.8 0.6 0.9 0.4 1 2.7-1.8 2.7-0.9 2.3 0 2.5-2.3 3.3-4.2 0.9-0.4 3.5-0.8 0.5-0.7 0.7-4.3 2.8-3.2 1.6-1-0.1-0.9-0.7-1-0.5-1.1-0.3-1.5-0.8-1.3-1.1-4.2-1.1-4.3 0.3-1.4 1.7-2.3 5.2-1.6 2.7-1.3 2-1.6 1.8-1.8 0.8-1 0.3-2.8 1.2-1.5 1.6-2.1 4.4-2.6-0.8-2.7 0.2-2.3-0.2-1-0.7-0.4-1.4-0.5-0.2 0.6-4.7 0-1.8 0.5-1.6 4.5-6.9 1.2-4.9 0-2.6-1.3-3.1-0.9-0.4-1.8-0.3-3.9-2.4-8.7-1.5-1.6-1-1.4-2.5-2.1-4.5-0.5-1.9 0.8-4.5 0.1-6.9 0.7-2.1 1.1-1.4 0.8-1.7-0.5-2 16.2 4.6 3.2-0.6 1.7 1 7.5 5.8 1.8 3.1 1.8 0.5 3.9-0.3 2 0.4 6.9 0.1 4.1 2 2.2-0.5 1.9-1.7 2.3-1.5 1.6-2.9 1-3.1 2-1.3 1.9 0.7 1.5 1.6 0.6 1.6 0.9 1.4 5.6 4.1z" data-id="TUR2290" data-name="Amasya" name="Amasya"/><path id="TUR2291" d="M481.9 58.9l2.7 4.9 0.7 2.5 0.3 2.7 0.8 2.6 4-0.5 2 0.5 0.5 2-0.8 1.7-1.1 1.4-0.7 2.1-0.1 6.9-0.8 4.5 0.5 1.9 2.1 4.5 1.4 2.5 1.6 1 8.7 1.5 3.9 2.4 1.8 0.3 0.9 0.4 1.3 3.1 0 2.6-1.2 4.9-4.5 6.9-0.5 1.6 0 1.8-0.6 4.7-2.1 0.8-5 0.4-0.5 3 0.7 0.8-0.2 1.2-0.6 1.5-0.1 1.3-1.4 1.9-4.1 2.4-2.4 0.3-4.4-1.3-7.8 3.8-4.2 0.3-2.1-0.2-3.1 1.2-8-1.5-5.1 1.7-4.9 2.3-8.2 1-3 1.4 0-3.5 1.4-2.8 1-1.7 0.2-2.2-0.7-2-0.2-1.5-1-1.1-1.2-0.2-1.3-1.3-2.2-4.9-0.6-3.2 4.2-2.4 1-0.2 1-0.5 1.5-2.6 1.2-2.8 0.7-0.5 0.1-1.8-0.3-1.8-0.6-1.8-0.8-1.7-1.3-2.1-0.7-2.6 0.2-2.5-0.4-2.4-1.3-2.5-0.3-3 1.1-2.7 0.6-2.7-2.6-4.3 4.6-1 7.4-3.1 1.2-3.4-1.7-1.9-1.1-0.4-1-2.6 0.6-1.4 1.8-2.2 1.8-4.5 2.4-2.2 1.2-1.5 1.5-3.8 1.8-2.6 2.7-0.6 1.4 1.7 1.9-0.1 1.2 0.2 0.8 1 1.8 0.3 1.7-0.4 1.6 0.4 1.3 1 0.5 1 0.9 0.6 6 1.9 1.1-1.4 0.9-0.8 0.4-0.9 0.1-1.2 0.1-0.5z" data-id="TUR2291" data-name="Çorum" name="Çorum"/><path id="TUR2292" d="M703.8 93.4l-6.3 0.8-0.4 0.8-0.2 1-1 0.5-1.3 0.4-1.5 1.3-1.6 1.1-0.7 1.7 0.7 2.2-1 1.8-1.6 1.6-0.5 0.8-0.1 0.5-0.4 3.1 0.1 2.5 1.5 1.7 6.1 1.5 1.5 1.2 1.4 1.5 1.2 0.4-0.3 2.5-1.6 1.2-5.2 3-1.2 1.4 0 2.2 0.2 2.3-0.2 2.5 0.4 2.4 1.5 1.8-0.5 2.3-2.1 1-4.6 0.3-2.3-0.2-5.2-2.6-5.5-1.7-5.3 1.3-3.2-2-3.2-2.4-2.9-1.5-1.9-2.9 0.1-3.9-4.3-16.3-5-5.6 0.2-1.9 0.7-1.3 0.2-2.3-0.2-2.3 0.3-2.4-0.3-2.3-0.9-1.9 0-2.2 0.9-1.7 1.1-1.3 0.8-2.1-0.2-2.4 0.1-0.3 2.4 0.5 2.1 0.7 1.2 0 2.3-0.6 1 0.2 2.3 2 1 0 2-0.6 2 0.6 1.3 0.1 0.6-0.5 4-0.2 0.8-0.6 1.9-1.9 0.7-0.4 1.6-0.5 0.7 0.1 0.3 0.2 1.2 1.6 0.5-0.3 1 0 0.5-0.1 1.4-1.3 0.6-0.1 1.5-1.9 1.2-0.4 3.6-0.8 0.9-0.5 0.8-0.8 1-0.3 5.9-0.1 4.2-0.9 1.4-1.1-1.5 8.4-0.1 3.5 0.4 6.3 1 2.6z" data-id="TUR2292" data-name="Giresun" name="Giresun"/><path id="TUR2293" d="M650.1 80.5l-0.1 0.3 0.2 2.4-0.8 2.1-1.1 1.3-0.9 1.7 0 2.2 0.9 1.9 0.3 2.3-0.3 2.4 0.2 2.3-0.2 2.3-0.7 1.3-0.2 1.9 5 5.6-1.5 1.3-1.8 0.8-2.4 0.3-2.1 0.5-0.6 0.8-0.1 2 0.5 0.8-0.2 1.2-1.1 0.7-4.3-0.2-1.9 1.4-1.6 2.1-1.5 1.2-1.8 0.2-4-3.2-2.9-5.6-0.9-4.2-1.7-3.3-7.1-0.4-11.9-8.4-3.5-0.3-3.6 0.5-3.7-0.3-3.5-1.4-2.6-1.7-4.4-1.5-2.9-1.8-2.3-0.5-0.7-0.5-0.6-2 0.9-1.9 1.1-0.3 1.1-0.5 2.2-0.2 2.1-0.7 1.9-1.1 0.8-0.6 2-2.3 4.2-2.3 2.2-4.3 2.9-3.2 2.8-3.7 0-0.4 5.8-0.1 1.9 0.5 1.2 1.2 0.6 0.3 1.1 0.3 1.2 0.2 0.9 0.2 1.3 1.5 0.9 0.7 2.1 0.7 0.2 0.3 1.2 1.4 1.1 0.4 2-0.3 0.9 0.3 0.3-0.4 0.7-0.3 0.4-0.2 0.4-0.6 0.7-1.8 0.6-1.2 0.8-1.1 0.8-0.9 1-0.7 0.4 1.2 0.9 0.6 1 0 0.9-0.8 0.3 0.5 1.4-0.2 0 4.3 1 1.2 2.6 1.3 0.8 0.6 0.5 0.7 0.9 1.6 2-0.9 2.5 0.3 6.3 2.1 0.6 0.1z" data-id="TUR2293" data-name="Ordu" name="Ordu"/><path id="TUR2294" d="M513.8 33l-2 4.8-0.3 3.5 0.9 3.3 0.1 2.1-0.2 2 0.3 1.6 0.7 1.4 0.3 2.1 0.5 4.1-1.1 0.8-2.6-0.7-1.1 0.5-1.6 1.1-2.2 0.4-2.3-0.3-1.6-0.9-0.9-1-0.5-0.2-2.3-0.3-0.5-0.4 0.6-0.8-1.8-0.9-0.8-0.6-0.3-0.6-0.1-1.3-0.3-1.2-0.5-1-0.5-0.6-0.6 1-1.4 0.8-2.7 1.1-1.7 1.6-0.6 0.3-1.4 0.1-0.5 0.2-0.5 0.6 0.4 1.3-0.8 0.8-1.2 0.6-0.8 0.6-0.1 0.5-0.1 1.2-0.4 0.9-0.9 0.8-1.1 1.4-6-1.9-0.9-0.6-0.5-1-1.3-1-1.6-0.4-1.7 0.4-1.8-0.3-0.8-1-1.2-0.2-1.9 0.1-1.4-1.7 0.4-9.1-0.5-1.4-0.4-1.3 0.5-2.7 1-2.3 1.6-1.5 1.7-1.2 1.8-4.7-2.9-3.9-3.5-1-6.3-0.3-3.2-0.9-2.2-0.2-1.9 0-3.4-1.3 0.1-2.3 2.6-3.2 1.5-4.1-0.2-4 6 0.9 5.9-1.7 2-0.2 0.8 0.2 1.5 0.8 1.8 0.6 6.9 0.4 2.7-0.3 2.7-0.8 0.9-0.5 2-1.6 1.9-1.1 1.5-2 1.2-2.3 0.3-2.1 0.8 0.3 1.5 0.2 0.6 0.5 0.1-0.5 1-0.1 0.4 0.9 0.9 1.1-0.2 0.5 0 0.4 1.9 1.6 1.2 0.5 1.5-0.1 0.6-0.4 0.8-0.9 0.6-0.2 0.7 0.2 0.6 0.3 1 1 0 0.5-2.8-0.4-1.3 0.2-1.1 0.9-0.5 1-0.4 1.6-0.3 1.6-0.1 1.3 0.4 1.1 1.4 2.6 1.6 2.1 2.8 2.4 0 0.5-0.7 0 0.3 0.9 0.5 1.1 0.7 0.9 1.5 0.8 1.5 1.9 0.8 0.6 3.1 1.3 2.3 0.4 0.8 0.5 1.7 1.6 1.9 1.1 0.7 0.2z" data-id="TUR2294" data-name="Sinop" name="Sinop"/><path id="TUR2295" d="M683.8 142.5l-0.1 3.5-1.1 2.6-2.4 0-2.4-0.4-2.7 0.6-2.5 1.8-2.5-0.4-2.4-1.9-2.4 1.3-1.9 5.7 0.4 2.1 3.6-0.1 3.8-0.9 1.1 1.3-0.5 1.8-1.1 0.3-1-0.1-2 1.1-1.3 2.2-2.5 3.5-0.6 7-1.2 2.4 0.6 2.5 1.8 1.8 1.7 1.1 1.2 1.7-0.4 1-1.9 1.2-1.5 1.7-0.6 0.1 0.3 0.8 0 1.1 0.1 2.3 0.6 1.9 0.3 2.1-0.2 1.1-0.1 1.3 0.6 2.2-0.4 2.2-1.2 1.8-4.1 1.4-3.7 2.9-3.4 1-3.5-0.5-1.9 0.3-1.7 0.8-4.1 0.1-1.9 0.9-1.9 1.3-2 0.8-1.8 1.3-4.4 0.9-4.4-2.2-2.3 0.6-1.1 2.6 0.5 3.2 0.9 3 0.6 1.4 0.3 1.5-0.8 2.5-3.7 4-2.3 1.5-1.1 0.4-2.7 3.1-2.6 2.5-3.1 1.4-11.7 1-1.3-0.6-1.3-0.9-6.8-0.9-6.9 1.7 0.2-2.8 1.2-2.2 0.4-1 0.2-1.1 2.1-6.1 1.4-5.3 1-2.5 1.2-2.5 2.2-6.3-1.9-6-4.2-2.2-4.4-0.9-4.9 0-4.7 1.6-2.6-0.9-2.6-2-8.6-1.2-4 1.4-5.1-0.7-5-3.6-1.7-0.3-1.7-0.7-0.4-0.5-0.7-1.4-0.4-0.7-2.6-1.3-2.7-0.2 1.9-2.3 2.4-1.8 1.7-2.2 1.2-2.5 1.6-2.5 1.8-2.2 4.5-3.5 3.8-3.8 1.6-5.6-0.2-1.6-0.5-1.4-1.8-1-2.5-4.5-1.5-5 12.2-2.5 8.6-0.4 7.7-3 1.6-1.7 1.1-2.6 1-4.1 1.4-4 1.9-1.1 2-0.6 6 0.8 1.9-0.8 6.8-1.8 4.8-0.7 4.4 0.3 4.4-0.7 1.9-1 1.8-1.5 0.7-0.2 0.8 0 2-0.5 1.8-0.8 3.2-4.4 2.6-5.4 2.9 5.6 4 3.2 1.8-0.2 1.5-1.2 1.6-2.1 1.9-1.4 4.3 0.2 1.1-0.7 0.2-1.2-0.5-0.8 0.1-2 0.6-0.8 2.1-0.5 2.4-0.3 1.8-0.8 1.5-1.3 4.3 16.3-0.1 3.9 1.9 2.9 2.9 1.5 3.2 2.4 3.2 2 5.3-1.3 5.5 1.7 5.2 2.6z" data-id="TUR2295" data-name="Sivas" name="Sivas"/><path id="TUR2296" d="M599.9 67.5l0 0.4-2.8 3.7-2.9 3.2-2.2 4.3-4.2 2.3-2 2.3-0.8 0.6-1.9 1.1-2.1 0.7-2.2 0.2-1.1 0.5-1.1 0.3-0.9-1.6-1.8-1.3-2.7-0.1-0.4-0.2-0.3 0.5-1.8 0.8-5.7 1.4-5.6-4.1-0.9-1.4-0.6-1.6-1.5-1.6-1.9-0.7-2 1.3-1 3.1-1.6 2.9-2.3 1.5-1.9 1.7-2.2 0.5-4.1-2-6.9-0.1-2-0.4-3.9 0.3-1.8-0.5-1.8-3.1-7.5-5.8-1.7-1-3.2 0.6-16.2-4.6-2-0.5-4 0.5-0.8-2.6-0.3-2.7-0.7-2.5-2.7-4.9 0.8-0.6 1.2-0.6 0.8-0.8-0.4-1.3 0.5-0.6 0.5-0.2 1.4-0.1 0.6-0.3 1.7-1.6 2.7-1.1 1.4-0.8 0.6-1 0.5 0.6 0.5 1 0.3 1.2 0.1 1.3 0.3 0.6 0.8 0.6 1.8 0.9-0.6 0.8 0.5 0.4 2.3 0.3 0.5 0.2 0.9 1 1.6 0.9 2.3 0.3 2.2-0.4 1.6-1.1 1.1-0.5 2.6 0.7 1.1-0.8-0.5-4.1-0.3-2.1-0.7-1.4-0.3-1.6 0.2-2-0.1-2.1-0.9-3.3 0.3-3.5 2-4.8 1.6 0.6 2.4 0.3 2.3-0.2 1.1-0.5 1.9-1.2 3.2-0.6 5.6-2.3 1.2-0.2 1.2-0.5 2.2-1.7 1.1-0.3 0 0.5-0.5 0.9-0.4 0.3-0.5 0.2 0.1 1.1-1 2.2 0.2 1.1 0.3 0 0.2-1.7 0.5-1.5 0.7-1.2 0.7-0.9 0.8-0.5 3.2 2.9 0-0.9 0.3 0 4 5.1 0.7 2 0 2.9-0.2 0.7-0.5 1.4-0.1 2.3 0.2 1.1 0.6 1.2 2.3 2.9 1.3 0.9 1.7 3.4 0.9 0.7 2.6 1.4 1.5 0.3 0.3 0.4 0.3 2 0.4 0.4 1.2 0.4 1.1 1.5 0.5 0.2 1 0.1 0.4 0.4 1 0.4 1.3-0.3 2.2-1.3 2.7-2.4 0.5-0.7 0.1-0.6 1.1-1.9 0.3-1.5 0.6-0.7 0.7 0.1 0.9 0.3 1.1 0.2 4.5 0 4.1 1.1 7.7 3.9 1.6 1.4 0.9 2.2 0.1 3.1 0.3 1.2 0.8 0.5 1.1 0.2 2 1.2 1.1 0.5 0.8 0z" data-id="TUR2296" data-name="Samsun" name="Samsun"/><path id="TUR2297" d="M576.6 87.1l-0.9 1.9 0.6 2 0.7 0.5 2.3 0.5 2.9 1.8 4.4 1.5 2.6 1.7 3.5 1.4 3.7 0.3 3.6-0.5 3.5 0.3 11.9 8.4 7.1 0.4 1.7 3.3 0.9 4.2-2.6 5.4-3.2 4.4-1.8 0.8-2 0.5-0.8 0-0.7 0.2-1.8 1.5-1.9 1-4.4 0.7-4.4-0.3-4.8 0.7-6.8 1.8-1.9 0.8-6-0.8-2 0.6-1.9 1.1-1.4 4-1 4.1-1.1 2.6-1.6 1.7-7.7 3-8.6 0.4-12.2 2.5-0.6-1.5-1-0.9-1-2 0.1-2.6 0.4-3.8-2.2-2.2-2.2 0.6-2.2 1-2.4 0.5-2.4 0.2-4.1-0.8-4.9 0.4-4.1-2.9-3.6-4.1 2.1-4.4 1.5-1.6 2.8-1.2 1-0.3 1.8-0.8 1.6-1.8 1.3-2 1.6-2.7 2.3-5.2 1.4-1.7 4.3-0.3 4.2 1.1 1.3 1.1 1.5 0.8 1.1 0.3 1 0.5 0.9 0.7 1 0.1 3.2-1.6 4.3-2.8 0.7-0.7 0.8-0.5 0.4-3.5 4.2-0.9 2.3-3.3 0-2.5 0.9-2.3 1.8-2.7-1-2.7-0.9-0.4-0.8-0.6-1.1-1-0.6-1.2 0.7-0.9 0-0.5-0.4 0 0-0.5 1.5-0.8 5.7-1.4 1.8-0.8 0.3-0.5 0.4 0.2 2.7 0.1 1.8 1.3 0.9 1.6z" data-id="TUR2297" data-name="Tokat" name="Tokat"/><path id="TUR2298" d="M876.2 47.7l0.7 4 0.4 3 0.6 1.7 0.4 0.7 1 2.5 1.5 4.8-1.4 4.7-4.4 2.2-4.5 5-3.3 6.5-3 0.3-3.1 0.7-3.6-0.4-3.6 0.3-1.8 1-1.6 1.4-0.6 2.7 0.3 3-1.3 2.8-2.1 2.1-1 2.7-0.1 3.1-2.4 3.6-4.5-2.5-4-1.2-4.1 1.2-4.4 2.9-4.8 1.8-3.6-3.1 0.7-5.9 1.4-2.5-0.4-2.2-1.9-0.7-6.5-1-4-2.3 0.7-2.8 5-5.8 1.2-0.6 1-1 0.5-1.5 0.8-1.4 2.8-1.8 1.4-3.3-1.5-1.7-2.1-1-0.5-1.2-0.6-1.2-1.1-0.7-1-0.9-1-2.4-0.4-2.7-1.5-3.8 4.5-3.7 1.3-0.5 1.1-0.6 0.6-0.2 1.8-0.2 0.7-0.3 1-0.7 0.7-1.3 0.6-1.4 0.2-1.6 0.5-0.3 3.1-2.8 0.7-1.3 5.5 2.4 0.7 0.1 1.6-0.1 1.3-0.6 0.4 0.3 0 1.1 0.2 0.4 0.6 0.2 1.5 0.2 0.7 0.3 2.1 1.9 0.6 0.3 0.5-0.3 2.1-1.8 1.6-2.4 0.8-0.5 2.1-0.9 3.7 1.5 1.8-0.6 0.8-0.4 0.7-0.1 0.7 0.1 0.8 0.4 1.6-0.5 0.8 0 0.8 0.5 0.8 0.8 1.3 0.1 2.5-0.1 9.2 3.5 0.7 0z" data-id="TUR2298" data-name="Artvin" name="Artvin"/><path id="TUR2299" d="M880.7 105.3l-0.4 2.4-0.8 2.3 1.2 6.9-2 1.3-2.2 0.9-1.8 1.2-1.7 1.4-3.3 1.9-7.6 2.6-1.6 3.7 1.8 2.2 1.1 1.8 1.3 1.4 4.5 0.8 1.7 0.6 1.5 1.1 0.9 1.2 0.7 1.4 0.8 0.7 1.1 0.3 2 0.9 1.4 2.1 1.2 2.7 1.6 2.5-1.5 1.6-1.7 1-1.4 0-0.7 0.1-1.2 0.6-1.1 1.6-1.9 0.6-3.9-0.7-1.9 0.8 4.3 5.2 7.4 3-0.7 0.5-0.6 1.8 0.1 9.2-0.5 3.2-1.6 2.7-1.1 0.4-2 0.3-1.9 0.1-7.2 3.6-1 3 0.3 3.1-1.5 2.5-3.6 2.2-1 1.2-1.6 1.5-6.4 1.1-2.1 1.2-2.1 1.6-4.5-0.2-4.4-1.8-1.3-1.1-3-4.3-5.1-5-1.9-1.3-4.2-1-8.4 1.4-2.2-3.9-2.3-2.7-3.2-0.4-3.8-1.8-5.1-4.8-1.6-0.9-1.5 0.8-1.5 1.1-4.7 2-4.6-0.7 0.1-4.1 1.9-3.6 1.2-2.8-1.7-1.9-2.2-1-2-1.4-1-1.2-0.7-1.4-0.2-1.9 0.1-1.9-3.5-4.6-8.9-0.2-2.8-1.4 0.5-3.9 1.6-3.6 8.5 1 1.9-0.3 2.3-1.8 2.2-2.2 2.9-1.4 6.5-2.3 1.5-1.8 1.2-2.5-0.1-1.4-3.5-0.3-1.5-0.6-3.4-0.8-3.2-1.8-1.3-4.2-1.5-9.3-1.7-4.2 8.5-4.3 2-0.5 2.2-0.3 3.1-0.9 1.6-3.9 1.8-0.8 2.3 0 2.2-0.8 5.6-4.8 4-2.3 4 2.3 6.5 1 1.9 0.7 0.4 2.2-1.4 2.5-0.7 5.9 3.6 3.1 4.8-1.8 4.4-2.9 4.1-1.2 4 1.2 4.5 2.5 2.4-3.6 0.1-3.1 1-2.7 2.1-2.1 1.3-2.8-0.3-3 0.6-2.7 1.6-1.4 1.8-1 3.6-0.3 3.6 0.4 3.1-0.7 3-0.3 1.1 5.3 2.7 4.1 1.9 1.3 1.5 1.9 1.1 2.7 1.5 2.3 2.1 2.1 1.6 2.8z" data-id="TUR2299" data-name="Erzurum" name="Erzurum"/><path id="TUR2300" d="M763.1 143.1l-1.6 3.6-0.5 3.9 2.8 1.4 8.9 0.2 3.5 4.6-0.1 1.9 0.2 1.9 0.7 1.4 1 1.2 2 1.4 2.2 1 1.7 1.9-1.2 2.8-1.9 3.6-0.1 4.1-3.4-1.1-4.2-0.1-4.3-0.7-7.7-0.2-1-0.6-2-0.7-0.6-0.1-0.1 0.2-1.7 0.6-2 0.9-1.1 0.2-4.8 1.6-4.1-1-2.8-1.6-1.9 0.6-2.4 3-3.6 1.2-8 1.2-4.1 0-4-0.9-4-0.3-2.1 1.1-2.2 0.6-2.7-0.5-2.7 0.5-5.2 2-1.4 1.1-1 1.8-1.3 0.7-1.5-0.1-0.7 1.1-0.6 1.2-0.6 0.3-3.1 1.1-0.9 2.2 0.7 2 0.7 1.3-1.4 0.9-1.4 0.3-1.2 0.7-0.8 3.8-1.8 1-0.2 1.6 0.2 1.6 0.9 0.7 0.4 4.2-1.6 0.3-1.4 0.7-3.4-4-2.2-1.3-2.3-0.9-5-0.3-4.1-2.1 1.2-1.8 0.4-2.2-0.6-2.2 0.1-1.3 0.2-1.1-0.3-2.1-0.6-1.9-0.1-2.3 0-1.1-0.3-0.8 0.6-0.1 1.5-1.7 1.9-1.2 0.4-1-1.2-1.7-1.7-1.1-1.8-1.8-0.6-2.5 1.2-2.4 0.6-7 2.5-3.5 1.3-2.2 2-1.1 1 0.1 1.1-0.3 0.5-1.8-1.1-1.3-3.8 0.9-3.6 0.1-0.4-2.1 1.9-5.7 2.4-1.3 2.4 1.9 2.5 0.4 2.5-1.8 2.7-0.6 2.4 0.4 2.4 0 1.1-2.6 0.1-3.5 2.3 0.2 4.6-0.3 2.1-1 1.4 0.9 1.5 0.7 1.6 0.2 1.6 0.4 5.6 3.4 2 0.8 1.9 1.2 0.8 1.1 1 0.9 3.1 1 3.1 1.6 3.2 0.3 3-0.3 3.1 0.2 3-0.3 2.8-1.4 5.8-1.4 2.3-2.4 2-3 2.8-1 3 0.2 2.6-0.3 2.1-1.9 2.4-1 8.6 1.8z" data-id="TUR2300" data-name="Erzincan" name="Erzincan"/><path id="TUR2301" d="M807.2 90.6l-4 2.3-5.6 4.8-2.2 0.8-2.3 0-1.8 0.8-1.6 3.9-3.1 0.9-2.2 0.3-2 0.5-8.5 4.3-0.7-4.4 0.6-4.6-3.3-8.4-0.6-4.8-1.3-4.6-1.8-4.3 5.8-3.9 1.9 0.8 1.5 0.1 1.5-0.4 1.6-1 1.9-1.7 0.7-0.2 1.7-0.2 0.8-0.3 0.6-0.4 3.1-4.2 3.6-2.8 0.6-0.2 0.8 0.1 2.3 0.9 1.3-0.3 1.9-1.3 0.9-0.4 1.1-0.1 1.2-0.5 1.2-0.6 0.9-0.7 2.1-2.2 1.1-0.7 1.3-0.4 1.3 0 1-0.4 0.4-0.3 1.5 3.8 0.4 2.7 1 2.4 1 0.9 1.1 0.7 0.6 1.2 0.5 1.2 2.1 1 1.5 1.7-1.4 3.3-2.8 1.8-0.8 1.4-0.5 1.5-1 1-1.2 0.6-5 5.8-0.7 2.8z" data-id="TUR2301" data-name="Rize" name="Rize"/><path id="TUR2302" d="M766.8 78.1l1.8 4.3 1.3 4.6 0.6 4.8 3.3 8.4-0.6 4.6 0.7 4.4-1 0.2-2.1 0.7-5.4-0.1-2.6 0.5-2.5 0.8-2.3 0.1-4.3-1.4-4.5-0.1-2.1-1.3-3.2-3.6-1.6-0.6-1 0.9 0.3 1.6-0.8 1-1.1 0-2.5-4.2-3.5-2.4-1.7 1.2-0.6 2.8-0.8 0.9-1 0.3-3.2-0.4-12.1-5-3.5-3.6-0.8-4.1-2.2-1.2-0.9 1.2-1 0.9-1.1-0.1-1-0.8-1-2.6-0.4-6.3 0.1-3.5 1.5-8.4 0.4-0.3 0.6-0.2 1.8 0.2 0.9 0.3 1.6 1.4 1.2 0.2 0.9-0.3 1.4-1 1.1-0.2 0.6-0.2 2.8-1.6 0.8-0.9 0.6-0.1 3.3 0.8 0.7 0.7 1.3 1.8 3.1 2.7 2 1.2 2.1 0.4 1-0.4 1.1-0.5 1-0.1 1.4 1 0.6 0 1.2 0 0.4 0.1 3.1 2.5 1 0.5 1 0.2 0.8-0.7 3.3-1.1 1.3-0.1 3 2.8 1.5 1 2.1 0.4 0.8-0.1 1.6-0.7 1.2-0.3 1.9-0.7 1.2-0.8 2.4-0.7 2.7-1.7z" data-id="TUR2302" data-name="Trabzon" name="Trabzon"/><path id="TUR2307" d="M921.4 148.4l1.2 3.8-0.3 3.3 0 1.6 0.7 2.5 0.9 0.8 1.8 0.7 3.3-2.4 3.5-1.4 1.7 0.3 0.7 0.6 1.7 0.8 1.1 0 1.7 1.2 1.1 2.5 1.6 2.1 4.7 2.2 3.3 0.8 0.3 0.9 0.3 1.1 4.8 0.7 5.2-0.6 3.9 1.2 4 0.5 9.3-2.2 2.1 0.5 0.8 0.7-0.3 1.1-1.7 3.5-0.3 0.9-0.1 1.1 0.3 1.9 0 0.8-0.6 0.8-0.2 1.5 0.2 1.3-0.1 1.2-0.8 1.3-1 0.8-2.7 1.2-1.2 0.3-1.3-0.1-3.6-1.8-1.3-0.2-2.8 0.8-1.2 0.1-1.2-0.1-0.8 0-0.8 0.3-1 0.6-0.6 0.9 0.3 0.8 1.4 1.6-7.4 2-1.9-0.4-0.9-0.3-3.1-0.3-2.5-0.9-2-0.3-2 0.3-1.5 1.1-1.3 1.4-1.8-0.1-4.5-0.8-2.4-1.5-3-3.2-3.6-1.6-4-0.3-2.3 1.8-1.9 2.5-1.8 0.6-3.1 0.6-1.2 0.5-0.4 2 1.9 1.2 2.1 0.8 0.3 2.1-0.3 2.3-0.1 2.4-1.3 1.4-6.1 2.4-9.6 2.2-1.7 1.4-1.9 1.1-2.4 0.8-2.3 1.4-0.2-3.5 0.4-3.3 0.6-2.6-0.1-1-0.3-1 0.3-4.3-1.9-2.8-1.3-1.2-0.9-1.9-1.6-1.9-1.6-1.5-2.2-3.7-1.4-4.3 1.6-2.7 0.5-3.2-0.1-9.2 0.6-1.8 0.7-0.5-7.4-3-4.3-5.2 1.9-0.8 3.9 0.7 1.9-0.6 1.1-1.6 1.2-0.6 0.7-0.1 1.4 0 1.7-1 1.5-1.6 10 2 16.1-4.6 5.6 0.1 2.4 0.6 2.4-0.5 2.8 1.2z" data-id="TUR2307" data-name="Agri" name="Agri"/><path id="TUR2308" d="M811.2 189.3l-1.4 2.6-0.3 1.5 0.8 2 0.3 0.6 0.5 1.3 0 1-0.1 2.1 1.2 2.1 1 1 1.4 2.6 0.4 3-0.7 2.7-3.6 4.5-1.6 5.2 1.1 3.8 1.1 1.6 0.6 0.2 1.2 1 0.6 1.6 0.4 1.7-2.6 1.8-6.3 2.5-6.5 4-3.4 1-8.9-0.4-2.6-0.7-1.8-0.2-5.1 0.8-2.9 1.5-0.3 1.8-0.1 2-1.3 2.2-2.1 1-6.1 0.2-0.2-3.1-0.5-2.9-2.8-4.2 2.4-7.1 1.6 0.3 1.7 0.6 1-1.8 0.7-2.6 0.3-2.4-0.9-2.2-3.2-3.9-1.2-5.2 1-4.7 2.6-3.7 2.2-4.3-1.6-3.2-4.3 1.9-1.8 0.6-11.9 6.4 0.9-2.1 0.4-2.2-1.1-5.1 0.3-1.8 0.6-1.7 0.3-3.3 0.7-1.4 2.6-0.8 3.7 0.2 0.7-0.3 0.5-1.1 0.4-1.3 2.4-1 2.5 0.1 2.5-1.8 1.4-3 0.9-0.7 2.4 0.4 1.4 0.1 2.6-1.2 2-2.5 3.4 1.1 4.6 0.7 4.7-2 1.5-1.1 1.5-0.8 1.6 0.9 5.1 4.8 3.8 1.8 3.2 0.4 2.3 2.7 2.2 3.9z" data-id="TUR2308" data-name="Bingöl" name="Bingöl"/><path id="TUR2309" d="M822.5 245.1l0.3 2.3-2 1.1-1.7 0.2-1.7 0.5-2.7 1.3-1.2 1.7-0.4 2.4-1.1 3.6-0.6 3.9 0.7 7.2-0.4 3.7-0.8 1.6-1 1.4-2.4 8-2.1 2.4-2.5 1.8-0.5 1.6 0.5 1.9 0.4 2.5 1.2 2-3.4 1.5-18.2-0.4-5.7 1.2-0.7 1.5-2.4 3.3-4.2 0.3-5.8 4.5-2.6 1-5.7 4-2.3 2.1-5.1 6.6-2.4-2.7-1.8-3.4-1.8-5.3-0.2-1-0.5-1.9-0.8-5 0.4-7.1-0.8-1.6-0.9-0.3-1-0.5-1.3-1.3-1.5-0.6-1 1.6-2.5-1.1-2-1.8-1.7-0.6-1.6-0.8-3.4-2.9-3.2-3.3-2.9-1.4-3.1-0.1-4.2-0.7-4.1-2.2 1.9-1.4 0.5-0.8-0.5-0.9 1.2-2.7 0.4-1.5-0.2-1.8-1.6-1.7-4.2 1.8-1.3-0.9 1.7-6.1-0.2-1.6-0.6-1.4-0.9-1 7.1-1.2 4.3 1.1 4.5 0.4 2.2-1 4-0.6 1.5-0.8 3.9-0.4 4 0.3 1.8-0.6 1.6-1.1 1.3-2 1.1-2.2 0.8-2.1 2.4-0.5 1.2 0.6 1.8 1.4 0.8 0.4 17.5-0.6 6.1-0.2 2.1-1 1.3-2.2 0.1-2 0.3-1.8 2.9-1.5 5.1-0.8 1.8 0.2 2.6 0.7 8.9 0.4 3.4-1 6.5-4 6.3-2.5 2.6-1.8 2.7 3.5 3.5 2.6 0.5 2.6-0.6 2.7 0.7 1.8 1.6 0.5z" data-id="TUR2309" data-name="Diyarbakir" name="Diyarbakir"/><path id="TUR2310" d="M885.4 213.8l-3.8 3.1-4.3 1.6-8.5-0.9-1.8 0.6-1.7 1.2-2.1 0.9-2.2 0.2-1.1 0.8-0.6 3.1-1.1 1-4.6-0.2-1 2.5 1.7 2.6 0.3 2.9-2.2 1.8-3 3.5-3.7 2.1-8.9-0.7-8 3-0.6 0.9-2.9 0.4-2.8 0.9-1.6-0.5-0.7-1.8 0.6-2.7-0.5-2.6-3.5-2.6-2.7-3.5-0.4-1.7-0.6-1.6-1.2-1-0.6-0.2-1.1-1.6-1.1-3.8 1.6-5.2 3.6-4.5 0.7-2.7-0.4-3-1.4-2.6-1-1-1.2-2.1 0.1-2.1 0-1-0.5-1.3-0.3-0.6-0.8-2 0.3-1.5 1.4-2.6 8.4-1.4 4.2 1 1.9 1.3 5.1 5 3 4.3 1.3 1.1 4.4 1.8 4.5 0.2 2.1-1.6 2.1-1.2 6.4-1.1 1.6-1.5 1-1.2 3.6-2.2 1.5-2.5-0.3-3.1 1-3 7.2-3.6 1.9-0.1 2-0.3 1.1-0.4 1.4 4.3 2.2 3.7 1.6 1.5 1.6 1.9 0.9 1.9 1.3 1.2 1.9 2.8-0.3 4.3 0.3 1 0.1 1-0.6 2.6-0.4 3.3 0.2 3.5z" data-id="TUR2310" data-name="Mus" name="Mus"/><path id="TUR2311" d="M893.7 268.6l-1.5 4.4-0.6 0.8-0.6 0.9 0 2 0.3 2.1-0.2 3-1.6 2.4-2 0.1-3.5-2.5-5.3-3-3.2-2.4-2.4-1-3.6-0.9-3.8-1.6-3.3-2.6-3.1-3.1-3.5-1.6-4.5 1.7-4.5 1.2-5.6-0.5-5.4-2-0.1-1.5 0.2-1.5 0-2.5-0.2-2.4-1.2-3.6-1.8-9-4.5-1.7 0.6-0.9 8-3 8.9 0.7 3.7-2.1 3-3.5 2.2-1.8-0.3-2.9-1.7-2.6 1-2.5 4.6 0.2 1.1-1 0.6-3.1 1.1-0.8 2.2-0.2 2.1-0.9 1.7-1.2 1.8-0.6 8.5 0.9 4.3-1.6 3.8-3.1 2.3-1.4 2.4-0.8 1.9-1.1 1.7-1.4 9.6-2.2 0.1 5.2 1.6 3.4 6.1 3.7 2.1 3.3-1.5 4.9-3.8 3-2.8 3-4.8 7.2-0.9 2-1.1 1.9-3.3 2.3-5.6 3.2-0.9 0.9-0.5 2.9 0.3 1.4 1.9 4.2 0.2 0.9 0.1 1.7-0.5 2.3 0.9 3.4 2.8 0.9z" data-id="TUR2311" data-name="Bitlis" name="Bitlis"/><path id="TUR3008" d="M414.5 123.1l-0.7 5.6-0.7 3.9 0 4.6 0.4 4.1-0.7 3.9-6 0.7-3.9 1.6-2.3 5.8-1.3 5.8-1.6 5.7 1.3 5.8 4.2 5 1.4 2.6 2.1 9.7 4.1 8.1 1.1 3.8 5.9 3.7 2.6 2.2 0.9 0.3 0.7 0.6 0.9 1.3 1 0.8 2.8 0.2 1.7 0.8 0.7 0.7 3.2 1.2-0.3 2.3-1.8 4.4 2.1 5.7-0.2 3.9-4.3 4.1-2 1-4.7-0.1-4.5 1.2-4.3 2.5-4.5 1.2-1.1-2.7-1.7-2.4-1.3-2.5-1.1-2.8-0.2-3.8 0.6-3.9 0.3-3.7-0.3-3.6-2.8-6.5-5.1-3.7-3-1-0.9-0.5-2.3-1.7-2.2 0-1 1.4-0.5 1.7-0.5 3.5-0.7 1.3-2.3-0.4-3-2.3-2.5-0.8-5.3 4.4-1.9 2.5-2.4 1.4-3.9-1.7-3.3 1.6-3.1 2.5-2.2-0.2-1.9-1.8-1.7-0.9-4.4-1.5-2.7 0.3-5.4 1.6-1.9-0.6-7.5-6.2-2.2-1.4-2.3-1 1.3-0.9 2.7-1.3 1-1.4 1.1-0.4 1.1-0.1 1.3-1.2 1-1.7-0.4-2-1.6-1.1-1.1-1.8-0.1-2.6-0.3-1.2 0.5-2.1 0.3-2 0-2.1-0.6-1.4-0.8-1.2-0.2-2.1-0.7-1.4-2.6-2.3-2.6-7.2-0.4-3.4 2.2-2.4-0.1-1.8-0.7-0.5-0.7-1.1-0.4-1-1.8-0.1-1.5-0.9-1.3-2-0.8-2.1-0.2-1.7-0.6-1.2 0-2-2.4 0.3-2.1-1.4-1.9 0.7-3.8 0-2 0.5-1.7-0.6-1.5 0.5-2.2-2.3-1.3 0.2-1.3 0.4-4.8-0.6-1.4 1.2-1.5 1.1-1.4-0.5-1.3-0.9-3-0.3-5 2.2-2.1 0.1-1.2-0.4-0.3-1.4-0.6-4.1-2.2-2.8 3.2-4.3 4.3-2.5 1.6-3.5-0.2-4.1 0.5-2.6 1.3-1.4 4.9 1.7 4.6 2.8 8.8-1 1.7 1.9 1.2 0.6 1.5 0.2 1.6 0.6 1.7 0.2 4.7-1.9 2-0.2 6.5 0.1 4.5-1 3.6-1.7 6.1-1.5 2.2-1.5 2.2-0.7 7.2 1.1 4.2-2.3 1.4-2.5 1.9-2.1 0.9-1.6-2-5.5 0.2-3.7 1.5-1.4 1.9-0.8 4.1-0.2 4.1 0.7 15.3 7.1 1.5 2.1 1.2 2.3 1.7 2 2 1.5 0.9 0.4 2.2 2 1.7 1 1.1 1.7 0.6 2.4 3.4 2.7 3.8-0.5 0.3-1.7 0.5-1.9 1-0.5 1 0.1 1.7 0.6 1.5 1 7.1 2.3z" data-id="TUR3008" data-name="Ankara" name="Ankara"/><path id="TUR3009" d="M437 87.3l2.6 4.3-0.6 2.7-1.1 2.7 0.3 3 1.3 2.5 0.4 2.4-0.2 2.5 0.7 2.6 1.3 2.1 0.8 1.7 0.6 1.8 0.3 1.8-0.1 1.8-0.7 0.5-1.2 2.8-1.5 2.6-1 0.5-1 0.2-4.2 2.4-4.8-0.5-14.4-4.6-7.1-2.3-1.5-1-1.7-0.6-1-0.1-1 0.5-0.5 1.9-0.3 1.7-3.8 0.5-3.4-2.7-0.6-2.4-1.1-1.7-1.7-1-2.2-2-0.9-0.4-2-1.5-1.7-2-1.2-2.3-1.5-2.1-15.3-7.1-4.1-0.7-4.1 0.2 0.8-3.8 0.2-2 5.4-2.5 6.2-5 2.5-4.5 1.8-1.1 5.1 0.5 5.1-2.8 2.2-5.6 1.2 1.6 0.7 0.6 6.7 0.8 4.7 3.1 2 2.3 2.4 0.8 2-0.7 5.5-3.3 4-0.7 8.5-4.6 1.7-0.6 0.8 0.5 0.6 2.7-1.6 2.2-1.4 1.5-0.6 2.1 2 3.3 3 1.1 1.7 1.6 1.7 1.2 2.2 0.5 2.1 0.1z" data-id="TUR3009" data-name="Çankiri" name="Çankiri"/><path id="TUR3010" d="M346.3 54.7l-2.7 3.9-1.9 2.3-0.9 3.6-1.7 5.6 0 6.2-11.2-0.3-3.2-0.9-3.8-0.3-12.7-1.3-8.9-4.4-2-1.9 1.7-1.6 0.7-1 0.4-1 0.2-1.1 0.1-1.4 0.1-0.7 0.5-1.4 0.1-0.8-0.2-0.4-1-0.6-0.2-0.6 0.6-0.9 1.1-0.4 2.4-0.2 0.3-0.3 0.8-1.3 0.3-0.3 0.5-0.1 7.9-3.1 11.1-7.4 6.3-3.1 1.9-1.5 0.5-0.3 4.9-1.7 3 3 3.1 1.4 1.1 3.6 1.9 4.8-1.1 5.9z" data-id="TUR3010" data-name="Zinguldak" name="Zinguldak"/><path id="TUR3011" d="M407.8 237.8l-1 1.9-3 3.4-1.2 2.2-0.7 5.3-1.9 2.8-1.2 3.5-0.3 2.5-0.8 2.3-0.4 5.4 1.9 5.1 0.7 0.5 0.5 0.7 0.4 2.8 0.8 2.5 3.5 4.3 2.2 2.1 2.2 0.1 6.2-1.4 8.2-0.6 4.1 0.2 4.1-1 4-1.6 3.9-0.9 3.9 0.6 0.7 3.4 1.8 2.7 2.5 1 2.4 1.3 2 2.9 1.8 3.2 2 2 1.7 2.3 0.6 3.8-1.2 3.4-1.2 1.4-0.8 1.7-0.3 3 0 1.9 2 2.9 1.3 1 1.9 2.2 1.2 2.8-0.6 2.1-1 0.7-2.7 0.9-1.6 0.9-2.3 2.2-3 1.5-4.5 1.6-1.4 0.8-1.8 2.2-1.3-2.6-3.5-5.9-7.3-7.9-5.9-6.5-1.1-4.2 0.1-1-0.3-3.2-2.2-0.8-5.1-0.2-2.4 1.5-1.5 2-2.6 3.4-5.3 2-8.1 0.5-7.8 1-4.9 2-8.9 9.9-6.3 8.6-4.9 6.5-1.3 4.3 0.3 2.3 3.2 1.5 3.1 0.2 0.8 1.8-0.2 1.9-1.6 2.5-7.4 7.4-5.9 4.4 0.4-4.4-0.8-4.3-1.1-1.6-1.7-0.4-2.4-0.2-2.2-0.8-0.8-1.8 0.6-2 1.3-1-0.2-2-1.7-1.1-2-0.8-3.5-3.3-1.5-1.1-1.5-1.4-2.3-3.3-2.6-2.8-3.7-2.5-3.3-3.2-4.4-2.8-13.4-2.8-5.2 0-2.2-0.9-2.1-1.7-1.2-1.3-1.1-1.4 1.4-3.7 0.5-3.9-0.7-2.4-1.3-2 0-2.3 2.2-0.7 1.7-2.1 0.3-3.1 2.1-3.5-0.1-5.1-1.2-5.2 1.1-4.3 1.7-1.1 3.7-1.4 3.3-2.1 0.4-2.2-3.8-3.3-1.2-1.8-1.8-0.7-3.6-3-3.1-4.2-4.1-3.3-1.5-4.9 9.2-6 4-4.2 4.5-6 0.2-1.5-0.2-1.3-0.1-1.4 0.8-3.5 1.6-3.2 4-6.6 0.4-2.7-0.9-0.6-1.6-1.6 0.5-1.7 0.7-4.5 3.1 0.4 4.1-0.7 0.8-1.1 0.3-1.9 0.2-2 2.3 1 2.2 1.4 7.5 6.2 1.9 0.6 5.4-1.6 2.7-0.3 4.4 1.5 1.7 0.9 1.9 1.8 2.2 0.2 3.1-2.5 3.3-1.6 3.9 1.7 2.4-1.4 1.9-2.5 5.3-4.4 2.5 0.8 3 2.3 2.3 0.4 0.7-1.3 0.5-3.5 0.5-1.7 1-1.4 2.2 0 2.3 1.7 0.9 0.5 3 1 5.1 3.7 2.8 6.5 0.3 3.6-0.3 3.7-0.6 3.9 0.2 3.8 1.1 2.8 1.3 2.5 1.7 2.4 1.1 2.7z" data-id="TUR3011" data-name="Konya" name="Konya"/><path id="TUR3012" d="M443.4 336.3l-3.7 1.4-3.9 0.3-1.9 0.8-5 3.9-3.8 0.7-1.9 1-1.3 0.2-1.8-0.6-4.3 0.4-4.2 1.6-6.6 0.6-2.1 0.6-1.9 1.2-1.7 1.5-1.7 1.3-2 0.6-1.7 2-0.6 2.9-1.1 1.9-1.9-0.5-0.5-1.2-0.7-0.4-1.5 0.6-2.4 1.5-0.8 0.3-2 0.4 0.1 2.1 1.1 1.3 0.9 1.5 0.5 1.9 0.7 1.7 1.3 0.6 1 1.3 1.1 0.9 2.8 0.7 2.4 1.8 1.2 2-1.3 1.7-2-0.8-1.9-1-0.8 0.2-0.7 0.3-0.7 2.1-0.7 2.4-1.2 1.2-1.7 0.3-3.2-0.2-3.1 0.8-2.9 1.3-3.2 0.1-3.4-0.9-3.4 0.4-1-2.1-2.1-1.1-1.7-1.2-1.4-1.8-2.2-4.4-1.8-4.7 5.9-4.4 7.4-7.4 1.6-2.5 0.2-1.9-0.8-1.8-3.1-0.2-3.2-1.5-0.3-2.3 1.3-4.3 4.9-6.5 6.3-8.6 8.9-9.9 4.9-2 7.8-1 8.1-0.5 5.3-2 2.6-3.4 1.5-2 2.4-1.5 5.1 0.2 2.2 0.8 0.3 3.2-0.1 1 1.1 4.2 5.9 6.5 7.3 7.9 3.5 5.9 1.3 2.6z" data-id="TUR3012" data-name="Karaman" name="Karaman"/><path id="TUR3014" d="M221.3 233.6l-0.3 2.8-0.8 2.5-3.2 3.1-0.7 2.6-1 2.8-1.2 1.5 0.1 1.8-6.5 1.5-0.4 4 0.4 3.9-1.7 1.5-1.9 0.6-4 0.1-3.7-0.4-2.6 2 0 0.9-0.7 1.3-0.6 0.1-1.3-0.9-1.4 0.7-1.7 0.6-1.7-0.1-1.7-1.9-1.8-0.3-2.7 1.8-2.9 0-2.8-1.7-3.1-0.7-2-2.1-1.5-0.1-1.4-1 0.5-1 1.4-1.3 1.1-1.7 0.7-2 0.3-3.1-0.3-3.3-0.1-1.6-0.2-1.4-1.2-1.5-1.5-0.5-0.2-2.4 1.5-0.5 1.6-1.7 0.6-1.4 4-3.1 1.9-2 2.9-2.4 3 0 3.2 2 3.5 0.5 3.8-0.2 6.5-1.8 3-0.3 1.3-3.1 0.9-3.7 1.4-0.8 1.4-0.5 3.3 0 6.5 1.5 1.5 0.6 2.5 2.9 0 6.9z" data-id="TUR3014" data-name="Usak" name="Usak"/><path id="TUR3016" d="M646.2 317.2l-0.9 0.2-0.8-0.1-0.9 0-0.8 0.6-2.3 2.9-1.8 1.8-0.5 0.9-0.4 1.6-1.1 0.9-0.3 0.5-0.6 2.4 0.8 0.5 0.6 0.7 0.4 1 0 1.4-0.3 0-0.4-0.8-0.5-0.1-0.4 0.5-0.2 1.1 0.2 1 0.4 0.9 0.9 1.4 0.3 0.8 0.1 0.6-0.1 1.6-0.3 1.9 0 0.8 0.7 0.7 0.6-0.4 0.5 0.3 0.5 0.6 0.5 0.3 0.4-0.1 1.3-0.6 0.6-0.1 0.6 0.3-0.1 0.7-0.6 1.6 0 1 0.1 0.6 0.8 0.9 1.4 1.3 0.2 0.5 0 1.6 0.3 1.3 0.9 1 0.3 0.6-0.6 0.2-0.5 0.4-0.1 0.8 0.1 0.9 0.3 0.6-0.9 0.6-1.5 0.4-8.4 3.9-8.6 1.8-3.2 1.4-3.7 2.4-4.4-3.9-4.8-2.7-3.8-2.1-1.6 1.1-2.2-2.7-4.3-4.4-4-2.7-3.5-0.7-1.6-3.7-1.9-1-1.6 1.3-0.6 4.4-3.5 2.4-4.3 2-2.8 2.7-0.5-0.6-0.8-0.1-0.7-0.5-0.4-1.4-0.9-0.8-4.2-1.9-3.4-3.4 1.3-2.4 1.9-1.8 3.7-4.7 2.8-5.6 2-3.1 2.4-2.7 6.3-2.9 2.4-3.4 2.6 1.6 1.5 5.9 4 1.3 4.7-5 2.9-1.5 6.5-1.1 7-2.5 3.3-0.4 3.3 0.1 2.2-1.5 0.7-3-0.4-1.9 0.1-2 5.7-1.2 5.7 0.1 6.1 2.3 4.1 3.6z" data-id="TUR3016" data-name="Gaziantep" name="Gaziantep"/><path id="TUR3017" d="M748.4 321.8l0.7 7.8 1.5 1.6 1.7 1.4 2.6 2.7 0.7 1.4-0.6 5.2 4.8 8.4 2.2 1.2-3.7 2.5-1.9 0.9-2 0.4-1.9 0.6-5.2 3.1-11.1 4.3-27.4 5.2-2.8 0.1-8.1-2.7-2.7 0.2-1.1 0.4-8.5 0.4-3.7-0.5-3.1-1.7-7.1-7.4-2.5-1.4-9.9-3-3.5-0.5-1.8 0.2-3.5 1.4-5 3.2-0.3-0.6-0.1-0.9 0.1-0.8 0.5-0.4 0.6-0.2-0.3-0.6-0.9-1-0.3-1.3 0-1.6-0.2-0.5-1.4-1.3-0.8-0.9-0.1-0.6 0-1 0.6-1.6 0.1-0.7-0.6-0.3-0.6 0.1-1.3 0.6-0.4 0.1-0.5-0.3-0.5-0.6-0.5-0.3-0.6 0.4-0.7-0.7 0-0.8 0.3-1.9 0.1-1.6-0.1-0.6-0.3-0.8-0.9-1.4-0.4-0.9-0.2-1 0.2-1.1 0.4-0.5 0.5 0.1 0.4 0.8 0.3 0 0-1.4-0.4-1-0.6-0.7-0.8-0.5 0.6-2.4 0.3-0.5 1.1-0.9 0.4-1.6 0.5-0.9 1.8-1.8 2.3-2.9 0.8-0.6 0.9 0 0.8 0.1 0.9-0.2 0.8 0.6 0.6 0 1.5-1.1 0.7 0.8 0.9 0.5 2.3 0.6 0.3 0.1 0 0.6 0.5 0.1 0.6-0.7 0.1-1.6 0.4-0.4 2.3 0.3 0.8-0.3 0.3-1.5 0.6 0 3-1.2 1.6 0.7 6.4-1.1 1.1-0.7 3.1-3.3 0.7-1.2 0.5-0.2 2.5-2.7 11.6-1.8-2.6-2-0.9-1 1-0.7 0.8 0.8 0.7 0.1 0.8-0.4 0.6-0.7 0.3-0.3 0.9 0.6 0.5 0 0.8-0.5-1.4-1.5-0.4-0.3 0.7-0.8 1-0.2 1.2-0.1 1-0.3-0.6-0.9 0.1-1.7-0.6-0.5-0.6 0.1-1.5 1-0.7 0.2 0.4-1 0.6-0.8 0.7-0.6 0.8-0.3 0.4 0.1 1.4 0.4 0.3-0.5 0.1-0.6-0.4-0.8 0.6-0.9 0.3-0.9 0-0.8-0.6-1 2.6-0.8 0.7-0.5 0.5-1 0.3-2.2 0.2-0.9 0.6-0.8 0.9-0.5 3.2-0.9 2-1.5 4.1 2.2 4.2 0.7 3.1 0.1 2.9 1.4 3.2 3.3 3.4 2.9 1.6 0.8 1.7 0.6 2 1.8 2.5 1.1 1-1.6 1.5 0.6 1.3 1.3 1 0.5 0.9 0.3 0.8 1.6-0.4 7.1 0.8 5 0.5 1.9 0.2 1 1.8 5.3 1.8 3.4 2.4 2.7z" data-id="TUR3017" data-name="Sanliurfa" name="Sanliurfa"/><path id="TUR3018" d="M566.2 259.2l-2.9 2.8-1.6 4.1-2.6 11.8-1.6 4.2-0.6 4.4-0.1 2 0.3 3.1 1.7 4.1-0.2 2.7-1.7 1.7-1 0.5-1.4 1.9-4 0-4.9 0.3-2.4 4.1-3 6.8-3.5 8.5 0 5.1 1.6 4.8 1.1-0.1 3.4 0.7 1.5 1.2 0.4 0.9 0.6 3.7-0.8 3.3-1.4 4-1.2-0.4-1.1-0.3-1 0.7-4.3 4.9 0 2.7 0.9 1.3-2.1 2.5-0.7 0.6-0.8 0.2-0.5 0.5-1.8 2-0.8 0.6-2 0.5-4.3 0.2-1.9 0.7-0.6 0.6-0.6 1.2-0.4 0-0.1-0.6-0.4-0.3-0.5 1-0.8 0.8-0.5 0.8 0.3 1 0.8-1.1 1.2 0.4 0.2-1.1 0.4 0.3 0.3 0.6 0.3-1-0.3-0.8 0.7-0.4 0.3 0.3 0.2 0.7 0.4 0.3 0.6-0.2 1-0.5 0.7 0.2-3.1 1.5-1.4 1.1-0.8 1.5 0.1 0.7 0.7-0.5 2.3-2.7 0.7-0.5 0.8-0.2-2 2-0.3 0.6-0.4 1.1-0.3 0.6-0.3 0.6 0 1.6-0.5 0.3-0.5 0.1-0.7 0.6-0.5 0.1-1.7 0.1-0.7-0.1-1.6-1.5-0.5-0.3-0.7 0.2-0.5 0.5-0.1 0.5 0.5 0.1 2.2 0.9-2.2-0.6-2.2-0.2-0.5 0.1-1.2 0.7-0.5 0.7-0.4 0.3-1.2 0.4-1.3 1.1-0.7 0-0.8-1.3-1.3-0.5-13.2-8-1.4-0.5-1.7-1.1-1-0.4-1.5-0.1 0-0.1 2.8-1.9 2.2-0.6 1.9-1.8 0.2-1.8-0.2-1.8-0.7-3.7 0-3.7 1.5-4.1-2-2-3.2 0.1-2.4-1.8-1.2-3.8-0.2-6.7-2.5-1.9-1.9-3.7-1.7-3.9-0.1-3.1 0.2-1.4 1.3-2.1 0.9-0.6 0.7-0.8 0.8-2.8-0.4-1.8-1.3-3.3-0.2-3.3 1.6-2.4 2.7 0.2 2.7 0.8 5.1-0.8 6.8-6.9 9 0.7 4.7 1.2 6.4 2.5 2.8-1.3-1.2-12.1 19.4-13.3 2.8-3.9 2.2-4.6 1.5-2 2.2-5.5 2.3-1.9 4-2.3 4.2-1.1 2.7 1.2 2 3.1 1.3 3.5 2.2 2.3z" data-id="TUR3018" data-name="Adana" name="Adana"/><path id="TUR3019" d="M433.7 128.2l0.6 3.2 2.2 4.9 1.3 1.3 1.2 0.2 1 1.1 0.2 1.5 0.7 2-0.2 2.2-1 1.7-1.4 2.8 0 3.5 0.5 1.3 0.3 1.5-0.2 1.4 0.5 1.4-8.3 8-2.4 7-3.6 5.7-8.4 6.8-5.9 10.3-4.1-8.1-2.1-9.7-1.4-2.6-4.2-5-1.3-5.8 1.6-5.7 1.3-5.8 2.3-5.8 3.9-1.6 6-0.7 0.7-3.9-0.4-4.1 0-4.6 0.7-3.9 0.7-5.6 14.4 4.6 4.8 0.5z" data-id="TUR3019" data-name="Kinkkale" name="Kinkkale"/><path id="TUR3020" d="M483.3 255.4l3.7 10.2 3 3.2 8.5 0.1 1.4 4.5-0.5 2.8 0.2 2.8 1.1 2.3 0.5 2.4-2.4 1.5-0.2 3.4-0.9 4.1-6.8 6.9-5.1 0.8-2.7-0.8-2.7-0.2-1.6 2.4 0.2 3.3 1.3 3.3 0.4 1.8-0.8 2.8-0.7 0.8-0.9 0.6-1.3 2.1-0.2 1.4 0.1 3.1-3.7-0.9-3.6 1.6-1.6 1-1.8 0.6-3.9 0.1-1.2-2.8-1.9-2.2-1.3-1-2-2.9 0-1.9 0.3-3 0.8-1.7 1.2-1.4 1.2-3.4-0.6-3.8-1.7-2.3-2-2-1.8-3.2-2-2.9-2.4-1.3-2.5-1-1.8-2.7-0.7-3.4 17.2-25.7 3 0.5 4.4-1.4 3.1-0.1 1.4 0.8 2.2 2.2 2.7 0.7 5.4-2.1z" data-id="TUR3020" data-name="Nigde" name="Nigde"/><path id="TUR3021" d="M447.9 218.9l-0.6 2.7 1.7 6-0.8 3.3-1.8 3.1 0.7 3.3 2.4 1.6 2.6 0.8 2.3-0.5 1.1 0.4 0.4 3-1.6 3.4 0.1 3.2 0.9 0.9 2.1 1.7 1.8 1.8 1.9 1.2-17.2 25.7-3.9-0.6-3.9 0.9-4 1.6-4.1 1-4.1-0.2-8.2 0.6-6.2 1.4-2.2-0.1-2.2-2.1-3.5-4.3-0.8-2.5-0.4-2.8-0.5-0.7-0.7-0.5-1.9-5.1 0.4-5.4 0.8-2.3 0.3-2.5 1.2-3.5 1.9-2.8 0.7-5.3 1.2-2.2 3-3.4 1-1.9 4.5-1.2 4.3-2.5 4.5-1.2 4.7 0.1 2-1 4.3-4.1 0.2-3.9-2.1-5.7 1.8-4.4 0.7 1 2.1 0.4 1.2-0.1 2 1 0.8 2.6 2 1.9 2.6-1.6 1.1-0.3 2.3 0.3 1.1-0.2z" data-id="TUR3021" data-name="Aksaray" name="Aksaray"/><path id="TUR3026" d="M514.3 133.4l3.6 4.1 4.1 2.9 4.9-0.4 4.1 0.8 2.4-0.2 2.4-0.5 2.2-1 2.2-0.6 2.2 2.2-0.4 3.8-0.1 2.6 1 2 1 0.9 0.6 1.5 1.5 5 2.5 4.5 1.8 1 0.5 1.4 0.2 1.6-1.6 5.6-3.8 3.8-4.5 3.5-1.8 2.2-1.6 2.5-1.2 2.5-1.7 2.2-2.4 1.8-1.9 2.3-4.4 6.1-16.9 11-2.3 0.8-5.9 3.8-11.8-1.9-0.7-1.7-0.8-1.6-0.4-1.4-0.2-1.6 0.4-1.6-1.1-2-4.2-2.6-0.7-2.7-1-2-1.7-0.9-1.3-1.6-0.5-1.3-0.2-1.5-0.4-0.8-1.5-0.7-0.9-0.2-1.3-3.2-2.3-1.9-2.6-0.5-2.3-1.5-7.2-8.9-0.6-1.4-0.5-1.5-1-1.5-4.1 0-2.4-0.8-2.6-3-2.7-2.6-2.9 0-1-1-1.1-1-0.5-1.4 0.2-1.4-0.3-1.5-0.5-1.3 3-1.4 8.2-1 4.9-2.3 5.1-1.7 8 1.5 3.1-1.2 2.1 0.2 4.2-0.3 7.8-3.8 4.4 1.3 2.4-0.3 4.1-2.4 1.4-1.9 0.1-1.3 0.6-1.5 0.2-1.2-0.7-0.8 0.5-3 5-0.4 2.1-0.8 0.5 0.2 0.4 1.4 1 0.7 2.3 0.2 2.7-0.2 2.6 0.8z" data-id="TUR3026" data-name="Yozgat" name="Yozgat"/><path id="TUR3031" d="M739.7 107.9l1.8 10.1-0.4 10.1-1.7 3.9-0.6 2.2-0.2 2.3 1.1 4.6 1.9 4.2-2 3-2.3 2.4-5.8 1.4-2.8 1.4-3 0.3-3.1-0.2-3 0.3-3.2-0.3-3.1-1.6-3.1-1-1-0.9-0.8-1.1-1.9-1.2-2-0.8-5.6-3.4-1.6-0.4-1.6-0.2-1.5-0.7-1.4-0.9 0.5-2.3-1.5-1.8-0.4-2.4 0.2-2.5-0.2-2.3 0-2.2 1.2-1.4 5.2-3 1.6-1.2 0.3-2.5-1.2-0.4-1.4-1.5-1.5-1.2-6.1-1.5-1.5-1.7-0.1-2.5 0.4-3.1 0.1-0.5 0.5-0.8 1.6-1.6 1-1.8-0.7-2.2 0.7-1.7 1.6-1.1 1.5-1.3 1.3-0.4 1-0.5 0.2-1 0.4-0.8 6.3-0.8 1 0.8 1.1 0.1 1-0.9 0.9-1.2 2.2 1.2 0.8 4.1 3.5 3.6 12.1 5 3.2 0.4 1-0.3 0.8-0.9 0.6-2.8 1.7-1.2 3.5 2.4 2.5 4.2z" data-id="TUR3031" data-name="Gümüshane" name="Gümüshane"/><path id="TUR3032" d="M773.9 109.2l1.7 4.2 1.5 9.3 1.3 4.2 3.2 1.8 3.4 0.8 1.5 0.6 3.5 0.3 0.1 1.4-1.2 2.5-1.5 1.8-6.5 2.3-2.9 1.4-2.2 2.2-2.3 1.8-1.9 0.3-8.5-1-8.6-1.8-2.4 1-2.1 1.9-2.6 0.3-3-0.2-2.8 1-1.9-4.2-1.1-4.6 0.2-2.3 0.6-2.2 1.7-3.9 0.4-10.1-1.8-10.1 1.1 0 0.8-1-0.3-1.6 1-0.9 1.6 0.6 3.2 3.6 2.1 1.3 4.5 0.1 4.3 1.4 2.3-0.1 2.5-0.8 2.6-0.5 5.4 0.1 2.1-0.7 1-0.2z" data-id="TUR3032" data-name="Bayburt" name="Bayburt"/><path id="TUR3040" d="M939.5 138.8l-6.9 2.4-6.5 1-2.7 1.3 0 2.6-2 2.3-2.8-1.2-2.4 0.5-2.4-0.6-5.6-0.1-16.1 4.6-10-2-1.6-2.5-1.2-2.7-1.4-2.1-2-0.9-1.1-0.3-0.8-0.7-0.7-1.4-0.9-1.2-1.5-1.1-1.7-0.6-4.5-0.8-1.3-1.4-1.1-1.8-1.8-2.2 1.6-3.7 7.6-2.6 3.3-1.9 1.7-1.4 1.8-1.2 2.2-0.9 2-1.3-1.2-6.9 0.8-2.3 0.4-2.4 6-1.2 6.2-0.6 1-5 0.8-8.2 1.2-5.3 6.2-3.3 17-7.3 5.3-3 3.4-1.1-0.3 1.6 0.5 2.2 0.8 2 1 0.9 2.2 0.3 2.3 1.2 2 1.7 1.7 2 0.6 1.4 0.2 1.3 0.1 1.4 0.3 1.6 0.5 1.3 2.2 3.5 0.5 1.3 0.1 1.2 0.3 4.7-0.1 0.6-1.1 1.9-0.3 0.4 0.4 1.6-2.2 2.6-0.7 1.4 0 1.7-0.3-0.3-0.8-0.2 0.4 0.9-1.2 0.2-1.2 0.8-1.7 2.1 0.2 0.9 1.1 1.3 2.1 1.8 0 0.4-0.8 2.8-0.5 0.8-0.3 1.1 0.5 1.1 1.4 1.3 2.3 3 0.8 1.9-0.9 0.8 0.5 1.2 1.7 2 0.3 0.7-0.5 0.9-2.4 0.5-0.7 0.7 0.7 2z" data-id="TUR3040" data-name="Kars" name="Kars"/><path id="TUR3041" d="M843.1 299.6l3.1 8.2 1.5 5.7-0.6 4.4-3.9 1.9-5 2.7-2.1 2.4 0.8 2.7 6.1 1.9 3.2 2.8 1.1 4.1-21.8 5.1-14.5 0.7-1.1-0.3-2.3-1-12.5-2.5-9.7 1.5-2.6 1-7 3.9-2.4 0.7-1.2 0-1.1 0.3-1.1 0.4-1.1 0.6-6.9 4.7-2.2-1.2-4.8-8.4 0.6-5.2-0.7-1.4-2.6-2.7-1.7-1.4-1.5-1.6-0.7-7.8 5.1-6.6 2.3-2.1 5.7-4 2.6-1 5.8-4.5 4.2-0.3 2.4-3.3 0.7-1.5 5.7-1.2 18.2 0.4 3.4-1.5 1.3-0.1 1 0.5 3.6 4.7 3.7 7.6 5.6 3.5 8-1.6 5.8-4.3 9.6-6.9z" data-id="TUR3041" data-name="Mardin" name="Mardin"/><path id="TUR3042" d="M835.8 266l-2.3 2.7-1.1 3.6-2.6 3-6 1.7-1.7 3 0.4 4.3 5.6 5.2 9.5 3.9 5.5 6.2-9.6 6.9-5.8 4.3-8 1.6-5.6-3.5-3.7-7.6-3.6-4.7-1-0.5-1.3 0.1-1.2-2-0.4-2.5-0.5-1.9 0.5-1.6 2.5-1.8 2.1-2.4 2.4-8 1-1.4 0.8-1.6 0.4-3.7-0.7-7.2 0.6-3.9 1.1-3.6 0.4-2.4 1.2-1.7 2.7-1.3 1.7-0.5 1.7-0.2 2-1.1-0.3-2.3 2.8-0.9 2.9-0.4 4.5 1.7 1.8 9 1.2 3.6 0.2 2.4 0 2.5-0.2 1.5 0.1 1.5z" data-id="TUR3042" data-name="Batman" name="Batman"/><path id="TUR3043" d="M893.7 268.6l4.1-0.2 4.2 0.8 3.6 1.4 0.5 4.7-0.1 2.7 0.3 2.7-0.2 2.8-0.7 2.7-0.2 3.8-0.7 1.6-0.6 1.9 2.1 4.9-0.6 3.7-3.2 3.3-8.8-0.9-11-1.6-10.6-2.7-6.9-0.3-4 4.1-10.4-0.8-7.4-3.6-5.5-6.2-9.5-3.9-5.6-5.2-0.4-4.3 1.7-3 6-1.7 2.6-3 1.1-3.6 2.3-2.7 5.4 2 5.6 0.5 4.5-1.2 4.5-1.7 3.5 1.6 3.1 3.1 3.3 2.6 3.8 1.6 3.6 0.9 2.4 1 3.2 2.4 5.3 3 3.5 2.5 2-0.1 1.6-2.4 0.2-3-0.3-2.1 0-2 0.6-0.9 0.6-0.8 1.5-4.4z" data-id="TUR3043" data-name="Siirt" name="Siirt"/><path id="TUR3044" d="M925 298.3l-0.4 6-1.1 3.8 0.9 3.5 1.7 4.4-0.4 5.7-1.3 3.5-0.7 1.3-1.4-1-0.6-0.2-1 0.2-0.4 0.2-0.5 0.5-0.5 0.1-0.8-0.2-6.8-3.7-0.9-0.3-1.6 0.2-2.1 0.5-2 0.9-1.4 1-2.2 0.8-2.1-0.3-4.3-1.5-0.4-0.3-0.3-1.1-0.4-0.4-1.1 0-2.6 1-0.3 0.3-0.3 0.5-0.2 0.9-0.2 0.5-6.6 9.6-0.8 2.2-0.8 0.3-4.5 0.8-3 1-2.3 0.3 0-1.9-0.2-0.9-0.4-0.4-0.6-0.9 1-3.6-0.4-0.9-0.3-0.1-1.8-1.5-0.7-1.3-0.3-0.1-1 0.8-1.6-0.8-0.7-0.1 0-1.7-0.6-0.7-1 0.7-0.7 0.5-2.6 3.5-4 3.7-2.3 1.4-5.8 1.4-1.1-4.1-3.2-2.8-6.1-1.9-0.8-2.7 2.1-2.4 5-2.7 3.9-1.9 0.6-4.4-1.5-5.7-3.1-8.2 7.4 3.6 10.4 0.8 4-4.1 6.9 0.3 10.6 2.7 11 1.6 8.8 0.9 3.2-3.3 0.6-3.7 4.2-2.3 4.4 0.6 4 1.7 1.3 0.3 2.5-0.1 2.6-0.3z" data-id="TUR3044" data-name="Sirnak" name="Sirnak"/><path id="TUR3045" d="M777.3 176.9l-2 2.5-2.6 1.2-1.4-0.1-2.4-0.4-0.9 0.7-1.4 3-2.5 1.8-2.5-0.1-2.4 1-0.4 1.3-0.5 1.1-0.7 0.3-3.7-0.2-2.6 0.8-0.7 1.4-0.3 3.3-0.6 1.7-0.3 1.8 1.1 5.1-0.4 2.2-0.9 2.1-2.8 0.2-2.6 0.6-1 0.7-0.7 1.1 0.6 2.6 0.2 2.3-0.7 3.2-1.4 2.8-3.2 3.6-4.9 1.9-5 0.3-1.9-0.1-1.8 0.4-1.3 1.7-1.6 1.1-1.3-0.4-1.3-0.6-1.3 0.3-1.2-1.5-1-0.7-2.3-0.7-2.3-1.6-2.4-1.1-2.1-0.2-2.1-0.7-1.7-0.1-1.6-1-0.5 0-1.6 0.3-2.2-1-4.1 0.3-4.1 1.1-1.5 0-2.2-2.2 0-1.9 0.8-1.7-0.1-2-2-3-0.4-4.2-0.9-0.7-0.2-1.6 0.2-1.6 1.8-1 0.8-3.8 1.2-0.7 1.4-0.3 1.4-0.9-0.7-1.3-0.7-2 0.9-2.2 3.1-1.1 0.6-0.3 0.6-1.2 0.7-1.1 1.5 0.1 1.3-0.7 1-1.8 1.4-1.1 5.2-2 2.7-0.5 2.7 0.5 2.2-0.6 2.1-1.1 4 0.3 4 0.9 4.1 0 8-1.2 3.6-1.2 2.4-3 1.9-0.6 2.8 1.6 4.1 1 4.8-1.6 1.1-0.2 2-0.9 1.7-0.6 0.1-0.2 0.6 0.1 2 0.7 1 0.6 7.7 0.2 4.3 0.7 4.2 0.1z" data-id="TUR3045" data-name="Tunceli" name="Tunceli"/><path id="TUR3047" d="M967.6 287l-0.1 0.5 0.9 1.4 1.8 0.3 3.4-0.4 0.6 0.2 1.9 0.9 0.5 0.4 0.3 0.6 0.5 1.6 0.6 0.7 0.4 0.2 0.7-0.2 0.4 0.3 0 0.3-0.2 1.5 0.4 0.7 0.7 0.1 0.9-0.3 0.6-0.4 1.4-0.2 1.5 0.7 1.3 1.1 1.9 2.4 0.1 0.6-0.5 0.9-1.8 1.4-0.4 0.6-0.3 2 1.1 1.2 1.1 0.9 0.3 1.1-0.5 1.3-0.4 1.7-0.1 1.6 0.5 2.5-0.7 1.9 0.4 1.1 0.7 0.4 1.9 0.2 0.8 0.6 0.7 1.9 0.5 0.5 1.9-0.3 0.5 0.6 0.3 1 0.4 0.9 3 1.9 1.2 1.4-0.1 2.1-0.7 0.8-0.7 0.4-0.6 0.6-0.4 1.2 0.2 1.3 0.5 1.1 0.3 1.1-0.3 1.3-0.7-1.2-1-0.5-5.5-0.8-1 0.1-1.6 0.8-2.1 1.4-1.8 1.8-1.3 1.6-1.3 1.1-1.4 0.7-4.4 1.5-0.4 0.7-0.2 1-0.8 1.4-0.5 1.1-0.5 0.5-0.6 0.1-2.2-0.6-0.5-0.4-0.3-0.7-2.1-4.7-0.4-1.4 0-1.4 0.5-1.3 0.9-1.1 0.6-0.4 1.1-0.4 0.5-0.8 0-1.4-0.3-1.5-0.4-1.5-0.6-1.1-0.9-0.9-1.2-0.7-5-2.1-2.7-0.5-2.4 0.4-1.9 1.6-1.5 2.3-1.6 1.8-2.8 0.5-0.9 1-0.7 0.2-0.4-0.3-1.1-1.1-0.5-0.3-1.3-0.4-1.3-0.1-5.4 0.4-1.2-0.2-1.3-0.5-1.4-1-0.7-0.1-0.6 0.1-1.3 0.5-0.7 0.1-0.9-0.3-2.4-2-2.1-1.1-0.7-0.6 0.7-1.3 1.3-3.5 0.4-5.7-1.7-4.4-0.9-3.5 1.1-3.8 0.4-6 7-0.1 6.9-1.1 1.5-0.8 1.5-0.6 2.2 0.3 2.1 0.9 3.4 0 3.3-0.7 2.9-1.7 1.3-3.6 2.1-3.7 3.8-0.8 4.6 0.6z" data-id="TUR3047" data-name="Hakkari" name="Hakkari"/><path id="TUR3048" d="M959.4 191.2l0.2 0.7 0.3 1.4 0.6 1.3-0.1 1 0 0.6 0.2 0.6 0.6 1.3 0.1 0.6-0.4 1.2 0.1 0.6 1.3 1 2.3 1.3 2.1 1.4 0.4 1.6-1 2.1-0.3 1 0.5 2.7-0.5 0.8-0.9 0.7-0.7 1.3 0.4 0.9 0.3 1 0.3 0.5 0.8 0.8 0 1.2 0.9 2.5 0.8 1 0.8 0.8 2.8 1.3 0.2 2-1.4 4.9-0.2 1.3 0.1 0.8 0.2 0.8 0.3 1.2-0.2 0.5-0.5 0.5-0.1 0.4 0.6 0.3 1 0.3 0.7 0.7 0.4 1.1 0 1.4-0.2 2.7 0.4 3.4 0 1.1-0.7 2.7 0 0.8 0.2 1.7-0.2 1.7 0.1 0.6 1.3 0.7 2.6 0.4 1.7-1 0.7-0.1 0.8 0.3 0.7 0.6 0.6 0.9 0.4 1.1 0.1 1-1.2 1.7-1.9 1.5-1.5 1.7 0.3 3.2-0.2 1.3-0.3 1.3-0.4 0.9-0.4 0.6-0.9 0.4-0.4 0.3-0.1 0.6 0.4 1.3-0.3 0.4-1 0.5-0.6 0.5-0.5 0.9-0.5 1.3-0.4 1.1-1.3 1.4-0.9 1.8-0.3 0.8-0.1 0.9 0.2 0.9 0.1 0.8-1 1.4-0.1 0.3-4.6-0.6-3.8 0.8-2.1 3.7-1.3 3.6-2.9 1.7-3.3 0.7-3.4 0-2.1-0.9-2.2-0.3-1.5 0.6-1.5 0.8-6.9 1.1-7 0.1-2.6 0.3-2.5 0.1-1.3-0.3-4-1.7-4.4-0.6-4.2 2.3-2.1-4.9 0.6-1.9 0.7-1.6 0.2-3.8 0.7-2.7 0.2-2.8-0.3-2.7 0.1-2.7-0.5-4.7-3.6-1.4-4.2-0.8-4.1 0.2-2.8-0.9-0.9-3.4 0.5-2.3-0.1-1.7-0.2-0.9-1.9-4.2-0.3-1.4 0.5-2.9 0.9-0.9 5.6-3.2 3.3-2.3 1.1-1.9 0.9-2 4.8-7.2 2.8-3 3.8-3 1.5-4.9-2.1-3.3-6.1-3.7-1.6-3.4-0.1-5.2 6.1-2.4 1.3-1.4 0.1-2.4 0.3-2.3-0.3-2.1-2.1-0.8-1.9-1.2 0.4-2 1.2-0.5 3.1-0.6 1.8-0.6 1.9-2.5 2.3-1.8 4 0.3 3.6 1.6 3 3.2 2.4 1.5 4.5 0.8 1.8 0.1 1.3-1.4 1.5-1.1 2-0.3 2 0.3 2.5 0.9 3.1 0.3 0.9 0.3 1.9 0.4 7.4-2z" data-id="TUR3048" data-name="Van" name="Van"/><path id="TUR4839" d="M927.8 70.3l-3.4 1.1-5.3 3-17 7.3-6.2 3.3-1.2 5.3-0.8 8.2-1 5-6.2 0.6-6 1.2-1.6-2.8-2.1-2.1-1.5-2.3-1.1-2.7-1.5-1.9-1.9-1.3-2.7-4.1-1.1-5.3 3.3-6.5 4.5-5 4.4-2.2 1.4-4.7-1.5-4.8-1-2.5-0.4-0.7-0.6-1.7-0.4-3-0.7-4 0.6 0 1.1-0.7 1.6-2.4 1.1-1.2 0.5-1.1 0.5-2.9 0.5-1.2 1.1-0.8 1.3-0.4 2.6-0.2 7.3 0.6 1 0.5-0.4 0.6-0.3 1.4-0.2 0.7-0.4 0.5-1 0.8-0.5 0.7 1.4 0.8 1 1.1 0.9 0.3 1.3-1.4 0.7-0.5 0.4 0.5 0.3 0.8 0.4 0.8 0.4 0.3 1.5 0.5 0.8 0.9 0.5 0.2 0.4 0.4 1.6 3 0.7 0.8 3.8 2.6 2.6 2.2 1.6 0.8 1.5 0.2 0.1 0.4-0.7 1-0.8 0.7-2.8 1.4 1.4 0.5 1.1-0.2 1.1 0.2 1 1.2 1.3 3 0.7 0.6 4.8-1.4 1.5-0.1 1.7 0.5 1.4 0.8 1.4 1.3 0.8 1.7-0.6 1.8z" data-id="TUR4839" data-name="Ardahan" name="Ardahan"/><path id="TUR4840" d="M980.8 170.6l-0.8-0.7-2.1-0.5-9.3 2.2-4-0.5-3.9-1.2-5.2 0.6-4.8-0.7-0.3-1.1-0.3-0.9-3.3-0.8-4.7-2.2-1.6-2.1-1.1-2.5-1.7-1.2-1.1 0-1.7-0.8-0.7-0.6-1.7-0.3-3.5 1.4-3.3 2.4-1.8-0.7-0.9-0.8-0.7-2.5 0-1.6 0.3-3.3-1.2-3.8 2-2.3 0-2.6 2.7-1.3 6.5-1 6.9-2.4 2.4 1.3 4.7 1.4 5.7 3.1 6.3 1.1 0.9-0.3 1.8-1.3 1.1-0.3 0.5 0.2 0.7 0.6 0.4 0.2 0.5-0.1 1.1-0.3 1.5-0.2 3.1-0.9 1.8 0 1.9 0.6 7.2 4.3 3.1 2.6 1.3 1.5 0.6 1 0.4 1.6 0.5 0.5 0.7 0.6 0.2 0.6 0 0.8 0.2 0.4 0.7-0.4 1.9 2.2 1 0.5 0.8 0 0.5 0.3 0.3 0.5 3.2 4.2 1.3 2.3 0.6 2.5 0.6 0.9-4.2-3.1-1-0.9-3.2-1.4-0.7-0.9-1.4-2.1-0.8-0.6-1.3 0.4-5.5 4.6-0.2 0.8 0.2 2.2-0.1 0.8z" data-id="TUR4840" data-name="Iğdir" name="Iğdir"/><path id="TUR4841" d="M619.2 367.7l-3.9 2.6-2.2 0-8.5-1.6-1.1 0.1-3.4 0.9-0.9-0.2-0.9-0.2-0.8-0.1-1 0.4-0.8 0.9-0.4 0.6-0.5 0.1-1.1-0.5-0.9-0.9-0.2-0.8 0.4-2.1 0-1.3-0.4-0.9-2.4-2.2-1-0.6-1.1-0.4-1-0.2-3.2-0.2-9.6-3.4 2.8-2.7 4.3-2 3.5-2.4 0.6-4.4 1.6-1.3 1.9 1 1.6 3.7 3.5 0.7 4 2.7 4.3 4.4 2.2 2.7 1.6-1.1 3.8 2.1 4.8 2.7 4.4 3.9z" data-id="TUR4841" data-name="Kilis" name="Kilis"/><path id="TUR4842" d="M554.5 302.5l-0.1 5.2-1.1 1.9-1.5 1.6-0.4 2 0.6 1.9 0.7 0.7 0.6 0.8 0.2 4.4 2.2 2.6 0.5-0.1 0.3-0.6 0.5-0.3 1.3-0.5 0.9 1 1.7-0.3 2-0.8 5.7-1.1 2 0.5 1.8 1.3 2.8 2.6 2.3 3.4-2.4 2.7-2 3.1-2.8 5.6-3.7 4.7-1.9 1.8-1.3 2.4-2.6 0.3-2.6 0-2-1.3-1.7-1.8-2.4-0.8-2.4 0.7-2.2-0.1-2.1-0.6-2.3 0.4 1.4-4 0.8-3.3-0.6-3.7-0.4-0.9-1.5-1.2-3.4-0.7-1.1 0.1-1.6-4.8 0-5.1 3.5-8.5 3-6.8 2.4-4.1 4.9-0.3 4 0z" data-id="TUR4842" data-name="Osmaniye" name="Osmaniye"/><path id="TUR5518" d="M197.3 99l0 6.1-0.4 2.7-3.3-0.7-3.3 3.5-3.3 0.7-8-3.5-1.6 0.2-3.6-0.9 0.1 7.4-0.5 0.2-2.8-0.6-4.6-2.9-2.8-0.7 0.9-2.1 1.8-1.2 3.7-1.4 1.6-1 2.2-2.3 0.8-0.4 15.4-1.4 2.2-0.8 2.1-1.2 1.1-0.8 0.4-0.1 0.4 0.4 0.4 0.6 0.5 0.5 0.6-0.3z" data-id="TUR5518" data-name="Yalova" name="Yalova"/><path id="TUR5519" d="M320.9 74.8l-0.9 6-2.6 3-4.8 1.1-6.7 1.2-2.6 1.9-0.2 3.6-1.9 5.1-4 3-5 0.6-5.9-2.5-8.5 0.2-4.3-1.5 1.2-2.1-1.1-1.6-0.5-1.8 0.7-2-0.1-2.1-0.9-1.8-0.4-2.1 1.8-4.1 3-2.8-0.1-1.5-0.3-2 0.1-0.7 7-0.1 1.3-0.8 0.5-0.1 0.7 0 1.1 0.3 0.5 0.1 2.2-0.4 1.1 0.4 0.4-0.1 0.2-0.6 0.3-0.3 2.1-0.8 1.8-1.1 1.2-1.2 2 1.9 8.9 4.4 12.7 1.3z" data-id="TUR5519" data-name="Düzce" name="Düzce"/><path id="TUR5520" d="M387.1 71.2l-2.2 5.6-5.1 2.8-5.1-0.5-1.8 1.1-2.5 4.5-6.2 5-5.4 2.5 0.2-1.8-2-3.6-6-3-2.4-1.5-1.5-0.3-1.2-0.8 0-1.9 0.2-1.9-4.4-1-2.6-0.1 0-6.2 1.7-5.6 0.9-3.6 1.9-2.3 2.7-3.9 5.7 0.3 5.5-1.4 6.3-5.4 2.3-5 3-0.9 4.9-4.7 1.8 2 3.1-0.5 3.9-1.3 3.7 2.8 1.5 6.2 1.5 3.4-5.1 1.1-2.8 2.7-2.3 3.2-0.5 2.4 1 7.4 2.9 0.5 2.8 1.2 1.1 1.6 0.5 0.9z" data-id="TUR5520" data-name="Karabük" name="Karabük"/><path id="TUR5521" d="M374 37.6l-4.9 4.7-3 0.9-2.3 5-6.3 5.4-5.5 1.4-5.7-0.3 1.1-5.9-1.9-4.8-1.1-3.6-3.1-1.4-3-3 1.5-0.9 0.8-1.7 3.4-3.9 0.3-0.4 0.8-1.5 1.7-0.5 2.9-0.2 0.1-0.4 1-0.5 0.2-0.8 0.5 0 0.7 0.8 0.9-0.5 1.2-1.3 0.7-0.6 3.6-1.9 0.6-0.5 0.7-0.3 0.8-0.1 0.8 0.4 0.6-1.1 1.2-0.9 1.4-0.3 1.2 0.6 0.9-0.1 3.1-1.2 0.8-0.4 0.8 0.1 1.5-0.1 0.5 4.2 1.5 3.1 1.9 5.1-3.4 2.4 0.5 5z" data-id="TUR5521" data-name="Bartın" name="Bartın"/><circle id="0" cx="401.7" cy="111.5"/><circle id="1" cx="403.7" cy="112.1"/><circle id="2" cx="280.5" cy="129.9"/></svg>